<svg width="36" height="22" viewBox="0 0 36 22" fill="none" xmlns="http://www.w3.org/2000/svg">
<path d="M25.9044 5.24918L27.9112 13.6274C28.1312 14.5457 27.4351 15.4282 26.4908 15.4282H8.39126C6.6671 15.4282 5.12642 14.3515 4.53372 12.7324L4.36933 12.2834C4.2821 12.0451 4.45849 11.7927 4.71222 11.7927H16.5326C16.6726 11.7927 16.7861 11.6792 16.7861 11.5393C16.7861 10.4894 15.935 9.63835 14.8852 9.63835H6.27176C4.5476 9.63835 3.00692 8.56168 2.41422 6.9426L2.26626 6.53841C2.17904 6.30014 2.35542 6.04774 2.60915 6.04774H13.8397C13.9797 6.04774 14.0931 5.93427 14.0931 5.79429C14.0931 4.74444 13.2421 3.89338 12.1922 3.89338H4.16869C2.44453 3.89338 0.90385 2.81671 0.31115 1.19763L0.17962 0.838325C0.0923968 0.600057 0.268781 0.347656 0.522512 0.347656H19.6901C22.6458 0.347656 25.2158 2.37476 25.9044 5.24918Z" fill="url(#paint0_linear_454_4550)"/>
<path d="M33.0102 7.74269L35.8247 19.83C36.038 20.7459 35.3426 21.6218 34.4022 21.6218H15.5241C13.7361 21.6218 12.1535 20.4652 11.6104 18.7617L11.4191 18.1618C11.3064 17.8085 11.5701 17.4477 11.9409 17.4477H29.1792C30.1249 17.4477 30.8213 16.5626 30.5987 15.6434L28.0808 5.243C27.9973 4.89831 28.2585 4.56641 28.6131 4.56641H29.0093C30.9192 4.56641 32.5771 5.88262 33.0102 7.74269Z" fill="url(#paint1_linear_454_4550)"/>
<defs>
<linearGradient id="paint0_linear_454_4550" x1="14.0482" y1="0.347656" x2="14.0482" y2="15.4282" gradientUnits="userSpaceOnUse">
<stop stop-color="#FFC803"/>
<stop offset="1" stop-color="#FFA903"/>
</linearGradient>
<linearGradient id="paint1_linear_454_4550" x1="23.5936" y1="4.56641" x2="23.5936" y2="21.6218" gradientUnits="userSpaceOnUse">
<stop stop-color="#FF7421"/>
<stop offset="1" stop-color="#EC5901"/>
</linearGradient>
</defs>
</svg>
