<svg width="199" height="33" fill="none" xmlns="http://www.w3.org/2000/svg">
  <path d="M73.694 9.71c4.507 0 7.545 1.798 7.545 5.317v.836h-4.05v-.836c0-1.417-1.317-2.126-3.495-2.126h-.455c-2.228 0-3.494.658-3.494 1.62v.253c0 1.165 1.013 1.494 5.114 2.178 4.633.835 6.684 2.202 6.684 5.063v.253c0 2.86-2.583 4.911-7.773 4.911h-.48c-5.241 0-7.9-2.076-7.9-5.595V20.8h4.051v.784c0 1.798 1.393 2.38 3.874 2.38h.455c2.355 0 3.671-.557 3.671-1.645v-.228c0-1.089-1.215-1.57-5.29-2.228-4.28-.684-6.507-1.975-6.507-4.886v-.33c0-3.139 2.886-4.936 7.595-4.936h.455ZM93.924 26.925v-1.696h-.532c-.785 1.19-2.228 1.949-4.253 1.949h-.43c-3.14 0-4.912-1.696-4.912-5.392v-7.849h4.05v7.114c0 1.798.937 2.785 2.81 2.785h.431c1.873 0 2.836-.987 2.836-2.785v-7.113h4.05v12.987h-4.05ZM104.957 13.937v1.595h.532c.936-1.165 2.329-1.848 4.278-1.848h.456c3.291 0 5.696 1.848 5.696 6v1.493c0 4.152-2.405 6-5.696 6h-.456c-2 0-3.367-.706-4.278-1.898h-.532V33h-4.051V13.937h4.051Zm0 5.696v1.57c0 1.898 1.291 2.81 3.215 2.81h.456c1.949 0 3.24-.937 3.24-2.81v-1.57c0-1.848-1.291-2.785-3.24-2.785h-.456c-1.924 0-3.215.912-3.215 2.785ZM125.745 13.684c4.127 0 7.089 2 7.089 6.05v1.646h-10.886v.152c0 1.873 1.19 2.81 3.316 2.81h.481c1.772 0 2.886-.506 3.241-1.747h3.721c-.354 2.684-2.582 4.582-6.962 4.582h-.481c-4.126 0-7.139-1.924-7.139-5.974v-1.469c0-4.05 2.987-6.05 7.139-6.05h.481Zm-3.772 5.139h7.013c-.152-1.494-1.393-2.304-3.266-2.304h-.481c-2 0-3.114.81-3.266 2.304ZM139.519 13.937v1.493h.507c.759-1.139 1.924-1.746 3.696-1.746 2.785 0 4.253 1.392 4.253 5.038v.86h-3.747v-.531c0-1.342-.759-2.05-2.354-2.05-1.595 0-2.355.708-2.355 2.05v7.873h-4.05V13.937h4.05ZM164.685 8.191v18.735h-4.051V25.28h-.557c-.911 1.192-2.253 1.899-4.253 1.899h-.481c-3.291 0-5.671-1.823-5.671-6v-1.494c0-4.152 2.38-6 5.671-6h.481c1.949 0 3.316.684 4.253 1.848h.557V8.191h4.051Zm-10.962 11.443v1.57c0 1.848 1.291 2.81 3.215 2.81h.455c1.95 0 3.241-.936 3.241-2.81v-1.57c0-1.848-1.291-2.784-3.241-2.784h-.455c-1.924 0-3.215.962-3.215 2.784ZM174.656 13.684c4.582 0 6.658 1.746 6.658 4.708v8.532h-4.05V25.28h-.608c-1.012 1.319-2.456 1.898-4.658 1.898-2.734 0-4.709-1.212-4.709-3.924 0-2.633 1.747-4.177 5.798-4.177h4.177v-.684c0-1.29-.886-1.898-2.633-1.898h-.456c-1.671 0-2.633.582-2.633 1.848h-3.974c0-2.937 2.253-4.658 6.607-4.658h.481Zm-3.367 9.164c0 .86.709 1.393 2.405 1.393 1.696 0 3.57-.608 3.57-2.456v-.38h-3.62c-1.697 0-2.355.481-2.355 1.443ZM191.567 13.684c4.228 0 7.266 2.025 7.266 6v1.493c0 4.026-3.038 6-7.266 6h-.481c-4.253 0-7.266-2-7.266-6v-1.493c0-3.975 3.013-6 7.266-6h.481Zm-3.696 5.949v1.57c0 1.721.987 2.81 3.215 2.81h.481c2.228 0 3.215-1.089 3.215-2.81v-1.57c0-1.722-.987-2.785-3.215-2.785h-.481c-2.228 0-3.215 1.063-3.215 2.785Z" fill="#fff"/>
  <path d="m39.116 7.446 3.049 12.729a2.219 2.219 0 0 1-2.158 2.736H12.51a6.24 6.24 0 0 1-5.86-4.096l-.25-.682a.555.555 0 0 1 .52-.745h17.958a.385.385 0 0 0 .385-.386 2.888 2.888 0 0 0-2.888-2.887H9.29a6.24 6.24 0 0 1-5.86-4.096l-.226-.614a.555.555 0 0 1 .521-.745h17.062a.385.385 0 0 0 .385-.385 2.888 2.888 0 0 0-2.888-2.888H6.094A6.24 6.24 0 0 1 .235 1.29l-.2-.546A.555.555 0 0 1 .555 0h29.12c4.49 0 8.395 3.08 9.44 7.446Z" fill="url(#a)"/>
  <path d="m49.912 11.236 4.276 18.363a2.219 2.219 0 0 1-2.161 2.722h-28.68a6.24 6.24 0 0 1-5.946-4.345l-.29-.911a.832.832 0 0 1 .792-1.085h26.189a2.219 2.219 0 0 0 2.156-2.741l-3.825-15.8a.832.832 0 0 1 .809-1.029h.602c2.901 0 5.42 2 6.078 4.826Z" fill="url(#b)"/>
  <defs>
    <linearGradient id="a" x1="21.104" y1="0" x2="21.104" y2="22.911" gradientUnits="userSpaceOnUse">
      <stop stop-color="#FFC803"/>
      <stop offset="1" stop-color="#FFA903"/>
    </linearGradient>
    <linearGradient id="b" x1="35.606" y1="6.41" x2="35.606" y2="32.321" gradientUnits="userSpaceOnUse">
      <stop stop-color="#FF7421"/>
      <stop offset="1" stop-color="#EC5901"/>
    </linearGradient>
  </defs>
</svg>