<svg width="277" height="38" viewBox="0 0 277 38" fill="none" xmlns="http://www.w3.org/2000/svg">
<path d="M6.1645 29.26C5.1765 29.26 4.26449 29.0193 3.42849 28.538C2.59248 28.0313 1.93381 27.3727 1.45247 26.562C0.971137 25.726 0.730469 24.8013 0.730469 23.788V21.47H6.2025V23.522C6.2025 23.598 6.21517 23.6613 6.2405 23.712C6.29117 23.7373 6.34184 23.75 6.3925 23.75H22.3146C22.3653 23.75 22.4159 23.7373 22.4666 23.712C22.5173 23.6613 22.5426 23.598 22.5426 23.522V18.544C22.5426 18.4933 22.5173 18.4553 22.4666 18.43C22.4159 18.3793 22.3653 18.354 22.3146 18.354H6.1645C5.1765 18.354 4.26449 18.1133 3.42849 17.632C2.59248 17.1253 1.93381 16.454 1.45247 15.618C0.971137 14.782 0.730469 13.87 0.730469 12.882V7.372C0.730469 6.35867 0.971137 5.44667 1.45247 4.636C1.93381 3.8 2.59248 3.14133 3.42849 2.66C4.26449 2.15333 5.1765 1.9 6.1645 1.9H22.6186C23.6066 1.9 24.506 2.15333 25.3166 2.66C26.1526 3.14133 26.824 3.8 27.3306 4.636C27.8373 5.44667 28.0906 6.35867 28.0906 7.372V9.69H22.5426V7.638C22.5426 7.562 22.5173 7.51133 22.4666 7.486C22.4159 7.43533 22.3653 7.41 22.3146 7.41H6.3925C6.34184 7.41 6.29117 7.43533 6.2405 7.486C6.21517 7.51133 6.2025 7.562 6.2025 7.638V12.616C6.2025 12.6667 6.21517 12.7173 6.2405 12.768C6.29117 12.7933 6.34184 12.806 6.3925 12.806H22.6186L28.0906 18.278V23.788C28.0906 24.8013 27.8373 25.726 27.3306 26.562C26.824 27.3727 26.1526 28.0313 25.3166 28.538C24.506 29.0193 23.6066 29.26 22.6186 29.26H6.1645Z" fill="white"/>
<path d="M37.4823 29.26L32.1243 23.902V7.22H37.5203V23.636C37.5203 23.6867 37.5457 23.7373 37.5963 23.788C37.647 23.8387 37.6977 23.864 37.7483 23.864H48.8444C48.8951 23.864 48.9457 23.8387 48.9964 23.788C49.0471 23.7373 49.0724 23.6867 49.0724 23.636V7.22H54.4684V23.902C54.4684 24.8647 54.2278 25.7513 53.7464 26.562C53.2651 27.3727 52.6191 28.0313 51.8084 28.538C50.9978 29.0193 50.0984 29.26 49.1104 29.26H37.4823Z" fill="white"/>
<path d="M57.6566 38V7.22H74.6427L80.0007 12.578V23.902C80.0007 24.8647 79.7601 25.7513 79.2787 26.562C78.7974 27.3727 78.1514 28.0313 77.3407 28.538C76.5301 29.0193 75.6307 29.26 74.6427 29.26H63.0526V38H57.6566ZM63.2806 23.864H74.3767C74.4527 23.864 74.5034 23.8387 74.5287 23.788C74.5794 23.7373 74.6047 23.6867 74.6047 23.636V12.844C74.6047 12.7933 74.5794 12.7427 74.5287 12.692C74.5034 12.6413 74.4527 12.616 74.3767 12.616H63.2806C63.23 12.616 63.1793 12.6413 63.1286 12.692C63.078 12.7427 63.0526 12.7933 63.0526 12.844V23.636C63.0526 23.6867 63.078 23.7373 63.1286 23.788C63.1793 23.8387 63.23 23.864 63.2806 23.864Z" fill="white"/>
<path d="M88.1352 29.26C87.1725 29.26 86.2858 29.0193 85.4752 28.538C84.6645 28.0313 84.0058 27.3727 83.4991 26.562C83.0178 25.7513 82.7771 24.8647 82.7771 23.902V12.578L88.1352 7.22H99.7632C100.751 7.22 101.651 7.47333 102.461 7.98C103.272 8.46133 103.918 9.10733 104.399 9.918C104.881 10.7287 105.121 11.6153 105.121 12.578V20.976H88.1732V23.636C88.1732 23.6867 88.1985 23.7373 88.2492 23.788C88.2998 23.8387 88.3505 23.864 88.4012 23.864H105.121V29.26H88.1352ZM88.1732 16.15H99.7252V12.844C99.7252 12.7933 99.6999 12.7427 99.6492 12.692C99.5986 12.6413 99.5479 12.616 99.4972 12.616H88.4012C88.3505 12.616 88.2998 12.6413 88.2492 12.692C88.1985 12.7427 88.1732 12.7933 88.1732 12.844V16.15Z" fill="white"/>
<path d="M108.866 29.26V12.578C108.866 11.6153 109.107 10.7287 109.588 9.918C110.095 9.10733 110.753 8.46133 111.564 7.98C112.4 7.47333 113.299 7.22 114.262 7.22H126.46V12.616H114.49C114.439 12.616 114.389 12.6413 114.338 12.692C114.287 12.7427 114.262 12.7933 114.262 12.844V29.26H108.866Z" fill="white"/>
<path d="M165.472 29.26C164.509 29.26 163.622 29.0193 162.812 28.538C162.001 28.0313 161.342 27.3727 160.836 26.562C160.354 25.7513 160.114 24.8647 160.114 23.902V12.578L165.472 7.22H177.1C178.088 7.22 178.987 7.47333 179.798 7.98C180.608 8.46133 181.254 9.10733 181.736 9.918C182.217 10.7287 182.458 11.6153 182.458 12.578V23.902C182.458 24.8647 182.217 25.7513 181.736 26.562C181.254 27.3727 180.608 28.0313 179.798 28.538C178.987 29.0193 178.088 29.26 177.1 29.26H165.472ZM165.738 23.864H176.834C176.884 23.864 176.935 23.8387 176.986 23.788C177.036 23.7373 177.062 23.6867 177.062 23.636V12.844C177.062 12.7933 177.036 12.7427 176.986 12.692C176.935 12.6413 176.884 12.616 176.834 12.616H165.738C165.687 12.616 165.636 12.6413 165.586 12.692C165.535 12.7427 165.51 12.7933 165.51 12.844V23.636C165.51 23.6867 165.535 23.7373 165.586 23.788C165.636 23.8387 165.687 23.864 165.738 23.864Z" fill="white"/>
<path d="M186.204 29.26V0H191.6V7.22H203.19L208.548 12.578V23.902C208.548 24.8647 208.308 25.7513 207.826 26.562C207.345 27.3727 206.699 28.0313 205.888 28.538C205.078 29.0193 204.178 29.26 203.19 29.26H186.204ZM191.828 23.864H202.924C203 23.864 203.051 23.8387 203.076 23.788C203.127 23.7373 203.152 23.6867 203.152 23.636V12.844C203.152 12.7933 203.127 12.7427 203.076 12.692C203.051 12.6413 203 12.616 202.924 12.616H191.828C191.778 12.616 191.727 12.6413 191.676 12.692C191.626 12.7427 191.6 12.7933 191.6 12.844V23.636C191.6 23.6867 191.626 23.7373 191.676 23.788C191.727 23.8387 191.778 23.864 191.828 23.864Z" fill="white"/>
<path d="M216.794 29.26C215.831 29.26 214.945 29.0193 214.134 28.538C213.323 28.0313 212.665 27.3727 212.158 26.562C211.677 25.7513 211.436 24.8647 211.436 23.902V12.578L216.794 7.22H228.422C229.41 7.22 230.31 7.47333 231.12 7.98C231.931 8.46133 232.577 9.10733 233.058 9.918C233.54 10.7287 233.78 11.6153 233.78 12.578V23.902C233.78 24.8647 233.54 25.7513 233.058 26.562C232.577 27.3727 231.931 28.0313 231.12 28.538C230.31 29.0193 229.41 29.26 228.422 29.26H216.794ZM217.06 23.864H228.156C228.207 23.864 228.258 23.8387 228.308 23.788C228.359 23.7373 228.384 23.6867 228.384 23.636V12.844C228.384 12.7933 228.359 12.7427 228.308 12.692C228.258 12.6413 228.207 12.616 228.156 12.616H217.06C217.01 12.616 216.959 12.6413 216.908 12.692C216.857 12.7427 216.832 12.7933 216.832 12.844V23.636C216.832 23.6867 216.857 23.7373 216.908 23.788C216.959 23.8387 217.01 23.864 217.06 23.864Z" fill="white"/>
<path d="M242.514 29.26C241.526 29.26 240.626 29.0193 239.816 28.538C239.005 28.0313 238.346 27.3727 237.84 26.562C237.358 25.7513 237.118 24.8647 237.118 23.902V0.569999H242.514V7.22H250.912V12.616H242.514V23.636C242.514 23.6867 242.539 23.7373 242.59 23.788C242.64 23.8387 242.691 23.864 242.742 23.864H250.912V29.26H242.514Z" fill="white"/>
<path d="M259.542 29.26C258.579 29.26 257.692 29.0193 256.882 28.538C256.071 28.0313 255.412 27.3727 254.906 26.562C254.424 25.7513 254.184 24.8647 254.184 23.902V22.914H259.58V23.636C259.58 23.6867 259.605 23.7373 259.656 23.788C259.706 23.8387 259.757 23.864 259.808 23.864H270.904C270.954 23.864 271.005 23.8387 271.056 23.788C271.106 23.7373 271.132 23.6867 271.132 23.636V21.166C271.132 21.1153 271.106 21.0773 271.056 21.052C271.005 21.0013 270.954 20.976 270.904 20.976H259.542C258.579 20.976 257.692 20.7353 256.882 20.254C256.071 19.7473 255.412 19.0887 254.906 18.278C254.424 17.4673 254.184 16.568 254.184 15.58V12.578C254.184 11.6153 254.424 10.7287 254.906 9.918C255.412 9.10733 256.071 8.46133 256.882 7.98C257.692 7.47333 258.579 7.22 259.542 7.22H271.17C272.158 7.22 273.057 7.47333 273.868 7.98C274.678 8.46133 275.325 9.10733 275.806 9.918C276.313 10.7287 276.566 11.6153 276.566 12.578V13.566H271.132V12.844C271.132 12.7933 271.106 12.7427 271.056 12.692C271.005 12.6413 270.954 12.616 270.904 12.616H259.808C259.757 12.616 259.706 12.6413 259.656 12.692C259.605 12.7427 259.58 12.7933 259.58 12.844V15.314C259.58 15.3647 259.605 15.4153 259.656 15.466C259.706 15.4913 259.757 15.504 259.808 15.504H271.17L276.566 20.9V23.902C276.566 24.8647 276.313 25.7513 275.806 26.562C275.325 27.3727 274.678 28.0313 273.868 28.538C273.057 29.0193 272.158 29.26 271.17 29.26H259.542Z" fill="white"/>
<path fill-rule="evenodd" clip-rule="evenodd" d="M128.946 1.95652V29.2785H134.418V20.1205L142.759 20.1012L150.454 29.2778H156.23V27.5678L149.928 20.0845L150.796 20.0825L156.306 14.6485V7.42852C156.306 6.44052 156.053 5.52852 155.546 4.69252C155.039 3.85652 154.368 3.19785 153.532 2.71652C152.721 2.20985 151.809 1.95652 150.796 1.95652H128.946ZM150.53 14.5725H134.646C134.57 14.5725 134.507 14.5599 134.456 14.5345C134.431 14.4839 134.418 14.4332 134.418 14.3825V7.65652C134.418 7.58052 134.431 7.52986 134.456 7.50452C134.507 7.45385 134.57 7.42852 134.646 7.42852H150.53C150.606 7.42852 150.657 7.45385 150.682 7.50452C150.733 7.52986 150.758 7.58052 150.758 7.65652V14.3825C150.758 14.4332 150.733 14.4839 150.682 14.5345C150.657 14.5599 150.606 14.5725 150.53 14.5725Z" fill="white"/>
</svg>
