<svg width="210" height="20" viewBox="0 0 210 20" fill="none" xmlns="http://www.w3.org/2000/svg">
<g opacity="0.8">
<path d="M131.749 5.323C134.531 5.323 136.407 6.39121 136.407 8.48249V8.97899H133.906V8.48249C133.906 7.63996 133.093 7.2187 131.749 7.2187H131.468C130.092 7.2187 129.311 7.60987 129.311 8.18159V8.33204C129.311 9.02412 129.936 9.21971 132.468 9.62593C135.328 10.1224 136.594 10.9349 136.594 12.635V12.7854C136.594 14.4855 135 15.7042 131.796 15.7042H131.499C128.264 15.7042 126.623 14.4705 126.623 12.3792V11.9128H129.123V12.3792C129.123 13.4474 129.983 13.7935 131.515 13.7935H131.796C133.25 13.7935 134.062 13.4625 134.062 12.8155V12.6801C134.062 12.0332 133.312 11.7473 130.796 11.3561C128.154 10.9499 126.779 10.1826 126.779 8.4524V8.25682C126.779 6.39121 128.561 5.323 131.468 5.323H131.749Z" fill="white"/>
<path d="M144.234 15.5549V14.5468H143.906C143.421 15.254 142.53 15.7053 141.28 15.7053H141.014C139.076 15.7053 137.982 14.6973 137.982 12.5007V7.83667H140.483V12.0644C140.483 13.1326 141.061 13.7193 142.218 13.7193H142.484C143.64 13.7193 144.234 13.1326 144.234 12.0644V7.83667H146.735V15.5549H144.234Z" fill="white"/>
<path d="M151.056 7.83673V8.78458H151.384C151.962 8.0925 152.822 7.68628 154.025 7.68628H154.307C156.339 7.68628 157.823 8.78458 157.823 11.252V12.1397C157.823 14.6071 156.339 15.7054 154.307 15.7054H154.025C152.791 15.7054 151.947 15.2856 151.384 14.577H151.056V19.1658H148.555V7.83673H151.056ZM151.056 11.2219V12.1547C151.056 13.2831 151.853 13.8247 153.041 13.8247H153.322C154.525 13.8247 155.323 13.2681 155.323 12.1547V11.2219C155.323 10.1236 154.525 9.56693 153.322 9.56693H153.041C151.853 9.56693 151.056 10.1086 151.056 11.2219Z" fill="white"/>
<path d="M163.888 7.68628C166.436 7.68628 168.264 8.87485 168.264 11.2821V12.26H161.544V12.3503C161.544 13.4636 162.278 14.0203 163.591 14.0203H163.888C164.982 14.0203 165.67 13.7194 165.889 12.9822H168.186C167.967 14.577 166.592 15.7054 163.888 15.7054H163.591C161.044 15.7054 159.184 14.5619 159.184 12.1547V11.2821C159.184 8.87485 161.028 7.68628 163.591 7.68628H163.888ZM161.559 10.7405H165.889C165.795 9.85279 165.029 9.37134 163.872 9.37134H163.576C162.341 9.37134 161.653 9.85279 161.559 10.7405Z" fill="white"/>
<path d="M172.389 7.83551V8.72318H172.702C173.17 8.04614 173.889 7.68506 174.983 7.68506C176.703 7.68506 177.609 8.51255 177.609 10.6791V11.1906H175.296V10.8746C175.296 10.0772 174.827 9.65598 173.842 9.65598C172.858 9.65598 172.389 10.0772 172.389 10.8746V15.5537H169.888V7.83551H172.389Z" fill="white"/>
<path d="M187.916 4.4209V15.5544H185.416V14.5764H185.072C184.509 15.2851 183.681 15.7048 182.446 15.7048H182.149C180.117 15.7048 178.648 14.6216 178.648 12.1391V11.2514C178.648 8.78401 180.117 7.68571 182.149 7.68571H182.446C183.649 7.68571 184.493 8.09193 185.072 8.78401H185.416V4.4209H187.916ZM181.149 11.2213V12.1541C181.149 13.2524 181.946 13.8242 183.134 13.8242H183.415C184.618 13.8242 185.416 13.2675 185.416 12.1541V11.2213C185.416 10.123 184.618 9.56636 183.415 9.56636H183.134C181.946 9.56636 181.149 10.1381 181.149 11.2213Z" fill="white"/>
<path d="M194.074 7.68506C196.903 7.68506 198.184 8.72318 198.184 10.4835V15.5537H195.683V14.5758H195.308C194.683 15.3596 193.792 15.7042 192.433 15.7042C190.745 15.7042 189.525 14.9835 189.525 13.3722C189.525 11.8074 190.604 10.8897 193.105 10.8897H195.683V10.4835C195.683 9.71616 195.136 9.35508 194.058 9.35508H193.777C192.745 9.35508 192.151 9.70112 192.151 10.4534H189.697C189.697 8.70813 191.088 7.68506 193.777 7.68506H194.074ZM191.995 13.1314C191.995 13.643 192.433 13.9589 193.48 13.9589C194.527 13.9589 195.683 13.5978 195.683 12.4995V12.2739H193.448C192.401 12.2739 191.995 12.5597 191.995 13.1314Z" fill="white"/>
<path d="M204.52 7.68506C207.13 7.68506 209.006 8.88868 209.006 11.2508V12.1384C209.006 14.5306 207.13 15.7042 204.52 15.7042H204.223C201.597 15.7042 199.737 14.5156 199.737 12.1384V11.2508C199.737 8.88868 201.597 7.68506 204.223 7.68506H204.52ZM202.238 11.2207V12.1535C202.238 13.1766 202.848 13.8235 204.223 13.8235H204.52C205.895 13.8235 206.505 13.1766 206.505 12.1535V11.2207C206.505 10.1976 205.895 9.56571 204.52 9.56571H204.223C202.848 9.56571 202.238 10.1976 202.238 11.2207Z" fill="white"/>
<path d="M112.266 5.71264L113.846 12.0608C114.019 12.7566 113.471 13.4252 112.728 13.4252H98.4814C97.1242 13.4252 95.9115 12.6094 95.445 11.3827L95.3156 11.0424C95.2469 10.8619 95.3858 10.6706 95.5855 10.6706H104.89C105 10.6706 105.089 10.5846 105.089 10.4786C105.089 9.68315 104.419 9.03827 103.593 9.03827H96.8131C95.4559 9.03827 94.2432 8.22249 93.7767 6.99572L93.6602 6.68947C93.5916 6.50894 93.7304 6.31771 93.9301 6.31771H102.77C102.88 6.31771 102.969 6.23173 102.969 6.12565C102.969 5.3302 102.3 4.68535 101.473 4.68535H95.1577C93.8005 4.68535 92.5878 3.86957 92.1213 2.6428L92.0178 2.37056C91.9491 2.19001 92.0879 1.99878 92.2877 1.99878H107.375C109.702 1.99878 111.724 3.53471 112.266 5.71264Z" fill="url(#paint0_linear_248_15239)"/>
<path d="M117.857 7.60246L120.072 16.7609C120.24 17.455 119.693 18.1186 118.952 18.1186H104.093C102.686 18.1186 101.44 17.2423 101.012 15.9515L100.862 15.497C100.773 15.2293 100.981 14.9559 101.272 14.9559H114.841C115.586 14.9559 116.134 14.2853 115.959 13.5888L113.977 5.70847C113.911 5.44729 114.117 5.1958 114.396 5.1958H114.708C116.211 5.1958 117.516 6.19309 117.857 7.60246Z" fill="url(#paint1_linear_248_15239)"/>
<path d="M2.058 17.8H0.966V8.056H2.058V9.148H2.226C2.46867 8.728 2.80467 8.41067 3.234 8.196C3.66333 7.972 4.13 7.86 4.634 7.86C5.06333 7.86 5.46933 7.93933 5.852 8.098C6.23467 8.25667 6.57067 8.48533 6.86 8.784C7.15867 9.08267 7.392 9.45133 7.56 9.89C7.73733 10.3287 7.826 10.828 7.826 11.388V11.668C7.826 12.2373 7.742 12.7413 7.574 13.18C7.406 13.6187 7.17267 13.9873 6.874 14.286C6.58467 14.5847 6.244 14.8133 5.852 14.972C5.46 15.1213 5.04467 15.196 4.606 15.196C4.382 15.196 4.15333 15.168 3.92 15.112C3.68667 15.0653 3.46267 14.9907 3.248 14.888C3.04267 14.776 2.85133 14.6453 2.674 14.496C2.49667 14.3373 2.34733 14.1507 2.226 13.936H2.058V17.8ZM4.382 14.16C4.718 14.16 5.026 14.104 5.306 13.992C5.586 13.8707 5.82867 13.7027 6.034 13.488C6.24867 13.2733 6.412 13.012 6.524 12.704C6.64533 12.396 6.706 12.0507 6.706 11.668V11.388C6.706 11.0147 6.64533 10.6787 6.524 10.38C6.412 10.072 6.24867 9.81067 6.034 9.596C5.82867 9.372 5.58133 9.19933 5.292 9.078C5.012 8.95667 4.70867 8.896 4.382 8.896C4.05533 8.896 3.752 8.96133 3.472 9.092C3.192 9.21333 2.94467 9.386 2.73 9.61C2.52467 9.834 2.36133 10.1047 2.24 10.422C2.11867 10.73 2.058 11.0707 2.058 11.444V11.612C2.058 11.9947 2.11867 12.3447 2.24 12.662C2.36133 12.97 2.52467 13.236 2.73 13.46C2.94467 13.684 3.192 13.8567 3.472 13.978C3.752 14.0993 4.05533 14.16 4.382 14.16ZM16.1023 11.612C16.1023 12.1907 16.0043 12.704 15.8083 13.152C15.6216 13.5907 15.3696 13.964 15.0523 14.272C14.7349 14.5707 14.3616 14.7993 13.9323 14.958C13.5123 15.1167 13.0736 15.196 12.6163 15.196C12.1496 15.196 11.7063 15.1167 11.2863 14.958C10.8663 14.7993 10.4976 14.5707 10.1803 14.272C9.86293 13.964 9.60627 13.5907 9.41027 13.152C9.2236 12.704 9.13027 12.1907 9.13027 11.612V11.444C9.13027 10.8747 9.2236 10.3707 9.41027 9.932C9.60627 9.484 9.86293 9.106 10.1803 8.798C10.5069 8.49 10.8803 8.25667 11.3003 8.098C11.7203 7.93933 12.1589 7.86 12.6163 7.86C13.0736 7.86 13.5123 7.93933 13.9323 8.098C14.3523 8.25667 14.7209 8.49 15.0383 8.798C15.3649 9.106 15.6216 9.484 15.8083 9.932C16.0043 10.3707 16.1023 10.8747 16.1023 11.444V11.612ZM12.6163 14.16C12.9523 14.16 13.2603 14.104 13.5403 13.992C13.8296 13.8707 14.0816 13.698 14.2963 13.474C14.5109 13.25 14.6789 12.984 14.8003 12.676C14.9216 12.3587 14.9823 12.004 14.9823 11.612V11.444C14.9823 11.0707 14.9216 10.73 14.8003 10.422C14.6789 10.1047 14.5109 9.834 14.2963 9.61C14.0816 9.386 13.8296 9.21333 13.5403 9.092C13.2509 8.96133 12.9429 8.896 12.6163 8.896C12.2896 8.896 11.9816 8.96133 11.6923 9.092C11.4029 9.21333 11.1509 9.386 10.9363 9.61C10.7216 9.834 10.5536 10.1047 10.4323 10.422C10.3109 10.73 10.2503 11.0707 10.2503 11.444V11.612C10.2503 12.004 10.3109 12.3587 10.4323 12.676C10.5536 12.984 10.7216 13.25 10.9363 13.474C11.1509 13.698 11.3983 13.8707 11.6783 13.992C11.9676 14.104 12.2803 14.16 12.6163 14.16ZM23.8885 15H21.8725L21.0325 8.56H20.8645L20.0245 15H18.0085L16.9165 8.056H18.0365L18.9605 14.496H19.1285L19.9405 8.056H21.9565L22.7685 14.496H22.9365L23.8605 8.056H24.9805L23.8885 15ZM27.0128 11.864C27.0408 12.5547 27.2555 13.11 27.6568 13.53C28.0581 13.95 28.6181 14.16 29.3368 14.16C29.6635 14.16 29.9481 14.1227 30.1908 14.048C30.4335 13.9733 30.6388 13.8707 30.8068 13.74C30.9841 13.6093 31.1241 13.46 31.2268 13.292C31.3388 13.1147 31.4275 12.928 31.4928 12.732L32.5288 13.012C32.3328 13.656 31.9688 14.1833 31.4368 14.594C30.9141 14.9953 30.2048 15.196 29.3088 15.196C28.8141 15.196 28.3568 15.112 27.9368 14.944C27.5261 14.7667 27.1715 14.5193 26.8728 14.202C26.5741 13.8847 26.3408 13.5067 26.1728 13.068C26.0048 12.6293 25.9208 12.144 25.9208 11.612V11.276C25.9208 10.7907 26.0048 10.338 26.1728 9.918C26.3501 9.498 26.5928 9.13867 26.9008 8.84C27.2088 8.532 27.5681 8.294 27.9788 8.126C28.3988 7.94867 28.8515 7.86 29.3368 7.86C29.9061 7.86 30.3961 7.96733 30.8068 8.182C31.2268 8.38733 31.5675 8.644 31.8288 8.952C32.0995 9.26 32.2955 9.596 32.4168 9.96C32.5475 10.324 32.6128 10.66 32.6128 10.968V11.864H27.0128ZM29.3368 8.896C29.0288 8.896 28.7395 8.94733 28.4688 9.05C28.2075 9.14333 27.9741 9.27867 27.7688 9.456C27.5728 9.63333 27.4095 9.84333 27.2788 10.086C27.1575 10.3193 27.0781 10.576 27.0408 10.856H31.5208C31.5021 10.5573 31.4275 10.2867 31.2968 10.044C31.1755 9.80133 31.0121 9.596 30.8068 9.428C30.6108 9.26 30.3821 9.12933 30.1208 9.036C29.8688 8.94267 29.6075 8.896 29.3368 8.896ZM34.1551 8.056H36.6751V8.98H36.8431C37.0204 8.59733 37.2724 8.31733 37.5991 8.14C37.9257 7.95333 38.2991 7.86 38.7191 7.86C39.4191 7.86 39.9837 8.08867 40.4131 8.546C40.8424 9.00333 41.0711 9.67067 41.0991 10.548L39.9511 10.716C39.9511 10.072 39.7971 9.61 39.4891 9.33C39.1811 9.04067 38.8031 8.896 38.3551 8.896C38.0657 8.896 37.8137 8.952 37.5991 9.064C37.3937 9.176 37.2211 9.33 37.0811 9.526C36.9411 9.722 36.8384 9.95067 36.7731 10.212C36.7077 10.4733 36.6751 10.7533 36.6751 11.052V13.992H38.4391V15H33.9871V13.992H35.5831V9.064H34.1551V8.056ZM43.6773 11.864C43.7053 12.5547 43.92 13.11 44.3213 13.53C44.7227 13.95 45.2827 14.16 46.0013 14.16C46.328 14.16 46.6127 14.1227 46.8553 14.048C47.098 13.9733 47.3033 13.8707 47.4713 13.74C47.6487 13.6093 47.7887 13.46 47.8913 13.292C48.0033 13.1147 48.092 12.928 48.1573 12.732L49.1933 13.012C48.9973 13.656 48.6333 14.1833 48.1013 14.594C47.5787 14.9953 46.8693 15.196 45.9733 15.196C45.4787 15.196 45.0213 15.112 44.6013 14.944C44.1907 14.7667 43.836 14.5193 43.5373 14.202C43.2387 13.8847 43.0053 13.5067 42.8373 13.068C42.6693 12.6293 42.5853 12.144 42.5853 11.612V11.276C42.5853 10.7907 42.6693 10.338 42.8373 9.918C43.0147 9.498 43.2573 9.13867 43.5653 8.84C43.8733 8.532 44.2327 8.294 44.6433 8.126C45.0633 7.94867 45.516 7.86 46.0013 7.86C46.5707 7.86 47.0607 7.96733 47.4713 8.182C47.8913 8.38733 48.232 8.644 48.4933 8.952C48.764 9.26 48.96 9.596 49.0813 9.96C49.212 10.324 49.2773 10.66 49.2773 10.968V11.864H43.6773ZM46.0013 8.896C45.6933 8.896 45.404 8.94733 45.1333 9.05C44.872 9.14333 44.6387 9.27867 44.4333 9.456C44.2373 9.63333 44.074 9.84333 43.9433 10.086C43.822 10.3193 43.7427 10.576 43.7053 10.856H48.1853C48.1667 10.5573 48.092 10.2867 47.9613 10.044C47.84 9.80133 47.6767 9.596 47.4713 9.428C47.2753 9.26 47.0467 9.12933 46.7853 9.036C46.5333 8.94267 46.272 8.896 46.0013 8.896ZM56.5876 13.936H56.4196C56.3076 14.1507 56.1629 14.3373 55.9856 14.496C55.8176 14.6547 55.6309 14.7853 55.4256 14.888C55.2296 14.9907 55.0196 15.0653 54.7956 15.112C54.5716 15.168 54.3569 15.196 54.1516 15.196C53.6849 15.196 53.2509 15.1167 52.8496 14.958C52.4483 14.7993 52.0936 14.5707 51.7856 14.272C51.4869 13.9733 51.2489 13.6047 51.0716 13.166C50.9036 12.718 50.8196 12.2093 50.8196 11.64V11.416C50.8196 10.856 50.9083 10.3567 51.0856 9.918C51.2629 9.47 51.5009 9.09667 51.7996 8.798C52.0983 8.49 52.4483 8.25667 52.8496 8.098C53.2509 7.93933 53.6756 7.86 54.1236 7.86C54.5996 7.86 55.0429 7.96733 55.4536 8.182C55.8736 8.38733 56.1956 8.70933 56.4196 9.148H56.5876V5.2H57.6796V15H56.5876V13.936ZM54.2636 14.16C54.5903 14.16 54.8936 14.0993 55.1736 13.978C55.4536 13.8567 55.6963 13.684 55.9016 13.46C56.1163 13.236 56.2843 12.97 56.4056 12.662C56.5269 12.3447 56.5876 11.9947 56.5876 11.612V11.444C56.5876 11.0707 56.5269 10.73 56.4056 10.422C56.2843 10.1047 56.1163 9.834 55.9016 9.61C55.6963 9.386 55.4489 9.21333 55.1596 9.092C54.8796 8.96133 54.5809 8.896 54.2636 8.896C53.9369 8.896 53.6289 8.95667 53.3396 9.078C53.0596 9.19933 52.8123 9.372 52.5976 9.596C52.3923 9.82 52.2289 10.086 52.1076 10.394C51.9956 10.702 51.9396 11.0427 51.9396 11.416V11.64C51.9396 12.032 51.9956 12.382 52.1076 12.69C52.2289 12.998 52.3923 13.264 52.5976 13.488C52.8123 13.7027 53.0596 13.8707 53.3396 13.992C53.6196 14.104 53.9276 14.16 54.2636 14.16ZM68.7161 15H67.6241V5.2H68.7161V9.148H68.8841C69.1268 8.728 69.4628 8.41067 69.8921 8.196C70.3215 7.972 70.7881 7.86 71.2921 7.86C71.7215 7.86 72.1275 7.93933 72.5101 8.098C72.8928 8.25667 73.2288 8.48533 73.5181 8.784C73.8168 9.08267 74.0501 9.45133 74.2181 9.89C74.3955 10.3287 74.4841 10.828 74.4841 11.388V11.668C74.4841 12.2373 74.4001 12.7413 74.2321 13.18C74.0641 13.6187 73.8308 13.9873 73.5321 14.286C73.2428 14.5847 72.9021 14.8133 72.5101 14.972C72.1181 15.1213 71.7028 15.196 71.2641 15.196C71.0401 15.196 70.8115 15.168 70.5781 15.112C70.3448 15.0653 70.1208 14.9907 69.9061 14.888C69.7008 14.776 69.5095 14.6453 69.3321 14.496C69.1548 14.3373 69.0055 14.1507 68.8841 13.936H68.7161V15ZM71.0401 14.16C71.3761 14.16 71.6841 14.104 71.9641 13.992C72.2441 13.8707 72.4868 13.7027 72.6921 13.488C72.9068 13.2733 73.0701 13.012 73.1821 12.704C73.3035 12.396 73.3641 12.0507 73.3641 11.668V11.388C73.3641 11.0147 73.3035 10.6787 73.1821 10.38C73.0701 10.072 72.9068 9.81067 72.6921 9.596C72.4868 9.372 72.2395 9.19933 71.9501 9.078C71.6701 8.95667 71.3668 8.896 71.0401 8.896C70.7135 8.896 70.4101 8.96133 70.1301 9.092C69.8501 9.21333 69.6028 9.386 69.3881 9.61C69.1828 9.834 69.0195 10.1047 68.8981 10.422C68.7768 10.73 68.7161 11.0707 68.7161 11.444V11.612C68.7161 11.9947 68.7768 12.3447 68.8981 12.662C69.0195 12.97 69.1828 13.236 69.3881 13.46C69.6028 13.684 69.8501 13.8567 70.1301 13.978C70.4101 14.0993 70.7135 14.16 71.0401 14.16ZM81.2484 13.74H81.0804C80.8564 14.188 80.5624 14.5427 80.1984 14.804C79.8344 15.0653 79.3724 15.196 78.8124 15.196C78.4297 15.196 78.0751 15.1307 77.7484 15C77.4311 14.8787 77.1557 14.692 76.9224 14.44C76.6984 14.188 76.5211 13.8753 76.3904 13.502C76.2691 13.1287 76.2084 12.6947 76.2084 12.2V8.056H77.3004V12.06C77.3004 12.788 77.4497 13.32 77.7484 13.656C78.0471 13.992 78.5044 14.16 79.1204 14.16C79.7831 14.16 80.3011 13.936 80.6744 13.488C81.0571 13.0307 81.2484 12.424 81.2484 11.668V8.056H82.3404V16.708C82.3404 17.0253 82.2377 17.2867 82.0324 17.492C81.8364 17.6973 81.5797 17.8 81.2624 17.8H77.3004V16.792H80.8704C81.1224 16.792 81.2484 16.652 81.2484 16.372V13.74Z" fill="white"/>
</g>
<defs>
<linearGradient id="paint0_linear_248_15239" x1="102.934" y1="1.99878" x2="102.934" y2="13.4252" gradientUnits="userSpaceOnUse">
<stop stop-color="#FFC803"/>
<stop offset="1" stop-color="#FFA903"/>
</linearGradient>
<linearGradient id="paint1_linear_248_15239" x1="110.445" y1="5.1958" x2="110.445" y2="18.1186" gradientUnits="userSpaceOnUse">
<stop stop-color="#FF7421"/>
<stop offset="1" stop-color="#EC5901"/>
</linearGradient>
</defs>
</svg>
