<svg width="48" height="48" viewBox="0 0 48 48" fill="none" xmlns="http://www.w3.org/2000/svg">
	<path fill-rule="evenodd" clip-rule="evenodd" d="M24 2C11.8497 2 2 11.8497 2 24C2 36.1503 11.8497 46 24 46C36.1503 46 46 36.1503 46 24C46 11.8497 36.1503 2 24 2ZM21 19C21.0001 17.3432 22.3432 16.0001 24 16.0001C25.6569 16.0001 27 17.3433 27 19.0001V19.1081C27 20.1998 26.4272 21.2114 25.4911 21.7731L24.686 22.2561C23.0196 23.256 22 25.0568 22 27.0001C22.0001 28.1046 22.8957 29 24.0002 29C25.1048 29 26.0002 28.1046 26.0002 27C26.0003 26.4618 26.2825 25.963 26.744 25.6861L27.5491 25.2031C29.69 23.9185 31 21.6048 31 19.1081V19.0001C31 15.1341 27.866 12.0001 24 12.0001C20.134 12.0001 17 15.1341 17 19.0001C17.0001 20.1046 17.8957 21 19.0002 21C20.1048 21 21 20.1046 21 19ZM26.5 34.5001C26.5 35.8808 25.3807 37.0001 24 37.0001C22.6193 37.0001 21.5 35.8808 21.5 34.5001C21.5 33.1194 22.6193 32.0001 24 32.0001C25.3807 32.0001 26.5 33.1194 26.5 34.5001Z" fill="#FF9F1A"/>
</svg>
