<svg width="200" height="200" viewBox="0 0 200 200" fill="none" xmlns="http://www.w3.org/2000/svg">
<path d="M77.5702 40.8969C77.5702 40.8969 76.1716 42.7337 76.1274 45.0988C76.0831 47.4639 75.6918 51.6216 76.7841 55.5612C77.8764 59.5007 79.1014 61.5591 80.061 62.6531C81.0239 63.747 85.0426 64.9296 87.0536 64.3604C89.0646 63.7913 96.1015 52.3679 95.4005 48.6908C94.7029 45.0136 95.489 39.1486 92.0794 37.8808C88.6699 36.6097 77.5702 40.8969 77.5702 40.8969Z" fill="white"/>
<path d="M22.2244 187.305L94.7096 160.965V149.835L88.8534 147.807L89.3775 142.467L56.1906 131.037L39.6737 131.411L22.2244 131.636V187.305Z" fill="url(#paint0_linear_522_3450)"/>
<path d="M108.398 118.039C108.398 118.039 113.387 151.607 110.542 171.212C109.164 180.707 107.65 186.497 107.65 186.497" stroke="#192635" stroke-width="1.76697" stroke-miterlimit="10" stroke-linecap="round" stroke-linejoin="round"/>
<path d="M69.8089 93.0313C69.8089 93.0313 63.8337 99.7721 58.9168 100.985C53.9998 102.199 50.8217 102.577 50.8217 102.577L62.1664 73.2585C62.1664 73.2585 67.8387 69.0156 69.8804 68.334C71.9288 67.6525 69.8089 93.0313 69.8089 93.0313Z" fill="#347CE1" stroke="#192635" stroke-width="1.76697" stroke-linecap="round" stroke-linejoin="round"/>
<path d="M99.6809 67.8296C99.6809 67.8296 100.845 69.1791 103.662 70.0993C106.48 71.0194 110.709 72.1849 113.037 75.6235C115.364 79.0587 118.001 87.2207 118.001 91.3341C118.001 95.4474 118.859 112.136 118.797 114.896C118.736 117.657 118.798 125.635 118.246 128.273C117.695 130.91 115.858 135.637 114.878 136.925C113.898 138.214 112.183 140.483 111.876 141.836C111.57 143.186 110.406 147.36 108.691 149.139C106.976 150.918 102.686 153.065 102.686 153.065L96.251 158.099C96.251 158.099 96.8022 153.437 95.271 149.875C93.7397 146.318 92.0247 144.535 92.0247 144.535L94.9035 143.247C94.9035 143.247 95.0872 139.935 96.9859 137.355C98.8847 134.778 101.335 132.938 102.624 130.236C103.911 127.536 105.013 117.412 105.013 117.412C105.013 117.412 97.3534 117.412 93.9235 116.798C90.4935 116.185 82.9564 116.062 79.649 114.896C76.3415 113.731 74.4394 112.811 74.4394 112.811C74.4394 112.811 74.3781 109.498 72.9082 107.164C71.4382 104.829 69.5395 100.106 69.0495 97.6524C68.5595 95.1987 67.457 83.1107 66.967 79.1814C66.477 75.2555 66.477 69.7926 68.682 68.5657C70.8869 67.3389 75.484 66.7254 77.8728 66.296C80.2581 65.8666 99.6809 67.8296 99.6809 67.8296Z" fill="#347CE1" stroke="#192635" stroke-width="1.76697" stroke-linecap="round" stroke-linejoin="round"/>
<path d="M81.6227 34.6265C81.6227 34.6265 83.5588 28.5978 92.1474 29.4362C97.7415 29.9815 102.968 34.3061 102.104 43.1292C101.423 50.0848 98.5956 48.9704 98.5956 48.9704L81.6227 34.6265Z" fill="#031F43"/>
<path d="M79.6967 33.955C79.6967 33.955 82.2794 29.7667 88.4349 30.622C96.2102 31.7024 99.1229 36.4223 99.3373 42.3726C99.5006 46.8642 79.6967 33.955 79.6967 33.955Z" fill="#E72A8B"/>
<path d="M91.831 48.4115C91.3716 45.5659 92.9062 43.3848 89.6022 41.7115C86.1858 39.9837 84.9234 41.6979 80.5169 43.3882C78.5569 44.1414 76.3927 43.5177 76.3927 43.5177C76.3927 43.5177 73.514 40.4097 76.8793 35.7067C83.0077 27.1426 102.863 35.6079 100.974 48.4081C99.6947 57.0779 101.869 60.5335 106.759 61.3071C108.042 61.5082 104.057 67.7822 99.7219 68.5149C92.4877 69.7349 92.0522 66.0202 92.0522 66.0202L93.3418 52.0409C93.3418 52.0409 92.2597 51.0765 91.831 48.4115Z" fill="#031F43"/>
<path d="M93.3221 52.3785C93.3221 52.3785 94.2442 50.3473 96.0715 50.6438C97.8987 50.9403 98.3785 53.7553 97.2726 55.3672C96.4832 56.5191 95.0404 57.2586 94.2816 57.5858C93.9686 57.7221 93.7474 58.0015 93.6896 58.3355L92.4884 65.2843C92.1005 67.5267 89.6539 69.5919 87.3843 69.6907C83.5426 69.8543 81.552 68.9444 81.552 68.9444C81.552 68.9444 81.0008 62.1899 81.6269 62.3398C85.8565 63.3554 88.1499 61.4572 88.1431 61.314" fill="white"/>
<path d="M93.3221 52.3785C93.3221 52.3785 94.2442 50.3473 96.0715 50.6438C97.8987 50.9403 98.3785 53.7553 97.2726 55.3672C96.4832 56.5191 95.0404 57.2586 94.2816 57.5858C93.9686 57.7221 93.7474 58.0015 93.6896 58.3355L92.4884 65.2843C92.1005 67.5267 89.6539 69.5919 87.3843 69.6907C83.5426 69.8543 81.552 68.9444 81.552 68.9444C81.552 68.9444 81.0008 62.1899 81.6269 62.3398C85.8565 63.3554 88.1499 61.4572 88.1431 61.3141" stroke="#031F43" stroke-width="1.76697" stroke-miterlimit="10" stroke-linecap="round" stroke-linejoin="round"/>
<path d="M84.8754 56.3215C84.8754 56.3215 82.7929 56.4067 82.0988 56.434C81.5373 56.4579 79.853 56.526 79.853 56.526C79.853 56.526 80.2715 58.7889 82.5275 58.7207C84.7461 58.6525 84.8754 56.3215 84.8754 56.3215Z" stroke="#192635" stroke-width="1.76697" stroke-miterlimit="10" stroke-linecap="round" stroke-linejoin="round"/>
<path d="M78.016 47.8664C78.0194 47.9244 77.7438 49.141 79.0233 49.1615C80.1496 49.1785 80.0917 47.863 80.0917 47.863" fill="#45D62F"/>
<path d="M78.016 47.8664C78.0194 47.9244 77.7438 49.141 79.0233 49.1615C80.1496 49.1785 80.0917 47.863 80.0917 47.863" stroke="#031F43" stroke-width="1.76697" stroke-linecap="round" stroke-linejoin="round"/>
<path d="M85.853 47.9141C85.9075 47.9311 85.5774 49.2602 86.8568 49.2806C87.9831 49.2977 87.881 48.1628 87.881 48.1628" fill="#45D62F"/>
<path d="M85.853 47.9141C85.9075 47.9311 85.5774 49.2602 86.8568 49.2806C87.9831 49.2977 87.881 48.1628 87.881 48.1628" stroke="#192635" stroke-width="1.76697" stroke-linecap="round" stroke-linejoin="round"/>
<path d="M84.6317 48.8819C84.6317 48.8819 86.0132 46.4315 89.1981 48.8205" stroke="#192635" stroke-width="1.76697" stroke-miterlimit="10" stroke-linecap="round" stroke-linejoin="round"/>
<path d="M81.6268 62.3467C79.6838 61.781 78.2921 60.912 76.9922 56.7475C75.6924 52.5796 75.8761 42.4887 76.5635 42.0593" stroke="#031F43" stroke-width="1.76697" stroke-miterlimit="10" stroke-linecap="round" stroke-linejoin="round"/>
<path d="M78.3359 60.1008C78.3359 60.1008 78.2168 61.9241 76.2671 63.3861C74.9774 64.3539 72.4798 64.3812 72.4798 64.3812C72.4798 64.3812 73.4156 66.6611 76.6822 67.9902C78.7817 68.8422 81.4971 68.1674 81.4971 68.1674L81.3746 62.3228L78.3359 60.1008Z" fill="#031F43"/>
<path d="M77.0028 48.4594C77.0028 48.4594 78.1665 47.3144 79.5787 47.6552C80.3851 47.8494 81.6033 48.6332 81.1507 50.6235C80.8309 52.0343 80.1776 53.6838 80.1776 53.6838C80.1776 53.6838 81.981 54.3892 82.9474 53.8814" stroke="#192635" stroke-width="1.76697" stroke-miterlimit="10" stroke-linecap="round" stroke-linejoin="round"/>
<path d="M81.5345 64.8784L85.6825 69.5371L77.2913 76.1757L78.2543 67.3901L81.5345 64.8784Z" fill="#347CE1" stroke="#192635" stroke-width="1.76697" stroke-linecap="round" stroke-linejoin="round"/>
<path d="M85.682 69.5372L91.4326 77.9378L101.052 68.1025L95.4785 62.5408L85.682 69.5372Z" fill="#347CE1" stroke="#192635" stroke-width="1.76697" stroke-linecap="round" stroke-linejoin="round"/>
<path d="M85.3022 70.2188C85.3022 70.2188 84.6897 89.0714 85.7106 96.3473C86.7348 103.623 87.6535 107.825 88.0653 110.589C88.4736 113.356 88.5178 116.137 88.5178 116.137" stroke="#192635" stroke-width="1.76697" stroke-miterlimit="10" stroke-linecap="round" stroke-linejoin="round"/>
<path d="M94.9 143.247C94.9 143.247 99.7829 143.421 101.736 146.72C103.693 150.019 102.679 153.065 102.679 153.065" stroke="#192635" stroke-width="1.76697" stroke-miterlimit="10" stroke-linecap="round" stroke-linejoin="round"/>
<path d="M105.01 117.412C105.01 117.412 106.037 112.392 105.66 107.696C105.282 102.999 103.591 90.9763 103.591 88.325" stroke="#192635" stroke-width="1.76697" stroke-miterlimit="10" stroke-linecap="round" stroke-linejoin="round"/>
<path d="M78.3767 116.761L75.2938 119.371L77.6247 124.357C77.6247 124.357 83.0759 123.011 86.8699 123.723C90.664 124.435 96.9829 127.087 96.9829 127.087L101.328 123.525L99.2729 118.898C99.2729 118.898 92.7158 119.729 88.4488 118.857C84.1818 117.988 78.3359 116.761 78.3767 116.761Z" stroke="#192635" stroke-width="1.76697" stroke-miterlimit="10" stroke-linecap="round" stroke-linejoin="round"/>
<path d="M97.9459 124.105C98.8348 124.105 99.5554 123.383 99.5554 122.493C99.5554 121.603 98.8348 120.881 97.9459 120.881C97.057 120.881 96.3364 121.603 96.3364 122.493C96.3364 123.383 97.057 124.105 97.9459 124.105Z" stroke="#192635" stroke-width="1.76697" stroke-miterlimit="10" stroke-linecap="round" stroke-linejoin="round"/>
<path d="M78.5779 121.927C79.4668 121.927 80.1874 121.205 80.1874 120.315C80.1874 119.425 79.4668 118.703 78.5779 118.703C77.689 118.703 76.9684 119.425 76.9684 120.315C76.9684 121.205 77.689 121.927 78.5779 121.927Z" stroke="#192635" stroke-width="1.76697" stroke-miterlimit="10" stroke-linecap="round" stroke-linejoin="round"/>
<path d="M22.2244 73.0475L31.2213 58.4172L51.4301 60.1008L68.1444 73.3371L22.2244 153.495V73.0475Z" fill="url(#paint1_linear_522_3450)"/>
<path d="M25.9742 66.8176L46.9896 68.8044L63.6086 81.6421" stroke="#465065" stroke-width="1.76697" stroke-miterlimit="10" stroke-linecap="round" stroke-linejoin="round"/>
<path d="M51.4299 60.1006C51.4299 60.4891 26.9438 105.774 26.9438 105.774" stroke="#465065" stroke-width="1.76697" stroke-miterlimit="10" stroke-linecap="round" stroke-linejoin="round"/>
<path d="M57.4536 77.3208L27.8906 130.951" stroke="#465065" stroke-width="1.76697" stroke-miterlimit="10" stroke-linecap="round" stroke-linejoin="round"/>
<path d="M37.0571 133.698L47.8846 137.846" stroke="#465065" stroke-width="1.76697" stroke-miterlimit="10" stroke-linecap="round" stroke-linejoin="round"/>
<path d="M32.1228 142.501L52.8319 136.759C52.8319 136.759 55.435 140.057 60.0151 142.443C64.0439 144.539 77.2499 145.34 77.2499 145.34L33.4227 159.479L28.094 157.264" stroke="#465065" stroke-width="1.76697" stroke-miterlimit="10" stroke-linecap="round" stroke-linejoin="round"/>
<path d="M73.2007 146.832L77.563 148.308L77.4984 150.298L34.4605 163.276L29.074 161.156" stroke="#465065" stroke-width="1.76697" stroke-miterlimit="10" stroke-linecap="round" stroke-linejoin="round"/>
<path d="M77.5634 148.308L34.5902 161.476L28.7511 159.292" stroke="#465065" stroke-width="1.76697" stroke-miterlimit="10" stroke-linecap="round" stroke-linejoin="round"/>
<path d="M29.1595 166.38L34.9408 169.689L35.543 182.019" stroke="#465065" stroke-width="1.76697" stroke-miterlimit="10" stroke-linecap="round" stroke-linejoin="round"/>
<path d="M28.8593 171.417L94.7091 149.835" stroke="#465065" stroke-width="1.76697" stroke-miterlimit="10" stroke-linecap="round" stroke-linejoin="round"/>
<path d="M88.5546 162.996L88.4014 152.016L78.0401 148.781" stroke="#465065" stroke-width="1.76697" stroke-miterlimit="10" stroke-linecap="round" stroke-linejoin="round"/>
<path d="M92.0219 144.535C92.0219 144.535 91.7906 141.621 91.2495 141.366C90.5316 141.028 89.5652 139.594 89.1841 139.212C88.8064 138.834 87.5814 139.069 87.3704 139.761C87.0744 140.732 87.3704 141.659 87.3704 141.659" stroke="#192635" stroke-width="1.76697" stroke-miterlimit="10" stroke-linecap="round" stroke-linejoin="round"/>
<path d="M96.2991 156.293C96.2991 156.293 94.9244 157.155 94.9244 157.077" stroke="#192635" stroke-width="1.76697" stroke-miterlimit="10" stroke-linecap="round" stroke-linejoin="round"/>
<path d="M39.6733 131.411C39.7278 130.904 88.8531 147.803 88.8531 147.803" stroke="#465065" stroke-width="1.76697" stroke-miterlimit="10" stroke-linecap="round" stroke-linejoin="round"/>
<path d="M91.2529 156.24C91.2883 155.695 90.9978 155.233 90.6039 155.207C90.2101 155.181 89.8621 155.602 89.8267 156.147C89.7913 156.691 90.0818 157.154 90.4757 157.179C90.8695 157.205 91.2174 156.784 91.2529 156.24Z" stroke="#465065" stroke-width="1.76697" stroke-miterlimit="10" stroke-linecap="round" stroke-linejoin="round"/>
<path d="M87.5837 157.573C87.6663 157.033 87.417 156.547 87.0268 156.488C86.6367 156.428 86.2536 156.817 86.171 157.356C86.0884 157.896 86.3377 158.382 86.7278 158.441C87.118 158.501 87.5011 158.112 87.5837 157.573Z" stroke="#465065" stroke-width="1.76697" stroke-miterlimit="10" stroke-linecap="round" stroke-linejoin="round"/>
<path d="M38.3165 173.894C38.3991 173.355 38.1497 172.869 37.7596 172.809C37.3695 172.749 36.9863 173.138 36.9038 173.677C36.8212 174.217 37.0705 174.703 37.4606 174.763C37.8507 174.823 38.2339 174.434 38.3165 173.894Z" stroke="#465065" stroke-width="1.76697" stroke-miterlimit="10" stroke-linecap="round" stroke-linejoin="round"/>
<path d="M31.3509 176.145C31.4335 175.606 31.1842 175.12 30.7941 175.06C30.404 175 30.0208 175.389 29.9382 175.929C29.8556 176.468 30.105 176.954 30.4951 177.014C30.8852 177.074 31.2683 176.685 31.3509 176.145Z" stroke="#465065" stroke-width="1.76697" stroke-miterlimit="10" stroke-linecap="round" stroke-linejoin="round"/>
<path d="M89.3774 142.467L77.376 143.721" stroke="#465065" stroke-width="1.76697" stroke-miterlimit="10" stroke-linecap="round" stroke-linejoin="round"/>
<path d="M72.4728 141.955C72.5103 141.84 81.2723 141.305 81.2723 141.305L68.3045 136.707C68.3045 136.707 57.6335 137.167 57.5927 137.051" stroke="#465065" stroke-width="1.76697" stroke-miterlimit="10" stroke-linecap="round" stroke-linejoin="round"/>
<path d="M81.8174 165.559L93.7338 170.63C94.6627 171.029 95.2616 171.945 95.2616 172.954V174.852L62.9186 186.753" stroke="#465065" stroke-width="1.76697" stroke-miterlimit="10" stroke-linecap="round" stroke-linejoin="round"/>
<path d="M94.8139 172.306L56.5603 186.753" stroke="#465065" stroke-width="1.76697" stroke-miterlimit="10" stroke-linecap="round" stroke-linejoin="round"/>
<path d="M74.4369 112.811C74.4369 112.811 72.6334 119.869 70.2685 126.071C67.9036 132.273 67.3456 134.642 67.3456 134.642" stroke="#192635" stroke-width="1.76697" stroke-miterlimit="10" stroke-linecap="round" stroke-linejoin="round"/>
<path d="M78.659 46.803L36.009 35.1343" stroke="#F3B63F" stroke-width="1.76697" stroke-miterlimit="10" stroke-linecap="round" stroke-linejoin="round"/>
<path d="M87.6597 47.1642L45.1153 35.1172" stroke="#F3B63F" stroke-width="1.76697" stroke-miterlimit="10" stroke-linecap="round" stroke-linejoin="round"/>
<path d="M75.4969 49.2666L48.8398 49.0315" stroke="#F3B63F" stroke-width="1.76697" stroke-miterlimit="10" stroke-linecap="round" stroke-linejoin="round"/>
<path d="M88.0577 49.9585L61.5231 52.5213" stroke="#F3B63F" stroke-width="1.76697" stroke-miterlimit="10" stroke-linecap="round" stroke-linejoin="round"/>
<path d="M155.85 15.5147C156.301 15.5147 156.667 15.1485 156.667 14.6968C156.667 14.2451 156.301 13.8789 155.85 13.8789C155.399 13.8789 155.034 14.2451 155.034 14.6968C155.034 15.1485 155.399 15.5147 155.85 15.5147Z" fill="#031F43"/>
<path d="M155.591 14.7104L153.155 18.1968L154.982 18.834L155.891 14.9354L155.591 14.7104Z" fill="#031F43"/>
<path d="M134.824 21.0456C134.824 21.0456 116.98 20.3845 115.068 21.8976C113.155 23.4141 176.797 53.2267 176.797 53.2267C176.797 53.2267 178.675 50.2073 173.135 43.3607C167.596 36.5142 163.182 32.7962 163.182 32.7962C163.182 32.7962 152.532 22.6576 148.476 21.5296C144.416 20.4015 134.824 21.0456 134.824 21.0456Z" fill="#347CE1"/>
<path d="M135.196 21.1037C135.196 21.1037 142.356 13.5756 153.476 17.1539C164.596 20.7323 163.643 33.1439 163.643 33.1439C163.643 33.1439 160.295 29.8655 152.159 25.7453C142.43 20.8209 135.196 21.1037 135.196 21.1037Z" fill="#031F43"/>
<path d="M177.069 53.4414C175.439 56.3757 159.619 52.9268 142.129 44.6422C124.632 36.3541 112.604 26.1542 114.155 22.5861C115.493 19.5087 132.003 22.0306 149.377 30.5606C167.922 39.6666 179.022 49.9313 177.069 53.4414Z" fill="#243C5B"/>
<path d="M130.935 33.3959C130.935 33.3959 136.682 32.8779 145.866 37.8262C154.356 42.3996 157.191 46.9731 157.191 46.9731C157.191 46.9731 153.131 47.8626 150.303 47.7944C143.015 47.6172 137.148 45.5418 132.48 37.6217C130.901 34.9431 130.935 33.3959 130.935 33.3959Z" fill="#031F43"/>
<path d="M132.799 41.3435L108.871 59.6066" stroke="#F3B63F" stroke-width="1.76697" stroke-miterlimit="10" stroke-linecap="round" stroke-linejoin="round"/>
<path d="M112.822 70.1438L133.837 43.6982" stroke="#F3B63F" stroke-width="1.76697" stroke-miterlimit="10" stroke-linecap="round" stroke-linejoin="round"/>
<path d="M143.747 49.001L133.974 136.694" stroke="#F3B63F" stroke-width="1.76697" stroke-miterlimit="10" stroke-linecap="round" stroke-linejoin="round"/>
<path d="M147.881 48.7043L156.766 102.325" stroke="#F3B63F" stroke-width="1.76697" stroke-miterlimit="10" stroke-linecap="round" stroke-linejoin="round"/>
<defs>
<linearGradient id="paint0_linear_522_3450" x1="58.467" y1="131.037" x2="22" y2="152.5" gradientUnits="userSpaceOnUse">
<stop stop-color="#252B36"/>
<stop offset="1" stop-color="#252B36" stop-opacity="0"/>
</linearGradient>
<linearGradient id="paint1_linear_522_3450" x1="47.5" y1="77" x2="22" y2="77" gradientUnits="userSpaceOnUse">
<stop stop-color="#252B36"/>
<stop offset="1" stop-color="#252B36" stop-opacity="0"/>
</linearGradient>
</defs>
</svg>
