<svg width="200" height="200" viewBox="0 0 200 200" fill="none" xmlns="http://www.w3.org/2000/svg">
<path d="M102.395 138.495L70.6428 148.054L77.8915 152.027L105.547 156.337L133.944 144.893L133.878 143.613C133.878 143.609 102.461 138.898 102.395 138.495Z" fill="#252B36" stroke="#465065" stroke-width="2.24293" stroke-miterlimit="10" stroke-linecap="round" stroke-linejoin="round"/>
<path d="M104.135 151.72L126.888 143.836L103.526 140.171L80.9959 147.721L104.135 151.72Z" stroke="#465065" stroke-width="2.24293" stroke-miterlimit="10" stroke-linecap="round" stroke-linejoin="round"/>
<path d="M67.4657 81.1554C67.2942 79.1397 67.8232 77.1386 69.0052 75.4997C70.6358 73.2389 72.5401 69.8184 72.2629 66.4637C72.0476 63.859 69.7713 60.1166 70.3112 57.9729C70.8511 55.8291 72.9378 51.2965 69.6144 48.1175C66.8419 45.4652 64.8501 45.6994 61.9243 44.2031C59.4327 42.9301 55.1681 40.1095 50.0244 42.2752C45.468 44.1958 45.2418 47.7443 42.6408 49.4052C40.0434 51.0624 37.0957 52.2879 36.0597 58.3168C35.0018 64.4773 38.1646 67.0015 34.7938 70.1952C31.423 73.3889 23.0107 69.9208 21.2304 80.2262C19.8697 88.1024 25.3162 89.606 27.1877 91.2559C29.0591 92.9058 55.3433 97.2152 59.8668 94.4715C66.9331 90.184 67.7539 84.5612 67.4657 81.1554Z" fill="#E94A47"/>
<path d="M47.0729 68.2673L40.5502 79.0702L49.8198 98.4371L59.3631 77.3947L47.0729 68.2673Z" fill="#F1E2D1" stroke="black" stroke-width="2.24293" stroke-miterlimit="10" stroke-linecap="round" stroke-linejoin="round"/>
<path d="M69.3103 58.7851C69.3103 58.7851 68.2633 71.2781 63.7397 76.7911C59.7451 81.6566 56.378 81.1481 52.8065 77.2703C49.8772 74.0913 46.8566 68.988 46.8566 68.988C46.8566 68.988 43.3618 67.3235 44.4781 64.5359C45.5907 61.7483 48.4763 63.8042 48.4763 63.8042C48.4763 63.8042 51.5188 64.192 51.5553 59.1802C51.5844 55.489 54.7765 50.543 62.3462 51.9404C69.9122 53.3415 69.3103 58.7851 69.3103 58.7851Z" fill="#F1E2D1" stroke="#192635" stroke-width="2.24293" stroke-miterlimit="10" stroke-linecap="round" stroke-linejoin="round"/>
<path d="M63.9232 72.3316C63.9232 72.3316 62.4384 72.3865 60.8588 71.6548C59.2792 70.9231 58.1191 70.0561 58.1191 70.0561C58.1191 70.0561 57.4479 73.0266 59.4653 74.179C61.9569 75.6021 63.9232 72.3316 63.9232 72.3316Z" stroke="#192635" stroke-width="2.24293" stroke-miterlimit="10" stroke-linecap="round" stroke-linejoin="round"/>
<path d="M64.233 61.4117C64.2512 61.536 63.6712 64.6017 64.5321 67.1442C64.7291 67.7295 64.4701 68.4941 63.5837 68.5489C62.3251 68.6258 61.8545 67.9051 61.8545 67.9051" stroke="#192635" stroke-width="2.24293" stroke-miterlimit="10" stroke-linecap="round" stroke-linejoin="round"/>
<path d="M56.5503 89.2329L51.786 101.664C51.786 101.664 44.3732 94.6105 40.6886 88.5268C37.0041 82.4468 32.0501 79.3665 32.0501 79.3665C32.0501 79.3665 21.2117 84.8941 16.4547 93.4801C11.6976 102.066 11.7852 111.168 9.94657 119.926C8.66245 126.05 8.24293 136.147 8.07147 139.717C7.80516 145.267 8.34143 151.27 8.64786 153.809C8.92147 156.084 10.5047 158.821 11.8691 159.885C13.2371 160.95 22.007 162.578 23.1452 162.424C24.2834 162.27 30.1129 158.118 30.3574 156.194C30.9739 151.339 23.5319 147.641 26.4941 146.499C29.4563 145.358 32.1121 145.223 32.1121 145.223C32.1121 145.223 46.0111 147.729 51.9465 146.178C57.8819 144.626 52.7673 142.914 52.7673 142.914L62.1792 123.01C62.1792 123.01 72.3099 131.274 73.0833 132.565C73.8566 133.856 75.1444 136.355 76.0017 136.527C76.859 136.699 77.7199 137.99 79.1791 138.506C80.6383 139.022 81.7546 137.387 81.7546 137.387C81.7546 137.387 80.8974 130.67 84.1587 127.915C87.4201 125.161 93.2788 126.028 93.2788 126.028C93.2788 126.028 93.2788 124.543 92.2026 123.869C91.1265 123.196 86.0083 122.026 85.4282 121.934C84.8445 121.843 84.7533 121.305 84.0821 120.54C83.4109 119.776 81.3461 118.649 80.1349 117.976C78.9238 117.299 78.745 117.661 78.2963 117.299C77.8476 116.941 76.6364 114.193 74.6628 112.214C72.6893 110.235 69.9496 106.452 67.5711 102.315C65.1925 98.1737 64.1164 97.1859 63.2189 96.2384C62.3215 95.2946 59.1368 91.2888 58.1919 90.3889C57.2434 89.4853 56.5503 89.2329 56.5503 89.2329Z" fill="#3F47C0" stroke="#192635" stroke-width="2.24293" stroke-linecap="round" stroke-linejoin="round"/>
<path d="M33.0861 143.262C33.0861 143.262 29.8795 139.15 22.7001 138.978C18.4246 138.876 14.1674 140.8 14.1674 140.8" stroke="#192635" stroke-width="2.24293" stroke-miterlimit="10" stroke-linecap="round" stroke-linejoin="round"/>
<path d="M82.5794 147.092C82.5794 147.092 89.0255 151.508 90.7984 151.402C92.5714 151.295 93.0018 150.538 93.0018 149.946C93.0018 149.353 85.4832 143.214 84.7317 142.837C83.9802 142.461 74.2582 139.768 73.2367 139.768C72.2153 139.768 56.6418 140.361 54.1174 140.632C51.5929 140.902 34.0312 143.324 33.0645 143.324C32.0978 143.324 28.7452 142.512 25.7392 144.067C23.8277 145.054 21.4017 149.276 20.1213 153.933C19.6105 155.788 19.6361 156.571 20.497 158.133C21.3579 159.695 22.0547 160.394 22.0547 160.394C22.0547 160.394 30.2847 158.912 34.0568 157.943C38.8795 156.706 52.545 150.955 53.9933 151.116C55.4452 151.277 56.9336 152.901 60.5634 152.96C63.1025 153 68.2426 154.738 69.6945 154.467C71.1464 154.196 74.2071 153.392 74.2071 153.392C74.2071 153.392 75.7101 154.255 77.5925 153.823C79.4712 153.392 79.9017 151.237 79.9017 151.237C79.9017 151.237 82.4262 154.793 83.7139 154.954C85.0017 155.115 86.0231 153.984 85.7532 152.854C85.4796 151.723 82.5794 147.092 82.5794 147.092Z" fill="#F1E2D1" stroke="#192635" stroke-width="2.24293" stroke-miterlimit="10" stroke-linecap="round" stroke-linejoin="round"/>
<path d="M82.5788 147.092C82.5788 146.821 79.5181 143.375 78.6571 142.892C77.7962 142.406 71.0291 141.707 71.0291 141.707" stroke="#192635" stroke-width="2.24293" stroke-miterlimit="10" stroke-linecap="round" stroke-linejoin="round"/>
<path d="M79.8947 151.241C79.8947 151.241 77.9065 148.764 75.2763 147.418C72.646 146.071 69.0454 145.263 69.0454 145.263" stroke="#192635" stroke-width="2.24293" stroke-miterlimit="10" stroke-linecap="round" stroke-linejoin="round"/>
<path d="M74.1997 153.395C74.1997 153.395 69.4207 150.487 67.9688 149.894C66.5169 149.302 65.3386 148.654 65.3386 148.654" stroke="#192635" stroke-width="2.24293" stroke-miterlimit="10" stroke-linecap="round" stroke-linejoin="round"/>
<path d="M62.1793 123.006C62.1793 123.006 62.887 119.176 63.1351 115.331C63.3832 111.486 63.1351 108.077 63.1351 108.077" stroke="#192635" stroke-width="2.24293" stroke-miterlimit="10" stroke-linecap="round" stroke-linejoin="round"/>
<path d="M93.1285 125.783C93.1285 125.783 99.0675 129.17 100.516 129.73C101.964 130.29 102.522 130.176 103.19 129.543C103.857 128.91 107.498 127.831 108.202 127.645C108.906 127.458 110.468 127.272 111.022 127.795C111.58 128.314 112.284 129.73 112.284 129.73C112.284 129.73 113.211 129.507 113.769 130.773C114.327 132.038 114.772 134.01 114.809 134.683C114.845 135.353 114.141 137.105 114.141 137.105C114.141 137.105 113.992 138.967 113.361 140.046C112.729 141.125 111.431 141.945 110.873 142.018C110.314 142.091 104.634 141.795 104.339 141.385C104.043 140.975 103.93 140.006 103.93 140.006C103.93 140.006 102.632 139.746 102.296 139.41C101.96 139.073 101.22 138.74 101.22 138.74L81.4329 136.582C81.4329 136.582 79.244 131.779 82.4361 128.054C85.6281 124.33 93.1285 125.783 93.1285 125.783Z" fill="#F1E2D1" stroke="#192635" stroke-width="2.24293" stroke-miterlimit="10" stroke-linecap="round" stroke-linejoin="round"/>
<path d="M106.9 141.049C106.9 141.049 108.608 141.012 110.351 139.933C112.095 138.854 114.138 137.105 114.138 137.105" stroke="#192635" stroke-width="2.24293" stroke-miterlimit="10" stroke-linecap="round" stroke-linejoin="round"/>
<path d="M51.7864 101.664C51.7864 101.664 51.2683 98.148 51.1662 96.1908C51.064 94.2336 51.1042 94.4495 51.1042 94.4495L41.5682 77.8739L43.312 75.3021L37.8837 74.19L32.0432 79.3664C32.0432 79.3664 36.5923 86.544 41.5244 91.7168C46.4566 96.8896 51.7864 101.664 51.7864 101.664Z" fill="#3F47C0" stroke="#192635" stroke-width="2.24293" stroke-linecap="round" stroke-linejoin="round"/>
<path d="M55.7154 85.6112L56.5508 89.2329" stroke="black" stroke-width="2.24293" stroke-miterlimit="10" stroke-linecap="round" stroke-linejoin="round"/>
<path d="M46.6861 69.3685L43.3152 75.3022" stroke="#192635" stroke-width="2.24293" stroke-miterlimit="10" stroke-linecap="round" stroke-linejoin="round"/>
<path d="M51.7859 101.664L51.1657 94.9069L57.1084 82.5675L58.1845 90.3853L51.7859 101.664Z" fill="#3F47C0" stroke="#192635" stroke-width="2.24293" stroke-linecap="round" stroke-linejoin="round"/>
<path d="M56.3719 57.7791C56.3719 57.7791 55.0549 58.9534 55.7918 60.8813C56.4667 62.6446 57.5465 63.314 59.159 63.3433C61.2384 63.3836 62.1832 62.5202 62.8107 61.2142C63.398 59.9923 62.4824 57.9071 62.4824 57.9071C62.4824 57.9071 62.3729 58.4778 61.9789 58.5217C61.2457 58.6095 61.6178 57.3364 61.6214 56.6706C61.6251 55.8292 60.8626 55.1085 60.2169 54.5012C59.5712 53.894 59.0131 53.594 59.0131 53.594C59.0131 53.594 59.3998 55.3427 59.097 55.8438C58.7614 56.3999 58.3236 55.7414 58.3236 55.7414C58.3236 55.7414 57.6268 56.623 57.5794 57.3474C57.532 58.0717 57.6232 58.829 57.0322 58.9131C56.4485 59.0009 56.3719 57.7791 56.3719 57.7791Z" fill="#FC7900"/>
<path d="M59.0241 63.2081C58.8453 63.1971 58.6775 63.1239 58.5462 63.0032C58.3236 62.7947 57.9771 62.4069 57.7472 61.8326C57.3897 60.929 57.8129 59.9851 57.8129 59.9851C57.8129 59.9851 58.0354 60.3363 58.2179 59.9632C58.3966 59.5901 58.4221 58.2914 58.8672 57.6621C59.3123 57.0366 59.8339 56.7841 59.8339 56.7841C59.8339 56.7841 59.3706 58.4231 59.9543 59.3888C60.5417 60.3546 60.8226 60.212 60.8882 61.1704C60.9575 62.1874 59.8558 62.9996 59.5932 63.1386C59.4509 63.2154 59.2101 63.2227 59.0241 63.2081Z" fill="#FFEC00"/>
<path d="M59.2829 59.6302C59.2829 59.6302 59.5747 60.1021 59.9177 60.7971C60.2606 61.4922 60.0453 62.586 59.3303 62.7616C58.6153 62.9409 58.3344 61.8068 58.3964 61.4812C58.4584 61.152 58.546 60.8813 58.546 60.8813L58.7576 61.2983C58.7576 61.2983 58.8123 61.3825 58.878 60.724C58.9473 60.0618 59.2829 59.6302 59.2829 59.6302Z" fill="#F5E6B6"/>
<path d="M64.8601 58.4192C64.8601 58.4192 63.5432 59.5935 64.2801 61.5214C64.955 63.2847 66.0348 63.9542 67.6472 63.9834C69.7266 64.0237 70.6714 63.1603 71.2989 61.8543C71.8862 60.6325 70.9706 58.5472 70.9706 58.5472C70.9706 58.5472 70.8611 59.1179 70.4671 59.1618C69.7339 59.2496 70.106 57.9765 70.1096 57.3107C70.1133 56.4693 69.3508 55.7487 68.7051 55.1414C68.0594 54.5341 67.5013 54.2341 67.5013 54.2341C67.5013 54.2341 67.888 55.9828 67.5852 56.484C67.2496 57.04 66.8118 56.3815 66.8118 56.3815C66.8118 56.3815 66.115 57.2632 66.0676 57.9875C66.0202 58.7119 66.1114 59.4691 65.5204 59.5533C64.9294 59.6374 64.8601 58.4192 64.8601 58.4192Z" fill="#FC7900"/>
<path d="M67.5125 63.8517C67.3337 63.8408 67.1659 63.7676 67.0346 63.6469C66.812 63.4384 66.4655 63.0506 66.2357 62.4762C65.8781 61.5726 66.3013 60.6288 66.3013 60.6288C66.3013 60.6288 66.5239 60.98 66.7063 60.6069C66.885 60.2337 66.9105 58.935 67.3556 58.3058C67.8007 57.6802 68.3223 57.4278 68.3223 57.4278C68.3223 57.4278 67.859 59.0667 68.4427 60.0325C69.0301 60.9983 69.311 60.8556 69.3766 61.8141C69.4459 62.8311 68.3442 63.6432 68.0816 63.7822C67.9393 63.8591 67.6985 63.8627 67.5125 63.8517Z" fill="#FFEC00"/>
<path d="M67.7674 60.274C67.7674 60.274 68.0592 60.7459 68.4021 61.4409C68.745 62.136 68.5298 63.2298 67.8148 63.4054C67.0998 63.581 66.8189 62.4506 66.8809 62.125C66.9429 61.7958 67.0305 61.5251 67.0305 61.5251L67.2421 61.9421C67.2421 61.9421 67.2968 62.0263 67.3624 61.3678C67.4318 60.7056 67.7674 60.274 67.7674 60.274Z" fill="#F5E6B6"/>
<path d="M26.107 138.879L29.1422 120.742" stroke="#192635" stroke-width="2.24293" stroke-miterlimit="10" stroke-linecap="round" stroke-linejoin="round"/>
<path d="M48.3561 68.1653L47.8559 69.1653L47.3562 70.1653L46.3561 72.1653L50.1055 77.0146L52.3563 74.6653L48.3561 68.1653Z" fill="#F1E2D1"/>
<path d="M104.635 145.073L104.322 142.673L108.17 122.179C108.17 122.179 108.626 121.751 109.396 121.894C110.166 122.037 110.195 122.293 110.195 122.293L106.434 143.046L104.635 145.073Z" fill="#45D62F" stroke="#E94A47" stroke-width="2.24293" stroke-linecap="round" stroke-linejoin="round"/>
<path d="M103.702 131.362L104.045 132.562C104.045 132.562 106.31 134.05 106.31 135.093C106.31 136.136 105.865 136.955 105.048 137.105C104.231 137.255 102.859 136.695 101.743 135.913C100.63 135.13 99.7366 134.31 99.5906 133.9" fill="#F1E2D1"/>
<path d="M103.702 131.362L104.045 132.562C104.045 132.562 106.31 134.05 106.31 135.093C106.31 136.136 105.865 136.955 105.048 137.105C104.231 137.255 102.859 136.695 101.743 135.913C100.63 135.13 99.7366 134.31 99.5906 133.9" stroke="#192635" stroke-width="2.24293" stroke-miterlimit="10" stroke-linecap="round" stroke-linejoin="round"/>
<path d="M108.67 131.212L109.167 132.521C109.167 132.521 106.569 135.239 106.197 136.655C105.825 138.071 106.197 138.85 106.642 139.15C107.087 139.446 107.718 139.67 107.977 139.41C108.236 139.15 112.767 134.497 113.139 133.937C113.511 133.377 113.956 131.405 113.956 131.405" fill="#F1E2D1"/>
<path d="M108.67 131.212L109.167 132.521C109.167 132.521 106.569 135.239 106.197 136.655C105.825 138.071 106.197 138.85 106.642 139.15C107.087 139.446 107.718 139.67 107.977 139.41C108.236 139.15 112.767 134.497 113.139 133.937C113.511 133.377 113.956 131.405 113.956 131.405" stroke="#192635" stroke-width="2.24293" stroke-miterlimit="10" stroke-linecap="round" stroke-linejoin="round"/>
<path d="M85.4249 121.931C85.4249 121.931 80.3067 122.234 77.2861 126.021" stroke="#192635" stroke-width="2.24293" stroke-miterlimit="10" stroke-linecap="round" stroke-linejoin="round"/>
<path d="M167.341 88.3951C167.341 88.3951 191.656 151.961 191.656 154.09C191.656 156.22 164.624 160.836 161.319 159.772C158.013 158.707 141.725 151.844 141.725 149.474C141.725 148.409 161.454 149.236 175.247 149.236C179.376 149.236 182.448 149.236 182.565 148.881C182.681 148.526 168.162 108.399 168.162 108.399L167.341 88.3951Z" fill="#252B36" stroke="#465065" stroke-width="2.24293" stroke-miterlimit="10" stroke-linecap="round" stroke-linejoin="round"/>
<path d="M146.778 62.0921L147.529 131.823L166.419 151.431L168.626 150.988L167.743 37.5561L165.755 37L146.778 62.0921Z" fill="#252B36" stroke="#465065" stroke-width="2.24293" stroke-miterlimit="10" stroke-linecap="round" stroke-linejoin="round"/>
<path d="M166.419 151.431L165.755 37" stroke="#465065" stroke-width="2.24293" stroke-miterlimit="10" stroke-linecap="round" stroke-linejoin="round"/>
<path d="M165.069 133.059L148.911 121.85L147.996 63.5591L164.856 41.1653L165.069 133.059Z" fill="#1B202A" stroke="#465065" stroke-width="2.24293" stroke-miterlimit="10" stroke-linecap="round" stroke-linejoin="round"/>
</svg>
