<svg width="10" height="10" viewBox="0 0 10 10" fill="none" xmlns="http://www.w3.org/2000/svg">
    <path
        d="M4.55163 0.845993C4.73504 0.47437 5.26496 0.47437 5.44837 0.845993L6.4266 2.82811C6.49943 2.97568 6.64021 3.07797 6.80307 3.10163L8.99047 3.41948C9.40058 3.47907 9.56433 3.98306 9.26757 4.27232L7.68476 5.81519C7.56691 5.93005 7.51314 6.09556 7.54096 6.25775L7.91461 8.43631C7.98467 8.84476 7.55595 9.15624 7.18914 8.9634L5.23267 7.93482C5.08701 7.85824 4.91299 7.85824 4.76733 7.93482L2.81086 8.9634C2.44405 9.15624 2.01533 8.84476 2.08539 8.43631L2.45904 6.25775C2.48686 6.09556 2.43309 5.93005 2.31524 5.81519L0.732428 4.27232C0.43567 3.98306 0.599424 3.47907 1.00953 3.41948L3.19693 3.10163C3.35979 3.07797 3.50057 2.97568 3.5734 2.82811L4.55163 0.845993Z"
        fill="white" />
</svg>