<svg width="159" height="25" viewBox="0 0 159 25" fill="none" xmlns="http://www.w3.org/2000/svg">
<path d="M54.0098 4.69434C57.7906 4.69434 60.3394 6.2024 60.3394 9.1548V9.85573H56.941V9.1548C56.941 7.96534 55.8365 7.37061 54.0098 7.37061H53.6275C51.7583 7.37061 50.6963 7.92286 50.6963 8.72999V8.9424C50.6963 9.91945 51.5459 10.1956 54.9868 10.7691C58.8738 11.47 60.5943 12.617 60.5943 15.0171V15.2295C60.5943 17.6297 58.4278 19.3501 54.0735 19.3501H53.6699C49.2732 19.3501 47.043 17.6084 47.043 14.656V13.9976H50.4414V14.656C50.4414 16.1641 51.6096 16.6526 53.6912 16.6526H54.0735C56.0489 16.6526 57.1534 16.1853 57.1534 15.272V15.0808C57.1534 14.1675 56.1338 13.7639 52.7141 13.2117C49.1245 12.6382 47.2554 11.555 47.2554 9.11232V8.8362C47.2554 6.2024 49.6768 4.69434 53.6275 4.69434H54.0098Z" fill="white"/>
<path d="M70.9805 19.1375V17.7144H70.5345C69.876 18.7127 68.6653 19.3499 66.9661 19.3499H66.605C63.9712 19.3499 62.4844 17.9268 62.4844 14.8257V8.24121H65.8828V14.2097C65.8828 15.7178 66.6687 16.5462 68.2405 16.5462H68.6016C70.1734 16.5462 70.9805 15.7178 70.9805 14.2097V8.24121H74.3789V19.1375H70.9805Z" fill="white"/>
<path d="M80.2422 8.24085V9.57898H80.6882C81.4741 8.60193 82.6424 8.02844 84.2779 8.02844H84.6602C87.4214 8.02844 89.4393 9.57899 89.4393 13.0624V14.3156C89.4393 17.799 87.4214 19.3495 84.6602 19.3495H84.2779C82.5999 19.3495 81.4529 18.7569 80.6882 17.7565H80.2422V24.2348H76.8438V8.24085H80.2422ZM80.2422 13.0199V14.3368C80.2422 15.9298 81.3255 16.6945 82.9397 16.6945H83.322C84.9575 16.6945 86.0408 15.9086 86.0408 14.3368V13.0199C86.0408 11.4694 84.9575 10.6835 83.322 10.6835H82.9397C81.3255 10.6835 80.2422 11.4481 80.2422 13.0199Z" fill="white"/>
<path d="M97.6824 8.02881C101.145 8.02881 103.63 9.70679 103.63 13.1052V14.4859H94.4963V14.6133C94.4963 16.1851 95.4946 16.971 97.2788 16.971H97.6824C99.1692 16.971 100.104 16.5462 100.401 15.5054H103.523C103.226 17.7569 101.357 19.3499 97.6824 19.3499H97.2788C93.8167 19.3499 91.2891 17.7356 91.2891 14.3372V13.1052C91.2891 9.70679 93.7954 8.02881 97.2788 8.02881H97.6824ZM94.5176 12.3406H100.401C100.274 11.0874 99.2329 10.4077 97.6612 10.4077H97.2576C95.5796 10.4077 94.645 11.0874 94.5176 12.3406Z" fill="white"/>
<path d="M109.234 8.24072V9.4939H109.659C110.296 8.53809 111.273 8.02832 112.76 8.02832C115.097 8.02832 116.329 9.19654 116.329 12.2551V12.9773H113.185V12.5313C113.185 11.4055 112.548 10.8108 111.21 10.8108C109.872 10.8108 109.234 11.4055 109.234 12.5313V19.137H105.836V8.24072H109.234Z" fill="white"/>
<path d="M130.346 3.41992V19.1377H126.947V17.7571H126.48C125.715 18.7575 124.589 19.3502 122.911 19.3502H122.508C119.747 19.3502 117.75 17.8209 117.75 14.3162V13.063C117.75 9.57961 119.747 8.02907 122.508 8.02907H122.911C124.547 8.02907 125.694 8.60256 126.48 9.57961H126.947V3.41992H130.346ZM121.148 13.0205V14.3374C121.148 15.888 122.232 16.6951 123.846 16.6951H124.228C125.864 16.6951 126.947 15.9092 126.947 14.3374V13.0205C126.947 11.47 125.864 10.6841 124.228 10.6841H123.846C122.232 10.6841 121.148 11.4912 121.148 13.0205Z" fill="white"/>
<path d="M138.712 8.02832C142.557 8.02832 144.298 9.4939 144.298 11.979V19.137H140.9V17.7564H140.39C139.541 18.863 138.33 19.3494 136.482 19.3494C134.188 19.3494 132.531 18.332 132.531 16.0572C132.531 13.8482 133.997 12.5525 137.395 12.5525H140.9V11.979C140.9 10.8958 140.157 10.386 138.691 10.386H138.309C136.907 10.386 136.1 10.8745 136.1 11.9365H132.765C132.765 9.47266 134.655 8.02832 138.309 8.02832H138.712ZM135.887 15.7173C135.887 16.4395 136.482 16.8855 137.905 16.8855C139.328 16.8855 140.9 16.3758 140.9 14.8252V14.5066H137.863C136.439 14.5066 135.887 14.9102 135.887 15.7173Z" fill="white"/>
<path d="M152.906 8.02832C156.453 8.02832 159.002 9.72755 159.002 13.0623V14.3155C159.002 17.6927 156.453 19.3494 152.906 19.3494H152.502C148.934 19.3494 146.406 17.6714 146.406 14.3155V13.0623C146.406 9.72755 148.934 8.02832 152.502 8.02832H152.906ZM149.805 13.0198V14.3367C149.805 15.781 150.633 16.6944 152.502 16.6944H152.906C154.775 16.6944 155.603 15.781 155.603 14.3367V13.0198C155.603 11.5755 154.775 10.6834 152.906 10.6834H152.502C150.633 10.6834 149.805 11.5755 149.805 13.0198Z" fill="white"/>
<path d="M27.5416 5.24309L29.6883 14.2051C29.9236 15.1874 29.179 16.1315 28.1689 16.1315H8.80804C6.96372 16.1315 5.31566 14.9797 4.68166 13.2478L4.50582 12.7675C4.41251 12.5126 4.60119 12.2426 4.87263 12.2426H17.5167C17.6665 12.2426 17.7879 12.1212 17.7879 11.9715C17.7879 10.8485 16.8775 9.93811 15.7545 9.93811H6.54084C4.69652 9.93811 3.04847 8.78642 2.41447 7.05451L2.2562 6.62215C2.16289 6.36729 2.35157 6.09732 2.62298 6.09732H14.6361C14.7858 6.09732 14.9072 5.97592 14.9072 5.82618C14.9072 4.70318 13.9969 3.79281 12.8739 3.79281H4.2912C2.44689 3.79281 0.798843 2.64112 0.164842 0.909205L0.0241457 0.52487C-0.0691552 0.269975 0.119521 0 0.390933 0H20.8942C24.056 0 26.8051 2.16837 27.5416 5.24309Z" fill="url(#paint0_linear_2894_145933)"/>
<path d="M35.1395 7.91083L38.15 20.8404C38.3783 21.8202 37.6344 22.7571 36.6284 22.7571H16.4349C14.5222 22.7571 12.8293 21.52 12.2483 19.6978L12.0437 19.056C11.9232 18.6781 12.2052 18.2921 12.6019 18.2921H31.0415C32.0531 18.2921 32.798 17.3454 32.5599 16.3621L29.8665 5.23695C29.7773 4.86822 30.0566 4.51318 30.436 4.51318H30.8598C32.9027 4.51318 34.6762 5.92112 35.1395 7.91083Z" fill="url(#paint1_linear_2894_145933)"/>
<defs>
<linearGradient id="paint0_linear_2894_145933" x1="14.8592" y1="0" x2="14.8592" y2="16.1315" gradientUnits="userSpaceOnUse">
<stop stop-color="#FFC803"/>
<stop offset="1" stop-color="#FFA903"/>
</linearGradient>
<linearGradient id="paint1_linear_2894_145933" x1="25.0667" y1="4.51318" x2="25.0667" y2="22.7571" gradientUnits="userSpaceOnUse">
<stop stop-color="#FF7421"/>
<stop offset="1" stop-color="#EC5901"/>
</linearGradient>
</defs>
</svg>
