<svg width="228" height="200" fill="none" xmlns="http://www.w3.org/2000/svg"><path d="M145.989 100.494c-6.166 5.036-23.295 18.971-29.614 23.812-1.054.809 3.536 8.362 4.61 7.546 6.465-4.945 26.099-16.976 32.404-22.123 1.039-.858-6.368-10.079-7.4-9.235Z" fill="#5EDC10"/><path d="M132.641 105.53c-.014-.021-.035-.035-.049-.056 0 0 .007 0 .007-.007-.049-.063-.105-.118-.154-.188-.014-.021-.027-.049-.041-.07a3.299 3.299 0 0 0-.503-.237c-1.618-.593-3.131.488-4.345 1.451-1.932 1.527-3.396 3.557-4.561 5.719-.774-.586-2.1.349-1.528 1.388.168.3.342.593.53.879-.007.362.14.711.496.92.069.042.146.07.223.091.349.453.725.9 1.123 1.311.418.433 1.046.356 1.478 0l10.134-8.355c-1.025-.872-1.98-1.793-2.81-2.846Z" fill="#FFBF24"/><path d="M146.34 114.541c-.16-.614-.976-1.019-1.534-.628-1.012.704-1.632 1.66-2.121 2.748l.021-.858c.021-.844-1.206-1.464-1.785-.739-.502.635-.837 1.325-1.088 2.064a.926.926 0 0 0-.509-.474c-.475-.195-1.04-.035-1.305.426-.544.934-.879 1.959-1.22 2.985-.147.432-.286.872-.475 1.29-.041.098-.097.188-.146.286a3.542 3.542 0 0 0-.105-.363c-.23-.69-.572-1.199-1.157-1.625-.712-.523-1.493.209-1.577.907a7.21 7.21 0 0 0 .251 2.804.982.982 0 0 0 .733.711c.16.279.446.481.858.495a11.273 11.273 0 0 0 7.825-2.845 11.015 11.015 0 0 0 2.372-3.034c.641-1.221 1.332-2.769.962-4.15ZM88.513 126.872c-.209-.132-.404-.293-.607-.432a.829.829 0 0 0-.188-.537c-.181-.223-.363-.454-.544-.677-.893-1.471-1.779-2.943-2.671-4.415 0-.118 0-.23-.014-.348-.105-1.27-.398-2.518-.6-3.774-.21-1.346-.39-2.699-.565-4.052-.349-2.643-.683-5.294-1.234-7.909-.614-2.923-1.605-5.726-2.463-8.579-.864-2.867-1.394-5.789-1.938-8.732a.904.904 0 0 0-.28-.53 7.18 7.18 0 0 0 .245-1.137c.174-1.367-.314-2.567-.795-3.815-.565-1.472-.789-2.93-.635-4.506.056-.586-.523-.774-.956-.593a32.63 32.63 0 0 1 1.332-3.822c.35-.816-.857-1.527-1.206-.704-1.346 3.173-2.155 6.5-2.769 9.883-.453 2.51-.97 5.14-.663 7.693-3.864 1.374-8.272.927-12.129-.244-2.245-.684-2.97-3.188-3.738-5.182-.886-2.316-1.548-4.792-.913-7.261.341-1.325-1.549-1.793-2.016-.558a37.9 37.9 0 0 0-.6 1.702.819.819 0 0 0-.81-.09c-1.261.501-2.008 1.694-2.608 2.866a13.418 13.418 0 0 0-1.31 4.143c-.433 2.943.02 5.928 1.052 8.704.998 2.685 3.634 5.029 5.713 7.044.034.035-1.158.433-1.123.461-.265-.063-.53-.133-.795-.203a.979.979 0 0 0-.412-.432 34.383 34.383 0 0 1-5.35-3.766c-.927-.795-2.134.181-1.645 1.27.013.027.027.048.041.076-.683 2.671 1.019 5.384 2.595 7.407.363.467.753.907 1.158 1.332-.419 1.618.76 3.069 1.68 4.296.691.921 1.437 1.793 2.24 2.616.788 1.932 1.625 3.864 2.831 5.573 1.381 1.959 3.174 3.347 5.217 4.554 2.748 1.625 6.256 3.648 9.367 3.976 2.81.774 5.112.369 8.014.711 3.34.391 6.689.167 9.925-.746.593-.154.67-.942.167-1.263Z" fill="#DF7FFF"/><path d="M88.512 126.872c-.209-.132-.404-.293-.606-.432a.827.827 0 0 0-.189-.537c-.181-.223-.362-.454-.544-.677-.892-1.471-1.778-2.943-2.671-4.415 0-.118 0-.23-.014-.348-.105-1.27-.398-2.518-.6-3.774-.21-1.346-.39-2.699-.565-4.052-.02-.174-.049-.342-.07-.516-2.238.962-4.038 3.166-6.66 2.957-.481-.042-.97-.404-.935-.934.154-2.602 1.918-4.715 2.141-7.275.035-.405.126-1.276-.181-1.625-.119 0-.258.063-.349.091-.858.265-1.653.823-2.49 1.171-.739.307-1.241-.544-1.15-1.151.097-.662.37-1.318.585-1.952.189-.565.293-1.235.489-1.821-.189.056-.391.105-.544.175-.65.293-1.27.655-1.932.92-.88.356-1.577-.969-.914-1.562 1.109-.997 1.946-2.47 2.525-3.822.397-.928 1.178-2.937-.223-3.383-1.033-.32-2.295-.077-3.348.028-1.032.105-2.023.202-3.055.042-2.33-.349-4.527-1.423-5.964-3.32-.18-.237-.216-.467-.16-.67a26.013 26.013 0 0 1-1.262-.348c-2.246-.684-2.971-3.188-3.739-5.182-.886-2.316-1.548-4.792-.913-7.261.341-1.325-1.549-1.793-2.016-.558-.216.565-.412 1.13-.6 1.702a.818.818 0 0 0-.809-.09c-1.262.501-2.009 1.694-2.608 2.866a13.416 13.416 0 0 0-1.312 4.143c-.432 2.943.021 5.928 1.053 8.704.998 2.685 3.634 5.029 5.713 7.044.035.035-1.158.433-1.123.461-.265-.063-.53-.133-.795-.203a.979.979 0 0 0-.412-.432 34.38 34.38 0 0 1-5.35-3.766c-.927-.795-2.134.181-1.645 1.269.014.028.028.049.041.077-.683 2.671 1.019 5.384 2.595 7.407.363.467.753.906 1.158 1.332-.419 1.618.76 3.069 1.68 4.296.691.921 1.438 1.793 2.24 2.616.788 1.932 1.625 3.864 2.831 5.573 1.381 1.959 3.174 3.347 5.217 4.554 2.748 1.625 6.257 3.648 9.367 3.975 2.811.775 5.113.37 8.014.712 3.34.39 6.689.167 9.925-.746.6-.154.677-.942.174-1.263Z" fill="#9E5AED"/><path d="M88.031 126.496c-4.115-3.788-4.366-9.688-4.534-14.905-.02-.74-.892-1.381-1.576-.907-1.716 1.193-3.46 2.392-5.35 3.264a15.403 15.403 0 0 0 2.386-8.962c-.028-.6-.656-1.291-1.325-1.012-.865.363-1.723.726-2.588 1.082.558-1.381.858-2.86.886-4.367.014-.739-.92-1.374-1.576-.906a19.628 19.628 0 0 1-2.923 1.729c2.267-1.987 3.948-4.477 3.871-7.755-.014-.67-.655-1.2-1.325-1.012-4.282 1.22-8.865.398-12.491-2.176-1.102-.78-2.149 1.032-1.054 1.807 3.648 2.594 8.293 3.55 12.666 2.72-.697 4.01-4.854 6.409-8.174 8.265-.858.481-.53 2.057.53 1.953a20.738 20.738 0 0 0 8.126-2.567 10.12 10.12 0 0 1-1.856 3.913c-.53.697.363 1.876 1.18 1.534 1.31-.551 2.621-1.102 3.94-1.653a13.295 13.295 0 0 1-4.073 8.76c-.802.774.048 1.932 1.018 1.751 2.832-.537 5.322-1.974 7.693-3.557.25 5.238 1.025 10.741 5.07 14.458.984.935 2.47-.544 1.479-1.457Z" fill="#9E5AED"/><path d="M73.103 89.998c-3.787 2.524-9.653 2.455-13.356-.203-3.934-2.817-5.21-8.906-4.618-13.523.112-.886-1.31-1.13-1.506-.266-1.374 6.222.78 12.555 5.105 15.644 4.087 2.916 11.606 3.174 15.777.391.74-.488-.656-2.539-1.402-2.043Z" fill="#DF7FFF"/><path d="m130.188 148.166-1.005-4.394c-.272-1.179-.362-3.258-2.001-3.258-.747 0-1.528.419-2.225.663-.746.258-1.5.516-2.253.746-1.52.468-3.083.865-4.666 1.04a1.22 1.22 0 0 0-.809.404.915.915 0 0 0-.272.105c-.523.307-.621.92-.377 1.429.628 1.305 1.27 2.602 1.932 3.885.635 1.235 1.221 2.56 1.988 3.711.865 1.311 2.218.941 3.543.718.565-.09 1.109-.293 1.479-.753.202-.251.321-.565.335-.893 0-.09 0-.265-.028-.425.083-.021.167-.042.251-.049.279-.035.558-.028.837-.021.69.021 1.374.181 2.064.181.663 0 1.256-.404 1.451-1.046.181-.655-.098-1.402-.244-2.043Z" fill="#252B36"/><path d="M129.961 149.707c-.53-3.013-1.06-6.019-1.597-9.032-.098-.558-.781-.872-1.29-.732-.586.16-.83.725-.733 1.29.53 3.013 1.06 6.019 1.597 9.032.098.558.782.872 1.291.732.593-.167.837-.732.732-1.29Z" fill="#343A46"/><path d="M107.194 145.697c-.042-.663-.035-1.451-.495-1.981-.544-.621-1.388-.6-2.155-.649-1.465-.09-2.936-.09-4.394-.286a11.725 11.725 0 0 1-2.023-.446c-.74-.237-1.388-.753-2.183-.628-.007 0-.014.007-.02.007-.677-.084-1.438.433-1.18 1.27.126.397.252.802.37 1.199.035.126.077.244.112.37.02 0 .035-.007.049-.007-.007 0-.014.007-.028.007-.007 0-.014 0-.028.007-.258.042-.51.104-.74.244-.537.321-.864.879-.962 1.485-.112.67.07 1.34.44 1.905.334.509.802 1.122 1.353 1.401.39.196.906.224 1.36.119a.132.132 0 0 1 .013.056c.098.307.245.621.426.893.656.976 1.688 1.708 2.713 2.252.6.321 1.228.461 1.897.279.698-.195 1.374-.634 2.023-.955 1.199-.6 2.671-1.074 3.166-2.441.461-1.235.363-2.818.286-4.101Z" fill="#252B36"/><path d="M94.703 144.643c.174-.028.37-.055.523-.076-.21.028-.376.055-.523.076ZM94.7 144.644c-.48.076-.823.125 0 0Z" fill="#252B36"/><path d="M105.56 143.186c-.426-.307-1.27.014-1.123.641.153.663.286 1.333.425 1.995.063.377.126.753.168 1.137.062.53.104 1.06.125 1.59.014.363.056.802-.132 1.137-.161.286-.496.446-.781.579-.433.195-.879.363-1.326.544l-2.964 1.214c-.83.341-.314 1.632.523 1.297 1.116-.453 2.232-.914 3.348-1.367.921-.377 1.981-.726 2.469-1.674a2.61 2.61 0 0 0 .244-.781.7.7 0 0 0 .321-.628c-.056-1.751-.119-3.501-.174-5.252-.035-.648-.726-.739-1.123-.432Z" fill="#343A46"/><path d="M145.037 167.053c-.558-1.067-1.716-1.632-2.818-1.988-4.952-1.576-10.099-2.629-15.253-3.327-10.135-1.367-20.506-1.039-30.535.914a57.937 57.937 0 0 0-8.349.969 55.036 55.036 0 0 0-7.247 1.898c-1.108.369-2.273.69-3.075 1.576-.83.914-1.033 2.232-.656 3.39.816 2.496 3.39 3.222 5.803 3.285 2.664.069 5.356-.238 7.972-.719 5-.913 9.806-2.559 14.73-3.759 2.455-.6 4.931-1.011 7.463-.816 2.546.195 5.029.886 7.526 1.36 5.28.997 10.769 1.799 16.16 1.744a30.283 30.283 0 0 0 3.724-.272c1.186-.161 2.616-.342 3.648-.984a2.474 2.474 0 0 0 .907-3.271Z" fill="#171A1F"/><path d="M167.044 78.538c-.432-1.855-2.525-2.873-4.31-2.371-1.172.334-2.016 1.241-2.469 2.33-.447-.53-.914-1.04-1.535-1.396-1.234-.711-2.713-.565-3.752.426-1.618 1.548-1.451 4.094-.628 6.165-.725-.02-1.444.077-2.12.398-1.165.544-1.988 1.667-1.988 2.971 0 1.346 2.093 1.346 2.093 0 0-1.73 2.629-1.248 3.633-1.032.809.174 1.751-.74 1.179-1.535-.572-.809-.976-1.666-1.179-2.643-.167-.837-.251-1.98.335-2.685 1.27-1.528 2.999 1.604 3.864 2.288.642.509 1.848.258 1.786-.74-.056-.934.244-2.064 1.185-2.476.733-.32 1.688.077 1.869.865.321 1.297 2.344.746 2.037-.565ZM181.542 93.708a5.052 5.052 0 0 0 1.151-2.706c.16-1.625-1.067-3.76-2.971-2.978-.524.216-.886.69-.733 1.29.133.495.767.948 1.29.732.607-.25.259 1.283.14 1.583-.293.712-.844 1.221-1.52 1.563-.942.481-.475 1.953.53 1.953 1.408-.007 2.245 1.604 1.374 2.727-1.109 1.416-3.216 1.171-4.764.892-.823-.146-1.437.468-1.29 1.291a5.18 5.18 0 0 1-.238 2.664c-.09.244-.976 1.904-1.164 1.688-.879-1.025-2.351.46-1.479 1.479 1.332 1.562 3.194.104 3.997-1.186.704-1.137 1.025-2.42 1.032-3.725 2.364.203 4.938-.223 6.04-2.594.788-1.75.049-3.683-1.395-4.673ZM176.802 82.674c-.154-.342-.432-.593-.725-.81a2.097 2.097 0 0 0-.795-.355 2.619 2.619 0 0 0-1.116-.007c-.37.077-.69.272-.976.516-.196.16-.307.495-.307.74 0 .257.111.564.307.738.202.182.46.321.739.307.09-.014.188-.028.279-.035a.955.955 0 0 0 .293-.14c.034-.027.076-.041.118-.069.014-.007.035-.007.049-.014h.07c.042.007.083.021.118.035l.049.028c.007.007.021.014.028.028.021.035.042.063.063.098.104.223.397.418.627.48.251.07.586.035.809-.104.223-.146.419-.356.481-.628.014-.09.028-.188.035-.278a1.133 1.133 0 0 0-.146-.53ZM165.231 44.934c-.188-.878-1.534-.509-1.346.37a64.479 64.479 0 0 1 .83 22.605c-.125.879 1.221 1.255 1.346.37a66.66 66.66 0 0 0-.83-23.344ZM180.249 63.173c-.3-.174-.795-.098-.956.251-.865 1.89-1.729 3.787-2.587 5.677-.154.342-.098.754.251.956.3.174.795.09.955-.251.865-1.89 1.73-3.787 2.588-5.677.16-.342.098-.754-.251-.956ZM200.723 66.256a43.41 43.41 0 0 0-15.707 11.487c-.586.677.397 1.667.983.983a42.528 42.528 0 0 1 15.428-11.27c.823-.35.112-1.549-.704-1.2ZM196.771 107.678c-3.041-.977-6.242-1.228-9.402-.795-.377.049-.579.53-.488.858.111.404.481.537.858.488 2.908-.398 5.872-.105 8.662.795.851.279 1.221-1.067.37-1.346ZM66.386 48.345c-.9 0-.9 1.395 0 1.395s.9-1.395 0-1.395ZM20.717 43.749a.656.656 0 0 0-.18-.307 1.975 1.975 0 0 1-.14-.112.692.692 0 0 0-.349-.097h-.39a.462.462 0 0 0-.273.063.52.52 0 0 0-.223.146.52.52 0 0 0-.146.223.599.599 0 0 0-.063.272l.028.188c.035.119.09.224.181.307.05.035.091.07.14.112a.693.693 0 0 0 .349.097h.39a.462.462 0 0 0 .272-.062.52.52 0 0 0 .223-.147.52.52 0 0 0 .146-.223.599.599 0 0 0 .063-.272c-.014-.063-.02-.125-.028-.188ZM2.606 75.874a.52.52 0 0 0-.147-.223l-.14-.112a.693.693 0 0 0-.348-.098c-.063.007-.125.014-.188.028a.657.657 0 0 0-.307.182l-.39.39a.52.52 0 0 0-.147.223.6.6 0 0 0-.063.272.462.462 0 0 0 .063.272.52.52 0 0 0 .147.223c.048.035.09.07.139.112a.692.692 0 0 0 .349.097c.062-.006.125-.013.188-.027a.656.656 0 0 0 .307-.182l.39-.39a.519.519 0 0 0 .147-.223.6.6 0 0 0 .062-.272.6.6 0 0 0-.062-.272ZM21.612 90.765c-.9 0-.9 1.394 0 1.394s.9-1.394 0-1.394ZM13.753 129.25c-.9 0-.9 1.395 0 1.395s.9-1.395 0-1.395ZM190.495 129.648c-.9 0-.9 1.395 0 1.395.893 0 .893-1.395 0-1.395ZM226.628 89.586c-.9 0-.9 1.395 0 1.395.899 0 .899-1.395 0-1.395ZM227.323 56.77c-.899 0-.899 1.395 0 1.395.9 0 .9-1.395 0-1.395ZM191.276 28.711c-.899 0-.899 1.395 0 1.395.9 0 .9-1.395 0-1.395ZM126.479 28.314c-.899 0-.899 1.394 0 1.394.893 0 .9-1.394 0-1.394Z" fill="#343A46"/><path d="M75.123 73.21c.035-.105.07-.217.112-.322.167-.44.39-.837.635-1.234.042-.07.076-.14.118-.21a4.157 4.157 0 0 1 .16-2.552c.23-.607.594-1.151.97-1.688-.181-.404-.593-.725-1.06-.67l-1.625.196a6.324 6.324 0 0 1-2.427-2.211c-.928-1.451-1.11-3.237-1.2-4.91-.07-1.36.181-3.383-1.423-3.955-1.862-.663-2.748 1.353-3.243 2.727a60.72 60.72 0 0 0-2.288 8.07c-.188.886-.46 1.876-.195 2.776.154.502.454.927.83 1.297.21.586.565 1.13 1.151 1.583 1.458 1.137 3.243 1.904 5.043 2.302.92.202 1.925.335 2.838.035.67-.237 1.193-.684 1.604-1.235Z" fill="#5EDC10"/><path d="m74.484 75.441.147-.558c-.028-.306-.216-.592-.614-.634-1.702-.21-6.465-2.134-7.881-3.118-.781-.544-1.556-1.158-1.716-2.148-.14-.865.077-1.8.23-2.65a28.643 28.643 0 0 1 3.564-9.528c.3-.502.984-1.897 1.507-.886.376.726.39 1.723.46 2.518.16 1.709-.16 3.564.404 5.21.865 2.532 3.78 4.066 6.354 3.439.935-.23.74-1.723-.202-1.493a4.073 4.073 0 0 1-4.052-1.27c-1.284-1.478-.865-3.542-.963-5.342-.07-1.283-.118-2.887-.823-4.017-.585-.928-1.68-1.27-2.622-.635-1.074.726-1.723 2.309-2.295 3.425a29.334 29.334 0 0 0-1.792 4.303 31.71 31.71 0 0 0-1.095 4.401c-.23 1.367-.433 2.846.3 4.101 1.367 2.337 7.881 4.89 10.406 5.196.32.014.544-.118.683-.314Z" fill="#151921"/><path d="M140.329 74.45a39.322 39.322 0 0 0-1.64-4.19c.342-.378.531-.922.3-1.382-1.025-2.1-2.245-4.066-3.745-5.858a28.801 28.801 0 0 0-2.413-2.56c-.14-.133-.293-.258-.44-.384.112-.104.203-.237.279-.37-.627-.285-.83-1.206-.397-1.736-.056-.042-.105-.084-.168-.119a24.802 24.802 0 0 0-12.784-2.873c.146-.265.167-.58.119-.879a5.137 5.137 0 0 1-1.354-.37c-.146-.035-.293-.07-.439-.111a17.295 17.295 0 0 0-1.325-.3l-.154-.021c-2.594.642-5.042 1.716-7.253 3.25-1.828-.907-3.767-1.59-5.768-1.96-2.358-.44-4.792-.342-7.107-1.018-.656-.195-1.388.3-1.59.914-.063.188-.084.37-.07.537a29.72 29.72 0 0 0-11.32 3.836c-.495.293-.663.858-.572 1.388a22.009 22.009 0 0 0-2.246 2.169c-.62.523-1.22 1.074-1.778 1.667a20.405 20.405 0 0 0-2.658 3.55c-.383.648-.69 1.304-.425 2.064.056.168.14.314.237.447-.286.46-.537.934-.774 1.401 0 .021.007.042.014.063.035.342.055.69.083 1.04.217.244.307.592.133 1.004-.014.035-.028.07-.042.111.112 1.96.133 3.927.265 5.894.168 2.553.628 5.043 1.276 7.512.635 2.427 1.354 4.833 1.94 7.274.55 2.295 1.101 4.59 2.001 6.78.035.076.056.16.063.244.14.272.286.537.418.802-.111-.405-.23-.802-.362-1.2a1.232 1.232 0 0 1 1.004.188c-.028-.041-.056-.09-.084-.132 6.661 4.352 15.017 5.231 22.64 7.142.035.007.07.007.105.014a29.71 29.71 0 0 1 4.68 3.459c.746.677 1.869-.097 1.736-.941.112-.091.209-.196.3-.328l.23-.349c.021.021.035.049.056.07.474.46 1.179.502 1.688.07.195-.168.363-.412.509-.628.084-.126.161-.258.237-.384.098.035.203.07.3.063.293-.021.544-.063.767-.272.189-.167.335-.453.342-.711 0-.077-.007-.147-.014-.224.056-.153.119-.306.161-.467.125-.488.146-1.025-.126-1.478-.035-.056-.077-.112-.112-.161.754-.467 1.465-1.004 2.232-1.472 2.253-1.36 4.931-1.862 7.442-2.552 2.581-.712 5.071-1.653 7.163-3.369 1.381-1.13 2.602-2.455 3.934-3.64a5.59 5.59 0 0 1-.565 2.636c-.209.432-.209 1.004.091 1.402.467.627.139 1.45-.084 2.127-.167.502-.314.99-.419 1.485-.041.035-.083.07-.111.119-.021.021-.021.028-.028.035l-.007.007-.105.125a3.347 3.347 0 0 1-.216.245 8.199 8.199 0 0 1-.481.488c-.077.076-.161.146-.244.216l-.126.105s-.056.041-.076.062c-.021.021-.084.063-.091.07-.07.056-.133.098-.188.161a.856.856 0 0 0-.196.418.607.607 0 0 0-.383.3c-.189.356-.07.725.251.955.104.077.216.154.321.231.139.097.32.111.488.076.097.028.195.042.293.056.202.3.383.607.53.935.125.265.516.411.788.321.279-.091.502-.342.509-.642a.658.658 0 0 0 .321-.279c.202-.363.404-.718.6-1.081a.763.763 0 0 0 .069-.509l.112-.042c2.274-1.207 3.062-4.094 3.766-6.375a38.009 38.009 0 0 0 1.528-7.937c.439-5.51-.154-11.013-1.841-16.223Z" fill="#DF7FFF"/><path d="M114.242 109.108c-2.615-4.073-8.083-4.533-12.394-5.524-2.518-.579-5.042-1.151-7.56-1.73-2.302-.523-4.666-.997-6.787-2.071-.676-.342-1.597.098-1.646.795-2.496-.893-5.105-1.834-6.312-4.268-.6-1.207-2.455-.245-1.855.962 1.94 3.899 6.445 4.603 10.03 6.27.634.293 1.283-.286 1.36-.913 1.171.39 2.371.697 3.585.976 2.392.551 4.791 1.095 7.184 1.646 2.364.537 4.742 1.032 7.086 1.632 2.043.523 4.254 1.311 5.447 3.174.725 1.143 2.588.188 1.862-.949Z" fill="#DF7FFF"/><path d="M135.332 94.259c-.781 1.318-2.253 2.071-3.536 2.81a44.31 44.31 0 0 1-4.527 2.281c-1.834.795-3.752 1.402-5.565 2.218-.133-.641-.803-1.171-1.479-.753-3.355 2.106-5.942 5.085-7.588 8.683-.558 1.228 1.436 1.87 1.987.656a17.395 17.395 0 0 1 3.808-5.322c.349.384.977.524 1.5.126 2.671-2.037 6.18-2.762 9.2-4.15a45.124 45.124 0 0 0 4.617-2.469c1.283-.788 1.946-2.05 2.734-3.369.683-1.15-.461-1.876-1.151-.711Z" fill="#DF7FFF"/><path d="M89.33 39.229c-.063.084-.118.167-.174.244a1.035 1.035 0 0 0-.851-.118 9.617 9.617 0 0 0-1.96.767c-.9.3-1.765.725-2.588 1.213-1.346.802-3.222 1.779-3.857 3.3-.32.767-.32 1.61-.313 2.434a92.116 92.116 0 0 0 .202 5.823.72.72 0 0 0-.39.614c-.126 2.72.132 5.412.71 8.07.098.446.726.565 1.054.334a39.448 39.448 0 0 1 7.08-4.03c.257-.112.515-.405.46-.712-.154-.83-.308-1.681-.447-2.546l-.042-2.594c-.049-3.683.028-7.456 1.563-10.874.041-.09.07-.188.083-.279.175-.258.349-.51.544-.753.544-.69-.516-1.597-1.074-.893Z" fill="#252B36"/><path d="M128.921 39.46c-2.008-1.842-5.21-1.48-7.7-1.354-3.285.168-6.577.405-9.848.788-2.581.3-5.189.782-7.54 1.925-1.687.238-3.271.656-4.582 1.877-1.52 1.416-2.155 3.522-2.783 5.447a44.473 44.473 0 0 0-1.646 6.863.662.662 0 0 0 .3.683c-.167 1.151 1.486 1.528 1.967.572a204.517 204.517 0 0 1 23.986-.711c1.353.042 2.936.32 4.171-.37 1.171-.655 1.646-2.078 2.134-3.243a37.012 37.012 0 0 0 1.471-4.296c.405-1.479.705-2.978.9-4.499.188-1.381.272-2.678-.83-3.683Z" fill="#343A46"/><path d="M110.887 35.95c-6.243.705-12.45 1.821-18.588 3.167-.32-.195-.795-.18-1.046.23-1.192 1.981-1.339 4.283-1.527 6.529-.224 2.692-.893 5.329-1.074 8.02a17.034 17.034 0 0 0-.042 1.793c.02.537-.014 1.27.216 1.772.495 1.067 1.8.23 2.539-.063.614-.244 1.227-.481 1.834-.725.488-.196 1.15-.35 1.5-.782.32-.397.32-.962.383-1.443.084-.69.175-1.381.28-2.072.376-2.552.857-5.189 1.966-7.54.516-1.094 1.214-2.127 2.225-2.824 1.046-.726 2.323-1.074 3.536-1.395 2.685-.704 5.461-1.011 8.146-1.709.865-.223 1.688-.816 1.619-1.806-.084-1.102-1.061-1.256-1.967-1.151Z" fill="#89A1AE"/><path d="M128.72 38.176c-1.849-.698-4.164-.614-6.117-.614-4.38-.007-8.809.398-13.126 1.11-2.114.348-4.227.752-6.291 1.338-1.772.503-3.502 1.256-4.743 2.665-1.367 1.548-2.106 3.585-2.79 5.503-.81 2.26-1.555 5.886-2.044 8.306.063 0 .119 0 .182.014.174.021.348.035.53.056.237.007.474 0 .704-.007.726-3.536 1.772-8.383 3.46-11.466.858-1.57 2.085-2.65 3.759-3.285 1.709-.656 3.55-1.018 5.336-1.374 3.85-.76 7.762-1.151 11.675-1.36 1.988-.105 3.983-.147 5.977-.014.886.056 1.842.09 2.7.342 1.102.32 1.422 1.088 1.325 2.183-.182 1.98-.726 4.003-1.27 5.914-.6 2.12-1.639 5.07-2.525 7.086-.362.823.872 1.472 1.235.649 1.695-3.85 3.327-8.872 3.885-13.056.216-1.71-.119-3.327-1.862-3.99Z" fill="#151921"/><path d="M112.927 35.358c-.419-.258-.879-.279-1.353-.265-.858.028-1.723.105-2.581.174-3.264.258-6.514.635-9.75 1.151-1.59.251-3.18.53-4.764.844-1.304.258-2.713.46-3.725 1.402-.837.774-1.255 1.87-1.527 2.95-.37 1.486-.6 3.02-.802 4.54-.46 3.432-.74 8.789-.6 12.318.056-.035.105-.077.16-.112a8.12 8.12 0 0 1 .76-.425.922.922 0 0 1 .454-.063c-.097-3.376.175-8.376.607-11.57.21-1.542.432-3.118.844-4.625.188-.676.446-1.388.955-1.904.544-.558 1.298-.76 2.037-.928 3.431-.774 6.947-1.276 10.434-1.694 1.709-.203 3.425-.37 5.14-.503.461-.034.914-.07 1.374-.097.384-.028.907-.154 1.277-.077.711.147.69.907.704 1.528.021.9 1.416.83 1.395-.063-.007-.942-.167-2.05-1.039-2.58Z" fill="#151921"/><path d="M91.36 38.183c-2.525.007-5.147.976-7.407 2.057-2.127 1.025-3.613 2.58-4.373 4.834-.802 2.392-.906 5.084-.997 7.588-.098 2.93.167 7.449.572 10.35.118.88 1.513.823 1.395-.063-.356-2.566-.628-6.744-.593-9.338.035-2.379.146-4.848.69-7.177.523-2.246 1.73-3.871 3.815-4.897 2.093-1.039 4.618-1.953 6.968-1.96.893-.006.823-1.394-.07-1.394Z" fill="#151921"/><path d="M93.44 36.676c-.21-.3-.537-.46-.88-.418-3.012.335-4.023.97-4.4 1.332a.838.838 0 0 0-.125 1.067c.181.286.551.446.865.53.516.14 1.06.056 1.569-.063a7.686 7.686 0 0 0 1.464-.488c.265-.119.53-.251.781-.39.286-.16.586-.328.753-.621a.88.88 0 0 0-.028-.949Z" fill="#151921"/><path d="M149.484 64.26c-.3-.871-.614-1.729-.956-2.587a63.704 63.704 0 0 0-2.308-5.14c-.656-1.304-1.779-3.202-3.55-2.309-1.521.768-1.026 2.748-.928 4.101.118 1.674.153 3.467-.586 5.022a6.334 6.334 0 0 1-2.134 2.497c-.544 0-1.095.007-1.639.007-.481 0-.851.37-.977.809-.307 1.046.461 2.03.942 2.909.432.78.83 1.618 1.374 2.336.544.718 1.248 1.297 2.155 1.479.942.18 1.925-.07 2.811-.384 1.737-.614 3.417-1.597 4.722-2.901a3.379 3.379 0 0 0 .941-1.71c.328-.418.579-.871.67-1.387.153-.942-.244-1.89-.537-2.741Z" fill="#5EDC10"/><path d="M150.219 64.163a30.365 30.365 0 0 0-1.625-4.233 29.469 29.469 0 0 0-2.308-4.053c-.705-1.039-1.542-2.531-2.7-3.117-1.018-.516-2.064-.042-2.524.948-.565 1.207-.412 2.804-.328 4.087.118 1.8.795 3.802-.3 5.427a4.052 4.052 0 0 1-3.864 1.757c-.962-.111-.969 1.388-.014 1.507 2.636.314 5.336-1.57 5.887-4.192.355-1.702-.189-3.508-.244-5.217-.028-.795-.14-1.792.146-2.553.398-1.067 1.248.23 1.611.698a28.728 28.728 0 0 1 4.715 9.018c.258.823.579 1.73.551 2.602-.035 1.004-.725 1.708-1.437 2.343-1.283 1.144-5.775 3.648-7.435 4.06-.934.236-.558 1.687.384 1.45 2.469-.62 8.62-3.955 9.688-6.438.579-1.325.195-2.761-.203-4.094Z" fill="#151921"/><path d="M135.942 97.795a.759.759 0 0 0-.265-.44c-2.392 2.714-6.131 3.857-9.479 5.057-2.51.893-4.966 2.134-7.344 3.348-2.064 1.053-3.348 3.125-5.098 4.582-.747.628-1.674.056-1.842-.655-.251.23-.488.474-.732.711-3.885-3.334-8.955-4.631-13.9-5.629-2.832-.571-5.67-1.074-8.51-1.618-2.601-.502-5.203-1.157-7.4-2.699-.578-.404-1.157.23-1.025.774-.46.189-.795.642-.558 1.249.265.676.565 1.339.893 1.988-.007 0-.02 0-.028.007-.537.118-.83.85-.649 1.332.356.927.803 1.806 1.333 2.629-.028.021-.05.049-.077.07a23.8 23.8 0 0 1 2.783 1.227 1.068 1.068 0 0 0-.098.286c-.425 2.163-.09 4.283.286 6.424.384 2.162.851 4.303 1.709 6.326.74 1.73 1.757 3.376 3.16 4.652 1.29 1.179 2.79 2.148 4.289 3.055-.05.188-.09.384-.14.572-.704 2.922-1.416 5.845-2.12 8.774-.126.523.265 1.158.809 1.234 1.716.252 3.348.789 4.966 1.361 9.22 1.45 18.818 2.19 27.703-1.242.042-.014.084-.021.133-.035a33.227 33.227 0 0 0 4.289-2.608c.356-.258.586-.775.405-1.207-.293-.718-.83-1.109-1.381-1.499-.928-2.428-1.856-4.855-2.79-7.282-.579.453-1.151.921-1.709 1.395-.683.579-1.36 1.207-2.134 1.66-2.881 1.695-5.127-1.82-5.266-4.352-.084-1.563.823-2.964 1.988-3.92 1.374-1.13 2.664-2.35 4.087-3.418a7.846 7.846 0 0 1 .125-1.506c.119-.621.342-1.304.691-1.89-.551-2.497 1.067-5.238 2.497-7.149 1.709-2.288 4.101-4.485 6.828-5.461.551-.196 1.151-.119 1.465.432.104-.077.216-.139.327-.216-.007 0-.014-.007-.02-.007-.105-.049-.286-.174-.454-.258.335-.279.684-.537.97-.872.055-.063.097-.133.153-.195a1.037 1.037 0 0 1-.146-.356c-.056-.244-.014-.628.153-.83.363-.439.746-.879 1.011-1.381.077-.188.14-.377.189-.579l.042-.286c0-.014.007-.035.007-.049a6.564 6.564 0 0 0-.126-1.506Z" fill="#FFBF24"/><path d="M108.092 123.113a101 101 0 0 0-2.601 13.342c-.112.886 1.283.879 1.395 0a98.952 98.952 0 0 1 2.552-12.973c.237-.871-1.109-1.241-1.346-.369Z" fill="#FF9501"/><path d="M134.567 82.235c-.175 3.09-1.34 6.165-3.251 8.544-2.12 2.636-5.077 4.254-8.195 5.3-6.772 2.274-14.361 2.804-21.37 1.493-6.326-1.179-12.575-4.338-15.63-10.49-1.555-3.131-1.94-6.723-.893-10.085a13.98 13.98 0 0 1 2.288-4.38c1.08-1.402 2.448-2.692 3.961-3.592 1.381-.802 7.986-4.227 15.944-1.918-.049.44.286.927.816.774 5.678-1.674 11.934-2.302 17.528.09.014.008.027.022.041.029 5.427 2.364 9.109 8.111 8.761 14.235Z" fill="#fff"/><path d="M131.806 82.346c-.139 3.09-1.165 6.159-2.853 8.53-1.876 2.623-4.498 4.234-7.26 5.259-6.012 2.246-12.757 2.734-18.999 1.395-5.636-1.214-11.208-4.394-13.95-10.56-1.394-3.138-1.757-6.73-.843-10.085a14.278 14.278 0 0 1 2.016-4.366c.955-1.395 2.169-2.678 3.508-3.578 1.227-.795 7.086-4.185 14.172-1.841-.042.432.258.934.732.774 5.043-1.646 10.602-2.246 15.589.167.014.007.021.021.042.028 4.833 2.392 8.132 8.153 7.846 14.277Z" fill="#FCFA9C"/><path d="M134.734 77.973c-1.248-5.077-5.238-8.927-10.064-10.685-2.671-.97-5.454-1.213-8.279-1.192-1.444.006-2.887.041-4.303.327-1.521.307-2.964.88-4.387 1.479-.816.349-.405 1.68.425 1.325 1.277-.537 2.567-1.06 3.92-1.38 1.283-.3 2.601-.343 3.913-.364 2.671-.035 5.3.119 7.853.963 4.624 1.527 8.425 5.147 9.597 9.946.216.879 1.542.453 1.325-.419Z" fill="#fff"/><path d="M108.831 67.31c-2.086-.845-4.304-1.026-6.543-1.012-2.35.014-4.715.272-6.974.941-3.843 1.144-7.358 3.62-9.137 7.289-.39.809.844 1.465 1.234.655 1.626-3.361 4.813-5.572 8.328-6.611 1.988-.593 4.06-.83 6.124-.872 2.12-.042 4.317.042 6.305.844.83.328 1.493-.9.663-1.235Z" fill="#fff"/><path d="M86.63 60.85c-.112-.523-.551-.836-1.082-.836-2.504 0-4.707 1.813-6.298 3.585-1.555 1.73-2.664 3.794-3.327 6.019-.16.544.293 1.13.81 1.234.139.028.271.028.397.007.272.042.558-.014.767-.153.356-.244.481-.621.433-.998.02-.055.049-.209.049-.223.034-.132.076-.258.118-.383.056-.168.126-.335.195-.503.189-.46.405-.9.649-1.332a11.504 11.504 0 0 1 1.75-2.308 11.076 11.076 0 0 1 4.862-2.909c.495-.153.781-.718.676-1.2Z" fill="#DF7FFF"/><path d="M95.174 55.327c-4.164.111-8.23 1.339-11.788 3.5-1.15.698.021 2.435 1.172 1.738a21.766 21.766 0 0 1 10.748-3.146c1.346-.042 1.214-2.127-.132-2.092Z" fill="#DF7FFF"/><path d="M108.625 55.989c-1.904-1.06-4.059-1.437-6.207-1.597a48.111 48.111 0 0 0-7.435.007c-.83.063-1.095.886-.858 1.478-.007.007-.014.014-.028.014-.432.321-.447 1.116-.07 1.479.523.495 1.095.537 1.765.481.53-.042 1.053-.125 1.576-.195.126-.014.251-.035.384-.042.048-.007.104-.007.153-.014.014 0 .035 0 .084-.007.216-.007.432-.014.655 0 .126.007.244.021.37.035.028.007.126.028.167.035.098.028.196.049.286.084.042.014.384.16.182.062.488.245 1.137.217 1.443-.306.056-.098.098-.21.119-.321.167-.182.286-.412.286-.649 0-.042-.007-.077-.007-.111.167.006.335.013.502.027 1.974.14 3.955.447 5.698 1.416 1.179.649 2.114-1.22.935-1.876Z" fill="#DF7FFF"/><path d="M118.811 53.694c-4.171.035-6.424.112-9.764 2.623-1.074.809-.565 1.492.669.928 3.536-1.626 5.392-1.43 9.228-1.465 1.346-.007 1.206-2.1-.133-2.086Z" fill="#E7BCFA"/><path d="M130.662 56.861c-3.948-1.423-8.119-1.27-12.247-1.025-1.347.077-1.214 2.169.132 2.085 3.711-.216 7.609-.474 11.173.81.53.188 1.13.083 1.402-.468.237-.453.07-1.207-.46-1.402Z" fill="#E7BCFA"/><path d="M138.902 68.048c-2.1-4.547-5.713-8.279-10.239-10.448-1.214-.586-2.155 1.29-.942 1.87 4.011 1.918 7.331 5.216 9.2 9.262.237.509.76.844 1.332.648.495-.167.886-.816.649-1.332Z" fill="#E7BCFA"/><path d="M136.894 68.404c-.788-1.088-2.525.07-1.737 1.172 3.522 4.896 5.113 10.845 5.133 16.837.007 3.18-.418 6.347-1.15 9.436-.698 2.944-2.713 8.447-4.318 11.027-.711 1.144 1.165 2.079 1.87.942 1.687-2.72 3.759-8.433 4.491-11.536.774-3.271 1.207-6.633 1.193-10.002-.021-6.34-1.758-12.7-5.482-17.876Z" fill="#E7BCFA"/><path d="M134.015 97.516c-.202 1.639-1.123 2.964-2.587 3.731-.677.356-.175 1.256.432 1.277.188.007.37-.007.551-.021-1.06.572-2.392.774-3.501.914-1.939.244-3.871.516-5.782.92-1.716.37-3.418.858-5.05 1.514-.676.704-1.367 1.395-2.015 2.12a.884.884 0 0 1-.649.279 30.38 30.38 0 0 0-.586.858 19.75 19.75 0 0 1 2.846-1.562c-.293.306-.572.627-.837.969a.577.577 0 0 0-.014.732c.976-.795 2.092-1.422 3.25-1.925 1.548-1.046 3.376-1.576 5.343-1.799.718-.084 1.436-.14 2.162-.209.056.362.341.669.788.537a29.227 29.227 0 0 0 4.017-1.563 8.238 8.238 0 0 0 1.186-.606.702.702 0 0 0 .335-.551 4.745 4.745 0 0 0 1.513-2.177c.161-.474-.397-.927-.844-.823.419-.71.705-1.5.809-2.343.105-.872-1.262-1.165-1.367-.272Z" fill="#FFBF24"/><path d="M93.044 130.597c-.711 2.873-1.43 5.74-2.14 8.613-.329 1.319 1.687 1.716 2.05.426.711-2.56 1.422-5.113 2.14-7.672a25.133 25.133 0 0 1-2.05-1.367Z" fill="#FF9501"/><path d="M110.505 108.982a19.448 19.448 0 0 0-6.8-1.66c-2.546-.139-5.063.314-7.581.586-2.665.286-5.357.426-8.035.272-.746-.042-1.988-.07-3.174-.272-1.032-.383-1.945-.948-2.629-1.764.202.09.405.188.607.272.83.334 1.402-.789.628-1.249-1.228-.732-1.953-1.988-2.037-3.404-.049-.899-1.444-.809-1.395.091.042.691.202 1.346.467 1.946-.418.035-.753.502-.62.935.132.425.306.802.495 1.164.223 1.981 2.197 2.902 4.045 3.279 2.246.809 4.896.934 7.142.899.774-.014 1.556-.035 2.337-.063.23-.411.69-.697 1.269-.537.9.252 1.876-.083 2.776-.188.251-.028.502-.042.753-.063-.035.363.16.726.62.712 1.849-.056 3.691-.126 5.539-.154 1.736-.035 3.466.028 5.14.537.893.258 1.262-.976.453-1.339Z" fill="#FFBF24"/><path d="M116.2 78.384a.787.787 0 0 0-.383-.286.825.825 0 0 0-.237-.704c-.168-.167-.363-.244-.579-.32-.767-.287-1.618-.308-2.413-.12h-.007c-.056 0-.111-.006-.16-.006-.405 0-.914-.035-1.2.307a.758.758 0 0 0-.188.39.639.639 0 0 0-.223.23c-.181.363-.056.732.272.949.725.48 1.59.662 2.44.753.775.083 1.779.258 2.455-.237.293-.21.446-.628.223-.956Z" fill="#fff"/><path d="M114.078 76.285c-1.304-.097-2.462.607-3.467 1.353-.327.244-.46.684-.23 1.04.209.32.712.467 1.039.23.398-.293.796-.58 1.235-.81a2.9 2.9 0 0 1 1.158-.32h.167a2.388 2.388 0 0 1 .37.07c.028.007.049.014.077.02.041.014.076.035.118.056.042.021.084.042.119.07a.328.328 0 0 0 .062.042c.021.02.091.077.091.077.035.028.063.062.098.097l.014.014c.028.035.049.07.076.105.014.028.035.056.049.084.007.013.021.048.035.076.014.042.021.09.042.133v.035c.042.39.363.753.781.718.384-.035.76-.363.718-.781-.146-1.332-1.269-2.211-2.552-2.309ZM97.732 70.636c-.3-.126-.648-.181-.969-.237a9.787 9.787 0 0 0-1.806-.168c-.39 0-.907-.055-1.22.21a.776.776 0 0 0-.224.9c.105.243.335.418.58.501.55.196 1.122.37 1.7.468.698.209 1.444.25 2.162.083.398-.09.607-.383.593-.788-.02-.467-.418-.809-.816-.97ZM126.71 69.806c-.307-.119-.648-.167-.969-.216a9.833 9.833 0 0 0-1.806-.126c-.391.007-.907-.035-1.221.23a.775.775 0 0 0-.202.9c.105.244.342.411.586.488.558.188 1.13.349 1.709.433.704.195 1.45.223 2.161.041.398-.104.6-.397.572-.802-.028-.46-.432-.795-.83-.948Z" fill="#151921"/><path d="M126.457 66.814c-.781-.335-1.437.857-.649 1.2 5.434 2.35 9.109 8.097 8.76 14.227-.174 3.09-1.339 6.166-3.25 8.544-2.12 2.637-5.077 4.255-8.195 5.301-6.772 2.274-14.361 2.804-21.37 1.493-6.326-1.18-12.575-4.339-15.63-10.49-1.556-3.132-1.94-6.724-.893-10.085a13.979 13.979 0 0 1 2.288-4.38c1.095-1.416 2.476-2.72 4.01-3.627.74-.44.056-1.612-.69-1.172-1.737 1.025-3.265 2.497-4.45 4.1-2.658 3.565-3.774 8.259-2.588 12.758 1.87 7.05 8.056 11.62 14.584 13.502 7.463 2.156 15.756 1.821 23.205-.216 3.396-.927 6.772-2.336 9.387-4.833 2.358-2.246 3.983-5.322 4.625-8.565 1.443-7.302-2.49-14.877-9.144-17.757Z" fill="#151921"/><path d="M126.457 66.8c-5.963-2.567-12.512-2.023-18.594-.237-.823.244-.46 1.562.37 1.318 5.691-1.674 11.961-2.309 17.569.105.781.348 1.443-.845.655-1.186Z" fill="#151921"/><path d="M90.885 69.29a.63.63 0 0 1-.558-.328c-.18-.321-.09-.74.21-.935.341-.23 8.578-5.517 18.72-1.737.334.126.509.51.39.865-.111.356-.481.544-.809.419-9.555-3.564-17.562 1.555-17.639 1.61a.545.545 0 0 1-.314.106ZM113.23 111.961h-.042a.69.69 0 0 1-.558-.279c-.021-.028-2.58-3.286-10.064-4.973-10.58-2.386-22.744-3.753-25.206-8.81a.7.7 0 0 1 1.255-.613c2.19 4.492 14.403 5.838 24.258 8.056 6.04 1.36 9.081 3.696 10.266 4.84 1.082-1.367 3.683-4.45 6.194-5.845 1.988-1.109 4.408-1.974 6.975-2.887 5.321-1.897 6.946-3 9.722-7.38a.692.692 0 0 1 .963-.216c.328.21.425.635.216.963-3.034 4.778-5.147 6.061-10.427 7.944-2.511.9-4.882 1.744-6.766 2.797-2.936 1.639-6.228 6.075-6.263 6.124a.727.727 0 0 1-.523.279Z" fill="#151921"/><path d="M135.967 96.17c-.195-.32-.662-.39-.969-.188a.709.709 0 0 0-.188.97c.397.64.383 1.429.174 2.182-.237.844-.732 1.604-1.186 2.344-.195.32-.007.781.307.934.363.182.739.014.935-.314.551-.892 1.102-1.813 1.346-2.845.258-1.046.153-2.17-.419-3.083ZM81.649 104.268a3.9 3.9 0 0 1-.44-.398l-.02-.021-.014-.014a9.475 9.475 0 0 0-.084-.104 4.445 4.445 0 0 1-.328-.496c-.014-.021-.035-.069-.042-.076a4.262 4.262 0 0 1-.251-.684c-.014-.042-.02-.084-.035-.125 0-.014-.007-.021-.007-.021v-.021l-.042-.293a4.225 4.225 0 0 1-.014-.593v-.007l.021-.16c.014-.098.035-.196.056-.293.021-.098.049-.189.077-.286.007-.014.007-.021.007-.028.02-.056.049-.112.07-.175.146-.348.041-.76-.307-.934-.321-.16-.788-.035-.935.307-.802 1.869-.272 4.205 1.353 5.468.3.23.726.23.984-.063.25-.265.25-.753-.05-.983ZM112.261 120.72c.077-.125.111-.279.153-.418l.084-.314a6.05 6.05 0 0 0 .091-.607 5.325 5.325 0 0 0-.133-1.722c-.042-.168-.209-.335-.356-.405a.806.806 0 0 0-.425-.049c-.321-.118-.272-.076-.502.231-.739.983-.983 1.945-.676 2.859.09.265.23.579.46.76a.813.813 0 0 0 .781.146c.223-.09.397-.265.523-.481ZM104.282 116.822c.14.041.3.041.447.048.111.007.216.007.327.007a4.7 4.7 0 0 0 .614-.055 5.552 5.552 0 0 0 1.646-.53c.153-.077.279-.279.314-.447a.76.76 0 0 0-.056-.425c.042-.335.007-.286-.335-.432-1.13-.496-2.12-.503-2.936.007-.237.146-.509.362-.627.62a.827.827 0 0 0 .041.795c.126.216.328.342.565.412ZM92.264 129.99c-.083.328-.18.649-.265.976a129.371 129.371 0 0 0-1.869 8.754c-.16.885 1.207 1.171 1.367.286a128.676 128.676 0 0 1 1.709-8.112c.084-.335.174-.663.258-.997a24.548 24.548 0 0 1-1.2-.907ZM123.279 118.914c.076-.216.16-.426.195-.516.223-.739.272-1.067.411-1.604-.118-.091-.237-.174-.334-.279a3.34 3.34 0 0 1-.279-.356c-.084-.125-.154-.265-.223-.397a.858.858 0 0 1-.098-.23.651.651 0 0 0-.265.362c-.391 1.311-.753 2.037-.879 3.403-.021.251-.014.502.056.747.432-.426.9-.816 1.416-1.13ZM130.558 138.36a227.513 227.513 0 0 1-3.571-8.126c-.3-.725-.586-1.451-.879-2.176-.328.391-.67.774-1.053 1.116.16.398.321.802.481 1.207a217.532 217.532 0 0 0 3.703 8.439c.377.802 1.702.356 1.319-.46Z" fill="#151921"/><path d="M129.452 138.039c-11.717 6.737-26.05 5.335-38.45 1.387-.859-.272-1.13 1.095-.287 1.368 12.792 4.073 27.466 5.335 39.511-1.591.782-.453 0-1.611-.774-1.164ZM95.108 56.254c-.677-.174-.956-.753-.92-1.304-4.283.328-10.072 1.422-13.03 4.456-.244.252-.292.712-.104.99-3.536 2.177-6.312 7.303-7.072 11.425-.16.886 1.227 1.033 1.388.154.809-4.443 4.205-9.702 8.376-11.39.607-.244.488-1.325-.21-1.325h-.076c2.776-2.023 7.993-2.734 11.404-2.964.104-.007.216-.007.328-.014-.028-.007-.056-.021-.084-.028ZM141.136 74.22c-.474-1.317-1.011-2.573-1.639-3.675.398-.07.719-.55.565-.948a27.074 27.074 0 0 0-7.435-10.706c.37.007.733.014 1.102.041.753.063 1.179-.948.426-1.318-4.541-2.238-9.639-3.152-14.654-2.79-.328.51-.677 1.005-1.032 1.493a27.255 27.255 0 0 1 11.989 1.276c-.439.189-.614.851-.181 1.18a25.52 25.52 0 0 1 7.588 9.268c-.014-.014-.035-.02-.049-.034-.627-.398-1.227.502-.871 1.032 1.241 1.827 2.176 3.906 2.943 6.047a15.84 15.84 0 0 1 1.248-.865Z" fill="#151921"/><path d="M121.14 53.639c-4.492-1.249-9.402-.307-13.057 2.608-.704.558.154 1.667.858 1.102 2.825-2.26 6.577-3.278 10.148-2.748-.321.189-.649.377-.983.544-.795.405-.258 1.695.551 1.284a20.895 20.895 0 0 0 2.643-1.605c.391-.272.349-1.046-.16-1.185Z" fill="#151921"/><path d="M109.485 56.917a.883.883 0 0 1 .056-.377c.083-.202.181-.404.3-.593a2.95 2.95 0 0 1 .23-.3c-2.399-1.325-5.092-1.883-7.798-2.19-1.59-.18-7.323-.704-9.318.44-.404.23-.44.767-.14 1.095.614.683 1.34 1.15 2.19 1.478.838.321 1.207-1.025.37-1.346a3.384 3.384 0 0 1-.767-.411c1.102-.3 6.256-.021 7.651.14 2.504.285 5.015.815 7.226 2.064ZM140.097 71.689a.704.704 0 0 0-.934-.314.699.699 0 0 0-.314.935c.035.062 3.222 6.605 3.208 16.16-.007 8.307-5.858 18.531-5.907 18.608a.683.683 0 0 0-.007.684c.195-.098.383-.203.586-.279.202-.077.404-.154.613-.21.112-.028.217-.041.328-.055 1.095-1.988 5.768-11.258 5.782-18.748.007-9.904-3.222-16.51-3.355-16.781ZM128.07 135.779a63.326 63.326 0 0 1-35.954 1.507c-.872-.224-1.15 1.143-.286 1.367 12.073 3.04 24.927 2.496 36.693-1.556.851-.293.405-1.611-.453-1.318ZM134.135 101.101c-.119 2.141-2.267 3.104-4.073 3.578-2.176.572-4.415.823-6.626 1.207-3.759.648-7.672 1.778-10.281 4.735-.586.663.342 1.702.942 1.033 3.027-3.432 7.7-4.101 11.975-4.785 3.404-.537 9.207-1.186 9.458-5.691.049-.893-1.346-.977-1.395-.077Z" fill="#151921"/><path d="M113.696 110.956c-5.043-3.376-11.571-1.618-17.22-1.625-3.16-.007-6.348-.119-9.493-.426-2.253-.216-7.226-.453-6.11-4.003.272-.858-1.067-1.269-1.332-.412a4.026 4.026 0 0 0 .502 3.481c.816 1.199 2.134 1.597 3.494 1.855 3.264.614 6.605.732 9.911.844 3.439.119 6.821-.098 10.246-.3 3.187-.181 6.521-.063 9.255 1.772.76.502 1.493-.684.747-1.186ZM129.817 78.796c-1.36-.976-2.839-1.848-4.519-2.1-1.779-.257-3.306.377-4.841 1.2-.788.426-.097 1.64.691 1.214 1.29-.698 2.587-1.297 4.094-1.018 1.444.265 2.685 1.053 3.857 1.904.732.53 1.444-.677.718-1.2Z" fill="#151921"/><path d="M130.171 75.365c-.188-.293-.635-.489-.948-.258-.9.634-1.765 1.31-2.601 2.029-.279.237-.272.739-.007.983.292.272.69.265.983.007.39-.335.781-.663 1.185-.976l.293-.23c.007-.007.014-.007.021-.014-.007.007-.007.007.021-.014a.122.122 0 0 0 .035-.028c-.007.007-.014.007-.021.014.049-.035.091-.07.139-.105.21-.16.426-.314.642-.467a.77.77 0 0 0 .328-.412c.042-.16.028-.383-.07-.53Z" fill="#151921"/><path d="M129.114 76.891c-.007.007-.014.013-.02.013.006-.006.02-.013.033-.026-.007.007-.007.013-.013.013ZM131.927 77.164c-.209-.335-.599-.432-.948-.258l-2.441 1.206c-.327.16-.453.649-.258.949.209.334.6.432.949.258.816-.405 1.624-.802 2.44-1.207.328-.16.454-.641.258-.948ZM101.832 76.571c-1.528-.683-3.153-1.234-4.848-1.137-1.792.105-3.16 1.04-4.498 2.163-.69.578.237 1.625.927 1.046 1.123-.942 2.274-1.793 3.801-1.828 1.465-.035 2.846.489 4.164 1.074.816.363 1.263-.955.454-1.318Z" fill="#151921"/><path d="M92.319 73.977c.202-.286.655-.454.962-.216a34.752 34.752 0 0 1 2.504 2.147c.265.251.237.754-.035.984-.3.258-.705.23-.984-.035-.37-.349-.753-.698-1.143-1.032l-.286-.244c-.007-.007-.014-.014-.021-.014.007.007.007.007-.02-.014-.015-.007-.022-.021-.036-.028.007.007.014.014.021.014l-.132-.112a21.672 21.672 0 0 0-.621-.495c-.146-.112-.258-.237-.307-.425a.792.792 0 0 1 .098-.53Z" fill="#151921"/><path d="M93.302 75.552c.007.007.013.013.02.013-.007-.006-.02-.013-.033-.026.007.007.007.013.013.013ZM90.48 75.7c.224-.329.621-.405.963-.217.795.44 1.59.879 2.378 1.318.32.174.418.67.216.962-.23.328-.62.405-.963.216-.794-.439-1.59-.878-2.377-1.317-.321-.182-.419-.67-.217-.963Z" fill="#151921"/><path d="M110.835 90.325a6.074 6.074 0 0 0-2.379.09 2.355 2.355 0 0 0-.83-.46c-.495-.174-1.018-.39-1.548-.425-.586-.042-1.283.3-1.416.913-.084.412.084.754.391 1.026.195.174.404.335.613.488.105.077.224.133.335.195a4.486 4.486 0 0 0 2.316 1.207c1.346.265 2.699-.007 4.017-.293.447-.098.739-.607.733-1.032-.021-1.137-1.291-1.556-2.232-1.71Z" fill="#FFADD2"/><path d="M117.433 84.466c-.328-.516-.935-.579-1.444-.328-.104.05-1.004.468-1.325.649-.007-.007-.007-.007-.021-.014-.077-.049-.153-.105-.237-.147a2.521 2.521 0 0 0-1.66-.258c-.139.021-.335.035-.453.119-.007 0-.007.007-.014.007a5.767 5.767 0 0 0-.426-.328 1.623 1.623 0 0 0-.879-.244c-.292 0-.578.07-.85.168a.933.933 0 0 0-.126.048 2.292 2.292 0 0 0-.76-.718c-.516-.286-1.039-.328-1.563-.251a.97.97 0 0 0-.516-.753c-.237-.126-.558-.147-.844-.063-.125-.216-.348-.377-.599-.37a.709.709 0 0 0-.698.698c-.007.62 0 1.241.028 1.862.014.328-.007.711.167 1.004.147.244.405.39.684.405.279.014.502-.133.711-.3.182-.007.363-.049.523-.133.168-.083.398-.202.621-.265h.007c.035.014.07.035.112.05.063.027.125.062.188.09.112.048.223.083.328.125.084.14.174.28.314.398.453.39 1.074.425 1.632.3.049-.014.349-.098.516-.16.056.076.139.139.209.195.516.432 1.151.46 1.772.258.446-.147.537-.05.927.181 1.123.677 2.337-.279 3.348-.788.502-.244.607-.99.328-1.437Z" fill="#fff"/><path d="M118.582 85.282c.014-.425-.16-.913-.614-1.046a.808.808 0 0 0-.781.202 1.81 1.81 0 0 0-.265.37c-.258.44-.453.928-.565 1.423-.007.035 0 .077-.007.118a.929.929 0 0 0-.355.377 1.212 1.212 0 0 1-.077.126 1.218 1.218 0 0 1-.307.523 1.128 1.128 0 0 0-.07.125c0-.014-.007-.028-.014-.049-.195.16-.46.265-.788.265-.272 0-.502-.076-.683-.195-.056-.44-.405-.816-.949-.872-.349-.035-.711.063-1.053.14-.028-.077-.063-.147-.077-.175a.936.936 0 0 0-.823-.488c-.09 0-.188.028-.286.056-.286-.188-.69-.21-1.039-.07a1.07 1.07 0 0 0-.384-.118.847.847 0 0 0-.355.055c-.014-.02-.028-.034-.049-.055-.056-.05-.126-.07-.188-.112-.014-.084-.042-.16-.056-.244-.007-.028-.021-.042-.028-.07-.07.014-.14.021-.223.021a.855.855 0 0 1-.865-.656c-.433.042-.837.286-.893.747a.892.892 0 0 0-.39-.014 1.318 1.318 0 0 0-.454.195 1.048 1.048 0 0 0-1.067-.056 9.852 9.852 0 0 1 .16-3.285c.293-1.318-1.743-1.8-2.036-.488-.607 2.727-.223 5.545 1.039 8.028.014-.007.028-.021.049-.035.565-.279 1.186-.467 1.827-.398.6.063 1.123.238 1.674.482.084.035.161.076.237.118.049-.035.105-.07.154-.111.104.167.237.306.39.418a.91.91 0 0 1 .105.07c.021.014.035.02.056.035.014.007.035.014.049.02.397-.376.906-.557 1.457-.557.921.007 1.953.488 2.546 1.2.126.153.223.32.279.488a1.15 1.15 0 0 0 .425-.126c.217.286.544.481 1.033.46.934-.034 1.478-1.136 1.932-1.806a33.423 33.423 0 0 0 1.527-2.539 1.028 1.028 0 0 0 .363-.286.79.79 0 0 0 .202-.342.805.805 0 0 0 .077-.404.754.754 0 0 0-.084-.349 3.06 3.06 0 0 0 .244-1.116Z" fill="#E3636E"/><path d="M118.145 83.35a.974.974 0 0 1-.182.238c-.021.02-.035.042-.055.063-.098.09-.21.167-.314.244-.007.007-.014.007-.021.014 0 .286-.049.572-.147.837.286 0 .607-.028.53-.154.07.119-.181.774-.209.886a9.536 9.536 0 0 1-.328.983c-.927 2.442-2.699 4.84-5.077 6.026-5.252 2.609-10.211-4.394-8.844-9.213.342-1.207 1.193-1.137 2.016-.698a.858.858 0 0 1 .627-.244c.105 0 .203.021.293.05.196-.168.461-.273.788-.273.014 0 .028.007.049.007-.362-.342-.732-.656-1.123-.85-1.276-.642-2.894-.475-3.654.843-.726 1.263-.649 3.048-.419 4.43.265 1.568.879 3.075 1.793 4.372 1.876 2.644 5.063 4.338 8.272 3.188 3.033-1.089 5.37-4.039 6.514-6.961.446-1.15 1.492-3.704-.509-3.787Z" fill="#000"/><path d="M118.138 83.371c-3.571.963-8.049.196-11.487-1.743-.774-.44-1.563.767-.76 1.178 3.619 1.863 8.278 3 12.219 1.94.858-.23.893-1.612.028-1.374ZM109.939 90.716c-.669-.81-1.422-1.514-2.49-1.744-1.046-.23-2.155-.104-3.18.16-.363.091-.586.503-.488.858a.71.71 0 0 0 .858.489c.781-.196 1.695-.321 2.441-.16.823.18 1.325.725 1.869 1.387.237.293.739.251.983 0 .293-.293.251-.704.007-.99Z" fill="#000"/><path d="M113.817 91.545c-1.122-1.45-2.935-1.806-4.672-1.806-.362 0-.683.398-.641.746.048.398.355.642.746.642.188 0 .369 0 .558.014.028 0 .181.014.195.014.098.007.195.02.286.035.188.028.383.056.565.097.09.021.188.042.279.07.042.014.076.021.118.035.147.056.293.112.433.181.076.035.146.077.223.119.014.007.111.07.139.084.126.09.251.18.37.285l.146.147c.007.014.098.118.112.132.223.286.662.412.969.175.286-.216.412-.656.174-.97ZM107.483 84.306a.711.711 0 0 0-.956.251 11.75 11.75 0 0 1-.586.865c-.049.07-.09.118-.125.167-.007-.035-.021-.07-.028-.111a5.984 5.984 0 0 1-.105-1.026 7.32 7.32 0 0 1 .216-2.106c.091-.356-.111-.774-.488-.858-.363-.084-.767.112-.858.488a9.238 9.238 0 0 0-.272 2.183c0 .684.049 1.43.258 2.086.119.376.328.767.684.976.446.258.934.105 1.262-.265a13.39 13.39 0 0 0 1.249-1.695c.195-.306.076-.78-.251-.955Z" fill="#000"/><path d="M113.244 85.763c-.133.224-.377.3-.586.154-.118-.077-.16-.202-.237-.314-.167-.244-.425-.411-.725-.411-.272 0-.461.153-.67.306-.091.063-.237.196-.349.196-.202 0-.411-.523-.495-.719-.174-.39-.823-.467-1.095-.14-.377.454-1.032.391-1.193-.215-.223-.865-1.569-.503-1.346.37.328 1.255 1.737 1.855 2.818 1.366.202.272.446.496.774.628.3.119.628.133.935.049.174-.049.349-.133.509-.223.056.062.112.132.181.188.272.21.572.335.914.377.718.083 1.395-.293 1.765-.9.474-.774-.733-1.479-1.2-.712Z" fill="#000"/><path d="M116.744 84.292c-.349-.077-.781.105-.858.488-.062.314-.16.62-.279.92l-.041.098-.105.21a5.21 5.21 0 0 1-.251.425c-.042.063-.084.132-.133.195l-.062.084a6.916 6.916 0 0 1-.286.328l-.021-.133c-.049-.32-.098-.635-.154-.955-.055-.363-.53-.593-.857-.489-.391.126-.551.468-.488.858.048.321.097.635.153.956.042.278.063.578.139.85a.848.848 0 0 0 .593.593c.216.056.446.014.656-.063.32-.118.585-.293.843-.523.419-.376.768-.871 1.033-1.367.278-.508.481-1.06.599-1.631.084-.342-.097-.753-.481-.844Z" fill="#000"/><path d="M76.661 69.122c-2.218 2.434-3.46 5.503-4.17 8.69-.81 3.62-1.117 7.387-1.256 11.09-.035.9 1.36.893 1.395 0 .133-3.487.412-7.023 1.144-10.44.648-3.042 1.75-6.02 3.87-8.35.607-.662-.376-1.652-.983-.99Z" fill="#151921"/><path d="M138.742 163.51c.069-.084.125-.167.167-.258.223-.565-.077-1.102-.579-1.36a28.647 28.647 0 0 1-1.423-.788 55.624 55.624 0 0 0-.655-.6c-1.409-.676-2.762-1.437-3.906-2.574a.972.972 0 0 1-.265-.474c-.14-.07-.265-.16-.412-.23a24.13 24.13 0 0 1 .098-5.398c.098-.719-.53-1.207-1.193-1.165-.99.063-1.98.132-2.971.195-.997.07-1.946.391-2.085 1.535-.105.871.251 1.876.488 2.699.146.516.314 1.032.495 1.534a53.778 53.778 0 0 0-3.013.384.881.881 0 0 0-.07.021c-.021 0-.034-.007-.055-.007-.747.049-1.493.118-2.239.223-.886.119-1.046 1.067-.663 1.639.014.502.37 1.011.907 1.032 2.057.091 4.066-.132 6.047-.607a71.345 71.345 0 0 0 5.294 4.673c-1.577.091-3.146.14-4.722.133-1.563-.007-3.174 0-4.673-.474-.544-.175-.998.083-1.242.467-.537.174-.858.774-.655 1.402.83 2.594 4.331 2.783 6.563 2.762 3.208-.035 6.43-.481 9.576-1.081.286-.056.495-.196.635-.384.279-.049.565-.09.844-.153.606-.133 1.15-.363 1.395-.977.488-1.234-.6-2.05-1.688-2.169Z" fill="#89A1AE"/><path d="M125.905 155.322a8.232 8.232 0 0 0-.495-.691c0-.118.014-.237.027-.362.084-.14.133-.307.098-.461-.042-.181-.125-.369-.279-.474a.754.754 0 0 0-.53-.133.797.797 0 0 0-.6.468c0 .007 0 .014-.007.021-.069-.021-.139-.049-.216-.056-.502-.049-.969.118-1.458.223-.418.091-.865.14-1.29.154 0-.035 0-.063-.007-.098-.021-.377-.446-.642-.795-.586-.405.063-.607.412-.586.795.021.46.049.921.07 1.381.014.3.077.558.335.753.237.182.551.168.837.196.948.083 1.897.181 2.845.237.475.028.984.07 1.458.014.258-.035.488-.147.642-.363.237-.335.146-.711-.049-1.018ZM129.259 159.646c.767-.188 1.96-.272 2.476-.942.063-.083.105-.181.146-.279-1.443.509-2.978.802-4.456 1.165-1.102.272-2.135.46-3.278.453-1.116-.007-2.218-.139-3.334-.146a.798.798 0 0 1-.258-.049l.111.698c.105.662.119 1.485.551 2.029.419.516 1.144.663 1.751.837 2.615.739 5.315 1.039 8.014 1.325 1.088.112 1.513-1.206.753-1.876-1.06-.927-2.12-1.855-3.18-2.79 0-.076-.007-.146-.007-.223.223-.077.467-.146.711-.202Z" fill="#89A1AE"/><path d="M140.074 162.31c-6.04 1.493-12.506 2.428-18.56.489-.85-.272-1.381 1.025-.523 1.297 6.257 1.946 12.952 1.116 19.278-.405.879-.209.677-1.597-.195-1.381Z" fill="#151921"/><path d="M119.844 153.132c-.14-.886-1.52-.683-1.381.202.418 2.7 1.402 7.533 1.904 10.218.167.879 1.548.684 1.381-.202-.495-2.685-1.479-7.519-1.904-10.218ZM126.126 156.626c.23 0 .495-.049.753-.118a122.988 122.988 0 0 1-1.067-4.234 45.83 45.83 0 0 0 5.238-.928c-.014 1.43-.021 2.867-.035 4.297a15.78 15.78 0 0 0 1.388-.202c.014-1.633.021-3.265.035-4.89 0-.404-.307-.899-.795-.774a45.878 45.878 0 0 1-6.793 1.207c-.356.035-.67.439-.586.795.376 1.667.802 3.32 1.248 4.966.181-.077.384-.126.614-.119Z" fill="#151921"/><path d="M124.763 152.378a72.348 72.348 0 0 1-5.349.509c-.377.021-.642.447-.586.796.063.404.411.606.795.585a65.2 65.2 0 0 0 5.349-.509c.886-.125.684-1.499-.209-1.381ZM132.751 163.622a92.395 92.395 0 0 1-4.952-4.387c-.272-.258-.747-.202-.984.07-.258.299-.202.725.07.983a92.395 92.395 0 0 0 4.952 4.387.715.715 0 0 0 .983-.07c.244-.279.223-.739-.069-.983ZM140.43 162.283c-2.811-1.667-5.35-3.146-8.37-4.394-.83-.342-1.451.906-.621 1.248 3.02 1.249 5.559 2.727 8.37 4.394.767.461 1.388-.795.621-1.248Z" fill="#151921"/><path d="M132.225 154.631c-.502-.202-1.088.14-1.562.293-.677.224-1.36.412-2.051.572a25.347 25.347 0 0 1-8.139.544c-.893-.083-1.067 1.298-.168 1.388 2.407.23 4.841.147 7.219-.279a25.795 25.795 0 0 0 3.39-.844c.167-.055.356-.104.537-.167.007.063.014.125.021.167.028.656.049 1.319.077 1.974.034.893 1.415.684 1.381-.202l-.084-2.093c-.014-.544-.035-1.122-.621-1.353Z" fill="#151921"/><path d="M132.075 157.568a23.784 23.784 0 0 1-11.243 1.729c-.892-.076-1.067 1.305-.167 1.388a25.334 25.334 0 0 0 11.982-1.841c.816-.342.258-1.618-.572-1.276ZM139.519 163.029l.44 3.048c-3.264 1.123-6.856 1.757-10.316 1.611a28.466 28.466 0 0 1-5.196-.705c-.655-.153-2.106-.272-2.35-.962-.314-.9-.307-2.086-.447-3.034-.132-.886-1.492-.691-1.36.202.161 1.095.237 2.26.496 3.334.244.99.983 1.165 1.869 1.423 1.981.572 4.017.941 6.075 1.088 4.129.286 8.383-.426 12.268-1.841.279-.105.439-.454.398-.74l-.524-3.62c-.118-.899-1.478-.697-1.353.196Z" fill="#151921"/><path d="M93.378 167.646c.105.014.21.021.307.007.6-.098.907-.635.872-1.2a32 32 0 0 1-.056-1.625c.063-.286.119-.579.181-.864-.146-1.556-.18-3.111.21-4.673a.958.958 0 0 1 .272-.468c-.007-.153 0-.314-.014-.467a23.982 23.982 0 0 1 4.687-2.685c.669-.286.76-1.074.383-1.618l-1.695-2.449c-.571-.823-1.339-1.471-2.385-.997-.802.363-1.478 1.179-2.071 1.807-.37.39-.726.795-1.067 1.213a61.316 61.316 0 0 0-1.877-2.392c-.013-.021-.034-.035-.055-.056l-.021-.049a30.97 30.97 0 0 0-1.34-1.806c-.557-.698-1.45-.349-1.75.272-.425.272-.677.837-.419 1.311.977 1.813 2.197 3.425 3.627 4.882a71.05 71.05 0 0 0-1.29 6.94 76.721 76.721 0 0 1-2.539-3.982c-.795-1.347-1.625-2.721-1.988-4.255-.132-.558-.585-.816-1.039-.83-.425-.377-1.102-.342-1.541.16-1.8 2.044-.168 5.148.997 7.052 1.674 2.734 3.718 5.273 5.845 7.665.195.216.425.321.656.349.188.216.37.432.564.641.426.454.9.802 1.556.698 1.304-.237 1.444-1.59.99-2.581Z" fill="#89A1AE"/><path d="M93.818 152.42c.118-.237.237-.502.335-.781.104-.063.216-.111.32-.16.161 0 .328-.042.447-.154.132-.125.251-.293.265-.488a.723.723 0 0 0-.16-.523.785.785 0 0 0-.712-.272c-.007 0-.014.007-.02.007-.022-.07-.029-.146-.064-.216-.216-.46-.6-.774-.941-1.137a7.51 7.51 0 0 1-.795-1.025c.028-.021.056-.035.083-.056.314-.209.321-.712.098-.984-.258-.313-.67-.306-.983-.097-.384.258-.767.509-1.151.767-.251.167-.44.349-.474.67-.028.3.14.565.265.816.418.858.823 1.715 1.255 2.566.216.426.446.886.74 1.263.16.202.376.341.641.362.412.042.683-.23.85-.558ZM91.833 157.512c.558.565 1.241 1.541 2.078 1.639a.95.95 0 0 0 .314-.021c-1.178-.976-2.218-2.148-3.292-3.229-.795-.809-1.492-1.597-2.071-2.581-.565-.955-1.019-1.974-1.59-2.936a.793.793 0 0 1-.098-.251l-.544.453c-.516.433-1.22.865-1.458 1.521-.23.62.014 1.325.181 1.932.712 2.622 1.835 5.098 2.979 7.553.46.997 1.813.684 1.994-.321.252-1.388.51-2.769.76-4.157.063-.041.126-.083.189-.118.195.167.377.342.558.516Z" fill="#89A1AE"/><path d="M95.091 168.169c-4.38-4.421-8.495-9.485-9.939-15.678-.202-.872-1.59-.656-1.38.216 1.54 6.375 5.69 11.689 10.238 16.341.62.635 1.716-.244 1.081-.879Z" fill="#151921"/><path d="M92.588 146.094c.69-.571-.196-1.653-.886-1.081-2.1 1.751-5.74 5.071-7.79 6.877-.67.593.208 1.674.885 1.081 2.043-1.806 5.684-5.126 7.79-6.877ZM92.817 153.279c.119.195.3.397.488.585a128.637 128.637 0 0 1 3.083-3.089 45.395 45.395 0 0 0 3.48 4.017l-3.703 2.176c.279.377.572.739.885 1.088 1.41-.823 2.811-1.653 4.22-2.476.349-.202.614-.725.258-1.081a45.333 45.333 0 0 1-4.526-5.21c-.216-.286-.719-.349-.984-.098a119.152 119.152 0 0 0-3.62 3.62c.16.119.3.272.419.468Z" fill="#151921"/><path d="M95.753 149.93a69.258 69.258 0 0 1-3.18-4.331c-.209-.314-.71-.321-.983-.098-.314.258-.307.67-.097.984a69.237 69.237 0 0 0 3.18 4.33c.564.697 1.645-.181 1.08-.885ZM90.202 162.548c.328-2.183.74-4.353 1.22-6.501.085-.369-.208-.746-.564-.809-.384-.07-.726.196-.81.565a90.22 90.22 0 0 0-1.22 6.501.716.716 0 0 0 .565.809c.37.069.753-.189.81-.565ZM95.295 168.455c-.014-3.264-.049-6.207-.523-9.436-.133-.886-1.52-.782-1.388.104.481 3.229.516 6.173.523 9.437 0 .907 1.388.788 1.388-.105Z" fill="#151921"/><path d="M97.65 157.491c-.083-.537-.676-.865-1.053-1.186a25.147 25.147 0 0 1-6.18-8.174c-.383-.809-1.66-.244-1.276.565a26.676 26.676 0 0 0 3.941 6.047c.767.879 1.59 1.702 2.462 2.476.133.118.272.251.419.377a1.131 1.131 0 0 1-.133.097c-.55.363-1.102.719-1.653 1.081-.753.488.14 1.563.886 1.081.586-.383 1.172-.76 1.75-1.144.454-.292.935-.599.837-1.22Z" fill="#151921"/><path d="M95.049 158.865a23.744 23.744 0 0 1-7.254-8.76c-.39-.809-1.667-.245-1.276.565a25.277 25.277 0 0 0 7.728 9.339c.718.53 1.527-.607.802-1.144ZM94.195 168.057c-.795.649-1.59 1.298-2.385 1.939-2.644-2.225-5.03-4.986-6.675-8.027a28.584 28.584 0 0 1-2.065-4.82c-.209-.642-.85-1.946-.376-2.511.613-.732 1.632-1.332 2.371-1.939.698-.565-.174-1.632-.872-1.06-.858.698-1.813 1.36-2.608 2.134-.726.719-.495 1.437-.265 2.33a28.777 28.777 0 0 0 2.183 5.768c1.869 3.69 4.666 6.975 7.874 9.583.23.188.614.147.837-.035.949-.767 1.897-1.541 2.839-2.308.704-.551-.16-1.619-.858-1.054ZM109.206 136.818c-10.183-2.085-21.433-7.247-24.523-18.113-.843-2.957-.927-6.075-.118-9.053.237-.872-1.123-1.207-1.353-.342-1.465 5.426-.133 11.257 2.992 15.853 3.132 4.59 7.812 7.917 12.89 10.065 3.145 1.332 6.437 2.253 9.778 2.936.871.182 1.213-1.172.334-1.346Z" fill="#151921"/><path d="M120.227 129.934a15.31 15.31 0 0 0-1.702.363c.447-.579.83-1.193 1.053-1.918.224-.705-.474-1.402-1.15-1.318.292-.517.474-1.068.272-1.591-.238-.606-.907-1.011-1.535-.627-.767.474-1.513.983-2.246 1.513l.335-1.074c.328-1.046-1.011-1.688-1.751-1.018a15.871 15.871 0 0 0-2.469 2.859c-.411.607-.062 1.193.461 1.423-.6 1.59-1.158 3.222-1.374 4.903a19.82 19.82 0 0 0-.495 1.2c-.245.656-.684 1.486-.286 2.162.432.739 1.701.684 2.001-.125.014 0 .028 0 .042-.007a24.357 24.357 0 0 0 5.51-1.912 22.76 22.76 0 0 0 2.427-1.367c.802-.516 1.646-1.067 2.086-1.952.439-.858-.272-1.653-1.179-1.514Z" fill="#DF7FFF"/><path d="M123.07 129.662c-.628-.565-1.855-.056-2.553.132-.146.042-.293.098-.439.14.6-.726 1.179-1.465 1.73-2.232.334-.467-.126-1.011-.6-1.046a4.894 4.894 0 0 0-1.319.076c.775-1.046 1.158-2.078.133-2.503-.907-.377-2.309.188-3.146.544-.376.16-.732.348-1.088.551l.126-.293c.307-.802.516-1.591.077-2.386-.182-.327-.635-.432-.956-.251a18.135 18.135 0 0 0-3.362 2.497c-.655.614.335 1.604.984.984a16.078 16.078 0 0 1 2.113-1.674c-.111.355-.3.718-.404.969-.258.6-.551 1.186-.872 1.758-.314.565.362 1.388.955.955 1.312-.962 2.713-1.932 4.339-2.259.02-.007.097-.014.188-.028l-.063.083c-.265.342-.544.67-.83.998a22.645 22.645 0 0 1-1.869 1.862c-.586.523.181 1.534.844 1.095.816-.544 1.667-1.095 2.587-1.381a36.163 36.163 0 0 1-2.392 2.776c-.579.607.147 1.402.844 1.095a19.135 19.135 0 0 1 3.564-1.165c.007 0 .028-.007.049-.007-.719 1.2-1.981 2.037-3.146 2.748a19.06 19.06 0 0 1-8.572 2.713c-.892.063-.899 1.458 0 1.395 3.948-.272 7.847-1.646 10.993-4.087.697-.544 1.346-1.158 1.834-1.904.369-.572.907-1.569.251-2.155ZM135.806 118.956c-.67-.725-1.939-.921-2.65-.139-.67.725-.551 1.89-.489 2.796a15.31 15.31 0 0 0 .565 3.174c.251.858 1.598.495 1.346-.37-.216-.753-.39-1.52-.474-2.294a14.153 14.153 0 0 1-.077-1.772c0-.077.007-.153.014-.237-.014.084.028-.133.035-.161.007-.027.021-.062.028-.09 0-.007.007-.007.014-.021.014-.035.035-.063.056-.098-.021.035-.021.035.014 0 .014-.007.056-.035.056-.035.028-.007.035-.007.055-.007h.112c.042.007.174.049.174.049a.69.69 0 0 1 .252.216c.39.468.488 1.298.488 1.939.007.9 1.402.9 1.395 0 0-1.011-.203-2.176-.914-2.95Z" fill="#151921"/><path d="M145.378 112.602c-.711.202-1.276.663-1.743 1.249-.272-.865-1.158-1.291-1.946-.565-.614.565-1.095 1.255-1.486 2.008-.356-.676-1.2-.816-1.883-.174-.795.753-1.228 2.051-1.639 3.034a22.773 22.773 0 0 0-1.2 3.885c-.188.879 1.158 1.248 1.346.37.384-1.786.963-3.523 1.786-5.155.098-.202.251-.411.376-.627v.021a18.63 18.63 0 0 1-.223 2.803c-.139.865 1.123 1.263 1.346.37.377-1.507.809-3.027 1.632-4.359.175-.279.37-.551.579-.802.007.063.007.118.007.146a11.43 11.43 0 0 1-.362 2.748c-.224.872 1.095 1.235 1.346.37.272-.928.572-1.848 1.081-2.671.23-.37.509-.726.851-1.005.076-.063.446-.39.572-.321-.021-.014.041.286.055.349.3 1.834-.32 3.718-1.346 5.224-2.301 3.369-6.591 4.436-10.462 4.366-.899-.014-.899 1.381 0 1.395 3.892.07 8.112-.941 10.797-3.947 1.2-1.347 2.092-3.027 2.371-4.82.203-1.311.342-4.519-1.855-3.892Z" fill="#151921"/><path d="M154.08 107.922c-1.458-1.576-2.957-3.124-4.436-4.687-.697-.739-1.402-1.478-2.099-2.218-.453-.481-1.039-1.457-1.82-1.297-.349.07-.635.363-.907.572-.46.342-.914.683-1.374 1.032-.872.656-1.737 1.304-2.602 1.96a534.102 534.102 0 0 0-5.042 3.864 272.085 272.085 0 0 0-9.842 8.063c-3.682 3.145-7.302 6.36-10.922 9.583-.669.6.314 1.583.984.983 4.84-4.303 9.68-8.6 14.667-12.735 2.532-2.1 5.113-4.15 7.721-6.159 1.27-.977 2.546-1.946 3.822-2.908.642-.482 1.277-.963 1.918-1.444.537-.405 1.095-.921 1.688-1.291.014.007.021.021.028.028.188.21.391.412.586.614.314.328.621.656.935.984.697.739 1.401 1.478 2.099 2.217.662.698 1.325 1.395 1.981 2.093.314.328.62.655.934.983.21.223.628.544.844.858-.383.426-1.102.844-1.464 1.116-.558.426-1.13.844-1.702 1.249a70.17 70.17 0 0 1-3.522 2.336c-.761.474-.063 1.681.704 1.207a68.272 68.272 0 0 0 5.098-3.488c.663-.502 1.57-1.011 2.093-1.66.558-.683.146-1.297-.37-1.855ZM133.072 123.803a175.217 175.217 0 0 0-11.034 6.78c-.746.495-.049 1.701.705 1.206a178.216 178.216 0 0 1 11.033-6.779c.782-.44.077-1.646-.704-1.207Z" fill="#151921"/><path d="M151.862 110.698a55.992 55.992 0 0 0-7.581-8.76c-.656-.614-1.646.369-.984.983a53.958 53.958 0 0 1 7.365 8.474c.51.74 1.716.042 1.2-.697ZM212.22 86.496c-5.265.335-10.81.802-15.142 4.157a.625.625 0 0 0-.23.698.686.686 0 0 0 .21.774c1.45 1.248 2.496 2.832 3.117 4.638.14.397.767.565 1.074.265 3.083-3.027 7.917-3.718 11.725-1.68.613.327 1.046-.42.899-.928-.662-2.323-1.297-4.715-.857-7.143.083-.48-.37-.809-.796-.78Zm-11.124 8.795a11.986 11.986 0 0 0-2.727-3.857c3.808-2.72 8.586-3.201 13.154-3.5-.174 1.868.181 3.716.656 5.53-3.683-1.353-8.035-.656-11.083 1.827Z" fill="#151921"/><path d="M201.094 95.291a11.97 11.97 0 0 0-2.727-3.857c3.808-2.72 8.586-3.201 13.154-3.5-.174 1.868.182 3.717.656 5.53-3.683-1.353-8.035-.656-11.083 1.827Z" fill="#5EDC10"/><path d="M18.582 115.817c3.264 4.15 6.8 8.447 12.01 10.114a.622.622 0 0 0 .705-.203.682.682 0 0 0 .516-.614c.202-1.904.914-3.661 2.05-5.196.252-.341.036-.955-.39-1.032-4.24-.823-7.553-4.408-8.042-8.697-.076-.691-.941-.621-1.276-.216-1.534 1.862-3.146 3.745-5.391 4.756-.433.196-.447.754-.182 1.088Zm13.559 4.171a11.953 11.953 0 0 0-1.632 4.436c-4.401-1.59-7.512-5.252-10.35-8.844 1.639-.92 2.957-2.26 4.184-3.682.977 3.801 4.025 6.988 7.798 8.09Z" fill="#151921"/><path d="M32.139 119.988a11.953 11.953 0 0 0-1.632 4.436c-4.401-1.59-7.512-5.252-10.35-8.844 1.638-.92 2.956-2.259 4.184-3.682.976 3.801 4.024 6.988 7.798 8.09Z" fill="#FFBF24"/><path d="M29.21 64.17c-1.701 4.994-3.389 10.302-1.945 15.582a.63.63 0 0 0 .55.48.685.685 0 0 0 .796.106 10.563 10.563 0 0 1 5.475-1.11c.419.029.816-.488.656-.892-1.618-4.004-.412-8.732 2.922-11.48.537-.44.014-1.13-.51-1.186-2.399-.272-4.854-.6-6.925-1.932-.404-.265-.879.028-1.018.432Zm3.886 13.643a11.95 11.95 0 0 0-4.604 1.046c-1.06-4.561.321-9.158 1.786-13.496 1.667.872 3.501 1.255 5.363 1.507-2.664 2.887-3.682 7.176-2.545 10.943Z" fill="#151921"/><path d="M33.095 77.813a11.95 11.95 0 0 0-4.604 1.046c-1.06-4.561.321-9.158 1.786-13.496 1.667.872 3.501 1.255 5.364 1.507-2.665 2.887-3.683 7.176-2.546 10.943Z" fill="#398FE5"/><path d="M212.597 119.904c-1.144-1.952-2.42-4.149-1.681-6.479.161-.509-.363-1.004-.858-.858-4.554 1.325-9.583 3.278-11.668 7.909-.495.217-.593 1.102.083 1.326a19.151 19.151 0 0 1 5.943 3.173c.369.293 1.06.265 1.165-.307.544-2.908 3.403-4.638 6.235-3.731.586.181 1.081-.523.781-1.033Zm-8.097 3.432a20.949 20.949 0 0 0-4.722-2.525c1.862-3.676 5.761-5.384 9.555-6.563-.167 1.772.488 3.48 1.325 5.064-2.678-.161-5.224 1.464-6.158 4.024Z" fill="#151921"/><path d="M204.503 123.336a20.949 20.949 0 0 0-4.722-2.525c1.862-3.675 5.761-5.384 9.555-6.563-.167 1.772.489 3.48 1.326 5.064-2.679-.161-5.224 1.464-6.159 4.024Z" fill="#398FE5"/><path d="M210.868 38.427c-.035-.404-.07-.85-.189-1.242-.146-.474-.53-.802-1.039-.774-.363.021-.739.133-1.074.265-.691.265-1.297.649-1.883 1.102-.621.482-1.172 1.04-1.716 1.598a.701.701 0 0 0 0 .983c.265.265.725.272.983 0 .53-.551 1.075-1.109 1.688-1.576.495-.377 1.123-.747 1.737-.907h.014c.021.084.042.16.056.23.056.384.069.795.069 1.193 0 .9-.104 1.792-.209 2.685-.042.377.349.697.698.697.411 0 .655-.32.697-.697.091-.781.181-1.57.202-2.357.007-.405 0-.803-.034-1.2Z" fill="#151921"/><path d="M213.187 43.302c-.781-.544-2.489-1.45-3.382-1.772-.844-.306-1.207 1.04-.37 1.346.551.203 1.932.942 2.434 1.242.154.09.356.258.53.349a17.934 17.934 0 0 1-3.557.355.701.701 0 0 0-.669.886c.251.914.418 1.835.453 2.783.007.251.014.502.007.753 0 .063-.014.154-.028.237-.097-.139-.223-.279-.307-.397a22.95 22.95 0 0 1-2.525-4.764c-.146-.383-.62-.697-1.025-.418a43.628 43.628 0 0 1-2.274 1.5c-.348.216-.704.425-1.067.627-.216.126-.432.251-.648.363l-.091.042c.711-1.367 1.555-2.393 3.013-3.041.614-.272.321-1.081-.167-1.277a7.547 7.547 0 0 1-1.814-1.039c-.279-.216-.76-.579-1.074-.962h.049c.244-.007.488-.007.732 0 .51.014 1.012.062 1.514.146.962.16 1.499.398 2.399.774.83.342 1.193-1.004.37-1.346-1.193-.495-2.03-.753-3.313-.9-.865-.097-2.581-.404-3.215.391-.698.879.53 1.967 1.122 2.518.482.44 1.005.809 1.556 1.13a6.57 6.57 0 0 0-1.43 1.311c-.572.711-1.548 2.05-1.193 3.02.482 1.304 1.974.586 2.776.133a41.055 41.055 0 0 0 2.776-1.744c.391.92.837 1.827 1.339 2.692.328.558.677 1.109 1.046 1.64.314.445.642 1.038 1.151 1.303.426.217.97.16 1.305-.195.369-.39.376-.997.397-1.507a13.15 13.15 0 0 0-.293-3.306 20.802 20.802 0 0 0 2.183-.209c.719-.111 1.89-.153 2.176-.97.265-.739-.341-1.31-.886-1.694Z" fill="#151921"/><path d="M208.841 44.823a.701.701 0 0 0-.669.886c.251.913.418 1.834.453 2.782.007.251.014.502.007.754 0 .062-.014.153-.028.237-.098-.14-.223-.28-.307-.398a22.95 22.95 0 0 1-2.525-4.764c-.146-.383-.62-.697-1.025-.418a44.12 44.12 0 0 1-2.274 1.5c-.348.216-.704.425-1.067.627-.216.126-.432.251-.648.363l-.091.042c.711-1.367 1.555-2.392 3.013-3.041.614-.272.321-1.081-.168-1.276a7.557 7.557 0 0 1-1.813-1.04c-.279-.216-.76-.579-1.074-.962h.049c.244-.007.488-.007.732 0 .509.014 1.011.063 1.514.146.962.16 1.499.398 2.399.774.586.245.935-.355.802-.85.481-.496.969-.984 1.513-1.402.496-.377 1.123-.747 1.737-.907h.014c.021.084.042.16.056.23.056.384.07.795.07 1.193 0 .753-.077 1.5-.161 2.239-.474.216-.565 1.088.091 1.332.551.202 1.932.941 2.434 1.241.153.091.356.258.53.349a17.509 17.509 0 0 1-3.564.363Z" fill="#FFBF24"/><path d="M7.23 87.103c-.327-.244-.683-.516-1.052-.684-.454-.202-.949-.132-1.27.266-.223.285-.39.641-.516.983a7.21 7.21 0 0 0-.425 2.134c-.05.781-.007 1.562.055 2.344a.71.71 0 0 0 .74.655.71.71 0 0 0 .655-.74c-.055-.766-.111-1.54-.055-2.3.041-.621.188-1.333.474-1.905 0-.007.007-.007.007-.014.077.035.153.077.21.112.32.216.64.474.934.74.67.599 1.27 1.269 1.869 1.938.251.28.753.202.983-.056.272-.307.196-.704-.056-.983a27.11 27.11 0 0 0-1.625-1.723c-.306-.272-.606-.53-.927-.767Z" fill="#151921"/><path d="M12.41 88.602c-.922.224-2.735.9-3.572 1.346-.788.426-.028 1.598.76 1.172.516-.279 1.988-.816 2.546-.997.174-.056.432-.09.614-.168a17.504 17.504 0 0 1-2.1 2.895.702.702 0 0 0 .217 1.088 11.945 11.945 0 0 1 2.943 2.009c.049.041.105.111.16.181-.167-.02-.355-.02-.495-.035a23.045 23.045 0 0 1-5.245-1.276c-.383-.147-.934 0-.99.488-.105.9-.23 1.8-.39 2.7-.07.404-.154.808-.238 1.213a12.15 12.15 0 0 1-.16.725c-.007.035-.021.063-.028.098-.551-1.444-.753-2.755-.272-4.269.202-.641-.593-.955-1.06-.725a7.36 7.36 0 0 1-1.981.663c-.349.062-.935.18-1.43.167.007-.014.021-.021.028-.035a12.31 12.31 0 0 1 1.604-1.576c.76-.614 1.29-.858 2.17-1.284.808-.39.041-1.555-.761-1.171-1.165.565-1.911 1.011-2.874 1.876-.641.579-2.015 1.667-1.84 2.657.194 1.102 1.82.914 2.629.83a8.495 8.495 0 0 0 1.876-.411 6.946 6.946 0 0 0 .028 1.939c.153.906.502 2.517 1.464 2.894 1.29.509 1.751-1.081 1.946-1.988.23-1.067.398-2.148.544-3.229.949.32 1.918.586 2.902.788.634.126 1.276.23 1.918.307.544.063 1.206.21 1.736.007.447-.174.76-.614.719-1.102-.049-.537-.495-.949-.858-1.297a13.074 13.074 0 0 0-2.671-1.981c.46-.572.9-1.158 1.297-1.772.39-.606 1.137-1.513.718-2.273-.37-.677-1.2-.607-1.855-.454Z" fill="#151921"/><path d="M10.665 92.857a.702.702 0 0 0 .216 1.088 11.945 11.945 0 0 1 2.943 2.008c.049.042.105.112.16.182-.167-.021-.355-.021-.495-.035a23.05 23.05 0 0 1-5.245-1.277c-.383-.146-.934 0-.99.489-.105.9-.23 1.8-.39 2.699-.07.404-.154.809-.238 1.213-.048.245-.097.489-.16.726-.007.035-.021.063-.028.097-.55-1.443-.753-2.755-.272-4.268.202-.642-.593-.956-1.06-.725a7.367 7.367 0 0 1-1.98.662c-.35.063-.935.181-1.43.168.006-.014.02-.021.027-.035a12.247 12.247 0 0 1 1.604-1.577c.76-.613 1.29-.858 2.17-1.283.571-.272.355-.934-.098-1.165-.049-.683-.09-1.38-.042-2.064.042-.62.188-1.332.474-1.904 0-.007.007-.007.007-.014a1.9 1.9 0 0 1 .21.111c.32.217.641.475.934.74.558.502 1.067 1.053 1.57 1.61-.154.503.439 1.145 1.053.817.516-.28 1.987-.816 2.545-.998.175-.055.433-.09.614-.167a17.98 17.98 0 0 1-2.1 2.902Z" fill="#FFBF24"/><path d="M113.436 110.503c-.37-.042-.635.167-.767.502-.419 1.053-1.312 1.876-2.232 2.497-.53.355-1.088.669-1.646.976-.468.258-1.019.635-1.57.46-.857-.279-1.22 1.075-.369 1.347.802.258 1.597-.042 2.308-.412a20.1 20.1 0 0 0 1.981-1.165c.453-.307.879-.641 1.27-1.011a13.36 13.36 0 0 1-1.137 3.432c-.168.334-.091.753.251.955.307.181.788.091.955-.251a14.812 14.812 0 0 0 1.563-6.64.698.698 0 0 0-.607-.69ZM135.645 107.629a13.212 13.212 0 0 1-1.883-1.848c-.056-.07-.112-.133-.168-.202-.02-.028-.041-.049-.062-.077-.007-.007-.007-.014-.014-.021a3.202 3.202 0 0 1-.265-.418l-.042-.091v-.014a1.818 1.818 0 0 1-.063-.265c-.056-.363-.53-.593-.858-.488-.39.125-.55.474-.488.858.063.376.251.739.468 1.053a12.965 12.965 0 0 0 2.391 2.496c.147.119.293.202.496.202a.719.719 0 0 0 .495-.202c.23-.251.299-.739-.007-.983ZM125.037 116.57a.797.797 0 0 0-.321-.418 5.706 5.706 0 0 1-.935-.921 5.843 5.843 0 0 1-.292-.432.723.723 0 0 0-.419-.321.687.687 0 0 0-.537.07c-.314.202-.453.621-.251.955a6.156 6.156 0 0 0 1.73 1.848c.139.098.376.112.537.07a.71.71 0 0 0 .418-.321.7.7 0 0 0 .07-.53ZM111.982 122.248c-5.901 1.074-11.696-2.086-14.138-7.526-.37-.816-1.569-.111-1.206.705 2.56 5.705 8.53 8.962 14.64 8.313-.977 4.597-1.953 9.193-2.93 13.782-.188.879 1.158 1.249 1.346.37 1.047-4.931 2.1-9.862 3.146-14.793.111-.544-.328-.949-.858-.851ZM74.603 86.029c-2.734 4.875-9.339 5.551-13.914 2.978-2.406-1.353-3.606-3.732-4.255-6.333-.725-2.916-.67-5.957.091-8.858.174-.684-.663-1.158-1.165-.677-4.129 3.906-5.635 10.204-3.668 15.547.306.837 1.653.474 1.346-.37-1.507-4.094-.83-8.739 1.646-12.254-.516 4.073.111 8.593 2.573 11.808 2.86 3.724 8.81 4.917 13.106 3.376 2.294-.823 4.254-2.386 5.447-4.52.432-.781-.767-1.478-1.207-.697Z" fill="#151921"/><path d="M54.997 102.015c.774.097 1.528.265 2.28.446a.649.649 0 0 0-.313-.628c-4.338-2.74-7.881-7.128-8.663-12.317-.725-4.798 1.235-10.085 5.392-12.756.753-.482.056-1.695-.705-1.207-3.529 2.267-5.635 6.13-6.123 10.253-.517 4.359 1.025 8.676 3.682 12.1a21.825 21.825 0 0 0 4.248 4.123c.07-.014.14-.028.202-.014Z" fill="#151921"/><path d="M60.372 111.542c-4.115.279-8.237-1.283-11.055-4.31-2.553-2.741-3.808-6.57-3.536-10.28 2.978 3.256 8.676 5.739 13.245 6.297.885.105.878-1.29 0-1.395-4.639-.565-10.323-3.682-13.245-6.988-.335-.377-1.074-.203-1.165.307-.83 4.561.432 9.381 3.543 12.854 3.048 3.404 7.68 5.224 12.22 4.91.879-.063.886-1.458-.007-1.395Z" fill="#151921"/><path d="M61.47 119.974c-5.44-1.688-9.82-6.18-11.376-11.662-.244-.864-1.59-.495-1.346.37 1.695 5.949 6.445 10.797 12.352 12.631.858.272 1.228-1.074.37-1.339Z" fill="#151921"/><path d="M88.494 127.786c-9.43 1.485-19.48 1.13-27.501-4.562-2.365-1.674-4.457-3.808-5.887-6.34-.44-.781-1.646-.076-1.206.705 5.558 9.827 18.099 12.91 28.581 12.282 2.623-.153 5.232-.509 7.812-.976-.663-.258-1.29-.621-1.8-1.109ZM164.654 88.784a109.446 109.446 0 0 0-11.041 12.122c-.544.697.432 1.694.983.983a110.161 110.161 0 0 1 11.041-12.122c.656-.614-.335-1.597-.983-.983ZM171.979 91.853a159.25 159.25 0 0 0-13.963 9.304c-.711.53-.014 1.743.705 1.206a157.017 157.017 0 0 1 13.963-9.304c.774-.46.077-1.667-.705-1.206ZM156.628 88.763c-1.444 2.455-2.881 4.91-4.325 7.365-.453.774.754 1.479 1.207.705 1.444-2.456 2.88-4.91 4.324-7.366.453-.774-.753-1.478-1.206-.704ZM165.345 74.381c-2.128-.328-3.857.85-4.945 2.51a10.229 10.229 0 0 0-.572-1.129c-.391-.663-.907-1.548-1.597-1.953-1.346-.781-2.992.69-3.802 1.66-1.646 1.974-2.19 4.708-1.415 7.128-1.786-.028-3.76.377-4.353 2.302-.669 2.162 1.088 3.912 2.797 4.882.781.44 1.486-.76.705-1.207-1.109-.627-2.679-1.806-2.155-3.306.551-1.583 2.789-1.339 4.073-1.213.558.056.823-.621.6-1.046-.991-1.912-.768-4.248.376-6.04.377-.586 1.632-2.204 2.476-1.946.467.146 1.025 1.31 1.249 1.708.362.656.634 1.347.844 2.065.209.697 1.109.62 1.346 0 .593-1.57 1.862-3.041 3.661-3.069 1.618-.028 3.139 1.562 2.225 3.16-.446.78.76 1.485 1.207.704 1.241-2.204-.328-4.84-2.72-5.21ZM184.957 94.65a3.198 3.198 0 0 0-1.527-1.354c1.192-1.192 1.981-2.776 1.388-4.512-.621-1.835-2.923-2.916-4.631-1.87-.768.468-.063 1.674.704 1.207 1.144-.704 2.574.335 2.706 1.563.174 1.604-1.109 2.796-2.329 3.57-.649.412-.245 1.521.537 1.277.878-.28 1.778.258 2.078 1.116.349.99-.049 2.092-.621 2.908-.676.97-3.766 4.269-4.987 2.623-.404-.544-1.262-.377-1.297.348-.09 1.877-.669 4.29-2.762 4.841-2.218.586-3.578-1.848-4.338-3.501-.377-.816-1.576-.105-1.207.704 1.054 2.288 3.02 4.924 5.915 4.143 2.288-.621 3.306-2.762 3.655-4.917 2.245.879 5.307-2.03 6.388-3.78.782-1.27 1.102-3.014.328-4.367ZM178.748 80.895c-.181-.655-.655-1.206-1.241-1.555-1.36-.802-2.971-.293-4.108.635-.285.23-.258.746 0 .983.3.279.684.244.984 0l.042-.035c.006-.007.013-.007.034-.028a3.84 3.84 0 0 1 .544-.328l.119-.056c.042-.02.091-.034.132-.048.119-.042.244-.077.37-.105a1.16 1.16 0 0 1 .125-.02c.056-.008.112-.008.168-.015h.209c.014 0 .119.014.126.014.09.021.181.035.272.07.02.007.048.014.069.028.049.02.098.049.147.07.042.02.083.048.125.076.021.014.056.042.077.056.084.07.16.146.23.223.014.014.021.014.021.021.007.007 0 .007.014.021.028.049.063.098.091.146.007.007.02.035.034.056.007.021.042.105.049.119.014.049.021.097.035.14.007.02.007.02.007.027 0 .007 0 .014-.007.035v.272c-.007.014-.007.028-.014.056-.07.3-.16.53-.265.753-.153.328-.104.767.251.955.307.16.788.105.956-.25.348-.712.627-1.507.404-2.316ZM130.735 150.453c-.586-3.78-1.388-8.223-2.002-10.462-.237-.864-1.583-.495-1.346.37.614 2.225 1.437 6.821 2.023 10.594.439-.174.893-.313 1.325-.502ZM120.807 152.762c-1.465-3.097-2.923-6.2-4.388-9.297-.383-.809-1.583-.105-1.206.704l4.387 9.298c.384.816 1.583.104 1.207-.705ZM107.99 143.633c-.021-.9-1.416-.9-1.395 0a56.081 56.081 0 0 1-.028 3.431c-.035.921.119 2.281-.572 2.992-.69.712-1.736 1.193-2.601 1.653-.977.516-1.981.963-3.013 1.346-.837.307-.475 1.66.369 1.346a27.99 27.99 0 0 0 3.348-1.485c1.012-.537 2.232-1.116 2.992-1.988.795-.914.789-2.127.844-3.271.07-1.346.084-2.685.056-4.024ZM95.893 144.664c-.007-.021-.112-.258-.063-.139-.028-.063-.049-.126-.077-.189a11.076 11.076 0 0 1-.16-.439 11.33 11.33 0 0 1-.244-.83 8.758 8.758 0 0 1-.175-.851c-.014-.076-.02-.153-.035-.23-.007-.035-.007-.069-.013-.111a5.054 5.054 0 0 1-.042-.468c-.028-.362-.3-.718-.698-.697-.355.014-.725.307-.697.697.105 1.381.44 2.699 1.004 3.961.147.335.663.44.956.251.341-.223.404-.599.244-.955Z" fill="#151921"/><path d="M95.275 144.155c-.244-.272-.69-.355-.984-.097a21.036 21.036 0 0 0-2 2.022c-.112.126-.154.356-.126.516.027.167.132.363.279.453.153.098.334.161.516.126a.765.765 0 0 0 .453-.279c.16-.181.32-.363.488-.537.404-.425.83-.837 1.27-1.22.271-.244.355-.698.104-.984ZM187.589 41.287c-.174-.433-.593-.635-1.025-.419a9.046 9.046 0 0 1-5.873.774c-.53-.39-1.416.23-1.011.914 2.141 3.662 1.953 8.356-.425 11.857-.328.481.223 1.241.788 1.025 1.939-.76 4.052-.593 5.837.495.307.189.782.084.956-.25 2.274-4.437 2.588-9.744.753-14.396Zm-1.674 13.091a7.892 7.892 0 0 0-4.617-.712c1.597-3.257 1.681-7.17.244-10.503 1.702.153 3.39-.098 4.98-.753 1.318 3.905 1.123 8.216-.607 11.968Z" fill="#151921"/><path d="M185.914 54.378a7.892 7.892 0 0 0-4.617-.712c1.597-3.257 1.681-7.17.244-10.503 1.702.153 3.39-.098 4.98-.754 1.318 3.906 1.123 8.217-.607 11.969Z" fill="#DF7FFF"/><path d="M152.49 30.323a26.784 26.784 0 0 1-6.138-3.202c-.244-.167-.481-.146-.67-.028-.209-.076-.453-.041-.648.189-2.344 2.768-3.578 6.395-3.341 10.022.056.872.188 1.75.418 2.602.105.39.238.78.6 1.004.398.244.851.14 1.277.077 2.28-.349 4.561-.726 6.842-1.088.544-.084.641-.823.307-1.165-2.211-2.28-1.34-5.922 1.527-7.135.6-.258.321-1.095-.174-1.276Zm-3.111 8.397c-1.514.244-3.034.481-4.548.725-.244.042-.488.077-.732.119-.118.02-.439.118-.614.126.014-.05-.041-.175-.062-.252-.049-.188-.091-.383-.133-.572a12.196 12.196 0 0 1-.237-2.245c-.042-2.937.955-5.873 2.811-8.154a28.74 28.74 0 0 0 4.861 2.644c-2.323 1.771-2.88 5.12-1.346 7.609Z" fill="#151921"/><path d="M149.374 38.72c-1.513.244-3.034.481-4.547.725-.244.042-.489.077-.733.119-.118.02-.439.118-.613.126.014-.05-.042-.175-.063-.252-.049-.188-.091-.383-.133-.572a12.194 12.194 0 0 1-.237-2.245c-.042-2.937.956-5.873 2.811-8.154a28.74 28.74 0 0 0 4.861 2.644c-2.322 1.771-2.88 5.119-1.346 7.609Z" fill="#398FE5"/><path d="M46.253 29.632c-.196-.432-.795-.418-1.095-.14-1.974 1.814-4.834 1.465-7.268 1.123-.453-.062-.774.266-.85.621-.126.195-.182.44-.05.698 2.665 5.46 1.75 11.682.084 17.29-.16.544.523 1.158 1.025.788 2.895-2.113 6.529-2.358 9.988-2.546.272-.014.628-.202.67-.509.795-5.921-.056-11.878-2.504-17.325Zm-7.672 2.462c2.357.28 4.784.314 6.779-1.004a29.945 29.945 0 0 1 2.1 15.01c-2.93.167-5.957.46-8.573 1.792 1.353-5.217 1.82-10.748-.306-15.798Z" fill="#151921"/><path d="M38.578 32.094c2.357.28 4.785.314 6.78-1.004a29.946 29.946 0 0 1 2.099 15.01c-2.93.167-5.956.46-8.572 1.792 1.353-5.217 1.82-10.748-.307-15.798Z" fill="#DF7FFF"/><path d="M170.073 27.881c-1.792 0-1.799 2.79 0 2.79s1.799-2.79 0-2.79ZM65.073 35.47c-1.792 0-1.799 2.79 0 2.79 1.8 0 1.8-2.79 0-2.79ZM12.972 55.375c-1.792 0-1.8 2.79 0 2.79 1.792 0 1.792-2.79 0-2.79ZM35.23 98.311c-1.793 0-1.8 2.79 0 2.79 1.792 0 1.792-2.79 0-2.79ZM4.855 115.859c-1.793 0-1.8 2.79 0 2.79 1.792 0 1.799-2.79 0-2.79ZM49.628 129.474c-1.792 0-1.8 2.789 0 2.789s1.8-2.789 0-2.789ZM169.055 126.042a1.469 1.469 0 0 0-.355-.614c-.091-.069-.188-.146-.279-.216a1.388 1.388 0 0 0-.704-.188h-.391a1.09 1.09 0 0 0-.537.118 1.052 1.052 0 0 0-.446.286c-.14.126-.23.279-.286.447a1.023 1.023 0 0 0-.119.537c.014.125.035.244.049.369.07.237.188.44.356.614l.279.216c.216.126.453.188.704.188h.391c.195.007.369-.035.537-.118.174-.056.32-.154.446-.286.139-.126.23-.279.286-.446.09-.168.125-.349.118-.537-.014-.119-.028-.244-.049-.37ZM223.401 103.466c-1.792 0-1.799 2.789 0 2.789 1.8 0 1.8-2.789 0-2.789ZM216.417 64.142c-1.792 0-1.799 2.79 0 2.79s1.799-2.79 0-2.79Z" fill="#151921"/></svg>