<svg xmlns="http://www.w3.org/2000/svg"
		 width="228"
		 height="136">
	<path d="M166.712 36.031a.754.754 0 0 0-.582-.294c-6.99-.175-16.25.105-22.378.294a.75.75 0 0 0-.54.245.787.787 0 0 0-.308.526 96.37 96.37 0 0 1-2.599 13.399.751.751 0 0 0 .126.651.76.76 0 0 0 .596.301l21.664.239h.007a.718.718 0 0 0 .582-.288.705.705 0 0 0 .308-.44l3.25-13.995a.718.718 0 0 0-.126-.638Zm-22.393 1.492c6.199-.19 14.408-.434 20.845-.294l-2.942 12.657-20.215-.225a98.781 98.781 0 0 0 2.312-12.138Z"
				fill="#151921" />
	<path d="M152.318 40.268a38.435 38.435 0 0 1-5.387.154c-.378-.014-.7.33-.7.7 0 .393.322.687.7.7 1.801.07 3.601.022 5.387-.153.378-.035.7-.294.7-.7 0-.35-.322-.736-.7-.701ZM159.946 44.885c-4.56-.063-9.12.028-13.673.273-.896.049-.903 1.45 0 1.4a202.35 202.35 0 0 1 13.673-.273c.896.015.903-1.386 0-1.4Z"
				fill="#343A46" />
	<path d="M200.031 16.391c-11.697-.294-26.945-.44-38.643-.084a.679.679 0 0 0-.497.225.739.739 0 0 0-.315.518c-.946 7.845-2.522 16.264-4.567 23.892a.71.71 0 0 0 .672.89l37.446.42c.287 0 .469-.14.574-.337a.598.598 0 0 0 .378-.448c1.877-8.062 3.747-16.124 5.625-24.186a.71.71 0 0 0-.673-.89Zm-6.241 24.453c-12.068-.134-24.137-.267-36.198-.407 1.905-7.263 3.376-15.255 4.308-22.743 11.333-.329 26.014-.189 37.256.077-1.793 7.698-3.58 15.389-5.366 23.072Z"
				fill="#151921" />
	<path d="M193.79 40.843c-12.068-.133-24.137-.266-36.198-.406 1.905-7.264 3.376-15.255 4.308-22.743 11.333-.33 26.014-.19 37.256.077-1.793 7.698-3.58 15.388-5.366 23.072Z"
				fill="#343A46" />
	<path d="M135.143 116.447c-.539-.813-1.282-1.513-1.926-2.241-.728-.82-1.457-1.639-2.178-2.459l-2.179-2.458c-.154-.176-.308-.344-.462-.519l-.343-.385a.446.446 0 0 0-.07-.098c.175-.175.371-.315.483-.574.196-.435.133-.883-.119-1.198a9.445 9.445 0 0 0 1.786-2.171c.455-.757-.308-1.836-1.184-1.541-2.549.847-5.134 1.19-7.816 1.148-2.697-.042-5.352-.203-8.034.133-2.536.316-5.029.911-7.418 1.828-1.618.624-3.362 1.296-4.693 2.445a8.897 8.897 0 0 0-1.219-1.401 1.374 1.374 0 0 0-.392-.903c-4.308-4.553-9.225-9.162-15.318-11.018a1.409 1.409 0 0 0-.358-.995c-1.127-1.26-3.06-3.047-4.91-2.697-1.604.302-2.213 1.864-3.088 3.04-.736.988.483 2.417 1.583 2.06.056-.021.119-.028.175-.05.133.232.294.456.518.659.273.245.567.35.855.364.014.007.02.021.035.028-.078.05-.147.112-.225.19a84.645 84.645 0 0 0-9.021 12.236c-1.296 2.129-2.697 4.441-3.166 6.92a5.726 5.726 0 0 0-.042 1.863c-.07.4-.077.813.014 1.24.427 2.003 2.115 2.809 3.922 3.082.358.203.715.399 1.065.581a19.948 19.948 0 0 0 6.08 1.962 97.318 97.318 0 0 0-6.556 6.275c-.778.701-1.562 1.401-2.347 2.102-.651.581-.16 1.877.743 1.793 6.486-.588 13-.834 19.507-.722 2.094.035 5.498.687 6.675-1.646.252-.497.287-1.022.392-1.562.028-.161.035-.462.161-.581.182-.168.729-.154.96-.182 1.59-.217 3.236-.21 4.826.007.371.049.721-.035.973-.259 2.025-.021 4.056-.049 6.08-.07.616.063 1.24.084 1.856.042.119-.007.224-.035.322-.07l2.032-.021c.567.686 1.625.322 1.807-.519.245-.406.259-.966-.049-1.295a7.076 7.076 0 0 0-.287-.981c-.218-.602-.624-1.345-.512-2.003.028-.168.084-.308.147-.441a22.925 22.925 0 0 0 1.492-.897 4.33 4.33 0 0 1 1.912.224c1.667.623 3.201 1.856 4.567 2.97 1.317 1.079 2.501 2.43 3.986 3.285 1.352.777 2.977.974 4.265-.042 1.212-.953 1.639-2.543 2.13-3.929l1.982-5.569c.546-1.555 1.611-3.432.581-4.98Z"
				fill="#FFBF24" />
	<path d="M71.922 52.856a68.79 68.79 0 0 1 1.457-2.354 62.487 62.487 0 0 1 3.306-4.594c.91-1.149 2.396-2.788 3.958-1.555 1.344 1.057.455 2.907.084 4.223-.456 1.625-.848 3.383-.434 5.057a6.293 6.293 0 0 0 1.596 2.886l1.612.337c.469.097.763.539.798.987.091 1.093-.862 1.905-1.513 2.669-.588.686-1.142 1.429-1.821 2.017-.687.595-1.492 1.03-2.417 1.023-.966-.007-1.877-.463-2.69-.946-1.582-.953-3.04-2.255-4.055-3.803a3.402 3.402 0 0 1-.581-1.87c-.238-.477-.392-.974-.378-1.5.035-.945.616-1.8 1.078-2.577Z"
				fill="#5EDC10" />
	<path d="M71.215 52.61a31.8 31.8 0 0 1 2.451-3.838 29.46 29.46 0 0 1 3.082-3.516c.904-.883 2.031-2.178 3.278-2.522 1.1-.308 2.038.378 2.298 1.443.315 1.303-.162 2.837-.505 4.084-.483 1.75-1.54 3.579-.798 5.393a4.072 4.072 0 0 0 3.446 2.507c.967.085.672 1.563-.287 1.486-2.655-.225-4.938-2.62-4.945-5.31-.007-1.744.89-3.41 1.288-5.085.183-.777.498-1.737.372-2.543-.175-1.127-1.275-.02-1.723.365a28.781 28.781 0 0 0-6.451 7.929c-.42.763-.918 1.583-1.065 2.451-.168.995.371 1.828.939 2.599 1.03 1.387 4.945 4.749 6.5 5.491.875.42.21 1.772-.673 1.352-2.304-1.107-7.683-5.624-8.237-8.286-.294-1.43.371-2.767 1.03-4Z"
				fill="#151921" />
	<path d="M154.517 77.502a60.825 60.825 0 0 0-.077-2.766 63.078 63.078 0 0 0-.546-5.632c-.21-1.45-.666-3.621-2.641-3.341-1.695.238-1.856 2.283-2.199 3.607-.427 1.632-.967 3.348-2.172 4.588a6.245 6.245 0 0 1-2.829 1.688c-.519-.175-1.044-.343-1.562-.518-.456-.154-.932.084-1.191.455-.63.897-.217 2.08-.035 3.068.161.882.273 1.807.56 2.662.287.861.771 1.638 1.576 2.1.841.477 1.856.547 2.802.54 1.849-.028 3.761-.42 5.421-1.247a3.386 3.386 0 0 0 1.45-1.323c.449-.288.834-.645 1.079-1.107.441-.84.364-1.87.364-2.774Z"
				fill="#5EDC10" />
	<path d="M155.245 77.65c.049-1.52-.014-3.04-.189-4.553a29.442 29.442 0 0 0-.896-4.595c-.336-1.219-.659-2.9-1.569-3.831-.799-.82-1.954-.7-2.711.09-.924.967-1.289 2.536-1.618 3.783-.462 1.751-.469 3.873-2.024 5.064a4.072 4.072 0 0 1-4.238.434c-.875-.413-1.366 1.016-.497 1.43 2.409 1.14 5.582.216 6.948-2.102.883-1.506.946-3.397 1.443-5.043.231-.764.448-1.751.96-2.382.721-.89 1.113.624 1.31 1.177a28.784 28.784 0 0 1 1.589 10.093c-.021.869 0 1.828-.308 2.655-.357.945-1.239 1.394-2.122 1.772-1.59.68-6.661 1.618-8.377 1.478-.967-.077-1.072 1.429-.098 1.506 2.549.203 9.47-.995 11.284-3.019.959-1.072 1.064-2.57 1.113-3.957Z"
				fill="#151921" />
	<path d="M87.234 17.855c-.014.084-.014.168-.028.252a.86.86 0 0 0-.673.267 8.538 8.538 0 0 0-1.12 1.366 10.75 10.75 0 0 0-1.394 1.954c-.659 1.141-1.632 2.626-1.471 4.006.084.694.434 1.317.77 1.912.428.757.876 1.513 1.331 2.256.4.651.805 1.296 1.226 1.933a.604.604 0 0 0-.035.61c1.03 2.045 2.325 3.908 3.845 5.617.26.287.764.119.91-.19a33.298 33.298 0 0 1 3.53-5.869c.141-.19.211-.504.043-.707a88.275 88.275 0 0 1-1.373-1.681c-.364-.63-.735-1.254-1.1-1.885-1.555-2.675-3.053-5.477-3.334-8.608a.91.91 0 0 0-.056-.238c.021-.26.042-.518.084-.778.12-.735-1.036-.966-1.155-.217Z"
				fill="#252B36" />
	<path d="M116.337 1.717c-2.235-.519-4.427 1.064-6.199 2.178-2.34 1.478-4.651 3.005-6.892 4.63-1.772 1.282-3.481 2.71-4.728 4.518-1.142.868-2.13 1.82-2.585 3.264-.532 1.667-.126 3.467.203 5.134a37.83 37.83 0 0 0 1.618 5.708.537.537 0 0 0 .504.371c.35.911 1.717.505 1.682-.392 4.44-3.033 9.014-5.87 13.721-8.475a160.083 160.083 0 0 1 3.565-1.92c1.009-.524 2.284-.973 2.907-1.988.588-.96.35-2.2.224-3.257a29.76 29.76 0 0 0-.693-3.755 28.405 28.405 0 0 0-1.191-3.67c-.441-1.072-.918-2.06-2.136-2.346Z"
				fill="#343A46" />
	<path d="M101.677 6.57c-4.287 3.09-8.37 6.458-12.314 9.975-.315-.014-.658.196-.672.602-.064 1.94.784 3.691 1.569 5.414.945 2.067 1.54 4.273 2.514 6.318.217.455.448.897.707 1.331.239.385.512.939.883 1.205.799.581 1.415-.575 1.835-1.093.35-.427.7-.861 1.044-1.289.28-.343.7-.728.777-1.19.07-.428-.16-.834-.315-1.212a66.394 66.394 0 0 1-.651-1.632c-.778-2.024-1.513-4.154-1.66-6.332-.07-1.016.014-2.06.469-2.99.47-.96 1.26-1.745 2.017-2.48 1.674-1.625 3.586-2.991 5.268-4.61.546-.525.903-1.295.441-1.989-.512-.763-1.289-.476-1.912-.028Z"
				fill="#89A1AE" />
	<path d="M115.657.862c-1.646.252-3.306 1.268-4.735 2.066-3.215 1.8-6.29 3.923-9.161 6.213-1.408 1.12-2.788 2.298-4.056 3.572-1.093 1.1-2.052 2.36-2.374 3.909-.365 1.695-.063 3.495.224 5.176.336 1.99 1.289 4.952 1.919 6.927.042-.02.091-.049.133-.063.14-.056.273-.119.406-.175.175-.09.35-.189.512-.301-.925-2.893-2.15-6.878-2.186-9.827-.014-1.506.442-2.802 1.401-3.958.98-1.183 2.178-2.206 3.348-3.2 2.508-2.137 5.218-4.042 7.999-5.807 1.415-.897 2.858-1.744 4.371-2.473.672-.322 1.387-.686 2.115-.861.939-.224 1.492.21 1.87 1.05.687 1.527 1.114 3.23 1.506 4.855.435 1.8.883 4.391 1.065 6.233.07.75 1.247.715 1.17-.035-.344-3.523-1.219-7.873-2.529-11.165-.532-1.316-1.443-2.367-2.998-2.136Z"
				fill="#151921" />
	<path d="m97.404 28.928-.07-.147c-.63-1.968-1.583-4.938-1.926-6.948-.28-1.632-.589-3.488-.218-5.232.288-1.345 1.051-2.606 2.417-3.972 1.107-1.113 2.368-2.22 4.07-3.586 3.018-2.416 6.114-4.51 9.182-6.227l.448-.252c1.331-.75 2.837-1.604 4.336-1.835 1.401-.217 2.48.56 3.145 2.234 1.198 3.005 2.143 7.194 2.536 11.207.042.456-.288.7-.61.729-.378.035-.791-.182-.84-.666-.175-1.779-.61-4.335-1.065-6.212-.406-1.689-.826-3.328-1.499-4.833-.385-.862-.91-1.163-1.709-.974-.637.147-1.261.455-1.87.75l-.217.104c-1.317.63-2.704 1.415-4.357 2.466-3.117 1.975-5.722 3.866-7.978 5.793-1.099.938-2.34 1.996-3.327 3.187-.938 1.127-1.387 2.395-1.366 3.866.035 3.082 1.43 7.439 2.179 9.785l.035.105-.091.056a5.22 5.22 0 0 1-.526.301l-.056.021c-.119.056-.245.112-.371.161-.035.014-.07.035-.105.05l-.147.07Zm18.274-27.926c-1.45.217-2.935 1.058-4.237 1.8l-.449.252c-3.061 1.71-6.136 3.797-9.147 6.206-1.695 1.352-2.942 2.452-4.049 3.566-1.324 1.33-2.066 2.55-2.34 3.838-.356 1.688-.048 3.516.225 5.127.329 1.94 1.24 4.798 1.87 6.76.119-.05.238-.099.35-.155l.05-.02c.125-.064.258-.141.406-.232-.764-2.381-2.123-6.682-2.158-9.764-.014-1.541.448-2.865 1.429-4.049 1.002-1.204 2.255-2.276 3.362-3.221 2.269-1.934 4.889-3.839 8.013-5.821 1.667-1.058 3.061-1.842 4.385-2.48l.217-.105c.616-.3 1.261-.61 1.926-.763.925-.224 1.59.154 2.031 1.134.68 1.52 1.107 3.173 1.513 4.875.456 1.892.897 4.462 1.072 6.248.028.309.301.435.532.42.189-.02.385-.14.357-.427-.392-3.985-1.33-8.146-2.521-11.13-.609-1.554-1.576-2.24-2.837-2.059Z"
				fill="#151921" />
	<path d="M102.931 5.296c-.414-.014-.757.154-1.1.364-.617.371-1.219.784-1.814 1.19a105.05 105.05 0 0 0-6.668 4.855 122.77 122.77 0 0 0-3.145 2.577c-.848.722-1.793 1.45-2.15 2.557-.295.91-.148 1.891.097 2.795.337 1.24.806 2.465 1.282 3.656 1.079 2.704 3.075 6.745 4.63 9.274.021-.05.05-.099.07-.148.112-.217.245-.42.385-.623a.792.792 0 0 1 .302-.231c-1.457-2.43-3.32-6.206-4.315-8.727-.483-1.22-.967-2.466-1.282-3.734-.14-.574-.245-1.204-.084-1.786.175-.63.637-1.093 1.114-1.52 2.2-1.975 4.56-3.796 6.948-5.54a111.94 111.94 0 0 1 3.558-2.487c.322-.217.645-.427.967-.637.266-.175.602-.483.903-.581.582-.183.883.378 1.142.826.385.651 1.38.028.995-.623-.407-.673-.981-1.422-1.835-1.457Z"
				fill="#151921" />
	<path d="m94.07 32.85-.133-.216c-1.52-2.473-3.516-6.465-4.644-9.288-.54-1.352-.967-2.494-1.282-3.67-.203-.736-.427-1.835-.098-2.872.336-1.05 1.177-1.758 1.99-2.444l.203-.176A130.345 130.345 0 0 1 93.25 11.6a103.53 103.53 0 0 1 6.683-4.861l.343-.231c.483-.323.973-.659 1.478-.96.322-.196.7-.4 1.176-.385.96.035 1.576.89 1.955 1.52a.71.71 0 0 1 .021.707.81.81 0 0 1-.666.406c-.252.007-.455-.119-.588-.343l-.042-.07c-.301-.504-.526-.826-.946-.7-.189.063-.406.224-.602.371-.091.07-.189.14-.273.196a108.148 108.148 0 0 0-4.525 3.117c-2.9 2.115-5.043 3.817-6.941 5.526-.449.407-.904.855-1.072 1.45-.154.582-.035 1.22.084 1.716.322 1.296.827 2.585 1.275 3.72 1.001 2.542 2.858 6.283 4.307 8.706l.078.133-.14.063a.646.646 0 0 0-.253.196 6.493 6.493 0 0 0-.371.603l-.161.37Zm8.804-27.414c-.336 0-.637.14-.973.343-.498.301-.995.63-1.471.953l-.343.23a102.823 102.823 0 0 0-6.662 4.848 115.019 115.019 0 0 0-3.137 2.577l-.21.176c-.778.658-1.59 1.337-1.899 2.318-.308.967-.09 2.01.098 2.71.316 1.17.743 2.298 1.275 3.643 1.086 2.732 2.991 6.563 4.49 9.035a7.17 7.17 0 0 1 .35-.567.88.88 0 0 1 .224-.203c-1.45-2.437-3.264-6.115-4.251-8.622-.449-1.142-.967-2.438-1.29-3.755-.132-.525-.258-1.211-.083-1.856.182-.672.672-1.148 1.148-1.583 1.906-1.716 4.056-3.425 6.963-5.547a105.331 105.331 0 0 1 4.532-3.124c.084-.056.168-.12.259-.182.21-.161.448-.336.686-.413.659-.218 1.009.385 1.268.82l.042.062c.105.175.252.21.343.203a.523.523 0 0 0 .427-.259c.056-.091.091-.245-.014-.427-.343-.582-.896-1.352-1.723-1.387-.014.007-.035.007-.049.007Z"
				fill="#151921" />
	<path d="M88.291 16.25c-1.849 1.05-3.369 2.83-4.58 4.56-1.135 1.624-1.59 3.375-1.212 5.344.392 2.08 1.429 4.104 2.395 5.967 1.135 2.186 3.194 5.387 4.68 7.355.454.595 1.449-.021.994-.623-1.317-1.738-3.243-4.686-4.28-6.599-.953-1.758-1.891-3.614-2.451-5.54-.54-1.863-.323-3.544.777-5.162 1.107-1.618 2.578-3.327 4.294-4.3.658-.38.035-1.374-.617-1.002Z"
				fill="#151921" />
	<path d="M90.05 39.854a.724.724 0 0 1-.589-.3c-1.548-2.04-3.607-5.275-4.693-7.376-.938-1.814-2.003-3.867-2.41-6.01-.37-1.947.036-3.726 1.24-5.45 1.541-2.206 3.054-3.712 4.623-4.601.414-.239.827-.021 1.009.294.168.294.154.707-.252.938-1.43.813-2.9 2.284-4.252 4.26-1.05 1.533-1.296 3.186-.756 5.042.56 1.933 1.499 3.797 2.437 5.513 1.009 1.856 2.921 4.805 4.266 6.584.154.196.189.42.098.63-.098.238-.343.413-.624.448a.16.16 0 0 1-.098.028ZM88.36 16.37c-1.534.868-3.011 2.346-4.531 4.518-1.156 1.653-1.548 3.369-1.191 5.232.4 2.101 1.45 4.132 2.381 5.932 1.079 2.088 3.131 5.303 4.665 7.334.14.19.33.196.427.182a.532.532 0 0 0 .407-.28c.049-.12.028-.231-.063-.35-1.352-1.786-3.278-4.756-4.294-6.62-.939-1.73-1.891-3.607-2.458-5.568-.56-1.94-.302-3.67.798-5.274 1.394-2.038 2.85-3.502 4.343-4.35.259-.147.238-.392.147-.56-.12-.203-.364-.343-.63-.196Z"
				fill="#151921" />
	<path d="M89.195 14.29a.8.8 0 0 0-.82.056c-2.073 1.485-2.55 2.367-2.675 2.788a.702.702 0 0 0 .35.833c.252.133.581.098.847.035.435-.105.799-.4 1.128-.693a7.157 7.157 0 0 0 1.289-1.569c.14-.231.294-.483.294-.764a.759.759 0 0 0-.413-.686Z"
				fill="#151921" />
	<path d="M86.47 18.198a.994.994 0 0 1-.49-.112.847.847 0 0 1-.414-.995c.232-.77 1.15-1.73 2.725-2.865a.924.924 0 0 1 .96-.063.871.871 0 0 1 .49.813c0 .322-.168.595-.315.84-.12.196-.26.4-.42.624a6.981 6.981 0 0 1-.89.98c-.343.308-.721.61-1.184.722a2.19 2.19 0 0 1-.462.056Zm2.353-3.853a.606.606 0 0 0-.364.112c-1.898 1.36-2.472 2.228-2.62 2.718a.56.56 0 0 0 .28.665c.225.12.533.078.75.021.406-.098.75-.378 1.065-.658.315-.28.602-.595.854-.938.162-.218.295-.414.407-.596.133-.217.273-.448.273-.693a.594.594 0 0 0-.336-.554.61.61 0 0 0-.309-.077ZM94.434 31.226c-.315-.14-.617.028-.77.301a112.138 112.138 0 0 0-3.853 7.32c-.33.68.75 1.149 1.072.47a115.554 115.554 0 0 1 3.852-7.32c.161-.273-.035-.659-.301-.77Z"
				fill="#151921" />
	<path d="M90.365 39.785a.878.878 0 0 1-.35-.077c-.302-.147-.54-.497-.337-.925a114.01 114.01 0 0 1 3.86-7.326c.21-.371.595-.512.952-.364.182.084.343.259.406.462a.625.625 0 0 1-.042.504 111.716 111.716 0 0 0-3.852 7.313.692.692 0 0 1-.637.413Zm3.838-8.468c-.19 0-.336.14-.42.28a117.088 117.088 0 0 0-3.853 7.306c-.133.266.028.462.203.546.204.098.484.077.617-.203a117.537 117.537 0 0 1 3.86-7.327c.062-.105.034-.217.013-.28a.483.483 0 0 0-.252-.294.47.47 0 0 0-.168-.028Z"
				fill="#151921" />
	<path d="M120.287 14.282c-4.602 2.578-9.442 4.679-13.938 7.432a78.925 78.925 0 0 0-12.202 9.224c-.546.505.147 1.45.7.939a78.475 78.475 0 0 1 12.202-9.225c4.497-2.752 9.344-4.86 13.939-7.431.658-.371-.049-1.303-.701-.939Z"
				fill="#151921" />
	<path d="M94.504 32.165a.509.509 0 0 1-.175-.028.78.78 0 0 1-.504-.582.734.734 0 0 1 .224-.721 79.177 79.177 0 0 1 12.222-9.246c2.62-1.604 5.401-3.012 8.083-4.37 1.934-.981 3.937-1.99 5.863-3.068a.757.757 0 0 1 .778.014c.245.147.399.399.399.651 0 .217-.119.4-.329.518-1.934 1.08-3.937 2.095-5.877 3.075-2.683 1.36-5.456 2.76-8.062 4.357a78.13 78.13 0 0 0-12.18 9.21.654.654 0 0 1-.442.19Zm26.084-17.826a.467.467 0 0 0-.238.063c-1.926 1.079-3.929 2.094-5.87 3.075-2.682 1.359-5.456 2.76-8.068 4.356a78.566 78.566 0 0 0-12.181 9.211.448.448 0 0 0-.14.455c.042.175.168.33.315.379.112.035.231.007.343-.099a79.14 79.14 0 0 1 12.223-9.245c2.619-1.604 5.393-3.005 8.083-4.364 1.933-.98 3.936-1.99 5.862-3.068.127-.07.19-.16.19-.28 0-.147-.105-.315-.26-.406a.438.438 0 0 0-.259-.077Z"
				fill="#151921" />
	<path d="M120.098 14.417c-2.136 4.258-5.8 7.494-9.337 10.576-3.817 3.327-7.838 6.437-12.166 9.078-2.5 1.527-5.842 3.425-8.546 4.567-.693.294-.266 1.387.428 1.092 2.822-1.197 6.269-3.166 8.881-4.763a79.083 79.083 0 0 0 5.428-3.656c4.084-3.012 8.062-6.325 11.614-9.96 1.884-1.933 3.558-4.049 4.77-6.465.336-.672-.736-1.142-1.072-.47Z"
				fill="#151921" />
	<path d="M90.253 39.926c-.288 0-.526-.196-.63-.441-.148-.343-.064-.785.37-.967 3.026-1.282 6.64-3.411 8.525-4.56 3.908-2.388 7.88-5.351 12.145-9.063 3.341-2.914 7.138-6.213 9.302-10.535.217-.427.679-.483 1.016-.315.294.147.518.497.315.91-1.1 2.193-2.669 4.322-4.798 6.5-3.292 3.37-7.096 6.634-11.627 9.975a75.08 75.08 0 0 1-5.436 3.663c-1.982 1.212-5.778 3.446-8.895 4.777a.903.903 0 0 1-.287.056Zm29.964-25.447c-2.192 4.371-6.003 7.691-9.372 10.619-4.272 3.726-8.258 6.696-12.18 9.091-1.891 1.156-5.52 3.285-8.56 4.581-.28.12-.315.392-.224.603.077.182.266.35.547.23 3.103-1.316 6.885-3.543 8.86-4.755a79.268 79.268 0 0 0 5.415-3.65c4.524-3.326 8.314-6.584 11.592-9.946 2.108-2.157 3.656-4.258 4.749-6.43.133-.259-.021-.455-.19-.539-.21-.105-.497-.077-.637.196Z"
				fill="#151921" />
	<path d="M60.54 53.205a217.806 217.806 0 0 1-11.893-14.47c-.533-.715-1.751-.015-1.212.707a221.82 221.82 0 0 0 12.117 14.75c.603.673 1.59-.314.988-.987ZM17.632 51.25A123.736 123.736 0 0 1 1.305 33.972c-.554-.707-1.716.077-1.156.792a125.433 125.433 0 0 0 16.565 17.545c.68.589 1.604-.469.918-1.057ZM20.468 62.473c-4.567-4.672-9.133-9.344-13.7-14.009-.63-.644-1.548.414-.918 1.058 4.567 4.672 9.134 9.344 13.7 14.009.624.644 1.542-.414.918-1.058ZM22.185 82.484A206.41 206.41 0 0 1 8.204 67.082c-.574-.7-1.555.301-.988.987a207.954 207.954 0 0 0 13.981 15.403c.637.644 1.632-.35.988-.988ZM39.492 116.812a191.495 191.495 0 0 0-11.683-10.038c-.707-.56-1.499.596-.799 1.156a185.432 185.432 0 0 1 11.418 9.799c.658.603 1.723-.301 1.064-.917Z"
				fill="#343A46" />
	<path d="M142.554 76.636c.301-.231.483-.617.392-1.086a32.079 32.079 0 0 0-2.956-8.468.94.94 0 0 0-.322-.371c.315-.252.497-.673.385-1.107-.329-1.289-1.457-2.262-2.465-3.054-1.072-.833-2.249-1.47-3.503-1.996-1.597-.659-3.271-1.093-4.959-1.415.098-.126.182-.26.253-.406.826-1.667-1.191-2.08-2.347-2.263a29.534 29.534 0 0 0-7.936-.14c.021-.189 0-.392-.112-.602-1.009-1.99-3.075-3.005-5.015-3.88a97.82 97.82 0 0 0-3.061-1.31c-1.345-.785-2.746-1.443-4.287-1.667-.014-.007-.021-.007-.035-.014v.007c-.091-.014-.182-.035-.28-.042h-.035c-.847-.56-1.996.756-1.239 1.709.091.119.182.238.266.357l-.659-.084c-2.465-1.17-5.288-.806-8.04-.98l-2.088-.253c-1.17-.14-1.436 1.835-.28 2.066.182.035.371.063.553.091-.49.042-.98.078-1.47.127-.35.042-.624.182-.806.399a16.374 16.374 0 0 0-7.908 3.79 11.483 11.483 0 0 0-3.733 4.04 1.05 1.05 0 0 0 .077 1.135c-7.523 4.595-16.454 6.774-25.272 6.136a.96.96 0 0 0-.413.05c-3.895-1.29-7.873-2.684-11.445-4.708-3.979-3.446-7.957-6.892-11.943-10.338-.469-.406-1.337-.434-1.653.21-.336.693-.364 1.352-.224 2.024-.007.021-.02.035-.02.056-.708 3.012-.057 6.22.51 9.204.183.96.393 1.92.617 2.865a1.002 1.002 0 0 0-.287.014c-1.086.203-1.282 1.31-1.36 2.234a20.094 20.094 0 0 0 .022 3.614c.231 2.41.812 4.763 1.68 7.019 1.199 3.102 2.873 5.967 4.743 8.699-2.767-.686-5.197-2.522-7.439-4.224-1.008-.763-1.996.806-1.275 1.653.218.253.449.484.68.722-.084.189-.12.406-.07.651 1.071 5.709 3.397 11.193 6.815 15.893.813 1.121 1.674 2.22 2.697 3.152 1.001.911 2.136 1.625 3.32 2.262a.95.95 0 0 0 .343.344 51.819 51.819 0 0 0 7.34 3.544c1.422.7 2.865 1.352 4.378 1.863 4.23 1.422 8.91 1.548 13.315 2.031.456.049.897-.364 1.016-.77a42.063 42.063 0 0 1 2.466-6.528c.077-.063.147-.126.21-.217 2.48-3.313 4.959-6.62 7.431-9.933.252-.329.168-1.008-.16-1.274-.54-.42-1.044-.883-1.465-1.415a6.05 6.05 0 0 1-.511-.743c.014.028-.371-.609-.385-.553.042-.203 1.295-.637 1.45-.715.532-.273 1.05-.574 1.548-.903a17.94 17.94 0 0 0 3.474-3.026c2.024 3.404 5.631 5.569 8.783 7.831 4.02 2.879 7.915 5.94 11.298 9.561.602.644 1.436.238 1.695-.399 2.634-1.429 5.709-1.779 8.643-2.144 3.187-.392 6.381-.693 9.554-1.155 3.166-.463 6.318-1.107 9.344-2.165.336-.119 1.219-.602 1.352-.154.161.532-.651 1.31-.918 1.695-.511.736-.847 1.632-.735 2.501-.89.525-1.688 1.31-1.933 2.29-.364 1.485 1.029 2.312 2.332 1.947 1.352-.378 2.606-1.695 3.579-2.647 1.191-1.177 2.249-2.473 3.285-3.79 1.023-1.295 2.081-2.591 2.886-4.034.841-1.499 1.338-3.138 1.702-4.805.722-3.278 1.233-6.626 1.345-9.981.084-2.669-.126-5.394-.735-8.027Z"
				fill="#DF7FFF" />
	<path d="M75.382 100.806c-.147-1.26-.525-2.493-1.03-3.656-.385-.89-.777-1.933-1.38-2.676-1.45-1.786.45-3.299 1.626-4.525.798-.833 2.164-2.633.931-3.537-1.365-1.001-3.656-.77-5.197-.49-1.359.245-2.066-1.408-.924-2.2 1.064-.742 2.234-1.316 3.34-1.989.393-.238.8-.483 1.184-.763-3.026-.084-6.086.714-9.098-.035-1.079-.266-1.086-1.632-.287-2.2 2.059-1.463 4.258-2.717 6.325-4.174 1.786-1.26 3.55-2.718 4.692-4.609.449-.742.89-1.646.925-2.465a.691.691 0 0 0-.14-.042 3.598 3.598 0 0 0-.84-.064c-2.228.043-4.427.68-6.62.981-1.47.203-2.927.245-4.398.007-1.415-.224-2.767-.77-4.203-.805a1.278 1.278 0 0 1-.511-.12 42.1 42.1 0 0 1-4.098-.084.959.959 0 0 0-.413.05c-3.895-1.29-7.873-2.683-11.445-4.707-3.979-3.447-7.957-6.893-11.943-10.339-.469-.406-1.337-.434-1.653.21-.336.694-.364 1.352-.224 2.025-.007.02-.02.035-.02.056-.708 3.011-.057 6.22.51 9.203.183.96.393 1.92.617 2.865a.998.998 0 0 0-.287.014c-1.086.203-1.282 1.31-1.36 2.234a20.104 20.104 0 0 0 .022 3.615c.231 2.41.812 4.763 1.681 7.018 1.198 3.103 2.872 5.968 4.742 8.7-2.767-.687-5.197-2.522-7.439-4.224-1.008-.764-1.996.805-1.274 1.653.217.252.448.483.679.721-.084.19-.12.407-.07.652 1.072 5.708 3.397 11.193 6.815 15.892.813 1.121 1.674 2.221 2.697 3.152 1.001.911 2.136 1.625 3.32 2.263.077.133.189.252.343.343a51.609 51.609 0 0 0 7.34 3.544c1.422.701 2.865 1.352 4.378 1.863 4.23 1.422 8.91 1.548 13.315 2.032.456.049.897-.365 1.016-.771a42.111 42.111 0 0 1 2.466-6.528c.077-.063.147-.126.21-.217l5.736-7.67a.705.705 0 0 1-.056-.203Z"
				fill="#9E5AED" />
	<path d="M112.631 120.53c-1.128-2.22-3.103-3.859-5.407-4.644.525-.637.266-1.8-.736-1.758-2.199.098-3.607 1.828-4.608 3.621-.883 1.576-1.738 3.194-2.424 4.875-.35.203-.693.407-1.044.603-.651.378-.714 1.457 0 1.814.063.035.126.07.197.105-.035.777.826 1.177 1.491.896a13.623 13.623 0 0 1 4.147 4.574c.525.946 1.919.477 1.961-.532a14.477 14.477 0 0 0-.882-5.519c.336.217.644.455.882.595l2.676 1.618c.917.553 1.933-.539 1.436-1.436a34.101 34.101 0 0 0-2.291-3.586 15.676 15.676 0 0 1 3.425.315c.911.189 1.604-.707 1.177-1.541Z"
				fill="#DF7FFF" />
	<path d="M105.319 125.903c-.161-.231-.35-.406-.631-.483a1.094 1.094 0 0 0-.812.105 1.22 1.22 0 0 0-.469.616c-.239.028-.47.126-.624.294-.413.449-.385 1.037 0 1.485.049.056.098.112.14.168.077.105.154.211.224.323a6.634 6.634 0 0 1 .575 1.043l.063.168c.098.26.175.519.238.785.105.427.567.791 1.016.77.469-.021.882-.315 1.015-.77.434-1.499.175-3.229-.735-4.504ZM110.229 124.684c-.638-.631-1.282-1.261-1.919-1.891a1.091 1.091 0 0 0-.743-.309c-.259 0-.567.112-.742.309-.182.203-.322.462-.308.742.014.28.105.546.308.742l1.919 1.892c.196.189.469.308.742.308.26 0 .568-.112.743-.308.182-.203.322-.463.308-.743-.014-.28-.105-.546-.308-.742ZM112.624 120.937c-.154-.988-.693-1.94-1.422-2.62a4.492 4.492 0 0 0-1.358-.896 1.073 1.073 0 0 0-1.345.462 1.125 1.125 0 0 0-.056.96.957.957 0 0 0-.288.315c-.126.245-.196.539-.105.812.07.217.204.448.407.575a.816.816 0 0 0-.042.287c.014.273.098.553.308.742.196.182.469.329.742.308.372-.035.743-.063 1.107-.098.168.119.35.224.518.351l.252.105c.092.014.19.028.281.035.231 0 .455-.084.637-.224a.966.966 0 0 0 .322-.421c.091-.238.084-.441.042-.693ZM107.973 114.669a1.005 1.005 0 0 0-.273-.462l-.21-.161a1.075 1.075 0 0 0-.532-.148c-.175 0-.344.028-.519.056a1.663 1.663 0 0 0-.252.064c-.084.028-.161.063-.238.091-.077.035-.154.063-.231.105-.077.042-.154.084-.224.14a.735.735 0 0 0-.294.273.85.85 0 0 0-.19.357.856.856 0 0 0-.021.42c.007.14.049.274.127.393.056.07.112.14.161.21.133.133.287.217.462.273.091.014.189.028.28.035.189 0 .364-.049.532-.14.063-.049.134-.077.204-.119.056-.021.119-.035.175-.049h.021a.805.805 0 0 0 .406-.091.719.719 0 0 0 .336-.217.805.805 0 0 0 .217-.337.805.805 0 0 0 .091-.406c-.007-.098-.014-.196-.028-.287Z"
				fill="#DF7FFF" />
	<path d="M112.197 41.067c-.98-1.653-1.968-3.306-2.949-4.959a.72.72 0 0 0-.959-.252.711.711 0 0 0-.252.96c.98 1.653 1.968 3.306 2.948 4.959a.72.72 0 0 0 .96.252.706.706 0 0 0 .252-.96ZM121.155 49.78a148.114 148.114 0 0 1-7.382-14.715c-.357-.827-1.562-.113-1.212.707a147.355 147.355 0 0 0 7.383 14.716c.448.778 1.66.07 1.211-.707ZM117.149 32.745c-.791-1.667-1.583-3.327-2.367-4.994-.161-.343-.652-.427-.96-.252-.35.203-.413.616-.252.96.791 1.666 1.583 3.326 2.367 4.994.162.343.652.427.96.252.35-.203.42-.617.252-.96ZM65.996 49.535a3028.894 3028.894 0 0 1-4.49-5.239c-.245-.287-.735-.252-.987 0-.287.287-.245.7 0 .988l4.49 5.24c.245.286.735.251.987 0 .288-.281.253-.701 0-.989Z"
				fill="#343A46" />
	<path d="M217.402 58.99c-12.181-.133-24.361-.273-36.542-.406a169.382 169.382 0 0 0 4.329-22.736c.105-.89-1.296-.882-1.401 0a166.668 166.668 0 0 1-4.504 23.24.711.711 0 0 0 .673.89l37.438.42c.911.007.911-1.394.007-1.408Z"
				fill="#151921" />
	<path d="M223.3 34.539c-11.698-.294-26.946.154-38.643.511-.897.028-.904 1.429 0 1.4 11.403-.35 26.357-.798 37.76-.525l-5.421 23.318c-.203.875 1.148 1.254 1.352.371 1.877-8.062 3.747-16.124 5.624-24.186.112-.455-.203-.882-.672-.89ZM223.839 67.593c-7.046-.077-14.093-.154-21.146-.238A98.677 98.677 0 0 0 205.2 54.2c.064-.519-.749-.512-.812 0a96.305 96.305 0 0 1-2.606 13.448c-.07.259.126.511.393.511 7.221.084 14.443.161 21.664.238.518.014.518-.798 0-.805Z"
				fill="#151921" />
	<path d="M223.846 68.756h-.007l-21.665-.239a.746.746 0 0 1-.595-.3.778.778 0 0 1-.133-.652 96.514 96.514 0 0 0 2.599-13.4.777.777 0 0 1 .469-.623.784.784 0 0 1 .777.077.677.677 0 0 1 .26.638 99.388 99.388 0 0 1-2.403 12.769l20.698.23c.273 0 .504.14.637.372a.798.798 0 0 1-.007.791.74.74 0 0 1-.63.337ZM204.85 54.159a.228.228 0 0 0-.07.02c-.028.015-.035.036-.042.064a97.789 97.789 0 0 1-2.62 13.497l.056.07 21.665.238c.035-.014.042-.056.028-.09l-.035-.022-21.594-.238.112-.434a97.06 97.06 0 0 0 2.5-13.105Z"
				fill="#151921" />
	<path d="M227.25 53.436c-6.766-.175-15.591.09-22.358.294-.518.014-.525.827 0 .813 6.598-.204 15.256-.463 21.854-.309-1.044 4.497-2.087 8.994-3.138 13.49-.119.505.665.722.784.218 1.086-4.665 2.172-9.33 3.25-13.995a.408.408 0 0 0-.392-.511Z"
				fill="#151921" />
	<path d="M224.028 68.587a.821.821 0 0 1-.553-.217.738.738 0 0 1-.21-.722l3.04-13.07c-6.627-.14-15.144.12-21.406.316-.42-.007-.735-.294-.749-.722-.014-.441.301-.777.728-.791 6.129-.19 15.382-.47 22.379-.294a.768.768 0 0 1 .722.946l-3.25 13.994a.698.698 0 0 1-.484.525.544.544 0 0 1-.217.035Zm-1.821-14.744c1.583 0 3.11.014 4.539.049l.427.007-3.236 13.91c.042.078.084.085.098.078l3.257-14.016-.056-.084c-6.969-.175-16.222.105-22.337.294-.056.056-.049.098-.042.112 5.05-.154 11.55-.35 17.35-.35Z"
				fill="#151921" />
	<path d="M205.46 54.88c6.198-.19 14.414-.428 20.844-.294l-2.941 12.656-20.222-.224a100.327 100.327 0 0 0 2.319-12.138ZM212.66 38.524c-3.985.161-7.971.252-11.963.266-.904.007-.904 1.408 0 1.401 3.985-.014 7.978-.105 11.963-.266.904-.035.904-1.436 0-1.4ZM210.034 45.193c-7.453.028-14.899.056-22.351.091-.904.007-.904 1.408 0 1.401 7.452-.028 14.898-.056 22.351-.09.903-.008.903-1.409 0-1.402ZM192.291 48.387a26.944 26.944 0 0 0-5.26.07c-.378.042-.7.294-.7.7 0 .344.322.743.7.7a26.393 26.393 0 0 1 5.26-.07c.379.036.701-.342.701-.7 0-.406-.322-.665-.701-.7ZM170.655 48.079l-4.518 35.035c-.434 3.355-.861 6.703-1.295 10.058-.112.89 1.288.883 1.4 0l4.518-35.035c.435-3.355.862-6.703 1.296-10.058.119-.89-1.282-.883-1.401 0ZM194.365 71.248a540.516 540.516 0 0 0-17.777 22.575c-.54.722.616 1.52 1.148.799a546.852 546.852 0 0 1 17.777-22.575c.582-.7-.574-1.492-1.148-.799Z"
				fill="#343A46" />
	<path d="M134.66 91.428c-1.191 2.872-3.306 5.4-5.912 7.026-2.886 1.8-6.227 2.353-9.526 2.311-7.172-.084-14.541-2.094-20.754-5.66-5.61-3.214-10.492-8.278-11.347-15.115-.434-3.48.386-7.01 2.494-9.855a14.11 14.11 0 0 1 3.614-3.397c1.492-.973 3.215-1.744 4.945-2.094 1.576-.301 8.973-1.359 15.753 3.46-.189.4-.035.974.518 1.002 5.94.294 12.076 1.765 16.587 5.89.014.014.014.028.028.042 4.37 4.028 5.96 10.696 3.6 16.39Z"
				fill="#fff" />
	<path d="M132.005 90.623c-1.155 2.879-3.138 5.45-5.526 7.137-2.648 1.87-5.667 2.522-8.629 2.585-6.444.133-13.007-1.632-18.478-4.966-4.938-3.012-9.168-7.88-9.729-14.625-.287-3.44.56-6.963 2.543-9.841a14.54 14.54 0 0 1 3.355-3.474c1.373-1.009 2.942-1.828 4.511-2.228 1.421-.343 8.104-1.625 14.043 2.942-.182.4-.063.967.435.98 5.323.106 10.793 1.38 14.723 5.324.014.014.014.028.028.042 3.803 3.852 5.022 10.408 2.724 16.124Z"
				fill="#FCFA9C" />
	<path d="M136.229 87.443c.497-5.225-2.01-10.198-6.01-13.462-2.213-1.807-4.777-2.956-7.459-3.874-1.373-.469-2.746-.917-4.189-1.113-1.541-.21-3.096-.147-4.644-.05-.889.057-.938 1.457-.035 1.401 1.387-.09 2.788-.16 4.168-.013 1.316.14 2.577.532 3.831.952 2.543.855 4.987 1.87 7.123 3.516 3.881 2.984 6.283 7.67 5.807 12.608-.084.897 1.317.932 1.408.035Z"
				fill="#fff" />
	<path d="M114.333 67.97c-1.779-1.394-3.873-2.185-6.03-2.794-2.27-.645-4.63-1.051-6.991-1.037-4.027.028-8.11 1.443-10.842 4.49-.603.672.406 1.646 1.008.973 2.508-2.794 6.192-4.034 9.876-4.062 2.081-.014 4.147.33 6.15.868 2.059.554 4.154 1.24 5.849 2.571.714.546 1.695-.455.98-1.009Z"
				fill="#fff" />
	<path d="M96.143 52.54c.063-.538-.252-.973-.763-1.148-2.382-.805-5.064.21-7.145 1.387-2.03 1.149-3.754 2.76-5.099 4.658-.33.462-.084 1.17.371 1.436.126.07.252.112.379.133.245.126.532.168.784.098.42-.112.659-.434.729-.813.035-.049.112-.182.119-.196.077-.112.154-.224.238-.329.105-.14.224-.28.343-.413.322-.371.672-.729 1.044-1.058a11.36 11.36 0 0 1 2.402-1.632 11.113 11.113 0 0 1 5.561-1.205c.533.028.981-.42 1.037-.917Z"
				fill="#DF7FFF" />
	<path d="M106.047 50.033a23.95 23.95 0 0 0-12.341-.449c-1.317.294-.764 2.326.553 2.024 3.726-.84 7.593-.665 11.242.456 1.296.392 1.835-1.64.546-2.031Z"
				fill="#DF7FFF" />
	<path d="M118.641 54.977c-1.471-1.617-3.404-2.668-5.4-3.509a49.206 49.206 0 0 0-7.082-2.381c-1.309-.33-1.856 1.695-.546 2.031a47.04 47.04 0 0 1 6.563 2.164c1.828.77 3.614 1.689 4.966 3.18.918.995 2.403-.483 1.499-1.485ZM139.332 62.879c-3.299-2.62-7.32-3.81-11.326-4.904-1.303-.357-1.849 1.675-.546 2.032 3.6.98 7.396 1.989 10.373 4.357.441.35 1.051.44 1.485.007.371-.365.455-1.135.014-1.492Z"
				fill="#E7BCFA" />
	<path d="M143.577 76.165c-.54-5.001-2.781-9.715-6.388-13.224-.974-.946-2.466.532-1.492 1.477 3.201 3.117 5.302 7.313 5.778 11.768.063.56.449 1.043 1.058 1.043.525-.007 1.107-.497 1.044-1.064Z"
				fill="#E7BCFA" />
	<path d="M141.552 75.858c-.399-1.289-2.423-.742-2.024.554 1.786 5.792 1.387 11.956-.518 17.664-1.009 3.026-2.438 5.905-4.126 8.609-1.611 2.577-3.467 4.973-5.821 6.913-1.043.862.442 2.347 1.478 1.492 2.48-2.052 4.455-4.63 6.15-7.348 1.786-2.864 3.271-5.925 4.343-9.133 2.017-6.017 2.402-12.629.518-18.75Z"
				fill="#E7BCFA" />
	<path d="M132.671 98.817c-3.972 3.012-8.833 3.817-13.687 3.957.154-.602-.245-1.309-.994-1.331-3.881-.119-14.401 2.382-16.853 6.213-.728 1.142 5.499-1.429 6.661-2.129 2.102-1.275 4.609-1.45 7.005-1.793-.049.56.343 1.142 1.029 1.156 6.178.098 12.79-.386 17.896-4.252 1.058-.806.021-2.634-1.057-1.821Z"
				fill="#DF7FFF" />
	<path d="M89.895 95.855c-2.837-1.793-5.792-3.635-7.754-6.416a15.849 15.849 0 0 1-2.157 1.906c.308.294.63.588.953.875.504.441.511.532.875.12 1.751 1.855 3.874 3.333 6.038 4.713 3.068 1.947 7.635 4.364 9.743 7.418.763 1.106 4.287 5.127 4.196 3.775-.442-6.346-8.805-10.443-11.894-12.39Z"
				fill="#DF7FFF" />
	<path d="M131.382 116.168c.953.904 1.884 1.828 2.802 2.76.287.294.574.595.861.896.28-.7.582-1.393.911-2.066-.82-.84-1.646-1.681-2.487-2.5a120.951 120.951 0 0 0-6.717-6.01c-1.037-.855-3.327-.848-2.283.014 2.094 1.744 4.931 5.022 6.913 6.906Z"
				fill="#FFBF24" />
	<path d="M129.168 105.317a5.984 5.984 0 0 0 1.52-1.968c.386-.806-.819-1.52-1.211-.708-.715 1.499-2.018 2.459-3.657 2.725-.756.119-.574 1.142.007 1.352.175.063.358.119.533.161-1.191.203-2.529-.028-3.629-.252-1.926-.392-3.852-.75-5.799-.981-3.852-.448-7.824-.322-11.48 1.072-.834.315-.476 1.674.371 1.352 4.056-1.541 8.433-1.464 12.664-.813 3.551.547 8.545 2.606 11.221-.882.301-.4-.084-1.009-.54-1.058ZM128.146 133.272a.715.715 0 0 0-.322-.421.725.725 0 0 0-.54-.07.762.762 0 0 0-.42.323l-.995 1.435c-.098.141-.119.379-.07.54a.739.739 0 0 0 .323.42.722.722 0 0 0 .539.07.798.798 0 0 0 .42-.322l.995-1.436c.098-.14.119-.378.07-.539ZM99.954 106.579c-3.18-3.53-7.803-4.938-12.209-6.248-3.397-1.008-8.812-2.388-10.261-6.072.16.154.322.308.49.455.686.588 1.59-.294.995-.988a4.174 4.174 0 0 1-.722-1.204c-.77.476-1.562.917-2.367 1.344.96 3.993 5.575 5.954 9.224 7.124 4.868 1.562 10.269 2.605 13.84 6.57.617.672 1.612-.315 1.01-.981Z"
				fill="#FFBF24" />
	<path d="M77.19 96.696a4.039 4.039 0 0 1-.778-.252c.007-.07.007-.14.014-.21.147-1.247-1.282-1.576-2.157-1.135-.77-.112-1.64-.021-2.34-.028 2.038-1.135 3.818-2.648 5.001-4.77.547-.98 1.261-2.354.715-3.453-.547-1.093-1.688-1.268-2.795-1.31-1.436-.05-2.872-.091-4.308-.133l1.36-.91c1.351-.897 3.25-1.752 3.698-3.447.224-.847-.428-1.807-1.352-1.772-2.046.077-4.09.161-6.143.238-.939.035-1.884.07-2.823.112 2.01-1.527 4.252-2.746 6.304-4.216 2.697-1.934 5.071-4.287 6.164-7.488.35-1.023-.743-2.003-1.723-1.723a50.644 50.644 0 0 1-19.038 1.667c-.756-.077-1.4.7-1.4 1.4 0 .82.644 1.325 1.4 1.402 5.582.56 11.235.203 16.712-1.002-1.183 1.583-2.808 2.865-4.433 3.95-2.76 1.843-5.702 3.44-8.041 5.835-.512.518-.568 1.464 0 1.982 1.59 1.443 3.887 1.002 5.848.925l3.166-.126c-.21.14-.427.28-.637.427-1.408.939-2.816 1.877-4.217 2.809-1.148.763-.721 2.57.708 2.612l5.07.148c.82.02 1.633.049 2.452.07.406.014.82.02 1.226.035h.007c-.273.665-.813 1.344-1.184 1.786-.7.833-1.534 1.548-2.444 2.129-2.122 1.359-4.553 2.066-6.97 2.704-1.547.406-1.197 2.717.372 2.752l4.826.105c.805.014 1.61.035 2.41.05l1.036.02c.231.007.462.007.686.014.028.007.035.007.056.007.035.274.084.54.154.806-4.588 4.329-7.354 10.1-9.778 15.844 0 0 0 .007-.007.007a6.937 6.937 0 0 0-.14.336c-.61 1.45 1.926 2.536 2.564 1.079 2.739-6.297 6.577-12.048 11.382-16.958.7-.7.427-2.08-.624-2.318Z"
				fill="#9E5AED" />
	<path d="M86.113 56.834c-2.683 2.633-5.4 5.281-8.833 6.92-3.474 1.653-7.438 2.319-11.192 3.033-.014 0-.084.574-.106.574-3.355.028-6.107.659-9.413.147-2.669-.413-5.863-2.381-8.357-3.418-2.486-1.036-4.777-2.48-6.962-4.041-2.62-1.87-5.141-3.873-7.698-5.828-.203-.154-.525-.21-.833-.182a3.172 3.172 0 0 1-.21-.595c-.407-1.758-3.264-1.982-2.858-.224.245 1.057 1.023 2.885 1.66 3.747.694.939 1.415 1.85 2.178 2.732a40.208 40.208 0 0 0 4.68 4.588c3.452 2.878 7.319 5.21 11.514 6.85 4.4 1.723 9.246 2.633 13.967 2.164 4.798-.476 9.148-2.451 13.28-4.84 4.399-2.55 8.461-5.709 11.39-9.918.917-1.345-1.1-2.802-2.207-1.71Z"
				fill="#DF7FFF" />
	<path d="M107.287 51.58c-4.483-2.003-9.56-2.297-14.205-.63-.826.294-1.127 1.072-.931 1.73a15.698 15.698 0 0 0-9.428 5.968c-.455.61-.098 1.562.504 1.92.715.42 1.464.104 1.92-.505 2.864-3.846 8.096-5.688 12.747-4.616 1.78.413 2.417-2.073.743-2.704-.05-.02-.105-.035-.154-.056 2.514-.154 5.057.26 7.389 1.303.694.308 1.506.203 1.919-.504.344-.589.19-1.597-.504-1.905Z"
				fill="#DF7FFF" />
	<path d="M118.27 55.082c-3.397-2.585-7.313-4.469-11.445-5.554-1.744-.463-2.487 2.241-.743 2.703a30.61 30.61 0 0 1 10.773 5.274c.602.456 1.569.099 1.919-.504.42-.721.105-1.457-.504-1.919Z"
				fill="#DF7FFF" />
	<path d="M102.531 113.568a75.104 75.104 0 0 0-16.803-2.22c-1.352-.028-1.352 2.073 0 2.101 5.484.098 10.92.82 16.243 2.144 1.31.329 1.87-1.696.56-2.025ZM100.64 116.889l-1.576-.526a.698.698 0 0 0-.861.491c-.091.385.119.735.49.861l1.576.526a.698.698 0 0 0 .861-.491.723.723 0 0 0-.49-.861ZM99.414 119.579c-.09-.141-.245-.295-.42-.323a5.204 5.204 0 0 1-1.338-.371c.042.014.077.035.12.049a.567.567 0 0 0-.26-.084.545.545 0 0 0-.28.014.714.714 0 0 0-.42.322.724.724 0 0 0-.07.54c.049.161.16.35.322.42a5.704 5.704 0 0 0 1.548.455c.09.028.189.035.28.014a.567.567 0 0 0 .259-.084.693.693 0 0 0 .322-.42.672.672 0 0 0-.063-.532ZM96.725 125.084a.77.77 0 0 0-.42-.323l-1.787-.63c-.161-.056-.392-.014-.54.07a.693.693 0 0 0-.321.42c-.042.182-.035.379.07.54a.773.773 0 0 0 .42.322l1.786.63c.161.056.392.014.54-.07a.693.693 0 0 0 .322-.42.726.726 0 0 0-.07-.539Z"
				fill="#FFBF24" />
	<path d="M98.91 112.84a58.606 58.606 0 0 1-7.838 14.394c-.54.722.68 1.422 1.212.708a59.724 59.724 0 0 0 7.978-14.724c.315-.847-1.037-1.211-1.352-.378ZM127.957 129.805a195.534 195.534 0 0 0-3.082-2.739c-1.604-1.646-3.103-3.411-4.917-4.826-.449-.35-1.051-.434-1.485 0-.294.295-.399.841-.203 1.233-.084.35-.014.75.266.981 1.835 1.485 3.621 3.026 5.393 4.581a25.736 25.736 0 0 0 2.48 2.206c.014.014.035.028.049.049l.21.168c.413.308 1.072.112 1.359-.273.315-.399.322-1.023-.07-1.38Z"
				fill="#FF9501" />
	<path d="M93.502 128.292a55.983 55.983 0 0 1-14.709-1.744.983.983 0 0 0-.553.021l-.504-.252c-1.198-.631-2.256 1.183-1.058 1.814 4.903 2.577 10.142 4.455 15.578 5.526.721.14 1.253-.301 1.33-1.015a8.008 8.008 0 0 1 .834-2.767c.336-.694-.084-1.597-.918-1.583ZM80.145 98.852c-1.47-.252-2.486.588-3.537 1.52a26.82 26.82 0 0 0-2.605 2.683c-1.716 2.017-3.18 4.244-4.455 6.563-1.261 2.29-2.634 4.77-3.355 7.298-.659 2.312-.252 5.092 2.01 6.353.651.364 1.26-.021 1.485-.553.644-.252 1.443.518.791-.091-1.47-1.359-1.667-5.065-1.022-6.795.728-1.968 1.905-3.831 3.033-5.589 2.276-3.551 5.022-6.773 8.125-9.638.539-.497.315-1.618-.47-1.751Z"
				fill="#FF9501" />
	<path d="M99.989 110.319c-1.24-3.741-5.12-4.973-8.546-5.94-4.23-1.191-8.195-3.033-12.124-4.973a.686.686 0 0 0-.813.133.542.542 0 0 0-.238.455.54.54 0 0 0 .182.498c.75 1.421 2.718 2.178 4.112 2.766 1.772.75 3.614 1.289 5.456 1.849 1.835.561 3.684 1.128 5.407 1.99 2.018 1.001 3.713 2.437 5.4 3.908.484.42 1.395.021 1.164-.686Z"
				fill="#FF9501" />
	<path d="M128.041 109.653c-.14.021-.273.035-.413.049-.105-.245-.323-.455-.617-.49a150.655 150.655 0 0 1-9.694-1.324.709.709 0 0 0-.728.315c-.89-.266-1.8-.469-2.767-.567-2.43-.252-4.945-.105-7.361.252-2.319.343-4.511 1.065-6.374 2.508-.715.553.287 1.534.987.987 1.954-1.513 4.462-2.045 6.871-2.283 2.613-.252 5.352-.357 7.922.287 4.07 1.016 8.896 4.952 12.867 1.429.561-.497-.07-1.268-.693-1.163Z"
				fill="#FF9501" />
	<path d="M115.118 92.703a.75.75 0 0 0-.161-.365.783.783 0 0 0-.273-.294l-.253-.126a1.041 1.041 0 0 0-.546-.042l-.252.084a1.036 1.036 0 0 0-.406.35c-.035.043-.063.084-.098.126a.791.791 0 0 0-.155.393.825.825 0 0 0-.014.413c.021.14.077.26.162.364.063.12.154.217.273.294l.252.126c.182.064.364.078.546.043l.252-.085c.168-.084.302-.196.407-.35.035-.042.063-.084.098-.126a.8.8 0 0 0 .154-.392.692.692 0 0 0 .014-.413Z"
				fill="#fff" />
	<path d="M117.135 92.059c-.392-.462-1.023-.448-1.485-.12-.28.204-.581.386-.89.547-.462.105-.917.294-1.344.434-.253.078-.505.162-.757.239a2.976 2.976 0 0 1-.056-.267c.147-.37.301-.735.483-1.085.337-.652.155-1.268-.518-1.59a1.347 1.347 0 0 0-.413-.112c-.21-.526-.932-.778-1.429-.526l-1.268.652c-.077.042-.175.084-.273.126a5.236 5.236 0 0 1-.287-2.157c.049-.785-.61-1.163-1.212-1.058l-.063-.47c-.063-.567-.707-.93-1.233-.826-.595.12-.889.666-.826 1.233.182 1.66.448 3.313.826 4.938.316 1.387.792 2.788 1.948 3.698 1.211.96 2.983.967 4.426.617a8.034 8.034 0 0 0 3.685-2.004c.189-.182.294-.399.329-.623a5.46 5.46 0 0 0 .252-.175c.448-.322.448-1.065.105-1.471Z"
				fill="#E3636E" />
	<path d="M106.019 92.451c.365 1.394.925 2.753 2.095 3.67 1.281 1.01 3.095 1.093 4.664.792-1.562-2.27-4.146-3.558-6.759-4.462Z"
				fill="#FFADD2" />
	<path d="M110.558 89.662a.762.762 0 0 0 .049-.413.85.85 0 0 0-.091-.392.835.835 0 0 0-.245-.315.798.798 0 0 0-.35-.217c-.091-.021-.182-.035-.274-.056a.984.984 0 0 0-.525.105c-.077.049-.147.098-.224.147a1.016 1.016 0 0 0-.308.455c-.042.175-.091.35-.133.525a.761.761 0 0 0-.049.414c0 .14.028.266.091.392.056.126.14.231.245.315a.799.799 0 0 0 .35.217c.091.021.182.035.273.056a.989.989 0 0 0 .526-.105l.224-.147c.147-.126.245-.273.308-.455.042-.175.091-.35.133-.526Z"
				fill="#fff" />
	<path d="M103.624 75.03c0-.511-.168-1.008-.589-1.33a1.288 1.288 0 0 0-1.408-.106c-.777.428-1.365 1.275-1.75 2.06-.057.119-.099.238-.14.357-.393.665-.73 1.415-.722 2.185.007.547.154 1.107.7 1.36.441.202.911.083 1.31-.162.378-.231.686-.567.988-.89.287-.315.546-.65.763-1.022.427-.722.841-1.597.848-2.452ZM129.736 84.487c0-.51-.168-1.008-.588-1.33a1.288 1.288 0 0 0-1.408-.105c-.778.427-1.366 1.274-1.751 2.059-.056.119-.098.238-.14.357-.393.665-.729 1.415-.722 2.185.007.547.154 1.107.7 1.36.442.202.911.083 1.31-.162.379-.231.687-.567.988-.89.287-.315.546-.65.763-1.022.428-.721.841-1.597.848-2.452Z"
				fill="#151921" />
	<path d="M117.611 83.732a.758.758 0 0 0-.252-.406.84.84 0 0 0 .042-.743c-.098-.217-.252-.357-.42-.518-.609-.554-1.401-.883-2.213-1.002h-.007c-.049-.02-.098-.049-.147-.07-.379-.154-.841-.364-1.233-.161a.827.827 0 0 0-.322.294.603.603 0 0 0-.295.133c-.301.266-.322.666-.098.988.505.721 1.24 1.205 2.004 1.604.693.364 1.569.896 2.374.686.35-.09.651-.42.567-.805Z"
				fill="#fff" />
	<path d="M116.4 80.985c-1.184-.574-2.522-.343-3.741-.014-.392.105-.679.47-.595.89.077.378.49.7.89.595.476-.126.959-.245 1.449-.3.372-.043.848 0 1.198.125l.154.063.056.028c.091.05.175.112.266.168.021.014.043.035.064.05.028.027.063.062.091.097.028.035.063.07.091.106a.315.315 0 0 1 .042.063l.056.105c.021.042.035.084.056.126.007.007.007.014.007.02.007.043.021.085.028.127.007.028.007.063.014.09v.085c0 .042-.014.09-.014.133 0 .007-.007.02-.014.035-.105.378.056.84.462.96.371.112.848-.056.96-.463.371-1.288-.358-2.528-1.52-3.089ZM101.705 73.533c-1.03-.35-2.06-.7-3.09-1.044-.37-.126-.84.07-.959.462-.119.393.063.827.462.96 1.03.35 2.06.7 3.089 1.044.372.126.841-.07.96-.463.119-.385-.063-.82-.462-.96ZM101.354 75.88c.007-.449-.287-.722-.7-.806-1.142-.224-2.29-.448-3.432-.673-.175-.035-.413.07-.54.183a.797.797 0 0 0-.266.525c-.007.448.288.721.7.805l3.433.673c.175.035.413-.07.539-.182.147-.126.266-.337.266-.526ZM129.309 83.682l3.068 1.093c.371.133.616.581.462.96-.154.377-.561.609-.96.462l-3.068-1.093c-.371-.133-.616-.582-.462-.96.154-.371.56-.602.96-.462ZM128.132 85.734c.273-.358.672-.386 1.05-.197 1.037.533 2.074 1.072 3.11 1.604.154.078.281.316.316.477a.795.795 0 0 1-.119.574c-.274.357-.673.385-1.051.196-1.037-.532-2.073-1.072-3.11-1.604-.154-.077-.28-.315-.315-.476a.794.794 0 0 1 .119-.574ZM118.473 91.793c-3.537-.666-9.358-4.392-11.228-7.453-.469-.77-1.59.07-1.121.84 2.06 3.377 8.272 7.278 12.146 8.007.889.16 1.092-1.226.203-1.394Z"
				fill="#151921" />
	<path d="M106.404 84.57c-.007 0-.007.007-.014.007-.09.049-.028.028.014-.007Z"
				fill="#151921" />
	<path d="M108.338 83.26c-.056-.343-.4-.7-.785-.609a6.694 6.694 0 0 0-1.73.645 7.251 7.251 0 0 0-1.59 1.176c-.119.12-.168.365-.147.526a.72.72 0 0 0 .259.462c.147.105.336.182.526.147.189-.035.322-.126.462-.26-.042.043-.098.099-.021.022.028-.021.049-.05.077-.07l.147-.126a5.433 5.433 0 0 1 .63-.462c.056-.036.105-.07.161-.099.028-.014.07-.028.091-.056-.007 0-.007.007-.014.007a6.327 6.327 0 0 1 1.051-.448l.203-.063a.249.249 0 0 1 .07-.014c.182-.042.336-.105.463-.26a.71.71 0 0 0 .147-.518ZM106.51 72.424c-.189-.266-.449-.504-.694-.728a9.275 9.275 0 0 0-1.443-1.114c-.329-.21-.735-.532-1.148-.483a.772.772 0 0 0-.673.644c-.049.266.056.532.217.736.358.462.75.917 1.184 1.316a4.209 4.209 0 0 0 1.786 1.24c.385.133.722 0 .925-.35.245-.406.098-.91-.154-1.26ZM132.902 80.929c-.273-.175-.61-.294-.918-.407a9.416 9.416 0 0 0-1.758-.476c-.385-.07-.882-.21-1.247-.007a.786.786 0 0 0-.378.848c.056.259.259.469.484.595.511.294 1.043.56 1.596.764.652.329 1.387.504 2.123.462.406-.021.665-.273.721-.68.07-.462-.259-.868-.623-1.1ZM111.574 88.858a.713.713 0 0 0-.988-.077c-.413.35-.847.679-1.282 1.001-.098.07-.203.14-.301.21.161-.525.315-1.057.476-1.583.105-.35-.056-.777-.434-.89-.35-.104-.777.057-.889.435l-.442 1.464c-.07.245-.147.49-.217.735-.063.224-.147.456-.14.687.007.35.133.686.441.882.33.218.736.19 1.079.021.252-.126.483-.3.714-.455.204-.133.4-.273.603-.413.448-.322.882-.659 1.31-1.016.28-.252.329-.728.07-1.001ZM116.603 91.73c-.063-.007-.133-.028-.196-.035-.064-.014-.134-.021-.197-.042-.049-.014-.091-.035-.133-.056-.119-.056-.245-.112-.357-.19a2.092 2.092 0 0 1-.245-.188 11.2 11.2 0 0 1-.995.931 7.652 7.652 0 0 1-.609.456c.049-.12.098-.245.154-.365.035-.07.07-.147.105-.217.007-.014.007-.02.014-.028.007-.007.007-.014.014-.02.077-.14.154-.288.231-.428.175-.315.161-.764-.182-.974-.294-.182-.784-.16-.973.183a14.195 14.195 0 0 0-1.058 2.346c-.112.322-.168.658 0 .974a.962.962 0 0 0 1.093.455c.266-.07.504-.21.742-.35.455-.274.897-.568 1.31-.897.441-.35.847-.735 1.226-1.149a.797.797 0 0 0 .217-.406.62.62 0 0 1-.161 0Z"
				fill="#151921" />
	<path d="M117.73 92.17c-1.372 1.184-2.864 2.214-4.489 3.02-1.52.756-3.306 1.309-4.756.104-1.387-1.141-1.758-3.11-1.933-4.805-.183-1.793-.021-3.621.42-5.358.217-.869-1.1-1.338-1.324-.462-.525 2.073-.693 4.202-.448 6.332.231 2.01.84 4.125 2.486 5.442 1.66 1.33 3.727 1.086 5.562.287 1.961-.854 3.782-2.101 5.393-3.495.686-.595-.224-1.66-.911-1.065Z"
				fill="#151921" />
	<path d="M132.075 74.114c-.63-.582-1.646.336-1.015.917 4.37 4.028 5.953 10.696 3.593 16.39-1.191 2.872-3.306 5.4-5.912 7.026-2.885 1.8-6.227 2.353-9.526 2.311-7.172-.084-14.541-2.094-20.753-5.66-5.61-3.214-10.493-8.278-11.347-15.114-.435-3.482.385-7.012 2.493-9.856a14.114 14.114 0 0 1 3.614-3.397c1.506-.98 3.25-1.758 5.002-2.108.847-.168.58-1.513-.267-1.345-1.982.4-3.922 1.289-5.575 2.41-3.698 2.5-6.311 6.577-6.675 11.242-.568 7.305 3.79 13.68 9.358 17.63 6.366 4.517 14.337 6.941 22.07 7.48 3.523.245 7.194.021 10.5-1.471 2.976-1.352 5.533-3.726 7.214-6.59 3.803-6.445 2.578-14.927-2.774-19.865Z"
				fill="#151921" />
	<path d="M132.082 74.107c-4.804-4.405-11.192-6.065-17.552-6.374-.862-.042-.953 1.331-.091 1.373 5.953.294 12.103 1.772 16.621 5.919.63.574 1.66-.336 1.022-.918Z"
				fill="#151921" />
	<path d="M97.53 64.692a.643.643 0 0 1-.42-.49.715.715 0 0 1 .511-.82c.4-.098 9.96-2.388 18.324 4.553.273.224.315.652.084.953-.225.301-.631.357-.904.126-7.88-6.542-17.168-4.336-17.259-4.315a.55.55 0 0 1-.336-.007ZM130.962 101.066c-3.916 2.248-9.05 2.339-14.037 2.423-2.739.049-5.323.091-7.565.511-2.836.526-6.304 2.627-7.774 3.58-.764-1.464-2.907-4.665-8.216-7.901-4.644-2.83-9.162-5.982-12.468-9.064-.364.308-.743.61-1.135.89 3.362 3.18 7.964 6.38 12.874 9.372 6.577 4.006 7.971 7.928 7.978 7.963.07.211.231.379.441.449.014.007.028.007.042.014a.691.691 0 0 0 .582-.105c.049-.028 4.601-3.201 7.922-3.818 2.129-.392 4.657-.441 7.34-.49 4.896-.084 10.359-.189 14.604-2.557-.203-.42-.392-.847-.588-1.267Z"
				fill="#151921" />
	<path d="M131.746 101.248c-.084-.371-.504-.588-.861-.49-.379.105-.575.49-.491.861.175.736-.105 1.955-.546 2.599-.49.728-1.212 1.296-1.877 1.849-.294.238-.252.736-.007.988.287.287.7.245.987.007.813-.673 1.632-1.373 2.2-2.277.567-.91.84-2.479.595-3.537Z"
				fill="#151921" />
	<path d="M130.836 105.507c.007-.904-1.394-.89-1.401.014-.014 1.288-1.394 1.947-2.473 2.234-1.128.301-2.311.301-3.467.196-2.465-.224-4.889-.84-7.347-1.163-2.452-.315-4.932-.483-7.404-.308-2.613.189-5.099.855-7.6 1.625-.861.266-.497 1.618.371 1.352 2.844-.875 5.646-1.576 8.63-1.639 2.809-.063 5.603.266 8.363.736 2.472.42 5.015 1.085 7.544.791 2.115-.252 4.763-1.352 4.784-3.838Z"
				fill="#151921" />
	<path d="M101.662 108.211c-2.465-1.513-4.994-2.935-7.613-4.167-2.5-1.177-5.085-2.116-7.677-3.061-2.606-.946-5.24-1.948-7.558-3.489-1.33-.882-2.948-2.62-2.857-4.28-.337.239-.673.47-1.03.673a1.375 1.375 0 0 1-.28.112 5.742 5.742 0 0 0 1.253 2.816c1.822 2.2 4.784 3.432 7.362 4.476 2.984 1.212 6.073 2.15 9.015 3.474 2.998 1.345 5.876 2.942 8.671 4.651.777.476 1.485-.736.714-1.205ZM138.491 118.527c-1.043-1.121-2.143-2.193-3.229-3.264a208.887 208.887 0 0 0-7.046-6.633c-.673-.603-2.319-.077-1.646.525 2.15 1.933 4.917 4.364 6.99 6.388a158.477 158.477 0 0 1 3.068 3.068c.462.469 1.072.959 1.394 1.548.329.602.273 1.303.161 1.961-.252 1.492-.924 2.893-1.562 4.252a58.712 58.712 0 0 1-1.884 3.67c.231.007.462.063.672.21.274-.189.596-.266.925-.203 1.38-2.55 3.075-5.463 3.313-8.391.091-1.254-.308-2.221-1.156-3.131ZM105.69 50.894c-.588-.386-.665-1.023-.455-1.534-4.182-1.065-10.044-1.878-13.827.056-.308.16-.504.581-.413.91-2.395.553-4.812 2.34-6.801 4.462-1.387 1.478-4.441 6.423-5.282 7.929a.811.811 0 0 0-.098.294 73.425 73.425 0 0 1 1.717-1.156c.273-.175.539-.357.805-.539 1.303-2.045 3.047-4.588 4.07-5.583 2.388-2.332 5.35-4.21 8.103-4.37.659-.042.89-1.107.225-1.331l-.07-.021c3.292-1.037 8.482-.035 11.802.84.098.029.21.063.315.092-.042-.014-.07-.035-.091-.05ZM143.731 82.764c-.028-1.408-.133-2.774-.386-4.02.4.062.862-.295.841-.722a27.083 27.083 0 0 0-3.642-12.573c.35.126.693.245 1.036.392.701.302 1.429-.518.827-1.113-3.6-3.587-8.16-6.094-13.049-7.355-.477.378-.967.736-1.464 1.093 3.978.847 7.761 2.563 10.997 5.057-.477.042-.855.616-.554 1.057a25.634 25.634 0 0 1 4.245 11.257c-.014-.015-.028-.036-.042-.05-.469-.58-1.331.084-1.156.7.596 2.137.82 4.414.862 6.697a14.67 14.67 0 0 1 1.485-.42Z"
				fill="#151921" />
	<path d="M119.159 56.14a.923.923 0 0 1 .168-.343 3.77 3.77 0 0 1 .477-.47c.098-.077.203-.147.315-.21-1.856-2.031-4.245-3.425-6.717-4.588-1.457-.686-6.745-3.019-9.008-2.577-.462.09-.665.588-.483 1.001.364.848.91 1.527 1.611 2.108.693.575 1.471-.588.784-1.162a3.693 3.693 0 0 1-.602-.638c1.149.07 5.961 1.99 7.235 2.585 2.298 1.079 4.511 2.396 6.22 4.294ZM130.632 111.747a.674.674 0 0 1-.35-.224.7.7 0 0 1 .077-.988c.07-.056 6.991-6.016 9.666-13.924 3.075-9.092 2.144-16.334 2.137-16.411a.702.702 0 0 1 .602-.792.707.707 0 0 1 .791.596c.042.308.995 7.627-2.192 17.048-2.802 8.279-9.792 14.289-10.086 14.541a.713.713 0 0 1-.645.154Z"
				fill="#151921" />
	<path d="M134.148 134.687h-39.07l1.401-3.152h37.669v3.152Z"
				fill="#343A46" />
	<path d="M94.763 135.738a.68.68 0 0 1-.259-.049.708.708 0 0 1-.392-.911l1.513-3.782a.7.7 0 0 1 .651-.441h34.56c.385 0 .7.315.7.7a.703.703 0 0 1-.7.701H96.753l-1.338 3.341a.704.704 0 0 1-.652.441ZM84.642 57.316c-5.533 6.248-13.953 8.903-22.035 9.715-4.504.456-9.701-.777-13.827-2.773-3.446-1.667-5.723-3.166-8.622-5.625-3.23-2.745-6.451-5.554-10.206-7.564-.462-.245-1.057.056-1.05.602.042 6.892 3.152 13.602 8.419 18.057.686.582 1.68-.406.988-.987a22.707 22.707 0 0 1-7.971-15.837c6.465 3.831 10.632 8.986 17.384 12.398 4.084 2.059 9.204 3.579 13.729 3.235 4.286-.322 8.587-1.141 12.629-2.64 4.37-1.625 8.433-4.077 11.543-7.586.61-.68-.379-1.674-.98-.995Z"
				fill="#151921" />
	<path d="M41.874 83.933C33.314 76.86 28.93 65.33 30.457 54.361c.126-.89-1.275-.938-1.401-.056-1.247 8.924 1.337 18.176 6.773 25.335 1.54 2.031 3.327 3.852 5.288 5.477.7.575 1.443-.616.757-1.184Z"
				fill="#151921" />
	<path d="M67.11 115.592c.231-.105.47-.189.7-.273-6.191.266-12.425-.406-18.253-2.599-7.361-2.766-13.868-7.859-17.447-14.961-1.072-2.13-1.913-4.37-2.641-6.647a91.609 91.609 0 0 1-1.058-3.593c-.245-.897-.553-1.976-.273-2.886a27.824 27.824 0 0 0 7.348 5.029c.672.315 1.204-.49.854-1.05-3.86-6.15-8.384-13.757-5.575-21.154a19.185 19.185 0 0 1-.358-1.786v-.014a.64.64 0 0 0-.574.385c-3.34 7.292.154 14.773 3.993 21.153a26.93 26.93 0 0 1-5.429-4.251c-.266-.273-.77-.168-.987.098-1.394 1.723-.596 3.992-.056 5.89.623 2.2 1.317 4.385 2.171 6.508 1.632 4.041 3.936 7.697 7.04 10.758 6.198 6.122 14.687 9.407 23.26 10.297 2.228.231 4.47.301 6.704.259-.084-.456.07-.939.581-1.163Z"
				fill="#151921" />
	<path d="M103.862 112.736a101.37 101.37 0 0 0-18.96-1.919c-.904-.007-.904 1.394 0 1.401a99.73 99.73 0 0 1 17.734 1.716 188.16 188.16 0 0 1-6.556 12.243c-.231.399-.455.981-.805 1.31-.4.378-1.1.189-1.597.154a93.723 93.723 0 0 1-3.965-.378 86.206 86.206 0 0 1-7.186-1.149 93.766 93.766 0 0 1-6.934-1.674c-2.284-.644-4.63-1.317-6.739-2.423-.861-.456-1.814-1.051-2.066-2.067-.273-1.113.217-2.395.56-3.453.694-2.164 1.646-4.237 2.76-6.22 1.198-2.136 2.57-4.167 4.028-6.135 1.499-2.032 3.06-4.126 5.14-5.604-.391-.287-.79-.567-1.183-.854-1.73 1.344-3.103 3.032-4.427 4.777-1.513 1.989-2.948 4.034-4.223 6.191-1.247 2.102-2.326 4.308-3.145 6.612-.722 2.046-1.674 4.623-.084 6.507 1.408 1.661 3.915 2.417 5.897 3.075 2.606.869 5.268 1.576 7.943 2.179a96.136 96.136 0 0 0 7.838 1.415c1.268.175 2.536.322 3.81.441 1.163.112 2.788.525 3.902.07 1.022-.42 1.52-1.751 2.031-2.634a199.553 199.553 0 0 0 2.325-4.118 191.74 191.74 0 0 0 4.329-8.412c.175-.393.049-.953-.427-1.051Z"
				fill="#151921" />
	<path d="M108.219 115.692a13.056 13.056 0 0 0 1.506-1.212c.378-.357.154-1.058-.351-1.163a9.447 9.447 0 0 0-6.591 1.058c-.784.441-.035 1.632.75 1.184a7.898 7.898 0 0 1 3.936-1.03c-.63.448-1.31.848-2.031 1.156a.702.702 0 0 0 .42 1.338c3.04-.61 5.793 1.492 6.269 4.405a8601.07 8601.07 0 0 1-4.28-.441c-.651-.07-1.197.666-.644 1.191a13.155 13.155 0 0 1 1.695 1.94c.252.357.483.722.7 1.107.099.168.19.336.274.511.028.049.042.105.063.154l-.547-.252c-.455-.21-.903-.42-1.359-.63-.903-.421-1.814-.848-2.717-1.268-.49-.224-1.275.217-1.002.826.561 1.233 1.156 2.529 1.212 3.902.028.742-.175 1.261-.371 1.933-.028-.021-.056-.049-.091-.077-.119-.28-.414-.56-.596-.799-1.527-1.926-3.698-3.684-5.827-4.917-.785-.455-1.443.785-.666 1.233 1.43.827 3.047 1.996 4.203 3.18a17.78 17.78 0 0 1 1.625 1.926c.35.484.693 1.079 1.366 1.086 1.289.014 1.681-1.975 1.751-2.949.084-1.163-.189-2.269-.589-3.341.855.399 1.71.792 2.557 1.191.749.35 2.031 1.121 2.557.007.42-.89-.358-1.996-.792-2.718a13.87 13.87 0 0 0-1.184-1.681l3.292.336c.449.049.869-.203.862-.707-.07-3.313-2.417-5.863-5.4-6.479ZM100.99 107.965c-4.308 1.008-8.804.672-12.93-.904-.84-.322-1.205 1.03-.371 1.352 4.357 1.667 9.14 1.968 13.679.903.869-.203.498-1.555-.378-1.351Z"
				fill="#151921" />
	<path d="M88.908 107.531c-.07-.252-.252-.4-.49-.491-.015-.007-.029-.007-.043-.014a.562.562 0 0 0-.329-.217 4.655 4.655 0 0 0-3.768.974c-.35.28-.224.903.14 1.1 1.394.742 3.222.483 4.314-.673a.711.711 0 0 0 .176-.679ZM100.794 108.371c-.392-.091-.728.119-.861.49a9.277 9.277 0 0 1-.21.56c0 .007-.008.014-.015.035l-.105.232c-.147.315-.308.623-.476.924-.168.294-.35.575-.54.848-.048.07-.097.14-.146.203-.029.035-.05.07-.078.098-.007.007-.02.028-.034.049-.014.021-.042.049-.042.056l-.078.098c-.056.07-.119.147-.182.217a.825.825 0 0 0-.189.574h1.275c.07 0 .14.007.21.021a12.574 12.574 0 0 0 1.968-3.551c.112-.343-.147-.777-.497-.854ZM126.549 130.533a356.032 356.032 0 0 1-8.174-7.172c-.673-.609-1.569.462-.904 1.072 2.69 2.43 5.415 4.826 8.174 7.172.687.589 1.59-.483.904-1.072ZM77.12 125.049a1.288 1.288 0 0 1-.666-.245l-.63-.294a1.14 1.14 0 0 1-.218.021c.099.329.218.707.183.973-.07.505-.61.862-.946 1.191l-1.975 1.933c-2.36 2.305-4.721 4.616-7.075 6.921a11.667 11.667 0 0 1 2.27-.26l6.787-6.64c.644-.63 1.4-1.232 1.961-1.94.427-.539.413-1.065.308-1.66Z"
				fill="#151921" />
	<path d="M117.415 123.074a13.35 13.35 0 0 1-3.481 2.284c-.203.091-.364.385-.35.602a20.24 20.24 0 0 0 .973 4.644c.288.847 1.639.483 1.352-.371a18.74 18.74 0 0 1-.868-3.867 14.74 14.74 0 0 0 3.369-2.304c.665-.61-.329-1.597-.995-.988ZM81.511 88.641c-5.036 5.232-12.37 7.922-19.556 7.39a17.97 17.97 0 0 0 6.178-3.285c.7-.568-.294-1.555-.988-.988a16.167 16.167 0 0 1-9.442 3.6c-.763.035-.98 1.177-.189 1.373 8.854 2.256 18.646-.518 24.992-7.102.623-.652-.365-1.64-.995-.988Z"
				fill="#151921" />
	<path d="m126.815 134.554 11.564-35.099 43.917-.133-10.913 35.498-44.568-.266Z"
				fill="#343A46" />
	<path d="m161.543 109.072-11.235 10.332c-.666.609.329 1.597.987.987l11.235-10.331c.673-.61-.322-1.597-.987-.988ZM157.851 117.472a125.642 125.642 0 0 0-9.666 9.266c-.616.659.371 1.653.988.988a125.846 125.846 0 0 1 9.666-9.267c.686-.588-.308-1.576-.988-.987ZM157.809 122.626c-.301-.281-.686-.253-.987 0a19.772 19.772 0 0 0-2.76 2.759c-.119.147-.203.294-.203.498 0 .175.077.378.203.497.259.238.742.301.988 0a19.772 19.772 0 0 1 2.759-2.76c.288-.238.259-.756 0-.994ZM180.847 99.98h-42.202c-1.351 0-1.351 2.102 0 2.102h42.202c1.351 0 1.358-2.101 0-2.101Z"
				fill="#3D4352" />
	<path d="M180.09 100.444a984.401 984.401 0 0 1-11.277 33.971c-.448 1.274 1.576 1.828 2.024.56a982.253 982.253 0 0 0 11.277-33.971c.406-1.296-1.618-1.85-2.024-.56Z"
				fill="#3D4352" />
	<path d="M126.983 135.738a.552.552 0 0 1-.21-.035.695.695 0 0 1-.455-.875l11.144-35.365a.697.697 0 0 1 .665-.49h44.337c.386 0 .701.315.701.7 0 .385-.315.701-.701.701h-43.826l-10.989 34.874a.69.69 0 0 1-.666.49Z"
				fill="#151921" />
	<path d="M171.321 135.739a.554.554 0 0 1-.211-.035.695.695 0 0 1-.455-.875l11.144-35.365a.692.692 0 0 1 .876-.455.695.695 0 0 1 .455.875l-11.144 35.365a.689.689 0 0 1-.665.49Z"
				fill="#151921" />
	<path d="M187.234 134.574H36.326c-.904 0-.904 1.401 0 1.401h150.908c.904 0 .904-1.401 0-1.401Z"
				fill="#171A1F" />
	<path d="M129.071 56.055c-3.986-1.31-6.346-1.68-10.325-.364-1.282.42-1.275 1.289.063 1.05 3.748-.658 6.059.14 9.715 1.346 1.289.427 1.828-1.604.547-2.032Z"
				fill="#E7BCFA" />
	<path d="M131.305 56.757c-3.866-2.633-8.847-3.306-13.259-1.702-.848.309-.393 1.632.462 1.324 3.418-1.24 7.313-1.008 10.542.645-.365.077-.736.154-1.107.203-.89.133-.785 1.527.112 1.394a20.318 20.318 0 0 0 3.026-.68c.455-.133.665-.882.224-1.184Z"
				fill="#151921" />
</svg>
