<svg width="228" height="136" viewBox="0 0 228 136" fill="none" xmlns="http://www.w3.org/2000/svg">
<path d="M166.712 36.0311C166.572 35.849 166.362 35.7439 166.13 35.7369C159.14 35.5618 149.88 35.842 143.752 36.0311C143.534 36.0381 143.345 36.1292 143.212 36.2763C143.044 36.4023 142.932 36.5914 142.904 36.8016C142.365 41.2773 141.489 45.7881 140.305 50.2009C140.242 50.425 140.291 50.6631 140.431 50.8523C140.579 51.0414 140.796 51.1534 141.027 51.1534L162.691 51.3916H162.698C162.936 51.3916 163.14 51.2865 163.28 51.1044C163.427 51.0063 163.546 50.8593 163.588 50.6631L166.838 36.6685C166.901 36.4444 166.852 36.2132 166.712 36.0311ZM144.319 37.523C150.518 37.3339 158.727 37.0888 165.164 37.2288L162.222 49.8857L142.007 49.6615C143.03 45.6831 143.801 41.6065 144.319 37.523Z" fill="#151921"/>
<path d="M152.318 40.2688C150.525 40.4439 148.725 40.5 146.931 40.4229C146.553 40.4089 146.231 40.7521 146.231 41.1234C146.231 41.5156 146.553 41.8098 146.931 41.8238C148.732 41.8938 150.532 41.8448 152.318 41.6697C152.696 41.6347 153.018 41.3755 153.018 40.9693C153.018 40.619 152.696 40.2338 152.318 40.2688Z" fill="#343A46"/>
<path d="M159.946 44.8846C155.386 44.8215 150.826 44.9126 146.273 45.1577C145.377 45.2068 145.37 46.6076 146.273 46.5586C150.826 46.3135 155.386 46.2224 159.946 46.2854C160.842 46.2995 160.849 44.8986 159.946 44.8846Z" fill="#343A46"/>
<path d="M200.031 16.3904C188.334 16.0963 173.086 15.9492 161.388 16.3064C161.171 16.3134 161.003 16.4044 160.891 16.5305C160.73 16.6426 160.611 16.8107 160.576 17.0488C159.63 24.8937 158.054 33.3129 156.009 40.9406C155.89 41.3819 156.226 41.8231 156.681 41.8301C169.163 41.9702 181.645 42.1103 194.127 42.2504C194.414 42.2504 194.596 42.1103 194.701 41.9142C194.876 41.8442 195.023 41.7111 195.079 41.4659C196.956 33.4039 198.826 25.342 200.704 17.28C200.809 16.8317 200.501 16.4044 200.031 16.3904ZM193.79 40.8425C181.722 40.7095 169.653 40.5764 157.592 40.4363C159.497 33.1728 160.968 25.1809 161.9 17.6932C173.233 17.364 187.914 17.5041 199.156 17.7703C197.363 25.468 195.576 33.1588 193.79 40.8425Z" fill="#151921"/>
<path d="M193.79 40.8432C181.722 40.7101 169.653 40.577 157.592 40.4369C159.497 33.1734 160.968 25.1815 161.9 17.6939C173.233 17.3647 187.914 17.5048 199.156 17.7709C197.363 25.4687 195.576 33.1594 193.79 40.8432Z" fill="#343A46"/>
<path d="M135.143 116.447C134.604 115.634 133.861 114.934 133.217 114.206C132.489 113.386 131.76 112.567 131.039 111.747L128.86 109.289C128.706 109.113 128.552 108.945 128.398 108.77C128.286 108.644 128.167 108.511 128.055 108.385C128.027 108.336 128.006 108.308 127.985 108.287C128.16 108.112 128.356 107.972 128.468 107.713C128.664 107.278 128.601 106.83 128.349 106.515C129.036 105.891 129.645 105.17 130.135 104.344C130.59 103.587 129.827 102.508 128.951 102.803C126.402 103.65 123.817 103.993 121.135 103.951C118.438 103.909 115.783 103.748 113.101 104.084C110.565 104.4 108.072 104.995 105.683 105.912C104.065 106.536 102.321 107.208 100.99 108.357C100.633 107.846 100.227 107.383 99.7714 106.956C99.7574 106.648 99.6454 106.333 99.3792 106.053C95.0715 101.5 90.1545 96.8909 84.0607 95.0348C84.0677 94.6845 83.9627 94.3203 83.7035 94.0401C82.5758 92.7794 80.6426 90.9933 78.7935 91.3435C77.1895 91.6447 76.5801 93.2066 75.7046 94.3834C74.9691 95.371 76.1879 96.7998 77.2876 96.4426C77.3436 96.4216 77.4066 96.4146 77.4627 96.3936C77.5958 96.6247 77.7569 96.8489 77.981 97.052C78.2542 97.2972 78.5483 97.4022 78.8355 97.4162C78.8495 97.4232 78.8565 97.4372 78.8705 97.4442C78.7935 97.4933 78.7234 97.5563 78.6464 97.6334C75.2843 101.437 72.2515 105.527 69.6248 109.87C68.329 111.999 66.9282 114.311 66.4589 116.79C66.3468 117.386 66.3258 118.037 66.4168 118.653C66.3468 119.053 66.3398 119.466 66.4309 119.893C66.8581 121.896 68.5462 122.702 70.3533 122.975C70.7105 123.178 71.0677 123.374 71.4179 123.556C73.3371 124.544 75.3824 125.188 77.4977 125.518C75.2143 127.507 73.0289 129.601 70.9416 131.793C70.1642 132.494 69.3797 133.194 68.5952 133.895C67.9438 134.476 68.4341 135.772 69.3376 135.688C75.8237 135.1 82.3377 134.854 88.8447 134.966C90.939 135.001 94.3431 135.653 95.5198 133.32C95.772 132.823 95.807 132.298 95.9121 131.758C95.9401 131.597 95.9471 131.296 96.0732 131.177C96.2553 131.009 96.8016 131.023 97.0328 130.995C98.6227 130.778 100.269 130.785 101.859 131.002C102.23 131.051 102.58 130.967 102.832 130.743C104.857 130.722 106.888 130.694 108.912 130.673C109.528 130.736 110.152 130.757 110.768 130.715C110.887 130.708 110.992 130.68 111.09 130.645C111.77 130.638 112.442 130.631 113.122 130.624C113.689 131.31 114.747 130.946 114.929 130.105C115.174 129.699 115.188 129.139 114.88 128.81C114.81 128.48 114.712 128.151 114.593 127.829C114.375 127.227 113.969 126.484 114.081 125.826C114.109 125.658 114.165 125.518 114.228 125.385C114.74 125.104 115.237 124.803 115.72 124.488C116.386 124.404 117.114 124.523 117.632 124.712C119.299 125.335 120.833 126.568 122.199 127.682C123.516 128.761 124.7 130.112 126.185 130.967C127.537 131.744 129.162 131.941 130.45 130.925C131.662 129.972 132.089 128.382 132.58 126.996L134.562 121.427C135.108 119.872 136.173 117.995 135.143 116.447Z" fill="#FFBF24"/>
<path d="M71.9223 52.856C72.3915 52.0645 72.8748 51.28 73.3792 50.5025C74.4088 48.9195 75.5155 47.3926 76.6852 45.9077C77.5958 44.759 79.0807 43.12 80.6426 44.3527C81.9875 45.4104 81.0979 47.2595 80.7267 48.5763C80.2714 50.2013 79.8792 51.9594 80.2924 53.6335C80.5586 54.7191 81.1119 55.7208 81.8894 56.5193C82.4287 56.6313 82.9611 56.7434 83.5004 56.8555C83.9697 56.9535 84.2639 57.3948 84.2989 57.8431C84.3899 58.9357 83.4374 59.7482 82.786 60.5117C82.1976 61.1981 81.6443 61.9406 80.9648 62.529C80.2784 63.1243 79.4729 63.5586 78.5483 63.5516C77.5817 63.5446 76.6712 63.0893 75.8587 62.606C74.2757 61.6534 72.8188 60.3506 71.8032 58.8027C71.3969 58.1863 71.2288 57.5559 71.2218 56.9325C70.9837 56.4562 70.8296 55.9589 70.8436 55.4336C70.8786 54.488 71.46 53.6335 71.9223 52.856Z" fill="#5EDC10"/>
<path d="M71.2148 52.6104C71.9362 51.2725 72.7627 49.9907 73.6663 48.772C74.5979 47.5182 75.6345 46.3415 76.7482 45.2558C77.6517 44.3733 78.7794 43.0775 80.0262 42.7343C81.1259 42.4261 82.0645 43.1125 82.3236 44.1771C82.6388 45.4799 82.1625 47.0139 81.8193 48.2607C81.336 50.0117 80.2784 51.8399 81.0208 53.654C81.6092 55.0829 82.94 56.0355 84.467 56.1615C85.4336 56.2456 85.1394 57.7235 84.1798 57.6465C81.5251 57.4223 79.2417 55.0268 79.2347 52.3372C79.2277 50.5931 80.1243 48.9261 80.5235 47.252C80.7056 46.4746 81.0208 45.515 80.8947 44.7095C80.7196 43.5818 79.62 44.6885 79.1717 45.0737C76.5731 47.2941 74.3737 50.0117 72.7207 53.0026C72.3004 53.7661 71.8031 54.5856 71.656 55.4541C71.4879 56.4487 72.0273 57.2822 72.5946 58.0527C73.6243 59.4396 77.5397 62.8016 79.0946 63.5441C79.9702 63.9644 79.3048 65.3162 78.4222 64.8959C76.1178 63.7893 70.7385 59.2715 70.1851 56.6098C69.8909 55.1809 70.5564 53.8431 71.2148 52.6104Z" fill="#151921"/>
<path d="M154.517 77.5031C154.51 76.5786 154.489 75.661 154.44 74.7364C154.342 72.8523 154.16 70.9681 153.894 69.105C153.684 67.6551 153.228 65.4837 151.253 65.7639C149.558 66.002 149.397 68.0473 149.054 69.3711C148.627 71.0031 148.087 72.7192 146.882 73.959C146.105 74.7645 145.124 75.3528 144.053 75.647C143.534 75.4719 143.009 75.3038 142.491 75.1287C142.035 74.9746 141.559 75.2127 141.3 75.584C140.67 76.4805 141.083 77.6642 141.265 78.6518C141.426 79.5344 141.538 80.459 141.825 81.3135C142.112 82.175 142.596 82.9525 143.401 83.4148C144.242 83.8911 145.257 83.9611 146.203 83.9541C148.052 83.9261 149.964 83.5339 151.624 82.7074C152.29 82.3782 152.752 81.9229 153.074 81.3835C153.523 81.0964 153.908 80.7391 154.153 80.2769C154.594 79.4363 154.517 78.4067 154.517 77.5031Z" fill="#5EDC10"/>
<path d="M155.245 77.6505C155.295 76.1306 155.231 74.6106 155.056 73.0977C154.881 71.5498 154.58 70.0088 154.16 68.5029C153.824 67.2841 153.501 65.6031 152.591 64.6715C151.792 63.852 150.637 63.9711 149.88 64.7626C148.956 65.7292 148.591 67.2981 148.262 68.5449C147.8 70.296 147.793 72.4183 146.238 73.609C145.012 74.5476 143.38 74.7017 142 74.0433C141.125 73.63 140.634 75.0589 141.503 75.4722C143.912 76.6139 147.085 75.6893 148.451 73.3709C149.334 71.8649 149.397 69.9738 149.894 68.3278C150.125 67.5643 150.342 66.5767 150.854 65.9463C151.575 65.0567 151.967 66.5697 152.164 67.123C153.291 70.352 153.831 73.8051 153.754 77.2162C153.733 78.0848 153.754 79.0444 153.445 79.8709C153.088 80.8165 152.206 81.2647 151.323 81.643C149.733 82.3224 144.662 83.261 142.946 83.1209C141.979 83.0438 141.874 84.5498 142.848 84.6268C145.397 84.8299 152.318 83.6322 154.132 81.608C155.091 80.5363 155.196 79.0374 155.245 77.6505Z" fill="#151921"/>
<path d="M87.2337 17.8543C87.2197 17.9384 87.2197 18.0224 87.2057 18.1065C86.9745 18.0925 86.7364 18.1695 86.5333 18.3726C86.106 18.7999 85.7278 19.2552 85.4126 19.7385C84.8732 20.3268 84.418 20.9923 84.0187 21.6927C83.3603 22.8344 82.3867 24.3193 82.5478 25.6992C82.6319 26.3926 82.9821 27.016 83.3183 27.6113C83.7455 28.3678 84.1938 29.1243 84.6491 29.8667C85.0483 30.5181 85.4546 31.1625 85.8749 31.7999C85.7698 31.968 85.7278 32.1852 85.8398 32.4093C86.8695 34.4546 88.1653 36.3177 89.6852 38.0268C89.9444 38.314 90.4487 38.1459 90.5958 37.8377C91.5694 35.7644 92.7461 33.8032 94.1259 31.968C94.266 31.7789 94.3361 31.4637 94.168 31.2606C93.7127 30.7143 93.2504 30.1539 92.7951 29.5796C92.4309 28.9492 92.0597 28.3258 91.6954 27.6954C90.1405 25.0197 88.6416 22.218 88.3614 19.0871C88.3544 19.003 88.3334 18.926 88.3054 18.8489C88.3264 18.5898 88.3474 18.3306 88.3894 18.0715C88.5085 17.336 87.3528 17.1049 87.2337 17.8543Z" fill="#252B36"/>
<path d="M116.337 1.71659C114.102 1.19827 111.91 2.78125 110.138 3.89494C107.798 5.37285 105.487 6.89979 103.246 8.5248C101.473 9.80659 99.7644 11.2355 98.5176 13.0426C97.3759 13.9111 96.3883 14.8637 95.933 16.3066C95.4007 17.9736 95.807 19.7737 96.1362 21.4408C96.5214 23.381 97.0677 25.2861 97.7542 27.1493C97.8452 27.4014 98.0483 27.5135 98.2585 27.5205C98.6087 28.4311 99.9745 28.0248 99.9395 27.1283C104.38 24.0954 108.954 21.2587 113.661 18.6531C114.838 18.0017 116.028 17.3573 117.226 16.7339C118.235 16.2085 119.51 15.7603 120.133 14.7446C120.721 13.785 120.483 12.5453 120.357 11.4876C120.21 10.2268 119.972 8.96607 119.664 7.73331C119.349 6.48654 118.956 5.26078 118.473 4.06304C118.032 2.99138 117.555 2.00377 116.337 1.71659Z" fill="#343A46"/>
<path d="M101.677 6.57046C97.3899 9.65937 93.3064 13.0284 89.3629 16.5446C89.0477 16.5306 88.7045 16.7407 88.6905 17.147C88.6275 19.0872 89.475 20.8383 90.2595 22.5613C91.2051 24.6276 91.8004 26.834 92.774 28.8792C92.9912 29.3345 93.2223 29.7758 93.4815 30.2101C93.7196 30.5953 93.9928 31.1486 94.364 31.4148C95.1625 31.9962 95.7789 30.8404 96.1992 30.3221C96.5494 29.8949 96.8996 29.4606 97.2428 29.0333C97.523 28.6901 97.9432 28.3049 98.0203 27.8426C98.0903 27.4153 97.8592 27.0091 97.7051 26.6309C97.4809 26.0915 97.2638 25.5452 97.0537 24.9988C96.2762 22.9746 95.5407 20.8453 95.3936 18.6669C95.3236 17.6513 95.4077 16.6077 95.8629 15.6761C96.3322 14.7165 97.1237 13.932 97.8802 13.1966C99.5542 11.5716 101.466 10.2057 103.147 8.58771C103.694 8.06238 104.051 7.29191 103.589 6.59848C103.077 5.83501 102.3 6.12219 101.677 6.57046Z" fill="#89A1AE"/>
<path d="M115.657 0.862127C114.011 1.11428 112.351 2.12991 110.922 2.92841C107.707 4.72852 104.633 6.85083 101.761 9.14124C100.353 10.2619 98.9731 11.4387 97.7053 12.7134C96.6126 13.8131 95.653 15.0739 95.3308 16.6219C94.9666 18.3169 95.2678 20.117 95.555 21.7981C95.8912 23.7873 96.8438 26.7501 97.4741 28.7253C97.5162 28.7043 97.5652 28.6763 97.6072 28.6623C97.7473 28.6063 97.8804 28.5432 98.0135 28.4872C98.1886 28.3961 98.3637 28.2981 98.5248 28.186C97.6002 25.2932 96.3745 21.3078 96.3394 18.3589C96.3254 16.853 96.7807 15.5572 97.7403 14.4015C98.7209 13.2178 99.9187 12.1951 101.088 11.2005C103.596 9.06419 106.307 7.15902 109.087 5.39393C110.502 4.49737 111.945 3.64985 113.458 2.9214C114.13 2.5992 114.845 2.23497 115.573 2.05987C116.512 1.83573 117.065 2.27 117.443 3.11051C118.13 4.63746 118.557 6.33951 118.949 7.96451C119.384 9.76462 119.832 12.3562 120.014 14.1984C120.084 14.9478 121.261 14.9128 121.184 14.1633C120.841 10.6402 119.965 6.29048 118.655 2.99845C118.123 1.68163 117.212 0.630984 115.657 0.862127Z" fill="#151921"/>
<path d="M97.404 28.9285L97.3339 28.7814C96.7036 26.8131 95.751 23.8433 95.4078 21.8331C95.1276 20.2011 94.8194 18.3449 95.1906 16.6008C95.4778 15.256 96.2413 13.9952 97.6071 12.6294C98.7138 11.5157 99.9746 10.409 101.677 9.04317C104.695 6.62668 107.791 4.53239 110.859 2.81633L111.308 2.56417C112.638 1.81471 114.144 0.960183 115.643 0.72904C117.044 0.511906 118.123 1.28938 118.788 2.96342C119.986 5.96827 120.932 10.1569 121.324 14.1703C121.366 14.6256 121.037 14.8708 120.714 14.8988C120.336 14.9338 119.923 14.7167 119.874 14.2334C119.699 12.4543 119.264 9.8977 118.809 8.02054C118.403 6.3325 117.983 4.69348 117.31 3.18755C116.925 2.32602 116.4 2.02484 115.601 2.21395C114.964 2.36104 114.34 2.66923 113.731 2.96342L113.514 3.06848C112.197 3.69887 110.81 4.48335 109.157 5.534C106.04 7.50922 103.435 9.40039 101.179 11.3266C100.08 12.2652 98.8399 13.3228 97.8523 14.5136C96.9137 15.6413 96.4654 16.909 96.4864 18.3799C96.5215 21.4618 97.9153 25.8185 98.6648 28.165L98.6998 28.2701L98.6087 28.3261C98.4266 28.4452 98.2515 28.5432 98.0834 28.6273L98.0274 28.6483C97.9083 28.7043 97.7822 28.7604 97.6562 28.8094C97.6211 28.8234 97.5861 28.8444 97.5511 28.8584L97.404 28.9285ZM115.678 1.00221C114.228 1.21934 112.743 2.05986 111.441 2.80232L110.992 3.05448C107.931 4.76353 104.857 6.85082 101.845 9.26031C100.15 10.6121 98.9029 11.7118 97.7962 12.8255C96.4724 14.1563 95.73 15.3751 95.4568 16.6639C95.0996 18.3519 95.4078 20.1801 95.6809 21.791C96.0101 23.7312 96.9207 26.589 97.5511 28.5502C97.6702 28.5012 97.7892 28.4522 97.9013 28.3961L97.9503 28.3751C98.0764 28.3121 98.2095 28.235 98.3566 28.144C97.5931 25.7625 96.2343 21.4618 96.1993 18.3799C96.1852 16.839 96.6475 15.5152 97.6281 14.3314C98.6297 13.1267 99.8835 12.055 100.99 11.1095C103.26 9.17626 105.879 7.27108 109.003 5.28885C110.67 4.2312 112.064 3.44671 113.388 2.80932L113.605 2.70426C114.221 2.40307 114.866 2.09488 115.531 1.94079C116.456 1.71665 117.121 2.09488 117.562 3.07549C118.242 4.59543 118.669 6.24845 119.075 7.9505C119.531 9.84167 119.972 12.4123 120.147 14.1984C120.175 14.5065 120.448 14.6326 120.679 14.6186C120.868 14.5976 121.065 14.4785 121.037 14.1914C120.644 10.2059 119.706 6.04532 118.515 3.06148C117.906 1.50652 116.939 0.820096 115.678 1.00221Z" fill="#151921"/>
<path d="M102.93 5.29574C102.517 5.28173 102.174 5.44983 101.831 5.65996C101.214 6.03119 100.612 6.44445 100.017 6.8507C97.7332 8.37764 95.5058 10.0026 93.3485 11.7047C92.2838 12.5452 91.2402 13.4067 90.2036 14.2823C89.356 15.0037 88.4104 15.7322 88.0532 16.8389C87.759 17.7494 87.9061 18.73 88.1513 19.6336C88.4875 20.8734 88.9568 22.0991 89.4331 23.2899C90.5117 25.9935 92.508 30.035 94.0629 32.5636C94.084 32.5145 94.112 32.4655 94.133 32.4165C94.2451 32.1994 94.3781 31.9962 94.5182 31.7931C94.6023 31.688 94.7073 31.611 94.8194 31.562C93.3625 29.1315 91.4994 25.3561 90.5047 22.8346C90.0214 21.6158 89.5381 20.3691 89.2229 19.1013C89.0829 18.5269 88.9778 17.8965 89.1389 17.3152C89.314 16.6848 89.7763 16.2225 90.2526 15.7952C92.4519 13.82 94.8124 11.9989 97.2009 10.2548C98.3706 9.40027 99.5613 8.57376 100.759 7.76826C101.081 7.55113 101.403 7.341 101.726 7.13087C101.992 6.95577 102.328 6.64757 102.629 6.54951C103.211 6.3674 103.512 6.92775 103.771 7.37602C104.156 8.02743 105.151 7.40404 104.766 6.75264C104.359 6.08022 103.785 5.33076 102.93 5.29574Z" fill="#151921"/>
<path d="M94.0699 32.8509L93.9368 32.6338C92.4169 30.1612 90.4207 26.1688 89.293 23.346C88.7536 21.9942 88.3264 20.8525 88.0112 19.6758C87.808 18.9403 87.5839 17.8406 87.9131 16.804C88.2493 15.7533 89.0898 15.0459 89.9023 14.3595L90.1055 14.1844C91.1421 13.3018 92.2068 12.4333 93.2504 11.5998C95.4007 9.89772 97.6491 8.26571 99.9325 6.73877L100.276 6.50763C100.759 6.18543 101.249 5.84922 101.754 5.54803C102.076 5.35191 102.454 5.14879 102.93 5.16279C103.89 5.19782 104.506 6.05235 104.885 6.68274C105.018 6.90688 105.025 7.16603 104.906 7.39017C104.773 7.62832 104.506 7.78942 104.24 7.79642C103.988 7.80343 103.785 7.67735 103.652 7.45321L103.61 7.38317C103.309 6.87886 103.084 6.55666 102.664 6.68274C102.475 6.74578 102.258 6.90687 102.062 7.05397C101.971 7.12401 101.873 7.19405 101.789 7.25009C101.466 7.46022 101.144 7.67034 100.822 7.88748C99.6313 8.67897 98.4336 9.51948 97.2639 10.367C94.3641 12.4823 92.2208 14.1844 90.3226 15.8934C89.8743 16.2997 89.419 16.7479 89.2509 17.3433C89.0968 17.9247 89.2159 18.5621 89.335 19.0594C89.6572 20.3552 90.1615 21.644 90.6098 22.7787C91.6114 25.3212 93.4675 29.0616 94.9174 31.485L94.9945 31.6181L94.8544 31.6812C94.7493 31.7302 94.6653 31.7932 94.6022 31.8773C94.4832 32.0524 94.3501 32.2555 94.231 32.4797L94.0699 32.8509ZM102.874 5.43596C102.538 5.43596 102.237 5.57605 101.901 5.77918C101.403 6.08036 100.906 6.40957 100.43 6.73177L100.087 6.96291C97.8102 8.48284 95.5688 10.1149 93.4255 11.8099C92.3819 12.6364 91.3242 13.5049 90.2876 14.3875L90.0774 14.5626C89.3 15.221 88.4875 15.9004 88.1793 16.881C87.8711 17.8476 88.0882 18.8913 88.2773 19.5917C88.5925 20.7614 89.0198 21.8891 89.5521 23.234C90.6378 25.9656 92.543 29.797 94.0419 32.2695C94.154 32.0664 94.273 31.8773 94.3921 31.7022C94.4551 31.6181 94.5322 31.5551 94.6162 31.4991C93.1664 29.0616 91.3522 25.3843 90.3646 22.8767C89.9163 21.735 89.398 20.4392 89.0758 19.1224C88.9427 18.5971 88.8167 17.9107 88.9918 17.2663C89.1739 16.5939 89.6642 16.1176 90.1405 15.6833C92.0457 13.9672 94.196 12.2582 97.1028 10.1359C98.2795 9.28134 99.4772 8.44082 100.668 7.64933C100.99 7.4322 101.312 7.22207 101.635 7.01194C101.719 6.9559 101.803 6.89287 101.894 6.82983C102.104 6.66873 102.342 6.49362 102.58 6.41657C103.239 6.19944 103.589 6.80181 103.848 7.23607L103.89 7.29912C103.995 7.47422 104.142 7.50925 104.233 7.50224C104.401 7.50224 104.576 7.39017 104.66 7.24308C104.716 7.15202 104.751 6.99793 104.646 6.81582C104.303 6.23446 103.75 5.46398 102.923 5.42896C102.909 5.43597 102.888 5.43596 102.874 5.43596Z" fill="#151921"/>
<path d="M88.2913 16.2505C86.4422 17.3012 84.9222 19.0803 83.7105 20.8103C82.5758 22.4353 82.1205 24.1864 82.4987 26.1546C82.891 28.2349 83.9276 30.2592 84.8942 32.1223C86.0289 34.3077 88.0882 37.5086 89.5731 39.4769C90.0284 40.0722 91.023 39.4559 90.5677 38.8535C89.2509 37.1164 87.3247 34.1676 86.2881 32.2554C85.3355 30.4973 84.3969 28.6412 83.8366 26.715C83.2972 24.8518 83.5144 23.1708 84.614 21.5528C85.7207 19.9348 87.1916 18.2257 88.9077 17.2521C89.5661 16.8739 88.9427 15.8793 88.2913 16.2505Z" fill="#151921"/>
<path d="M90.0494 39.8553C89.8183 39.8553 89.6082 39.7503 89.4611 39.5541C87.9131 37.5159 85.8538 34.2799 84.7682 32.1786C83.8296 30.3645 82.7649 28.3122 82.3587 26.1689C81.9874 24.2217 82.3937 22.4426 83.5984 20.7195C85.1394 18.5132 86.6523 17.0072 88.2213 16.1177C88.6345 15.8795 89.0478 16.0967 89.2299 16.4119C89.398 16.706 89.384 17.1193 88.9778 17.3504C87.5489 18.1629 86.078 19.6338 84.7261 21.6091C83.6755 23.143 83.4303 24.796 83.9697 26.6522C84.53 28.5854 85.4686 30.4485 86.4072 32.1646C87.4158 34.0207 89.328 36.9695 90.6728 38.7486C90.8269 38.9448 90.8619 39.1689 90.7709 39.379C90.6728 39.6172 90.4277 39.7923 90.1475 39.8273C90.1195 39.8483 90.0844 39.8553 90.0494 39.8553ZM88.3614 16.3698C86.8274 17.2384 85.3495 18.7163 83.8296 20.8876C82.6739 22.5406 82.2816 24.2567 82.6388 26.1198C83.0381 28.2211 84.0887 30.2524 85.0203 32.0525C86.099 34.1398 88.1512 37.3548 89.6852 39.386C89.8253 39.5752 90.0144 39.5822 90.1125 39.5681C90.2876 39.5471 90.4557 39.4281 90.5187 39.288C90.5677 39.1689 90.5467 39.0568 90.4557 38.9378C89.1038 37.1517 87.1776 34.1818 86.162 32.3187C85.2234 30.5886 84.2709 28.7115 83.7035 26.7502C83.1432 24.81 83.4023 23.08 84.502 21.476C85.8959 19.4377 87.3528 17.9738 88.8447 17.1263C89.1038 16.9792 89.0828 16.734 88.9918 16.5659C88.8727 16.3628 88.6275 16.2227 88.3614 16.3698Z" fill="#151921"/>
<path d="M89.1949 14.2889C88.9217 14.1558 88.6135 14.1769 88.3754 14.345C86.3021 15.8299 85.8258 16.7124 85.6997 17.1327C85.6017 17.4619 85.7418 17.8051 86.05 17.9662C86.3021 18.0993 86.6313 18.0642 86.8975 18.0012C87.3318 17.8961 87.696 17.602 88.0252 17.3078C88.3474 17.0206 88.6416 16.6914 88.9007 16.3482C89.0478 16.1521 89.1879 15.9489 89.314 15.7388C89.4541 15.5077 89.6081 15.2555 89.6081 14.9753C89.6081 14.6882 89.4541 14.415 89.1949 14.2889Z" fill="#151921"/>
<path d="M86.4701 18.1977C86.281 18.1977 86.1199 18.1627 85.9798 18.0856C85.6226 17.8965 85.4475 17.4762 85.5666 17.091C85.7977 16.3205 86.7153 15.3609 88.2912 14.2262C88.5644 14.0301 88.9286 14.0021 89.2508 14.1632C89.559 14.3103 89.7481 14.6255 89.7411 14.9757C89.7411 15.2979 89.573 15.5711 89.4259 15.8162C89.3069 16.0123 89.1668 16.2155 89.0057 16.4396C88.7395 16.7968 88.4383 17.126 88.1161 17.4202C87.7729 17.7284 87.3947 18.0296 86.9324 18.1417C86.7713 18.1767 86.6172 18.1977 86.4701 18.1977ZM88.8236 14.3453C88.6905 14.3453 88.5644 14.3803 88.4593 14.4574C86.5612 15.8162 85.9868 16.6848 85.8397 17.1751C85.7627 17.4412 85.8747 17.7144 86.1199 17.8405C86.344 17.9595 86.6522 17.9175 86.8694 17.8615C87.2756 17.7634 87.6188 17.4833 87.934 17.2031C88.2492 16.9229 88.5364 16.6077 88.7885 16.2645C88.9496 16.0474 89.0827 15.8512 89.1948 15.6691C89.3279 15.452 89.468 15.2209 89.468 14.9757C89.468 14.7306 89.3419 14.5204 89.1318 14.4224C89.0337 14.3663 88.9286 14.3453 88.8236 14.3453Z" fill="#151921"/>
<path d="M94.4341 31.2253C94.1189 31.0852 93.8177 31.2533 93.6636 31.5264C92.2907 33.9219 91.002 36.3594 89.8112 38.846C89.482 39.5254 90.5607 39.9947 90.8829 39.3153C92.0806 36.8287 93.3624 34.3912 94.7353 31.9957C94.8964 31.7226 94.7002 31.3373 94.4341 31.2253Z" fill="#151921"/>
<path d="M90.3646 39.785C90.2455 39.785 90.1265 39.757 90.0144 39.708C89.7132 39.5609 89.4751 39.2107 89.6782 38.7834C90.8689 36.3039 92.1717 33.8383 93.5376 31.4569C93.7477 31.0856 94.133 30.9455 94.4902 31.0926C94.6723 31.1767 94.8334 31.3518 94.8964 31.5549C94.9525 31.737 94.9385 31.9121 94.8544 32.0592C93.4886 34.4337 92.1928 36.8922 91.002 39.3718C90.8689 39.6589 90.6098 39.785 90.3646 39.785ZM94.203 31.3168C94.0139 31.3168 93.8668 31.4569 93.7827 31.597C92.4169 33.9784 91.1211 36.4369 89.9304 38.9025C89.7973 39.1686 89.9584 39.3647 90.1335 39.4488C90.3366 39.5469 90.6168 39.5259 90.7499 39.2457C91.9476 36.7661 93.2434 34.3006 94.6092 31.9191C94.6723 31.8141 94.6443 31.702 94.6233 31.639C94.5812 31.5059 94.4832 31.3938 94.3711 31.3448C94.3151 31.3238 94.259 31.3168 94.203 31.3168Z" fill="#151921"/>
<path d="M120.287 14.2831C115.685 16.8607 110.845 18.962 106.349 21.7147C101.992 24.3833 97.9083 27.4793 94.147 30.9394C93.6007 31.4437 94.2941 32.3893 94.8474 31.878C98.6087 28.4178 102.692 25.3149 107.049 22.6533C111.546 19.9006 116.393 17.7923 120.988 15.2217C121.646 14.8505 120.939 13.9189 120.287 14.2831Z" fill="#151921"/>
<path d="M94.5042 32.1648C94.4481 32.1648 94.3851 32.1578 94.3291 32.1368C94.0839 32.0597 93.8878 31.8356 93.8247 31.5554C93.7617 31.2822 93.8458 31.0231 94.0489 30.834C97.8382 27.3458 101.95 24.2359 106.271 21.5882C108.891 19.9843 111.672 18.5764 114.354 17.2176C116.288 16.2369 118.291 15.2283 120.217 14.1497C120.462 14.0096 120.742 14.0166 120.995 14.1637C121.24 14.3108 121.394 14.5629 121.394 14.8151C121.394 15.0322 121.275 15.2143 121.065 15.3334C119.131 16.4121 117.128 17.4277 115.188 18.4083C112.505 19.7671 109.732 21.168 107.126 22.765C102.818 25.3986 98.7208 28.4945 94.9454 31.9757C94.8053 32.1017 94.6583 32.1648 94.5042 32.1648ZM120.588 14.3388C120.518 14.3388 120.434 14.3528 120.35 14.4018C118.424 15.4805 116.421 16.4961 114.48 17.4767C111.798 18.8356 109.024 20.2364 106.412 21.8334C102.104 24.467 98.0063 27.5699 94.231 31.0441C94.0559 31.2052 94.0629 31.3943 94.0909 31.4994C94.1329 31.6745 94.259 31.8286 94.4061 31.8776C94.5182 31.9126 94.6372 31.8846 94.7493 31.7795C98.5386 28.2914 102.65 25.1815 106.972 22.5338C109.591 20.9298 112.365 19.529 115.055 18.1701C116.988 17.1895 118.991 16.1809 120.917 15.1022C121.044 15.0322 121.107 14.9411 121.107 14.8221C121.107 14.675 121.002 14.5069 120.847 14.4158C120.791 14.3738 120.7 14.3388 120.588 14.3388Z" fill="#151921"/>
<path d="M120.098 14.4147C117.962 18.6733 114.298 21.9093 110.761 24.9913C106.944 28.3183 102.923 31.4282 98.5946 34.0689C96.0941 35.5958 92.753 37.494 90.0493 38.6357C89.3559 38.9299 89.7832 40.0225 90.4766 39.7284C93.2993 38.5306 96.7455 36.5624 99.3581 34.9654C101.221 33.8237 103.028 32.598 104.786 31.3092C108.87 28.2973 112.848 24.9842 116.4 21.349C118.284 19.4158 119.958 17.3005 121.17 14.884C121.506 14.2116 120.434 13.7423 120.098 14.4147Z" fill="#151921"/>
<path d="M90.2525 39.925C89.9653 39.925 89.7272 39.7289 89.6221 39.4837C89.475 39.1405 89.5591 38.6992 89.9934 38.5171C93.0192 37.2353 96.6335 35.106 98.5176 33.9573C102.426 31.5688 106.397 28.606 110.663 24.8937C114.004 21.9799 117.801 18.6809 119.965 14.3592C120.182 13.9319 120.644 13.8759 120.981 14.044C121.275 14.1911 121.499 14.5413 121.296 14.9546C120.196 17.1469 118.627 19.2762 116.498 21.4546C113.206 24.8237 109.402 28.0877 104.871 31.4287C103.056 32.7666 101.228 33.9993 99.4352 35.092C97.453 36.3038 93.6566 38.5381 90.5397 39.869C90.4346 39.904 90.3436 39.925 90.2525 39.925ZM120.217 14.4783C118.025 18.849 114.214 22.169 110.845 25.0968C106.573 28.8231 102.587 31.793 98.6647 34.1885C96.7736 35.3442 93.1453 37.4735 90.1054 38.7693C89.8253 38.8883 89.7902 39.1615 89.8813 39.3716C89.9583 39.5538 90.1475 39.7219 90.4276 39.6028C93.5305 38.286 97.3129 36.0586 99.2881 34.8469C101.074 33.7542 102.895 32.5214 104.702 31.1976C109.227 27.8705 113.017 24.6135 116.295 21.2515C118.403 19.0941 119.951 16.9928 121.044 14.8215C121.177 14.5623 121.023 14.3662 120.854 14.2822C120.644 14.1771 120.357 14.2051 120.217 14.4783Z" fill="#151921"/>
<path d="M60.5401 53.2052C56.3725 48.5543 52.401 43.7283 48.6467 38.7342C48.1144 38.0198 46.8956 38.7202 47.435 39.4417C51.2593 44.5268 55.3008 49.4508 59.5524 54.1928C60.1548 54.8652 61.1424 53.8776 60.5401 53.2052Z" fill="#343A46"/>
<path d="M17.6316 51.2507C11.6499 46.0255 6.17957 40.2469 1.30456 33.971C0.751219 33.2636 -0.411497 34.0481 0.148849 34.7625C5.0939 41.1294 10.6413 47.0061 16.7141 52.3083C17.3935 52.8967 18.3181 51.8391 17.6316 51.2507Z" fill="#343A46"/>
<path d="M20.4684 62.472C15.9015 57.8001 11.3347 53.1283 6.76791 48.4634C6.13752 47.819 5.21996 48.8766 5.85034 49.521C10.4172 54.1929 14.984 58.8648 19.5508 63.5297C20.1742 64.1741 21.0917 63.1164 20.4684 62.472Z" fill="#343A46"/>
<path d="M22.1845 82.4834C17.2675 77.5873 12.6026 72.4462 8.20388 67.0809C7.62953 66.3804 6.64892 67.382 7.21627 68.0685C11.615 73.4338 16.2869 78.575 21.1969 83.471C21.8343 84.1154 22.8289 83.1208 22.1845 82.4834Z" fill="#343A46"/>
<path d="M39.4922 116.812C35.7309 113.309 31.8365 109.961 27.809 106.774C27.1016 106.214 26.3101 107.37 27.0105 107.93C30.9469 111.04 34.7573 114.311 38.4275 117.729C39.0859 118.332 40.1506 117.428 39.4922 116.812Z" fill="#343A46"/>
<path d="M142.554 76.6348C142.855 76.4037 143.037 76.0184 142.946 75.5492C142.365 72.5933 141.363 69.7566 139.99 67.0809C139.906 66.9128 139.794 66.7937 139.668 66.7097C139.983 66.4575 140.165 66.0373 140.053 65.603C139.724 64.3142 138.596 63.3406 137.588 62.5491C136.516 61.7156 135.339 61.0782 134.086 60.5529C132.489 59.8945 130.815 59.4602 129.126 59.138C129.225 59.0119 129.309 58.8789 129.379 58.7318C130.205 57.0647 128.188 56.6515 127.032 56.4694C124.392 56.0631 121.737 56.0211 119.096 56.3293C119.117 56.1402 119.096 55.937 118.984 55.7269C117.976 53.7377 115.909 52.7221 113.969 51.8465C112.961 51.3912 111.931 50.957 110.908 50.5367C109.563 49.7522 108.163 49.0938 106.622 48.8697C106.608 48.8627 106.601 48.8627 106.587 48.8557V48.8627C106.496 48.8487 106.404 48.8277 106.306 48.8206C106.292 48.8206 106.285 48.8206 106.271 48.8206C105.424 48.2603 104.275 49.5771 105.032 50.5297C105.123 50.6488 105.214 50.7678 105.298 50.8869C105.081 50.8589 104.857 50.8309 104.639 50.8029C102.174 49.6332 99.3511 49.9974 96.5984 49.8223C95.905 49.7382 95.2046 49.6542 94.5111 49.5701C93.3414 49.43 93.0752 51.4052 94.231 51.6364C94.4131 51.6714 94.6022 51.6994 94.7843 51.7274C94.294 51.7695 93.8037 51.8045 93.3134 51.8535C92.9632 51.8955 92.69 52.0356 92.5079 52.2528C89.5801 52.7781 86.8344 54.0809 84.6 56.0421C83.0521 57.0647 81.7703 58.4446 80.8667 60.0836C80.6496 60.4758 80.7196 60.9031 80.9438 61.2183C73.4211 65.8131 64.4906 67.9915 55.6721 67.3541C55.511 67.3401 55.378 67.3611 55.2589 67.4031C51.3645 66.1143 47.386 64.7205 43.8138 62.6962C39.8354 59.2501 35.8569 55.804 31.8715 52.3578C31.4022 51.9516 30.5336 51.9236 30.2184 52.568C29.8822 53.2614 29.8542 53.9198 29.9943 54.5922C29.9873 54.6132 29.9733 54.6272 29.9733 54.6483C29.2658 57.6601 29.9172 60.8681 30.4846 63.8519C30.6667 64.8115 30.8768 65.7711 31.101 66.7167C31.0099 66.7097 30.9119 66.7097 30.8138 66.7307C29.7281 66.9338 29.532 68.0405 29.455 68.9651C29.3499 70.1698 29.3639 71.3816 29.476 72.5793C29.7071 74.9888 30.2885 77.3423 31.157 79.5977C32.3548 82.7006 34.0288 85.5653 35.8989 88.297C33.1322 87.6106 30.7017 85.7755 28.4604 84.0734C27.4517 83.3099 26.4641 84.8789 27.1856 85.7264C27.4027 85.9786 27.6338 86.2097 27.865 86.4479C27.7809 86.637 27.7459 86.8541 27.7949 87.0993C28.8666 92.8078 31.192 98.2922 34.6101 102.992C35.4226 104.113 36.2842 105.212 37.3068 106.144C38.3084 107.055 39.4431 107.769 40.6269 108.406C40.7039 108.54 40.816 108.659 40.9701 108.75C43.3165 110.13 45.775 111.299 48.3106 112.294C49.7325 112.994 51.1754 113.646 52.6883 114.157C56.9189 115.579 61.5978 115.705 66.0035 116.188C66.4588 116.237 66.9001 115.824 67.0192 115.418C67.6565 113.169 68.4901 110.991 69.4847 108.89C69.5617 108.827 69.6318 108.764 69.6948 108.673C72.1743 105.36 74.6539 102.054 77.1264 98.7405C77.3786 98.4113 77.2945 97.7318 76.9653 97.4657C76.426 97.0454 75.9216 96.5831 75.5014 96.0508C75.3123 95.8197 75.1442 95.5675 74.9901 95.3083C75.0041 95.3364 74.6188 94.699 74.6048 94.755C74.6469 94.5519 75.9006 94.1176 76.0547 94.0406C76.5871 93.7674 77.1054 93.4662 77.6027 93.137C78.8985 92.2825 80.0542 91.2528 81.0768 90.1111C83.1011 93.5152 86.7083 95.6796 89.8603 97.942C93.8807 100.821 97.7751 103.882 101.158 107.503C101.761 108.147 102.594 107.741 102.853 107.104C105.487 105.675 108.562 105.325 111.497 104.96C114.684 104.568 117.878 104.267 121.051 103.805C124.216 103.342 127.368 102.698 130.394 101.64C130.73 101.521 131.613 101.038 131.746 101.486C131.907 102.018 131.095 102.796 130.829 103.181C130.317 103.917 129.981 104.813 130.093 105.682C129.204 106.207 128.405 106.992 128.16 107.972C127.796 109.457 129.19 110.284 130.492 109.919C131.844 109.541 133.098 108.224 134.072 107.272C135.262 106.095 136.32 104.799 137.357 103.482C138.379 102.187 139.437 100.891 140.242 99.4479C141.083 97.949 141.58 96.31 141.944 94.6429C142.666 91.3649 143.177 88.0168 143.289 84.6618C143.373 81.9931 143.163 79.2685 142.554 76.6348Z" fill="#DF7FFF"/>
<path d="M75.3823 100.807C75.2352 99.5463 74.857 98.3135 74.3526 97.1508C73.9674 96.2613 73.5752 95.2176 72.9728 94.4752C71.5229 92.6891 73.4211 91.1761 74.5978 89.9504C75.3963 89.1168 76.7621 87.3167 75.5294 86.4132C74.1635 85.4116 71.8731 85.6427 70.3322 85.9229C68.9733 86.168 68.2659 84.515 69.4076 83.7235C70.4722 82.9811 71.642 82.4067 72.7487 81.7343C73.1409 81.4961 73.5471 81.251 73.9324 80.9708C70.9065 80.8868 67.8456 81.6853 64.8338 80.9358C63.7551 80.6696 63.7481 79.3038 64.5466 78.7364C66.6059 77.2725 68.8052 76.0188 70.8715 74.5619C72.6576 73.3011 74.4227 71.8442 75.5644 69.953C76.0127 69.2106 76.4539 68.307 76.489 67.4875C76.475 67.4805 76.4399 67.4665 76.3489 67.4455C76.0617 67.3894 75.8376 67.3754 75.5084 67.3824C73.281 67.4245 71.0816 68.0618 68.8893 68.363C67.4184 68.5662 65.9615 68.6082 64.4906 68.37C63.0757 68.1459 61.7238 67.5996 60.288 67.5645C60.0918 67.5575 59.9237 67.5155 59.7766 67.4455C58.4108 67.4805 57.045 67.4595 55.6791 67.3614C55.518 67.3474 55.3849 67.3684 55.2659 67.4104C51.3715 66.1216 47.393 64.7278 43.8208 62.7035C39.8423 59.2574 35.8639 55.8113 31.8784 52.3652C31.4091 51.9589 30.5406 51.9309 30.2254 52.5753C29.8892 53.2687 29.8612 53.9271 30.0013 54.5995C29.9943 54.6205 29.9802 54.6346 29.9802 54.6556C29.2728 57.6674 29.9242 60.8754 30.4916 63.8593C30.6737 64.8188 30.8838 65.7784 31.1079 66.724C31.0169 66.717 30.9188 66.717 30.8208 66.738C29.7351 66.9412 29.539 68.0478 29.4619 68.9724C29.3569 70.1772 29.3709 71.3889 29.4829 72.5866C29.7141 74.9961 30.2954 77.3496 31.164 79.605C32.3617 82.7079 34.0357 85.5727 35.9059 88.3043C33.1392 87.6179 30.7087 85.7828 28.4673 84.0807C27.4587 83.3173 26.4711 84.8862 27.1925 85.7338C27.4097 85.9859 27.6408 86.2171 27.8719 86.4552C27.7879 86.6443 27.7529 86.8615 27.8019 87.1066C28.8736 92.8151 31.199 98.2995 34.6171 102.999C35.4296 104.12 36.2911 105.22 37.3138 106.151C38.3154 107.062 39.4501 107.776 40.6338 108.414C40.7109 108.547 40.8229 108.666 40.977 108.757C43.3235 110.137 45.782 111.307 48.3176 112.301C49.7394 113.002 51.1823 113.653 52.6953 114.164C56.9259 115.586 61.6048 115.712 66.0105 116.196C66.4658 116.245 66.907 115.831 67.0261 115.425C67.6635 113.177 68.497 110.998 69.4916 108.897C69.5687 108.834 69.6387 108.771 69.7018 108.68C71.614 106.123 73.5261 103.567 75.4383 101.01C75.4103 100.961 75.3963 100.884 75.3823 100.807Z" fill="#9E5AED"/>
<path d="M112.631 120.531C111.504 118.311 109.528 116.672 107.224 115.887C107.749 115.25 107.49 114.087 106.488 114.129C104.289 114.227 102.881 115.957 101.88 117.75C100.997 119.326 100.142 120.944 99.4561 122.625C99.1058 122.828 98.7626 123.032 98.4124 123.228C97.761 123.606 97.698 124.685 98.4124 125.042C98.4755 125.077 98.5385 125.112 98.6085 125.147C98.5735 125.924 99.4351 126.324 100.1 126.043C101.81 127.227 103.217 128.775 104.247 130.617C104.772 131.563 106.166 131.094 106.208 130.085C106.278 128.194 105.97 126.324 105.326 124.565C105.662 124.783 105.97 125.021 106.208 125.161L108.884 126.779C109.801 127.332 110.817 126.24 110.32 125.343C109.633 124.096 108.863 122.905 108.029 121.757C109.178 121.743 110.32 121.834 111.454 122.072C112.365 122.261 113.058 121.364 112.631 120.531Z" fill="#DF7FFF"/>
<path d="M105.319 125.903C105.158 125.672 104.969 125.497 104.688 125.42C104.436 125.35 104.1 125.385 103.876 125.525C103.666 125.665 103.491 125.889 103.407 126.141C103.169 126.169 102.937 126.267 102.783 126.435C102.37 126.884 102.398 127.472 102.783 127.92C102.832 127.976 102.881 128.032 102.923 128.088C103 128.193 103.077 128.299 103.148 128.411C103.295 128.628 103.428 128.859 103.547 129.09C103.61 129.209 103.666 129.328 103.722 129.454C103.743 129.51 103.764 129.566 103.785 129.622C103.883 129.882 103.96 130.141 104.023 130.407C104.128 130.834 104.59 131.198 105.039 131.177C105.508 131.156 105.921 130.862 106.054 130.407C106.489 128.908 106.229 127.178 105.319 125.903Z" fill="#DF7FFF"/>
<path d="M110.229 124.685C109.591 124.054 108.947 123.424 108.31 122.794C108.113 122.604 107.84 122.485 107.567 122.485C107.308 122.485 107 122.597 106.825 122.794C106.643 122.997 106.502 123.256 106.516 123.536C106.53 123.816 106.622 124.082 106.825 124.278L108.744 126.17C108.94 126.359 109.213 126.478 109.486 126.478C109.745 126.478 110.054 126.366 110.229 126.17C110.411 125.967 110.551 125.707 110.537 125.427C110.523 125.147 110.432 124.881 110.229 124.685Z" fill="#DF7FFF"/>
<path d="M112.624 120.938C112.47 119.95 111.931 118.998 111.202 118.318C110.803 117.94 110.348 117.632 109.844 117.422C109.353 117.211 108.758 117.415 108.499 117.884C108.331 118.178 108.324 118.528 108.443 118.843C108.324 118.928 108.219 119.04 108.155 119.159C108.029 119.404 107.959 119.698 108.05 119.971C108.12 120.188 108.254 120.419 108.457 120.546C108.429 120.644 108.408 120.735 108.415 120.833C108.429 121.106 108.513 121.386 108.723 121.575C108.919 121.757 109.192 121.904 109.465 121.883C109.837 121.848 110.208 121.82 110.572 121.785C110.74 121.904 110.922 122.009 111.09 122.136C111.174 122.171 111.258 122.206 111.342 122.241C111.434 122.255 111.532 122.269 111.623 122.276C111.854 122.276 112.078 122.192 112.26 122.051C112.407 121.939 112.512 121.806 112.582 121.631C112.673 121.393 112.666 121.19 112.624 120.938Z" fill="#DF7FFF"/>
<path d="M107.973 114.668C107.924 114.493 107.833 114.332 107.7 114.206L107.49 114.045C107.329 113.947 107.147 113.904 106.958 113.897C106.783 113.897 106.615 113.925 106.439 113.954C106.355 113.968 106.271 113.989 106.187 114.017C106.103 114.045 106.026 114.08 105.949 114.108C105.872 114.143 105.795 114.171 105.718 114.213C105.641 114.255 105.564 114.297 105.494 114.353C105.375 114.416 105.27 114.507 105.2 114.626C105.109 114.731 105.046 114.843 105.011 114.983C104.969 115.123 104.962 115.263 104.99 115.403C104.997 115.543 105.039 115.677 105.116 115.796C105.172 115.866 105.228 115.936 105.277 116.006C105.41 116.139 105.564 116.223 105.739 116.279C105.83 116.293 105.928 116.307 106.019 116.314C106.208 116.314 106.383 116.265 106.551 116.174C106.615 116.125 106.685 116.097 106.755 116.055C106.811 116.034 106.874 116.02 106.93 116.006C106.937 116.006 106.944 116.006 106.951 116.006C107.098 116.013 107.231 115.978 107.357 115.915C107.49 115.873 107.602 115.803 107.693 115.698C107.798 115.6 107.868 115.487 107.91 115.361C107.973 115.235 108.008 115.102 108.001 114.955C107.994 114.857 107.987 114.759 107.973 114.668Z" fill="#DF7FFF"/>
<path d="M112.197 41.0672C111.216 39.4142 110.229 37.7611 109.248 36.1081C109.052 35.7859 108.618 35.6668 108.289 35.856C107.966 36.0451 107.84 36.4863 108.037 36.8156C109.017 38.4686 110.005 40.1216 110.985 41.7746C111.181 42.0968 111.616 42.2159 111.945 42.0268C112.274 41.8377 112.393 41.3964 112.197 41.0672Z" fill="#343A46"/>
<path d="M121.155 49.7806C118.424 45.0176 115.958 40.1006 113.773 35.0645C113.416 34.238 112.211 34.9524 112.561 35.7719C114.747 40.815 117.212 45.7251 119.944 50.488C120.392 51.2655 121.604 50.5581 121.155 49.7806Z" fill="#343A46"/>
<path d="M117.149 32.7461C116.358 31.0791 115.566 29.4191 114.782 27.752C114.621 27.4088 114.13 27.3248 113.822 27.4999C113.472 27.703 113.409 28.1163 113.57 28.4595C114.361 30.1265 115.153 31.7865 115.937 33.4536C116.098 33.7968 116.589 33.8808 116.897 33.7057C117.247 33.5026 117.317 33.0893 117.149 32.7461Z" fill="#343A46"/>
<path d="M65.9964 49.5355C64.4975 47.7914 62.9986 46.0403 61.5066 44.2962C61.2615 44.009 60.7712 44.0441 60.519 44.2962C60.2318 44.5834 60.2739 44.9966 60.519 45.2838L65.0088 50.5231C65.254 50.8102 65.7443 50.7752 65.9964 50.5231C66.2836 50.2429 66.2486 49.8226 65.9964 49.5355Z" fill="#343A46"/>
<path d="M217.402 58.9904C205.221 58.8573 193.041 58.7173 180.86 58.5842C182.822 51.1106 184.264 43.5179 185.189 35.8481C185.294 34.9586 183.893 34.9656 183.788 35.8481C182.843 43.693 181.33 51.4608 179.284 59.0885C179.165 59.5298 179.502 59.971 179.957 59.978C192.439 60.1181 204.92 60.2582 217.395 60.3983C218.306 60.4053 218.306 59.0044 217.402 58.9904Z" fill="#151921"/>
<path d="M223.3 34.5387C211.602 34.2445 196.354 34.6928 184.657 35.05C183.76 35.078 183.753 36.4789 184.657 36.4509C196.06 36.1006 211.014 35.6524 222.417 35.9255C220.61 43.7003 218.803 51.4681 216.996 59.2429C216.793 60.1185 218.144 60.4967 218.348 59.6142C220.225 51.5522 222.095 43.4902 223.972 35.4282C224.084 34.9729 223.769 34.5457 223.3 34.5387Z" fill="#151921"/>
<path d="M223.839 67.5928C216.793 67.5158 209.746 67.4387 202.693 67.3547C203.828 63.033 204.661 58.6343 205.201 54.2006C205.264 53.6823 204.451 53.6893 204.388 54.2006C203.842 58.7394 202.966 63.2361 201.782 67.6489C201.712 67.908 201.909 68.1602 202.175 68.1602C209.396 68.2442 216.618 68.3213 223.839 68.3983C224.357 68.4123 224.357 67.5998 223.839 67.5928Z" fill="#151921"/>
<path d="M223.846 68.7557H223.839L202.175 68.5175C201.944 68.5175 201.719 68.4055 201.579 68.2164C201.439 68.0272 201.39 67.7891 201.446 67.565C202.63 63.1522 203.505 58.6415 204.045 54.1657C204.08 53.8855 204.255 53.6544 204.514 53.5423C204.78 53.4302 205.081 53.4583 205.292 53.6194C205.488 53.7664 205.579 53.9976 205.551 54.2567C205.032 58.5574 204.22 62.8511 203.148 67.0256L223.846 67.2568C224.119 67.2568 224.35 67.3969 224.483 67.628C224.624 67.8732 224.617 68.1813 224.476 68.4195C224.336 68.6296 224.112 68.7557 223.846 68.7557ZM204.85 54.1587C204.843 54.1587 204.808 54.1657 204.78 54.1797C204.752 54.1937 204.745 54.2147 204.738 54.2427C204.192 58.7535 203.309 63.2923 202.119 67.7401L202.175 67.8101L223.839 68.0483C223.874 68.0342 223.881 67.9922 223.867 67.9572L223.832 67.9362L202.238 67.698L202.35 67.2638C203.477 62.9911 204.318 58.5784 204.85 54.1587Z" fill="#151921"/>
<path d="M227.25 53.4368C220.484 53.2617 211.659 53.5279 204.893 53.731C204.374 53.745 204.367 54.5575 204.893 54.5435C211.491 54.3404 220.148 54.0812 226.746 54.2353C225.702 58.7321 224.659 63.2289 223.608 67.7256C223.489 68.23 224.273 68.4471 224.393 67.9428C225.478 63.2779 226.564 58.613 227.643 53.9481C227.706 53.689 227.523 53.4438 227.25 53.4368Z" fill="#151921"/>
<path d="M224.028 68.5871C223.825 68.5871 223.629 68.5101 223.475 68.37C223.279 68.1879 223.202 67.9217 223.265 67.6485L226.305 54.5785C219.679 54.4384 211.161 54.6975 204.899 54.8937C204.479 54.8866 204.164 54.5995 204.15 54.1722C204.136 53.7309 204.451 53.3947 204.878 53.3807C211.007 53.1916 220.26 52.9114 227.257 53.0865C227.488 53.0935 227.699 53.1986 227.839 53.3807C227.979 53.5628 228.035 53.801 227.979 54.0321L224.729 68.0268C224.666 68.2859 224.491 68.4821 224.245 68.5521C224.182 68.5801 224.105 68.5871 224.028 68.5871ZM222.207 53.843C223.79 53.843 225.317 53.857 226.746 53.892L227.173 53.899L223.937 67.8096C223.979 67.8867 224.021 67.8937 224.035 67.8867L227.292 53.871L227.236 53.787C220.267 53.6119 211.014 53.892 204.899 54.0811C204.843 54.1372 204.85 54.1792 204.857 54.1932C209.908 54.0391 216.408 53.843 222.207 53.843Z" fill="#151921"/>
<path d="M205.46 54.8797C211.658 54.6906 219.874 54.4525 226.304 54.5855L223.363 67.2424L203.141 67.0182C204.164 63.0398 204.934 58.9632 205.46 54.8797Z" fill="#343A46"/>
<path d="M212.66 38.5241C208.675 38.6852 204.689 38.7762 200.697 38.7903C199.793 38.7973 199.793 40.1981 200.697 40.1911C204.682 40.1771 208.675 40.086 212.66 39.9249C213.564 39.8899 213.564 38.4891 212.66 38.5241Z" fill="#343A46"/>
<path d="M210.034 45.1924C202.581 45.2204 195.135 45.2484 187.683 45.2835C186.779 45.2905 186.779 46.6913 187.683 46.6843C195.135 46.6563 202.581 46.6283 210.034 46.5933C210.937 46.5863 210.937 45.1854 210.034 45.1924Z" fill="#343A46"/>
<path d="M192.291 48.386C190.54 48.2389 188.782 48.2599 187.031 48.456C186.653 48.4981 186.331 48.7502 186.331 49.1565C186.331 49.4997 186.653 49.8989 187.031 49.8569C188.775 49.6608 190.54 49.6328 192.291 49.7869C192.67 49.8219 192.992 49.4436 192.992 49.0864C192.992 48.6802 192.67 48.421 192.291 48.386Z" fill="#343A46"/>
<path d="M170.655 48.0786C169.149 59.7548 167.643 71.431 166.137 83.1142C165.703 86.4693 165.276 89.8174 164.842 93.1725C164.73 94.062 166.13 94.055 166.242 93.1725C167.748 81.4962 169.254 69.82 170.76 58.1368C171.195 54.7817 171.622 51.4337 172.056 48.0786C172.175 47.1891 170.774 47.1961 170.655 48.0786Z" fill="#343A46"/>
<path d="M194.365 71.2484C188.243 78.617 182.31 86.1396 176.588 93.8234C176.048 94.5448 177.204 95.3433 177.736 94.6219C183.459 86.9451 189.392 79.4155 195.513 72.0469C196.095 71.3465 194.939 70.555 194.365 71.2484Z" fill="#343A46"/>
<path d="M134.66 91.4276C133.469 94.2993 131.354 96.8279 128.748 98.4529C125.862 100.253 122.521 100.806 119.222 100.764C112.05 100.68 104.681 98.67 98.4686 95.1048C92.8581 91.8899 87.9761 86.8257 87.1215 79.9895C86.6873 76.5083 87.5068 72.9782 89.6151 70.1344C90.6167 68.7826 91.8495 67.6409 93.2293 66.7373C94.7212 65.7637 96.4443 64.9932 98.1744 64.643C99.7503 64.3418 107.147 63.2842 113.927 68.1032C113.738 68.5024 113.892 69.0768 114.445 69.1048C120.385 69.399 126.521 70.8699 131.032 74.9954C131.046 75.0094 131.046 75.0234 131.06 75.0374C135.43 79.0649 137.02 85.733 134.66 91.4276Z" fill="white"/>
<path d="M132.005 90.6229C130.85 93.5017 128.867 96.0723 126.479 97.7603C123.831 99.6305 120.812 100.282 117.85 100.345C111.406 100.478 104.843 98.7129 99.3722 95.3788C94.4342 92.367 90.2035 87.499 89.6432 80.7538C89.356 77.3147 90.2035 73.7915 92.1858 70.9127C93.1243 69.5469 94.2731 68.3702 95.5408 67.4386C96.9137 66.43 98.4827 65.6105 100.052 65.2112C101.474 64.868 108.156 63.5862 114.095 68.153C113.913 68.5523 114.032 69.1196 114.53 69.1336C119.853 69.2387 125.323 70.5135 129.253 74.4569C129.267 74.4709 129.267 74.485 129.281 74.499C133.084 78.3513 134.303 84.9074 132.005 90.6229Z" fill="#FCFA9C"/>
<path d="M136.229 87.4421C136.726 82.2169 134.219 77.2438 130.219 73.9798C128.006 72.1726 125.442 71.0239 122.76 70.1064C121.387 69.6371 120.014 69.1888 118.571 68.9927C117.03 68.7826 115.475 68.8456 113.927 68.9437C113.038 68.9997 112.989 70.4006 113.892 70.3445C115.279 70.2535 116.68 70.1834 118.06 70.3305C119.376 70.4706 120.637 70.8628 121.891 71.2831C124.434 72.1376 126.878 73.1533 129.014 74.7993C132.895 77.7831 135.297 82.469 134.821 87.4071C134.737 88.3036 136.138 88.3386 136.229 87.4421Z" fill="white"/>
<path d="M114.333 67.9704C112.554 66.5765 110.46 65.785 108.303 65.1757C106.033 64.5313 103.673 64.125 101.312 64.139C97.2849 64.167 93.2013 65.5819 90.4697 68.6288C89.8673 69.3012 90.8759 70.2748 91.4783 69.6024C93.9858 66.8077 97.6701 65.5679 101.354 65.5399C103.435 65.5259 105.501 65.8691 107.504 66.4084C109.563 66.9618 111.658 67.6482 113.353 68.979C114.067 69.5253 115.048 68.5237 114.333 67.9704Z" fill="white"/>
<path d="M96.1431 52.5398C96.2061 52.0005 95.8909 51.5662 95.3796 51.3911C92.9981 50.5856 90.3155 51.6013 88.2352 52.778C86.2039 53.9267 84.4809 55.5377 83.136 57.4359C82.8068 57.8982 83.052 58.6056 83.5073 58.8718C83.6333 58.9418 83.7594 58.9838 83.8855 59.0048C84.1306 59.1309 84.4178 59.173 84.67 59.1029C85.0902 58.9908 85.3284 58.6686 85.3984 58.2904C85.4335 58.2414 85.5105 58.1083 85.5175 58.0943C85.5945 57.9822 85.6716 57.8701 85.7556 57.7651C85.8607 57.625 85.9798 57.4849 86.0989 57.3518C86.4211 56.9806 86.7713 56.6234 87.1425 56.2942C87.8709 55.6428 88.6835 55.1034 89.545 54.6622C91.2681 53.7796 93.1802 53.3734 95.1064 53.4574C95.6388 53.4854 96.087 53.0372 96.1431 52.5398Z" fill="#DF7FFF"/>
<path d="M106.047 50.0326C102.048 48.7998 97.7891 48.6597 93.7056 49.5843C92.3888 49.8785 92.9421 51.9097 94.2589 51.6085C97.9852 50.768 101.852 50.9431 105.501 52.0638C106.797 52.4561 107.336 50.4248 106.047 50.0326Z" fill="#DF7FFF"/>
<path d="M118.641 54.9775C117.17 53.3595 115.237 52.3088 113.241 51.4683C110.943 50.4947 108.583 49.7032 106.159 49.0868C104.85 48.7576 104.303 50.7819 105.613 51.1181C107.847 51.6854 110.047 52.3929 112.176 53.2824C114.004 54.0529 115.79 54.9705 117.142 56.4624C118.06 57.457 119.545 55.9791 118.641 54.9775Z" fill="#E7BCFA"/>
<path d="M139.332 62.8786C136.033 60.259 132.012 59.0682 128.006 57.9755C126.703 57.6183 126.157 59.6496 127.46 60.0068C131.06 60.9874 134.856 61.996 137.833 64.3635C138.274 64.7137 138.884 64.8048 139.318 64.3705C139.689 64.0063 139.773 63.2358 139.332 62.8786Z" fill="#E7BCFA"/>
<path d="M143.577 76.1657C143.037 71.1646 140.796 66.4507 137.189 62.9416C136.215 61.996 134.723 63.4739 135.697 64.4195C138.898 67.5364 140.999 71.732 141.475 76.1868C141.538 76.7471 141.923 77.2304 142.533 77.2304C143.058 77.2234 143.64 76.7331 143.577 76.1657Z" fill="#E7BCFA"/>
<path d="M141.552 75.8573C141.153 74.5685 139.129 75.1148 139.528 76.4106C141.314 82.2032 140.915 88.367 139.01 94.0755C138.001 97.1014 136.572 99.9802 134.884 102.684C133.273 105.261 131.417 107.657 129.063 109.597C128.02 110.459 129.505 111.944 130.541 111.089C133.021 109.037 134.996 106.459 136.691 103.741C138.477 100.877 139.962 97.8158 141.034 94.6078C143.051 88.5911 143.436 81.979 141.552 75.8573Z" fill="#E7BCFA"/>
<path d="M132.671 98.8178C128.699 101.83 123.838 102.635 118.984 102.775C119.138 102.173 118.739 101.465 117.99 101.444C114.109 101.325 103.589 103.826 101.137 107.657C100.409 108.799 106.636 106.228 107.798 105.528C109.9 104.253 112.407 104.078 114.803 103.735C114.754 104.295 115.146 104.877 115.832 104.891C122.01 104.989 128.622 104.505 133.728 100.639C134.786 99.8335 133.749 98.0053 132.671 98.8178Z" fill="#DF7FFF"/>
<path d="M89.8953 95.8544C87.0586 94.0613 84.1027 92.2192 82.1415 89.4385C81.4761 90.1459 80.7547 90.7763 79.9842 91.3437C80.2924 91.6378 80.6146 91.932 80.9368 92.2192C81.4411 92.6605 81.4481 92.7515 81.8123 92.3383C83.5634 94.1944 85.6857 95.6723 87.8501 97.0522C90.9179 98.9994 95.4848 101.416 97.5931 104.47C98.3565 105.576 101.88 109.597 101.789 108.245C101.347 101.899 92.9842 97.8016 89.8953 95.8544Z" fill="#DF7FFF"/>
<path d="M131.382 116.167C132.334 117.071 133.266 117.995 134.184 118.927C134.471 119.221 134.758 119.522 135.045 119.823C135.325 119.123 135.626 118.43 135.956 117.757C135.136 116.917 134.31 116.076 133.469 115.257C131.305 113.169 129.063 111.166 126.752 109.247C125.715 108.392 123.425 108.399 124.469 109.261C126.563 111.005 129.4 114.283 131.382 116.167Z" fill="#FFBF24"/>
<path d="M129.168 105.318C129.799 104.779 130.324 104.113 130.688 103.35C131.074 102.544 129.869 101.83 129.477 102.642C128.762 104.141 127.459 105.101 125.82 105.367C125.064 105.486 125.246 106.509 125.827 106.719C126.003 106.782 126.185 106.838 126.36 106.88C125.169 107.083 123.831 106.852 122.732 106.628C120.805 106.236 118.879 105.878 116.932 105.647C113.08 105.199 109.108 105.325 105.452 106.719C104.618 107.034 104.976 108.393 105.823 108.071C109.879 106.53 114.256 106.607 118.487 107.258C122.038 107.805 127.032 109.864 129.708 106.376C130.009 105.976 129.624 105.367 129.168 105.318Z" fill="#FFBF24"/>
<path d="M128.146 133.272C128.104 133.111 127.978 132.935 127.824 132.851C127.663 132.767 127.466 132.725 127.284 132.781C127.102 132.837 126.976 132.942 126.864 133.104C126.535 133.58 126.199 134.063 125.869 134.539C125.771 134.68 125.75 134.918 125.799 135.079C125.848 135.24 125.967 135.415 126.122 135.499C126.283 135.583 126.479 135.625 126.661 135.569C126.843 135.513 126.969 135.401 127.081 135.247C127.41 134.771 127.747 134.287 128.076 133.811C128.174 133.671 128.195 133.433 128.146 133.272Z" fill="#FFBF24"/>
<path d="M99.9535 106.578C96.7735 103.048 92.1507 101.64 87.745 100.33C84.3479 99.3217 78.9335 97.9418 77.4836 94.2576C77.6447 94.4117 77.8058 94.5658 77.9739 94.7129C78.6603 95.3012 79.5639 94.4187 78.9685 93.7253C78.6533 93.361 78.4152 92.9478 78.2471 92.5205C77.4766 92.9968 76.6851 93.4381 75.8796 93.8653C76.8392 97.8578 81.4551 99.819 85.1043 100.989C89.9723 102.551 95.3727 103.594 98.9449 107.559C99.5613 108.231 100.556 107.244 99.9535 106.578Z" fill="#FFBF24"/>
<path d="M77.1894 96.6948C76.9162 96.6317 76.6571 96.5547 76.4119 96.4426C76.4189 96.3726 76.4189 96.3025 76.4259 96.2325C76.573 94.9857 75.1442 94.6565 74.2686 95.0978C73.4981 94.9857 72.6296 95.0768 71.9292 95.0698C73.9674 93.9351 75.7465 92.4221 76.9303 90.2998C77.4766 89.3192 78.191 87.9464 77.6447 86.8467C77.0984 85.754 75.9567 85.5789 74.85 85.5369C73.4141 85.4878 71.9782 85.4458 70.5423 85.4038L71.9011 84.4932C73.253 83.5967 75.1512 82.7421 75.5994 81.0471C75.8236 80.1996 75.1722 79.24 74.2476 79.275C72.2023 79.3521 70.1571 79.4361 68.1048 79.5132C67.1662 79.5482 66.2206 79.5832 65.2821 79.6252C67.2923 78.0983 69.5337 76.8795 71.586 75.4086C74.2826 73.4754 76.6571 71.122 77.7498 67.921C78.1 66.8984 77.0073 65.9178 76.0267 66.1979C69.8279 67.963 63.3979 68.5164 56.9889 67.865C56.2325 67.7879 55.5881 68.5654 55.5881 69.2658C55.5881 70.0853 56.2325 70.5896 56.9889 70.6667C62.5714 71.227 68.2239 70.8698 73.7013 69.6651C72.5175 71.248 70.8925 72.5298 69.2675 73.6155C66.5078 75.4577 63.566 77.0546 61.2266 79.4501C60.7152 79.9684 60.6592 80.914 61.2266 81.4323C62.8165 82.8752 65.114 82.434 67.0752 82.3569C68.1328 82.3149 69.1835 82.2729 70.2411 82.2308C70.031 82.3709 69.8139 82.511 69.6037 82.6581C68.1959 83.5967 66.788 84.5353 65.3871 85.4668C64.2384 86.2303 64.6657 88.0374 66.0946 88.0795C67.7826 88.1285 69.4776 88.1775 71.1657 88.2265C71.9852 88.2476 72.7977 88.2756 73.6172 88.2966C74.0235 88.3106 74.4367 88.3176 74.843 88.3316H74.85C74.5768 88.997 74.0375 89.6764 73.6662 90.1177C72.9658 90.9512 72.1323 91.6657 71.2217 92.247C69.0994 93.6059 66.6689 94.3133 64.2524 94.9507C62.7045 95.3569 63.0547 97.6684 64.6237 97.7034C66.2346 97.7384 67.8386 97.7734 69.4496 97.8085C70.2551 97.8225 71.0606 97.8435 71.8591 97.8575C72.2023 97.8645 72.5455 97.8715 72.8958 97.8785C73.1269 97.8855 73.358 97.8855 73.5822 97.8925C73.6102 97.8995 73.6172 97.8995 73.6382 97.8995C73.6732 98.1727 73.7223 98.4389 73.7923 98.705C69.2045 103.034 66.4378 108.805 64.0143 114.549C64.0143 114.549 64.0143 114.556 64.0073 114.556C63.9582 114.668 63.9092 114.78 63.8672 114.892C63.2578 116.342 65.7934 117.428 66.4308 115.971C69.1695 109.674 73.0078 103.923 77.8128 99.0132C78.5132 98.3128 78.2401 96.9329 77.1894 96.6948Z" fill="#9E5AED"/>
<path d="M86.1129 56.8339C83.4302 59.4675 80.7125 62.1151 77.2804 63.7542C73.8063 65.4072 69.8418 66.0726 66.0875 66.787C66.0735 66.787 66.0034 67.3614 65.9824 67.3614C62.6274 67.3894 59.8747 68.0198 56.5686 67.5085C53.9 67.0952 50.706 65.127 48.2125 64.0904C45.7259 63.0537 43.4355 61.6108 41.2502 60.0489C38.6305 58.1787 36.109 56.1755 33.5524 54.2213C33.3493 54.0672 33.0271 54.0111 32.7189 54.0392C32.6278 53.843 32.5578 53.6469 32.5088 53.4438C32.1025 51.6857 29.2447 51.4616 29.651 53.2196C29.8962 54.2773 30.6736 56.1054 31.311 56.967C32.0045 57.9055 32.7259 58.8161 33.4894 59.6987C34.9183 61.3517 36.4872 62.8856 38.1683 64.2865C41.6214 67.1653 45.4878 69.4977 49.6834 71.1367C54.0821 72.8598 58.9291 73.7703 63.65 73.3011C68.448 72.8248 72.7976 70.8495 76.9302 68.4611C81.3289 65.9115 85.3914 62.7525 88.3192 58.5429C89.2368 57.1981 87.2195 55.7412 86.1129 56.8339Z" fill="#DF7FFF"/>
<path d="M107.287 51.5805C102.804 49.5773 97.7262 49.2831 93.0823 50.9501C92.2558 51.2443 91.9546 52.0218 92.1507 52.6802C88.4454 53.4366 85.0483 55.5309 82.7229 58.6479C82.2676 59.2572 82.6248 60.2098 83.2272 60.5671C83.9416 60.9873 84.6911 60.6721 85.1464 60.0627C88.0112 56.2174 93.2434 54.3752 97.8943 55.4469C99.6734 55.8602 100.311 53.3736 98.6367 52.7432C98.5877 52.7222 98.5317 52.7082 98.4826 52.6872C100.997 52.5331 103.54 52.9464 105.872 53.99C106.566 54.2982 107.378 54.1931 107.791 53.4857C108.135 52.8973 107.98 51.8887 107.287 51.5805Z" fill="#DF7FFF"/>
<path d="M118.27 55.082C114.873 52.4974 110.957 50.6132 106.825 49.5276C105.081 49.0653 104.338 51.769 106.082 52.2312C109.998 53.2609 113.633 55.054 116.855 57.5055C117.457 57.9608 118.424 57.6036 118.774 57.0012C119.194 56.2797 118.879 55.5443 118.27 55.082Z" fill="#DF7FFF"/>
<path d="M102.531 113.568C97.0327 112.195 91.3942 111.453 85.7277 111.348C84.3759 111.32 84.3759 113.421 85.7277 113.449C91.2121 113.547 96.6475 114.269 101.971 115.593C103.281 115.922 103.841 113.897 102.531 113.568Z" fill="#FFBF24"/>
<path d="M100.64 116.889C100.115 116.714 99.5893 116.539 99.064 116.363C98.8959 116.307 98.6717 116.349 98.5246 116.433C98.3775 116.518 98.2375 116.686 98.2024 116.854C98.1114 117.239 98.3215 117.589 98.6927 117.715C99.2181 117.89 99.7434 118.065 100.269 118.241C100.437 118.297 100.661 118.255 100.808 118.171C100.955 118.086 101.095 117.918 101.13 117.75C101.214 117.365 101.011 117.015 100.64 116.889Z" fill="#FFBF24"/>
<path d="M99.4142 119.579C99.3231 119.438 99.169 119.284 98.9939 119.256C98.5317 119.193 98.0834 119.067 97.6561 118.885C97.6981 118.899 97.7332 118.92 97.7752 118.934C97.6981 118.885 97.6071 118.857 97.516 118.85C97.425 118.829 97.3269 118.836 97.2358 118.864C97.0747 118.906 96.8996 119.032 96.8156 119.186C96.7315 119.347 96.6895 119.544 96.7455 119.726C96.7946 119.887 96.9066 120.076 97.0677 120.146C97.5651 120.363 98.0764 120.531 98.6157 120.601C98.7068 120.629 98.8048 120.636 98.8959 120.615C98.9869 120.608 99.078 120.58 99.155 120.531C99.3021 120.447 99.4422 120.279 99.4772 120.111C99.5263 119.936 99.5123 119.733 99.4142 119.579Z" fill="#FFBF24"/>
<path d="M96.7245 125.084C96.6194 124.922 96.4864 124.824 96.3042 124.761C95.7089 124.551 95.1135 124.341 94.5181 124.131C94.357 124.075 94.1259 124.117 93.9788 124.201C93.8317 124.285 93.6916 124.453 93.6566 124.621C93.6146 124.803 93.6216 125 93.7267 125.161C93.8317 125.322 93.9648 125.42 94.1469 125.483C94.7423 125.693 95.3376 125.903 95.933 126.113C96.0941 126.169 96.3253 126.127 96.4724 126.043C96.6194 125.959 96.7595 125.791 96.7945 125.623C96.8366 125.448 96.8226 125.245 96.7245 125.084Z" fill="#FFBF24"/>
<path d="M98.9098 112.84C96.9906 117.981 94.3429 122.821 91.0719 127.234C90.5326 127.956 91.7513 128.656 92.2837 127.942C95.6317 123.431 98.3004 118.472 100.262 113.218C100.577 112.371 99.225 112.007 98.9098 112.84Z" fill="#FF9501"/>
<path d="M127.957 129.805C126.941 128.88 125.912 127.97 124.875 127.066C123.271 125.42 121.772 123.655 119.958 122.24C119.51 121.89 118.907 121.806 118.473 122.24C118.179 122.535 118.074 123.081 118.27 123.473C118.186 123.823 118.256 124.223 118.536 124.454C120.371 125.939 122.157 127.48 123.929 129.035C124.714 129.819 125.526 130.561 126.409 131.241C126.423 131.255 126.444 131.269 126.458 131.29C126.528 131.346 126.598 131.402 126.668 131.458C127.081 131.766 127.74 131.57 128.027 131.185C128.342 130.786 128.349 130.162 127.957 129.805Z" fill="#FF9501"/>
<path d="M93.5024 128.292C88.5363 128.362 83.6053 127.781 78.7933 126.548C78.5972 126.499 78.4081 126.513 78.24 126.569C78.0719 126.485 77.9037 126.401 77.7356 126.317C76.5379 125.686 75.4803 127.5 76.678 128.131C81.581 130.708 86.8202 132.586 92.2556 133.657C92.977 133.797 93.5094 133.356 93.5864 132.642C93.6915 131.675 93.9787 130.743 94.4199 129.875C94.7561 129.181 94.3359 128.278 93.5024 128.292Z" fill="#FF9501"/>
<path d="M80.1452 98.8529C78.6743 98.6008 77.6587 99.4413 76.608 100.373C75.6765 101.206 74.8079 102.103 74.0024 103.056C72.2864 105.073 70.8225 107.3 69.5477 109.619C68.2869 111.909 66.9141 114.389 66.1926 116.917C65.5342 119.228 65.9405 122.009 68.2029 123.27C68.8543 123.634 69.4636 123.249 69.6878 122.717C70.3322 122.465 71.1307 123.235 70.4793 122.626C69.0084 121.267 68.8122 117.561 69.4566 115.831C70.1851 113.863 71.3618 112 72.4895 110.242C74.7659 106.691 77.5116 103.469 80.6145 100.604C81.1539 100.107 80.9297 98.986 80.1452 98.8529Z" fill="#FF9501"/>
<path d="M99.9885 110.319C98.7488 106.578 94.8684 105.346 91.4432 104.379C87.2126 103.188 83.2482 101.346 79.3188 99.4058C79.0036 99.2517 78.7024 99.3428 78.5063 99.5389C78.3592 99.644 78.2681 99.7981 78.2681 99.9942C78.2401 100.176 78.2961 100.351 78.4502 100.492C79.1997 101.913 81.1679 102.67 82.5618 103.258C84.3339 104.008 86.176 104.547 88.0181 105.107C89.8533 105.668 91.7024 106.235 93.4255 107.097C95.4427 108.098 97.1378 109.534 98.8258 111.005C99.3091 111.425 100.22 111.026 99.9885 110.319Z" fill="#FF9501"/>
<path d="M128.041 109.653C127.901 109.674 127.768 109.688 127.628 109.702C127.523 109.457 127.305 109.247 127.011 109.212C123.768 108.876 120.532 108.434 117.317 107.888C116.988 107.832 116.736 107.986 116.589 108.203C115.699 107.937 114.789 107.734 113.822 107.636C111.392 107.384 108.877 107.531 106.461 107.888C104.142 108.231 101.95 108.953 100.087 110.396C99.3722 110.949 100.374 111.93 101.074 111.383C103.028 109.87 105.536 109.338 107.946 109.1C110.558 108.848 113.297 108.743 115.867 109.387C119.937 110.403 124.763 114.339 128.734 110.816C129.295 110.319 128.664 109.548 128.041 109.653Z" fill="#FF9501"/>
<path d="M115.118 92.7027C115.097 92.5626 115.041 92.4435 114.957 92.3385C114.894 92.2194 114.803 92.1213 114.684 92.0443C114.6 92.0023 114.515 91.9602 114.431 91.9182C114.249 91.8552 114.067 91.8412 113.885 91.8762L113.633 91.9602C113.465 92.0443 113.332 92.1564 113.227 92.3104C113.192 92.3525 113.164 92.3945 113.129 92.4365C113.045 92.5556 112.989 92.6817 112.975 92.8288C112.932 92.9619 112.932 93.1019 112.961 93.242C112.982 93.3821 113.038 93.5012 113.122 93.6062C113.185 93.7253 113.276 93.8234 113.395 93.9004C113.479 93.9425 113.563 93.9845 113.647 94.0265C113.829 94.0895 114.011 94.1036 114.193 94.0685L114.445 93.9845C114.614 93.9004 114.747 93.7884 114.852 93.6343C114.887 93.5922 114.915 93.5502 114.95 93.5082C115.034 93.3891 115.09 93.263 115.104 93.1159C115.153 92.9829 115.153 92.8428 115.118 92.7027Z" fill="white"/>
<path d="M117.135 92.058C116.743 91.5957 116.112 91.6097 115.65 91.9389C115.37 92.1421 115.069 92.3242 114.761 92.4853C114.298 92.5903 113.843 92.7795 113.416 92.9196C113.164 92.9966 112.911 93.0806 112.659 93.1577C112.638 93.0736 112.617 92.9826 112.603 92.8915C112.75 92.5203 112.904 92.1561 113.087 91.8059C113.423 91.1545 113.241 90.5381 112.568 90.2159C112.428 90.1528 112.288 90.1178 112.155 90.1038C111.945 89.5785 111.223 89.3263 110.726 89.5785L109.458 90.2299C109.381 90.2719 109.283 90.3139 109.185 90.356C108.933 89.6695 108.849 88.9341 108.898 88.1986C108.947 87.4142 108.289 87.0359 107.686 87.141C107.665 86.9869 107.644 86.8258 107.623 86.6717C107.56 86.1043 106.916 85.7401 106.39 85.8452C105.795 85.9643 105.501 86.5106 105.564 87.0779C105.746 88.738 106.012 90.391 106.39 92.016C106.706 93.4028 107.182 94.8037 108.338 95.7143C109.549 96.6739 111.321 96.6809 112.764 96.3307C114.144 96.0015 115.426 95.308 116.449 94.3274C116.638 94.1453 116.743 93.9282 116.778 93.704C116.862 93.648 116.946 93.592 117.03 93.5289C117.478 93.2067 117.478 92.4643 117.135 92.058Z" fill="#E3636E"/>
<path d="M106.019 92.4502C106.384 93.8441 106.944 95.2029 108.114 96.1205C109.395 97.1291 111.209 97.2132 112.778 96.912C111.216 94.6426 108.632 93.3538 106.019 92.4502Z" fill="#FFADD2"/>
<path d="M110.558 89.6625C110.614 89.5294 110.628 89.3893 110.607 89.2492C110.607 89.1091 110.579 88.9831 110.516 88.857C110.46 88.7309 110.376 88.6258 110.271 88.5418C110.173 88.4367 110.054 88.3667 109.921 88.3247C109.83 88.3036 109.739 88.2896 109.647 88.2686C109.465 88.2546 109.29 88.2896 109.122 88.3737C109.045 88.4227 108.975 88.4718 108.898 88.5208C108.751 88.6469 108.653 88.7939 108.59 88.9761C108.548 89.1512 108.499 89.3263 108.457 89.5014C108.401 89.6345 108.387 89.7745 108.408 89.9146C108.408 90.0547 108.436 90.1808 108.499 90.3069C108.555 90.4329 108.639 90.538 108.744 90.6221C108.842 90.7271 108.961 90.7972 109.094 90.8392C109.185 90.8602 109.276 90.8742 109.367 90.8952C109.549 90.9092 109.725 90.8742 109.893 90.7902L110.117 90.6431C110.264 90.517 110.362 90.3699 110.425 90.1878C110.467 90.0127 110.516 89.8376 110.558 89.6625Z" fill="white"/>
<path d="M103.624 75.0313C103.624 74.52 103.456 74.0227 103.035 73.7005C102.629 73.3853 102.076 73.3503 101.627 73.5954C100.85 74.0227 100.262 74.8702 99.8764 75.6547C99.8204 75.7738 99.7784 75.8929 99.7363 76.012C99.3441 76.6774 99.0079 77.4268 99.0149 78.1973C99.0219 78.7436 99.169 79.304 99.7153 79.5561C100.157 79.7593 100.626 79.6402 101.025 79.395C101.403 79.1639 101.712 78.8277 102.013 78.5055C102.3 78.1903 102.559 77.8541 102.776 77.4829C103.203 76.7614 103.617 75.8859 103.624 75.0313Z" fill="#151921"/>
<path d="M129.736 84.4864C129.736 83.9751 129.568 83.4778 129.147 83.1556C128.741 82.8404 128.188 82.8054 127.74 83.0505C126.962 83.4778 126.374 84.3253 125.989 85.1098C125.932 85.2289 125.89 85.348 125.848 85.467C125.456 86.1324 125.12 86.8819 125.127 87.6524C125.134 88.1987 125.281 88.7591 125.827 89.0112C126.269 89.2143 126.738 89.0953 127.137 88.8501C127.515 88.619 127.824 88.2828 128.125 87.9606C128.412 87.6454 128.671 87.3092 128.888 86.9379C129.316 86.2165 129.729 85.3409 129.736 84.4864Z" fill="#151921"/>
<path d="M117.611 83.7298C117.576 83.5757 117.485 83.4286 117.359 83.3235C117.485 83.0994 117.506 82.8192 117.401 82.5811C117.303 82.364 117.149 82.2239 116.981 82.0628C116.371 81.5094 115.58 81.1802 114.767 81.0612H114.76C114.711 81.0401 114.662 81.0121 114.613 80.9911C114.235 80.837 113.773 80.6269 113.381 80.83C113.233 80.9071 113.128 81.0121 113.058 81.1242C112.946 81.1452 112.841 81.1872 112.764 81.2573C112.463 81.5234 112.442 81.9227 112.666 82.2449C113.17 82.9663 113.906 83.4496 114.669 83.8489C115.363 84.2131 116.238 84.7454 117.044 84.5353C117.394 84.4442 117.695 84.115 117.611 83.7298Z" fill="white"/>
<path d="M116.4 80.9844C115.216 80.41 113.878 80.6412 112.659 80.9704C112.267 81.0754 111.98 81.4397 112.064 81.8599C112.141 82.2382 112.554 82.5604 112.953 82.4553C113.43 82.3292 113.913 82.2101 114.403 82.1541C114.775 82.1121 115.251 82.1541 115.601 82.2802C115.65 82.3012 115.706 82.3222 115.755 82.3432C115.769 82.3502 115.797 82.3642 115.811 82.3712C115.902 82.4203 115.986 82.4833 116.077 82.5393C116.098 82.5533 116.119 82.5744 116.14 82.5884C116.168 82.6164 116.203 82.6514 116.231 82.6864C116.259 82.7215 116.294 82.7565 116.323 82.7915C116.33 82.7985 116.351 82.8265 116.365 82.8545C116.379 82.8825 116.421 82.9596 116.421 82.9596C116.442 83.0016 116.456 83.0437 116.477 83.0857C116.484 83.0927 116.484 83.0997 116.484 83.1067C116.491 83.1487 116.505 83.1907 116.512 83.2328C116.519 83.2608 116.519 83.2958 116.526 83.3238C116.526 83.3378 116.526 83.3799 116.526 83.4079C116.526 83.4499 116.512 83.4989 116.512 83.541C116.512 83.548 116.505 83.562 116.498 83.576C116.393 83.9542 116.554 84.4165 116.96 84.5356C117.331 84.6476 117.807 84.4795 117.919 84.0733C118.291 82.7845 117.562 81.5447 116.4 80.9844Z" fill="#151921"/>
<path d="M101.705 73.5318C100.675 73.1816 99.6453 72.8314 98.6156 72.4882C98.2444 72.3621 97.7751 72.5582 97.656 72.9505C97.537 73.3427 97.7191 73.777 98.1183 73.9101C99.148 74.2603 100.178 74.6105 101.207 74.9537C101.578 75.0798 102.048 74.8837 102.167 74.4914C102.286 74.1062 102.104 73.6719 101.705 73.5318Z" fill="#151921"/>
<path d="M101.354 75.8783C101.361 75.4301 101.067 75.1569 100.654 75.0728C99.5122 74.8487 98.3635 74.6245 97.2218 74.4004C97.0467 74.3654 96.8086 74.4704 96.6825 74.5825C96.5424 74.7016 96.4233 74.9187 96.4163 75.1078C96.4093 75.5561 96.7035 75.8293 97.1168 75.9134C98.2585 76.1375 99.4072 76.3616 100.549 76.5858C100.724 76.6208 100.962 76.5157 101.088 76.4037C101.235 76.2776 101.354 76.0675 101.354 75.8783Z" fill="#151921"/>
<path d="M129.309 83.681C130.331 84.0452 131.354 84.4094 132.377 84.7737C132.748 84.9068 132.993 85.355 132.839 85.7333C132.685 86.1115 132.279 86.3426 131.879 86.1955C130.857 85.8313 129.834 85.4671 128.811 85.1029C128.44 84.9698 128.195 84.5215 128.349 84.1433C128.503 83.7721 128.909 83.5409 129.309 83.681Z" fill="#151921"/>
<path d="M128.132 85.7336C128.405 85.3763 128.804 85.3483 129.183 85.5374C130.219 86.0698 131.256 86.6091 132.293 87.1414C132.447 87.2185 132.573 87.4566 132.608 87.6177C132.643 87.7998 132.601 88.038 132.489 88.1921C132.215 88.5493 131.816 88.5773 131.438 88.3882C130.401 87.8559 129.365 87.3165 128.328 86.7842C128.174 86.7072 128.048 86.469 128.013 86.3079C127.978 86.1258 128.02 85.8877 128.132 85.7336Z" fill="#151921"/>
<path d="M118.473 91.792C114.936 91.1266 109.115 87.4003 107.245 84.3394C106.776 83.5689 105.655 84.4094 106.124 85.1799C108.184 88.556 114.396 92.4574 118.27 93.1858C119.159 93.3469 119.362 91.9601 118.473 91.792Z" fill="#151921"/>
<path d="M106.404 84.5713C106.397 84.5713 106.397 84.5782 106.39 84.5782C106.3 84.6268 106.362 84.606 106.404 84.5713Z" fill="#151921"/>
<path d="M108.338 83.2615C108.282 82.9183 107.938 82.561 107.553 82.6521C106.951 82.7922 106.369 82.9953 105.823 83.2965C105.235 83.6187 104.716 84.0039 104.233 84.4732C104.114 84.5923 104.065 84.8374 104.086 84.9985C104.107 85.1666 104.205 85.3558 104.345 85.4608C104.492 85.5659 104.681 85.6429 104.871 85.6079C105.06 85.5729 105.193 85.4818 105.333 85.3488C105.291 85.3908 105.235 85.4468 105.312 85.3698C105.34 85.3488 105.361 85.3207 105.389 85.2997C105.438 85.2577 105.487 85.2157 105.536 85.1736C105.634 85.0896 105.732 85.0125 105.837 84.9355C105.942 84.8585 106.054 84.7814 106.166 84.7114C106.222 84.6763 106.271 84.6413 106.327 84.6133C106.355 84.5993 106.397 84.5853 106.418 84.5573C106.411 84.5573 106.411 84.5643 106.404 84.5643C106.629 84.4452 106.86 84.3331 107.098 84.2421C107.217 84.193 107.336 84.151 107.455 84.116C107.525 84.095 107.588 84.074 107.658 84.053C107.679 84.046 107.707 84.0389 107.728 84.0389C107.91 83.9969 108.064 83.9339 108.191 83.7798C108.296 83.6537 108.366 83.4366 108.338 83.2615Z" fill="#151921"/>
<path d="M106.51 72.4252C106.321 72.159 106.061 71.9209 105.816 71.6967C105.375 71.2835 104.892 70.9052 104.373 70.583C104.044 70.3729 103.638 70.0507 103.225 70.0997C102.881 70.1418 102.608 70.4009 102.552 70.7441C102.503 71.0103 102.608 71.2765 102.769 71.4796C103.127 71.9419 103.519 72.3971 103.953 72.7964C104.429 73.3497 105.039 73.791 105.739 74.0361C106.124 74.1692 106.461 74.0361 106.664 73.6859C106.909 73.2797 106.762 72.7754 106.51 72.4252Z" fill="#151921"/>
<path d="M132.902 80.9287C132.629 80.7536 132.292 80.6345 131.984 80.5225C131.417 80.3053 130.829 80.1512 130.226 80.0462C129.841 79.9761 129.344 79.836 128.979 80.0392C128.678 80.2073 128.531 80.5575 128.601 80.8867C128.657 81.1459 128.86 81.356 129.084 81.4821C129.596 81.7763 130.128 82.0424 130.681 82.2455C131.333 82.5747 132.068 82.7499 132.804 82.7078C133.21 82.6868 133.469 82.4347 133.525 82.0284C133.595 81.5661 133.266 81.1599 132.902 80.9287Z" fill="#151921"/>
<path d="M111.574 88.8576C111.315 88.5774 110.887 88.5284 110.586 88.7806C110.173 89.1308 109.739 89.46 109.304 89.7822C109.206 89.8522 109.101 89.9223 109.003 89.9923C109.164 89.467 109.318 88.9347 109.479 88.4093C109.584 88.0591 109.423 87.6318 109.045 87.5198C108.695 87.4147 108.268 87.5758 108.156 87.954C108.009 88.4443 107.861 88.9276 107.714 89.418C107.644 89.6631 107.567 89.9082 107.497 90.1534C107.434 90.3775 107.35 90.6087 107.357 90.8398C107.364 91.19 107.49 91.5263 107.798 91.7224C108.128 91.9395 108.534 91.9115 108.877 91.7434C109.129 91.6173 109.36 91.4422 109.591 91.2881C109.795 91.155 109.991 91.0149 110.194 90.8748C110.642 90.5526 111.076 90.2164 111.504 89.8592C111.784 89.6071 111.833 89.1308 111.574 88.8576Z" fill="#151921"/>
<path d="M116.603 91.7291C116.54 91.7221 116.47 91.7011 116.407 91.6941C116.344 91.6801 116.274 91.6731 116.21 91.652C116.161 91.638 116.119 91.617 116.077 91.596C115.958 91.54 115.832 91.4839 115.72 91.4069C115.636 91.3509 115.552 91.2878 115.475 91.2178C115.16 91.547 114.831 91.8622 114.48 92.1494C114.284 92.3105 114.081 92.4645 113.871 92.6046C113.92 92.4856 113.969 92.3595 114.025 92.2404C114.06 92.1704 114.095 92.0933 114.13 92.0233C114.137 92.0093 114.137 92.0023 114.144 91.9953C114.151 91.9883 114.151 91.9812 114.158 91.9742C114.235 91.8342 114.312 91.6871 114.389 91.547C114.564 91.2318 114.55 90.7835 114.207 90.5734C113.913 90.3913 113.423 90.4123 113.234 90.7555C112.946 91.2668 112.687 91.7921 112.463 92.3385C112.358 92.5906 112.26 92.8428 112.176 93.1019C112.064 93.4241 112.008 93.7604 112.176 94.0755C112.386 94.4608 112.841 94.6429 113.269 94.5308C113.535 94.4608 113.773 94.3207 114.011 94.1806C114.466 93.9074 114.908 93.6133 115.321 93.2841C115.762 92.9338 116.168 92.5486 116.547 92.1353C116.659 92.0093 116.736 91.8902 116.764 91.7291C116.708 91.7361 116.659 91.7361 116.603 91.7291Z" fill="#151921"/>
<path d="M117.73 92.1703C116.358 93.354 114.866 94.3837 113.241 95.1892C111.721 95.9456 109.935 96.499 108.485 95.2942C107.098 94.1525 106.727 92.1843 106.552 90.4893C106.369 88.6962 106.531 86.868 106.972 85.1309C107.189 84.2624 105.872 83.7931 105.648 84.6687C105.123 86.742 104.955 88.8713 105.2 91.0006C105.431 93.0108 106.04 95.1261 107.686 96.4429C109.346 97.7738 111.413 97.5286 113.248 96.7301C115.209 95.8756 117.03 94.6288 118.641 93.235C119.327 92.6396 118.417 91.5749 117.73 92.1703Z" fill="#151921"/>
<path d="M132.075 74.1129C131.445 73.5315 130.429 74.4491 131.06 75.0305C135.43 79.0579 137.013 85.7261 134.653 91.4206C133.462 94.2924 131.347 96.8209 128.741 98.4459C125.855 100.246 122.514 100.799 119.215 100.757C112.043 100.673 104.674 98.6631 98.4616 95.0979C92.8511 91.8829 87.9691 86.8187 87.1145 79.9825C86.6803 76.5014 87.4998 72.9712 89.6081 70.1274C90.6097 68.7756 91.8425 67.6339 93.2223 66.7303C94.7282 65.7497 96.4723 64.9722 98.2234 64.622C99.0709 64.4539 98.8048 63.1091 97.9572 63.2772C95.975 63.6764 94.0348 64.566 92.3818 65.6867C88.6835 68.1872 86.0709 72.2638 85.7067 76.9286C85.1393 84.2341 89.496 90.6081 95.0645 94.5585C101.431 99.0763 109.402 101.5 117.135 102.039C120.658 102.284 124.329 102.06 127.635 100.568C130.611 99.2164 133.168 96.8419 134.849 93.9772C138.652 87.5332 137.427 79.0509 132.075 74.1129Z" fill="#151921"/>
<path d="M132.082 74.1063C127.277 69.7006 120.889 68.0406 114.529 67.7324C113.668 67.6904 113.577 69.0632 114.438 69.1052C120.392 69.3994 126.542 70.8773 131.06 75.0239C131.69 75.5982 132.72 74.6877 132.082 74.1063Z" fill="#151921"/>
<path d="M97.5301 64.6922C97.3199 64.6222 97.1588 64.4401 97.1098 64.2019C97.0398 63.8377 97.2709 63.4735 97.6211 63.3824C98.0204 63.2843 107.581 60.9939 115.944 67.9352C116.218 68.1593 116.26 68.5866 116.029 68.8878C115.804 69.189 115.398 69.245 115.125 69.0139C107.245 62.4718 97.9573 64.6782 97.8663 64.6992C97.7472 64.7342 97.6351 64.7272 97.5301 64.6922Z" fill="#151921"/>
<path d="M130.962 101.066C127.046 103.314 121.912 103.405 116.925 103.489C114.186 103.538 111.602 103.58 109.36 104C106.524 104.526 103.056 106.627 101.586 107.58C100.822 106.116 98.6787 102.915 93.3694 99.6788C88.7256 96.8491 84.2078 93.6971 80.9017 90.6152C80.5375 90.9234 80.1593 91.2246 79.767 91.5048C83.1291 94.6847 87.731 97.8857 92.641 100.877C99.218 104.883 100.612 108.805 100.619 108.84C100.689 109.051 100.85 109.219 101.06 109.289C101.074 109.296 101.088 109.296 101.102 109.303C101.298 109.359 101.515 109.317 101.684 109.198C101.733 109.17 106.285 105.997 109.605 105.38C111.735 104.988 114.263 104.939 116.946 104.89C121.842 104.806 127.305 104.701 131.55 102.333C131.347 101.913 131.158 101.486 130.962 101.066Z" fill="#151921"/>
<path d="M131.746 101.248C131.662 100.877 131.242 100.66 130.885 100.758C130.506 100.863 130.31 101.248 130.394 101.619C130.569 102.355 130.289 103.574 129.848 104.218C129.358 104.946 128.636 105.514 127.971 106.067C127.677 106.305 127.719 106.803 127.964 107.055C128.251 107.342 128.664 107.3 128.951 107.062C129.764 106.389 130.583 105.689 131.151 104.785C131.718 103.875 131.991 102.306 131.746 101.248Z" fill="#151921"/>
<path d="M130.836 105.507C130.843 104.603 129.442 104.617 129.435 105.521C129.421 106.809 128.041 107.468 126.962 107.755C125.835 108.056 124.651 108.056 123.495 107.951C121.03 107.727 118.606 107.111 116.148 106.788C113.696 106.473 111.217 106.305 108.744 106.48C106.131 106.669 103.645 107.335 101.144 108.105C100.283 108.371 100.647 109.723 101.516 109.457C104.359 108.582 107.161 107.881 110.145 107.818C112.954 107.755 115.748 108.084 118.508 108.554C120.981 108.974 123.523 109.639 126.052 109.345C128.167 109.093 130.815 107.993 130.836 105.507Z" fill="#151921"/>
<path d="M101.663 108.21C99.197 106.697 96.6684 105.275 94.0488 104.043C91.5483 102.866 88.9637 101.927 86.3721 100.982C83.7665 100.036 81.1329 99.0345 78.8144 97.4935C77.4836 96.611 75.8656 94.8739 75.9567 93.2139C75.6204 93.452 75.2843 93.6832 74.927 93.8863C74.836 93.9353 74.7449 93.9703 74.6469 93.9983C74.7869 95.014 75.2422 96.0156 75.9006 96.8141C77.7218 99.0135 80.6846 100.246 83.2622 101.29C86.246 102.502 89.3349 103.44 92.2767 104.764C95.2746 106.109 98.1534 107.706 100.948 109.415C101.726 109.891 102.433 108.679 101.663 108.21Z" fill="#151921"/>
<path d="M138.491 118.528C137.448 117.407 136.348 116.335 135.262 115.264C132.965 112.994 130.611 110.788 128.216 108.631C127.544 108.028 125.898 108.554 126.57 109.156C128.72 111.089 131.487 113.52 133.56 115.544C134.597 116.553 135.62 117.575 136.628 118.612C137.09 119.081 137.7 119.571 138.022 120.16C138.351 120.762 138.295 121.463 138.183 122.121C137.931 123.613 137.259 125.014 136.621 126.373C136.033 127.619 135.409 128.845 134.737 130.043C134.968 130.05 135.199 130.106 135.409 130.253C135.683 130.064 136.005 129.987 136.334 130.05C137.714 127.5 139.409 124.587 139.647 121.659C139.738 120.405 139.339 119.438 138.491 118.528Z" fill="#151921"/>
<path d="M105.69 50.8935C105.102 50.5083 105.025 49.8709 105.235 49.3596C101.053 48.2949 95.1905 47.4824 91.4082 49.4156C91.1 49.5767 90.9039 49.997 90.9949 50.3262C88.5994 50.8795 86.1829 52.6656 84.1937 54.7879C82.8069 56.2659 79.753 61.2109 78.9125 62.7168C78.8564 62.8149 78.8284 62.9129 78.8144 63.011C79.3817 62.6188 79.9491 62.2335 80.5305 61.8553C80.8036 61.6802 81.0698 61.4981 81.336 61.316C82.6388 59.2707 84.3828 56.7281 85.4055 55.7335C87.7939 53.4011 90.7568 51.5239 93.5095 51.3628C94.1679 51.3208 94.399 50.2561 93.7336 50.032L93.6636 50.011C96.9556 48.9743 102.146 49.976 105.466 50.8515C105.564 50.8795 105.676 50.9145 105.781 50.9426C105.739 50.9285 105.711 50.9075 105.69 50.8935Z" fill="#151921"/>
<path d="M143.731 82.7637C143.703 81.3559 143.597 79.99 143.345 78.7432C143.745 78.8063 144.207 78.4491 144.186 78.0218C144.018 73.5951 142.764 69.2664 140.544 65.449C140.894 65.5751 141.237 65.6942 141.58 65.8413C142.281 66.1425 143.009 65.323 142.407 64.7276C138.806 61.1414 134.247 58.6338 129.358 57.373C128.881 57.7513 128.391 58.1085 127.894 58.4657C131.872 59.3132 135.655 61.0293 138.891 63.5228C138.414 63.5649 138.036 64.1392 138.337 64.5805C140.635 67.9566 142.078 71.809 142.582 75.8365C142.568 75.8224 142.554 75.8014 142.54 75.7874C142.071 75.2061 141.209 75.8715 141.384 76.4879C141.979 78.6242 142.204 80.9006 142.246 83.184C142.743 83.0159 143.233 82.8758 143.731 82.7637Z" fill="#151921"/>
<path d="M119.159 56.1406C119.194 56.0146 119.243 55.9025 119.327 55.7974C119.475 55.6293 119.629 55.4682 119.804 55.3281C119.902 55.2511 120.007 55.181 120.119 55.118C118.263 53.0868 115.874 51.6929 113.402 50.5302C111.945 49.8438 106.657 47.5113 104.394 47.9526C103.932 48.0436 103.729 48.5409 103.911 48.9542C104.275 49.8017 104.822 50.4811 105.522 51.0625C106.215 51.6369 106.993 50.4741 106.306 49.8998C106.075 49.7107 105.879 49.4935 105.704 49.2624C106.853 49.3324 111.665 51.2516 112.94 51.847C115.237 52.9257 117.45 54.2425 119.159 56.1406Z" fill="#151921"/>
<path d="M130.632 111.747C130.499 111.712 130.373 111.635 130.282 111.523C130.03 111.229 130.065 110.788 130.359 110.535C130.429 110.479 137.35 104.519 140.025 96.6108C143.1 87.5192 142.169 80.2767 142.162 80.1997C142.106 79.8144 142.379 79.4642 142.764 79.4082C143.149 79.3591 143.499 79.6253 143.555 80.0035C143.597 80.3117 144.55 87.6312 141.363 97.0521C138.561 105.331 131.571 111.341 131.277 111.593C131.088 111.754 130.85 111.803 130.632 111.747Z" fill="#151921"/>
<path d="M134.148 134.687H95.0784L96.4792 131.535H134.148V134.687Z" fill="#343A46"/>
<path d="M94.7633 135.737C94.6793 135.737 94.5882 135.723 94.5042 135.688C94.1469 135.541 93.9718 135.135 94.1119 134.777L95.6249 130.995C95.7299 130.729 95.9891 130.554 96.2763 130.554H130.836C131.221 130.554 131.536 130.869 131.536 131.254C131.536 131.639 131.221 131.955 130.836 131.955H96.7526L95.4147 135.296C95.3027 135.569 95.0435 135.737 94.7633 135.737Z" fill="#151921"/>
<path d="M84.642 57.3165C79.1086 63.5644 70.6894 66.219 62.6064 67.0315C58.1026 67.4868 52.9054 66.2541 48.7799 64.2578C45.3338 62.5908 43.0574 61.0919 40.1576 58.6334C36.9286 55.8877 33.7066 53.0789 29.9523 51.0687C29.49 50.8235 28.8946 51.1247 28.9016 51.6711C28.9436 58.5633 32.0536 65.2735 37.3208 69.7282C38.0072 70.3096 39.0018 69.322 38.3084 68.7406C33.6225 64.7832 30.7227 59.0046 30.3375 52.9038C36.8025 56.7352 40.9701 61.8904 47.7222 65.3015C51.8058 67.3607 56.9259 68.8807 61.4507 68.5375C65.7374 68.2153 70.038 67.3958 74.0795 65.8968C78.4502 64.2718 82.5127 61.8203 85.6226 58.3112C86.232 57.6317 85.2444 56.6371 84.642 57.3165Z" fill="#151921"/>
<path d="M41.8735 83.9334C33.3142 76.859 28.9295 65.3299 30.4565 54.3611C30.5825 53.4716 29.1817 53.4225 29.0556 54.3051C27.8088 63.2286 30.3934 72.4813 35.8288 79.6397C37.3697 81.671 39.1558 83.4921 41.117 85.1171C41.8175 85.6915 42.5599 84.5007 41.8735 83.9334Z" fill="#151921"/>
<path d="M67.1102 115.593C67.3413 115.488 67.5795 115.404 67.8106 115.32C61.6188 115.586 55.385 114.914 49.5574 112.721C42.1958 109.955 35.6888 104.862 32.1096 97.76C31.0379 95.6307 30.1974 93.3893 29.469 91.1129C29.0907 89.9222 28.7405 88.7244 28.4113 87.5197C28.1662 86.6231 27.858 85.5445 28.1381 84.6339C30.3025 86.6932 32.775 88.3882 35.4857 89.663C36.1581 89.9782 36.6904 89.1727 36.3402 88.6123C32.4808 82.4626 27.956 74.8559 30.7648 67.4593C30.6107 66.8709 30.5056 66.2756 30.4075 65.6732C30.4075 65.6662 30.4075 65.6662 30.4075 65.6592C30.1834 65.6662 29.9593 65.7783 29.8332 66.0444C26.4921 73.3359 29.9873 80.8165 33.8256 87.1975C31.8434 86.0207 30.0293 84.5989 28.3973 82.9459C28.1311 82.6727 27.6268 82.7778 27.4097 83.0439C26.0158 84.767 26.8143 87.0364 27.3536 88.9346C27.977 91.1339 28.6705 93.3193 29.525 95.4416C31.157 99.4831 33.4614 103.139 36.5643 106.2C42.7632 112.322 51.2524 115.607 59.8257 116.497C62.0531 116.728 64.2945 116.798 66.5288 116.756C66.4448 116.3 66.5989 115.817 67.1102 115.593Z" fill="#151921"/>
<path d="M103.862 112.735C97.6141 111.502 91.2682 110.858 84.9013 110.816C83.9977 110.809 83.9977 112.21 84.9013 112.217C90.855 112.259 96.7876 112.833 102.636 113.933C100.598 118.093 98.4196 122.177 96.0802 126.176C95.849 126.575 95.6249 127.157 95.2747 127.486C94.8754 127.864 94.175 127.675 93.6777 127.64C92.3539 127.542 91.0301 127.416 89.7133 127.262C87.3038 126.982 84.9083 126.596 82.5268 126.113C80.1944 125.644 77.883 125.084 75.5925 124.439C73.3091 123.795 70.9627 123.122 68.8544 122.016C67.9928 121.56 67.0403 120.965 66.7881 119.949C66.5149 118.836 67.0052 117.554 67.3485 116.496C68.0419 114.332 68.9945 112.259 70.1082 110.276C71.3059 108.14 72.6787 106.109 74.1356 104.141C75.6346 102.109 77.1965 100.015 79.2768 98.5371C78.8846 98.25 78.4853 97.9698 78.0931 97.6826C76.363 99.0274 74.9902 100.715 73.6664 102.46C72.1534 104.449 70.7175 106.494 69.4427 108.651C68.196 110.753 67.1173 112.959 66.2978 115.263C65.5764 117.309 64.6238 119.886 66.2138 121.771C67.6216 123.431 70.1292 124.187 72.1114 124.845C74.717 125.714 77.3786 126.421 80.0543 127.024C82.6459 127.605 85.2585 128.074 87.8921 128.439C89.1599 128.614 90.4277 128.761 91.7025 128.88C92.8652 128.992 94.4902 129.405 95.6039 128.95C96.6265 128.53 97.1238 127.199 97.6351 126.316C98.4266 124.95 99.2041 123.578 99.9606 122.198C101.474 119.431 102.916 116.622 104.289 113.786C104.464 113.393 104.338 112.833 103.862 112.735Z" fill="#151921"/>
<path d="M108.219 115.691C108.744 115.327 109.248 114.927 109.724 114.479C110.103 114.122 109.879 113.421 109.374 113.316C107.091 112.861 104.807 113.225 102.783 114.374C101.999 114.815 102.748 116.006 103.533 115.558C104.751 114.871 106.096 114.521 107.469 114.528C106.839 114.976 106.159 115.376 105.438 115.684C104.611 116.041 104.969 117.197 105.858 117.022C108.898 116.412 111.651 118.514 112.127 121.427C110.698 121.28 109.269 121.133 107.847 120.986C107.196 120.916 106.65 121.652 107.203 122.177C107.826 122.772 108.401 123.41 108.898 124.117C109.15 124.474 109.381 124.839 109.598 125.224C109.696 125.392 109.788 125.56 109.872 125.735C109.9 125.784 109.914 125.84 109.935 125.889C109.752 125.805 109.57 125.721 109.388 125.637C108.933 125.427 108.485 125.217 108.029 125.007C107.126 124.586 106.215 124.159 105.312 123.739C104.821 123.515 104.037 123.956 104.31 124.565C104.87 125.798 105.466 127.094 105.522 128.467C105.55 129.209 105.347 129.728 105.151 130.4C105.123 130.379 105.095 130.351 105.06 130.323C104.941 130.043 104.646 129.763 104.464 129.524C102.937 127.598 100.766 125.84 98.6366 124.607C97.8521 124.152 97.1937 125.392 97.9712 125.84C99.4001 126.667 101.018 127.836 102.174 129.02C102.762 129.623 103.302 130.267 103.799 130.946C104.149 131.43 104.492 132.025 105.165 132.032C106.453 132.046 106.846 130.057 106.916 129.083C107 127.92 106.727 126.814 106.327 125.742C107.182 126.141 108.036 126.534 108.884 126.933C109.633 127.283 110.915 128.054 111.441 126.94C111.861 126.05 111.083 124.944 110.649 124.222C110.299 123.634 109.9 123.073 109.465 122.541C110.565 122.653 111.658 122.765 112.757 122.877C113.206 122.926 113.626 122.674 113.619 122.17C113.549 118.857 111.202 116.307 108.219 115.691Z" fill="#151921"/>
<path d="M100.99 107.966C96.6825 108.974 92.1857 108.638 88.0602 107.062C87.2197 106.74 86.8554 108.092 87.6889 108.414C92.0456 110.081 96.8296 110.382 101.368 109.317C102.237 109.114 101.866 107.762 100.99 107.966Z" fill="#151921"/>
<path d="M88.9078 107.531C88.8377 107.279 88.6556 107.131 88.4175 107.04C88.4034 107.033 88.3894 107.033 88.3754 107.026C88.2914 106.921 88.1863 106.837 88.0462 106.809C86.6804 106.571 85.3566 106.921 84.2779 107.783C83.9277 108.063 84.0538 108.686 84.418 108.883C85.8118 109.625 87.64 109.366 88.7326 108.21C88.9008 108.028 88.9778 107.776 88.9078 107.531Z" fill="#151921"/>
<path d="M100.794 108.372C100.402 108.281 100.066 108.491 99.9324 108.862C99.8764 109.023 99.8204 109.177 99.7573 109.331C99.7433 109.359 99.7293 109.394 99.7223 109.422C99.7223 109.429 99.7153 109.436 99.7083 109.457C99.6733 109.534 99.6382 109.612 99.6032 109.689C99.4561 110.004 99.295 110.312 99.1269 110.613C98.9588 110.907 98.7767 111.187 98.5876 111.461C98.5386 111.531 98.4895 111.601 98.4405 111.664C98.4125 111.699 98.3915 111.734 98.3635 111.762C98.3564 111.769 98.3424 111.79 98.3284 111.811C98.3144 111.832 98.2864 111.86 98.2864 111.867C98.2584 111.902 98.2374 111.93 98.2094 111.965C98.1533 112.035 98.0903 112.112 98.0272 112.182C97.8942 112.343 97.8241 112.553 97.8381 112.756H99.1129C99.183 112.756 99.253 112.763 99.323 112.777C100.164 111.699 100.836 110.515 101.291 109.226C101.403 108.883 101.144 108.449 100.794 108.372Z" fill="#151921"/>
<path d="M126.549 130.533C123.789 128.187 121.064 125.792 118.375 123.361C117.702 122.752 116.806 123.823 117.471 124.433C120.161 126.863 122.886 129.259 125.645 131.605C126.332 132.194 127.235 131.122 126.549 130.533Z" fill="#151921"/>
<path d="M77.1194 125.049C76.8813 125.035 76.6502 124.944 76.454 124.804C76.2439 124.706 76.0338 124.608 75.8236 124.51C75.7536 124.524 75.6765 124.531 75.6065 124.531C75.7046 124.86 75.8236 125.238 75.7886 125.504C75.7186 126.009 75.1792 126.366 74.843 126.695C74.1846 127.34 73.5262 127.984 72.8678 128.628C70.5074 130.933 68.1469 133.244 65.7935 135.549C66.5359 135.387 67.2994 135.303 68.0629 135.289L74.85 128.649C75.4944 128.019 76.2509 127.417 76.8112 126.709C77.2385 126.17 77.2245 125.644 77.1194 125.049Z" fill="#151921"/>
<path d="M117.415 123.073C116.379 124.019 115.209 124.775 113.934 125.357C113.731 125.448 113.57 125.742 113.584 125.959C113.731 127.542 114.046 129.097 114.558 130.603C114.845 131.45 116.197 131.086 115.909 130.232C115.482 128.978 115.195 127.682 115.041 126.365C116.267 125.756 117.394 124.985 118.41 124.061C119.075 123.451 118.081 122.464 117.415 123.073Z" fill="#151921"/>
<path d="M81.511 88.6402C76.4749 93.8724 69.1414 96.562 61.9549 96.0297C64.1893 95.3573 66.2836 94.2506 68.1327 92.7447C68.8332 92.1773 67.8386 91.1897 67.1451 91.7571C64.4695 93.9354 61.1494 95.1962 57.7033 95.3573C56.9398 95.3923 56.7227 96.534 57.5142 96.7301C66.3676 98.9855 76.1597 96.2118 82.5056 89.6278C83.129 88.9764 82.1414 87.9887 81.511 88.6402Z" fill="#151921"/>
<path d="M126.815 134.554L138.379 99.4553L182.296 99.3223L171.384 134.82L126.815 134.554Z" fill="#343A46"/>
<path d="M161.543 109.072C157.795 112.518 154.055 115.957 150.308 119.404C149.642 120.013 150.637 121.001 151.295 120.391C155.043 116.945 158.783 113.506 162.53 110.06C163.203 109.45 162.208 108.463 161.543 109.072Z" fill="#3D4352"/>
<path d="M157.851 117.47C154.468 120.383 151.239 123.479 148.185 126.736C147.569 127.395 148.557 128.389 149.173 127.724C152.227 124.467 155.456 121.371 158.839 118.457C159.525 117.869 158.531 116.881 157.851 117.47Z" fill="#3D4352"/>
<path d="M157.809 122.626C157.508 122.345 157.123 122.373 156.822 122.626C155.813 123.452 154.889 124.377 154.062 125.385C153.943 125.532 153.859 125.679 153.859 125.883C153.859 126.058 153.936 126.261 154.062 126.38C154.321 126.618 154.804 126.681 155.05 126.38C155.876 125.371 156.801 124.447 157.809 123.62C158.097 123.382 158.068 122.864 157.809 122.626Z" fill="#3D4352"/>
<path d="M180.847 99.9805H138.645C137.294 99.9805 137.294 102.082 138.645 102.082H180.847C182.198 102.082 182.205 99.9805 180.847 99.9805Z" fill="#3D4352"/>
<path d="M180.09 100.443C176.539 111.832 172.777 123.158 168.813 134.414C168.365 135.688 170.389 136.242 170.837 134.974C174.802 123.718 178.563 112.392 182.114 101.003C182.52 99.7073 180.496 99.1539 180.09 100.443Z" fill="#3D4352"/>
<path d="M126.983 135.737C126.913 135.737 126.843 135.73 126.773 135.702C126.402 135.583 126.199 135.191 126.318 134.827L137.462 99.462C137.553 99.1678 137.826 98.9717 138.127 98.9717H182.464C182.85 98.9717 183.165 99.2869 183.165 99.6721C183.165 100.057 182.85 100.373 182.464 100.373H138.638L127.649 135.247C127.558 135.548 127.284 135.737 126.983 135.737Z" fill="#151921"/>
<path d="M171.321 135.737C171.251 135.737 171.181 135.73 171.11 135.702C170.739 135.583 170.536 135.191 170.655 134.827L181.799 99.462C181.918 99.0908 182.303 98.8876 182.675 99.0067C183.046 99.1258 183.249 99.518 183.13 99.8822L171.986 135.247C171.895 135.548 171.622 135.737 171.321 135.737Z" fill="#151921"/>
<path d="M187.234 134.574H36.3262C35.4227 134.574 35.4227 135.975 36.3262 135.975H187.234C188.138 135.975 188.138 134.574 187.234 134.574Z" fill="#171A1F"/>
<path d="M129.07 56.0563C125.085 54.7465 122.725 54.3752 118.746 55.692C117.464 56.1123 117.471 56.9808 118.809 56.7427C122.556 56.0843 124.868 56.8828 128.524 58.0875C129.813 58.5148 130.352 56.4835 129.07 56.0563Z" fill="#E7BCFA"/>
<path d="M131.305 56.7564C127.438 54.1228 122.458 53.4504 118.046 55.0543C117.198 55.3625 117.653 56.6863 118.508 56.3782C121.926 55.1384 125.82 55.3695 129.049 57.0226C128.685 57.0996 128.314 57.1767 127.943 57.2257C127.053 57.3588 127.158 58.7526 128.055 58.6195C129.077 58.4725 130.093 58.2413 131.081 57.9401C131.536 57.807 131.746 57.0576 131.305 56.7564Z" fill="#151921"/>
</svg>
