<svg width="110"
		 height="130"
		 xmlns="http://www.w3.org/2000/svg">
	<path d="m81.77 89.313-.013-.003a.79.79 0 0 0-.351-.255 4.628 4.628 0 0 0-1.95-.329c-.318.016-.583.233-.624.552-.045.328.153.59.456.698.695.25 1.413.44 2.143.565.172.029.335.029.492-.064a.656.656 0 0 0 .293-.382c.07-.307-.096-.721-.447-.782Z"
				fill="#FFBF24" />
	<path d="M94.097 92.984c-.143-.347-.503-.609-.966-.456-6.245 2.077-12.596-.96-17.119-5.215-.714-.673-1.684.444-1.052 1.136a1.838 1.838 0 0 0-.453-.048c-.995.038-1.576.992-1.184 1.888.08.179.179.348.29.51.358.24.722.472 1.085.705.437.37.941.673 1.423.925.188.1.383.185.574.275.427.242.858.481 1.292.71.615.195 1.237.361 1.85.52.095.033.191.068.287.1 2.762.925 5.716 1.508 8.634 1.154a14.381 14.381 0 0 0 2.373-.488c.016-.003.032-.01.045-.012a17.178 17.178 0 0 0 1.783-.457c.108-.12.217-.236.325-.357.026-.016.054-.032.08-.05a.757.757 0 0 0 .258-.32c.16-.172.316-.347.475-.52Z"
				fill="#398FE5" />
	<path d="M72.245 124.332c-.175-1.011-.915-1.611-1.92-1.767-1.474-.227-3.014-.01-4.51-.217-.715-.099-1.187.51-1.2 1.056a85.126 85.126 0 0 1-2.666-.163 44.298 44.298 0 0 1-3.19-.367c.093-.003.185-.006.278-.012 1.145-.067 2.593-.087 3.534-.833.762-.606.887-1.48.718-2.402.245.141.494.278.752.399.693.325 1.337-.108 1.407-.73.265.188.53.376.797.561.846.584 1.71-.517 1.302-1.295.099-.287.044-.612-.278-.874a47.53 47.53 0 0 0-6.5-4.488c-.463-.265-.893-.118-1.155.185-.01-.009-.016-.022-.025-.032-.756-.969-2.102.393-1.353 1.353.632.813 1.276 1.617 1.968 2.366.02.071.045.138.08.211.341.673.772 1.432.922 2.185.27 1.378-.68 1.371-1.863 1.464a29.957 29.957 0 0 1-5.135-.061c-.84-.079-1.895-.255-2.268.727-.287.756.191 1.426.836 1.771 2.427 1.292 5.897 1.499 8.59 1.744 3.307.3 6.634.31 9.95.437.677.02 1.028-.637.93-1.218ZM41.794 120.75l-15.243 2.096a.886.886 0 0 0-.396.149l-.615.048c.49-.213.963-.395 1.225-.539.95-.523 1.798-1.196 2.621-1.894 1.988-1.691 3.956-3.308 6.188-4.676 1.06-.648.131-2.198-.966-1.653-.338.169-.664.354-.983.549-.118-.539-.698-.982-1.24-.759a.766.766 0 0 0-.367-.284c-1.082-.411-2.262-.478-3.407-.443-.606.019-1.16.102-1.713.363-.516.246-.998.584-1.46.919-.437.316-.402.995.153 1.167 1.881.578 3.476-.685 5.253-1.014.128.029.258.057.386.096a88.67 88.67 0 0 0-4.909 3.824c-.644.539-.217 1.337.418 1.541-.903.574-1.85 1.011-2.804 1.553-.746.427-1.808 1.129-1.97 2.045-.093.529.136 1.001.669 1.177.733.242 1.729.031 2.488-.02 1.094-.073 2.185-.178 3.276-.252a34.275 34.275 0 0 1 6.42.173c2.603.306 7.799.258 8.188-3.235.077-.701-.673-1.008-1.212-.931Z"
				fill="#89A1AE" />
	<path d="M71.773 69.917c-.61-.332-1.126-.632-1.598-1.155-.453-.504-1.142.023-1.065.565-1.078-.099-1.968.271-2.699.925-.264-.172-.603-.255-1.05-.195-1.559.214-2.108 2.271-2.27 3.553a8.562 8.562 0 0 0-.029 1.784c-.3-.36-.6-.725-.906-1.082-.803-.934-2.153.425-1.352 1.353a98.031 98.031 0 0 1 3.308 4.073c.022.07.047.14.07.21.111.329.319.53.558.62a98.156 98.156 0 0 1 1.86 2.544c.009.016.022.03.035.042.184.389.382.775.596 1.151.188.335.737.447 1.002.128.472-.565.682-1.212.82-1.923.14-.721.29-1.439.468-2.15.373-1.477.836-2.925 1.317-4.37.485-1.445.996-2.88 1.452-4.335.22-.698.185-1.355-.517-1.738ZM32.726 72.194a20.355 20.355 0 0 0-6.09-5.25c.01-.3-.12-.603-.459-.8-3.932-2.29-9.093-2.255-12.81.497-2.458 1.822-3.473 4.265-3.32 6.813a.9.9 0 0 0-.503.536c-.929 2.523 1.141 4.689 2.928 6.147.583.475 1.186.924 1.805 1.352 2.239 2.134 5.084 3.655 8.124 4.207 2.217.402 3.231-.5 4.012-2.555.92-2.405 1.098-5.02 2.007-7.422a6.445 6.445 0 0 0 4.306-2.166c.38-.424.331-.928 0-1.359Z"
				fill="#398FE5" />
	<path d="M21.339 64.156c-5.448-1.017-15.987 4.07-11.894 12.35a.864.864 0 0 0 .303.342c.127.482.274.966.437 1.448.389 1.161 4.376 4.28 3.731 3.225-3.352-5.509-3.138-6.826-3.113-8.204.032-1.808.95-3.84 2.335-4.848 2.191-1.598 6.934-1.962 9.579-2.514 1.008-.213-.533-1.639-1.378-1.799Z"
				fill="#2677C7" />
	<path d="M74.59 119.761c-4.737-1.339-9.662-1.582-14.561-1.461-5.167.128-10.335.469-15.483.938a262.528 262.528 0 0 0-17.342 2.172l-1.055.173c-4.52-.189-8.947.781-13.027 2.778-.28.137-.46.363-.552.618-.258.147-.513.3-.765.466-.73.482-.804 1.356-.258 2.003 1.983 2.367 5.502 1.981 8.267 1.968 4.01-.016 8.022-.108 12.028-.277a314.32 314.32 0 0 0 20.478-1.554c1.428.37 2.848.779 4.286 1.12 4.536 1.072 9.26 1.553 13.91 1.158 2.275-.192 4.54-.571 6.737-1.193 1.678-.475 3.93-.986 4.988-2.517 2.638-3.805-5.387-5.751-7.651-6.392Z"
				fill="#151921" />
	<path d="M32.805 87.482c-.013-.013-.025-.025-.035-.032v.004c.013.009.022.018.035.028Z"
				fill="#398FE5" />
	<path d="M72.593 62.303c-.172-1.221-1.081-2.532-2.418-2.58-1.196-.042-2.134.918-2.8 1.796-.626.826-1.12 1.754-1.334 2.768a34.176 34.176 0 0 0-3.936 1.716c-.443.054-.886.115-1.33.204-1.783.367-3.56.782-5.304 1.299-1.777.526-3.432 1.256-5.097 2.06-.695.335-1.39.67-2.108.957-.154.06-.322.112-.472.182-.007.003-.02.01-.039.016-.016-.01-.032-.016-.044-.026-.22-.124-.437-.252-.654-.376a31.621 31.621 0 0 0-2.099-1.072c.137-.268.099-.616-.233-.817-2.689-1.617-5.805-2.105-8.825-2.74-3.264-.688-6.526-1.502-9.506-3.036a.607.607 0 0 0-.548-.016c.044-.175.083-.35.127-.526.271-1.078.338-2.383-.921-2.839-1.653-.596-2.613.533-3.088 1.968.625.43.507 1.604-.348 1.758-.01.111-.019.22-.022.328.188.156.357.383.402.606.057.29.137.571.242.848.083.173.176.335.284.492.112.13.233.252.364.36.367.262.768.469 1.183.648.153.063.306.124.463.185.242.092.437.213.596.398.128 0 .252.035.345.131.357.36.695.734 1.027 1.117 1.977 1.212 3.591 3.129 4.67 5.154.663 1.247 1.195 2.686 1.253 4.118.957-.21 1.984-.204 2.915-.125 1.729.153 3.46.58 5.03 1.327.345.163.322.715 0 .884-1.71.89-3.646.29-5.467.42.39.25.75.54 1.155.763.37.204.287.663 0 .884-.042.031-.086.06-.128.089.08.399-.076.769-.335 1.069a1.724 1.724 0 0 1-1.113.56c.22.282.386.6.447.96.111.67-.189 1.286-.712 1.695-.762.596-1.748.755-2.705.622a2 2 0 0 0-.047.217c-.122.72.124 1.23.532 1.636a1.948 1.948 0 0 0-.532 1.04c-.163.893.21 1.71.303 2.583.048.456-.23 1.091-.115 1.646.029.147.08.28.143.408-.386.568-.296 1.292.536 1.656 1.203.526 2.485.787 3.786.915 2.673.262 5.365-.06 8.038.233a.518.518 0 0 0 .44-.137c3.1.08 6.14-.246 9.203-.708 3.215-.488 6.484-.527 9.51-1.847.642-.28.648-1.375.023-1.675a7.63 7.63 0 0 0-.848-.328c.31-.836.42-1.716.341-2.638-.118-1.365-.335-2.692-.364-4.067-.05-2.363.061-4.724.284-7.078.185-2.864.97-5.987 2.874-8.206.836-.973 1.962-1.73 3.247-1.927.437-.067.871-.073 1.298-.032l-.105-.14c1.595-1.42 2.826-3.707 2.536-5.78Z"
				fill="#398FE5" />
	<path d="M58.696 66.654c1.582-.322 3.196-.65 4.743-1.161a.768.768 0 0 1 .16-.105c.596-.262 1.189-.546 1.804-.766-.092-.491-.529-.928-1.17-.807l-3.662.695c-1.642.23-3.295.402-4.925.693a20.74 20.74 0 0 0-3.275.839c-.948.162-1.898.338-2.807.609a6.075 6.075 0 0 0-.887.344l-.112-.169c-.373-.564-1.004-.612-1.518-.217-.204.16-.36.37-.472.6l-3.362-1.923c-.545-.313-1.072-.045-1.32.376-.788.258-.983 1.537.01 1.847 1.814.561 3.48 1.499 4.886 2.775.395.36.992.363 1.355.035a.882.882 0 0 0 .696-.045c.593.201 1.215-.156 1.598-.708.532-.765 1.327-1.24 2.185-1.576 1.03-.194 2.057-.392 3.087-.587.849-.159 1.694-.322 2.542-.484a.82.82 0 0 1 .444-.265Z"
				fill="#FFBF24" />
	<path d="M60.9 95.447c-3.024.9-6.13 1.444-9.285 1.607-.39-.255-.973-.13-1.298.24a.645.645 0 0 0-.322.688c.318 1.761.554 3.534.736 5.314.058.09.102.182.14.291 0 .003.004.006.004.012.016.09.032.179.035.268v.016c-.006.093-.022.185-.035.274l-.01.048c-.016.058-.041.109-.067.163a.723.723 0 0 1-.003.249.736.736 0 0 1-.115.36c-.019.035-.032.077-.054.112l-.006.009a2.215 2.215 0 0 1-.08.102 1.137 1.137 0 0 1-.08.103l-.019.019c-.077.063-.153.137-.246.181-.028.02-.06.029-.089.042.16.309.46.565.823.772-.376.367-.542.832-.182 1.445.083.14.195.255.325.351.004.134.017.264.02.398.01.284.191.536.469.616 1.122.322 2.277.482 3.444.482.058 0 .102-.02.15-.032.629.057 1.263-.051 1.735-.504.393-.377.571-.89.594-1.426v-.006c.644.299 1.34.481 2.073.51.596.025 1.27-.048 1.729-.472.542-.504.513-1.19.536-1.876.095-3.135.194-6.27.29-9.406.019-.616-.616-1.129-1.212-.95ZM45.22 101.832c-.035-.644-.224-1.266-.329-1.9a8.815 8.815 0 0 1-.057-2.227c.035-.38-.348-.75-.718-.737-1.993.067-3.993.131-5.987.022a25.586 25.586 0 0 1-3.001-.319c-.858-.146-1.675-.382-2.536-.287a.797.797 0 0 0-.475.112c-.262.137-.354.408-.313.676l-.067 6.354-.016 1.525c-.003.456-.05.922.252 1.298l.01.009c-.048.288.07.575.443.629 1.18.169 2.341.07 3.525.032.57-.019 1.151-.023 1.716.079-.061.297-.055.635 0 .814.12.405.405.619.75.743.037.348.12.679.395.938.341.316.813.328 1.253.325a22.558 22.558 0 0 0 3.857-.364c.564-.098.558-.72.236-1.043.236-.449.293-1.059.338-1.553.092-.96-.004-1.933-.23-2.871.676-.51 1.002-1.371.954-2.255Z"
				fill="#252B36" />
	<path d="M48.996 72.099a14.85 14.85 0 0 0-2.922-1.515c-.513-.201-.944.303-.918.768-2.341-1.03-4.743-1.875-7.32-2.261-3.726-.555-7.589-.504-11.13-1.949-.867-.354-6.047-2.68-5.785-1.79 1.856 6.348 12.612 4.61 16.26 5.104 3.873.523 7.764 2.083 11.225 3.808.635.316.928-.347.596-.93.36-.272.488-.9-.006-1.235Z"
				fill="#2677C7" />
	<path d="M69.61 67.767a9.884 9.884 0 0 1-2.663 1.378c-2.638.625-5.744-.249-8.318-.408-3.652-.223-7.627.6-10.08 3.528-.213.255-.315.666-.334 1.055a.482.482 0 0 0 0 .214c.022.596.252 1.05.6.638.031-.038.066-.07.098-.108.14 0 .28-.042.415-.144 1.47-1.145 3.071-2.226 4.848-2.832 2.045-.696 3.888-.386 5.968-.061 1.971.31 3.984.485 5.98.437 1.637-.038 3.35-.463 4.192-2.003a.59.59 0 0 0 .054-.456c.038-.032.076-.058.115-.09.602-.526-.198-1.636-.874-1.148ZM34.506 86.136c-.07-.705-1.018-.88-1.254-.169-.054.16-.099.32-.15.479a3.673 3.673 0 0 1-.934.13c.073.182.16.358.261.514-.182.086-.36.185-.536.303a.778.778 0 0 0-.016 1.257c.032.022.064.035.096.057-.258.632-.319 1.352-.325 2.064-.013 1.425-.495 3.052-.498 4.481-.003.935 1.247 1.595 1.25.657 0-.466.068-1.53.182-2.695a.714.714 0 0 0 .501-.038.635.635 0 0 0 .316.092c.373 0 .603-.293.638-.638.108-1.081.217-2.162.322-3.247.105-1.078.252-2.165.147-3.247Z"
				fill="#2677C7" />
	<path d="M71.438 122.989a3.149 3.149 0 0 0-.303-.041c.259-.141.386-.511.188-.731.294-.261.402-.724.058-1.036-1.014-.922-2.08-1.79-3.48-1.949-1.422-.16-2.88-.144-4.306-.055a1.018 1.018 0 0 0-.163.026c-.264-.354-.685-.679-.966-.957a43.048 43.048 0 0 0-2.491-2.274 36.056 36.056 0 0 0 1.553-1.116c.144.242.43.334.718.29a16.81 16.81 0 0 1 1.368-.185c1.637.59 3.27 1.19 4.893 1.815.69.264 1.1-.81.491-1.168-.57-.335-1.135-.676-1.703-1.017-.523-.316-1.072-.609-1.665-.763-.6-.153-1.212-.185-1.821-.153l-.21-.076c.19-.654.382-1.308.57-1.962.224-.769.558-1.572.673-2.363.093-.645-.261-1.101-.88-1.244-.775-.182-1.627-.211-2.418-.259a26.792 26.792 0 0 0-2.354-.041c-.66.016-1.397-.01-1.894.501-.44.449-.562 1.193-.693 1.783-.063.29-.114.583-.162.877-.747-.488-1.633-.721-2.552-.845a.79.79 0 0 0-.13-.023c-.055-.003-.11-.009-.167-.013-.325-.035-.65-.06-.976-.076-.35-.555-1.387-.456-1.34.338.144 2.322.323 4.641.55 6.953.076.785.025 1.844.344 2.641a.471.471 0 0 0-.201.361 40.866 40.866 0 0 0-.128 2.724.485.485 0 0 0 .351.462c3.42.861 6.922 1.353 10.437 1.63 1.767.141 3.537.227 5.307.278.916.025 1.837.035 2.75-.045.606-.051 1.4-.102 1.741-.702.424-.749-.277-1.461-.989-1.585Zm-4.529.227c-1.547-.083-3.097-.144-4.638-.303-3.094-.323-6.136-.996-9.148-1.768a.446.446 0 0 0-.251.004c.006-.131.012-.265.022-.396.612.402 1.458.546 2.115.721a39.07 39.07 0 0 0 6.746 1.193c.36.032.752.092 1.068-.099.874.364 1.946.262 2.868.293.762.026 1.524.055 2.287.08a.473.473 0 0 0 .14.345c-.405-.026-.807-.048-1.209-.07ZM23.728 120.549c1.037-.893 2.124-1.735 3.53-1.856 1.427-.121 2.884-.067 4.307.057a.937.937 0 0 1 .16.032c.274-.348.704-.66.991-.928a40.692 40.692 0 0 1 2.552-2.207 36.09 36.09 0 0 1-1.585-1.203.025.025 0 0 0-.013-.006v-.003c-.048-.039-.099-.074-.147-.115-.013-.01-.022-.026-.035-.035a79.401 79.401 0 0 0-.966-.112c-.322-.035-.606-.21-.696-.542-.213-.807-.424-1.617-.638-2.424-.204-.775-.516-1.589-.612-2.383-.077-.647.29-1.091.912-1.218.782-.16 1.63-.166 2.424-.195a26.475 26.475 0 0 1 2.358.019c.66.035 1.396.026 1.878.549.428.462.53 1.209.644 1.799.058.29.1.587.14.88.76-.466 1.653-.676 2.572-.775a.788.788 0 0 1 .13-.019l.166-.01c.326-.025.654-.041.98-.051.366-.545 1.4-.418 1.33.373a203.07 203.07 0 0 1-.73 6.938c-.119.947-.052 2.316-.683 3.094-.59.727-1.758.864-2.613 1.072a39.36 39.36 0 0 1-6.775 1.014c-.36.022-.752.07-1.065-.128-.883.342-1.952.211-2.874.217l-3.317.029a.645.645 0 0 1-.631-.405c-.243-.023-.482-.042-.724-.067a.92.92 0 0 1-.38-.144h-.099c-.577-.038-.995-.813-.491-1.247Z"
				fill="#89A1AE" />
	<path d="M55.666 109.647c-.377.022-.753.029-1.133.035a9.59 9.59 0 0 1-2.185-.3c-.185-.74-1.429-.695-1.429.172.007 3.461.016 6.925.326 10.376.083.913 1.438.976 1.454.02.051-2.948-.003-5.892-.15-8.836.638.032 1.276.032 1.914.023.392.009.788 0 1.18-.036.919-.086.967-1.508.023-1.454ZM64.303 108.237c-2.137-.076-4.274-.153-6.411-.226-.935-.032-.954 1.419-.02 1.454 2.138.077 4.275.153 6.412.227.934.031.954-1.42.02-1.455Z"
				fill="#89A1AE" />
	<path d="M64.21 107.771c-.436.013-.676.313-.736.718a29.032 29.032 0 0 1-1.085 4.577c-.118.361.121.81.495.9a.741.741 0 0 0 .9-.495c.522-1.62.892-3.279 1.141-4.963.057-.379-.357-.749-.715-.737ZM71.355 121.366a22.965 22.965 0 0 0-2.558-2.268c-.14-.109-.395-.125-.558-.08a.748.748 0 0 0-.44.329c-.093.169-.14.37-.08.558.06.191.17.319.329.44a6.919 6.919 0 0 1 .23.178l.274.224a21.99 21.99 0 0 1 1.76 1.633c.265.274.76.3 1.027.013.275-.287.3-.737.016-1.027Z"
				fill="#89A1AE" />
	<path d="M68.252 118.986c-1.187.134-2.373.252-3.563.357a.645.645 0 0 0-.262-.14.74.74 0 0 0-.778.268.712.712 0 0 0-.488.66 5.186 5.186 0 0 1-.341 1.656c-.121.36.124.81.494.899.405.099.76-.112.9-.494.156-.466.315-.932.472-1.397 1.183-.106 2.363-.221 3.543-.354.377-.042.75-.291.737-.718-.01-.354-.31-.785-.714-.737ZM57.48 107.618c-.414.013-.704.31-.736.718l-.21 2.727c-.03.38.34.75.717.737.414-.013.705-.309.736-.718l.211-2.727c.029-.383-.341-.749-.718-.737Z"
				fill="#89A1AE" />
	<path d="M59.21 113.915c-.033-.16-.065-.323-.1-.482a.618.618 0 0 0-.169-.306 7.7 7.7 0 0 1 .102-4.622c.125-.373-.13-.794-.494-.9-.392-.114-.775.122-.9.495a9.024 9.024 0 0 0 .154 6.185c.146.363.472.628.886.519.396-.105.597-.503.52-.889Z"
				fill="#89A1AE" />
	<path d="M62.364 113.089a2.34 2.34 0 0 0-1.069-.24c-.277.004-.552.048-.83.064a3.28 3.28 0 0 1-.621-.016c-.016-.003-.022-.003-.032-.003-.022-.003-.045-.006-.07-.013a3.367 3.367 0 0 1-.405-.102c-.077-.025-.15-.054-.224-.08l-.041-.015c-.02-.01-.038-.02-.057-.026-.342-.166-.798-.118-.999.249-.175.319-.118.823.25.998.611.294 1.262.472 1.945.472.28 0 .558-.041.839-.06.13-.01.264-.016.395-.007.02 0 .035.003.054.007l.026.006c.038.013.258.099.086.019.341.163.797.121.998-.249.176-.325.121-.832-.245-1.004ZM37.504 111.235c.08-.902.134-1.808.118-2.714a.743.743 0 0 0-.718-.737c-.418-.006-.702.326-.737.718-.118 1.387-.236 2.775-.357 4.166-.293-.176-.622-.071-.836.156l-.529-.08c-.616-.092-1.244-.255-1.863-.137-.386.073-.612.526-.52.887.106.402.501.593.887.52.134-.026.367.016.533.041l.762.115 1.579.239c.348.054.689-.045.848-.386a.664.664 0 0 0 .508-.478l.465-1.659a.647.647 0 0 0-.14-.651ZM43.893 109.523c-.115-.37-.495-.632-.887-.52l-1.997.561a87.93 87.93 0 0 1-.97.274 7.53 7.53 0 0 1-.471.115c-.013.003-.106.016-.131.022-.09.007-.176.01-.265.01-.38-.003-.75.325-.737.718.013.392.31.73.718.736.737.01 1.451-.245 2.153-.443.692-.194 1.38-.389 2.07-.584.364-.105.635-.51.517-.889Z"
				fill="#89A1AE" />
	<path d="M42.537 109.784a144.908 144.908 0 0 0-.832 10.838c-.035.935 1.416.954 1.454.02.144-3.624.421-7.238.833-10.839.105-.928-1.35-.941-1.455-.019ZM30.136 118.868c-.125-.402-.485-.59-.887-.52-.067.013-.134.022-.204.035l-.08.013c-.111.016-.226.022-.338.029-.255.016-.51.019-.762.009-.118-.006-.236-.012-.351-.022a4.727 4.727 0 0 1-.204-.022c-.042-.007-.255-.016-.07-.01-.246-.013-.51-.099-.747-.163-.366-.098-.807.109-.9.495-.092.376.103.794.495.899a8.035 8.035 0 0 0 3.528.141c.376-.064.631-.53.52-.884Z"
				fill="#89A1AE" />
	<path d="M31.967 121.235a.938.938 0 0 1-.02-.051.594.594 0 0 0-.028-.125 14.976 14.976 0 0 0-1.075-2.341.716.716 0 0 0-.59-.354.646.646 0 0 0-.488.077c-.316.197-.494.65-.274.992.073.111.13.229.2.341.259.692.568 1.365.938 2.006.182.313.571.447.903.31.316-.131.552-.511.434-.855ZM26.321 119.541a.734.734 0 0 0-.067-.561c-.099-.157-.246-.297-.43-.342-.176-.041-.409-.047-.562.067a3.488 3.488 0 0 0-.6.549c-.137.163-.268.335-.398.504a3.512 3.512 0 0 1-.472.501 1.78 1.78 0 0 1-.195.111c-.016.004-.029.01-.045.013a.77.77 0 0 0-.44.329.741.741 0 0 0-.08.558c.115.376.495.622.887.52.399-.106.75-.332 1.037-.622.226-.227.418-.488.615-.743a3.24 3.24 0 0 1 .536-.552c-.041.032-.086.064-.127.095.162-.118.284-.229.341-.427ZM36.815 107.2l-3.097.201c-.925.061-1.889.173-2.798-.057-.905-.23-1.314 1.164-.405 1.397 1.011.258 2.035.191 3.062.124 1.072-.07 2.147-.14 3.219-.207.392-.025.73-.303.736-.718.007-.373-.322-.765-.717-.74Z"
				fill="#89A1AE" />
	<path d="M22.867 122.533c6.65.692 13.418-.131 19.877-1.856-.006.048-.025.925-.035.973a.771.771 0 0 0 .035.363c0 .166-.06 1.075-.06 1.238-6.472 1.703-13.31 2.28-19.967 1.585-.619-.064-.472-2.37.15-2.303ZM71.327 123.713a54.771 54.771 0 0 1-19.782-2.092l.016.143a.776.776 0 0 1-.045.364c-.003.166-.006.329-.006.494a55.538 55.538 0 0 0 19.833 2.061c.618-.048.606-1.018-.016-.97Z"
				fill="#89A1AE" />
	<path d="M80.188 35.064c.446-.392.602-1.145.312-1.665a21.672 21.672 0 0 0-5.499-6.411.4.4 0 0 1-.348-.115c-.165-.175-.331-.348-.497-.52-.035-.025-.07-.054-.105-.08a19.19 19.19 0 0 0-1.228-.79 5.292 5.292 0 0 1-.788-.447c-.268-.144-.54-.284-.813-.418.035-.057.073-.108.108-.166a.71.71 0 0 0 .048-.099c-.007-.013-.016-.022-.026-.035a.426.426 0 0 1 .14-.565 1.282 1.282 0 0 0-.928-1.17 116.75 116.75 0 0 0-21.935-4.032l.345-.252c-.137 0-.274.003-.412.003-1.371.007-2.45.096-3.747.29-.087.014-.176.026-.262.039-.855-.099-1.716-.188-2.568-.198-.389-.003-.657.185-.8.447-.587-.032-1.164-.115-1.703-.29-.032.105-.077.207-.109.315-.68-.532-1.965-.185-2.835-.344-2.59-.475-4.794-.128-7.206.711-2.344.817-4.743 1.834-6.759 3.311a1.3 1.3 0 0 1 .03 1.25c-.042.08-.093.157-.141.233.035.447-.21.9-.587 1.152-.265.178-.53.357-.788.545a14.9 14.9 0 0 0-.36.265s-.07.054-.115.086l-.112.086c-.453.36-.89.743-1.305 1.151a15.24 15.24 0 0 0-1.192 1.33l-.023.03c-.038.053-.08.105-.118.159a15.023 15.023 0 0 0-.769 1.186c-.293.504-.883.686-1.41.52a25.69 25.69 0 0 0-2.021 3.432c-1.563 3.25-2.36 6.966-1.685 10.523.157-.038.32-.045.473-.026.267.035.488.147.685.329.22.2.351.552.351.845 0 .488.01.976.045 1.46.437.042.893-.133 1.17-.535.536 3.097 1.745 6.073 3.611 8.615 2.823 3.844 6.906 6.596 11.46 7.847 2.708 1.888 6.045 2.545 9.324 2.873l.315.03c3.796 1.406 7.844 1.766 11.882 1.495 2.153-.143 4.306-.437 6.43-.823 1.244-.226 2.494-.53 3.655-1.027 1.563.453 3.554-.153 4.957-.663 4.245-1.538 7.569-4.724 9.99-8.465.096-.15.182-.307.274-.457.533.262 1.212.166 1.605-.485 3.687-6.117 4.344-13.795 1.984-20.48Z"
				fill="#FFBF24" />
	<path d="M72.784 40.815c-.306-2.24-1.435-4.271-2.797-5.926a13.665 13.665 0 0 0-.443-.508c.523.39 1.397-.137.979-.784-2.504-3.882-6.909-6.23-11.46-6.329-.08-.022-.157-.05-.24-.07a.61.61 0 0 0-.478.064 13.85 13.85 0 0 0-2.044.217c-.064.013-.109.041-.157.064-3.64-.775-7.45-.76-10.838.925a.912.912 0 0 0-.22-.157c-4.07-1.993-8.647-2.092-12.855-.526a22.524 22.524 0 0 0-5.719 3.17c-1.677 1.273-3.435 2.763-4.395 4.804-1.04 2.217-.938 4.72-.414 7.084.513 2.313 1.46 4.472 2.937 6.22 2.95 3.493 6.261 6.513 10.335 7.783 8.474 2.638 19.243 2.83 27.526-1.193 3.506-1.7 6.753-4.437 8.8-8.054 1.155-2.032 1.812-4.389 1.483-6.784Z"
				fill="#FCFA9C" />
	<path d="M81.55 43.555c-.192-1.987-.791-3.91-1.082-5.882-.09-.644.147-1.276.836-1.47.048-.013.096-.016.147-.023a23.77 23.77 0 0 0-.224-.676l-.06-.153c-.214-.43-.44-.858-.686-1.273.02-.124.02-.252-.003-.382-.042-.096-.083-.192-.128-.284a1.598 1.598 0 0 1-.092-.271c-1.018-1.904-2.364-3.528-3.908-4.957-.376-.43-.762-.852-1.16-1.263-.166.108-.4.105-.54-.042-.31-.328-.622-.653-.947-.966-.81-.427-1.879-.737-2.35-1.588a.43.43 0 0 1 .213-.607c.003-.012.01-.025.016-.041-.15-.118-.3-.233-.45-.348.396-.548.408-1.142-.316-1.594-5.03-3.149-11.116-3.193-16.882-3.413-.007 0-.048-.508-.051-.508-.06.026-.122.052-.192.067-.162.039-.325.074-.485.106-.899.564-1.17 1.09.192 1.145 3.627.14 7.894 1.53 11.393 2.539l.208.105c-.651.517-.77 1.659.102 2.118 2.21 1.17 5.33 2.214 9.486 6.178.19.157.373.326.56.488.04.039.074.077.11.112-.808.258-1.305 1.378-.568 2.13a25.122 25.122 0 0 1 2.555 3.037c-.51.105-.945.577-.747 1.17.31.926.61 1.889.877 2.874.9 3.71 1.047 7.815-.13 11.464-.473-.46-1.362-.453-1.56.386-.055.22-.571 2.271-2.223 4.845-2.329 3.279-7.659 8.564-11.71 8.985-.43.045-.252.23 1.238.14a15.27 15.27 0 0 0 2.194-.303 5.69 5.69 0 0 0 .453-.14 7.18 7.18 0 0 0 .862-.398c.695-.367 1.362-.788 2.041-1.18.705-.406 1.442-.744 2.14-1.152.724-.424 1.42-.896 2.083-1.41a.86.86 0 0 1 .526-.172 15.982 15.982 0 0 0 2.06-2.549c.31.144.683.121 1.002-.204a13.528 13.528 0 0 0 3.26-5.441c.986-1.624 1.247-3.703 1.41-5.589a1.24 1.24 0 0 0 .632-.45c.016-1.061 0-2.11-.103-3.16Z"
				fill="#FCFA9C" />
	<path d="M68.836 32.219c-1.34-1.468-3.053-2.396-4.861-3.113-1.624-1.053-3.39-1.86-5.292-2.093-1.942-.239-4.143-.032-6.099.016-2.015.051-3.82.558-5.747 1.168-1.17.37-2.137 2.169-.957 1.795 2.995-.947 7.578-1.349 10.685-1.218 1.413.06 4.893.268 8.536 3.135 2.3 1.812 3.483 3.908 4.159 6.785.434 1.843.593 3.961.364 5.958-.686 2.666-2.482 6.51-4.597 8.117-2.134 1.624-5.438 3.742-6.334 4.077-1.136.424 2.826-.676 4.04-.989 1.197-.306 2.916-1.359 3.864-2.067 1.499-.938 2.708-2.858 3.598-4.414.78-1.372 2.08-2.845 2.239-4.475 1.055-4.357-.498-9.285-3.598-12.682Z"
				fill="#fff" />
	<path d="M46.276 28.608C40.199 25.6 32.33 26.493 26.78 30.532c-1.502 1.09-2.692 2.038-3.486 3.703-.797 1.668-1.486 3.41-1.738 5.253-.475 3.442.938 6.973 2.816 9.805 1.917 2.89 4.613 5.228 7.959 6.261.918.284 1.738-.376.902-.81-5.03-2.606-9.15-9.157-9.34-12.574-.178-3.234 2.049-10.92 11.506-12.898 3.304-.69 6.873-.514 9.907.985 1.104.546 2.073-1.103.97-1.649Z"
				fill="#fff" />
	<path d="M92.62 24.905c-.23-.88-.484-1.793-.775-2.702a45.964 45.964 0 0 0-1.617-2.625c-.676-1.023-1.371-2.038-2.165-2.976-.613-.724-1.347-1.419-1.803-2.264-.65-.176-1.31-.074-1.86.564-.516.6-.529 1.474-.548 2.227-.025 1.004.102 2.006.243 2.998.137.973.319 1.94.401 2.919.068.778.208 1.735-.385 2.34a3.197 3.197 0 0 1-.418.352c-.204.424-.482.81-.849 1.138-1.148 1.024-2.52 1.563-3.942 2.02-.498-.482-1.439.117-1.008.758a23.764 23.764 0 0 1 2.029 3.614c.022.048.038.096.06.14-.405.581-.328 1.516.364 1.873.207.108.38.261.478.453.105.478.115 1.001-.296 1.298-.217.156-.396.44-.294.72.364.99 1.298 1.057 2.188.792a66.31 66.31 0 0 0 3.292-1.097 45.956 45.956 0 0 0 2.111-.823c1.423-.504 2.785-1.161 4.02-2.003 1.617-1.107 1.99-2.578 1.763-4.456-.22-1.774-.539-3.531-.988-5.26ZM15.945 29.064c-.976-.328-1.987-.344-2.992-.526-.497-.09-1.062-.227-1.445-.552a2.629 2.629 0 0 1-1.02-.89c-.447-.673-.527-1.54-.527-2.325 0-2.434.278-4.858.061-7.291-.035-.383.182-.728.488-.948-.31-.701-.868-1.132-1.875-.922-.849.176-1.563.842-2.189 1.404-.695.628-1.3 1.343-1.856 2.099-2.134 2.89-2.666 5.897-3.642 9.31-.559 1.949-1.455 4.628-.08 6.328 1.212 1.503 3.288 2.409 5.017 3.161 1.126.488 2.274.922 3.451 1.267 1.133.328 2.28.392 2.87-.823 1.079-2.22 1.915-4.6 2.846-6.89.07.022.144.038.217.06 1.557.524 2.226-1.942.676-2.462Z"
				fill="#5EDC10" />
	<path d="M32.793 2.479c-.064.07-.118.14-.179.21a.957.957 0 0 0-.768-.169c-.648.125-1.26.31-1.84.555-.843.208-1.66.533-2.45.922-1.286.632-3.069 1.388-3.761 2.727-.348.676-.408 1.448-.466 2.195a84.852 84.852 0 0 0-.169 2.842c-.035.829-.054 1.658-.067 2.488a.651.651 0 0 0-.402.529 28.275 28.275 0 0 0 .067 7.413c.058.414.622.57.938.383a35.934 35.934 0 0 1 6.75-3.162c.245-.082.497-.328.468-.615a121.37 121.37 0 0 1-.223-2.354c.05-.788.099-1.579.15-2.367.22-3.358.564-6.8 2.21-9.801a.99.99 0 0 0 .093-.25c.175-.22.354-.44.548-.647.565-.596-.335-1.502-.9-.9Z"
				fill="#252B36" />
	<path d="M68.877 5.557c-1.7-1.825-4.641-1.726-6.922-1.793-3.007-.086-6.028-.108-9.036 0-2.376.086-4.787.335-7.01 1.209-1.56.096-3.027.357-4.313 1.378-1.49 1.183-2.22 3.056-2.931 4.762a41.036 41.036 0 0 0-2 6.137.59.59 0 0 0 .226.641c-.236 1.033 1.248 1.5 1.755.663 5.853-.044 11.706.166 17.536.664 1.464.124 2.925.268 4.386.427 1.228.134 2.654.507 3.83-.035 1.114-.51 1.656-1.773 2.182-2.803a33.044 33.044 0 0 0 1.653-3.812A30.122 30.122 0 0 0 69.38 8.96c.252-1.228.424-2.405-.504-3.403Z"
				fill="#343A46" />
	<path d="M50.725 40.324a.995.995 0 0 0-.15-.281c-.201-.255-.526-.424-.817-.552a3.854 3.854 0 0 0-1.776-.3c-.405.023-.8.125-1.17.28-.199-.066-.4-.13-.594-.206-.466-.179-1.072.012-1.254.51-.175.472.01 1.062.51 1.254a18.98 18.98 0 0 0 4.868 1.16c.498.051 1.027-.296 1.075-.822.035-.46-.24-.922-.692-1.043Z"
				fill="#fff" />
	<path d="M52.69 1.05c-5.742.191-11.483.756-17.173 1.54-.275-.2-.715-.223-.973.134-1.231 1.72-1.534 3.809-1.866 5.844-.399 2.437-1.202 4.79-1.563 7.234-.08.539-.143 1.084-.166 1.63-.022.49-.105 1.158.067 1.626.373 1.008 1.62.342 2.316.128.577-.175 1.151-.35 1.729-.53.459-.14 1.075-.232 1.422-.602.322-.342.364-.855.453-1.289.128-.622.262-1.244.402-1.866.526-2.296 1.158-4.67 2.338-6.727.552-.963 1.263-1.85 2.236-2.414 1.008-.584 2.194-.81 3.327-1.012 2.5-.45 5.055-.529 7.553-.97.807-.143 1.601-.621 1.604-1.533.007-1.011-.874-1.222-1.706-1.193Z"
				fill="#89A1AE" />
	<path d="M39.59 66.275c-4.976-.686-9.936-3.704-13.83-7.148-3.366-2.98-5.55-7.06-6.903-11.298-.348-1.094-1.499-1.13-2.118-.488a18.344 18.344 0 0 1 .769-8.127c.233-.705-.762-1.652-1.448-1.796.657-1.553 1.113-2.73 1.856-4.191 1.509-2.966 2.963-5.987 5.748-7.904 1.343-.925.52-1.892-.839-.957-3.087 2.128-4.644 4.127-6.347 7.425-.877 1.7-1.767 2.37-2.514 4.131-.845 1.99-1.448 4.855-1.76 7.005-.1.679.169 1.371.89 1.569.315.086.663.035.95-.118a20.92 20.92 0 0 0 2.517 10.513c.3.552 1.033.768 1.595.523.462-.204.688-.568.743-1.005 1.323 2.437 2.979 4.686 5.058 6.526 1.968 1.742 4.23 3.03 6.718 3.882 2.71.928 5.562 1.32 8.388 1.713.683.092 2.275 1.103 2.476.38.162-.604-1.26-.543-1.95-.635Z"
				fill="#FFBF24" />
	<path d="M23.447 24.012c-4.893 3.167-7.579 8.478-9.192 13.916-.351 1.184 1.495 1.687 1.846.51 1.468-4.937 3.857-9.887 8.313-12.77 1.03-.67.073-2.326-.967-1.656Z"
				fill="#FFBF24" />
	<path d="M38.824 18.577c-5.406.23-11.195.638-15.383 4.49-.91.836.446 2.189 1.352 1.353 3.774-3.473 9.649-4.823 14.5-5.027 1.225-.05.763-.867-.469-.816Z"
				fill="#FFBF24" />
	<path d="M62.507 95.37c.051-.82-.893-.861-.944-.044-.236 3.811-.583 8.35-.453 12.168.029.82 1.305.823 1.276 0-.127-3.818-.115-8.312.121-12.124ZM33.785 97.5c.006-.245.01-.49.019-.736.019-.542-.526-.718-.912-.545a.536.536 0 0 0-.418.583c.013.233.022.466.032.699-.09 2.995-.074 5.99.06 8.985.035.82 1.241.823 1.276 0 .125-2.995.099-5.99-.057-8.985Z"
				fill="#343A46" />
	<path d="M59.767 92.94c-.143-1.589-.31-4.427-.223-5.767.02-.306-.134-.51-.332-.6a.556.556 0 0 0-.156-.095c-1.49-.603-3.05-2.814-3.31-4.558-.042-.278-.297-.514-.55-.514l-15.303-.096a.548.548 0 0 0-.485.287.594.594 0 0 0-.204.466c-.016.667-.153 1.62-.721 2.395-.453.613-1.139.983-1.799.97-.38-.006-.584.32-.59.641a.744.744 0 0 0 .09.351c-.004.887.002 2.21.009 3.534.006 1.33.013 2.66.01 3.547-.004.412.3.638.59.644h.012c.284 0 .571-.21.571-.612.003-.887-.003-2.22-.01-3.553-.006-1.235-.012-2.463-.009-3.343.75-.172 1.451-.625 1.968-1.295.571-.74.906-1.687 1.008-2.743l14.372.09c.428 1.846 2.02 4.021 3.65 4.86-.042 1.522.114 4.035.245 5.49l.022.236.192-.109a.896.896 0 0 1 .45-.124l.264.044.258.103-.019-.25Z"
				fill="#2677C7" />
	<path d="M57.197 107.571c-.236-.061-.549.089-.59.347-.14.887-.259 1.777-.364 2.667.293.599.542 1.218.769 1.847 0-.007.003-.013.003-.02a61.65 61.65 0 0 1 .53-4.251c.04-.259-.08-.52-.348-.59Z"
				fill="#151921" />
	<path d="m57.06 113.054-.198-.568a18.39 18.39 0 0 0-.763-1.831l-.019-.041.007-.048c.12-1.021.236-1.869.363-2.673a.576.576 0 0 1 .259-.383c.16-.105.36-.14.53-.096.328.087.522.409.465.769a61.07 61.07 0 0 0-.526 4.239l-.01.045-.108.587Zm-.654-2.495c.175.364.344.753.51 1.177.121-1.196.278-2.401.469-3.598.025-.169-.035-.36-.23-.411a.363.363 0 0 0-.274.054c-.038.026-.105.08-.118.166-.124.785-.24 1.614-.357 2.612Z"
				fill="#151921" />
	<path d="M56.217 109.389c-.842-.09-1.684-.176-2.526-.265-.743-.077-1.537-.112-2.233-.411-.239-.103-.523-.061-.66.185-.118.21-.057.555.185.66.807.347 1.662.424 2.53.517.905.095 1.814.191 2.72.283.262.029.482-.252.476-.491-.004-.29-.23-.45-.492-.478Z"
				fill="#151921" />
	<path d="M56.269 110.521c-.017 0-.036 0-.052-.003l-2.832-.297c-.82-.086-1.668-.175-2.462-.517a.557.557 0 0 1-.303-.341.692.692 0 0 1 .041-.542c.166-.294.52-.399.861-.252.571.245 1.222.306 1.854.367l2.857.296c.377.039.632.294.635.632a.687.687 0 0 1-.226.501.544.544 0 0 1-.373.156Zm-5.06-1.703a.3.3 0 0 0-.274.156.376.376 0 0 0-.016.284.244.244 0 0 0 .128.15c.753.322 1.537.405 2.37.491l2.832.297c.07.006.137-.036.179-.071a.353.353 0 0 0 .121-.261c-.003-.265-.268-.313-.35-.322l-2.855-.297c-.654-.064-1.334-.128-1.95-.392a.565.565 0 0 0-.184-.035Z"
				fill="#151921" />
	<path d="M57.787 115.229c.261-.131.532-.239.797-.357a.786.786 0 0 1 .313-.096.609.609 0 0 0-.1-.329 17.459 17.459 0 0 1-1.945-4.344.599.599 0 0 0-.437-.431.697.697 0 0 0-.66.195.603.603 0 0 0-.137.6 18.709 18.709 0 0 0 2.083 4.653c.025.042.057.074.086.109ZM71.505 122.323a54.793 54.793 0 0 1-19.782-2.093c.007.048.01.096.016.144a.772.772 0 0 1-.045.363c-.003.166-.006.329-.006.495a55.56 55.56 0 0 0 19.833 2.06c.619-.048.606-1.017-.016-.969Z"
				fill="#151921" />
	<path d="M67.222 123.618c-5.26 0-10.485-.75-15.579-2.236l-.118-.035.02-.667a.567.567 0 0 0 .035-.287l-.045-.386.233.07a54.397 54.397 0 0 0 19.724 2.086.565.565 0 0 1 .536.239c.131.192.15.463.042.683a.63.63 0 0 1-.536.36 52.738 52.738 0 0 1-4.313.173Zm-15.374-2.507a55.154 55.154 0 0 0 19.657 2.022.317.317 0 0 0 .275-.182.383.383 0 0 0-.016-.367c-.051-.076-.134-.108-.246-.102a54.68 54.68 0 0 1-19.61-2.032.933.933 0 0 1-.05.316l-.01.345Z"
				fill="#151921" />
	<path d="M72.771 123.235c-.067-.616-1.036-.606-.97.016l.23 2.079a59.576 59.576 0 0 1-11.16-.427 59.437 59.437 0 0 1-5.652-1.04c-.925-.217-1.882-.418-2.781-.724-.463-.156-.307-.644-.329-1.087-.029-.559-.057-1.12-.09-1.678-.031-.622-1-.609-.969.016.029.558.058 1.119.09 1.677.025.46-.039 1.012.159 1.436.137.293.38.411.676.51.507.169 1.037.294 1.553.428 2.077.542 4.185.969 6.306 1.285 4.217.625 8.491.81 12.746.545.243-.016.507-.223.475-.491-.099-.848-.191-1.697-.284-2.545Z"
				fill="#151921" />
	<path d="M68.797 126.549a61.47 61.47 0 0 1-8.991-.664 59.843 59.843 0 0 1-6.325-1.288l-.345-.09a18.54 18.54 0 0 1-1.218-.341c-.281-.092-.597-.223-.769-.593-.166-.351-.166-.775-.17-1.148 0-.122 0-.236-.005-.348l-.09-1.681c-.022-.399.28-.625.59-.641.335-.019.677.191.699.609l.09 1.681c.006.105 0 .214-.004.319-.016.386 0 .552.223.625.743.252 1.531.434 2.297.609l.472.109c1.85.434 3.748.781 5.64 1.036 3.552.479 7.243.626 10.965.437l-.21-1.913a.554.554 0 0 1 .213-.53.685.685 0 0 1 .68-.057.644.644 0 0 1 .389.536l.28 2.545a.56.56 0 0 1-.134.421.731.731 0 0 1-.49.249 60.434 60.434 0 0 1-3.787.118Zm-17.281-6.475h-.023c-.05.003-.303.029-.287.306l.09 1.681c.006.118.006.239.006.364 0 .357.003.727.137 1.014.109.233.297.332.58.427.39.131.801.233 1.197.335l.344.09c2.058.535 4.172.969 6.29 1.282 4.201.625 8.475.807 12.71.542a.4.4 0 0 0 .269-.137.236.236 0 0 0 .06-.179l-.28-2.545a.329.329 0 0 0-.201-.278.383.383 0 0 0-.364.023c-.07.051-.099.13-.086.236l.249 2.248-.17.01a60.02 60.02 0 0 1-11.192-.427 59.71 59.71 0 0 1-5.667-1.043l-.473-.109c-.771-.178-1.569-.36-2.325-.619-.469-.159-.453-.593-.44-.941.003-.095.006-.194.003-.29l-.09-1.681c-.009-.217-.178-.309-.337-.309Z"
				fill="#151921" />
	<path d="M63.927 118.677a30.038 30.038 0 0 0-4.271-2.865v.02a.733.733 0 0 1-.115.379 2.553 2.553 0 0 1-.271.37c-.022.029-.051.051-.08.077a28.715 28.715 0 0 1 3.847 2.545 11.89 11.89 0 0 1-1.292 3.04c-.322.536.523 1.008.845.475a12.788 12.788 0 0 0 1.474-3.576c.032-.153-.006-.36-.137-.465Z"
				fill="#151921" />
	<path d="M62.185 123.114a.714.714 0 0 1-.36-.102c-.265-.16-.428-.504-.22-.849.539-.893.957-1.869 1.247-2.899a28.385 28.385 0 0 0-3.741-2.466l-.189-.105.189-.182c.012-.013.025-.022.035-.035.102-.118.188-.236.255-.348a.588.588 0 0 0 .092-.306l.007-.261.23.108a30.143 30.143 0 0 1 4.293 2.88c.197.16.236.44.188.632a12.982 12.982 0 0 1-1.49 3.62.604.604 0 0 1-.536.313Zm-2.74-6.495a28.241 28.241 0 0 1 3.688 2.46l.083.067-.03.102a12.07 12.07 0 0 1-1.31 3.081c-.144.239.067.386.112.411.14.087.344.093.462-.098a12.645 12.645 0 0 0 1.454-3.535c.026-.098.004-.242-.076-.306a29.63 29.63 0 0 0-4.048-2.737.887.887 0 0 1-.102.233 3.115 3.115 0 0 1-.232.322ZM72.548 122.629c-.277-.877-.838-1.627-1.457-2.297-.584-.631-1.28-1.174-2.115-1.416a.49.49 0 0 0-.59.348.492.492 0 0 0 .348.59c.657.188 1.196.644 1.684 1.174.504.545.979 1.167 1.202 1.872.08.249.348.402.603.328a.487.487 0 0 0 .325-.599Z"
				fill="#151921" />
	<path d="M72.089 123.407a.658.658 0 0 1-.622-.459c-.182-.571-.552-1.149-1.167-1.815-.578-.625-1.075-.973-1.611-1.129a.65.65 0 0 1-.46-.785.645.645 0 0 1 .31-.399.616.616 0 0 1 .478-.063c.772.223 1.487.701 2.189 1.46.775.836 1.247 1.586 1.492 2.358a.627.627 0 0 1-.048.484.645.645 0 0 1-.386.319.459.459 0 0 1-.175.029Zm-3.234-4.347a.29.29 0 0 0-.157.044.322.322 0 0 0-.159.201.332.332 0 0 0 .24.399c.596.172 1.138.548 1.757 1.218.647.702 1.04 1.314 1.237 1.933.055.169.24.278.405.223a.314.314 0 0 0 .195-.162.295.295 0 0 0 .025-.236c-.23-.724-.682-1.436-1.422-2.236-.66-.718-1.33-1.164-2.045-1.372a.215.215 0 0 0-.076-.012ZM65.286 107.526c-.606-.198-1.238-.217-1.866-.211-.708.01-1.413.026-2.121.039l-4.185.076c-.625.013-.61.979.016.97l4.025-.074c.657-.012 1.314-.025 1.974-.035.479-.009.95-.019 1.417.058-.632 2.012-1.26 4.025-1.892 6.041a.424.424 0 0 0 .013.297 1.04 1.04 0 0 1 .447-.565l.242-.105c.143-.042.29-.042.437-.023.612-1.958 1.228-3.916 1.84-5.875.08-.265-.111-.513-.347-.593Z"
				fill="#151921" />
	<path d="m62.673 115.13-.156-.386a.572.572 0 0 1-.016-.405l1.834-5.859a8.014 8.014 0 0 0-1.154-.029l-2.026.038-4.025.073c-.415.013-.632-.312-.638-.631-.006-.322.204-.651.615-.657l4.846-.089c.487-.01.972-.02 1.46-.026.715-.003 1.324.026 1.92.22.307.099.565.431.45.788l-1.882 6.006-.134-.019a.88.88 0 0 0-.37.016l-.223.099a.858.858 0 0 0-.36.475l-.14.386Zm.932-7.005c.322 0 .647.013.966.064l.182.029-1.828 5.84c.035-.025.07-.051.106-.073l.261-.118c.13-.038.252-.051.386-.048l1.802-5.754c.051-.169-.086-.338-.245-.389-.555-.182-1.123-.214-1.819-.201-.484.006-.97.016-1.457.025l-4.845.09c-.246.003-.306.21-.303.331.003.15.076.316.312.319l6.051-.111c.144 0 .287-.004.43-.004Z"
				fill="#151921" />
	<path d="M62.641 114.546a.452.452 0 0 0-.334-.386c-2.214-.663-4.696-.092-6.424 1.433-.437.382-.9.858-1.056 1.432-.153.574.054 1.231.603 1.505.526.265 1.199.137 1.728-.054.6-.217 1.14-.561 1.64-.951 1.052-.819 2.102-2.012 3.515-2.124.475-.038.577-.606.328-.855Zm-5.7 2.976c-.255.096-1.046.396-1.18-.003-.146-.434.466-.935.74-1.187.683-.621 1.535-1.055 2.425-1.288a5.672 5.672 0 0 1 1.837-.166 7.756 7.756 0 0 0-1.308.861c-.791.632-1.547 1.416-2.514 1.783Z"
				fill="#151921" />
	<path d="M56.125 118.839c-.262 0-.526-.044-.766-.165-.58-.294-.867-1.005-.685-1.691.166-.622.65-1.113 1.103-1.512 1.796-1.582 4.316-2.143 6.577-1.464.23.067.386.236.437.466a.68.68 0 0 1 .1.663.633.633 0 0 1-.56.421c-1.058.083-1.916.817-2.745 1.525-.23.198-.46.392-.686.568-.6.465-1.133.775-1.684.973-.31.114-.702.216-1.091.216Zm4.284-4.8c-1.598 0-3.19.581-4.421 1.668-.415.367-.861.814-1.005 1.356-.124.466.016 1.068.52 1.324.491.248 1.145.102 1.604-.064.517-.188 1.024-.482 1.595-.925.223-.172.447-.364.673-.558.868-.74 1.764-1.509 2.928-1.598a.315.315 0 0 0 .284-.214c.048-.131.022-.287-.06-.367l-.039-.038-.006-.051a.3.3 0 0 0-.223-.259 6.294 6.294 0 0 0-1.85-.274Zm-4.278 3.844a.663.663 0 0 1-.293-.058.429.429 0 0 1-.227-.252c-.169-.501.386-.998.718-1.295l.067-.06a5.894 5.894 0 0 1 2.491-1.327 5.95 5.95 0 0 1 1.888-.173l.59.039-.526.265c-.402.2-.82.475-1.279.845-.185.146-.367.303-.552.459-.609.52-1.24 1.059-2.01 1.349-.273.102-.596.208-.867.208Zm4.045-2.858a5.3 5.3 0 0 0-1.21.172c-.902.236-1.718.67-2.356 1.253l-.07.064c-.256.23-.73.654-.629.957.01.032.029.051.06.067.097.045.339.058.913-.163.715-.271 1.324-.791 1.914-1.295.188-.159.373-.315.558-.465.287-.23.558-.424.82-.59Z"
				fill="#151921" />
	<path d="M69.786 115.666c-1.036-.849-2.315-1.71-3.62-2.058-.778-.207-1.595-.232-2.395-.207-.613.022-1.554-.073-1.758.676a.436.436 0 0 0 0 .24c-.108-.004-.217-.007-.328-.004-.622.02-.61.989.016.97 2.497-.073 4.59 1.643 6.991 2.061.514.089 1.193.226 1.605-.198.523-.542-.09-1.133-.51-1.48Zm-6.842-1.254.307-.019c.204-.009.408-.022.612-.029.357-.009.715-.012 1.069.016.727.055 1.41.252 2.05.594.651.344 1.29.759 1.88 1.193.117.086.232.178.34.274a5.232 5.232 0 0 1-.398-.061c-2.035-.392-3.834-1.614-5.86-1.968Z"
				fill="#151921" />
	<path d="M69.477 117.599c-.268 0-.536-.048-.766-.089l-.048-.01c-1.03-.179-2.009-.596-2.956-.998-1.273-.543-2.6-1.114-4-1.059h-.023c-.392 0-.609-.307-.618-.619-.01-.325.197-.657.615-.67.051-.003.106 0 .16 0a.755.755 0 0 1 .019-.118c.21-.775 1.056-.785 1.671-.791.083 0 .163-.003.236-.003.68-.026 1.576-.022 2.44.21 1.117.297 2.354 1.002 3.681 2.09.32.261.743.657.769 1.106.013.22-.07.425-.249.606-.255.268-.593.345-.931.345Zm-7.62-2.478c1.42 0 2.717.551 3.974 1.087.931.396 1.895.807 2.887.979l.047.01c.479.083 1.075.188 1.413-.16.115-.118.166-.236.16-.366-.022-.364-.498-.753-.654-.881-1.292-1.059-2.491-1.741-3.56-2.028-.826-.22-1.687-.227-2.347-.201-.077.003-.16.003-.242.003-.693.006-1.232.054-1.369.555a.334.334 0 0 0 0 .159l.051.205-.274-.007c-.083-.003-.166-.003-.252-.003-.249.006-.31.22-.306.341.003.144.086.307.3.307H61.856Zm7.853 1.543-.523-.063a4.875 4.875 0 0 1-.412-.064c-1.014-.198-1.98-.6-2.912-.986-.95-.395-1.933-.804-2.947-.982l-.303-.055.261-.261.367-.022c.204-.013.412-.023.616-.029.437-.013.772-.006 1.084.016a5.28 5.28 0 0 1 2.115.612c.619.329 1.26.734 1.9 1.206.122.089.24.182.352.281l.402.347Zm-5.659-2.143c.664.204 1.305.472 1.936.737.842.351 1.713.714 2.613.918a15.334 15.334 0 0 0-1.69-1.059 5.016 5.016 0 0 0-1.991-.577 10.458 10.458 0 0 0-.868-.019Z"
				fill="#151921" />
	<path d="M66.246 116.498a28.096 28.096 0 0 0-5.853.278c.124.048.252.092.373.143.319.134.631.278.928.46.083.051.15.108.214.172a27.517 27.517 0 0 1 4.353-.083c.623.035.603-.935-.015-.97Z"
				fill="#151921" />
	<path d="m61.847 117.714-.054-.055a1.123 1.123 0 0 0-.182-.15 7.125 7.125 0 0 0-.906-.446c-.067-.029-.134-.051-.197-.077-.058-.022-.115-.041-.173-.067l-.545-.22.58-.086c2.003-.3 3.984-.392 5.885-.277.43.025.645.392.622.724-.022.351-.277.574-.625.564a27.645 27.645 0 0 0-4.328.08l-.077.01Zm-.832-.865c.303.134.545.255.765.389.064.039.128.086.188.144a28.07 28.07 0 0 1 4.303-.077c.255.013.284-.197.287-.264.01-.147-.07-.374-.322-.386a28.073 28.073 0 0 0-5.221.194ZM69.052 118.639a39.59 39.59 0 0 0-3.422-.307c-1.113-.047-2.236.036-3.346-.057-.261-.022-.478.249-.475.491.003.284.233.456.491.475 1.065.09 2.147.01 3.215.051 1.1.045 2.201.138 3.292.281.261.035.517-.073.59-.347.067-.224-.083-.552-.345-.587Z"
				fill="#151921" />
	<path d="M68.906 119.745c-.038 0-.077-.003-.115-.006a36.888 36.888 0 0 0-3.279-.281c-.447-.019-.9-.013-1.343-.009-.615.006-1.256.009-1.882-.042-.373-.032-.638-.293-.638-.635 0-.178.087-.37.224-.497a.559.559 0 0 1 .427-.156c.625.051 1.273.047 1.901.041.472-.003.96-.006 1.439.013 1.097.048 2.251.15 3.435.306.15.019.287.108.383.252a.673.673 0 0 1 .099.539c-.08.293-.335.475-.651.475Zm-4.172-.618c.261 0 .526.003.79.012 1.117.045 2.23.141 3.308.281.173.025.36-.029.415-.23a.365.365 0 0 0-.057-.28c-.026-.039-.08-.102-.157-.112a40.214 40.214 0 0 0-3.406-.303 30.671 30.671 0 0 0-1.423-.013c-.628.003-1.285.01-1.93-.044-.082-.01-.143.035-.181.07a.378.378 0 0 0-.121.261c0 .201.175.303.347.319.613.051 1.241.045 1.853.042.182-.004.374-.003.562-.003Z"
				fill="#151921" />
	<path d="M69.161 118.69c-1.161-.868-3.02-2.322-4.619-3.429-.16.028-.322.025-.478-.013a6.528 6.528 0 0 1-1.215-.453 4.102 4.102 0 0 1-.625-.376c-.109.204-.093.472.169.618 1.738.98 4.67 3.292 6.267 4.488.21.157.54.045.667-.166.143-.248.044-.513-.166-.669Z"
				fill="#151921" />
	<path d="M68.89 119.752a.525.525 0 0 1-.326-.106c-.309-.232-.672-.507-1.065-.807-1.601-1.218-3.792-2.886-5.186-3.668-.357-.201-.37-.571-.23-.832l.086-.163.15.112c.188.14.39.261.6.36.43.208.82.354 1.183.444a.983.983 0 0 0 .412.012l.067-.012.054.038c1.18.816 2.51 1.828 3.575 2.641.386.293.74.564 1.047.791.3.223.382.584.207.877a.68.68 0 0 1-.574.313Zm-6.57-5.075c.006.073.04.156.15.217 1.409.794 3.613 2.469 5.22 3.693.393.297.753.571 1.063.804.07.051.153.045.198.035a.355.355 0 0 0 .236-.156c.111-.185.003-.36-.125-.456-.306-.23-.663-.501-1.05-.794-1.049-.798-2.353-1.79-3.511-2.597-.16.019-.322.013-.479-.025a6.566 6.566 0 0 1-1.247-.466 3.689 3.689 0 0 1-.456-.255ZM51.312 108.999c-.026-.621-.995-.637-.97-.012.156 3.754.428 7.505.813 11.243.064.613 1.034.632.97.013a183.875 183.875 0 0 1-.813-11.244Z"
				fill="#151921" />
	<path d="M51.7 120.859a.78.78 0 0 1-.302-.064.663.663 0 0 1-.399-.549c-.386-3.729-.66-7.515-.813-11.253a.579.579 0 0 1 .261-.529.705.705 0 0 1 .686-.019.625.625 0 0 1 .341.545c.153 3.741.428 7.521.814 11.234a.542.542 0 0 1-.214.517.624.624 0 0 1-.373.118Zm-.899-12.172a.362.362 0 0 0-.185.048c-.08.051-.118.134-.114.245.153 3.732.427 7.509.813 11.234.019.179.14.259.21.287.122.055.268.048.358-.016.067-.047.092-.124.082-.226a181.15 181.15 0 0 1-.813-11.253.31.31 0 0 0-.169-.278.454.454 0 0 0-.182-.041ZM37.867 107.315c.236-.054.546.102.581.364.118.89.21 1.783.29 2.676a18.25 18.25 0 0 0-.816 1.824c0-.006-.003-.012-.003-.019a63.601 63.601 0 0 0-.415-4.264c-.035-.259.09-.52.364-.581Z"
				fill="#151921" />
	<path d="m37.82 112.878-.058-.686a65.273 65.273 0 0 0-.418-4.274c-.047-.364.157-.683.488-.759a.665.665 0 0 1 .527.112.56.56 0 0 1 .248.389c.106.803.201 1.681.294 2.682l.003.048-.022.041a18.99 18.99 0 0 0-.81 1.809l-.252.638Zm.083-5.406c-.198.044-.265.236-.243.405.16 1.199.284 2.411.37 3.61.179-.421.357-.804.545-1.164a63.784 63.784 0 0 0-.287-2.622.27.27 0 0 0-.111-.169.348.348 0 0 0-.274-.06Z"
				fill="#151921" />
	<path d="m38.795 109.159 2.533-.198c.746-.057 1.537-.073 2.242-.354.243-.096.523-.048.654.201.112.214.042.558-.2.654-.817.325-1.672.383-2.543.45l-2.727.213c-.261.02-.475-.264-.462-.504.012-.287.242-.443.503-.462Z"
				fill="#151921" />
	<path d="M38.729 110.288a.556.556 0 0 1-.383-.163.691.691 0 0 1-.214-.51c.016-.338.278-.587.65-.616l2.872-.223c.631-.045 1.282-.089 1.856-.319.344-.137.698-.022.855.274a.695.695 0 0 1 .028.543.555.555 0 0 1-.312.335c-.804.322-1.656.386-2.479.449l-2.835.224c-.013.006-.026.006-.038.006Zm.08-.973c-.08.007-.348.048-.358.313a.36.36 0 0 0 .118.264c.038.039.099.08.176.074l2.838-.223c.836-.064 1.624-.125 2.383-.431a.255.255 0 0 0 .13-.147.378.378 0 0 0-.009-.284c-.092-.178-.296-.191-.456-.127-.622.249-1.298.293-1.952.338l-2.87.223Z"
				fill="#151921" />
	<path d="M36.212 114.237a17.659 17.659 0 0 0 2.08-4.332c.191-.593 1.113-.296.921.297a18.567 18.567 0 0 1-2.184 4.558c-.345.52-1.162-.003-.817-.523Z"
				fill="#151921" />
	<path d="M36.649 115.136a.715.715 0 0 1-.383-.118c-.264-.172-.411-.529-.188-.867a17.446 17.446 0 0 0 2.06-4.294.607.607 0 0 1 .45-.421.7.7 0 0 1 .654.211.605.605 0 0 1 .121.603 18.847 18.847 0 0 1-2.204 4.596.599.599 0 0 1-.51.29Zm2.076-5.397c-.025 0-.047.004-.07.007a.28.28 0 0 0-.213.204 17.752 17.752 0 0 1-2.1 4.37c-.124.185-.025.347.096.427.103.067.316.128.453-.08a18.313 18.313 0 0 0 2.166-4.519c.045-.144-.003-.24-.054-.294a.388.388 0 0 0-.278-.115ZM23.17 121.681c6.65.692 13.37.16 19.83-1.566l-.02.144a.771.771 0 0 0 .035.363c0 .166-.003.329-.006.495a55.556 55.556 0 0 1-19.881 1.534c-.616-.064-.58-1.034.041-.97Z"
				fill="#151921" />
	<path d="M28.888 123.11c-1.923 0-3.85-.099-5.776-.3a.632.632 0 0 1-.526-.376.692.692 0 0 1 .06-.682c.125-.17.316-.246.543-.227 6.65.692 13.3.169 19.772-1.56l.233-.063-.054.385a.565.565 0 0 0 .028.288l.01.054-.006.615-.118.032a55.842 55.842 0 0 1-14.166 1.834Zm-5.776-1.272a.24.24 0 0 0-.207.099.374.374 0 0 0-.026.363.311.311 0 0 0 .268.188c6.622.689 13.25.185 19.706-1.499l.003-.344a.905.905 0 0 1-.045-.316 54.758 54.758 0 0 1-19.657 1.509c-.013.003-.03 0-.042 0Z"
				fill="#151921" />
	<path d="M21.881 122.558c.083-.612 1.053-.577.97.042-.096.692-.189 1.381-.284 2.073 3.716.3 7.46.268 11.17-.131a59.786 59.786 0 0 0 5.677-.89c.932-.191 1.892-.366 2.8-.647.467-.144.323-.638.358-1.078l.134-1.678c.048-.619 1.017-.58.97.042l-.134 1.677c-.035.456.012 1.011-.198 1.432-.147.291-.392.402-.689.495-.51.156-1.043.265-1.563.386a59.26 59.26 0 0 1-6.338 1.119c-4.232.514-8.51.584-12.755.208-.242-.023-.5-.236-.462-.504.111-.852.226-1.7.344-2.546Z"
				fill="#151921" />
	<path d="M27.393 126c-1.809 0-3.614-.08-5.41-.239a.716.716 0 0 1-.485-.262.547.547 0 0 1-.121-.424l.348-2.539a.65.65 0 0 1 .405-.526.694.694 0 0 1 .676.076.55.55 0 0 1 .2.536l-.26 1.908c3.715.29 7.406.239 10.972-.144a60.152 60.152 0 0 0 5.664-.887l.485-.099c.766-.153 1.557-.315 2.303-.545.227-.07.246-.233.24-.622 0-.105-.004-.214.006-.319l.134-1.678a.62.62 0 0 1 .354-.526.7.7 0 0 1 .685.048.581.581 0 0 1 .246.545l-.134 1.678c-.01.112-.013.23-.016.351-.013.373-.025.794-.198 1.142-.181.363-.5.488-.784.574-.412.124-.836.22-1.244.313l-.329.073a60.06 60.06 0 0 1-6.357 1.123 61.495 61.495 0 0 1-7.38.443Zm-4.989-3.722a.38.38 0 0 0-.156.032.33.33 0 0 0-.21.274l-.348 2.539c-.01.064.01.124.054.182a.413.413 0 0 0 .265.143c4.229.377 8.51.306 12.723-.204a60.317 60.317 0 0 0 6.322-1.116l.331-.077c.406-.092.823-.188 1.222-.306.287-.089.475-.182.59-.412.144-.283.153-.65.166-1.007.003-.125.006-.249.016-.364l.134-1.678c.01-.115-.029-.201-.108-.258a.39.39 0 0 0-.367-.022.303.303 0 0 0-.172.261l-.135 1.678c-.006.095-.006.194-.006.29.003.348.01.782-.465.928-.76.236-1.56.399-2.335.555l-.482.099a60.772 60.772 0 0 1-5.694.893 59.787 59.787 0 0 1-11.198.131l-.17-.013.307-2.242c.016-.105-.013-.185-.08-.239a.313.313 0 0 0-.204-.067Z"
				fill="#151921" />
	<path d="M30.844 118.236a29.595 29.595 0 0 1 4.344-2.749v.019c0 .137.035.265.105.383.074.134.166.261.262.379.022.029.05.052.076.077a28.12 28.12 0 0 0-3.91 2.443 11.82 11.82 0 0 0 1.212 3.075c.31.546-.549.995-.858.453a12.775 12.775 0 0 1-1.378-3.614c-.032-.156.01-.36.147-.466Z"
				fill="#151921" />
	<path d="M32.483 122.721h-.006a.627.627 0 0 1-.542-.325 12.946 12.946 0 0 1-1.394-3.659c-.042-.194.003-.472.204-.625a30.018 30.018 0 0 1 4.37-2.765l.207-.109.022.233a.636.636 0 0 0 .086.338c.067.118.15.236.246.357l.038.039.185.182-.194.098a28.492 28.492 0 0 0-3.805 2.367c.261 1.04.657 2.026 1.17 2.931a.587.587 0 0 1 .007.6.689.689 0 0 1-.594.338Zm2.574-6.985a29.641 29.641 0 0 0-4.118 2.628c-.082.061-.108.204-.086.306a12.56 12.56 0 0 0 1.362 3.57.292.292 0 0 0 .265.162h.003a.396.396 0 0 0 .322-.175c.051-.086.048-.182-.01-.281a12.04 12.04 0 0 1-1.227-3.116l-.026-.102.086-.064a27.918 27.918 0 0 1 3.751-2.36 3.28 3.28 0 0 1-.223-.332 1.013 1.013 0 0 1-.099-.236ZM22.117 121.959c.303-.871.88-1.605 1.518-2.258.6-.616 1.311-1.139 2.153-1.359.252-.067.523.115.58.363a.491.491 0 0 1-.363.581c-.66.172-1.212.612-1.716 1.129-.52.533-1.008 1.142-1.25 1.84a.491.491 0 0 1-.61.313.488.488 0 0 1-.312-.609Z"
				fill="#151921" />
	<path d="M22.573 122.753a.706.706 0 0 1-.195-.029.647.647 0 0 1-.38-.331.629.629 0 0 1-.034-.485c.265-.766.759-1.499 1.556-2.316.721-.74 1.448-1.199 2.227-1.4a.61.61 0 0 1 .478.076.657.657 0 0 1 .3.409.654.654 0 0 1-.478.772c-.543.14-1.047.475-1.64 1.084-.631.651-1.017 1.215-1.215 1.783a.659.659 0 0 1-.619.437Zm3.324-4.265a.259.259 0 0 0-.067.01c-.721.188-1.4.619-2.08 1.314-.762.782-1.234 1.48-1.48 2.198a.307.307 0 0 0 .02.236.332.332 0 0 0 .19.169.335.335 0 0 0 .412-.214c.21-.612.622-1.215 1.289-1.901.637-.654 1.186-1.014 1.789-1.17a.335.335 0 0 0 .249-.39.325.325 0 0 0-.153-.204.35.35 0 0 0-.17-.048ZM29.782 107.057c.609-.182 1.24-.185 1.872-.16.705.029 1.413.064 2.118.096 1.394.064 2.788.124 4.178.188.622.029.584.995-.041.97l-4.022-.179c-.657-.029-1.314-.057-1.971-.089-.479-.022-.95-.045-1.42.019l1.732 6.089a.42.42 0 0 1-.022.297 1.497 1.497 0 0 0-.083-.195 1.04 1.04 0 0 0-.35-.383 8.518 8.518 0 0 0-.24-.111 1.011 1.011 0 0 0-.437-.032l-1.684-5.923c-.07-.271.127-.517.37-.587Z"
				fill="#151921" />
	<path d="m32.187 114.721-.131-.389a1.15 1.15 0 0 0-.07-.172.846.846 0 0 0-.297-.322l-.22-.102a.902.902 0 0 0-.348-.019l-.134.016-1.719-6.054c-.102-.364.166-.686.472-.779.635-.188 1.298-.191 1.924-.169.484.02.97.042 1.454.064l4.845.217c.23.01.421.128.523.325a.7.7 0 0 1-.032.689.6.6 0 0 1-.548.275l-5.994-.268c-.433-.019-.823-.039-1.205-.003l1.68 5.907a.591.591 0 0 1-.028.405l-.172.379Zm-.938-1.33c.118 0 .23.016.335.051l.258.122c.045.028.086.057.125.089l-1.675-5.888.182-.026c.469-.063.947-.041 1.41-.022l6.028.271c.156.026.227-.067.268-.127a.39.39 0 0 0 .016-.37.282.282 0 0 0-.255-.154l-4.845-.216c-.485-.023-.97-.045-1.455-.064-.689-.026-1.263-.013-1.821.153-.163.048-.303.214-.255.386l1.649 5.799c.016-.004.025-.004.035-.004Z"
				fill="#151921" />
	<path d="M32.54 115.002c1.41.15 2.428 1.372 3.458 2.217.491.402 1.02.759 1.614.992.523.204 1.193.354 1.726.102.555-.262.781-.912.644-1.49-.14-.58-.59-1.065-1.014-1.46-1.688-1.57-4.153-2.208-6.383-1.602a.457.457 0 0 0-.344.38c-.258.242-.172.813.3.861Zm2.849.415a7.41 7.41 0 0 0-1.282-.896 5.763 5.763 0 0 1 1.834.216c.886.259 1.722.712 2.389 1.356.268.258.867.775.708 1.206-.144.395-.928.076-1.18-.029-.957-.392-1.694-1.196-2.469-1.853Z"
				fill="#151921" />
	<path d="M38.697 118.607c-.412 0-.82-.118-1.142-.246-.546-.214-1.072-.536-1.656-1.018a17.487 17.487 0 0 1-.673-.586c-.81-.731-1.645-1.484-2.701-1.595a.64.64 0 0 1-.549-.434.685.685 0 0 1 .118-.664.618.618 0 0 1 .45-.456c2.277-.615 4.781.01 6.532 1.637.44.411.913.912 1.062 1.54.166.692-.143 1.394-.73 1.672-.226.108-.469.15-.711.15Zm-4.39-4.912c-.564 0-1.128.073-1.683.223a.3.3 0 0 0-.23.252l-.01.054-.038.035c-.086.08-.115.236-.07.367a.314.314 0 0 0 .28.22c1.159.121 2.036.912 2.884 1.675.223.2.44.398.66.577.562.459 1.06.769 1.57.969.456.179 1.103.342 1.6.106.514-.243.667-.842.556-1.311-.13-.546-.565-1.005-.97-1.381a6.716 6.716 0 0 0-4.548-1.786Zm4.377 3.955c-.277 0-.61-.118-.887-.233-.759-.313-1.378-.868-1.974-1.404a18.877 18.877 0 0 0-.536-.472 7.1 7.1 0 0 0-1.257-.877l-.52-.277.59-.023a5.869 5.869 0 0 1 1.882.224 5.96 5.96 0 0 1 2.456 1.393l.067.061c.322.306.865.817.683 1.314a.434.434 0 0 1-.233.249.742.742 0 0 1-.271.045Zm-3.997-2.964c.259.173.524.374.804.61.182.153.364.315.546.481.577.52 1.173 1.056 1.882 1.346.456.189.759.252.909.185a.108.108 0 0 0 .063-.067c.109-.299-.354-.736-.602-.972l-.068-.064c-.621-.6-1.425-1.056-2.325-1.318a5.827 5.827 0 0 0-1.209-.201Z"
				fill="#151921" />
	<path d="M24.519 116.539c.399.434 1.081.316 1.598.24 2.411-.358 4.548-2.016 7.043-1.876.625.035.663-.934.041-.969-.112-.007-.22-.007-.328-.007a.46.46 0 0 0 .006-.239c-.185-.756-1.126-.686-1.738-.724-.798-.048-1.618-.045-2.4.143-1.313.316-2.615 1.142-3.674 1.962-.433.338-1.058.915-.548 1.47Zm1.505-.724c-.13.023-.264.039-.398.051.114-.092.23-.181.35-.264a15.357 15.357 0 0 1 1.911-1.142 5.079 5.079 0 0 1 2.067-.539 10.57 10.57 0 0 1 1.069.013c.204.012.408.025.612.044.102.01.204.016.303.026-2.035.3-3.866 1.47-5.914 1.811Z"
				fill="#151921" />
	<path d="M25.386 117.012c-.36 0-.72-.08-.982-.364-.172-.188-.249-.392-.23-.612.038-.45.472-.836.798-1.088 1.355-1.053 2.612-1.722 3.735-1.99.87-.208 1.764-.188 2.446-.147.074.006.153.006.236.01.616.022 1.461.054 1.65.835.009.039.015.08.015.118.054 0 .105.003.16.007.414.022.615.363.596.685-.016.316-.245.613-.654.6-1.416-.083-2.743.447-4.028.954-.957.376-1.95.768-2.983.922l-.047.006c-.22.029-.466.064-.712.064Zm-.75-.581c.332.357.929.268 1.407.198l.048-.006c.999-.147 1.971-.53 2.912-.903 1.32-.52 2.686-1.062 4.166-.976.233.013.31-.153.319-.3.006-.124-.048-.335-.297-.351-.092-.006-.178-.006-.27-.006h-.256l.057-.201a.303.303 0 0 0 .004-.16c-.125-.507-.66-.564-1.353-.59a55.595 55.595 0 0 1-.242-.009c-.657-.038-1.522-.061-2.354.137-1.078.258-2.294.909-3.614 1.933-.16.124-.648.501-.676.864a.474.474 0 0 0 .15.37Zm.48-.357.407-.332c.115-.095.236-.185.358-.271a15.727 15.727 0 0 1 1.93-1.154 5.323 5.323 0 0 1 2.13-.559c.316-.012.66-.009 1.085.013.207.013.411.029.615.045l.364.032.041.041-.102.102.013.169c-1.02.15-2.013.533-2.973.903-.944.363-1.917.74-2.937.909a6.418 6.418 0 0 1-.412.051l-.52.051Zm5.205-2.006a6.86 6.86 0 0 0-.36.009 4.968 4.968 0 0 0-2.004.523 14.96 14.96 0 0 0-1.716 1.015c.903-.182 1.783-.52 2.635-.849.634-.245 1.285-.494 1.955-.682a9.537 9.537 0 0 0-.51-.016Z"
				fill="#151921" />
	<path d="M28.582 115.997a28.524 28.524 0 0 1 5.844.431c-.125.045-.252.083-.38.134a6.734 6.734 0 0 0-.938.434 1.148 1.148 0 0 0-.22.169 27.469 27.469 0 0 0-4.347-.198c-.622.019-.578-.947.041-.97Z"
				fill="#151921" />
	<path d="m32.946 117.331-.077-.01a27.577 27.577 0 0 0-4.325-.195h-.022c-.335 0-.574-.236-.587-.58-.01-.332.21-.695.641-.708a28.459 28.459 0 0 1 5.875.434l.58.102-.554.204-.166.057a6.747 6.747 0 0 0-1.126.498.915.915 0 0 0-.188.143l-.051.055Zm-3.483-.539c1.132 0 2.261.066 3.374.204.064-.058.128-.102.195-.141.22-.127.466-.242.772-.37a28.159 28.159 0 0 0-5.215-.331c-.252.009-.338.229-.332.379.003.064.029.271.268.271h.013c.306-.006.615-.012.925-.012ZM25.718 118.064a39.673 39.673 0 0 1 3.429-.213c1.113-.02 2.236.095 3.346.031.265-.015.472.262.462.504-.01.284-.245.45-.504.463-1.068.061-2.146-.048-3.215-.035-1.1.016-2.204.076-3.298.191-.261.029-.513-.086-.58-.363-.058-.227.102-.549.36-.578Z"
				fill="#151921" />
	<path d="M25.858 119.171c-.328 0-.587-.188-.66-.491a.683.683 0 0 1 .115-.536.544.544 0 0 1 .386-.239c1.19-.125 2.35-.198 3.441-.214.479-.01.967.01 1.436.026.625.022 1.273.044 1.9.006a.59.59 0 0 1 .425.169.711.711 0 0 1 .21.501c-.012.341-.28.596-.653.619-.629.035-1.263.012-1.879-.01-.44-.016-.896-.032-1.343-.026-1.1.013-2.204.08-3.285.192-.029.003-.06.003-.093.003Zm3.547-1.164c-.086 0-.169 0-.255.003a38.058 38.058 0 0 0-3.416.214c-.08.009-.134.07-.16.105-.057.083-.086.195-.063.277.047.205.245.265.408.243a36.77 36.77 0 0 1 3.314-.195c.45-.003.912.01 1.359.026.609.022 1.24.044 1.85.009.172-.009.347-.108.354-.309a.372.372 0 0 0-.115-.265c-.038-.038-.099-.095-.182-.076-.644.038-1.298.012-1.933-.007-.38-.009-.772-.025-1.16-.025Z"
				fill="#151921" />
	<path d="M25.61 118.112c1.183-.835 3.08-2.242 4.707-3.304.157.032.323.035.479 0a6.482 6.482 0 0 0 1.228-.421 4.01 4.01 0 0 0 .635-.361c.105.208.08.472-.185.613-1.764.931-4.756 3.167-6.386 4.318-.214.15-.542.029-.66-.181-.14-.249-.032-.514.182-.664Z"
				fill="#151921" />
	<path d="M25.868 119.181a.68.68 0 0 1-.58-.332c-.17-.297-.074-.654.23-.871.315-.223.679-.485 1.077-.772 1.088-.781 2.44-1.754 3.636-2.539l.055-.035.063.013a.984.984 0 0 0 .412 0c.367-.08.759-.214 1.196-.411.214-.096.418-.214.606-.345l.153-.108.083.166c.13.264.108.634-.252.826-1.41.746-3.646 2.354-5.279 3.527-.402.291-.772.555-1.087.779a.498.498 0 0 1-.313.102Zm-.166-.938c-.127.093-.242.265-.137.453.041.076.134.14.233.163.045.009.127.019.198-.032.315-.224.685-.488 1.087-.779 1.64-1.18 3.885-2.797 5.317-3.55a.267.267 0 0 0 .157-.213 3.434 3.434 0 0 1-.466.245c-.46.204-.87.348-1.26.434a1.281 1.281 0 0 1-.478.013c-1.18.775-2.504 1.725-3.573 2.494-.398.284-.762.549-1.078.772ZM43.708 108.9c.041-.618 1.01-.612.97.013a183.691 183.691 0 0 1-1.11 11.218c-.08.613-1.05.606-.97-.013.485-3.728.855-7.47 1.11-11.218Z"
				fill="#151921" />
	<path d="M43.025 120.744a.637.637 0 0 1-.39-.125.542.542 0 0 1-.197-.523c.485-3.709.858-7.479 1.11-11.208a.629.629 0 0 1 .354-.536.707.707 0 0 1 .686.035.582.582 0 0 1 .249.536 181.413 181.413 0 0 1-1.113 11.227.658.658 0 0 1-.412.536.731.731 0 0 1-.287.058Zm1.193-12.143a.422.422 0 0 0-.176.038.312.312 0 0 0-.175.271 181.674 181.674 0 0 1-1.113 11.228c-.013.102.013.178.077.229.086.067.235.077.357.026a.344.344 0 0 0 .217-.284c.484-3.706.858-7.48 1.11-11.208.006-.112-.03-.195-.109-.249a.327.327 0 0 0-.188-.051ZM62.874 65.113c-5.24 1.713-11.345 1.503-15.33 5.821-.423.46.298 1.107.722.648 2.453-2.66 6.111-3.57 9.527-4.274 2.619-.542 5.336-1.056 7.748-2.227a9.112 9.112 0 0 1-2.667.032Z"
				fill="#151921" />
	<path d="M64.96 65.165c-2.111.93-4.433 1.419-6.71 1.888l-.492.102c-3.515.727-7.154 1.658-9.61 4.322-.17.185-.367.089-.456.006-.109-.099-.182-.274-.03-.44 2.766-2.998 6.658-3.805 10.421-4.587 1.736-.36 3.496-.73 5.177-1.31a9.194 9.194 0 0 1-.724-.1c-1.474.463-3.008.785-4.516 1.1-3.815.792-7.758 1.608-10.59 4.683-.277.3-.185.676.048.89a.67.67 0 0 0 .453.185.608.608 0 0 0 .453-.21c2.395-2.597 5.977-3.512 9.441-4.227l.491-.102c2.638-.542 5.346-1.106 7.729-2.363-.354.076-.718.13-1.085.163Z"
				fill="#151921" />
	<path d="M72.194 61.55c-.044.052-.096.096-.143.144.248.785.252 1.675.01 2.495-.667 2.245-2.552 3.37-4.715 3.884-4.338 1.034-8.864.24-13.24 1.028-2.156.389-4.214 1.164-5.936 2.538-.488.39.191 1.082.676.696 3.745-2.989 8.874-2.61 13.368-2.73 2.408-.064 4.95-.227 7.196-1.18 1.987-.843 3.438-2.629 3.754-4.782.14-.95-.01-1.946-.412-2.797-.175.242-.36.481-.558.705Z"
				fill="#151921" />
	<path d="M72.858 60.715c-.07.095-.144.191-.217.287.366.82.494 1.754.37 2.622-.3 2.044-1.7 3.827-3.659 4.657-2.264.96-4.874 1.103-7.138 1.167-.587.016-1.183.022-1.79.032-4.117.051-8.379.102-11.677 2.733a.341.341 0 0 1-.344.055c-.125-.048-.224-.16-.24-.272-.012-.082.023-.159.106-.226 1.556-1.244 3.53-2.086 5.862-2.507 2.016-.364 4.105-.39 6.124-.411 2.351-.03 4.779-.058 7.123-.616 2.603-.622 4.23-1.965 4.832-3.997.268-.9.249-1.85-.035-2.67a3.278 3.278 0 0 1-.258.259c.21.724.217 1.55-.01 2.319-.568 1.914-2.115 3.183-4.6 3.776-2.309.549-4.72.58-7.055.61-2.032.025-4.134.05-6.175.418-2.386.43-4.405 1.294-6.006 2.57a.556.556 0 0 0-.223.523.69.69 0 0 0 .44.52.648.648 0 0 0 .657-.102c3.212-2.564 7.416-2.615 11.483-2.666.606-.007 1.205-.016 1.792-.032 2.297-.064 4.938-.21 7.253-1.193 2.06-.87 3.534-2.753 3.85-4.906a5.127 5.127 0 0 0-.465-2.95ZM63.426 91.977a.934.934 0 0 1-.144-.447.859.859 0 0 1-.019-.22c-3.595 1.652-7.703 1.786-11.572 1.98-4.395.224-8.803.234-13.202.023-2.411-.115-4.822-.316-7.18-.87-.041.318-.082.637-.12.956 4.241.983 8.7 1.011 13.026 1.03 4.443.023 8.947-.076 13.361-.638 2.073-.264 4.118-.724 6.032-1.588a.847.847 0 0 1-.182-.226Z"
				fill="#151921" />
	<path d="M45.357 94.595c-.386 0-.766 0-1.142-.003-4.313-.02-8.775-.041-13.065-1.037l-.14-.032.162-1.275.173.041c2.475.58 5.004.766 7.15.868 4.361.207 8.798.2 13.187-.023l.539-.025c3.722-.185 7.572-.377 10.975-1.943l.233-.105-.006.255a.63.63 0 0 0 .016.179c.01.16.047.28.12.395l.007.01a.773.773 0 0 0 .15.188l.172.163-.216.099c-1.72.778-3.707 1.301-6.08 1.604-4.242.54-8.507.641-12.235.641Zm-13.993-1.317c4.213.954 8.602.976 12.85.995 3.975.02 8.67-.041 13.34-.635 2.248-.287 4.146-.772 5.789-1.49-.022-.031-.038-.06-.057-.092a1.047 1.047 0 0 1-.163-.507c-3.407 1.502-7.209 1.694-10.886 1.876l-.54.028c-4.398.224-8.844.23-13.214.023-2.111-.1-4.593-.278-7.04-.836l-.08.638Z"
				fill="#151921" />
	<path d="M64.204 93.887a1.773 1.773 0 0 1-.277-.938.62.62 0 0 0-.648-.631.587.587 0 0 0-.587.625c.007.306.051.6.14.887-6.59 2.335-13.779 2.93-23.497 2.2-1.161-.089-2.36-.194-3.668-.328l-.485-.048c-.97-.092-2.922-.22-3.847-.558a.535.535 0 0 0-.558.096.727.727 0 0 0-.21.65.62.62 0 0 0 .404.485c.913.335 2.823.469 3.755.568l.095.01c1.171.124 2.259.226 3.327.318 2.396.201 4.539.32 6.558.36.53.01 1.05.017 1.566.017 4.016 0 7.649-.322 11.062-.983 2.395-.462 4.309-.963 6.507-1.789a.717.717 0 0 0 .42-.434.606.606 0 0 0-.057-.507ZM49.015 71.496c-2.054-2.284-4.587-3.697-7.298-4.794a3.2 3.2 0 0 1-.52-.083c-.15.032-.309.038-.459 0-.185-.045-.376-.08-.565-.118-.143.096-.3.178-.465.245-.07.03-.144.048-.217.07 3.285 1.165 6.386 2.632 8.778 5.295.42.47 1.167-.15.746-.615Z"
				fill="#151921" />
	<path d="M49.136 71.39c-1.977-2.2-4.42-3.604-7.014-4.688a2.904 2.904 0 0 1-.922-.08c-.031.006-.063.006-.095.01 2.89 1.12 5.633 2.567 7.792 4.972.077.086.099.176.07.271a.395.395 0 0 1-.277.243.3.3 0 0 1-.297-.102c-2.363-2.632-5.445-4.115-8.657-5.273-.01.003-.015.01-.022.013-.16.064-.332.108-.504.14 3.324 1.168 6.526 2.644 8.947 5.333a.622.622 0 0 0 .6.201.704.704 0 0 0 .517-.453.6.6 0 0 0-.138-.587Z"
				fill="#151921" />
	<path d="M48.786 71.34c-1.633-1.114-3.636-1.513-5.573-1.898l-.666-.134c-2.003-.412-4.051-.76-6.032-1.098l-1.052-.178c-2.22-.38-4.587-.798-6.935-1.34-1.244-.287-2.28-.555-3.304-.922l-.144-.05c-.886-.317-2.102-.75-2.427-1.65-.147-.408-.013-.625.17-.928.079-.134.171-.284.245-.466.137-.34.105-.676.076-1.001-.016-.188-.035-.367-.019-.549.029-.35.134-.685.294-.995a1.116 1.116 0 0 1-.342-.35c-.13-.116-.265-.224-.389-.332a79.61 79.61 0 0 1-.236-.198c-.032.05-.073.099-.105.153-.23.411-.383.845-.46 1.288-.038.214-.022.47-.012.715.016.35.035.711-.086.915l-.093.153c-.2.332-.392.642-.411 1.107a2.55 2.55 0 0 0 .469 1.535c.67.96 1.888 1.425 2.778 1.766 2.3.88 4.781 1.34 7.183 1.784l.402.073c1.358.252 2.74.488 4.08.714 1.237.21 2.471.421 3.706.648 1.69.31 3.084.596 4.379.9 1.435.334 2.714.675 3.821 1.428a.602.602 0 0 0 .344.115c.084 0 .163-.019.24-.057a.701.701 0 0 0 .38-.575.619.619 0 0 0-.281-.574Z"
				fill="#151921" />
	<path d="M45.494 70.603a.969.969 0 0 1-.654-.294c.083 1.697.191 3.39.335 5.081.05.616 1.02.635.97.013a145.543 145.543 0 0 1-.326-4.858.939.939 0 0 1-.325.058Z"
				fill="#151921" />
	<path d="M45.71 76.019a.721.721 0 0 1-.312-.07.647.647 0 0 1-.38-.546 148.915 148.915 0 0 1-.338-5.087l-.019-.418.294.297c.15.153.354.245.542.248a.899.899 0 0 0 .27-.047l.205-.077.013.217c.086 1.716.191 3.301.322 4.851.02.22-.06.405-.227.52a.632.632 0 0 1-.37.112Zm-.695-5.384c.083 1.623.192 3.215.32 4.74a.34.34 0 0 0 .197.287c.121.057.271.05.364-.013.07-.048.098-.128.092-.233a142.3 142.3 0 0 1-.316-4.666.706.706 0 0 1-.182.012 1.082 1.082 0 0 1-.475-.127Z"
				fill="#151921" />
	<path d="M46.256 75.422a.526.526 0 0 0-.536-.325.576.576 0 0 0-.092-.137.56.56 0 0 0-.444-.188.477.477 0 0 0-.36.188 3.987 3.987 0 0 0-.845 2.692c.019.287.041.676.322.928a.707.707 0 0 0 .931.029c.217-.163.36-.386.498-.62.121-.2.23-.414.325-.634.268-.612.475-1.273.201-1.933ZM51.627 70.169a.969.969 0 0 1-.602.233.792.792 0 0 1-.374-.087c-.108 2.284-.16 4.568-.14 6.855.006.622.976.638.97.013-.023-2.341.032-4.68.146-7.014Z"
				fill="#151921" />
	<path d="M51.005 77.802c-.315 0-.654-.22-.657-.632-.019-2.191.03-4.497.14-6.86l.013-.243.217.105a.583.583 0 0 0 .3.07.807.807 0 0 0 .504-.191l.28-.246-.018.373c-.118 2.415-.17 4.769-.147 7.002.003.405-.313.618-.625.622h-.007Zm-.207-7.263c-.105 2.28-.15 4.51-.13 6.628.002.249.21.316.337.316h.004c.143 0 .309-.08.309-.3-.02-2.144.026-4.402.134-6.714-.13.057-.274.089-.424.092a1.362 1.362 0 0 1-.23-.022Z"
				fill="#151921" />
	<path d="M52.629 78.746a5.14 5.14 0 0 0-.852-1.42.536.536 0 0 0-.424-.169.488.488 0 0 0-.335-.287.63.63 0 0 0-.481.09.461.461 0 0 0-.205.309 4.193 4.193 0 0 0 .026 1.509c.077.376.24.918.58 1.355.205.265.514.434.823.453l.061.003a.903.903 0 0 0 .65-.274c.364-.37.422-.912.157-1.57ZM44.754 96.783c-.332.007-.664.195-.68.616l-.216 6.248a1.606 1.606 0 0 0-.463.198 1.147 1.147 0 0 0-.542.947c-.003.399.2.753.532.922.061.032.125.051.182.067-.153.507-.331 2.424-.357 2.938-.02.402.284.625.593.641h.035c.313 0 .642-.211.66-.613.036-.682.288-2.746.575-3.339a.678.678 0 0 0 .041-.536.618.618 0 0 0-.204-.277c.166-.182.208-.415.223-.587.03-.307.032-.616.039-.919l.01-.447.181-5.224c.016-.399-.293-.622-.61-.635ZM32.659 96.388a.607.607 0 0 0-.29-.542.706.706 0 0 0-.69-.013.601.601 0 0 0-.309.532c-.05 2.938-.092 7.617.14 10.549.032.398.367.618.693.618.019 0 .038 0 .054-.003.345-.029.568-.287.542-.628-.233-2.912-.191-7.585-.14-10.513Z"
				fill="#151921" />
	<path d="M36.506 97.708c-.154-.233-.444-.264-.673-.137a9.502 9.502 0 0 1-3.608 1.155.491.491 0 0 0-.45.517c.016.252.256.481.517.45a10.724 10.724 0 0 0 4.076-1.315c.227-.127.275-.462.138-.67Z"
				fill="#151921" />
	<path d="M32.244 99.855a.65.65 0 0 1-.628-.603.658.658 0 0 1 .593-.686 9.409 9.409 0 0 0 3.547-1.135c.319-.179.692-.102.883.188a.67.67 0 0 1 .083.52.578.578 0 0 1-.277.38 10.8 10.8 0 0 1-4.137 1.333c-.02.003-.041.003-.064.003Zm3.87-2.198c-.071 0-.141.02-.202.054a9.728 9.728 0 0 1-3.668 1.174c-.185.022-.322.172-.31.348a.34.34 0 0 0 .125.233.301.301 0 0 0 .217.07 10.518 10.518 0 0 0 4.016-1.295.268.268 0 0 0 .121-.175.35.35 0 0 0-.041-.269.297.297 0 0 0-.259-.14ZM51.468 105.465c.2-.22.357-.504.303-.88-.057-.408-.134-.82-.204-1.215-.058-.316-.118-.635-.166-.951-.22-1.406-.587-3.773-.724-5.253a.552.552 0 0 0-.227-.383.693.693 0 0 0-.539-.127c-.331.067-.532.37-.497.746.121 1.305.466 3.509.65 4.765.093.629.195 1.257.307 1.882.029.169.06.338.095.526l.01.048c-.175.141-.466.37-.6.476l-.07.057a.64.64 0 0 0-.22.488.564.564 0 0 0 .179.443c.16.141.322.23.49.281l.18 2.354c.01.156.092.309.232.418a.645.645 0 0 0 .51.134c.345-.07.556-.351.533-.718l-.242-3.091ZM62.249 98.257a8.052 8.052 0 0 1-.756-.246 5.887 5.887 0 0 1-.676-.312 7.386 7.386 0 0 1-1.002-.645c-.003-.003-.038-.028-.048-.038a3.699 3.699 0 0 1-.217-.185c-.19-.166-.497-.21-.685-.01-.17.18-.214.508-.01.686a7.88 7.88 0 0 0 3.123 1.684c.245.067.539-.073.6-.331.063-.252-.068-.533-.33-.603Z"
				fill="#151921" />
	<path d="M62.105 99.364a.614.614 0 0 1-.169-.023 8.072 8.072 0 0 1-3.186-1.719.554.554 0 0 1-.188-.405.701.701 0 0 1 .188-.51c.258-.271.663-.214.906 0l.166.143-.004-.003.051.041c.007.004.045.036.051.039a7.418 7.418 0 0 0 .973.628c.246.13.418.21.657.306.236.093.485.173.74.243.329.089.527.443.444.79a.593.593 0 0 1-.284.374.669.669 0 0 1-.345.096Zm-2.925-2.52a.272.272 0 0 0-.2.083.399.399 0 0 0-.103.277c.004.051.02.125.08.179a7.745 7.745 0 0 0 3.059 1.652c.086.026.185.01.268-.038a.271.271 0 0 0 .134-.176c.038-.16-.035-.36-.217-.408a7.036 7.036 0 0 1-.772-.252 5.566 5.566 0 0 1-.692-.322 8.07 8.07 0 0 1-.695-.421 7.869 7.869 0 0 1-.329-.24l-.274-.229a.384.384 0 0 0-.259-.105ZM60.549 37.673c-.115-.418-.37-.778-.782-.947a1.085 1.085 0 0 0-1.167.236c-.536.526-.82 1.349-.95 2.073-.02.108-.023.217-.032.325-.163.632-.272 1.315-.087 1.946.131.443.383.864.88.944.41.064.763-.14 1.031-.43.252-.275.43-.622.596-.951.163-.322.294-.657.387-1.005.181-.685.315-1.496.124-2.191ZM37.019 35.52c-.115-.418-.37-.778-.782-.947a1.085 1.085 0 0 0-1.167.236c-.536.526-.82 1.349-.95 2.073-.02.108-.023.217-.032.325-.163.632-.272 1.315-.087 1.946.131.443.383.864.88.944.41.064.763-.14 1.031-.43.252-.275.43-.622.596-.95.163-.323.294-.658.386-1.006.182-.689.316-1.499.125-2.19ZM93.284 25.7c-1.09-3.465-2.561-6.855-4.839-9.71-.858-1.075-2.22-2.791-3.789-1.933-1.655.903-1.218 3.075-1.113 4.606.076 1.126.134 2.252.169 3.378.019.615.035 1.23.045 1.843.006.546.098 1.168-.004 1.7-.188 1.002-1.75 1.442-2.586 1.751-1.056.39-3.43 1.095-4.65 1.289.146.172.299.341.44.52.146.147.248.322.306.523l.06.077c.003.003.003.006.003.01 1.697-.355 3.971-1.06 5.254-1.624.622-.275 1.32-.565 1.811-1.053.542-.539.641-1.231.651-1.962.025-1.843-.057-3.693-.166-5.534-.05-.886-.147-1.776-.185-2.663-.038-.88.29-2.383 1.467-1.53 1.311.95 2.306 2.675 3.104 4.053.832 1.445 1.515 2.97 2.092 4.533.597 1.617 1.139 3.279 1.487 4.969.363 1.77.634 3.697-.855 5.01-1.4 1.235-3.388 1.994-5.1 2.674a38.238 38.238 0 0 1-5.879 1.796c-.8.178-.462 1.406.338 1.23a38.227 38.227 0 0 0 5.879-1.795c1.658-.66 3.387-1.378 4.867-2.386 1.426-.973 2.303-2.274 2.313-4.035.012-1.945-.54-3.897-1.12-5.738ZM16.653 29.087a15.794 15.794 0 0 1-3.416-.849c-.835-.31-2.398-.75-2.587-1.751-.102-.536-.01-1.155-.003-1.7a99.278 99.278 0 0 1 .214-5.221c.102-1.532.539-3.704-1.113-4.606-1.57-.858-2.935.86-3.79 1.933-2.277 2.854-3.747 6.245-4.838 9.709C.54 28.442-.013 30.394 0 32.34c.013 1.764.887 3.062 2.313 4.035C3.793 37.386 5.52 38.1 7.18 38.76a38.017 38.017 0 0 0 5.123 1.614 1.48 1.48 0 0 1 .031-.39c.058-.293.125-.58.198-.867a37.959 37.959 0 0 1-5.014-1.589c-1.71-.682-3.7-1.438-5.1-2.672-1.49-1.311-1.218-3.238-.855-5.011.348-1.69.887-3.353 1.487-4.97.577-1.563 1.26-3.087 2.092-4.532.794-1.378 1.792-3.107 3.103-4.054 1.174-.852 1.506.65 1.468 1.53-.039.89-.134 1.777-.185 2.664-.106 1.84-.189 3.69-.166 5.534.01.73.105 1.423.65 1.962.492.488 1.19.775 1.812 1.052 1.547.686 3.155 1.11 4.83 1.334.813.105.803-1.171 0-1.28ZM51.765 40.86c-.437-1.219-1.512-2.122-2.763-2.409-1.384-.315-2.762.303-3.977.9-.31.153-.482.504-.341.836.127.303.526.494.835.34.96-.471 2.039-1.03 3.142-.845.896.15 1.624.83 1.927 1.672.277.772 1.451.277 1.177-.495Z"
				fill="#151921" />
	<path d="M64.35 28.49c-.777-.328-1.457.778-.672 1.11 5.406 2.293 8.998 7.738 8.542 13.47-.23 2.89-1.448 5.748-3.407 7.945-2.172 2.434-5.167 3.898-8.306 4.823-6.832 2.016-14.449 2.383-21.456 1.036-6.325-1.215-12.542-4.277-15.496-10.085-1.505-2.957-1.83-6.325-.724-9.457a12.805 12.805 0 0 1 2.367-4.06c1.123-1.308 2.533-2.508 4.08-3.327.752-.4.08-1.51-.673-1.11-1.758.93-3.314 2.287-4.533 3.763-2.724 3.292-3.926 7.668-2.81 11.904 1.751 6.634 7.878 11.014 14.395 12.892 7.45 2.147 15.77 1.968 23.275.195 3.422-.81 6.829-2.076 9.495-4.363 2.402-2.064 4.083-4.916 4.781-7.94 1.58-6.825-2.236-13.986-8.857-16.796Z"
				fill="#151921" />
	<path d="M64.354 28.48c-5.936-2.503-12.516-2.108-18.64-.532-.826.213-.485 1.457.344 1.244 5.739-1.474 12.035-1.959 17.617.398.778.326 1.464-.778.68-1.11ZM42.106 17.974c-6.605-.845-15.686 1.298-20.805 5.556-.3.25-.185.782.124.98-1.12.762-2.118 1.722-3.033 2.727a30.145 30.145 0 0 0-4.048 5.562c-1.11 1.984-1.977 4.121-2.481 6.341a20.162 20.162 0 0 0-.473 3.442c-.05 1.011-.2 2.344.434 3.206.268.363.877.424 1.1-.035.064-.135.131-.265.195-.4.032 4.096 1.63 8.131 4.523 11.11.574.59 1.442-.344.87-.931-3.444-3.55-4.873-8.762-3.747-13.575.163-.69-.858-1.117-1.18-.453l-1.005 2.05c.01-.554.086-1.116.118-1.524.083-1.04.268-2.076.523-3.087.51-2.026 1.337-3.952 2.373-5.764a28.618 28.618 0 0 1 3.729-5.075c1.429-1.563 3.027-3.052 5.113-3.649.797-.226.415-1.4-.38-1.218a5.402 5.402 0 0 1-.382.07c4.538-3.174 12.634-4.8 18.136-4.099.804.109 1.11-1.132.296-1.234Z"
				fill="#151921" />
	<path d="M40.946 66.191c-9.362-1.186-19.735-5.19-23.176-14.825-.275-.769-1.496-.395-1.219.38 1.611 4.507 4.903 8.175 8.906 10.73 4.545 2.902 9.89 4.283 15.192 4.956.804.102 1.11-1.139.297-1.24ZM48.932 19.154c3.786-.035 10.539.207 14.252.95 2.698.543 5.575 1.197 7.77 2.92-.016 0-.032 0-.048-.004-.434-.038-.686.472-.587.826.357 1.295 1.97 1.872 2.96 2.61 1.199.892 2.303 1.91 3.298 3.023a21.655 21.655 0 0 1 2.59 3.601c.386.67.74 1.362 1.05 2.073.056.131.49.935.407 1.034-.073.089-.615-.243-.701-.297-.603-.376-1.085.386-.846.9 3.117 6.67 1.968 14.458-2.538 20.02.156.569.216 1.159.188 1.746 5.221-5.656 6.758-13.885 3.993-21.1.14-.006.278-.025.412-.073.666-.236.883-.938.71-1.576-.459-1.71-1.53-3.438-2.522-4.883a23.149 23.149 0 0 0-3.534-4.057 23.578 23.578 0 0 0-2.067-1.662c-.415-.297-1.136-.622-1.64-1.034.201-.057.4-.127.6-.223.399-.185.344-.743.096-1.005-2.348-2.462-5.767-3.358-8.992-4.022-3.917-.807-10.896-1.084-14.892-1.046-.823.013-.782 1.285.041 1.28Z"
				fill="#151921" />
	<path d="M62.683 33.817a6.953 6.953 0 0 0-3.974-.456c-.33.06-.61.373-.543.72.003.023.02.045.026.067.022.313.233.517.539.6 1.237.326 2.526.415 3.799.294a.64.64 0 0 0 .542-.549.658.658 0 0 0-.39-.676ZM38.001 33.884a6.938 6.938 0 0 0-3.948-.641c-.332.044-.625.344-.578.695.003.022.016.045.023.067.01.313.207.53.51.625 1.222.383 2.504.533 3.78.469a.64.64 0 0 0 .568-.523.653.653 0 0 0-.355-.692ZM46.196 14.86c-.323-.187-.67-.05-.874.23a9.557 9.557 0 0 1-4.28 3.254c-.323.121-.543.43-.447.785.086.309.459.567.784.446a10.95 10.95 0 0 0 5.043-3.84c.207-.28.051-.715-.226-.874ZM49.599 15.04c-.223-.224-.686-.272-.903 0a12.683 12.683 0 0 1-4.886 3.706c-.316.137-.386.603-.23.874.192.328.555.367.874.23a13.478 13.478 0 0 0 5.145-3.908c.217-.268.262-.641 0-.902ZM51.602 16.443a.651.651 0 0 0-.903 0c-.191.188-.389.367-.593.536l-.093.073a.256.256 0 0 1-.025.02c-.013.009-.026.018-.032.025l-.076.057c-.115.083-.23.166-.348.242a8.826 8.826 0 0 1-1.043.587c-.057.026-.115.055-.172.08l-.102.045c-.004 0 0 0-.004.003-.003 0-.003.003-.006.003l-.006.003c-.154.064-.281.134-.367.287a.646.646 0 0 0-.064.492c.096.296.453.58.785.446a9.468 9.468 0 0 0 3.052-1.993c.236-.236.249-.673-.003-.906Z"
				fill="#151921" />
	<path d="M68.781 4.377c-1.636-.772-3.754-.858-5.53-1.005-3.994-.326-8.06-.275-12.05.054-1.953.163-3.911.383-5.835.766-1.652.328-3.285.89-4.516 2.086-1.356 1.314-2.179 3.119-2.944 4.813-.903 2.003-1.844 5.253-2.469 7.425.054.007.108.01.163.022.16.035.319.061.478.087.214.025.43.038.644.041.919-3.174 2.227-7.518 3.987-10.2.897-1.369 2.093-2.262 3.665-2.724 1.605-.472 3.311-.673 4.967-.865 3.562-.411 7.163-.488 10.745-.392 1.822.048 3.646.156 5.448.418.804.118 1.672.217 2.437.507.983.37 1.222 1.094 1.05 2.086-.31 1.796-.954 3.595-1.586 5.298-.701 1.888-1.866 4.504-2.82 6.277-.388.721.69 1.403 1.082.68 1.825-3.388 3.674-7.85 4.491-11.624.325-1.521.137-3.023-1.407-3.75Z"
				fill="#151921" />
	<path d="M54.588.658c-.36-.265-.779-.32-1.215-.339-.785-.038-1.576-.025-2.364-.028a115.42 115.42 0 0 0-13.377.762c-1.206.137-2.504.223-3.496 1.005-.817.644-1.28 1.617-1.605 2.58-.446 1.327-.768 2.711-1.062 4.08-.67 3.097-1.314 7.958-1.441 11.183.05-.03.105-.064.156-.093.233-.128.478-.233.724-.332a.874.874 0 0 1 .415-.025c.16-3.085.765-7.623 1.393-10.504.303-1.39.622-2.813 1.107-4.153.22-.606.51-1.234 1.008-1.665.54-.465 1.238-.6 1.923-.695 3.187-.453 6.424-.663 9.64-.785a111.187 111.187 0 0 1 5.983-.073c.351.003.836-.073 1.17.026.639.185.565.877.534 1.441-.045.82 1.23.862 1.275.042.058-.855-.012-1.879-.768-2.427Z"
				fill="#151921" />
	<path d="M34.72 1.669c-2.307-.176-4.766.513-6.9 1.34-2.016.778-3.483 2.088-4.338 4.088-.909 2.121-1.199 4.571-1.457 6.845-.303 2.664-.386 6.807-.233 9.48.048.813 1.323.861 1.276.041-.138-2.366-.083-6.197.137-8.558.204-2.168.485-4.407 1.151-6.49.641-2.013 1.86-3.4 3.834-4.188 1.984-.795 4.35-1.442 6.491-1.283.817.064.858-1.212.038-1.275Z"
				fill="#151921" />
	<path d="M36.726.447A.863.863 0 0 0 35.957 0c-2.772.087-3.738.597-4.108.897a.77.77 0 0 0-.192.963c.147.274.466.446.747.549.456.165.966.127 1.435.06a7.244 7.244 0 0 0 1.372-.338c.252-.09.5-.188.743-.3.271-.124.555-.258.73-.513a.812.812 0 0 0 .042-.871ZM77.7 56.54a.63.63 0 0 0-.45-.185c-.16.006-.348.057-.45.185l-1.097 1.355c-.109.137-.188.268-.188.45a.646.646 0 0 0 .638.638c.16-.006.347-.058.45-.188l1.097-1.356c.108-.137.188-.271.188-.45a.651.651 0 0 0-.189-.45Z"
				fill="#151921" />
	<path d="M47.436 68.051c-9.061 0-18.225-3.604-18.617-3.76a.637.637 0 1 1 .472-1.187c.095.038 9.648 3.792 18.614 3.668 7.904-.115 15.648-.638 23.492-5.706 2.826-1.825 5.17-5.57 5.192-5.608a.636.636 0 1 1 1.082.674c-.102.162-2.514 4.025-5.585 6.006-8.121 5.247-16.392 5.795-24.165 5.91-.16.003-.322.003-.485.003ZM28.637 30.21a.638.638 0 0 1-.326-1.19c.351-.208 8.702-5.02 18.806-1.308a.638.638 0 1 1-.44 1.2c-9.524-3.5-17.635 1.16-17.718 1.208a.63.63 0 0 1-.322.09ZM62.906 77.097c-.329-.013-.67.191-.676.612l-.112 5.726-.054 2.784c-.013.711.057 1.531-.128 2.246.377-.198.763-.386 1.184-.479a.68.68 0 0 1 .16-.019c.021-.217.034-.437.037-.663.026-1.085.042-2.166.064-3.25l.112-5.707c-.21-.408-.412-.823-.587-1.25ZM63.57 94.892c.044-.82-1.232-.817-1.276 0a166.97 166.97 0 0 0-.217 12.573c.016.82 1.291.823 1.276 0-.087-4.194-.013-8.389.216-12.573ZM31.667 92.72a.652.652 0 0 0-.45-.189.627.627 0 0 0-.45.189.759.759 0 0 0-.188.45l-.287 2.468c-.019.15.083.348.188.45a.652.652 0 0 0 .45.188.627.627 0 0 0 .45-.188.76.76 0 0 0 .188-.45l.287-2.469c.02-.15-.083-.347-.188-.45Z"
				fill="#151921" />
	<path d="m70.175 88.382-24.908.048 1.06-2.402 23.842-.045.006 2.399Z"
				fill="#343A46" />
	<path d="m66.724 88.29 8.746-26.708 33.382-.162-8.245 27-33.883-.13Z"
				fill="#343A46" />
	<path d="M106.655 62.992c0 .3-8.022 25.205-8.022 25.205l1.978.223 7.904-25.788-1.86.36Z"
				fill="#3D4352" />
	<path d="M107.972 62.077h-32.33c-1.027 0-1.346 1.595-.319 1.595h32.649c1.027 0 1.027-1.595 0-1.595ZM91.705 66.265c-2.663 2.804-5.33 5.607-7.993 8.411-.472.498.332 1.196.8.702l7.994-8.411c.475-.501-.329-1.2-.8-.702ZM89.332 72.823a95.126 95.126 0 0 0-6.858 7.524c-.434.53.367 1.231.8.702a95.71 95.71 0 0 1 6.859-7.524c.488-.485-.316-1.184-.801-.702ZM95.29 71.56c-.242-.195-.532-.153-.753.05a14.957 14.957 0 0 0-1.952 2.237c-.082.118-.14.236-.13.386.01.13.076.28.181.366.208.166.578.192.753-.05a15.329 15.329 0 0 1 1.952-2.237c.204-.19.16-.583-.05-.752Z"
				fill="#3D4352" />
	<path d="m100.556 88.155-55.767.112c-.386 0-.59.31-.59.612 0 .303.204.61.59.61l55.764-.112c.386 0 .59-.31.59-.613.004-.3-.201-.609-.587-.609Z"
				fill="#151921" />
	<path d="M66.858 89.185a.53.53 0 0 1-.507-.692l8.42-26.904a.534.534 0 0 1 .508-.373l33.704-.067a.531.531 0 1 1 0 1.065l-33.315.067-8.303 26.531a.532.532 0 0 1-.507.373Z"
				fill="#151921" />
	<path d="M66.858 89.265a.614.614 0 0 1-.584-.797l8.42-26.905a.617.617 0 0 1 .585-.43l33.704-.067a.613.613 0 0 1 0 1.224l-33.255.067-8.286 26.474a.608.608 0 0 1-.584.434Zm42.125-28.034-33.704.067a.448.448 0 0 0-.431.32l-8.42 26.904a.453.453 0 1 0 .864.268l8.322-26.586h.057l33.316-.067a.442.442 0 0 0 .319-.134.453.453 0 0 0-.323-.772Z"
				fill="#151921" />
	<path d="M100.563 89.118a.53.53 0 0 1-.507-.692l8.42-26.904a.531.531 0 1 1 1.015.319l-8.421 26.904a.532.532 0 0 1-.507.373Z"
				fill="#151921" />
	<path d="M100.563 89.198a.614.614 0 0 1-.584-.797l8.421-26.905a.614.614 0 0 1 1.17.367l-8.42 26.905a.613.613 0 0 1-.587.43Zm8.42-27.966a.455.455 0 0 0-.433.319l-8.421 26.904a.453.453 0 1 0 .864.268l8.421-26.904a.453.453 0 0 0-.431-.587ZM45.025 89.227a.531.531 0 0 1-.494-.73l1.148-2.877a.534.534 0 0 1 .494-.335l21.48-.042a.532.532 0 1 1 0 1.066l-21.12.041-1.014 2.542a.534.534 0 0 1-.494.335Z"
				fill="#151921" />
	<path d="M45.025 89.307a.61.61 0 0 1-.568-.839l1.145-2.877a.61.61 0 0 1 .568-.386l21.48-.041a.613.613 0 0 1 0 1.224l-21.068.042-.995 2.49a.59.59 0 0 1-.562.387Zm22.627-3.98-21.482.04a.447.447 0 0 0-.418.284l-1.145 2.877a.453.453 0 1 0 .84.339l1.033-2.59h.054l21.118-.042a.455.455 0 0 0 .453-.453.44.44 0 0 0-.134-.319.425.425 0 0 0-.319-.137Z"
				fill="#151921" />
	<path d="M41.736 77.97a22.92 22.92 0 0 0-8.774-1.983c.016-.02.025-.038.041-.058-.064-.01-.127-.016-.191-.025-.195-.045-.348-.188-.453-.348a.763.763 0 0 1-.077-.584.564.564 0 0 1 .138-.258.572.572 0 0 1 .213-.195 8.01 8.01 0 0 0 .249-.108c-.01-.01-.016-.02-.026-.025.185-.106.367-.217.55-.323.55-.315.305-1.19-.323-1.19-2.169.004-4.398.588-5.818 2.288-.01.006-.022.01-.032.012v.03a5.75 5.75 0 0 0-.233.299c-.194.274-.057.686.208.858-.09 1.314-.367 2.635-.673 3.894-.396 1.634-.625 3.426-1.33 4.983.197.124.414.226.64.319 1.81.076 3.57.64 5.385.634.794-.003 1.598-.114 2.236-.622.545-.433.925-1.03 1.279-1.623a1.62 1.62 0 0 0-.475-.938c-.03-.029-.061-.05-.093-.076.699-.083 1.397-.163 2.096-.25 1.065-.13 1.23-1.444.526-2.076-.035-.032-.07-.057-.105-.089l4.774-.316c1.212-.083 1.248-1.796.268-2.23Z"
				fill="#FFBF24" />
	<path d="M42.502 77.741a18.156 18.156 0 0 0-2.182-1.1 20.398 20.398 0 0 0-4.733-1.36 19.736 19.736 0 0 0-2.526-.232 13.531 13.531 0 0 0 2.373-2.325c.373-.47.09-1.152-.488-1.254-1.302-.233-2.61.36-3.825.75-1.368.443-2.736.883-4.105 1.327.1.373.16.759.192 1.148.01.13.013.265.019.399a.79.79 0 0 0 .14-.032l3.946-1.276c.469-.15.934-.306 1.403-.456a12.055 12.055 0 0 1-2.95 1.907c-.772.351-.555 1.61.357 1.496 2.686-.335 5.445-.096 8.022.746 1.257.412 2.542.935 3.665 1.64.118.073.217.169.328.246a.293.293 0 0 1-.063.025c-.166.041-.345.048-.514.041-.813-.022-1.636-.146-2.443-.22l-5.601-.507c-.989-.089-1.228 1.442-.233 1.535 1.962.178 3.923.357 5.885.532 1.308.118 4.44.836 4.574-1.276.06-.826-.593-1.371-1.241-1.754Z"
				fill="#151921" />
	<path d="M25.29 86.13c1.33-4.073 2.367-9.862 2.753-14.13.074-.817-1.202-.858-1.276-.041-.38 4.159-1.403 9.833-2.701 13.804-.252.778.97 1.148 1.225.367Z"
				fill="#151921" />
	<path d="M24.391 85.332c-2.392-.003-7.173-2.27-9.167-3.524-1.875-1.18-3.633-2.654-4.803-4.555-1.158-1.885-1.697-4.239-1.037-6.395.6-1.949 2.17-3.423 3.923-4.36 2.456-1.311 5.318-1.567 8.048-1.739.816-.05.82-1.327 0-1.276-2.737.173-5.521.45-8.044 1.595-2.039.925-3.917 2.504-4.833 4.584-1.024 2.334-.759 4.979.307 7.253 1.052 2.245 2.915 4.022 4.924 5.42 2.386 1.66 7.722 4.27 10.682 4.276.823-.003.823-1.279 0-1.279Z"
				fill="#151921" />
	<path d="M27.326 71.263c-2.223-.182-5.47-.992-7.588-1.684-.782-.255-1.117.976-.338 1.231 2.23.727 5.591 1.537 7.926 1.729.344.029.638-.313.638-.638 0-.37-.294-.61-.638-.638ZM68.178 84.615c-1.47-1.93-3.808-5.397-4.963-7.531-.392-.72-1.492-.08-1.1.644 1.155 2.134 3.493 5.598 4.963 7.531.207.274.549.418.874.23.265-.16.437-.6.227-.874ZM72.34 69.512c-.557-.552-1.115-1.1-1.67-1.652-.24-.236-.667-.256-.903 0-.233.252-.255.65 0 .902.558.552 1.799 1.802 2.357 2.354.24.236-.016-.446.217-.701.233-.253.255-.651 0-.903Z"
				fill="#151921" />
	<path d="M51.12 47.666c.466-.163.96-.386 1.203-.839.331-.625.09-1.298-.475-1.674-.259-.17-.702-.17-.954.012l-.839.6c-1.64-.622-3.324-.766-5.04-.715-.478-.184-.95-.38-1.413-.6a1.067 1.067 0 0 0-.6-.095c-.034-.086-.066-.172-.101-.258-.3-.779-1.104-1.385-1.972-1.097-.759.252-1.416 1.138-1.097 1.97.46 1.194.995 2.358 1.652 3.455.307.51.635 1.008.986 1.49.456.625.925 1.307 1.652 1.642 1.381.638 3.002-.083 4.24-.762 1.112-.61 2.155-1.544 2.643-2.74.051-.121.087-.255.115-.389Z"
				fill="#B34052" />
	<path d="M45.325 48.447c-1.276-.36-2.727-.654-3.93-.188.032.054.06.112.093.163.306.51.635 1.008.985 1.49.456.625.925 1.307 1.653 1.642 1.38.638 3.001-.083 4.239-.762.22-.121.437-.259.65-.405-.335-.3-.673-.59-1.052-.826-.826-.51-1.707-.849-2.638-1.114Z"
				fill="#FFADD2" />
	<path d="m47.771 47.197.09.274c.01.026.012.042.016.058.01.01.019.019.035.038.16.191-.083-.092.01.035.015.023.022.026.034.039.03.006.045.015.055.031.012.004.019.007.035.01l.041.01c.01-.004.016-.004.022-.004.007-.003.01-.006.016-.01a1.68 1.68 0 0 0 .258-.278c.033-.047.084-.117.093-.133.23-.354.428-.727.645-1.087.124-.208.255-.409.395-.6a11.55 11.55 0 0 0-2.51-.482c.395.635.545 1.366.765 2.1ZM43.414 46.588c.039-.032.054-.042.01.006.057-.057.118-.115.172-.178.013-.016.029-.032.042-.051.05-.074.098-.154.146-.233.1-.16.188-.322.281-.485.156-.271.329-.526.51-.778-.325-.134-.65-.272-.97-.421a1.068 1.068 0 0 0-.599-.096l-.102-.258a1.928 1.928 0 0 0-.766-.945c.08.217.106.466.042.747l-.02.076a.31.31 0 0 1 .007.064c.006.067.006.134.01.201 0 .013.006.057.01.096l.025.121c.019.077.035.156.057.233.045.16.096.319.15.475.003.013.038.099.054.144.02.041.058.127.064.14a4.695 4.695 0 0 0 .383.66c.006.013.054.074.08.112l.086.096.162.162c.023.023.039.035.058.051.038.02.073.042.108.06Z"
				fill="#fff" />
	<path d="M52.817 44.49a18.8 18.8 0 0 1-6.81-.176 18.23 18.23 0 0 1-3.237-1.008c-.935-.39-2.182-.817-2.67-1.764-.376-.73-1.422.006-1.05.724.52 1.011 1.666 1.515 2.652 1.965a19.773 19.773 0 0 0 11.233 1.528c.807-.125.696-1.397-.118-1.27Z"
				fill="#151921" />
	<path d="M52.017 45.395c-.791 1.502-1.825 2.934-3.104 4.06-1.052.929-2.453 1.717-3.885 1.232-1.53-.517-2.634-2.01-3.27-3.426-.7-1.566-.982-3.263-1.208-4.954-.108-.81-1.378-.701-1.27.118.47 3.538 1.58 8.424 5.582 9.538 3.713 1.033 6.842-3.238 8.31-6.026.385-.727-.773-1.266-1.155-.542Z"
				fill="#151921" />
	<path d="M45.242 44.856a.651.651 0 0 0-.329-.36.647.647 0 0 0-.488-.023c-.166.07-.264.179-.36.329l.07-.109c-.2.313-.424.61-.673.89-.022.026-.051.051-.073.08a.092.092 0 0 1-.007-.029c-.003-.01-.003-.019-.006-.032a6.838 6.838 0 0 1-.15-1.435c0-.335-.373-.622-.692-.577-.367.05-.578.335-.578.692.004.72.119 1.438.32 2.127.07.24.156.466.34.641.227.217.581.256.872.16.226-.077.395-.23.564-.392.128-.125.252-.256.373-.39.3-.338.559-.701.8-1.084.078-.13.068-.354.017-.488ZM50.1 45.733a.651.651 0 0 0-.329-.36.647.647 0 0 0-.488-.023c-.166.07-.264.179-.36.329-.022.038-.048.073-.07.111-.192.294-.396.584-.648.827-.035.025-.067.054-.102.08-.019.012-.038.022-.054.034-.006-.089-.02-.181-.022-.27V46.338c.016-.076.01-.172.019-.252.019-.166.048-.332.086-.494.076-.326-.195-.696-.523-.737-.36-.045-.654.172-.737.523a4.875 4.875 0 0 0-.073 1.738c.035.243.08.492.226.693a.891.891 0 0 0 .88.35c.246-.047.456-.137.673-.255.307-.166.575-.418.801-.682.265-.31.482-.66.699-1.005.08-.128.07-.348.022-.485ZM64.054 93.584a18.55 18.55 0 0 1-.398-4.28.646.646 0 0 0-.638-.638.648.648 0 0 0-.638.638c-.032 1.55.12 3.103.446 4.618.07.338.466.533.785.447.348-.096.517-.447.443-.785ZM37.392 79.566c-.36 0-.619.293-.638.638-.022.437-.07.877-.306 1.253-.166.265-.526.507-.83.619-.93.341-1.964.297-2.902.003-.328-.102-.695.121-.784.447a.646.646 0 0 0 .446.784c1.24.39 2.667.402 3.87-.121.538-.236 1.02-.612 1.326-1.12.338-.558.428-1.224.46-1.865.012-.345-.31-.638-.642-.638Z"
				fill="#151921" />
	<path d="M35.785 82.899c-.064-.814-1.343-.82-1.276 0 .057.708.013 1.572-.632 2.016-.603.414-1.432.389-2.13.37-1.965-.061-3.93-.262-5.812-.842-.788-.243-1.123.988-.338 1.23 2.14.661 4.51.948 6.75.894.934-.022 1.926-.214 2.615-.9.72-.724.9-1.789.823-2.768Z"
				fill="#151921" />
	<path d="M31.262 86.248a149.943 149.943 0 0 1-.287 6.334c-.023.345.31.638.638.638.363 0 .615-.293.638-.638.14-2.108.236-4.22.287-6.334.022-.82-1.254-.82-1.276 0Z"
				fill="#151921" />
	<path d="M86.748 92.582c1.158.068 2.303-.082 3.445-.258 1.011-.156 2.058-.255 2.922-.845.016-.013.035-.02.05-.029.03-.041.065-.08.09-.121 1.05-1.684.246-3.71.73-5.521.106-.393-.085-.667-.366-.794a16.68 16.68 0 0 0-.32-2.144c0-.003 0-.003-.002-.003.028-.195.064-.386.089-.58.045-.367-.198-.702-.507-.852-.332-.533-1.212-.552-1.407.239a40.227 40.227 0 0 0-.928 5.435c-.118-.38-.236-.759-.367-1.135a11.917 11.917 0 0 0-.775-1.809c-.284-.52-.654-1.2-1.212-1.47-1.662-.807-1.808 1.86-1.98 2.816-.166.916-.313 1.831-.45 2.75-.53-1.03-1.06-2.064-1.586-3.094-.357-.696-1.282-.645-1.496.134-.156.561-.344 1.11-.577 1.642-.057.131-.15.396-.268.654a.759.759 0 0 1-.016.236 18.974 18.974 0 0 1-.45 1.809 15.83 15.83 0 0 1-.204 1.084c1.755.96 3.55 1.739 5.585 1.856Z"
				fill="#FFBF24" />
	<path d="M85.383 88.194c.02-.237.029-.479.016-.715a.584.584 0 0 0-.09-.284.59.59 0 0 0-.178-.236.589.589 0 0 0-.268-.14.6.6 0 0 0-.31-.042.944.944 0 0 0-.206.055.477.477 0 0 0-.147-.055c-.099-.041-.201-.054-.31-.041-.194.025-.395.111-.52.271l-.108.17a.783.783 0 0 0-.073.407c.035.163.07.326.127.485.058.16.138.306.217.456.131.246.31.453.501.651.108.09.23.147.367.172a.762.762 0 0 0 .405-.035.798.798 0 0 0 .498-.593 3.32 3.32 0 0 0 .08-.526ZM90.197 88.04a14.146 14.146 0 0 0-1.646-4.749c-.131-.236-.428-.344-.702-.325a.659.659 0 0 0-.313-.035c-.443.06-.708.411-.701.848a24.18 24.18 0 0 1-.374 4.65.78.78 0 0 0 .53.871c.392.125.73-.064.938-.398a8.45 8.45 0 0 0 .484-.922l.374.58c.408.638 1.527.249 1.41-.52Z"
				fill="#FFBF24" />
	<path d="M93.042 81.256c-.383-.51-.919-1.24-1.656-.97-.695.255-.807 1.13-.906 1.758-.172 1.103-.245 2.22-.274 3.336a15.943 15.943 0 0 0-.6-1.19c-.456-.813-1.393-2.258-2.465-2.28-.517-.013-.718.43-.788.87-.121.747-.204 1.503-.3 2.256-.09.727-.172 1.45-.252 2.178a10.345 10.345 0 0 0-1.598-2.654c-.415-.497-.845-1.071-1.525-1.164-.255-.035-.58.13-.6.421a21.423 21.423 0 0 1-1.02 5.142c-.207.625.727 1.078.938.446a22.51 22.51 0 0 0 1.027-4.679c.277.271.52.654.689.887.316.427.603.88.848 1.356.482.93.807 1.936.98 2.966.089.539.97.663 1.027.041.108-1.193.23-2.382.37-3.572a128.153 128.153 0 0 1 .36-2.852l.058-.424c.105.067.22.131.258.163.213.175.395.38.564.596.313.402.565.852.795 1.305.51 1.011.918 2.07 1.25 3.155.182.596 1.008.325 1.002-.227-.01-1.573-.023-3.151.13-4.718.035-.353.077-.704.131-1.055.022-.156.048-.935.22-1.002.217-.09.938 1.17 1.065 1.404 1.407 2.564 1.03 6.28.093 8.956-.22.625.714 1.075.938.447 1.174-3.362 1.473-7.92-.76-10.896Z"
				fill="#151921" />
	<path d="M93.402 92.567a.602.602 0 0 1-.214-.039c-.325-.115-.577-.472-.437-.87.858-2.45 1.35-6.24-.086-8.858-.316-.577-.756-1.24-.922-1.337-.047.08-.089.326-.124.734-.006.073-.013.13-.016.163a18.6 18.6 0 0 0-.128 1.05c-.15 1.543-.14 3.122-.13 4.65v.057c.003.38-.307.632-.597.676-.3.045-.548-.118-.64-.415a20.197 20.197 0 0 0-1.242-3.135c-.277-.548-.516-.944-.781-1.285a3.685 3.685 0 0 0-.546-.578.62.62 0 0 0-.089-.057l-.035.246a127.892 127.892 0 0 0-.36 2.845c-.131 1.135-.256 2.338-.37 3.569-.03.306-.243.513-.546.523-.31.013-.66-.195-.72-.558a9.868 9.868 0 0 0-.967-2.931c-.233-.45-.514-.9-.839-1.34l-.14-.195a6.275 6.275 0 0 0-.367-.49 22.83 22.83 0 0 1-1.002 4.445c-.067.205-.207.339-.395.377-.217.045-.466-.048-.632-.236a.664.664 0 0 1-.137-.664c.54-1.614.88-3.333 1.014-5.11a.55.55 0 0 1 .208-.379.711.711 0 0 1 .53-.15c.682.093 1.128.635 1.524 1.113l.076.093a10.487 10.487 0 0 1 1.436 2.27c.064-.58.13-1.16.204-1.74l.054-.438c.073-.6.15-1.218.246-1.821.102-.638.427-.976.909-.97 1.052.026 1.977 1.289 2.567 2.342.128.23.255.475.39.752.041-1.078.127-1.996.261-2.854l.01-.064c.099-.638.236-1.515.972-1.786.814-.3 1.394.478 1.78.992l-.083.089.096-.073c1.525 2.034 2.53 5.99.775 11-.096.278-.3.386-.507.386Zm-1.687-11.35c.236 0 .625.495 1.157 1.468 1.474 2.689.977 6.558.103 9.052-.093.268.08.491.29.565.073.025.319.086.42-.198 1.079-3.078 1.532-7.748-.74-10.778l-.012-.016c-.383-.51-.861-1.148-1.505-.909-.606.224-.724.986-.82 1.598l-.01.064c-.153.976-.239 2.032-.274 3.32l-.013.514-.214-.466a16.234 16.234 0 0 0-.593-1.183c-.46-.82-1.375-2.198-2.363-2.22-.348-.006-.584.252-.667.769-.096.6-.172 1.218-.246 1.815l-.054.437c-.09.724-.172 1.45-.252 2.178l-.05.456-.18-.42a11.743 11.743 0 0 0-.506-1.053c-.31-.559-.67-1.085-1.072-1.57l-.077-.092c-.386-.466-.781-.948-1.371-1.03a.476.476 0 0 0-.348.098.293.293 0 0 0-.118.21 21.485 21.485 0 0 1-1.027 5.171.417.417 0 0 0 .09.428c.108.12.27.185.404.16.102-.023.176-.093.217-.218a22.572 22.572 0 0 0 1.02-4.657l.026-.242.176.172c.217.214.411.488.568.712.047.07.092.133.133.191.332.45.62.909.859 1.371.478.929.813 1.94.988 3.005.039.233.272.37.476.357.086-.003.29-.038.315-.306.112-1.234.236-2.437.37-3.575.074-.635.15-1.27.233-1.901.042-.316.083-.635.128-.95l.083-.61.264.163c.074.044.138.083.166.105.198.166.39.367.584.615.274.354.523.763.807 1.327.488.967.909 2.035 1.257 3.174.08.261.287.261.376.249.192-.029.396-.195.392-.44v-.058c-.01-1.534-.022-3.12.131-4.676.038-.376.08-.724.131-1.062.003-.029.01-.083.016-.15.048-.574.105-.877.277-.947.013-.013.032-.016.055-.016Z"
				fill="#151921" />
	<path d="M94.675 91c-.23-.108-.6-.022-.693.246-.507 1.493-1.684 2.584-2.81 3.623-.207.192-.137.565.061.73.236.202.526.132.73-.06 1.19-1.097 2.421-2.277 2.957-3.85.09-.261.029-.558-.245-.689Z"
				fill="#151921" />
	<path d="M91.549 95.842a.613.613 0 0 1-.396-.15.689.689 0 0 1-.226-.497.536.536 0 0 1 .163-.412c1.12-1.036 2.28-2.105 2.778-3.575a.53.53 0 0 1 .31-.316.688.688 0 0 1 .544.003c.303.144.428.482.307.839-.565 1.659-1.908 2.903-2.989 3.9a.732.732 0 0 1-.491.208Zm2.909-4.768a.514.514 0 0 0-.185.035.29.29 0 0 0-.176.172c-.516 1.528-1.7 2.619-2.842 3.675-.076.07-.086.175-.086.23a.452.452 0 0 0 .14.321c.198.17.425.08.572-.057 1.062-.98 2.379-2.2 2.924-3.802.061-.182.051-.434-.181-.545a.545.545 0 0 0-.166-.03Z"
				fill="#151921" />
	<path d="M95.02 91.348c-.084-.306-.463-.57-.785-.447-2.316.9-5.164 1.18-7.62 1.047-2.1-.112-5.751-1.637-7.394-3.05-.619-.532-1.525.367-.903.903 1.853 1.595 5.659 3.254 8.041 3.41 2.635.169 5.729-.112 8.214-1.078.319-.125.542-.428.446-.785Z"
				fill="#151921" />
	<path d="M92.078 95.086c-.108-.354-.456-.494-.794-.427-2.663.548-5.547.24-8.184-.316-2.482-.52-4.877-1.422-6.973-2.864a13.71 13.71 0 0 1-2.915-2.683c-.217-.268-.559-.405-.877-.207-.265.163-.425.61-.208.877 3.502 4.36 8.963 6.185 14.373 6.64 1.725.148 3.454.122 5.154-.225.335-.067.517-.485.424-.795Z"
				fill="#151921" />
</svg>
