<svg width="228" height="147" fill="none" xmlns="http://www.w3.org/2000/svg"><path d="M145.987 73.494c-6.165 5.036-23.295 18.97-29.614 23.811-1.053.81 3.536 8.363 4.61 7.547 6.466-4.945 26.099-16.976 32.404-22.124 1.039-.857-6.368-10.078-7.4-9.234z" fill="#5EDC10"/><path d="M132.645 78.53c-.014-.021-.035-.035-.049-.056 0 0 .007 0 .007-.007-.049-.063-.105-.118-.154-.188-.014-.021-.028-.049-.042-.07a3.254 3.254 0 00-.502-.237c-1.618-.593-3.131.488-4.345 1.45-1.932 1.528-3.397 3.558-4.561 5.72-.774-.586-2.1.349-1.528 1.388.168.3.342.593.53.879-.007.362.14.711.496.92.069.042.146.07.223.09.348.454.725.9 1.123 1.312.418.433 1.046.356 1.478 0l10.134-8.355c-1.025-.872-1.98-1.793-2.81-2.846z" fill="#FFBF24"/><path d="M146.343 87.54c-.16-.613-.976-1.018-1.534-.627-1.012.704-1.633 1.66-2.121 2.748l.021-.858c.021-.844-1.206-1.465-1.785-.74-.502.635-.837 1.326-1.088 2.065a.924.924 0 00-.51-.474c-.474-.195-1.039-.035-1.304.425-.544.935-.879 1.96-1.22 2.985-.147.433-.286.872-.475 1.29-.041.098-.097.19-.146.287a3.536 3.536 0 00-.105-.363c-.23-.69-.572-1.2-1.157-1.625-.712-.523-1.493.21-1.577.907a7.208 7.208 0 00.251 2.803.981.981 0 00.733.712c.16.279.446.481.858.495a11.275 11.275 0 007.825-2.846 10.993 10.993 0 002.371-3.034c.642-1.22 1.333-2.769.963-4.15zM88.516 99.873c-.209-.133-.404-.293-.606-.433a.83.83 0 00-.189-.537c-.181-.223-.362-.453-.544-.677-.893-1.471-1.778-2.943-2.671-4.414 0-.119 0-.23-.014-.35-.105-1.269-.398-2.517-.6-3.773-.21-1.346-.39-2.699-.565-4.052-.349-2.643-.683-5.293-1.234-7.909-.614-2.922-1.604-5.726-2.462-8.579-.865-2.866-1.395-5.789-1.94-8.732a.902.902 0 00-.278-.53c.111-.377.195-.753.244-1.137.174-1.367-.314-2.567-.795-3.815-.565-1.472-.788-2.93-.635-4.506.056-.586-.523-.774-.956-.593.37-1.297.803-2.573 1.333-3.822.348-.816-.858-1.527-1.207-.704-1.346 3.173-2.155 6.5-2.769 9.883-.453 2.51-.97 5.14-.662 7.693-3.864 1.374-8.272.928-12.13-.244-2.245-.684-2.97-3.187-3.738-5.182-.886-2.316-1.548-4.792-.913-7.26.341-1.326-1.549-1.793-2.016-.559-.216.565-.411 1.13-.6 1.702a.818.818 0 00-.809-.09c-1.262.502-2.009 1.694-2.608 2.866a13.419 13.419 0 00-1.312 4.143c-.432 2.943.021 5.928 1.053 8.704.998 2.685 3.634 5.029 5.713 7.045.035.035-1.158.432-1.123.46-.265-.063-.53-.133-.795-.202a.976.976 0 00-.412-.433 34.372 34.372 0 01-5.35-3.766c-.927-.795-2.134.181-1.645 1.27.014.027.028.048.041.076-.683 2.671 1.019 5.384 2.595 7.407.363.467.753.907 1.158 1.332-.419 1.618.76 3.07 1.68 4.297.691.92 1.438 1.792 2.24 2.615.788 1.932 1.625 3.864 2.831 5.573 1.381 1.96 3.174 3.348 5.217 4.554 2.748 1.625 6.256 3.648 9.367 3.976 2.811.774 5.113.369 8.014.711 3.34.391 6.689.168 9.925-.746.593-.154.67-.942.167-1.263z" fill="#DF7FFF"/><path d="M88.516 99.873c-.209-.133-.404-.293-.607-.433a.83.83 0 00-.188-.537c-.181-.223-.362-.453-.544-.676-.893-1.472-1.778-2.944-2.671-4.415 0-.119 0-.23-.014-.349-.105-1.27-.398-2.518-.6-3.773-.21-1.346-.39-2.7-.565-4.052-.02-.175-.049-.342-.07-.517-2.239.963-4.038 3.167-6.66 2.958-.482-.042-.97-.405-.935-.935.153-2.602 1.918-4.715 2.141-7.275.035-.404.126-1.276-.181-1.625-.119 0-.258.063-.349.091-.858.265-1.653.823-2.49 1.172-.74.307-1.241-.544-1.15-1.151.097-.663.37-1.318.585-1.953.189-.565.293-1.234.489-1.82-.189.055-.391.104-.544.174-.65.293-1.27.656-1.932.92-.88.356-1.577-.969-.914-1.562 1.109-.997 1.946-2.469 2.525-3.822.397-.927 1.178-2.936-.224-3.382-1.032-.321-2.294-.077-3.347.028-1.033.104-2.023.202-3.055.041-2.33-.348-4.527-1.422-5.964-3.32-.18-.237-.216-.467-.16-.67a25.9 25.9 0 01-1.262-.348c-2.246-.683-2.972-3.187-3.739-5.182-.886-2.316-1.548-4.792-.913-7.26.341-1.326-1.549-1.793-2.016-.559-.216.565-.412 1.13-.6 1.702a.818.818 0 00-.809-.09c-1.262.502-2.009 1.694-2.608 2.866a13.417 13.417 0 00-1.312 4.143c-.432 2.943.021 5.928 1.053 8.704.998 2.686 3.634 5.03 5.713 7.045.035.035-1.158.432-1.123.46-.265-.063-.53-.132-.795-.202a.976.976 0 00-.412-.433 34.377 34.377 0 01-5.35-3.766c-.927-.795-2.134.181-1.645 1.27l.041.076c-.683 2.672 1.019 5.385 2.595 7.407.363.468.753.907 1.158 1.332-.419 1.618.76 3.07 1.68 4.297.691.92 1.437 1.792 2.24 2.615.788 1.932 1.625 3.864 2.831 5.573 1.381 1.96 3.174 3.348 5.217 4.554 2.748 1.626 6.257 3.648 9.367 3.976 2.81.774 5.113.37 8.014.711 3.34.391 6.689.168 9.925-.746.6-.153.676-.941.174-1.262z" fill="#9E5AED"/><path d="M88.028 99.496c-4.115-3.788-4.366-9.688-4.533-14.905-.021-.74-.893-1.381-1.577-.907-1.715 1.193-3.46 2.392-5.35 3.264a15.404 15.404 0 002.386-8.962c-.028-.6-.655-1.29-1.325-1.011-.865.362-1.723.725-2.588 1.08.558-1.38.858-2.86.886-4.366.014-.739-.92-1.374-1.576-.906a19.627 19.627 0 01-2.922 1.73c2.266-1.988 3.947-4.478 3.87-7.756-.014-.67-.655-1.2-1.325-1.012-4.282 1.22-8.865.398-12.491-2.176-1.102-.78-2.148 1.032-1.053 1.807 3.647 2.594 8.292 3.55 12.665 2.72-.697 4.01-4.854 6.41-8.174 8.265-.858.48-.53 2.057.53 1.953a20.738 20.738 0 008.126-2.567 10.119 10.119 0 01-1.856 3.913c-.53.697.363 1.876 1.18 1.534 1.31-.55 2.622-1.102 3.94-1.653a13.297 13.297 0 01-4.073 8.76c-.802.774.048 1.932 1.018 1.75 2.832-.536 5.322-1.973 7.693-3.556.251 5.238 1.025 10.74 5.07 14.458.984.935 2.47-.544 1.48-1.457z" fill="#9E5AED"/><path d="M73.102 62.998c-3.787 2.524-9.653 2.455-13.356-.203-3.934-2.818-5.21-8.906-4.617-13.523.111-.886-1.312-1.13-1.507-.266-1.374 6.222.781 12.555 5.105 15.644 4.088 2.916 11.606 3.174 15.777.391.74-.488-.656-2.539-1.402-2.043z" fill="#DF7FFF"/><path d="M130.19 121.166l-1.005-4.394c-.272-1.179-.363-3.257-2.002-3.257-.746 0-1.527.418-2.224.662-.747.258-1.5.516-2.253.747-1.521.467-3.083.864-4.666 1.039a1.224 1.224 0 00-.809.404.905.905 0 00-.272.105c-.523.307-.621.921-.377 1.43a155.937 155.937 0 001.932 3.885c.635 1.234 1.221 2.559 1.988 3.71.865 1.311 2.218.942 3.543.718.565-.09 1.109-.292 1.479-.753a1.53 1.53 0 00.334-.893c0-.09 0-.265-.028-.425.084-.021.168-.042.251-.049.279-.035.558-.028.837-.021.691.021 1.374.182 2.065.182.663 0 1.255-.405 1.451-1.047.181-.655-.098-1.402-.244-2.043z" fill="#252B36"/><path d="M129.959 122.707c-.53-3.013-1.06-6.019-1.597-9.032-.097-.558-.781-.872-1.29-.733-.586.161-.83.726-.732 1.29.53 3.014 1.06 6.02 1.597 9.033.097.558.781.871 1.29.732.593-.167.837-.732.732-1.29z" fill="#343A46"/><path d="M107.194 118.696c-.042-.662-.035-1.45-.495-1.98-.544-.621-1.388-.6-2.155-.649-1.465-.091-2.937-.091-4.394-.286a11.813 11.813 0 01-2.023-.446c-.74-.238-1.388-.754-2.183-.628-.007 0-.014.007-.021.007-.677-.084-1.437.432-1.179 1.269.126.398.251.802.37 1.2.035.125.077.244.112.37.02 0 .034-.007.048-.007-.007 0-.014.007-.028.007-.006 0-.013 0-.027.007-.258.041-.51.104-.74.244-.537.32-.865.878-.962 1.485-.112.67.07 1.339.44 1.904.334.509.801 1.123 1.352 1.402.39.195.907.223 1.36.119a.132.132 0 01.014.056c.098.306.244.62.426.892.655.977 1.688 1.709 2.713 2.253.6.321 1.227.46 1.897.279.697-.195 1.374-.635 2.023-.955 1.199-.6 2.671-1.075 3.166-2.442.46-1.234.363-2.817.286-4.101z" fill="#252B36"/><path d="M94.702 117.643c.175-.028.37-.056.523-.077-.209.028-.376.056-.523.077zM94.703 117.644c-.482.076-.823.125 0 0z" fill="#252B36"/><path d="M105.562 116.186c-.425-.307-1.269.014-1.123.642.154.662.286 1.332.426 1.994.062.377.125.754.167 1.137.063.53.105 1.06.126 1.59.014.363.055.803-.133 1.137-.16.286-.495.447-.781.579-.432.196-.879.363-1.325.544l-2.964 1.214c-.83.342-.314 1.632.523 1.297 1.116-.453 2.232-.914 3.347-1.367.921-.377 1.981-.725 2.47-1.674.125-.237.195-.502.244-.781a.7.7 0 00.32-.628c-.055-1.75-.118-3.501-.174-5.252-.035-.648-.725-.739-1.123-.432z" fill="#343A46"/><path d="M145.039 140.053c-.558-1.068-1.716-1.633-2.818-1.988-4.952-1.577-10.099-2.63-15.254-3.327-10.134-1.367-20.505-1.039-30.535.914a57.796 57.796 0 00-8.348.969 55.032 55.032 0 00-7.247 1.897c-1.109.37-2.274.691-3.076 1.576-.83.914-1.032 2.232-.655 3.39.816 2.497 3.39 3.222 5.803 3.285 2.664.07 5.356-.237 7.972-.718 5-.914 9.806-2.56 14.73-3.76 2.455-.599 4.931-1.011 7.463-.816 2.546.196 5.029.886 7.525 1.36 5.28.998 10.769 1.8 16.161 1.744a30.283 30.283 0 003.724-.272c1.186-.16 2.616-.342 3.648-.983a2.476 2.476 0 00.907-3.271z" fill="#171A1F"/><path d="M167.043 51.538c-.432-1.855-2.525-2.873-4.31-2.371-1.172.334-2.016 1.241-2.469 2.33-.446-.53-.914-1.04-1.534-1.396-1.235-.711-2.714-.565-3.753.426-1.618 1.548-1.45 4.094-.627 6.165-.726-.02-1.444.077-2.121.398-1.165.544-1.988 1.667-1.988 2.971 0 1.346 2.093 1.346 2.093 0 0-1.73 2.629-1.248 3.634-1.032.809.174 1.75-.74 1.178-1.535-.572-.809-.976-1.666-1.178-2.643-.168-.837-.251-1.98.334-2.685 1.27-1.528 2.999 1.604 3.864 2.288.642.509 1.849.258 1.786-.74-.056-.934.244-2.064 1.186-2.476.732-.32 1.687.077 1.869.865.321 1.297 2.343.746 2.036-.565zM181.544 66.708a5.051 5.051 0 001.151-2.706c.16-1.625-1.067-3.76-2.972-2.978-.523.216-.885.69-.732 1.29.133.495.767.949 1.29.732.607-.25.259 1.284.14 1.584-.293.711-.844 1.22-1.521 1.562-.941.481-.474 1.953.531 1.953 1.408-.007 2.245 1.604 1.374 2.727-1.109 1.416-3.216 1.172-4.764.893-.823-.147-1.437.467-1.29 1.29.16.893.069 1.806-.238 2.664-.09.244-.976 1.904-1.164 1.688-.879-1.025-2.351.46-1.479 1.479 1.332 1.562 3.194.104 3.997-1.186.704-1.137 1.025-2.42 1.032-3.724 2.364.202 4.938-.224 6.04-2.595.788-1.75.049-3.683-1.395-4.673zM176.8 55.673c-.153-.341-.432-.592-.725-.808a2.097 2.097 0 00-.795-.356 2.618 2.618 0 00-1.116-.007c-.369.077-.69.272-.976.516-.195.16-.307.495-.307.74 0 .257.112.564.307.738.202.182.46.321.739.307.091-.014.188-.028.279-.035a.945.945 0 00.293-.14c.035-.027.077-.041.118-.069.014-.007.035-.007.049-.014h.07c.042.007.084.021.119.035.014.007.034.021.048.028.007.007.021.014.028.028.021.035.042.063.063.097.105.224.398.419.628.482.251.07.585.034.809-.105.223-.146.418-.356.481-.628.014-.09.028-.188.035-.279a1.134 1.134 0 00-.147-.53zM165.23 17.934c-.188-.879-1.535-.509-1.346.37a64.48 64.48 0 01.83 22.605c-.126.879 1.22 1.255 1.346.37a66.659 66.659 0 00-.83-23.345zM180.246 36.173c-.3-.174-.795-.098-.955.251-.865 1.89-1.73 3.787-2.588 5.677-.153.342-.097.754.251.956.3.174.795.09.956-.251.865-1.89 1.73-3.787 2.587-5.677.161-.342.098-.754-.251-.956zM200.724 39.256a43.42 43.42 0 00-15.707 11.487c-.586.677.398 1.667.984.984a42.51 42.51 0 0115.428-11.271c.823-.349.111-1.549-.705-1.2zM196.769 80.678c-3.04-.977-6.242-1.228-9.401-.795-.377.048-.579.53-.489.858.112.404.482.537.858.488 2.909-.398 5.873-.105 8.663.795.851.279 1.22-1.067.369-1.346zM66.386 21.345c-.9 0-.9 1.394 0 1.394s.9-1.394 0-1.394zM20.715 16.749a.654.654 0 00-.18-.307 1.974 1.974 0 01-.14-.112.693.693 0 00-.349-.097h-.39a.462.462 0 00-.272.063.519.519 0 00-.224.146.519.519 0 00-.146.223.6.6 0 00-.063.272l.028.188c.035.119.09.224.181.307.05.035.091.07.14.112a.694.694 0 00.348.097h.391a.463.463 0 00.272-.062.52.52 0 00.223-.147.52.52 0 00.147-.223.6.6 0 00.062-.272c-.014-.063-.02-.126-.028-.188zM2.61 48.874a.52.52 0 00-.147-.223l-.14-.112a.693.693 0 00-.348-.098c-.063.007-.126.014-.188.028a.657.657 0 00-.307.182l-.39.39a.52.52 0 00-.147.223.6.6 0 00-.063.272.462.462 0 00.063.272.52.52 0 00.146.223c.049.035.09.07.14.112a.692.692 0 00.348.097c.063-.006.126-.013.189-.027a.656.656 0 00.306-.182l.39-.39a.52.52 0 00.147-.223.6.6 0 00.063-.272.6.6 0 00-.063-.272zM21.608 63.765c-.9 0-.9 1.394 0 1.394s.9-1.394 0-1.394zM13.755 102.251c-.9 0-.9 1.395 0 1.395s.9-1.395 0-1.395zM190.499 102.648c-.9 0-.9 1.395 0 1.395.892 0 .892-1.395 0-1.395zM226.628 62.586c-.9 0-.9 1.395 0 1.395.899 0 .899-1.395 0-1.395zM227.325 29.77c-.9 0-.9 1.395 0 1.395s.9-1.395 0-1.395zM191.28 1.71c-.899 0-.899 1.396 0 1.396.9 0 .9-1.395 0-1.395zM126.479 1.313c-.9 0-.9 1.395 0 1.395.892 0 .899-1.395 0-1.395z" fill="#343A46"/><path d="M75.125 46.21c.034-.105.07-.217.111-.321.168-.44.39-.837.635-1.235.042-.07.077-.14.119-.209a4.156 4.156 0 01.16-2.553c.23-.607.593-1.15.97-1.688-.182-.404-.593-.725-1.06-.67l-1.626.196a6.325 6.325 0 01-2.427-2.21c-.928-1.452-1.109-3.237-1.2-4.91-.07-1.36.182-3.384-1.422-3.956-1.863-.662-2.748 1.354-3.244 2.728a60.72 60.72 0 00-2.287 8.07c-.189.885-.46 1.875-.196 2.775.154.502.454.928.83 1.297.21.586.565 1.13 1.151 1.584 1.458 1.137 3.243 1.904 5.043 2.301.92.203 1.925.335 2.838.035.67-.237 1.193-.683 1.605-1.234z" fill="#5EDC10"/><path d="M74.483 48.441c.049-.188.098-.37.146-.558-.027-.306-.216-.592-.613-.634-1.702-.21-6.466-2.135-7.882-3.118-.78-.544-1.555-1.158-1.715-2.148-.14-.865.076-1.8.23-2.65a28.641 28.641 0 013.564-9.528c.3-.502.983-1.897 1.506-.886.377.726.391 1.723.46 2.518.161 1.709-.16 3.564.405 5.21.865 2.532 3.78 4.067 6.354 3.439.935-.23.74-1.723-.202-1.493a4.072 4.072 0 01-4.052-1.27c-1.284-1.478-.865-3.542-.963-5.342-.07-1.283-.118-2.887-.823-4.017-.586-.928-1.68-1.27-2.622-.635-1.074.726-1.723 2.309-2.295 3.425a29.345 29.345 0 00-1.792 4.303 31.71 31.71 0 00-1.095 4.401c-.23 1.367-.433 2.846.3 4.101 1.366 2.337 7.88 4.89 10.406 5.196.32.014.544-.118.683-.314z" fill="#151921"/><path d="M140.33 47.45a39.105 39.105 0 00-1.639-4.19c.342-.377.53-.921.3-1.382-1.025-2.1-2.245-4.066-3.745-5.858a28.801 28.801 0 00-2.413-2.56c-.14-.133-.293-.258-.44-.384.112-.104.203-.237.279-.37-.627-.285-.83-1.206-.397-1.736-.056-.042-.105-.084-.168-.119a24.802 24.802 0 00-12.784-2.873c.146-.265.167-.58.118-.879a5.14 5.14 0 01-1.353-.37c-.146-.035-.293-.07-.439-.111a17.295 17.295 0 00-1.325-.3l-.154-.021c-2.594.642-5.042 1.716-7.253 3.25-1.828-.907-3.767-1.59-5.768-1.96-2.358-.44-4.792-.342-7.107-1.018-.656-.195-1.388.3-1.59.914-.063.188-.084.37-.07.537a29.72 29.72 0 00-11.32 3.836c-.495.293-.663.858-.572 1.388a21.988 21.988 0 00-2.246 2.169c-.62.523-1.22 1.074-1.778 1.667a20.405 20.405 0 00-2.658 3.55c-.383.648-.69 1.304-.425 2.064.056.168.14.314.237.447-.286.46-.537.934-.774 1.401 0 .021.007.042.014.063.034.342.055.69.083 1.04.217.244.307.592.133 1.004a1.95 1.95 0 00-.042.111c.112 1.96.132 3.927.265 5.894.167 2.553.628 5.043 1.276 7.512.635 2.427 1.353 4.833 1.94 7.274.55 2.295 1.101 4.59 2.001 6.78.035.076.056.16.063.244.14.272.286.537.418.802-.111-.405-.23-.802-.362-1.2.328-.09.718-.014 1.004.188-.028-.041-.056-.09-.084-.132 6.661 4.352 15.017 5.23 22.64 7.142.035.007.07.007.105.014a29.765 29.765 0 014.68 3.46c.746.676 1.869-.098 1.736-.942.112-.091.209-.196.3-.328l.23-.349c.021.021.035.049.056.07.474.46 1.179.502 1.688.07.195-.168.363-.412.509-.628.084-.126.16-.258.237-.384a.77.77 0 00.3.063c.293-.02.544-.063.767-.272a1.06 1.06 0 00.342-.711c0-.077-.007-.147-.014-.224.056-.153.119-.306.161-.467.125-.488.146-1.025-.126-1.478-.035-.056-.077-.112-.112-.16.754-.468 1.465-1.005 2.232-1.473 2.253-1.36 4.931-1.862 7.442-2.552 2.581-.712 5.071-1.653 7.163-3.369 1.381-1.13 2.602-2.455 3.934-3.64a5.59 5.59 0 01-.565 2.636c-.209.432-.209 1.004.091 1.402.467.627.139 1.45-.084 2.127-.168.502-.314.99-.419 1.486-.041.034-.083.07-.111.118-.021.02-.021.028-.028.035l-.007.007-.105.125a3.333 3.333 0 01-.216.244 7.912 7.912 0 01-.481.489c-.077.077-.161.146-.244.216l-.126.105s-.056.041-.077.062c-.02.021-.083.063-.09.07-.07.056-.133.098-.188.16a.858.858 0 00-.196.419c-.16.049-.3.14-.383.3-.189.356-.07.725.251.955.104.077.216.154.321.23.139.098.32.112.488.077.097.028.195.042.293.056.202.3.383.607.53.935.125.265.516.411.788.32.279-.09.502-.341.509-.641a.655.655 0 00.321-.28c.202-.362.404-.718.6-1.08a.763.763 0 00.069-.51c.035-.013.077-.027.112-.041 2.274-1.207 3.062-4.094 3.766-6.375a38.009 38.009 0 001.528-7.937c.439-5.51-.154-11.013-1.842-16.223z" fill="#DF7FFF"/><path d="M114.245 82.108c-2.615-4.074-8.083-4.534-12.394-5.524-2.517-.58-5.042-1.151-7.56-1.73-2.302-.523-4.666-.997-6.786-2.072-.677-.341-1.598.098-1.646.796-2.497-.893-5.106-1.835-6.312-4.269-.6-1.206-2.456-.244-1.856.963 1.94 3.898 6.445 4.603 10.03 6.27.635.293 1.283-.286 1.36-.914 1.172.39 2.371.698 3.585.977 2.392.55 4.791 1.095 7.184 1.646 2.364.537 4.742 1.032 7.086 1.632 2.043.523 4.254 1.31 5.447 3.173.725 1.144 2.588.188 1.862-.948z" fill="#DF7FFF"/><path d="M135.33 67.26c-.781 1.318-2.253 2.07-3.536 2.81a44.31 44.31 0 01-4.527 2.28c-1.834.796-3.752 1.403-5.565 2.219-.133-.642-.802-1.172-1.479-.754-3.355 2.107-5.942 5.085-7.588 8.684-.558 1.228 1.436 1.87 1.987.656a17.377 17.377 0 013.809-5.322c.348.383.976.523 1.499.126 2.671-2.037 6.18-2.763 9.2-4.15a45.203 45.203 0 004.617-2.47c1.283-.788 1.946-2.05 2.734-3.368.683-1.151-.46-1.876-1.151-.712z" fill="#DF7FFF"/><path d="M89.332 12.229c-.063.083-.118.167-.174.244a1.034 1.034 0 00-.851-.119 9.622 9.622 0 00-1.96.767c-.9.3-1.765.726-2.588 1.214-1.346.802-3.222 1.778-3.857 3.299-.32.767-.32 1.611-.313 2.434a92.375 92.375 0 00.202 5.824.721.721 0 00-.39.614c-.126 2.72.132 5.412.71 8.07.098.446.726.564 1.054.334a39.449 39.449 0 017.08-4.031c.257-.112.515-.405.46-.712-.154-.83-.308-1.68-.447-2.546l-.042-2.594c-.049-3.683.028-7.456 1.563-10.874.041-.09.07-.188.083-.279.175-.258.349-.509.544-.753.544-.69-.516-1.597-1.074-.893z" fill="#252B36"/><path d="M128.92 12.459c-2.009-1.842-5.21-1.479-7.7-1.353-3.285.167-6.577.404-9.848.788-2.581.3-5.189.78-7.54 1.925-1.688.237-3.271.655-4.582 1.876-1.52 1.416-2.155 3.522-2.783 5.447a44.482 44.482 0 00-1.646 6.863.662.662 0 00.3.684c-.167 1.15 1.486 1.527 1.967.572a204.578 204.578 0 0123.986-.712c1.353.042 2.936.321 4.17-.37 1.172-.655 1.646-2.078 2.135-3.243a37.207 37.207 0 001.471-4.296c.405-1.479.705-2.978.9-4.499.188-1.38.272-2.678-.83-3.682z" fill="#343A46"/><path d="M110.891 8.95c-6.243.705-12.45 1.82-18.588 3.167-.32-.195-.795-.181-1.046.23-1.193 1.98-1.34 4.283-1.527 6.528-.224 2.693-.893 5.329-1.075 8.021a17.062 17.062 0 00-.041 1.793c.02.537-.014 1.269.216 1.771.495 1.067 1.8.23 2.539-.063.613-.244 1.227-.48 1.834-.725.488-.195 1.15-.349 1.5-.781.32-.398.32-.963.383-1.444.084-.69.174-1.38.28-2.071.376-2.553.857-5.19 1.966-7.54.516-1.095 1.214-2.127 2.225-2.825 1.046-.725 2.322-1.074 3.536-1.394 2.685-.705 5.461-1.012 8.146-1.71.865-.223 1.688-.815 1.618-1.806-.083-1.102-1.06-1.255-1.966-1.15z" fill="#89A1AE"/><path d="M128.718 11.177c-1.848-.698-4.164-.614-6.117-.614-4.38-.007-8.809.397-13.126 1.109-2.113.348-4.226.753-6.291 1.339-1.771.502-3.501 1.255-4.743 2.664-1.367 1.549-2.106 3.585-2.79 5.503-.809 2.26-1.555 5.887-2.043 8.307.063 0 .118 0 .181.014.175.02.349.035.53.056.237.007.475 0 .705-.007.725-3.536 1.771-8.384 3.46-11.467.857-1.569 2.085-2.65 3.759-3.285 1.708-.655 3.55-1.018 5.335-1.374 3.85-.76 7.763-1.15 11.676-1.36 1.987-.104 3.982-.146 5.977-.014.886.056 1.841.091 2.699.342 1.102.32 1.423 1.088 1.325 2.183-.181 1.98-.725 4.003-1.269 5.915-.6 2.12-1.639 5.07-2.525 7.086-.363.823.872 1.471 1.235.648 1.694-3.85 3.326-8.871 3.884-13.056.217-1.709-.118-3.327-1.862-3.99z" fill="#151921"/><path d="M112.928 8.358c-.419-.258-.879-.279-1.354-.265-.857.028-1.722.105-2.58.174-3.264.259-6.514.635-9.75 1.151-1.59.251-3.181.53-4.764.844-1.305.258-2.714.46-3.725 1.402-.837.774-1.255 1.87-1.527 2.95-.37 1.486-.6 3.02-.802 4.54-.46 3.432-.74 8.789-.6 12.318.056-.035.105-.077.16-.112.244-.16.502-.293.76-.425a.922.922 0 01.454-.063c-.098-3.375.174-8.376.607-11.57.209-1.542.432-3.118.844-4.625.188-.676.446-1.388.955-1.904.544-.558 1.297-.76 2.037-.928 3.431-.774 6.946-1.276 10.434-1.694 1.709-.203 3.424-.37 5.14-.503.46-.034.914-.07 1.374-.097.384-.028.907-.154 1.276-.077.712.147.691.907.705 1.527.021.9 1.416.83 1.395-.062-.007-.942-.168-2.05-1.039-2.58z" fill="#151921"/><path d="M91.362 11.183c-2.525.007-5.147.976-7.407 2.057-2.127 1.025-3.613 2.58-4.373 4.834-.802 2.392-.907 5.084-.998 7.588-.097 2.93.168 7.449.572 10.35.119.88 1.514.823 1.395-.063-.356-2.566-.628-6.744-.593-9.338.035-2.379.147-4.848.69-7.177.524-2.246 1.73-3.871 3.816-4.897 2.092-1.039 4.617-1.953 6.968-1.96.892-.006.822-1.394-.07-1.394z" fill="#151921"/><path d="M93.44 9.676c-.21-.3-.538-.46-.88-.418-3.012.334-4.023.969-4.4 1.332a.837.837 0 00-.125 1.066c.181.286.55.447.865.53.516.14 1.06.056 1.569-.062a7.684 7.684 0 001.464-.489c.265-.118.53-.25.781-.39.286-.16.586-.328.753-.62a.881.881 0 00-.028-.95z" fill="#151921"/><path d="M149.488 37.26c-.3-.871-.614-1.73-.955-2.587a64.08 64.08 0 00-2.309-5.14c-.656-1.305-1.779-3.202-3.55-2.31-1.521.768-1.025 2.749-.928 4.102.119 1.674.154 3.466-.586 5.022a6.325 6.325 0 01-2.134 2.496c-.544 0-1.095.007-1.639.007-.481 0-.851.37-.976.81-.307 1.046.46 2.03.941 2.908.433.781.83 1.618 1.374 2.337.544.718 1.249 1.297 2.155 1.478.942.181 1.925-.07 2.811-.384 1.737-.613 3.418-1.597 4.722-2.9a3.388 3.388 0 00.942-1.71c.327-.418.579-.872.669-1.388.154-.941-.244-1.89-.537-2.74z" fill="#5EDC10"/><path d="M150.221 37.163a30.617 30.617 0 00-1.625-4.233 29.475 29.475 0 00-2.309-4.052c-.704-1.04-1.541-2.532-2.699-3.118-1.018-.516-2.065-.042-2.525.948-.565 1.207-.411 2.804-.328 4.088.119 1.799.795 3.8-.3 5.426a4.05 4.05 0 01-3.864 1.757c-.962-.111-.969 1.388-.013 1.507 2.636.314 5.335-1.57 5.886-4.192.356-1.702-.188-3.508-.244-5.217-.028-.795-.14-1.792.146-2.553.398-1.067 1.249.23 1.612.698a28.746 28.746 0 014.714 9.018c.259.823.579 1.73.551 2.602-.034 1.004-.725 1.708-1.436 2.343-1.284 1.144-5.775 3.648-7.435 4.06-.935.236-.558 1.687.383 1.45 2.469-.62 8.621-3.955 9.688-6.438.579-1.325.195-2.761-.202-4.094z" fill="#151921"/><path d="M135.944 70.795a.759.759 0 00-.265-.44c-2.392 2.714-6.131 3.857-9.479 5.057-2.511.893-4.966 2.134-7.344 3.348-2.064 1.053-3.348 3.124-5.098 4.582-.747.628-1.674.056-1.842-.655-.251.23-.488.474-.732.711-3.885-3.334-8.955-4.631-13.9-5.629-2.832-.571-5.67-1.074-8.51-1.618-2.601-.502-5.203-1.157-7.4-2.699-.578-.404-1.157.23-1.025.774-.46.189-.795.642-.558 1.249.265.676.565 1.339.893 1.988-.007 0-.021 0-.028.007-.537.118-.83.85-.649 1.332.356.927.802 1.806 1.333 2.63-.028.02-.05.048-.077.069.962.349 1.89.767 2.783 1.227a1.058 1.058 0 00-.098.286c-.425 2.163-.09 4.283.286 6.424.384 2.162.85 4.303 1.709 6.326.74 1.73 1.757 3.376 3.16 4.652 1.29 1.179 2.79 2.148 4.289 3.055-.05.188-.091.384-.14.572-.704 2.922-1.416 5.845-2.12 8.774-.126.523.265 1.158.809 1.234 1.716.252 3.348.789 4.966 1.361 9.22 1.45 18.817 2.19 27.703-1.242.042-.014.084-.021.133-.035a33.227 33.227 0 004.289-2.608c.356-.258.586-.775.405-1.207-.293-.718-.83-1.109-1.381-1.499-.928-2.428-1.856-4.855-2.79-7.282-.579.453-1.151.921-1.709 1.395-.684.579-1.36 1.207-2.134 1.66-2.881 1.695-5.127-1.82-5.266-4.352-.084-1.563.823-2.965 1.988-3.92 1.374-1.13 2.664-2.35 4.087-3.418a7.852 7.852 0 01.125-1.506c.119-.62.342-1.304.691-1.89-.551-2.497 1.067-5.238 2.497-7.15 1.709-2.287 4.101-4.484 6.828-5.46.551-.196 1.151-.119 1.465.432.104-.077.216-.14.327-.216-.007 0-.014-.007-.021-.007-.104-.049-.286-.174-.453-.258.335-.28.684-.537.97-.872.055-.063.097-.133.153-.195a1.016 1.016 0 01-.146-.356c-.056-.244-.014-.628.153-.83.363-.44.746-.879 1.011-1.38.077-.19.14-.378.189-.58.014-.097.028-.188.041-.286 0-.014.007-.035.007-.049a6.507 6.507 0 00-.125-1.506z" fill="#FFBF24"/><path d="M108.094 96.113a100.85 100.85 0 00-2.602 13.342c-.111.886 1.284.879 1.395 0a98.931 98.931 0 012.553-12.972c.237-.872-1.109-1.242-1.346-.37z" fill="#FF9501"/><path d="M134.569 55.235c-.174 3.09-1.339 6.165-3.25 8.544-2.12 2.636-5.077 4.254-8.195 5.3-6.772 2.274-14.361 2.804-21.37 1.493-6.326-1.179-12.575-4.338-15.63-10.49-1.556-3.132-1.94-6.724-.893-10.085a13.977 13.977 0 012.288-4.38c1.08-1.402 2.448-2.693 3.961-3.592 1.381-.802 7.986-4.227 15.944-1.918-.049.439.286.927.816.774 5.678-1.674 11.934-2.302 17.527.09.014.008.028.021.042.028 5.427 2.365 9.109 8.112 8.76 14.236z" fill="#fff"/><path d="M131.808 55.346c-.14 3.09-1.165 6.159-2.853 8.53-1.876 2.623-4.498 4.234-7.26 5.26-6.013 2.245-12.757 2.733-18.999 1.394-5.636-1.213-11.209-4.394-13.95-10.56-1.394-3.138-1.757-6.73-.843-10.085a14.278 14.278 0 012.015-4.366c.956-1.395 2.17-2.678 3.508-3.578 1.228-.795 7.087-4.185 14.173-1.841-.042.432.258.934.732.774 5.043-1.646 10.602-2.246 15.588.167.014.007.021.021.042.028 4.834 2.393 8.133 8.154 7.847 14.277z" fill="#FCFA9C"/><path d="M134.73 50.973c-1.248-5.078-5.237-8.928-10.064-10.685-2.671-.97-5.454-1.214-8.279-1.193-1.444.007-2.887.042-4.303.328-1.521.307-2.964.879-4.387 1.478-.816.35-.405 1.681.425 1.326 1.277-.537 2.567-1.06 3.92-1.381 1.283-.3 2.602-.342 3.913-.363 2.671-.035 5.3.119 7.853.962 4.624 1.528 8.426 5.148 9.597 9.946.216.879 1.542.454 1.325-.418z" fill="#fff"/><path d="M108.833 40.309c-2.085-.844-4.303-1.025-6.542-1.011-2.35.014-4.715.272-6.975.941-3.843 1.144-7.358 3.62-9.136 7.289-.39.809.844 1.464 1.234.655 1.625-3.361 4.813-5.572 8.328-6.612 1.988-.593 4.06-.83 6.124-.871 2.12-.042 4.317.041 6.305.843.83.328 1.492-.9.662-1.234z" fill="#fff"/><path d="M86.626 33.85c-.112-.523-.55-.836-1.081-.836-2.504 0-4.708 1.813-6.298 3.585-1.555 1.73-2.664 3.794-3.327 6.019-.16.544.293 1.13.81 1.234.139.028.271.028.397.007.272.042.558-.014.767-.153.355-.244.481-.621.432-.998.021-.055.05-.209.05-.223.034-.132.076-.258.118-.383.055-.168.125-.335.195-.503.188-.46.405-.9.649-1.332a11.504 11.504 0 011.75-2.308 11.076 11.076 0 014.862-2.909c.495-.153.78-.718.676-1.2z" fill="#DF7FFF"/><path d="M95.17 28.327c-4.164.111-8.23 1.339-11.787 3.5-1.151.698.02 2.435 1.172 1.738a21.766 21.766 0 0110.747-3.146c1.346-.042 1.214-2.127-.132-2.092z" fill="#DF7FFF"/><path d="M108.624 28.99c-1.904-1.06-4.059-1.437-6.207-1.598a48.111 48.111 0 00-7.435.007c-.83.063-1.095.886-.858 1.479-.007.007-.014.014-.028.014-.433.32-.447 1.116-.07 1.479.523.495 1.095.537 1.765.48.53-.041 1.053-.125 1.576-.195.126-.014.251-.034.384-.041.048-.007.104-.007.153-.014.014 0 .035 0 .084-.007.216-.007.432-.014.655 0 .126.007.245.02.37.035.028.006.126.027.167.034.098.028.196.05.286.084.042.014.384.16.182.063.488.244 1.137.216 1.443-.307.056-.098.098-.21.119-.32.167-.182.286-.412.286-.65 0-.041-.007-.076-.007-.111.167.007.335.014.502.028 1.974.14 3.955.446 5.698 1.416 1.179.648 2.114-1.22.935-1.877z" fill="#DF7FFF"/><path d="M118.814 26.694c-4.171.035-6.424.112-9.764 2.623-1.075.809-.565 1.492.669.927 3.536-1.625 5.392-1.43 9.228-1.464 1.346-.007 1.206-2.1-.133-2.086z" fill="#E7BCFA"/><path d="M130.664 29.861c-3.948-1.422-8.119-1.27-12.248-1.025-1.346.077-1.213 2.17.133 2.086 3.71-.217 7.609-.475 11.173.808.53.189 1.13.084 1.402-.467.237-.453.07-1.206-.46-1.402z" fill="#E7BCFA"/><path d="M138.901 41.048c-2.099-4.547-5.712-8.279-10.239-10.448-1.213-.586-2.155 1.29-.941 1.87 4.01 1.918 7.33 5.217 9.199 9.262.237.509.76.844 1.332.648.495-.167.886-.816.649-1.332z" fill="#E7BCFA"/><path d="M136.892 41.404c-.788-1.088-2.525.07-1.737 1.172 3.523 4.896 5.113 10.845 5.134 16.837.007 3.18-.419 6.347-1.151 9.436-.698 2.944-2.713 8.447-4.317 11.027-.712 1.144 1.164 2.079 1.869.942 1.688-2.72 3.759-8.433 4.492-11.536.774-3.271 1.206-6.633 1.192-10.002-.021-6.34-1.757-12.7-5.482-17.876z" fill="#E7BCFA"/><path d="M134.018 70.516c-.202 1.639-1.122 2.964-2.587 3.731-.677.356-.174 1.256.432 1.277.189.007.37-.007.551-.021-1.06.572-2.392.774-3.501.913-1.939.245-3.871.517-5.782.921-1.716.37-3.417.858-5.05 1.514-.676.704-1.367 1.395-2.015 2.12a.883.883 0 01-.649.279c-.195.272-.39.565-.586.858a19.863 19.863 0 012.846-1.563c-.293.307-.572.628-.837.97a.579.579 0 00-.014.732c.976-.795 2.092-1.422 3.25-1.925 1.549-1.046 3.376-1.576 5.343-1.8.718-.083 1.437-.139 2.162-.208.056.362.342.67.788.537a29.198 29.198 0 004.017-1.563 8.222 8.222 0 001.186-.606.701.701 0 00.335-.551 4.737 4.737 0 001.513-2.177c.161-.474-.397-.927-.844-.822a6.09 6.09 0 00.81-2.344c.104-.872-1.263-1.165-1.368-.272z" fill="#FFBF24"/><path d="M93.043 103.597c-.712 2.873-1.43 5.74-2.141 8.613-.328 1.319 1.688 1.716 2.05.426.712-2.56 1.423-5.113 2.141-7.672a25.117 25.117 0 01-2.05-1.367z" fill="#FF9501"/><path d="M110.507 81.983a19.426 19.426 0 00-6.8-1.66c-2.546-.14-5.063.314-7.581.586-2.665.286-5.357.425-8.035.272-.746-.042-1.988-.07-3.173-.272-1.033-.384-1.947-.949-2.63-1.765.202.09.405.188.607.272.83.335 1.402-.788.627-1.248-1.227-.733-1.952-1.988-2.036-3.404-.049-.9-1.444-.81-1.395.09a5.65 5.65 0 00.467 1.947c-.418.034-.753.502-.62.934.132.426.306.802.495 1.165.223 1.98 2.197 2.901 4.045 3.278 2.246.81 4.896.935 7.142.9.774-.014 1.555-.035 2.337-.063.23-.412.69-.698 1.269-.537.9.251 1.876-.084 2.776-.188.251-.028.502-.042.753-.063-.035.362.16.725.62.711 1.849-.056 3.69-.125 5.539-.153 1.736-.035 3.466.028 5.14.537.893.258 1.262-.977.453-1.34z" fill="#FFBF24"/><path d="M116.198 51.384a.79.79 0 00-.384-.286.825.825 0 00-.237-.704c-.167-.168-.362-.244-.579-.321-.767-.286-1.617-.307-2.412-.119h-.007c-.056 0-.112-.007-.161-.007-.404 0-.913-.034-1.199.307a.742.742 0 00-.188.39.642.642 0 00-.224.23c-.181.364-.055.733.272.95.726.48 1.59.662 2.441.753.774.083 1.778.258 2.455-.238.293-.209.446-.627.223-.955z" fill="#fff"/><path d="M114.078 49.285c-1.304-.097-2.462.607-3.466 1.354-.328.244-.46.683-.23 1.039.209.32.711.467 1.039.23.397-.293.795-.579 1.234-.81a2.907 2.907 0 011.158-.32h.168c.014 0 .041 0 .062.007.105.014.203.035.307.063.028.007.049.014.077.02.042.015.077.036.119.056.041.021.083.042.118.07a.315.315 0 00.063.042c.021.021.091.077.091.077.034.028.062.063.097.098l.014.013c.028.035.049.07.077.105.014.028.035.056.049.084.007.014.021.049.035.076.014.042.021.091.041.133v.035c.042.39.363.753.782.718.383-.035.76-.362.718-.78-.146-1.333-1.269-2.212-2.553-2.31zM97.736 43.636c-.3-.126-.649-.181-.97-.237a9.785 9.785 0 00-1.806-.168c-.39 0-.906-.055-1.22.21a.776.776 0 00-.223.9c.105.243.335.418.579.501.55.196 1.122.37 1.701.468.698.209 1.444.25 2.162.083.397-.09.607-.383.593-.788-.021-.467-.419-.809-.816-.97zM126.708 42.806c-.307-.118-.648-.167-.969-.216a9.842 9.842 0 00-1.806-.126c-.391.008-.907-.034-1.22.23a.775.775 0 00-.203.9c.105.244.342.412.586.488a9.75 9.75 0 001.709.433c.704.195 1.45.223 2.161.042.398-.105.6-.398.572-.802-.028-.46-.432-.795-.83-.949z" fill="#151921"/><path d="M126.458 39.815c-.781-.335-1.437.857-.648 1.2 5.433 2.35 9.108 8.097 8.76 14.227-.175 3.09-1.339 6.166-3.251 8.544-2.12 2.637-5.077 4.255-8.195 5.301-6.772 2.274-14.36 2.804-21.37 1.493-6.326-1.18-12.575-4.339-15.63-10.49-1.555-3.132-1.939-6.724-.893-10.086a13.978 13.978 0 012.288-4.38c1.095-1.416 2.476-2.72 4.01-3.626.74-.44.056-1.612-.69-1.172-1.737 1.025-3.264 2.497-4.45 4.1-2.657 3.565-3.773 8.259-2.588 12.758 1.87 7.05 8.056 11.62 14.584 13.502 7.463 2.155 15.756 1.82 23.205-.216 3.397-.927 6.772-2.336 9.388-4.833 2.357-2.246 3.982-5.322 4.624-8.565 1.444-7.303-2.49-14.877-9.144-17.758z" fill="#151921"/><path d="M126.458 39.8c-5.963-2.566-12.512-2.022-18.594-.237-.823.244-.46 1.563.37 1.319 5.691-1.674 11.961-2.309 17.569.104.781.349 1.443-.844.655-1.185z" fill="#151921"/><path d="M90.888 42.29a.63.63 0 01-.558-.328c-.182-.32-.091-.74.209-.935.342-.23 8.579-5.517 18.72-1.736.335.125.509.509.39.865-.111.355-.481.544-.809.418-9.555-3.564-17.562 1.555-17.639 1.611a.546.546 0 01-.313.105zM113.234 84.96h-.042a.688.688 0 01-.558-.278c-.021-.028-2.58-3.285-10.064-4.973-10.58-2.386-22.744-3.753-25.206-8.81a.7.7 0 011.255-.613c2.19 4.492 14.403 5.838 24.258 8.056 6.04 1.36 9.081 3.696 10.266 4.84 1.081-1.367 3.683-4.45 6.194-5.845 1.988-1.109 4.408-1.974 6.974-2.887 5.322-1.897 6.947-3 9.723-7.38a.692.692 0 01.963-.216c.327.21.425.635.216.963-3.034 4.778-5.147 6.06-10.427 7.944-2.511.9-4.882 1.744-6.766 2.797-2.936 1.639-6.228 6.075-6.263 6.123a.725.725 0 01-.523.28z" fill="#151921"/><path d="M135.965 69.17c-.196-.321-.663-.391-.97-.189a.71.71 0 00-.188.97c.397.641.383 1.43.174 2.183-.237.844-.732 1.604-1.185 2.343-.196.32-.007.781.306.935.363.181.74.014.935-.314.551-.893 1.102-1.814 1.346-2.846.258-1.046.154-2.169-.418-3.083zM81.646 77.268a3.886 3.886 0 01-.439-.398l-.021-.02-.014-.015-.084-.104c-.062-.077-.118-.16-.174-.244a4.832 4.832 0 01-.153-.252c-.014-.02-.035-.07-.042-.076-.014-.028-.028-.056-.042-.091a4.25 4.25 0 01-.21-.593c-.013-.042-.02-.084-.034-.125 0-.014-.007-.021-.007-.021v-.021l-.042-.293a4.192 4.192 0 01-.014-.593v-.007l.02-.16c.015-.098.036-.196.057-.293.02-.098.049-.189.076-.286.007-.014.007-.021.007-.028.021-.056.05-.112.07-.175.147-.348.042-.76-.307-.934-.32-.16-.788-.035-.934.307-.802 1.869-.272 4.205 1.353 5.468.3.23.725.23.983-.063.251-.265.251-.753-.049-.983zM112.257 93.72c.077-.125.112-.279.154-.418l.084-.314a5.327 5.327 0 00-.042-2.33c-.042-.166-.209-.334-.356-.403a.79.79 0 00-.425-.05c-.321-.118-.272-.076-.502.23-.74.984-.984 1.946-.677 2.86.091.265.23.579.46.76.21.174.523.244.781.146.224-.09.398-.264.523-.48zM104.286 89.821c.139.042.299.042.446.05.111.006.216.006.328.006a4.55 4.55 0 00.613-.056 5.543 5.543 0 001.646-.53c.153-.076.279-.279.314-.446a.752.752 0 00-.056-.425c.042-.335.007-.286-.335-.433-1.129-.495-2.12-.502-2.936.007-.237.147-.509.363-.627.62a.824.824 0 00.042.796c.125.216.327.342.565.411zM92.262 102.99c-.084.328-.182.649-.266.977a129.343 129.343 0 00-1.869 8.753c-.16.886 1.207 1.172 1.367.286.482-2.72 1.053-5.426 1.71-8.112.083-.334.174-.662.257-.997a24.5 24.5 0 01-1.2-.907zM123.277 91.913c.077-.216.161-.425.196-.516.223-.739.272-1.067.411-1.604-.118-.09-.237-.174-.335-.279a3.624 3.624 0 01-.279-.355c-.083-.126-.153-.265-.223-.398a.845.845 0 01-.097-.23.65.65 0 00-.265.363c-.391 1.31-.753 2.036-.879 3.403-.021.25-.014.502.056.746a7.862 7.862 0 011.415-1.13zM130.559 111.359a228.481 228.481 0 01-3.571-8.125c-.3-.726-.586-1.451-.879-2.176-.327.39-.669.774-1.053 1.116.161.397.321.802.481 1.206a216.215 216.215 0 003.704 8.439c.377.803 1.702.356 1.318-.46z" fill="#151921"/><path d="M129.45 111.039c-11.717 6.737-26.05 5.336-38.45 1.388-.859-.272-1.13 1.095-.287 1.367 12.792 4.073 27.466 5.336 39.511-1.59.782-.454 0-1.611-.774-1.165zM95.107 29.254c-.676-.174-.955-.753-.92-1.304-4.283.328-10.072 1.423-13.029 4.457-.244.251-.293.711-.105.99-3.536 2.177-6.312 7.303-7.072 11.425-.16.886 1.228 1.032 1.388.153.81-4.443 4.206-9.702 8.377-11.39.606-.243.488-1.325-.21-1.325h-.076c2.776-2.022 7.993-2.733 11.403-2.964.105-.007.216-.007.328-.014-.028-.007-.056-.02-.084-.028zM141.14 47.22c-.475-1.318-1.012-2.573-1.639-3.675.397-.07.718-.551.565-.949a27.086 27.086 0 00-7.435-10.706c.369.007.732.014 1.102.042.753.063 1.178-.948.425-1.318-4.54-2.239-9.639-3.152-14.654-2.79a30.67 30.67 0 01-1.032 1.493 27.26 27.26 0 0111.99 1.276c-.44.189-.614.851-.182 1.179a25.532 25.532 0 017.589 9.27c-.014-.015-.035-.022-.049-.036-.628-.397-1.228.502-.872 1.032 1.241 1.828 2.176 3.906 2.943 6.048a15.86 15.86 0 011.249-.865z" fill="#151921"/><path d="M121.143 26.639c-4.491-1.249-9.402-.307-13.056 2.608-.705.558.153 1.667.858 1.102 2.824-2.26 6.577-3.278 10.148-2.748-.321.188-.649.377-.984.544-.795.404-.258 1.695.551 1.283.921-.467 1.8-1.004 2.644-1.604.39-.272.348-1.046-.161-1.186z" fill="#151921"/><path d="M109.482 29.917a.883.883 0 01.056-.377c.084-.202.181-.404.3-.593.07-.104.146-.202.23-.3-2.399-1.325-5.091-1.883-7.797-2.19-1.591-.18-7.324-.704-9.319.44-.404.23-.439.767-.139 1.095.614.683 1.34 1.15 2.19 1.478.837.321 1.207-1.025.37-1.346a3.38 3.38 0 01-.767-.411c1.101-.3 6.256-.021 7.651.14 2.503.285 5.014.815 7.225 2.064zM140.101 44.69a.706.706 0 00-.935-.315.7.7 0 00-.314.935c.035.063 3.223 6.605 3.209 16.16-.007 8.307-5.859 18.532-5.908 18.609a.687.687 0 00-.007.683c.195-.098.384-.202.586-.279.202-.077.405-.153.614-.21.111-.027.216-.041.328-.055 1.095-1.988 5.768-11.257 5.782-18.748.007-9.904-3.223-16.509-3.355-16.78zM128.069 108.779a63.334 63.334 0 01-35.954 1.506c-.872-.223-1.15 1.144-.286 1.367 12.073 3.041 24.927 2.497 36.694-1.555.851-.293.404-1.611-.454-1.318zM134.137 74.101c-.118 2.141-2.267 3.104-4.073 3.578-2.176.572-4.415.823-6.626 1.207-3.759.648-7.672 1.778-10.28 4.735-.586.663.341 1.702.941 1.033 3.027-3.432 7.7-4.102 11.976-4.785 3.403-.537 9.206-1.186 9.457-5.691.049-.893-1.346-.977-1.395-.077z" fill="#151921"/><path d="M113.695 83.956c-5.043-3.375-11.571-1.618-17.22-1.625-3.16-.007-6.348-.118-9.493-.425-2.253-.216-7.226-.454-6.11-4.004.272-.857-1.067-1.269-1.332-.411a4.025 4.025 0 00.502 3.48c.816 1.2 2.134 1.597 3.494 1.855 3.264.614 6.605.733 9.911.845 3.439.118 6.821-.098 10.246-.3 3.187-.182 6.521-.063 9.255 1.771.76.502 1.493-.683.747-1.186zM129.82 51.796c-1.36-.976-2.839-1.848-4.52-2.099-1.778-.258-3.306.377-4.84 1.2-.788.425-.098 1.639.69 1.213 1.291-.697 2.588-1.297 4.094-1.018 1.444.265 2.686 1.053 3.857 1.904.733.53 1.444-.677.719-1.2z" fill="#151921"/><path d="M130.175 48.365c-.189-.293-.635-.488-.949-.258a34.858 34.858 0 00-2.601 2.03c-.279.236-.272.739-.007.983.293.272.691.265.983.007.391-.335.781-.663 1.186-.977l.293-.23c.007-.007.014-.007.021-.014-.007.007-.007.007.021-.014a.122.122 0 00.035-.028c-.007.007-.014.007-.021.014.048-.035.09-.07.139-.104.209-.16.425-.314.642-.468a.763.763 0 00.327-.411c.042-.16.028-.384-.069-.53z" fill="#151921"/><path d="M129.121 49.892c-.007.007-.013.013-.02.013.007-.006.02-.013.033-.026-.006.007-.006.013-.013.013zM131.932 50.164c-.209-.334-.599-.432-.948-.258-.816.405-1.625.802-2.441 1.207-.328.16-.453.648-.258.948.209.335.6.432.949.258.815-.404 1.624-.802 2.44-1.206.328-.16.454-.642.258-.949zM101.83 49.571c-1.527-.683-3.152-1.234-4.847-1.137-1.792.105-3.16 1.04-4.499 2.162-.69.58.238 1.625.928 1.046 1.123-.941 2.274-1.792 3.801-1.827 1.465-.035 2.846.488 4.164 1.074.816.363 1.262-.955.453-1.318z" fill="#151921"/><path d="M92.324 46.977c.202-.286.656-.454.963-.217a34.776 34.776 0 012.503 2.148c.265.251.237.753-.035.983-.3.258-.704.23-.983-.035a32.43 32.43 0 00-1.144-1.032l-.286-.244c-.007-.007-.014-.014-.02-.014.006.007.006.007-.022-.014-.013-.007-.02-.02-.034-.027.007.007.014.014.02.014l-.132-.112a21.19 21.19 0 00-.62-.495c-.147-.112-.259-.237-.307-.425a.792.792 0 01.097-.53z" fill="#151921"/><path d="M93.307 48.552c.007.007.013.013.02.013-.007-.006-.02-.013-.033-.026.007.007.007.013.013.013zM90.483 48.699c.223-.328.62-.404.962-.216.795.44 1.59.879 2.378 1.318.32.174.419.67.216.962-.23.328-.62.405-.962.216-.795-.439-1.59-.878-2.378-1.318-.32-.181-.418-.67-.216-.962z" fill="#151921"/><path d="M110.835 63.325a6.074 6.074 0 00-2.379.09 2.355 2.355 0 00-.83-.46c-.495-.174-1.018-.39-1.548-.425-.586-.042-1.283.3-1.416.913-.084.412.084.754.391 1.026.195.174.404.335.613.488.105.077.224.133.335.195a4.486 4.486 0 002.316 1.207c1.346.265 2.699-.007 4.017-.293.447-.098.739-.607.733-1.032-.021-1.137-1.291-1.556-2.232-1.71z" fill="#FFADD2"/><path d="M117.433 57.466c-.328-.517-.935-.58-1.444-.328-.105.049-1.004.467-1.325.648-.007-.007-.007-.007-.021-.014-.077-.048-.154-.104-.237-.146a2.521 2.521 0 00-1.66-.258c-.14.02-.335.035-.454.119-.007 0-.007.006-.014.006a5.64 5.64 0 00-.425-.327 1.623 1.623 0 00-.879-.244c-.293 0-.579.07-.851.167a.922.922 0 00-.125.049 2.292 2.292 0 00-.76-.718c-.517-.287-1.04-.328-1.563-.252a.972.972 0 00-.516-.753c-.237-.126-.558-.146-.844-.063-.125-.216-.349-.376-.6-.37a.709.709 0 00-.697.698c-.007.62 0 1.242.028 1.862.014.328-.007.712.167 1.005.147.244.405.39.684.404.279.014.502-.132.711-.3.181-.007.363-.049.523-.132.168-.084.398-.203.621-.265h.007c.035.014.07.035.112.049.062.028.125.062.188.09.111.05.223.084.328.126.083.14.174.279.313.397.454.39 1.075.426 1.633.3.048-.014.348-.097.516-.16.055.077.139.14.209.195.516.433 1.151.46 1.771.258.447-.146.538-.049.928.181 1.123.677 2.337-.279 3.348-.788.502-.244.607-.99.328-1.436z" fill="#fff"/><path d="M118.583 58.282c.014-.426-.16-.914-.613-1.046a.81.81 0 00-.782.202 1.81 1.81 0 00-.265.37c-.258.439-.453.927-.565 1.422-.006.035 0 .077-.006.119a.924.924 0 00-.356.377 1.212 1.212 0 01-.077.125c-.056.195-.16.377-.307.523a1.128 1.128 0 00-.07.126c0-.014-.007-.028-.013-.05a1.22 1.22 0 01-.789.266c-.272 0-.502-.077-.683-.195-.056-.44-.405-.816-.949-.872-.348-.035-.711.063-1.053.14-.028-.078-.063-.147-.077-.175a.936.936 0 00-.823-.488c-.09 0-.188.028-.286.056-.285-.189-.69-.21-1.039-.07a1.063 1.063 0 00-.383-.119.85.85 0 00-.356.056c-.014-.021-.028-.035-.049-.056-.056-.049-.125-.07-.188-.111-.014-.084-.042-.16-.056-.245-.007-.028-.021-.041-.028-.07-.07.015-.139.022-.223.022-.481 0-.767-.3-.865-.656-.432.042-.837.286-.893.746a.892.892 0 00-.39-.014 1.32 1.32 0 00-.454.196 1.048 1.048 0 00-1.067-.056 9.852 9.852 0 01.161-3.285c.293-1.318-1.744-1.8-2.037-.488-.607 2.727-.223 5.544 1.039 8.027.014-.007.028-.02.049-.034.565-.28 1.186-.468 1.827-.398.6.063 1.123.237 1.674.481.084.035.161.077.238.119.048-.035.104-.07.153-.112.105.167.237.307.391.419.034.02.069.041.104.07.021.013.035.02.056.034l.049.021c.397-.377.906-.558 1.457-.558.921.007 1.953.488 2.546 1.2.126.153.223.32.279.488.147-.014.293-.056.426-.126.216.287.544.482 1.032.46.935-.034 1.479-1.136 1.932-1.806a33.44 33.44 0 001.527-2.538 1.016 1.016 0 00.363-.286.78.78 0 00.202-.342.805.805 0 00.077-.405.754.754 0 00-.084-.348 3.06 3.06 0 00.244-1.116z" fill="#E3636E"/><path d="M118.144 56.35a.972.972 0 01-.181.238c-.021.02-.035.041-.056.062-.098.091-.209.168-.314.245-.007.006-.014.006-.021.013 0 .286-.049.572-.146.837.286 0 .607-.027.53-.153.07.119-.181.774-.209.886a9.772 9.772 0 01-.328.983c-.928 2.441-2.699 4.84-5.078 6.026-5.252 2.609-10.211-4.394-8.844-9.213.342-1.207 1.193-1.137 2.016-.698a.863.863 0 01.628-.244 1 1 0 01.293.049c.195-.167.46-.272.788-.272.014 0 .028.007.049.007-.363-.342-.733-.656-1.123-.851-1.277-.642-2.895-.474-3.655.844-.725 1.262-.649 3.048-.418 4.429.265 1.57.878 3.076 1.792 4.373 1.876 2.643 5.064 4.338 8.272 3.187 3.034-1.088 5.37-4.038 6.514-6.96.447-1.151 1.493-3.704-.509-3.788z" fill="#000"/><path d="M118.137 56.37c-3.571.963-8.048.196-11.487-1.743-.774-.44-1.562.767-.76 1.179 3.62 1.862 8.279 2.999 12.219 1.939.858-.23.893-1.611.028-1.374zM109.942 63.716c-.669-.81-1.423-1.514-2.49-1.744-1.046-.23-2.155-.105-3.18.16-.363.091-.586.503-.489.858.105.37.489.58.858.488.782-.195 1.695-.32 2.441-.16.823.181 1.326.725 1.87 1.388.237.293.739.251.983 0 .293-.293.251-.704.007-.99z" fill="#000"/><path d="M113.819 64.545c-1.123-1.45-2.936-1.806-4.672-1.806-.363 0-.683.398-.642.746.049.398.356.642.747.642.188 0 .369 0 .557.014.028 0 .182.014.196.014.097.007.195.02.286.035.188.028.383.056.564.097.091.021.189.042.279.07.042.014.077.021.119.035.146.056.293.112.432.181.077.035.147.077.223.119.014.007.112.07.14.084.125.09.251.18.369.285l.147.147c.007.014.098.118.111.132.224.286.663.412.97.175.286-.216.411-.656.174-.97zM107.48 57.306a.71.71 0 00-.955.25 12.07 12.07 0 01-.586.866c-.049.07-.091.118-.126.167-.007-.035-.021-.07-.028-.112a6.086 6.086 0 01-.104-1.025 7.32 7.32 0 01.216-2.106c.091-.356-.112-.774-.488-.858-.363-.084-.768.111-.858.488a9.186 9.186 0 00-.272 2.183c0 .684.049 1.43.258 2.086.118.376.328.767.683.976.447.258.935.105 1.263-.265.46-.53.879-1.102 1.248-1.695.196-.307.077-.781-.251-.955z" fill="#000"/><path d="M113.241 58.763c-.132.224-.376.3-.586.154-.118-.077-.16-.202-.237-.314-.167-.244-.425-.412-.725-.412-.272 0-.46.154-.67.307-.09.063-.237.196-.348.196-.203 0-.412-.523-.496-.719-.174-.39-.823-.467-1.095-.14-.376.454-1.032.391-1.192-.215-.223-.865-1.57-.503-1.346.37.327 1.255 1.736 1.854 2.817 1.366.203.272.447.495.775.628.299.118.627.133.934.049.175-.049.349-.133.509-.223.056.062.112.132.182.188.272.21.572.335.913.377.719.083 1.395-.293 1.765-.9.474-.774-.732-1.479-1.2-.712z" fill="#000"/><path d="M116.742 57.292c-.349-.077-.781.104-.858.488a5.36 5.36 0 01-.279.92l-.042.098-.104.21a5.513 5.513 0 01-.251.424c-.042.063-.084.133-.133.196l-.063.084c-.09.111-.188.223-.285.327l-.021-.132c-.049-.321-.098-.635-.154-.956-.056-.362-.53-.592-.858-.488-.39.126-.55.468-.488.858.049.32.098.635.154.955.042.28.063.58.139.851a.848.848 0 00.593.593c.216.056.446.014.655-.063.321-.118.586-.293.844-.523.419-.377.767-.872 1.032-1.367.279-.509.481-1.06.6-1.632.084-.341-.098-.753-.481-.843z" fill="#000"/><path d="M76.66 42.122c-2.219 2.434-3.46 5.503-4.171 8.69-.81 3.62-1.116 7.387-1.256 11.09-.035.9 1.36.893 1.395 0 .132-3.487.412-7.023 1.144-10.44.648-3.042 1.75-6.02 3.87-8.35.608-.662-.376-1.652-.983-.99z" fill="#151921"/><path d="M138.748 136.51c.069-.084.125-.167.167-.258.223-.565-.077-1.102-.579-1.36a28.647 28.647 0 01-1.423-.788c-.216-.203-.432-.398-.655-.6-1.409-.677-2.762-1.437-3.906-2.574a.977.977 0 01-.265-.474c-.14-.07-.265-.16-.412-.23-.167-1.8-.139-3.599.098-5.399.098-.718-.53-1.206-1.193-1.164-.99.062-1.981.132-2.971.195-.997.07-1.946.391-2.085 1.534-.105.872.251 1.877.488 2.7.146.516.314 1.032.495 1.534a53.66 53.66 0 00-3.013.384l-.07.02c-.021 0-.035-.006-.056-.006-.746.048-1.492.118-2.238.223-.886.118-1.047 1.067-.663 1.639.014.502.37 1.011.907 1.032 2.057.091 4.066-.133 6.047-.607a71.533 71.533 0 005.293 4.673c-1.576.091-3.145.14-4.721.133-1.563-.007-3.174 0-4.673-.475-.544-.174-.998.084-1.242.468-.537.174-.858.774-.655 1.402.83 2.594 4.331 2.783 6.563 2.762 3.208-.035 6.43-.482 9.576-1.081.286-.056.495-.196.635-.384.279-.049.564-.091.843-.154.607-.132 1.151-.362 1.395-.976.489-1.234-.599-2.051-1.687-2.169z" fill="#89A1AE"/><path d="M125.907 128.322a7.8 7.8 0 00-.495-.691c0-.118.014-.237.028-.362.084-.14.133-.307.098-.461-.042-.181-.126-.369-.279-.474a.756.756 0 00-.53-.133.797.797 0 00-.6.468c0 .007 0 .014-.007.021-.07-.021-.14-.049-.216-.056-.502-.049-.97.118-1.458.223-.418.091-.865.14-1.29.154 0-.035 0-.063-.007-.098-.021-.377-.447-.642-.795-.586-.405.063-.607.412-.586.795.021.46.049.921.07 1.381.013.3.076.558.334.753.237.182.551.168.837.196.949.083 1.897.181 2.846.237.474.028.983.07 1.458.014.258-.035.488-.147.641-.363.237-.335.147-.711-.049-1.018zM129.261 132.645c.768-.188 1.96-.272 2.476-.941.063-.084.105-.182.147-.279-1.444.509-2.978.802-4.457 1.165-1.102.272-2.134.46-3.278.453-1.116-.007-2.218-.14-3.334-.147a.807.807 0 01-.258-.048l.112.697c.104.663.118 1.486.551 2.03.418.516 1.144.662 1.75.837 2.616.739 5.315 1.039 8.014 1.325 1.088.111 1.514-1.207.753-1.876-1.06-.928-2.12-1.856-3.18-2.79 0-.077-.007-.147-.007-.223.223-.077.467-.147.711-.203z" fill="#89A1AE"/><path d="M140.073 135.31c-6.04 1.492-12.506 2.427-18.56.488-.851-.272-1.381 1.025-.523 1.297 6.256 1.946 12.952 1.116 19.278-.404.879-.209.677-1.597-.195-1.381z" fill="#151921"/><path d="M119.846 126.131c-.139-.885-1.52-.683-1.381.203.419 2.699 1.402 7.532 1.904 10.217.168.879 1.549.684 1.381-.202-.495-2.685-1.478-7.518-1.904-10.218zM126.13 129.626c.23 0 .495-.049.754-.119a121.24 121.24 0 01-1.068-4.233 46.232 46.232 0 005.238-.928c-.014 1.43-.021 2.867-.035 4.296.468-.048.928-.111 1.388-.202.014-1.632.021-3.264.035-4.889 0-.405-.307-.9-.795-.774a45.852 45.852 0 01-6.793 1.206c-.356.035-.67.44-.586.795.377 1.667.802 3.32 1.249 4.966.181-.076.383-.125.613-.118z" fill="#151921"/><path d="M124.763 125.378a72.348 72.348 0 01-5.349.509c-.377.021-.642.447-.586.796.063.404.411.606.795.585a65.2 65.2 0 005.349-.509c.886-.125.684-1.499-.209-1.381zM132.75 136.621a91.96 91.96 0 01-4.952-4.387c-.272-.258-.746-.202-.984.07-.258.3-.202.725.07.983a91.96 91.96 0 004.952 4.387.718.718 0 00.984-.069c.244-.279.223-.74-.07-.984zM140.435 135.283c-2.811-1.667-5.349-3.146-8.369-4.394-.83-.342-1.451.906-.621 1.248 3.02 1.249 5.559 2.727 8.369 4.394.768.461 1.388-.795.621-1.248z" fill="#151921"/><path d="M132.226 127.631c-.502-.203-1.088.139-1.562.293-.677.223-1.36.411-2.051.572-2.671.62-5.412.802-8.139.544-.893-.084-1.067 1.297-.168 1.387 2.407.231 4.841.147 7.219-.278a26.115 26.115 0 003.39-.844c.167-.056.356-.105.537-.168.007.063.014.126.021.168.028.655.049 1.318.077 1.973.034.893 1.415.684 1.381-.202l-.084-2.092c-.014-.544-.035-1.123-.621-1.353z" fill="#151921"/><path d="M132.08 130.567a23.772 23.772 0 01-11.243 1.73c-.893-.077-1.067 1.304-.168 1.388a25.34 25.34 0 0011.983-1.841c.816-.342.258-1.618-.572-1.277zM139.522 136.028l.439 3.048c-3.264 1.123-6.856 1.758-10.316 1.611a28.551 28.551 0 01-5.196-.704c-.655-.154-2.106-.272-2.35-.963-.314-.9-.307-2.085-.446-3.034-.133-.886-1.493-.69-1.36.202.16 1.095.237 2.26.495 3.334.244.991.983 1.165 1.869 1.423a29.41 29.41 0 006.075 1.088c4.129.286 8.383-.425 12.268-1.841.279-.105.44-.453.398-.739l-.523-3.62c-.119-.9-1.479-.698-1.353.195z" fill="#151921"/><path d="M93.377 140.646c.105.014.21.021.307.007.6-.097.907-.634.872-1.199a31.884 31.884 0 01-.056-1.625c.063-.286.119-.579.182-.865-.147-1.556-.182-3.111.209-4.673a.958.958 0 01.272-.468c-.007-.153 0-.313-.014-.467a23.98 23.98 0 014.687-2.685c.67-.286.76-1.074.384-1.618l-1.695-2.448c-.572-.823-1.34-1.472-2.386-.998-.802.363-1.478 1.179-2.071 1.807-.37.39-.725.795-1.067 1.213a61.412 61.412 0 00-1.876-2.392c-.014-.021-.035-.035-.056-.056l-.021-.049c-.425-.62-.872-1.22-1.34-1.806-.557-.697-1.45-.349-1.75.272-.425.272-.676.837-.418 1.311.976 1.814 2.197 3.425 3.626 4.883a71.035 71.035 0 00-1.29 6.939 76.786 76.786 0 01-2.538-3.982c-.796-1.346-1.626-2.72-1.988-4.255-.133-.558-.586-.816-1.04-.83-.425-.376-1.102-.342-1.54.161-1.8 2.043-.168 5.147.996 7.051 1.674 2.734 3.718 5.273 5.845 7.665.195.216.426.321.656.349.188.216.37.432.565.642.425.453.9.802 1.555.697 1.304-.237 1.444-1.59.99-2.581z" fill="#89A1AE"/><path d="M93.817 125.421c.118-.237.237-.502.335-.781.104-.063.216-.112.32-.16.16 0 .328-.042.447-.154.132-.125.25-.293.265-.488a.72.72 0 00-.16-.523.785.785 0 00-.712-.272c-.007 0-.014.007-.021.007-.02-.07-.028-.147-.063-.216-.216-.461-.6-.775-.941-1.137a7.474 7.474 0 01-.796-1.026c.028-.02.056-.034.084-.055.314-.21.321-.712.098-.984-.258-.314-.67-.307-.984-.097-.383.258-.767.509-1.15.767-.251.167-.44.349-.475.669-.027.3.14.565.265.816.419.858.823 1.716 1.256 2.567.216.425.446.886.74 1.262.16.203.376.342.64.363.412.042.684-.23.852-.558zM91.829 130.512c.558.565 1.241 1.541 2.078 1.639.105.014.21 0 .314-.021-1.179-.976-2.218-2.148-3.292-3.229-.795-.809-1.493-1.597-2.071-2.581-.565-.955-1.019-1.974-1.59-2.936a.79.79 0 01-.098-.251l-.544.453c-.516.433-1.22.865-1.458 1.521-.23.62.014 1.325.181 1.932.712 2.622 1.835 5.098 2.978 7.553.46.997 1.814.684 1.995-.321.251-1.388.51-2.769.76-4.157.063-.041.126-.083.189-.118.195.167.376.342.558.516z" fill="#89A1AE"/><path d="M95.086 141.169c-4.38-4.422-8.495-9.485-9.939-15.679-.202-.872-1.59-.655-1.38.216 1.54 6.375 5.69 11.69 10.238 16.342.62.635 1.716-.244 1.081-.879z" fill="#151921"/><path d="M92.59 119.095c.69-.572-.196-1.653-.887-1.081-2.099 1.75-5.74 5.07-7.79 6.877-.67.592.209 1.674.886 1.081 2.043-1.807 5.684-5.127 7.79-6.877zM92.813 126.278c.118.196.3.398.488.586a130.546 130.546 0 013.082-3.09 45.552 45.552 0 003.48 4.018l-3.703 2.176c.28.377.572.739.886 1.088 1.409-.823 2.81-1.653 4.22-2.476.349-.202.614-.725.258-1.081a45.298 45.298 0 01-4.527-5.21c-.216-.286-.718-.349-.983-.098a119.152 119.152 0 00-3.62 3.62c.16.119.3.272.418.467z" fill="#151921"/><path d="M95.755 122.93a68.944 68.944 0 01-3.18-4.33c-.21-.314-.711-.321-.983-.098-.314.258-.307.67-.098.983a68.923 68.923 0 003.18 4.331c.565.697 1.646-.181 1.081-.886zM90.197 135.548c.328-2.183.74-4.352 1.22-6.5.084-.37-.209-.747-.564-.809-.384-.07-.726.195-.81.565a90.242 90.242 0 00-1.22 6.5.715.715 0 00.565.809c.37.07.753-.188.81-.565zM95.295 141.455c-.014-3.264-.048-6.207-.523-9.436-.132-.886-1.52-.782-1.388.104.482 3.229.516 6.173.523 9.437 0 .907 1.388.788 1.388-.105z" fill="#151921"/><path d="M97.653 130.491c-.084-.537-.677-.864-1.053-1.185a25.147 25.147 0 01-6.18-8.175c-.384-.809-1.66-.244-1.276.565a26.676 26.676 0 003.94 6.047 27.45 27.45 0 002.462 2.476c.133.119.272.251.419.377a1.047 1.047 0 01-.133.098c-.55.362-1.102.718-1.653 1.081-.753.488.14 1.562.886 1.081.586-.384 1.172-.76 1.75-1.144.454-.293.935-.6.838-1.221z" fill="#151921"/><path d="M95.05 131.865a23.736 23.736 0 01-7.253-8.76c-.39-.809-1.667-.244-1.276.565a25.261 25.261 0 007.728 9.339c.718.53 1.527-.607.802-1.144zM94.193 141.057c-.795.649-1.59 1.298-2.385 1.939-2.643-2.225-5.029-4.986-6.675-8.027a28.592 28.592 0 01-2.064-4.82c-.21-.642-.851-1.946-.377-2.511.614-.732 1.632-1.332 2.372-1.939.697-.565-.175-1.632-.872-1.06-.858.698-1.814 1.36-2.609 2.134-.725.719-.495 1.437-.265 2.33a28.777 28.777 0 002.183 5.768c1.87 3.69 4.666 6.975 7.875 9.583.23.188.613.147.837-.035.948-.767 1.897-1.541 2.838-2.308.705-.551-.16-1.619-.858-1.054zM109.21 109.818c-10.183-2.085-21.433-7.247-24.523-18.113-.844-2.957-.928-6.075-.119-9.053.237-.872-1.123-1.207-1.353-.342-1.464 5.426-.132 11.257 2.992 15.853 3.132 4.59 7.812 7.917 12.89 10.065 3.145 1.332 6.437 2.253 9.778 2.936.872.182 1.214-1.172.335-1.346z" fill="#151921"/><path d="M120.23 102.935c-.579.083-1.144.216-1.702.362.446-.579.83-1.192 1.053-1.918.223-.704-.474-1.402-1.151-1.318.293-.516.474-1.067.272-1.59-.237-.607-.907-1.011-1.534-.628-.767.474-1.514.983-2.246 1.514.112-.356.223-.719.335-1.075.328-1.046-1.012-1.687-1.751-1.018a15.82 15.82 0 00-2.469 2.86c-.411.607-.063 1.192.46 1.423-.599 1.59-1.157 3.222-1.374 4.903-.174.39-.341.788-.495 1.199-.244.656-.683 1.486-.286 2.163.433.739 1.702.683 2.002-.126.014 0 .028 0 .042-.007a24.306 24.306 0 005.51-1.911 23.114 23.114 0 002.427-1.367c.802-.516 1.646-1.067 2.085-1.953.44-.858-.272-1.653-1.178-1.513z" fill="#DF7FFF"/><path d="M123.068 102.662c-.627-.565-1.855-.056-2.552.132-.147.042-.293.098-.44.14.6-.726 1.179-1.465 1.73-2.232.335-.468-.125-1.012-.6-1.046a4.866 4.866 0 00-1.318.076c.774-1.046 1.158-2.078.133-2.504-.907-.376-2.309.189-3.146.544-.377.16-.732.35-1.088.551l.125-.293c.307-.802.517-1.59.077-2.385-.181-.328-.634-.432-.955-.251a18.024 18.024 0 00-3.362 2.497c-.656.614.335 1.604.983.983a16.12 16.12 0 012.114-1.673c-.112.355-.3.718-.405.969-.258.6-.551 1.186-.872 1.757-.314.565.363 1.388.956.956 1.311-.962 2.713-1.932 4.338-2.26.021-.007.098-.014.188-.028l-.062.084c-.265.342-.544.67-.83.997a22.418 22.418 0 01-1.87 1.863c-.585.523.182 1.534.844 1.095.816-.544 1.667-1.095 2.588-1.381a36.163 36.163 0 01-2.392 2.776c-.579.606.146 1.402.844 1.095a19.12 19.12 0 013.564-1.165c.007 0 .027-.007.048-.007-.718 1.2-1.98 2.036-3.145 2.748a19.065 19.065 0 01-8.572 2.713c-.893.063-.9 1.458 0 1.395 3.948-.272 7.846-1.646 10.992-4.087.698-.544 1.346-1.158 1.834-1.904.37-.572.907-1.57.251-2.155zM135.804 91.956c-.67-.725-1.939-.92-2.65-.14-.67.726-.551 1.89-.489 2.797.077 1.075.266 2.142.565 3.174.252.858 1.598.495 1.347-.37a13.637 13.637 0 01-.475-2.294 14.114 14.114 0 01-.076-1.214 7.413 7.413 0 01.013-.795c-.013.084.028-.133.035-.16.007-.028.021-.063.028-.091 0-.007.007-.007.014-.021.014-.035.035-.063.056-.098-.021.035-.021.035.014 0a.96.96 0 00.056-.035c.028-.007.035-.007.056-.007h.111c.042.007.174.05.174.05a.685.685 0 01.252.215c.39.468.488 1.298.488 1.94.007.899 1.402.899 1.395 0 0-1.012-.203-2.177-.914-2.951z" fill="#151921"/><path d="M145.381 85.602c-.712.202-1.277.663-1.744 1.248-.272-.864-1.158-1.29-1.946-.564-.614.564-1.095 1.255-1.485 2.008-.356-.676-1.2-.816-1.884-.174-.795.753-1.227 2.05-1.639 3.034a22.775 22.775 0 00-1.199 3.885c-.189.879 1.157 1.248 1.346.37.383-1.786.962-3.523 1.785-5.155.098-.202.251-.411.377-.628v.021a18.907 18.907 0 01-.223 2.804c-.14.865 1.123 1.263 1.346.37.376-1.507.809-3.027 1.632-4.36.174-.278.37-.55.579-.802.007.063.007.12.007.147a11.438 11.438 0 01-.363 2.748c-.223.872 1.095 1.234 1.346.37.272-.928.572-1.849 1.081-2.672.23-.37.509-.725.851-1.004.077-.063.447-.39.572-.32-.021-.015.042.285.056.348.3 1.834-.321 3.717-1.346 5.224-2.302 3.369-6.591 4.436-10.462 4.366-.9-.014-.9 1.381 0 1.395 3.892.07 8.111-.942 10.797-3.948 1.199-1.346 2.092-3.027 2.371-4.82.202-1.31.342-4.519-1.855-3.891z" fill="#151921"/><path d="M154.077 80.922c-1.457-1.576-2.957-3.125-4.435-4.687-.698-.74-1.402-1.479-2.1-2.218-.453-.481-1.039-1.458-1.82-1.297-.349.07-.635.362-.907.572-.46.341-.913.683-1.374 1.032-.872.656-1.737 1.304-2.601 1.96a534.221 534.221 0 00-5.043 3.864 271.706 271.706 0 00-9.841 8.062c-3.683 3.146-7.303 6.361-10.922 9.584-.67.6.313 1.583.983.983 4.84-4.303 9.681-8.6 14.668-12.736 2.531-2.1 5.112-4.15 7.721-6.158a480.986 480.986 0 013.822-2.909c.641-.481 1.276-.962 1.918-1.444.537-.404 1.095-.92 1.687-1.29.014.007.021.021.028.028.189.21.391.412.586.614.314.328.621.655.935.983.697.74 1.402 1.479 2.099 2.218.663.698 1.325 1.395 1.981 2.093.314.327.621.655.935.983.209.223.627.544.844.858-.384.425-1.102.844-1.465 1.116-.558.425-1.13.844-1.702 1.248a70.318 70.318 0 01-3.522 2.337c-.76.474-.063 1.68.704 1.206a68.433 68.433 0 005.099-3.487c.662-.502 1.569-1.011 2.092-1.66.558-.683.147-1.297-.37-1.855zM133.07 96.804a175.3 175.3 0 00-11.034 6.779c-.746.495-.049 1.702.705 1.207a178.328 178.328 0 0111.033-6.78c.782-.439.077-1.646-.704-1.206z" fill="#151921"/><path d="M151.86 83.698a55.987 55.987 0 00-7.582-8.76c-.655-.614-1.646.37-.983.984a53.91 53.91 0 017.365 8.474c.509.74 1.716.042 1.2-.698zM212.218 59.496c-5.266.335-10.81.802-15.142 4.157a.623.623 0 00-.23.697.685.685 0 00.209.774c1.451 1.249 2.497 2.832 3.118 4.638.14.398.767.565 1.074.266 3.083-3.028 7.916-3.718 11.724-1.681.614.327 1.047-.419.9-.928-.662-2.323-1.297-4.715-.858-7.142.084-.481-.369-.81-.795-.781zm-11.124 8.795a12.001 12.001 0 00-2.727-3.857c3.808-2.72 8.585-3.201 13.154-3.501-.175 1.869.181 3.717.655 5.53-3.682-1.353-8.034-.655-11.082 1.828z" fill="#151921"/><path d="M201.094 68.29a11.987 11.987 0 00-2.727-3.856c3.808-2.72 8.586-3.201 13.154-3.501-.174 1.869.181 3.717.656 5.53-3.683-1.353-8.035-.655-11.083 1.828z" fill="#5EDC10"/><path d="M18.582 88.817c3.264 4.15 6.8 8.446 12.01 10.113a.622.622 0 00.704-.202.683.683 0 00.516-.614c.203-1.904.914-3.661 2.051-5.196.251-.342.035-.955-.39-1.032-4.241-.823-7.554-4.408-8.042-8.697-.077-.69-.942-.621-1.277-.217-1.534 1.863-3.145 3.746-5.391 4.757-.433.195-.447.753-.181 1.088zm13.558 4.17a11.952 11.952 0 00-1.632 4.437c-4.4-1.59-7.511-5.252-10.35-8.844 1.639-.92 2.957-2.26 4.185-3.683.976 3.801 4.024 6.989 7.797 8.09z" fill="#151921"/><path d="M32.14 92.988a11.951 11.951 0 00-1.632 4.436c-4.4-1.59-7.511-5.252-10.35-8.844 1.639-.92 2.957-2.26 4.185-3.683.976 3.802 4.024 6.989 7.797 8.091z" fill="#FFBF24"/><path d="M29.21 37.17c-1.701 4.994-3.389 10.302-1.945 15.582a.63.63 0 00.55.481.686.686 0 00.796.105 10.563 10.563 0 015.475-1.11c.419.029.816-.487.656-.892-1.618-4.003-.412-8.732 2.922-11.48.537-.44.014-1.13-.51-1.186-2.399-.272-4.854-.6-6.925-1.932-.404-.265-.879.028-1.018.433zm3.886 13.643c-1.59.035-3.146.398-4.604 1.046-1.06-4.561.321-9.157 1.786-13.496 1.667.872 3.501 1.256 5.363 1.507-2.664 2.887-3.682 7.177-2.545 10.943z" fill="#151921"/><path d="M33.096 50.813c-1.59.035-3.146.398-4.603 1.046-1.06-4.561.32-9.157 1.785-13.496 1.667.872 3.501 1.256 5.364 1.507-2.665 2.887-3.683 7.177-2.546 10.943z" fill="#398FE5"/><path d="M212.595 92.904c-1.144-1.953-2.421-4.15-1.681-6.479.16-.51-.363-1.004-.858-.858-4.555 1.325-9.583 3.278-11.669 7.91-.495.215-.593 1.101.084 1.325a19.158 19.158 0 015.942 3.173c.37.293 1.061.265 1.165-.307.544-2.908 3.404-4.638 6.235-3.731.586.181 1.082-.523.782-1.033zm-8.098 3.432a20.928 20.928 0 00-4.722-2.525c1.862-3.676 5.761-5.384 9.555-6.563-.167 1.771.489 3.48 1.326 5.064-2.679-.16-5.224 1.464-6.159 4.024z" fill="#151921"/><path d="M204.497 96.336a20.907 20.907 0 00-4.722-2.525c1.863-3.676 5.761-5.384 9.556-6.563-.168 1.772.488 3.48 1.325 5.064-2.678-.16-5.224 1.464-6.159 4.024z" fill="#398FE5"/><path d="M210.865 11.428c-.035-.405-.07-.851-.188-1.242-.147-.474-.531-.802-1.04-.774-.362.02-.739.132-1.074.265-.69.265-1.297.649-1.883 1.102-.621.481-1.172 1.04-1.716 1.597a.701.701 0 000 .984c.265.264.726.272.984 0 .53-.551 1.074-1.11 1.688-1.577.495-.376 1.123-.746 1.736-.906h.014c.021.083.042.16.056.23a8.4 8.4 0 01.07 1.192c0 .9-.105 1.793-.209 2.686-.042.376.348.697.697.697.412 0 .656-.32.697-.697.091-.782.182-1.57.203-2.358.007-.404 0-.802-.035-1.2z" fill="#151921"/><path d="M213.187 16.302c-.781-.544-2.489-1.45-3.382-1.771-.844-.307-1.207 1.039-.37 1.346.551.202 1.932.941 2.434 1.241.154.09.356.258.53.349a17.934 17.934 0 01-3.557.356.701.701 0 00-.669.886c.251.913.418 1.834.453 2.782.007.252.014.503.007.754 0 .062-.014.153-.028.237-.097-.14-.223-.28-.307-.398a22.95 22.95 0 01-2.525-4.764c-.146-.383-.62-.697-1.025-.418a43.626 43.626 0 01-2.274 1.5 25.97 25.97 0 01-1.067.627c-.216.126-.432.251-.648.363l-.091.042c.711-1.367 1.555-2.392 3.013-3.041.614-.272.321-1.081-.167-1.276a7.547 7.547 0 01-1.814-1.04c-.279-.216-.76-.579-1.074-.962h.049c.244-.007.488-.007.732 0 .51.014 1.012.063 1.514.146.962.16 1.499.398 2.399.775.83.341 1.193-1.005.37-1.347-1.193-.495-2.03-.753-3.313-.9-.865-.097-2.581-.404-3.215.391-.698.879.53 1.967 1.122 2.518a9.06 9.06 0 001.556 1.13 6.57 6.57 0 00-1.43 1.311c-.572.712-1.548 2.05-1.193 3.02.482 1.305 1.974.586 2.776.133a41.053 41.053 0 002.776-1.744c.391.92.837 1.827 1.339 2.692a25.43 25.43 0 001.046 1.64c.314.446.642 1.039 1.151 1.304.426.216.97.16 1.305-.196.369-.39.376-.997.397-1.506a13.149 13.149 0 00-.293-3.306 20.856 20.856 0 002.183-.21c.719-.111 1.89-.153 2.176-.969.265-.74-.341-1.311-.886-1.695z" fill="#151921"/><path d="M208.842 17.824a.701.701 0 00-.669.885c.251.914.418 1.835.453 2.783.007.251.014.502.007.754 0 .062-.014.153-.028.237-.097-.14-.223-.28-.307-.398a22.95 22.95 0 01-2.525-4.764c-.146-.383-.62-.697-1.025-.418a43.628 43.628 0 01-2.274 1.5c-.348.216-.704.425-1.067.627-.216.126-.432.251-.648.363l-.091.042c.711-1.367 1.555-2.392 3.013-3.041.614-.272.321-1.081-.167-1.276a7.544 7.544 0 01-1.814-1.04c-.279-.216-.76-.579-1.074-.962h.049c.244-.007.488-.007.732 0 .51.014 1.012.063 1.514.146.962.16 1.499.398 2.399.774.586.245.935-.355.802-.85.481-.496.97-.984 1.514-1.402.495-.377 1.123-.747 1.736-.907h.014c.021.084.042.16.056.23.056.384.07.795.07 1.193 0 .753-.077 1.5-.161 2.239-.474.216-.564 1.088.091 1.332.551.202 1.932.941 2.434 1.241.154.09.356.258.53.349a17.501 17.501 0 01-3.564.363z" fill="#FFBF24"/><path d="M7.227 60.103c-.328-.244-.684-.516-1.053-.683-.454-.203-.949-.133-1.27.265-.223.286-.39.641-.516.983a7.21 7.21 0 00-.425 2.134c-.05.782-.007 1.563.056 2.344a.71.71 0 00.739.655.71.71 0 00.655-.739c-.055-.767-.111-1.541-.055-2.301.042-.621.188-1.333.474-1.905 0-.007.007-.007.007-.014.077.035.153.077.21.112.32.216.64.474.934.74.67.6 1.27 1.269 1.869 1.938.251.28.753.203.983-.055.272-.307.196-.705-.055-.984a27.105 27.105 0 00-1.625-1.723c-.307-.272-.607-.53-.928-.767z" fill="#151921"/><path d="M12.41 61.602c-.922.224-2.735.9-3.572 1.347-.788.425-.028 1.597.76 1.171.516-.279 1.988-.816 2.546-.997.174-.056.432-.09.614-.167a17.504 17.504 0 01-2.1 2.894.702.702 0 00.217 1.088 11.943 11.943 0 012.943 2.009c.049.041.105.111.16.181-.167-.02-.355-.02-.495-.035a23.045 23.045 0 01-5.245-1.276c-.383-.147-.934 0-.99.488-.105.9-.23 1.8-.39 2.7-.07.404-.154.808-.238 1.213a12.15 12.15 0 01-.16.725c-.007.035-.021.063-.028.098-.551-1.444-.753-2.755-.272-4.269.202-.641-.593-.955-1.06-.725a7.36 7.36 0 01-1.981.663c-.349.062-.935.18-1.43.167.007-.014.021-.021.028-.035a12.31 12.31 0 011.604-1.576c.76-.614 1.29-.858 2.17-1.284.808-.39.041-1.555-.761-1.171-1.165.565-1.911 1.011-2.874 1.876-.641.579-2.015 1.667-1.84 2.657.194 1.102 1.82.914 2.629.83a8.495 8.495 0 001.876-.411 6.946 6.946 0 00.028 1.939c.153.906.502 2.517 1.464 2.894 1.29.51 1.751-1.08 1.946-1.988.23-1.067.398-2.148.544-3.229.949.32 1.918.586 2.902.788.634.126 1.276.23 1.918.307.544.063 1.206.21 1.736.007.447-.174.76-.614.719-1.102-.049-.537-.495-.949-.858-1.297a13.074 13.074 0 00-2.671-1.981c.46-.572.9-1.158 1.297-1.772.39-.606 1.137-1.513.718-2.273-.37-.677-1.2-.607-1.855-.454z" fill="#151921"/><path d="M10.665 65.857a.702.702 0 00.217 1.088c.85.418 1.646.906 2.378 1.513.195.16.384.328.565.495.049.042.105.112.16.182-.167-.021-.355-.021-.495-.035a23.051 23.051 0 01-5.245-1.277c-.383-.146-.934 0-.99.489-.105.9-.23 1.8-.39 2.699-.07.404-.154.809-.238 1.213-.049.245-.098.489-.16.726-.007.035-.021.063-.028.097-.551-1.443-.753-2.755-.272-4.268.202-.642-.593-.956-1.06-.725a7.367 7.367 0 01-1.981.662c-.349.063-.935.181-1.43.168.007-.014.021-.021.028-.035a12.253 12.253 0 011.604-1.577c.76-.613 1.29-.858 2.17-1.283.571-.272.355-.934-.098-1.165-.05-.683-.091-1.38-.042-2.064.042-.62.188-1.332.474-1.904 0-.007.007-.007.007-.014a1.9 1.9 0 01.21.111c.32.217.64.475.934.74.558.502 1.067 1.053 1.57 1.61-.154.503.438 1.145 1.052.817.516-.28 1.988-.816 2.546-.998.174-.055.432-.09.614-.167a17.98 17.98 0 01-2.1 2.902z" fill="#FFBF24"/><path d="M113.436 83.502c-.369-.041-.634.168-.767.502-.418 1.054-1.311 1.877-2.232 2.497-.53.356-1.088.67-1.646.977-.467.258-1.018.635-1.569.46-.858-.279-1.221 1.074-.37 1.346.802.258 1.597-.041 2.309-.411a20.273 20.273 0 001.981-1.165c.453-.307.878-.642 1.269-1.011a13.313 13.313 0 01-1.137 3.431c-.167.335-.091.754.251.956.307.181.788.09.956-.251a14.823 14.823 0 001.562-6.64.7.7 0 00-.607-.69zM135.643 80.629a13.149 13.149 0 01-1.883-1.848c-.056-.07-.111-.133-.167-.202-.021-.028-.042-.049-.063-.077-.007-.007-.007-.014-.014-.02a3.252 3.252 0 01-.265-.42c-.014-.027-.028-.062-.042-.09v-.014a1.821 1.821 0 01-.063-.265c-.055-.362-.53-.593-.857-.488-.391.126-.551.474-.488.858.062.376.251.739.467 1.053a12.934 12.934 0 002.392 2.496c.146.119.293.202.495.202a.722.722 0 00.495-.202c.23-.25.3-.739-.007-.983zM125.035 89.57a.793.793 0 00-.321-.418 5.757 5.757 0 01-.934-.92 5.864 5.864 0 01-.293-.433.717.717 0 00-.419-.32.689.689 0 00-.537.07c-.313.201-.453.62-.251.954a6.18 6.18 0 001.73 1.849c.139.097.376.111.537.07a.695.695 0 00.488-.85zM111.979 95.248c-5.901 1.074-11.697-2.086-14.138-7.526-.37-.816-1.569-.112-1.206.704 2.56 5.706 8.53 8.963 14.639 8.314l-2.929 13.782c-.188.879 1.158 1.248 1.346.37 1.046-4.931 2.099-9.862 3.146-14.793.111-.544-.328-.95-.858-.851zM74.602 59.028c-2.734 4.876-9.34 5.552-13.915 2.979-2.406-1.353-3.605-3.732-4.254-6.333-.725-2.916-.67-5.957.09-8.858.175-.684-.662-1.158-1.164-.677-4.13 3.906-5.636 10.204-3.669 15.547.307.837 1.653.474 1.346-.37-1.506-4.094-.83-8.74 1.646-12.254-.516 4.073.112 8.592 2.574 11.808 2.86 3.724 8.809 4.917 13.105 3.375 2.295-.823 4.255-2.385 5.447-4.52.433-.78-.767-1.478-1.206-.697z" fill="#151921"/><path d="M54.996 75.015c.774.097 1.527.265 2.28.446a.648.648 0 00-.313-.627c-4.338-2.742-7.881-7.129-8.663-12.318-.725-4.798 1.235-10.085 5.392-12.756.753-.481.056-1.695-.705-1.207-3.529 2.267-5.635 6.13-6.123 10.253-.516 4.359 1.025 8.676 3.682 12.1a21.818 21.818 0 004.248 4.123.506.506 0 01.202-.014z" fill="#151921"/><path d="M60.373 84.542c-4.115.28-8.237-1.283-11.054-4.31-2.553-2.741-3.809-6.57-3.537-10.28 2.979 3.256 8.677 5.74 13.245 6.297.886.105.88-1.29 0-1.395-4.638-.565-10.322-3.682-13.245-6.988-.334-.377-1.074-.203-1.164.307-.83 4.561.432 9.38 3.543 12.854 3.048 3.403 7.679 5.224 12.22 4.91.878-.063.885-1.458-.008-1.395z" fill="#151921"/><path d="M61.468 92.975c-5.44-1.688-9.82-6.18-11.375-11.662-.244-.865-1.59-.495-1.346.37 1.695 5.949 6.444 10.796 12.352 12.63.858.273 1.227-1.073.37-1.338z" fill="#151921"/><path d="M88.495 100.785c-9.43 1.486-19.48 1.13-27.5-4.561-2.365-1.674-4.457-3.808-5.887-6.34-.44-.781-1.646-.077-1.207.705 5.559 9.827 18.1 12.91 28.582 12.282 2.623-.154 5.231-.509 7.812-.977-.663-.258-1.29-.62-1.8-1.109zM164.651 61.784a109.567 109.567 0 00-11.041 12.122c-.544.697.433 1.695.984.983a110.062 110.062 0 0111.041-12.122c.655-.613-.335-1.597-.984-.983zM171.982 64.853a159.159 159.159 0 00-13.964 9.304c-.711.53-.014 1.744.705 1.207a157.059 157.059 0 0113.963-9.305c.774-.46.077-1.666-.704-1.206zM156.63 61.763c-1.444 2.455-2.88 4.91-4.324 7.365-.453.774.753 1.478 1.207.704 1.443-2.455 2.88-4.91 4.324-7.365.453-.774-.753-1.479-1.207-.704zM165.342 47.381c-2.128-.328-3.857.851-4.945 2.511a10.239 10.239 0 00-.572-1.13c-.391-.662-.907-1.548-1.598-1.953-1.346-.78-2.992.69-3.801 1.66-1.646 1.974-2.19 4.708-1.416 7.128-1.785-.028-3.759.377-4.352 2.302-.669 2.162 1.088 3.913 2.797 4.882.781.44 1.486-.76.705-1.206-1.109-.628-2.679-1.807-2.156-3.306.551-1.584 2.79-1.34 4.074-1.214.558.056.823-.62.599-1.046-.99-1.911-.767-4.248.377-6.04.377-.586 1.632-2.204 2.476-1.946.467.146 1.025 1.311 1.248 1.709.363.655.635 1.346.844 2.064.21.698 1.109.62 1.346 0 .593-1.57 1.863-3.04 3.662-3.069 1.618-.028 3.139 1.563 2.225 3.16-.446.781.76 1.485 1.207.704 1.241-2.204-.328-4.84-2.72-5.21zM184.954 67.65a3.19 3.19 0 00-1.527-1.353c1.192-1.193 1.981-2.776 1.388-4.513-.621-1.834-2.923-2.915-4.631-1.869-.768.467-.063 1.674.704 1.207 1.144-.705 2.574.334 2.706 1.562.175 1.604-1.109 2.797-2.329 3.571-.649.412-.244 1.52.537 1.276.878-.279 1.778.258 2.078 1.116.349.99-.049 2.093-.621 2.909-.676.97-3.766 4.268-4.986 2.622-.405-.544-1.263-.376-1.298.349-.09 1.876-.669 4.29-2.762 4.84-2.218.586-3.578-1.848-4.338-3.5-.377-.817-1.576-.106-1.207.703 1.054 2.288 3.02 4.925 5.915 4.143 2.288-.62 3.306-2.761 3.655-4.917 2.245.88 5.307-2.03 6.388-3.78.782-1.27 1.102-3.013.328-4.366zM178.746 53.895c-.181-.656-.656-1.206-1.241-1.555-1.36-.802-2.971-.293-4.108.634-.286.23-.258.747 0 .984.3.279.684.244.983 0l.042-.035c.007-.007.014-.007.035-.028a3.84 3.84 0 01.544-.328c.014-.007.105-.048.119-.056.041-.02.09-.034.132-.048.119-.042.244-.077.37-.105a1.16 1.16 0 01.125-.02c.056-.008.112-.008.168-.015h.209c.014 0 .118.014.125.014.091.021.182.035.272.07.021.007.049.014.07.028.049.02.098.049.146.07.042.02.084.048.126.076.021.014.056.042.077.056.083.07.16.146.23.223.014.014.021.014.021.021.007.007 0 .007.014.021.028.049.062.098.09.146.007.007.021.035.035.056.007.021.042.105.049.119.014.049.021.097.035.14.007.02.007.02.007.027 0 .007 0 .014-.007.035v.272c-.007.014-.007.028-.014.056-.07.3-.16.53-.265.753-.153.328-.105.767.251.955.307.16.788.105.955-.25.349-.712.628-1.507.405-2.316zM130.734 123.454c-.586-3.781-1.388-8.224-2.002-10.462-.237-.865-1.583-.496-1.346.369.614 2.225 1.437 6.821 2.022 10.595.44-.175.893-.314 1.326-.502zM120.809 125.762c-1.465-3.097-2.923-6.201-4.387-9.297-.384-.81-1.584-.105-1.207.704l4.387 9.297c.384.816 1.583.105 1.207-.704zM107.989 116.633c-.021-.9-1.415-.9-1.395 0a56.887 56.887 0 01-.027 3.431c-.035.921.118 2.281-.572 2.992-.691.712-1.737 1.193-2.602 1.653-.976.517-1.981.963-3.013 1.347-.837.306-.474 1.659.37 1.346a28.23 28.23 0 003.348-1.486c1.011-.537 2.231-1.116 2.992-1.988.795-.913.788-2.127.844-3.271.069-1.346.083-2.685.055-4.024zM95.895 117.664c-.007-.021-.111-.258-.063-.14-.027-.062-.048-.125-.076-.188a11.076 11.076 0 01-.16-.439c-.091-.272-.175-.551-.245-.83a8.758 8.758 0 01-.174-.851c-.014-.077-.02-.153-.035-.23-.007-.035-.007-.07-.014-.112a5.002 5.002 0 01-.042-.467c-.028-.362-.3-.718-.697-.697-.356.014-.725.307-.697.697.104 1.381.439 2.699 1.004 3.961.146.335.662.439.955.251.342-.223.405-.6.244-.955z" fill="#151921"/><path d="M95.274 117.156c-.244-.272-.69-.356-.983-.098a21.14 21.14 0 00-2.002 2.022c-.111.126-.153.356-.125.516.028.168.132.363.279.454.153.097.335.16.516.125a.76.76 0 00.453-.279c.16-.181.32-.362.488-.537.405-.425.83-.837 1.27-1.22.271-.244.355-.697.104-.983zM187.591 14.286c-.174-.432-.593-.635-1.025-.418a9.047 9.047 0 01-5.873.774c-.53-.39-1.416.23-1.011.914 2.141 3.661 1.953 8.355-.426 11.856-.328.482.223 1.242.788 1.026 1.939-.76 4.053-.593 5.838.495.307.188.781.084.956-.251 2.273-4.436 2.587-9.744.753-14.396zm-1.674 13.092a7.892 7.892 0 00-4.617-.712c1.597-3.257 1.681-7.17.244-10.504 1.702.154 3.39-.097 4.98-.753 1.318 3.906 1.123 8.216-.607 11.969z" fill="#151921"/><path d="M185.917 27.378a7.894 7.894 0 00-4.617-.712c1.597-3.257 1.681-7.17.244-10.504 1.702.154 3.39-.097 4.98-.753 1.318 3.906 1.123 8.216-.607 11.969z" fill="#DF7FFF"/><path d="M152.487 3.323A26.773 26.773 0 01146.35.12c-.244-.167-.481-.146-.67-.028-.209-.076-.453-.042-.648.189-2.344 2.769-3.578 6.395-3.341 10.022.056.872.188 1.75.418 2.602.105.39.237.78.6 1.004.398.244.851.14 1.276.077 2.281-.349 4.562-.726 6.842-1.088.544-.084.642-.823.307-1.165-2.211-2.28-1.339-5.921 1.528-7.135.6-.258.321-1.095-.175-1.276zm-3.11 8.397c-1.514.244-3.034.481-4.548.725-.244.042-.488.077-.732.119-.119.02-.439.118-.614.126.014-.05-.042-.175-.063-.252-.048-.188-.09-.383-.132-.572a12.11 12.11 0 01-.237-2.245c-.042-2.937.955-5.873 2.811-8.154a28.736 28.736 0 004.861 2.644c-2.323 1.771-2.881 5.12-1.346 7.609z" fill="#151921"/><path d="M149.377 11.72c-1.514.245-3.034.482-4.548.726-.244.042-.488.077-.732.118-.119.021-.439.119-.614.126.014-.049-.042-.174-.063-.251-.048-.188-.09-.384-.132-.572a12.194 12.194 0 01-.237-2.246c-.042-2.936.955-5.873 2.811-8.153a28.736 28.736 0 004.861 2.643c-2.323 1.772-2.881 5.12-1.346 7.61z" fill="#398FE5"/><path d="M46.25 2.633c-.195-.433-.795-.419-1.095-.14-1.974 1.813-4.834 1.465-7.268 1.123-.453-.063-.774.265-.85.62-.126.196-.182.44-.05.698 2.665 5.461 1.751 11.683.084 17.29-.16.544.523 1.158 1.026.788 2.894-2.113 6.528-2.357 9.987-2.545.272-.014.628-.203.67-.51.795-5.92-.056-11.877-2.504-17.324zm-7.672 2.462c2.357.279 4.784.313 6.78-1.005a29.945 29.945 0 012.099 15.01c-2.93.167-5.957.46-8.572 1.792 1.353-5.217 1.82-10.748-.307-15.797z" fill="#151921"/><path d="M38.578 5.094c2.357.28 4.785.314 6.78-1.004a29.946 29.946 0 012.099 15.01c-2.93.167-5.956.46-8.572 1.792 1.353-5.217 1.82-10.748-.307-15.798z" fill="#DF7FFF"/><path d="M170.07.88c-1.792 0-1.799 2.79 0 2.79s1.799-2.79 0-2.79zM65.074 8.47c-1.792 0-1.799 2.79 0 2.79 1.8 0 1.8-2.79 0-2.79zM12.974 28.375c-1.793 0-1.8 2.79 0 2.79 1.792 0 1.792-2.79 0-2.79zM35.23 71.311c-1.793 0-1.8 2.79 0 2.79 1.792 0 1.792-2.79 0-2.79zM4.855 88.86c-1.792 0-1.799 2.789 0 2.789 1.792 0 1.8-2.79 0-2.79zM49.626 102.474c-1.793 0-1.8 2.789 0 2.789 1.799 0 1.799-2.789 0-2.789zM169.059 99.042a1.476 1.476 0 00-.356-.613c-.091-.07-.188-.147-.279-.216a1.382 1.382 0 00-.704-.189h-.391a1.087 1.087 0 00-.537.119c-.174.055-.32.153-.446.286-.139.125-.23.279-.286.446a1.024 1.024 0 00-.118.537c.013.125.034.244.048.37.07.237.189.439.356.613.091.07.188.147.279.216.216.126.453.189.704.189h.391c.195.007.369-.035.537-.119.174-.056.32-.153.446-.286.139-.125.23-.279.286-.446.091-.168.125-.349.118-.537a6.572 6.572 0 00-.048-.37zM223.398 76.466c-1.792 0-1.799 2.79 0 2.79s1.799-2.79 0-2.79zM216.417 37.143c-1.793 0-1.8 2.789 0 2.789 1.799 0 1.799-2.79 0-2.79z" fill="#151921"/></svg>
