<svg width="126" height="171" fill="none" xmlns="http://www.w3.org/2000/svg"><g clip-path="url(#a)"><path d="M103.796 97.849a5.285 5.285 0 0 0-.539-2.66c-.538-.732-1.464-.723-2.264-.782-2.65-.177-5.302.075-7.953.143-2.39.067-4.79 0-7.171-.135-.067-.993-4.099-1.44-4.124-.387-.059 2.314.842 4.393.842 6.733 0 2.079 1.59 2.752 2.844 4.309 2.416 2.988 6.119 5.639 9.83 5.69 1.945 0 3.552 0 5.101-1.305 1.549-1.304 2.693-2.567 3.038-4.545.416-2.329.549-4.7.396-7.061Z" fill="#398FE5"/><path d="M109.37 162.655a11.56 11.56 0 0 0-6.069-3.265c-2.6-.632-5.285-.994-7.928-1.372a156.204 156.204 0 0 0-17.279-1.498 189.285 189.285 0 0 0-34.145 2.525l-2.13.336a1.795 1.795 0 0 0-1.725-.841c-4.741.258-9.46.757-14.156 1.498-3.46.547-8.273 1.186-9.258 5.294a2.143 2.143 0 0 0 .95 2.373c5.488 2.525 11.321 1.767 17.103.968a101.167 101.167 0 0 1 18.053-.774c12.238.496 24.408 2.449 36.662 2.146 6.657-.169 13.466-.901 19.442-4.04.285-.16.53-.384.716-.653a2.14 2.14 0 0 0 .267-1.869 2.134 2.134 0 0 0-.503-.828Z" fill="#151921"/><path d="M94.626 161.426c-1.978-.084-3.905.59-5.891.606a34.025 34.025 0 0 1-5.48-.538c-1.135-.185-2.272-.354-3.366-.522a7.214 7.214 0 0 0 4.049-3.602 2.25 2.25 0 0 0 .74-.421l2.879 2.028a2.117 2.117 0 0 0 1.595.215c.539-.142 1-.492 1.283-.972a2.09 2.09 0 0 0-.11-2.222l-.227-.051a1.343 1.343 0 0 1-.942-.976l-1.204-.842.43.135.243.076c.103.093.22.169.346.227l.143.059a1.33 1.33 0 0 1 1.683-1.262c.193.05.395.092.597.126l.37.067h.253c.1-.223.16-.463.177-.707l-.252-.219a15.01 15.01 0 0 0-6.658-3.274 1.116 1.116 0 0 1-.345-.143 5.98 5.98 0 0 0-3.316.48 9.725 9.725 0 0 0-2.45-1.145 2.118 2.118 0 0 0-2.22.751 2.11 2.11 0 0 0-.161 2.338 26.34 26.34 0 0 0 3.367 3.754c-.447 2.525-5.11 1.885-6.91 1.978-.97.009-1.9.375-2.618 1.027-.286.277-.463.639-.732.925.303-.319-.707.766-.673.707a2.35 2.35 0 0 0 .353 2.87c.682.682 1.818.842 2.719 1.01 3.66.791 7.415 1.254 11.11 1.81 1.91.341 3.849.507 5.79.496 1.843-.05 3.66-.681 5.487-.597 2.651.134 2.643-4.074-.059-4.192ZM55.453 158.497a15.423 15.423 0 0 0-2.845.261 139.625 139.625 0 0 1-14.947.867l.386-.244a1.565 1.565 0 0 0 .792-1.136 28.272 28.272 0 0 0 3.636-1.902 20.554 20.554 0 0 0 3.77-2.424 3.302 3.302 0 0 0 1.262-2.273 2.529 2.529 0 0 0-1.506-2.28 6.898 6.898 0 0 0-4.133-.413 1.658 1.658 0 0 0-.454.051l-.345.092c-1.625.337-3.224.724-4.856.968a1.684 1.684 0 0 0 .446 3.308c1.32-.112 2.63-.334 3.913-.665-.202.101-.404.193-.597.303-.707.404-1.397.841-2.08 1.262a3.257 3.257 0 0 0-1.758 2.332 46.16 46.16 0 0 0-5.05 3.568c-.757.615-1.481 1.279-1.363 2.348a2.725 2.725 0 0 0 2.112 2.205c.99.205 2.003.285 3.013.236l3.594.076c2.171.042 4.343.084 6.523 0a62.152 62.152 0 0 0 6.96-.598c1.843-.252 4.032-1.01 5.15-2.786 1.12-1.775.438-3.004-1.623-3.156Z" fill="#89A1AE"/><path d="M84.194 121.726a10.658 10.658 0 0 0-1.12-.429 7.948 7.948 0 0 0 .455-3.485c-.16-1.801-.446-3.551-.48-5.361a80.232 80.232 0 0 1 .48-10.352l.05.084a.416.416 0 0 0 0-.101 24.892 24.892 0 0 1 .42-5.53c.314-2.12.998-4.168 2.02-6.05.09-1.404.053-2.812-.109-4.209a26.237 26.237 0 0 0-.8-2.97 8.366 8.366 0 0 1-.201-3.595c.019-.127.062-.25.126-.362a.841.841 0 0 0-.74 1.044c.336 1.683.605 3.442.841 5.176a57.16 57.16 0 0 0-2.525 1.204c-.589.075-1.17.151-1.759.277-2.348.48-4.696 1.027-6.994 1.684a43.908 43.908 0 0 0-6.733 2.718c-.917.446-1.835.892-2.786 1.263-.202.084-.42.151-.622.244H63.607l-.842-.497c-.9-.496-1.826-.976-2.76-1.405a.792.792 0 0 0-.312-1.078c-3.543-2.137-7.658-2.777-11.648-3.619l-1.389-.311a39.793 39.793 0 0 1-11.572-5.05c.21-1.254.067-2.575-1.347-3.08-2.18-.792-3.45.698-4.073 2.592a1.313 1.313 0 0 1-.463 2.323v.429c.265.214.452.51.53.842.071.381.176.755.311 1.119.11.225.237.442.38.648.15.168.31.328.479.48.488.334 1.01.616 1.557.841l.614.245c.387.127.72.382.943.723.203.37.26.803.16 1.212-.025.09-.059.178-.101.261l.353.177-.328.135a1.355 1.355 0 0 0-.96 1.313 28.348 28.348 0 0 0-4.662 7.574c-.842 1.886-1.6 3.805-2.416 5.707-.816 1.902-1.826 3.787-2.609 5.74a25.955 25.955 0 0 0-1.33 7.818 2.39 2.39 0 0 0-1.986 2.719c.048.299.157.586.32.842a.9.9 0 0 0 .514 1.144 33.891 33.891 0 0 0 7.574 1.683 21.46 21.46 0 0 0 7.861 0 .792.792 0 0 0 .379-1.329c1.254-.977 1.448-2.609 1.414-4.259-.059-2.483.454-7.12 1.464-9.41a18.396 18.396 0 0 1 2.349-4.014 33.945 33.945 0 0 0 1.338 7.364 1.686 1.686 0 0 0-1.103 1.431 2.34 2.34 0 0 0 .699 2.163 2.574 2.574 0 0 0-.699 1.372c-.219 1.178.278 2.255.396 3.408.067.598-.303 1.44-.152 2.172.038.184.1.363.185.53a1.4 1.4 0 0 0 .132 1.848c.161.159.359.275.575.34a16.747 16.747 0 0 0 5 1.212c3.526.345 7.078-.084 10.605.303a.687.687 0 0 0 .58-.185 68.339 68.339 0 0 0 12.145-.934c4.208-.64 8.551-.699 12.549-2.432a1.297 1.297 0 0 0-.067-2.357Z" fill="#398FE5"/><path d="M78.1 87.631a53.767 53.767 0 0 0 6.254-1.531c.065-.053.136-.098.21-.135.792-.345 1.575-.715 2.383-1.01a1.297 1.297 0 0 0-1.55-1.069l-4.822.918c-2.171.31-4.351.53-6.506.917-1.466.25-2.91.618-4.317 1.102-1.25.207-2.487.488-3.703.842a8.198 8.198 0 0 0-1.17.455l-.143-.22a1.312 1.312 0 0 0-2.012-.285 2.281 2.281 0 0 0-.623.79l-4.435-2.524a1.245 1.245 0 0 0-1.742.496 1.288 1.288 0 0 0 0 2.441 17.078 17.078 0 0 1 6.447 3.661 1.347 1.347 0 0 0 1.792.042 1.144 1.144 0 0 0 .918-.059 1.91 1.91 0 0 0 2.104-.934 6.085 6.085 0 0 1 2.887-2.079l4.065-.774 3.366-.64c.147-.2.358-.342.598-.404Z" fill="#FFBF24"/><path d="M81 125.623a53.028 53.028 0 0 1-12.246 2.121 1.384 1.384 0 0 0-1.683.311.848.848 0 0 0-.42.909c.42 2.323.731 4.663.975 7.011.074.12.136.247.186.379.025.116.042.235.05.353 0 .118 0 .244-.05.362s0 .042 0 .059a1.708 1.708 0 0 1-.093.219.838.838 0 0 1 0 .328.945.945 0 0 1-.151.472l-.068.151a.823.823 0 0 1-.11.135l-.1.134c-.1.091-.206.173-.32.245l-.118.05c.255.44.632.797 1.086 1.027a1.405 1.405 0 0 0-.244 1.902c.11.181.257.338.43.463v.522a.84.84 0 0 0 .622.841c1.477.424 3.008.637 4.545.632a.676.676 0 0 0 .193-.043 2.778 2.778 0 0 0 2.29-.664c.499-.498.78-1.173.782-1.877a7.05 7.05 0 0 0 2.736.673 3.098 3.098 0 0 0 2.28-.623c.716-.665.682-1.565.707-2.474l.38-12.406A1.28 1.28 0 0 0 81 125.623ZM60.315 134.039a22.95 22.95 0 0 0-.429-2.525 11.434 11.434 0 0 1-.084-2.937.968.968 0 0 0-.943-.976c-2.634.092-5.268.177-7.903 0a32.814 32.814 0 0 1-3.955-.421 11.905 11.905 0 0 0-3.367-.379 1.07 1.07 0 0 0-.623.143.844.844 0 0 0-.412.892c0 2.795-.059 5.589-.084 8.417v2.011a2.475 2.475 0 0 0 .336 1.684.656.656 0 0 0 .59.841 26.7 26.7 0 0 0 4.645.042 10.786 10.786 0 0 1 2.264.101 2.706 2.706 0 0 0 0 1.078 1.482 1.482 0 0 0 .985.976c.014.465.203.907.53 1.237.484.356 1.088.51 1.684.429a30.405 30.405 0 0 0 5.092-.479c.74-.135.732-.951.31-1.381a5.676 5.676 0 0 0 .447-2.045c.106-1.27.004-2.55-.303-3.787a3.432 3.432 0 0 0 1.22-2.921Z" fill="#252B36"/><path d="M65.301 94.819a19.725 19.725 0 0 0-3.855-2.003.95.95 0 0 0-1.212 1.018 37.774 37.774 0 0 0-9.662-2.988c-4.915-.732-10.007-.664-14.678-2.567-1.144-.462-2.685.842-1.759 1.633C38.638 93.826 44.9 92 49.714 92.648c5.109.69 10.243 2.752 14.813 5.05.841.42 1.229-.455.782-1.221a.994.994 0 0 0-.008-1.658Z" fill="#2677C7"/><path d="M92.534 89.104a13.178 13.178 0 0 1-3.518 1.818c-3.476.842-7.575-.328-10.941-.538-4.815-.295-10.1.79-13.298 4.654-.29.407-.444.897-.438 1.397a.521.521 0 0 0 0 .278c0 .79.328 1.388.783.841l.135-.143a.842.842 0 0 0 .547-.185 22.31 22.31 0 0 1 6.396-3.737c2.693-.917 5.126-.513 7.87-.084 2.606.429 5.245.623 7.886.58 2.162-.05 4.426-.605 5.53-2.642a.791.791 0 0 0 .075-.606l.151-.11c.733-.706-.336-2.17-1.178-1.523ZM41.91 102.377c-2.315 5.672-6.38 16.084-6.868 22.194-.101 1.229 2.424.328 2.525-.892.48-5.942 2.045-13.879 4.292-19.358.455-1.178.514-3.106.05-1.944ZM45.569 114.118a1.343 1.343 0 0 1-.396-.261c.091-.2.117-.424.076-.64-.514-3.215-1.961-7.667-2.155-10.941-.067-1.22-.715 0-.64 1.195.169 2.963.48 5.892.91 8.829a.892.892 0 0 0-.455 1.061c.114.432.295.844.539 1.22a4.89 4.89 0 0 0-.707.395 1.03 1.03 0 0 0 0 1.684l.126.076a7.487 7.487 0 0 0-.43 2.718c0 1.885-.656 4.031-.656 5.891 0 1.229 1.684 2.105 1.684.842 0-1.591.58-8.416 1.371-9.258a1.058 1.058 0 0 0 .228-.909c.109 0 .21-.042.32-.05a.99.99 0 0 0 .751-.86.987.987 0 0 0-.566-.992Z" fill="#2677C7"/><path d="M94.83 159.575c-1.338-1.221-2.744-2.365-4.587-2.576a33.683 33.683 0 0 0-5.68-.075l-.211.042a12.108 12.108 0 0 0-1.28-1.263 55.352 55.352 0 0 0-3.282-2.996 53.118 53.118 0 0 0 2.13-1.532l.193-.143.05-.042 1.271-.118a.989.989 0 0 0 .935-.69l.934-3.173c.364-1.02.659-2.063.883-3.122a1.387 1.387 0 0 0-1.16-1.641 20.22 20.22 0 0 0-3.19-.346 41.2 41.2 0 0 0-3.106-.05c-.842 0-1.844 0-2.525.656a4.894 4.894 0 0 0-.918 2.357c-.084.379-.151.766-.21 1.153a8.054 8.054 0 0 0-3.367-1.111.582.582 0 0 0-.176 0h-.21a21.2 21.2 0 0 0-1.288-.101c-.463-.732-1.835-.606-1.768.446.185 3.064.42 6.119.724 9.174.118 1.254 0 3.055.791 4.107s2.29 1.195 3.409 1.498a50.46 50.46 0 0 0 8.896 1.574c.473.108.967.064 1.414-.126 1.144.48 2.525.345 3.779.387l4.376.152a.849.849 0 0 0 .842-.514c.32 0 .64 0 .96-.067.178-.016.351-.074.504-.168h.127a.971.971 0 0 0 .99-.574.969.969 0 0 0-.25-1.118ZM31.937 158.733c1.372-1.178 2.81-2.281 4.662-2.441a32.863 32.863 0 0 1 5.681.076c.072.006.142.02.21.042.404-.442.84-.853 1.305-1.229a55.648 55.648 0 0 1 3.367-2.912 46.908 46.908 0 0 1-2.087-1.582 1.634 1.634 0 0 1-.194-.152.102.102 0 0 1 0-.042l-1.28-.151a1.004 1.004 0 0 1-.917-.716 463.25 463.25 0 0 0-.841-3.198 24.167 24.167 0 0 1-.842-3.139 1.379 1.379 0 0 1 1.204-1.608 19.36 19.36 0 0 1 3.198-.26 47.294 47.294 0 0 1 3.105 0c.842.05 1.844 0 2.483.723.485.706.776 1.528.842 2.382.076.379.126.766.185 1.153a8.022 8.022 0 0 1 3.367-1.018.582.582 0 0 1 .176 0h.22c.428 0 .84-.051 1.287-.067.48-.716 1.843-.548 1.75.496-.269 3.058-.589 6.108-.959 9.149-.16 1.254-.067 3.055-.909 4.082-.842 1.026-2.314 1.144-3.442 1.414a51.78 51.78 0 0 1-8.938 1.338 2.282 2.282 0 0 1-1.406-.169c-1.161.455-2.575.278-3.796.287h-4.376a.841.841 0 0 1-.842-.531l-.96-.084a1.254 1.254 0 0 1-.496-.193h-.135a.985.985 0 0 1-.832-.628.98.98 0 0 1 .21-1.022Z" fill="#89A1AE"/><path d="M83.124 125.522c.067-1.086-1.178-1.136-1.246-.059-.303 5.05-.766 11.017-.589 16.05 0 1.086 1.683 1.086 1.683 0-.176-5.033-.16-10.966.152-15.991ZM45.23 128.333v-.976a.84.84 0 0 0-.802-.797.853.853 0 0 0-.4.081.708.708 0 0 0-.556.766c0 .312 0 .615.05.926-.123 3.928-.098 7.878.076 11.85a.843.843 0 1 0 1.683 0c.18-3.944.163-7.894-.05-11.85Z" fill="#343A46"/><path d="M79.516 122.315a64.816 64.816 0 0 1-.294-7.616.77.77 0 0 0-.438-.783.66.66 0 0 0-.202-.135c-1.97-.791-4.023-3.711-4.368-6.009a.839.839 0 0 0-.724-.682l-20.2-.118a.721.721 0 0 0-.639.371.833.833 0 0 0-.27.614 5.588 5.588 0 0 1-.95 3.165 3.001 3.001 0 0 1-2.374 1.279.805.805 0 0 0-.31.069.803.803 0 0 0-.42.458.793.793 0 0 0-.044.315.896.896 0 0 0 .118.462v9.343a.793.793 0 0 0 .774.841.745.745 0 0 0 .562-.254.75.75 0 0 0 .187-.587v-9.099a4.618 4.618 0 0 0 2.6-1.683 6.994 6.994 0 0 0 1.33-3.619l18.963.118a10.764 10.764 0 0 0 4.814 6.413c-.06 2.003.151 5.319.32 7.238v.312l.252-.143c.176-.112.38-.17.59-.169l.353.059.336.143.034-.303Z" fill="#2677C7"/><path d="M36.14 127.349a1.298 1.298 0 0 0-.058-.573l-.068-.841a.84.84 0 0 0-1.068-.842c-2.273.404-4.63-.118-6.885-.539l-.185-.075a84.018 84.018 0 0 1-2.576-.354h-.21a19.603 19.603 0 0 1-.985-.143c.312.059 0 0-.126 0a10.512 10.512 0 0 1-2.912-.606c-.43 1.271-.177 3.207-.135 4.208.093 2.306.253 4.612.463 6.918a1.282 1.282 0 0 0 1.317 1.018 1.281 1.281 0 0 0 1.208-1.144c0-.522.076-1.043.143-1.565.396.934.774 1.868 1.136 2.811.14.432.331.844.573 1.229a1.069 1.069 0 0 0 2.045-.522c.05-.615.05-1.237.076-1.852l.05-1.136v-.253l.842 1.322 1.464 2.154c.32.609.82 1.103 1.431 1.414.791.329 2.054-.126 1.885-1.186l-.606-3.67-.05-.345c.404.412.841.842 1.262 1.178a1.286 1.286 0 0 0 2.003-.328 8.114 8.114 0 0 0 .438-4.259 1.308 1.308 0 0 0-.003-1.657 1.305 1.305 0 0 0-.468-.362Z" fill="#FFBF24"/><path d="M37.32 133.013a19.637 19.637 0 0 1-.228-1.768 40.306 40.306 0 0 1 0-5.706.845.845 0 0 0-.417-.89.828.828 0 0 0-.332-.103.753.753 0 0 0-.81.351.749.749 0 0 0-.099.297 32.883 32.883 0 0 0 .169 7.574l.05.278a1.57 1.57 0 0 1 0 .194 3.875 3.875 0 0 1-.496-.32 10.514 10.514 0 0 1-1.591-1.591l-.059-.067a.779.779 0 0 0-.926-.168.836.836 0 0 0-.522.841l.539 4.36c0 .236.059.463.084.698.05.371.101.741.143 1.128a3.35 3.35 0 0 1-.26-.227 13.01 13.01 0 0 1-3.426-6.102.747.747 0 0 0-.48-.572.926.926 0 0 0-1.095.593.841.841 0 0 0-.016.459 14.05 14.05 0 0 0 1.54 3.855 10.702 10.702 0 0 0 3.258 3.745c.109.065.224.119.345.16a1.357 1.357 0 0 0 1.615-.429 2.525 2.525 0 0 0 .203-1.919v-.337l-.388-3.148c.943.775 1.684 1.103 2.315.985a1.251 1.251 0 0 0 .842-.766c.164-.452.179-.945.042-1.405Z" fill="#151921"/><path d="M28.25 131.708a.78.78 0 0 0-.777.469.783.783 0 0 0-.064.314 13.35 13.35 0 0 1-.455 3.215v.118a6.983 6.983 0 0 1-.404 1.203l-.05.093a1.93 1.93 0 0 1-.236-.345 10.943 10.943 0 0 1-1.111-5.294.842.842 0 0 0-.842-.842.845.845 0 0 0-.841.766c-.076.976-.514 3.762-1.23 4.208a.266.266 0 0 1-.294 0c-.454-.244-.665-1.506-.74-2.02a10.756 10.756 0 0 1-.11-2.121c.087-2.6.517-5.179 1.28-7.667a6.183 6.183 0 0 1-1.591-.513 31.54 31.54 0 0 0-1.01 4.368 20.602 20.602 0 0 0-.219 6.253c.076.429.488 2.618 1.767 3.274a1.779 1.779 0 0 0 1.684-.084 2.684 2.684 0 0 0 1.085-1.195c.295 1.01.724 2.281 1.684 2.819.102.057.21.105.32.143a1.291 1.291 0 0 0 1.144-.092c1.684-.985 1.843-5.892 1.843-6.127a.838.838 0 0 0-.488-.868.837.837 0 0 0-.345-.075ZM76.122 141.614a.65.65 0 0 0-.783.463 98.429 98.429 0 0 0-.48 3.518c.381.793.721 1.605 1.019 2.432.168-1.874.4-3.742.698-5.605a.657.657 0 0 0-.454-.808Z" fill="#151921"/><path d="m75.934 148.852-.26-.749a25.311 25.311 0 0 0-1.002-2.415v-.118c.16-1.347.311-2.466.48-3.527a.777.777 0 0 1 .345-.505.902.902 0 0 1 .698-.126.842.842 0 0 1 .615 1.019 85.886 85.886 0 0 0-.699 5.588v.059l-.177.774Zm-.841-3.291c.227.48.454.985.673 1.549.16-1.582.37-3.173.614-4.747a.444.444 0 0 0-.303-.547.479.479 0 0 0-.361.076.318.318 0 0 0-.152.219 54.922 54.922 0 0 0-.488 3.45h.017Z" fill="#151921"/><path d="m74.86 144.013-3.367-.345a10.305 10.305 0 0 1-2.946-.547.658.658 0 0 0-.841.244.63.63 0 0 0 .244.842c1.08.402 2.215.632 3.366.681l3.594.379a.639.639 0 0 0 .623-.648.658.658 0 0 0-.674-.606Z" fill="#151921"/><path d="m74.86 145.503-3.737-.396a10.764 10.764 0 0 1-3.249-.682.692.692 0 0 1-.395-.446.839.839 0 0 1 .05-.715.84.84 0 0 1 1.136-.337 8.471 8.471 0 0 0 2.45.488l3.77.387a.841.841 0 0 1 .842.842.839.839 0 0 1-.295.657.735.735 0 0 1-.572.202Zm-6.64-2.206a.381.381 0 0 0-.354.202.492.492 0 0 0 0 .379.363.363 0 0 0 .168.202c1.003.371 2.055.59 3.123.648l3.737.387a.33.33 0 0 0 .236-.092.441.441 0 0 0 .16-.345c0-.345-.354-.413-.455-.421l-3.77-.396a8.191 8.191 0 0 1-2.576-.513.555.555 0 0 0-.27-.051Z" fill="#151921"/><path d="M78.058 150.805a23.236 23.236 0 0 1-2.592-5.791.639.639 0 0 0-1.22.362 24.4 24.4 0 0 0 2.718 6.085c.421.699 1.532.042 1.094-.656Z" fill="#151921"/><path d="M77.476 151.975a.842.842 0 0 1-.69-.396 24.544 24.544 0 0 1-2.744-6.144.773.773 0 0 1 .177-.791.932.932 0 0 1 .841-.252.788.788 0 0 1 .573.563 23.065 23.065 0 0 0 2.525 5.732.842.842 0 0 1 0 .842.954.954 0 0 1-.775.479l.093-.033Zm-2.617-7.188a.513.513 0 0 0-.362.143.383.383 0 0 0-.076.387 23.968 23.968 0 0 0 2.693 6.035.408.408 0 0 0 .353.202.5.5 0 0 0 .413-.261.344.344 0 0 0 0-.379 23.63 23.63 0 0 1-2.618-5.841.373.373 0 0 0-.269-.277l-.134-.009ZM95.001 161.081a72.375 72.375 0 0 1-26.09-2.76v.193a.887.887 0 0 1-.06.472v.656a73.487 73.487 0 0 0 26.21 2.719c.773-.068.757-1.347-.06-1.28Z" fill="#151921"/><path d="M89.346 162.79a73.28 73.28 0 0 1-20.553-2.946l-.152-.05v-.842a.765.765 0 0 0 .05-.379l-.058-.513.303.092a71.762 71.762 0 0 0 26.023 2.753.71.71 0 0 1 .699.319.905.905 0 0 1 .059.901.837.837 0 0 1-.707.48c-1.869.109-3.77.185-5.664.185Zm-20.284-3.308a72.67 72.67 0 0 0 25.94 2.668.423.423 0 0 0 .361-.244.488.488 0 0 0 0-.48.33.33 0 0 0-.32-.134 72.304 72.304 0 0 1-25.88-2.685c.007.143-.016.286-.067.421l-.034.454Z" fill="#151921"/><path d="M96.667 162.285c-.085-.842-1.364-.8-1.28 0l.303 2.744a78.404 78.404 0 0 1-14.728-.564 76.506 76.506 0 0 1-7.457-1.372c-1.22-.286-2.483-.547-3.67-.951-.606-.211-.404-.842-.438-1.439 0-.733-.075-1.473-.109-2.214-.034-.74-1.321-.799-1.28 0 .043.8.077 1.473.119 2.214a4.934 4.934 0 0 0 .21 1.893 1.28 1.28 0 0 0 .842.674c.673.219 1.372.387 2.053.564a80.305 80.305 0 0 0 8.316 1.683 80.88 80.88 0 0 0 16.832.715.646.646 0 0 0 .632-.648c-.101-1.06-.22-2.18-.345-3.299Z" fill="#151921"/><path d="M91.423 166.653a79.898 79.898 0 0 1-11.859-.842 77.272 77.272 0 0 1-8.35-1.683l-.445-.118c-.53-.135-1.086-.269-1.608-.446a1.52 1.52 0 0 1-1.018-.783c-.181-.483-.256-1-.219-1.515v-.463l-.118-2.213a.788.788 0 0 1 .465-.772.788.788 0 0 1 .31-.07.855.855 0 0 1 .65.215.837.837 0 0 1 .275.627l.118 2.213v.421c0 .514 0 .724.295.842.995.332 2.006.613 3.03.842l.623.143c2.44.572 4.94 1.026 7.44 1.363 4.791.639 9.632.833 14.459.581l-.27-2.525a.733.733 0 0 1 .278-.699.928.928 0 0 1 .901-.075.84.84 0 0 1 .513.707l.37 3.366a.761.761 0 0 1-.176.556.969.969 0 0 1-.648.328c-1.675-.051-3.35 0-5.016 0Zm-22.8-8.543a.38.38 0 0 0-.28.117.373.373 0 0 0-.099.287l.118 2.222v.48c-.035.451.025.904.177 1.33a1.087 1.087 0 0 0 .766.564c.513.176 1.06.311 1.582.446l.454.117a78.14 78.14 0 0 0 8.299 1.684 80.452 80.452 0 0 0 16.774.715.527.527 0 0 0 .353-.177.336.336 0 0 0 .076-.244l-.37-3.366a.392.392 0 0 0-.261-.362.503.503 0 0 0-.48 0 .317.317 0 0 0-.118.311l.328 2.971h-.218c-4.93.275-9.876.086-14.771-.564a74.308 74.308 0 0 1-7.474-1.38l-.623-.143a30.514 30.514 0 0 1-3.072-.842c-.623-.21-.597-.782-.58-1.245v-.379l-.118-2.222a.43.43 0 0 0-.463-.32Z" fill="#151921"/><path d="M85.003 156.267a38.986 38.986 0 0 0-5.639-3.779c-.008.178-.06.351-.151.505a2.935 2.935 0 0 1-.362.488c-.031.036-.065.07-.101.101 1.771.984 3.46 2.11 5.05 3.367a15.927 15.927 0 0 1-1.683 4.014c-.43.707.69 1.33 1.119.623a16.84 16.84 0 0 0 1.936-4.713.648.648 0 0 0-.169-.606Z" fill="#151921"/><path d="M82.705 162.125a.954.954 0 0 1-.48-.135.773.773 0 0 1-.39-.496.781.781 0 0 1 .104-.623 15.526 15.526 0 0 0 1.683-3.829 36.716 36.716 0 0 0-4.932-3.249l-.252-.135.252-.244c.127-.143.24-.298.337-.463a.781.781 0 0 0 .126-.404v-.345l.303.143a39.206 39.206 0 0 1 5.664 3.804.845.845 0 0 1 .253.842 17.158 17.158 0 0 1-1.97 4.772.84.84 0 0 1-.698.362Zm-3.636-8.568c1.708.94 3.34 2.012 4.881 3.207l.11.092v.135a15.982 15.982 0 0 1-1.734 4.065.38.38 0 0 0 .151.539.422.422 0 0 0 .606-.135 16.663 16.663 0 0 0 1.92-4.654.413.413 0 0 0-.102-.404 39.176 39.176 0 0 0-5.344-3.619 1.12 1.12 0 0 1-.135.311 3.329 3.329 0 0 1-.353.463ZM96.373 161.485a8.184 8.184 0 0 0-1.92-3.038 6.343 6.343 0 0 0-2.794-1.86.64.64 0 0 0-.774.454.658.658 0 0 0 .455.783c.867.304 1.636.84 2.222 1.549a6.824 6.824 0 0 1 1.59 2.466.635.635 0 1 0 1.22-.354Z" fill="#151921"/><path d="M95.763 162.512a.837.837 0 0 1-.841-.606 6.577 6.577 0 0 0-1.54-2.39 4.667 4.667 0 0 0-2.13-1.49.836.836 0 0 1-.627-.704.842.842 0 0 1 .021-.331.89.89 0 0 1 .413-.53.842.842 0 0 1 .63-.076 6.305 6.305 0 0 1 2.888 1.927 8.207 8.207 0 0 1 1.97 3.106.842.842 0 0 1-.573 1.06.716.716 0 0 1-.21.034Zm-4.258-5.748a.373.373 0 0 0-.21.059.417.417 0 0 0-.211.269.439.439 0 0 0 .311.522c.91.307 1.715.864 2.323 1.607a7.006 7.006 0 0 1 1.633 2.525.438.438 0 0 0 .53.295.464.464 0 0 0 .295-.53 7.942 7.942 0 0 0-1.877-2.946 5.892 5.892 0 0 0-2.702-1.81l-.092.009ZM86.796 141.555a7.605 7.605 0 0 0-2.466-.278l-2.803.051-5.512.101a.64.64 0 1 0 0 1.279l5.31-.092 2.61-.051c.623-.03 1.248-.004 1.868.076l-2.525 7.97a.597.597 0 0 0 0 .387c0-.084.076-.168.118-.252.114-.199.276-.367.471-.488l.32-.143c.192-.038.389-.038.58 0l2.425-7.752a.655.655 0 0 0-.396-.808Z" fill="#151921"/><path d="m83.34 151.588-.201-.505a.843.843 0 0 1 0-.539l2.424-7.726a11.229 11.229 0 0 0-1.524-.042l-2.668.05-5.31.093a.841.841 0 0 1 0-1.684l6.396-.117h1.919a7.803 7.803 0 0 1 2.525.294.844.844 0 0 1 .597 1.035l-2.525 7.929h-.176a1.148 1.148 0 0 0-.489 0l-.294.134c-.156.101-.284.24-.37.404a1.03 1.03 0 0 0-.101.219l-.202.455Zm1.23-9.258c.427-.006.855.022 1.279.084h.235l-2.407 7.701a.748.748 0 0 1 .135-.093l.345-.151c.165-.056.34-.078.513-.068l2.374-7.574a.437.437 0 0 0-.32-.514 7.415 7.415 0 0 0-2.399-.269h-1.919l-6.396.118a.392.392 0 0 0-.379.273.394.394 0 0 0-.017.164.389.389 0 0 0 .413.421l7.978-.143.564.051Z" fill="#151921"/><path d="M83.273 150.813a.605.605 0 0 0-.437-.505 9.058 9.058 0 0 0-8.476 1.886 4.156 4.156 0 0 0-1.397 1.893 1.684 1.684 0 0 0 .842 1.986 2.978 2.978 0 0 0 2.28-.075 7.886 7.886 0 0 0 2.138-1.254c1.39-1.078 2.778-2.652 4.638-2.803a.668.668 0 0 0 .552-.437.673.673 0 0 0-.14-.691Zm-7.516 3.931c-.336.126-1.38.53-1.557 0-.176-.531.615-1.238.977-1.566a7.619 7.619 0 0 1 3.198-1.683 7.882 7.882 0 0 1 2.424-.219c-.614.312-1.194.684-1.734 1.111a13.012 13.012 0 0 1-3.282 2.357h-.026Z" fill="#151921"/><path d="M74.71 156.478a2.205 2.205 0 0 1-1.01-.219 1.933 1.933 0 0 1-.91-2.231 4.432 4.432 0 0 1 1.456-1.994 9.256 9.256 0 0 1 8.678-1.928.794.794 0 0 1 .572.615.9.9 0 0 1 .135.841.844.844 0 0 1-.741.556c-1.397.109-2.525 1.077-3.62 2.011-.302.261-.605.514-.908.749a7.905 7.905 0 0 1-2.214 1.288c-.459.182-.945.287-1.439.312Zm5.647-6.33a8.903 8.903 0 0 0-5.833 2.205 3.89 3.89 0 0 0-1.321 1.785 1.504 1.504 0 0 0 .681 1.75 2.832 2.832 0 0 0 2.121-.084 8.019 8.019 0 0 0 2.104-1.22c.295-.236.59-.488.842-.741 1.153-.976 2.331-1.986 3.863-2.112a.422.422 0 0 0 .379-.278.487.487 0 0 0-.076-.488l-.05-.051v-.067a.377.377 0 0 0-.286-.337 8.435 8.435 0 0 0-2.424-.362Zm-5.64 5.05a.995.995 0 0 1-.395-.076.576.576 0 0 1-.294-.336c-.22-.665.504-1.322.942-1.683l.093-.085a7.769 7.769 0 0 1 3.29-1.75 8.042 8.042 0 0 1 2.525-.227l.775.05-.699.354c-.6.307-1.165.679-1.683 1.11-.244.194-.488.404-.732.606a9.164 9.164 0 0 1-2.651 1.785 3.499 3.499 0 0 1-1.17.277v-.025Zm5.337-3.77a7.138 7.138 0 0 0-1.6.227 7.42 7.42 0 0 0-3.105 1.683l-.093.084c-.336.303-.968.842-.841 1.263a.14.14 0 0 0 .084.084c.126.059.446.076 1.203-.21a9.157 9.157 0 0 0 2.525-1.684c.244-.21.488-.421.74-.614a9.771 9.771 0 0 1 1.087-.808v-.025Z" fill="#151921"/><path d="M92.726 152.295a13.624 13.624 0 0 0-4.772-2.719 11.114 11.114 0 0 0-3.164-.269c-.842 0-2.046-.101-2.315.892a.692.692 0 0 0 0 .32h-.43a.64.64 0 1 0 0 1.279c3.292-.101 6.052 2.163 9.259 2.719.673.117 1.565.303 2.112-.261.674-.724-.134-1.498-.69-1.961Zm-9.022-1.684h1.245c.469-.025.938-.025 1.406 0a6.676 6.676 0 0 1 2.71.783 20.63 20.63 0 0 1 2.483 1.574c.151.118.303.236.446.362l-.522-.084c-2.727-.531-5.1-2.138-7.768-2.601v-.034Z" fill="#151921"/><path d="M92.321 154.845a5.362 5.362 0 0 1-1.01-.118h-.067a18.05 18.05 0 0 1-3.897-1.321c-1.683-.716-3.434-1.473-5.286-1.398a.84.84 0 0 1-.841-.841.84.84 0 0 1 .841-.884h.21v-.151c.279-1.027 1.398-1.036 2.206-1.044h.311a11.096 11.096 0 0 1 3.224.278 13.52 13.52 0 0 1 4.856 2.76c.512.339.876.86 1.019 1.456a1.113 1.113 0 0 1-.329.842 1.679 1.679 0 0 1-1.237.421Zm-10.1-3.266a13.48 13.48 0 0 1 5.244 1.431 18.205 18.205 0 0 0 3.812 1.296h.068c.631.11 1.414.244 1.86-.21a.632.632 0 0 0 .21-.488c0-.472-.656-.985-.842-1.162a13.1 13.1 0 0 0-4.696-2.676 10.718 10.718 0 0 0-3.097-.261h-.32c-.909 0-1.624.067-1.801.732a.302.302 0 0 0 0 .21l.067.261h-.698a.413.413 0 0 0-.39.285.404.404 0 0 0-.014.17.383.383 0 0 0 .24.375c.05.02.102.03.155.029h.228l-.026.008Zm10.36 2.037-.69-.084-.538-.084a20.38 20.38 0 0 1-3.846-1.305 18.564 18.564 0 0 0-3.889-1.296l-.395-.067.345-.345h.48l.841-.042h1.431c.98.081 1.932.368 2.794.841.881.465 1.725.997 2.525 1.591l.472.37.47.421Zm-7.464-2.828c.841.269 1.683.623 2.524.968 1.111.501 2.263.907 3.443 1.212a19.245 19.245 0 0 0-2.23-1.397 6.608 6.608 0 0 0-2.626-.758 9.978 9.978 0 0 0-1.07-.025h-.041Z" fill="#151921"/><path d="M88.054 153.397a37.047 37.047 0 0 0-7.718.362l.496.185c.421.173.829.376 1.22.606.102.064.196.141.279.228a37.4 37.4 0 0 1 5.748-.11c.816.051.791-1.229-.025-1.271Z" fill="#151921"/><path d="m82.257 154.996-.075-.067a1.026 1.026 0 0 0-.236-.202 9.849 9.849 0 0 0-1.195-.589l-.26-.101a1.83 1.83 0 0 1-.228-.084l-.724-.286.766-.118a37.325 37.325 0 0 1 7.768-.362.841.841 0 0 1 .842.951.762.762 0 0 1-.53.715.77.77 0 0 1-.312.034 35.884 35.884 0 0 0-5.706.101l-.11.008Zm-1.102-1.136c.348.147.686.319 1.01.514.089.051.17.113.244.185a36.653 36.653 0 0 1 5.681-.093c.05.006.099.002.146-.013a.346.346 0 0 0 .21-.196.334.334 0 0 0 .023-.144.444.444 0 0 0-.421-.505 36.598 36.598 0 0 0-6.893.252ZM91.76 156.216a54.296 54.296 0 0 0-4.512-.404c-1.515-.067-2.954.051-4.41-.067a.649.649 0 0 0-.499.158.644.644 0 0 0-.158.739.634.634 0 0 0 .39.348.632.632 0 0 0 .267.026c1.405.126 2.836 0 4.208.076 1.372.076 2.904.177 4.343.362a.655.655 0 0 0 .783-.455.647.647 0 0 0-.413-.783Z" fill="#151921"/><path d="M91.57 157.673h-.152a45.07 45.07 0 0 0-4.326-.362h-1.767a24.78 24.78 0 0 1-2.483-.059.842.842 0 0 1-.762-1.2.917.917 0 0 1 .215-.298.73.73 0 0 1 .564-.202c.841.067 1.683.059 2.524.05h1.894c1.448.068 2.971.202 4.537.413a.697.697 0 0 1 .496.328.9.9 0 0 1 .135.707.844.844 0 0 1-.876.623Zm-5.505-.842h1.044c1.473.059 2.946.177 4.368.37a.46.46 0 0 0 .547-.311.481.481 0 0 0-.165-.46.317.317 0 0 0-.121-.053 54.449 54.449 0 0 0-4.495-.404h-1.876c-.842 0-1.684 0-2.525-.059a.303.303 0 0 0-.244.101.466.466 0 0 0-.16.345.458.458 0 0 0 .454.421c.842.058 1.683.058 2.45.05h.723Z" fill="#151921"/><path d="M91.902 156.284c-1.532-1.145-3.981-3.064-6.094-4.52a1.46 1.46 0 0 1-.631 0 8.018 8.018 0 0 1-1.608-.597 4.821 4.821 0 0 1-.841-.497.572.572 0 0 0 .219.842 101.239 101.239 0 0 1 8.273 5.891.64.64 0 0 0 .841-.219.646.646 0 0 0-.16-.9Z" fill="#151921"/><path d="M91.546 157.689a.687.687 0 0 1-.43-.143l-1.405-1.06a76.21 76.21 0 0 0-6.843-4.84.788.788 0 0 1-.303-1.102l.11-.211.202.144c.244.185.507.346.783.479.5.245 1.025.44 1.565.581.178.038.361.038.539 0h.092l.068.051c1.557 1.077 3.316 2.415 4.721 3.484l1.38 1.044a.841.841 0 0 1 .27 1.153.847.847 0 0 1-.59.404l-.16.016Zm-8.67-6.733a.335.335 0 0 0 .194.286 75.482 75.482 0 0 1 6.894 4.874l1.405 1.06a.343.343 0 0 0 .26.051.493.493 0 0 0 .304-.202.447.447 0 0 0-.16-.606l-1.38-1.044c-1.389-1.052-3.106-2.365-4.638-3.426a1.762 1.762 0 0 1-.63 0 8.27 8.27 0 0 1-1.684-.614 5.23 5.23 0 0 1-.564-.345v-.034ZM68.35 143.499c0-.841-1.313-.841-1.27 0a238.72 238.72 0 0 0 1.068 14.838c.084.842 1.363.842 1.28 0-.511-4.932-.87-9.878-1.078-14.838Z" fill="#151921"/><path d="M68.865 159.145a.986.986 0 0 1-.404-.084.838.838 0 0 1-.522-.724c-.505-4.915-.841-9.914-1.069-14.846a.731.731 0 0 1 .345-.69.901.901 0 0 1 .9 0 .835.835 0 0 1 .447.715c.21 4.941.564 9.923 1.077 14.821a.71.71 0 0 1-.286.682.84.84 0 0 1-.488.126Zm-1.187-16.058a.477.477 0 0 0-.244.067.34.34 0 0 0-.143.32c.202 4.924.556 9.915 1.069 14.821a.438.438 0 0 0 .278.379.486.486 0 0 0 .471 0 .301.301 0 0 0 .11-.303c-.506-4.907-.842-9.898-1.078-14.846a.408.408 0 0 0-.219-.362.503.503 0 0 0-.244-.076ZM50.623 141.277a.649.649 0 0 1 .766.48c.152 1.178.278 2.348.379 3.527a24.75 24.75 0 0 0-1.077 2.415 78.697 78.697 0 0 0-.556-5.622.664.664 0 0 1 .488-.8Z" fill="#151921"/><path d="m50.556 148.617-.075-.901a82.968 82.968 0 0 0-.547-5.639.842.842 0 0 1 .64-1.002.84.84 0 0 1 .699.144.723.723 0 0 1 .319.513c.143 1.06.269 2.213.387 3.535v.118a22.33 22.33 0 0 0-1.07 2.39l-.353.842Zm.11-7.129a.448.448 0 0 0-.32.53c.21 1.582.379 3.182.488 4.764.236-.556.48-1.061.724-1.54a92.906 92.906 0 0 0-.379-3.46.343.343 0 0 0-.151-.218.432.432 0 0 0-.362-.076Z" fill="#151921"/><path d="m51.844 143.71 3.366-.261a10.094 10.094 0 0 0 2.963-.463.639.639 0 0 1 .597 1.128c-1.085.369-2.22.568-3.366.589l-3.594.286a.65.65 0 0 1-.614-.665.656.656 0 0 1 .648-.614Z" fill="#151921"/><path d="M51.76 145.2a.703.703 0 0 1-.505-.219.902.902 0 0 1-.286-.665.842.842 0 0 1 .841-.842l3.788-.294a8.195 8.195 0 0 0 2.449-.421.842.842 0 0 1 1.128.37.91.91 0 0 1 0 .716.736.736 0 0 1-.413.437 10.779 10.779 0 0 1-3.274.598l-3.736.294.008.026Zm.1-1.28c-.1 0-.454.059-.47.413.005.13.059.253.151.345a.314.314 0 0 0 .236.101l3.745-.295a10.491 10.491 0 0 0 3.14-.564.378.378 0 0 0 .176-.193.488.488 0 0 0 0-.379.445.445 0 0 0-.598-.168 8.423 8.423 0 0 1-2.575.446l-3.804.294Z" fill="#151921"/><path d="M48.43 150.409a23.202 23.202 0 0 0 2.743-5.714.641.641 0 1 1 1.22.395 24.55 24.55 0 0 1-2.886 6.009.638.638 0 0 1-1.164-.208.64.64 0 0 1 .086-.482Z" fill="#151921"/><path d="M49.016 151.596a.847.847 0 0 1-.505-.16.844.844 0 0 1-.253-1.145 22.783 22.783 0 0 0 2.719-5.664.794.794 0 0 1 .597-.547.928.928 0 0 1 .842.278.765.765 0 0 1 .152.791 24.706 24.706 0 0 1-2.904 6.068.789.789 0 0 1-.648.379Zm2.735-7.12h-.093a.392.392 0 0 0-.277.277 23.785 23.785 0 0 1-2.77 5.766.38.38 0 0 0-.062.31.392.392 0 0 0 .19.253.418.418 0 0 0 .322.077.408.408 0 0 0 .275-.186 24.294 24.294 0 0 0 2.861-5.959.377.377 0 0 0-.076-.387.484.484 0 0 0-.37-.151ZM31.232 160.231a72.3 72.3 0 0 0 26.158-2.062v.185c-.022.162-.005.327.05.48v.648a73.294 73.294 0 0 1-26.234 2.028c-.841-.084-.8-1.38.026-1.279Z" fill="#151921"/><path d="M38.767 162.116a74.57 74.57 0 0 1-7.575-.395.84.84 0 0 1-.699-.497.923.923 0 0 1 .085-.9.75.75 0 0 1 .715-.303 71.73 71.73 0 0 0 26.09-2.054l.304-.084-.067.505a.842.842 0 0 0 0 .379v.909l-.16.042a73.24 73.24 0 0 1-18.693 2.398Zm-7.575-1.683a.34.34 0 0 0-.278.126.525.525 0 0 0 0 .489.395.395 0 0 0 .354.244 72.799 72.799 0 0 0 25.914-2.003v-.455a1.004 1.004 0 0 1 0-.387 72.25 72.25 0 0 1-25.94 1.986h-.05Z" fill="#151921"/><path d="M29.526 161.393c.109-.842 1.388-.766 1.27.05-.117.817-.244 1.827-.37 2.735 4.907.407 9.841.351 14.737-.168a76.413 76.413 0 0 0 7.49-1.178c1.23-.253 2.526-.48 3.696-.842.614-.193.429-.841.471-1.431l.177-2.205c.067-.841 1.338-.774 1.279.051l-.177 2.213c.03.639-.059 1.279-.26 1.886a1.298 1.298 0 0 1-.91.656c-.673.202-1.372.345-2.062.505a79.619 79.619 0 0 1-25.19 1.751.647.647 0 0 1-.614-.665c.151-1.128.345-2.247.463-3.358Z" fill="#151921"/><path d="M36.802 165.929c-2.39 0-4.77-.104-7.137-.311a.953.953 0 0 1-.64-.345.746.746 0 0 1-.168-.564l.463-3.367a.845.845 0 0 1 .53-.69.92.92 0 0 1 .9.101.724.724 0 0 1 .261.707l-.345 2.525c4.821.379 9.667.314 14.476-.194a76.717 76.717 0 0 0 7.474-1.169l.64-.135c1.01-.202 2.053-.413 3.038-.716.295-.092.32-.311.312-.841v-.421l.176-2.205a.84.84 0 0 1 .463-.699.946.946 0 0 1 .91.068.786.786 0 0 1 .327.715l-.176 2.214v.462a3.46 3.46 0 0 1-.261 1.507 1.525 1.525 0 0 1-1.035.757c-.54.16-1.094.287-1.642.413l-.429.101a78.134 78.134 0 0 1-8.416 1.473 79.979 79.979 0 0 1-9.721.614Zm-6.548-4.907a.62.62 0 0 0-.21 0 .447.447 0 0 0-.278.362l-.455 3.367a.337.337 0 0 0 .076.244.497.497 0 0 0 .345.185 80.47 80.47 0 0 0 16.782-.269 81.53 81.53 0 0 0 8.34-1.473l.439-.101a21.626 21.626 0 0 0 1.616-.404 1.12 1.12 0 0 0 .783-.547c.163-.424.234-.877.21-1.33v-.48l.176-2.213a.362.362 0 0 0-.143-.337.531.531 0 0 0-.488 0 .414.414 0 0 0-.227.354l-.177 2.205v.387c0 .454 0 1.027-.614 1.229-1.01.295-2.036.536-3.072.724l-.64.134c-2.466.505-5 .901-7.516 1.178a79.227 79.227 0 0 1-14.77.169h-.22l.405-2.954a.328.328 0 0 0-.11-.32.465.465 0 0 0-.252-.11Z" fill="#151921"/><path d="M41.354 155.686a39.44 39.44 0 0 1 5.732-3.627.992.992 0 0 0 .134.513c.105.173.22.339.345.497l.101.101a37.277 37.277 0 0 0-5.159 3.223c.342 1.42.88 2.786 1.6 4.057.412.715-.725 1.313-1.129.598a17.008 17.008 0 0 1-1.818-4.773.632.632 0 0 1 .194-.589Z" fill="#151921"/><path d="M43.514 161.603a.842.842 0 0 1-.715-.429 17.105 17.105 0 0 1-1.835-4.823.844.844 0 0 1 .26-.841 40.172 40.172 0 0 1 5.766-3.645l.278-.143v.312a.842.842 0 0 0 .109.446c.092.168.202.326.328.471l.042.05.244.236-.252.135a37.057 37.057 0 0 0-5.05 3.122 15.377 15.377 0 0 0 1.54 3.872.764.764 0 0 1 0 .791.922.922 0 0 1-.715.446Zm3.366-9.216a39.334 39.334 0 0 0-5.428 3.468.436.436 0 0 0-.118.404 16.6 16.6 0 0 0 1.801 4.713.377.377 0 0 0 .345.21.519.519 0 0 0 .42-.227.363.363 0 0 0 .001-.379 15.995 15.995 0 0 1-1.616-4.107v-.135l.11-.084a37.59 37.59 0 0 1 4.948-3.114 5.461 5.461 0 0 1-.294-.438 1.973 1.973 0 0 1-.143-.311h-.026ZM29.844 160.602a8.142 8.142 0 0 1 2.003-2.98 6.18 6.18 0 0 1 2.836-1.793.649.649 0 0 1 .766.48.639.639 0 0 1-.48.766 5.043 5.043 0 0 0-2.255 1.49 6.643 6.643 0 0 0-1.683 2.424.657.657 0 0 1-.842.412.63.63 0 0 1-.345-.799Z" fill="#151921"/><path d="M30.44 161.645a.833.833 0 0 1-.546-.21.838.838 0 0 1-.203-.27.841.841 0 0 1-.05-.631 8.411 8.411 0 0 1 2.053-3.063 6.297 6.297 0 0 1 2.938-1.844.78.78 0 0 1 .631.101.856.856 0 0 1 .395.531.842.842 0 0 1-.63 1.018 4.799 4.799 0 0 0-2.172 1.431 6.561 6.561 0 0 0-1.6 2.356.844.844 0 0 1-.816.581Zm4.385-5.622h-.084a5.89 5.89 0 0 0-2.744 1.734 7.917 7.917 0 0 0-1.96 2.904.364.364 0 0 0 0 .311.428.428 0 0 0 .243.227.454.454 0 0 0 .547-.286 6.888 6.888 0 0 1 1.684-2.525 5.055 5.055 0 0 1 2.356-1.54.436.436 0 0 0 .328-.514.472.472 0 0 0-.202-.277.406.406 0 0 0-.168-.034ZM39.947 140.932a7.665 7.665 0 0 1 2.474-.21l2.795.126 5.512.244a.637.637 0 0 1 .573.422.64.64 0 0 1-.631.857l-5.303-.235-2.6-.118a10.6 10.6 0 0 0-1.869 0c.758 2.676 1.518 5.356 2.281 8.038a.589.589 0 0 1 0 .387 2.252 2.252 0 0 0-.11-.253 1.348 1.348 0 0 0-.462-.505l-.32-.151a1.304 1.304 0 0 0-.572-.042l-2.206-7.785a.657.657 0 0 1 .438-.775Z" fill="#151921"/><path d="m43.12 151.049-.167-.513c0-.076-.06-.152-.093-.228a1.186 1.186 0 0 0-.396-.42l-.286-.135a1.128 1.128 0 0 0-.463 0h-.176l-2.273-7.987a.845.845 0 0 1 .324-.881.851.851 0 0 1 .299-.138 7.7 7.7 0 0 1 2.525-.227l1.919.084 6.388.295a.785.785 0 0 1 .69.421.898.898 0 0 1 0 .909.777.777 0 0 1-.724.362l-7.903-.354a11.114 11.114 0 0 0-1.59 0l2.188 7.794a.723.723 0 0 1-.042.53l-.22.488Zm-1.236-1.751c.15-.002.3.018.446.059l.345.16.16.118-2.205-7.768h.235a10.504 10.504 0 0 1 1.86 0l7.962.353a.311.311 0 0 0 .345-.168.506.506 0 0 0 0-.488.366.366 0 0 0-.336-.194l-6.388-.294-1.92-.085a7.619 7.619 0 0 0-2.406.202.467.467 0 0 0-.337.514l2.18 7.65.059-.059Z" fill="#151921"/><path d="M43.593 151.419c1.86.202 3.198 1.81 4.562 2.929a8.158 8.158 0 0 0 2.129 1.313c.71.341 1.527.39 2.272.135a1.683 1.683 0 0 0 .842-1.97 4.162 4.162 0 0 0-1.338-1.927 9.06 9.06 0 0 0-8.417-2.113.606.606 0 0 0-.454.497.674.674 0 0 0 .404 1.136Zm3.754.547a10.034 10.034 0 0 0-1.684-1.178 7.386 7.386 0 0 1 2.416.286 7.585 7.585 0 0 1 3.156 1.784c.354.337 1.145 1.027.934 1.591-.21.564-1.22.101-1.557 0a13.334 13.334 0 0 1-3.265-2.483Z" fill="#151921"/><path d="M51.71 156.175a4.215 4.215 0 0 1-1.506-.32 7.807 7.807 0 0 1-2.188-1.347c-.295-.235-.59-.505-.884-.774-1.069-.96-2.171-1.953-3.569-2.104a.843.843 0 0 1-.724-.573.915.915 0 0 1 .152-.841.839.839 0 0 1 .598-.598 9.197 9.197 0 0 1 8.618 2.096 4.368 4.368 0 0 1 1.406 2.028 1.938 1.938 0 0 1-.968 2.205c-.29.147-.61.225-.934.228Zm-5.79-6.481a8.578 8.578 0 0 0-2.205.337.393.393 0 0 0-.303.336v.068l-.05.042a.48.48 0 0 0 .04.689c.065.051.145.08.229.085 1.532.168 2.685 1.204 3.804 2.214.295.269.58.521.842.765a7.473 7.473 0 0 0 2.07 1.271 2.814 2.814 0 0 0 2.113.143 1.514 1.514 0 0 0 .732-1.725 3.903 3.903 0 0 0-1.28-1.826 8.894 8.894 0 0 0-5.992-2.399Zm5.774 5.218a3.3 3.3 0 0 1-1.17-.303 9.496 9.496 0 0 1-2.61-1.851c-.235-.219-.47-.43-.706-.632a9.484 9.484 0 0 0-1.683-1.153l-.69-.37h.782a7.885 7.885 0 0 1 5.723 2.129l.084.084c.43.404 1.145 1.078.91 1.734a.584.584 0 0 1-.312.32.832.832 0 0 1-.328.042Zm-5.277-3.905c.369.245.723.512 1.06.8.244.201.48.42.724.631a9 9 0 0 0 2.483 1.784c.362.207.78.293 1.195.244a.174.174 0 0 0 .084-.092c.143-.388-.471-.968-.8-1.28l-.084-.084a7.432 7.432 0 0 0-3.072-1.734 6.554 6.554 0 0 0-1.59-.269Z" fill="#151921"/><path d="M33.003 153.448c.53.572 1.43.421 2.113.32 3.181-.472 5.992-2.66 9.258-2.475a.64.64 0 1 0 .05-1.279h-.43a.643.643 0 0 0 0-.312c-.243-1.001-1.489-.909-2.297-.959a10.812 10.812 0 0 0-3.164.194 13.467 13.467 0 0 0-4.848 2.583c-.53.438-1.355 1.195-.682 1.928Zm1.986-.96a5.384 5.384 0 0 1-.521.068c.143-.118.302-.236.454-.346a20.277 20.277 0 0 1 2.525-1.506 6.73 6.73 0 0 1 2.727-.715c.47-.026.943-.026 1.414 0l.8.058h.403c-2.684.447-5.1 1.995-7.802 2.441Z" fill="#151921"/><path d="M34.151 154.07a1.683 1.683 0 0 1-1.296-.479 1.037 1.037 0 0 1-.303-.842 2.38 2.38 0 0 1 1.052-1.439 13.46 13.46 0 0 1 4.924-2.626 11.494 11.494 0 0 1 3.232-.194h.303c.841 0 1.927.068 2.18 1.103a.952.952 0 0 1 0 .151h.21a.85.85 0 0 1 .582.291.847.847 0 0 1 .2.618.84.84 0 0 1-.841.791c-1.84.026-3.653.454-5.31 1.255-1.264.55-2.585.956-3.94 1.211h-.067a6.054 6.054 0 0 1-.926.16Zm-.984-.765c.429.471 1.22.353 1.851.26h.068a17.774 17.774 0 0 0 3.837-1.186 12.862 12.862 0 0 1 5.496-1.288.372.372 0 0 0 .42-.396.4.4 0 0 0-.089-.318.401.401 0 0 0-.297-.144h-.732l.076-.27a.444.444 0 0 0 0-.21c-.16-.665-.842-.741-1.776-.775h-.32a10.864 10.864 0 0 0-3.106.186c-1.75.5-3.375 1.36-4.772 2.525-.21.159-.842.656-.892 1.136a.642.642 0 0 0 .202.488l.034-.008Zm.63-.472.54-.437c.15-.127.31-.245.47-.362a21.282 21.282 0 0 1 2.526-1.524 7.002 7.002 0 0 1 2.81-.732h1.432l.841.059h.48l.059.05-.135.135v.227a18.922 18.922 0 0 0-3.922 1.195 20.405 20.405 0 0 1-3.871 1.196c-.186 0-.362.05-.547.067l-.682.126Zm6.869-2.643h-.48c-.92.044-1.82.279-2.643.691a20.14 20.14 0 0 0-2.264 1.338c1.188-.275 2.35-.65 3.476-1.12.842-.319 1.683-.656 2.575-.9-.235-.009-.462-.009-.664-.009Z" fill="#151921"/><path d="M38.368 152.732a37.513 37.513 0 0 1 7.71.573c-.16.058-.337.109-.497.176-.427.158-.84.35-1.237.573-.107.06-.206.134-.295.218a37.213 37.213 0 0 0-5.732-.26c-.824.025-.765-1.255.05-1.28Z" fill="#151921"/><path d="M44.125 154.491h-.1a36.778 36.778 0 0 0-5.699-.26.743.743 0 0 1-.552-.217.738.738 0 0 1-.222-.549.843.843 0 0 1 .842-.935 37.64 37.64 0 0 1 7.751.573l.766.143-.732.261-.219.084-.278.092a9.452 9.452 0 0 0-1.212.556c-.089.054-.171.119-.244.194l-.1.058Zm-4.595-.707a35.625 35.625 0 0 1 4.452.27c.078-.07.163-.132.253-.185a8.48 8.48 0 0 1 1.026-.489 36.897 36.897 0 0 0-6.884-.437.466.466 0 0 0-.418.321.46.46 0 0 0-.02.184.335.335 0 0 0 .354.353l1.237-.017ZM34.584 155.459a54.781 54.781 0 0 1 4.528-.278c1.515-.025 2.946.127 4.41.042a.64.64 0 0 1 .614.665.655.655 0 0 1-.664.606c-1.414.084-2.837-.059-4.209-.042a48.77 48.77 0 0 0-4.36.253.632.632 0 0 1-.497-.067.649.649 0 0 1-.296-.407.64.64 0 0 1 .508-.772h-.034Z" fill="#151921"/><path d="M34.77 156.924a.843.843 0 0 1-.69-1.355.726.726 0 0 1 .514-.32 54.201 54.201 0 0 1 4.536-.278h1.902c.842 0 1.684.059 2.525 0a.792.792 0 0 1 .556.219.935.935 0 0 1 .278.665.842.842 0 0 1-.842.841c-.842.051-1.683 0-2.525 0-.58 0-1.178-.042-1.767 0-1.456 0-2.913.101-4.335.253l-.151-.025Zm4.68-1.541h-.337c-1.43 0-2.945.118-4.502.278a.284.284 0 0 0-.21.143.458.458 0 0 0-.085.362.435.435 0 0 0 .366.331.439.439 0 0 0 .173-.011 50.171 50.171 0 0 1 4.368-.253h1.793c.813.043 1.627.043 2.44 0a.443.443 0 0 0 .472-.404.514.514 0 0 0-.152-.345.27.27 0 0 0-.236-.101c-.841.042-1.683 0-2.524 0-.53.017-1.052 0-1.566 0Z" fill="#151921"/><path d="M34.463 155.526c1.566-1.111 4.065-2.962 6.212-4.368.21.051.429.051.64 0a8.02 8.02 0 0 0 1.615-.555c.296-.129.578-.287.842-.472a.564.564 0 0 1-.244.842c-2.323 1.229-6.27 4.208-8.417 5.698a.642.642 0 0 1-.841-.244.653.653 0 0 1 .01-.724.64.64 0 0 1 .183-.177Z" fill="#151921"/><path d="M34.788 156.932a.718.718 0 0 1-.186 0 .921.921 0 0 1-.58-.413.838.838 0 0 1 .303-1.153l1.422-1.018c1.43-1.027 3.215-2.314 4.797-3.366l.076-.051h.084c.178.034.361.034.539 0a8.273 8.273 0 0 0 1.582-.547c.28-.127.548-.279.8-.455l.202-.143.11.219a.797.797 0 0 1 .065.619.787.787 0 0 1-.402.475 76.446 76.446 0 0 0-6.97 4.655l-1.43 1.026a.712.712 0 0 1-.412.152Zm-.22-1.237a.432.432 0 0 0-.305.476.429.429 0 0 0 .432.365.304.304 0 0 0 .26-.042l1.432-1.027a74.2 74.2 0 0 1 7.019-4.679.344.344 0 0 0 .202-.286 4.325 4.325 0 0 1-.614.328 9.087 9.087 0 0 1-1.684.572 1.762 1.762 0 0 1-.63 0c-1.558 1.019-3.309 2.273-4.714 3.291l-1.397 1.002ZM58.323 143.373c.059-.841 1.338-.841 1.279 0a242.62 242.62 0 0 1-1.464 14.796c-.102.842-1.39.8-1.28 0 .64-4.915 1.128-9.847 1.465-14.796Z" fill="#151921"/><path d="M57.417 158.994a.846.846 0 0 1-.505-.16.72.72 0 0 1-.27-.69c.64-4.898 1.137-9.872 1.473-14.788a.84.84 0 0 1 .463-.707.933.933 0 0 1 .901 0 .772.772 0 0 1 .328.707c-.328 4.932-.841 9.915-1.464 14.813a.839.839 0 0 1-.547.707.94.94 0 0 1-.379.118Zm1.574-15.991a.545.545 0 0 0-.227.059.38.38 0 0 0-.236.353c-.328 4.932-.842 9.915-1.465 14.813a.314.314 0 0 0 .101.303.486.486 0 0 0 .472 0 .433.433 0 0 0 .286-.37c.64-4.89 1.136-9.864 1.464-14.788a.317.317 0 0 0-.134-.328.473.473 0 0 0-.261-.076v.034ZM83.614 85.603c-6.918 2.256-14.973 1.978-20.2 7.676-.563.606.388 1.464.952.842 3.232-3.51 8.063-4.705 12.565-5.64 3.46-.715 7.045-1.397 10.226-2.937a12.32 12.32 0 0 1-3.543.06Z" fill="#151921"/><path d="M86.361 85.67a44.004 44.004 0 0 1-8.854 2.525l-.648.127c-4.637.96-9.435 2.188-12.683 5.706a.405.405 0 0 1-.598 0 .387.387 0 0 1-.042-.58c3.644-3.956 8.787-5.05 13.752-6.044 2.31-.442 4.59-1.03 6.826-1.759-.32 0-.64-.075-.951-.134-1.953.606-3.973 1.035-5.967 1.447-5.05 1.052-10.226 2.13-13.971 6.178a.842.842 0 0 0 .067 1.178.884.884 0 0 0 .597.244.84.84 0 0 0 .598-.278c3.156-3.425 7.886-4.629 12.456-5.58l.648-.126c3.485-.724 7.053-1.464 10.2-3.122-.471.102-.949.175-1.43.219Z" fill="#151921"/><path d="m95.898 80.898-.194.194a5.69 5.69 0 0 1 0 3.29c-.841 2.963-3.366 4.445-6.228 5.126-5.723 1.364-11.69.32-17.464 1.356a17.32 17.32 0 0 0-7.827 3.366c-.648.513.252 1.43.892.917 4.94-3.938 11.707-3.442 17.675-3.602 3.172-.084 6.53-.303 9.493-1.557a8.172 8.172 0 0 0 4.95-6.304 6.523 6.523 0 0 0-.54-3.694c-.244.303-.488.614-.757.909Z" fill="#151921"/><path d="m96.782 79.796-.286.379a6.38 6.38 0 0 1 .48 3.459 7.995 7.995 0 0 1-4.823 6.144c-2.988 1.27-6.43 1.456-9.418 1.54-.775 0-1.566 0-2.357.042-5.437.067-11.059.135-15.41 3.61a.447.447 0 0 1-.455.068.513.513 0 0 1-.311-.362.31.31 0 0 1 .143-.294 17.05 17.05 0 0 1 7.734-3.266 49.14 49.14 0 0 1 8.08-.547c3.153.072 6.303-.21 9.393-.842 3.434-.841 5.58-2.592 6.38-5.268a5.892 5.892 0 0 0-.05-3.519 4.317 4.317 0 0 1-.346.337 5.571 5.571 0 0 1 0 3.064c-.749 2.525-2.794 4.208-6.068 4.982-3.064.61-6.186.878-9.309.8a49.18 49.18 0 0 0-8.147.555 17.489 17.489 0 0 0-7.928 3.367.715.715 0 0 0-.286.69.925.925 0 0 0 .572.69.892.892 0 0 0 .842-.135c4.208-3.366 9.78-3.45 15.15-3.518.84 0 1.59 0 2.364-.042 3.03-.084 6.514-.277 9.57-1.574a8.417 8.417 0 0 0 5.05-6.472 6.817 6.817 0 0 0-.564-3.888ZM43.554 113.352a2.847 2.847 0 0 1-.404-.126l.294-.169a.644.644 0 0 0 .329-.547c-.37-3.484-.587-6.98-.648-10.486 0-.842-1.296-.842-1.28 0 .068 3.366.273 6.747.615 10.141l-.842.472a.649.649 0 0 0-.143 1.001c.204.205.433.384.682.53a4.85 4.85 0 0 0-.842 3.131 44.276 44.276 0 0 1-.176 5.69c-.102.841 1.186.841 1.279 0 .174-1.495.247-2.999.219-4.503 0-1.338-.32-3.198 1.077-3.964a.648.648 0 0 0-.16-1.17Z" fill="#151921"/><path d="M41.69 123.805a.833.833 0 0 1-.504-.16.73.73 0 0 1-.278-.698c.181-1.871.24-3.752.177-5.631a5.242 5.242 0 0 1 .782-3.105 3.904 3.904 0 0 1-.53-.438.84.84 0 0 1-.095-1.069.898.898 0 0 1 .28-.269l.707-.404a123.33 123.33 0 0 1-.597-10.016.79.79 0 0 1 .841-.841.837.837 0 0 1 .892.841c.068 3.485.287 7.003.648 10.462a.842.842 0 0 1-.32.673.84.84 0 0 1 .135 1.515c-1.11.606-1.043 2.012-.993 3.249v.53a33.205 33.205 0 0 1-.219 4.528.844.844 0 0 1-.53.707.882.882 0 0 1-.395.126Zm.767-22.194a.371.371 0 0 0-.404.396 119.5 119.5 0 0 0 .614 10.099v.135l-.951.547a.43.43 0 0 0-.101.665 3.5 3.5 0 0 0 .648.505l.202.126-.152.186a4.652 4.652 0 0 0-.841 2.996 44.366 44.366 0 0 1-.177 5.714.315.315 0 0 0 .11.312.486.486 0 0 0 .47 0 .43.43 0 0 0 .279-.37c.175-1.483.248-2.977.218-4.47v-.513c-.059-1.296-.126-2.904 1.212-3.644a.432.432 0 0 0 .194-.446.371.371 0 0 0-.278-.337 3.036 3.036 0 0 1-.438-.135l-.404-.16.674-.387a.448.448 0 0 0 .219-.345c-.362-3.467-.581-7.002-.648-10.495a.428.428 0 0 0-.447-.379Z" fill="#151921"/><path d="M84.339 121.036a1.126 1.126 0 0 1-.186-.589.842.842 0 0 1 0-.286c-4.746 2.18-10.166 2.356-15.267 2.617-5.799.295-11.614.303-17.413 0a52.008 52.008 0 0 1-9.477-1.144c-.06.421-.11.841-.16 1.262 5.597 1.296 11.48 1.33 17.186 1.364 5.887.102 11.774-.179 17.624-.842a28.023 28.023 0 0 0 7.962-2.096 1.482 1.482 0 0 1-.27-.286Z" fill="#151921"/><path d="M60.499 124.495h-1.507c-5.69 0-11.58-.059-17.237-1.372h-.185l.22-1.683.226.051a51.64 51.64 0 0 0 9.435 1.144c5.748.278 11.606.27 17.397 0h.707c4.915-.252 9.99-.505 14.476-2.567l.311-.134v.336a.724.724 0 0 0 0 .236 1.122 1.122 0 0 0 .362.766l.228.219-.287.126a27.884 27.884 0 0 1-8.02 2.121c-5.355.586-10.74.839-16.126.757Zm-18.466-1.733c5.563 1.254 11.354 1.279 16.96 1.312 5.878.102 11.756-.179 17.598-.841a27.9 27.9 0 0 0 7.642-1.961.512.512 0 0 1-.076-.126 1.368 1.368 0 0 1-.219-.674c-4.494 1.987-9.51 2.239-14.366 2.475l-.707.042c-5.8.294-11.665.303-17.44 0a52.995 52.995 0 0 1-9.257-1.103l-.135.876Z" fill="#151921"/><path d="M85.36 123.561a2.372 2.372 0 0 1-.362-1.237.839.839 0 0 0-.842-.842.755.755 0 0 0-.576.247.773.773 0 0 0-.198.595c.005.396.068.79.185 1.17-8.703 3.08-18.188 3.871-31.006 2.903a188.667 188.667 0 0 1-4.84-.429l-.639-.067a26.41 26.41 0 0 1-5.05-.733.701.701 0 0 0-.732.127.936.936 0 0 0-.278.841.837.837 0 0 0 .53.64c1.626.403 3.285.654 4.958.749h.126c1.54.16 2.98.295 4.393.412 3.156.27 5.984.43 8.652.48h2.062a76.647 76.647 0 0 0 14.594-1.288 50.263 50.263 0 0 0 8.585-2.365.912.912 0 0 0 .556-.572.79.79 0 0 0-.118-.631ZM65.323 94.02a24.988 24.988 0 0 0-9.628-6.321 4.789 4.789 0 0 1-.682-.11c-.2.047-.407.047-.606 0-.244-.059-.497-.1-.74-.151-.195.127-.401.237-.615.328l-.286.093c4.326 1.531 8.416 3.467 11.58 6.985.548.606 1.532-.21.977-.825Z" fill="#151921"/><path d="M65.485 93.885a24.971 24.971 0 0 0-9.258-6.186c-.41.026-.821-.01-1.22-.11h-.126c3.812 1.473 7.431 3.367 10.284 6.557a.346.346 0 0 1 .093.353.497.497 0 0 1-.37.32.396.396 0 0 1-.396-.135c-3.114-3.467-7.179-5.428-11.42-6.952a3.52 3.52 0 0 1-.666.177c4.385 1.54 8.61 3.493 11.783 7.036.142.163.34.266.556.287a.728.728 0 0 0 .235 0 .918.918 0 0 0 .682-.598.75.75 0 0 0-.177-.75Z" fill="#151921"/><path d="M65.02 93.817c-2.154-1.472-4.797-1.994-7.347-2.524l-.842-.177c-2.643-.539-5.344-1.002-7.962-1.448l-1.389-.236c-2.928-.496-6.051-1.052-9.148-1.767a38.713 38.713 0 0 1-4.36-1.212l-.194-.067c-1.17-.421-2.768-.993-3.198-2.18a1.203 1.203 0 0 1 .22-1.22c.127-.195.237-.4.327-.615.142-.425.177-.88.101-1.321-.02-.241-.02-.483 0-.724.043-.459.174-.905.387-1.313a1.683 1.683 0 0 1-.454-.463l-.513-.438-.312-.26c0 .067-.092.126-.134.202a5.42 5.42 0 0 0-.607 1.683c-.034.313-.034.63 0 .943.066.406.029.823-.109 1.211l-.126.202a2.72 2.72 0 0 0-.539 1.456c-.017.722.199 1.43.615 2.02.841 1.271 2.525 1.886 3.67 2.332a53.986 53.986 0 0 0 9.476 2.356l.53.101c1.785.329 3.61.64 5.378.943 1.633.278 3.258.555 4.89.842 2.23.412 4.065.79 5.782 1.186 1.785.312 3.498.951 5.05 1.886.132.096.291.149.455.151a.682.682 0 0 0 .311-.076.91.91 0 0 0 .505-.757.843.843 0 0 0-.463-.716Z" fill="#151921"/><path d="M60.678 92.841a1.27 1.27 0 0 1-.842-.387c.11 2.239.252 4.47.446 6.733.067.842 1.347.842 1.28 0-.186-2.13-.32-4.267-.43-6.405-.146.048-.3.068-.454.06Z" fill="#151921"/><path d="M60.964 99.987a.917.917 0 0 1-.412-.093.842.842 0 0 1-.497-.715 177.389 177.389 0 0 1-.446-6.734v-.547l.387.388a1.027 1.027 0 0 0 .716.328.841.841 0 0 0 .353-.068l.27-.1v.294c.11 2.256.252 4.351.42 6.397a.724.724 0 0 1-.294.69.892.892 0 0 1-.497.16Zm-.917-7.104c.11 2.138.253 4.208.42 6.254a.454.454 0 0 0 .262.378.505.505 0 0 0 .48 0 .32.32 0 0 0 .126-.303 201.686 201.686 0 0 1-.421-6.16 1.118 1.118 0 0 1-.236 0 1.338 1.338 0 0 1-.631-.169Z" fill="#151921"/><path d="M61.685 99.204a.69.69 0 0 0-.707-.43.84.84 0 0 0-.118-.184.749.749 0 0 0-.59-.244.622.622 0 0 0-.47.244 5.26 5.26 0 0 0-1.12 3.551 1.75 1.75 0 0 0 .421 1.229.961.961 0 0 0 1.237.034 2.6 2.6 0 0 0 .657-.842c.162-.27.305-.552.429-.841a3.235 3.235 0 0 0 .26-2.517ZM68.77 92.269c-.22.196-.504.306-.8.311a1.162 1.162 0 0 1-.496-.118c-.143 3.013-.21 6.026-.176 9.04a.64.64 0 0 0 1.279 0c-.034-3.064.042-6.178.194-9.233Z" fill="#151921"/><path d="M67.951 102.343a.84.84 0 0 1-.842-.841c0-2.887 0-5.892.177-9.048v-.32l.295.144c.12.06.252.093.387.092.244-.006.478-.095.665-.252l.379-.329v.497c-.16 3.181-.228 6.287-.203 9.258a.795.795 0 0 1-.51.793.81.81 0 0 1-.331.049l-.017-.043Zm-.27-9.544a163.68 163.68 0 0 0-.168 8.745.415.415 0 0 0 .276.399.427.427 0 0 0 .17.022.383.383 0 0 0 .38-.245.38.38 0 0 0 .025-.159c0-2.828.041-5.8.176-8.854a1.49 1.49 0 0 1-.555.126 1.762 1.762 0 0 1-.303-.034Z" fill="#151921"/><path d="M70.098 103.589a6.87 6.87 0 0 0-1.127-1.877.706.706 0 0 0-.564-.219.604.604 0 0 0-.438-.379.798.798 0 0 0-.631.11.602.602 0 0 0-.27.412 5.413 5.413 0 0 0 0 1.987c.118.646.376 1.258.758 1.792a1.56 1.56 0 0 0 1.086.598h.084c.317-.005.62-.135.842-.362a1.81 1.81 0 0 0 .26-2.062ZM59.712 127.382a.843.843 0 0 0-.893.842l-.286 8.239c-.214.059-.418.15-.606.27a1.481 1.481 0 0 0-.715 1.245 1.326 1.326 0 0 0 .698 1.221c.078.038.16.066.245.084a30.29 30.29 0 0 0-.472 3.88.786.786 0 0 0 .47.777.788.788 0 0 0 .313.065.841.841 0 0 0 .841-.842c.08-1.491.331-2.968.75-4.402a.917.917 0 0 0 .058-.707.842.842 0 0 0-.269-.362c.182-.218.285-.49.295-.774 0-.404 0-.842.05-1.212v-.589l.236-6.893a.844.844 0 0 0-.715-.842ZM43.72 126.86a.842.842 0 0 0-.379-.715.918.918 0 0 0-.909 0 .84.84 0 0 0-.412.698c-.067 3.88-.118 10.058.185 13.921a.9.9 0 0 0 .918.842h.067a.728.728 0 0 0 .699-.531.722.722 0 0 0 .016-.311c-.278-3.871-.185-10.041-.185-13.904Z" fill="#151921"/><path d="M48.818 128.603a.648.648 0 0 0-.842-.177 12.709 12.709 0 0 1-4.764 1.523.637.637 0 0 0-.439.22.647.647 0 0 0-.088.707.633.633 0 0 0 .371.321c.08.027.165.037.249.031a14.162 14.162 0 0 0 5.378-1.742.638.638 0 0 0 .135-.883Z" fill="#151921"/><path d="M43.194 131.439a.846.846 0 0 1-.513-.194.849.849 0 0 1 .471-1.506 12.524 12.524 0 0 0 4.68-1.499.84.84 0 0 1 1.286.578.897.897 0 0 1-.016.357.734.734 0 0 1-.361.496 14.155 14.155 0 0 1-5.463 1.759l-.084.009Zm5.109-2.904a.602.602 0 0 0-.27.067 12.805 12.805 0 0 1-4.839 1.557.439.439 0 0 0-.404.455c.012.118.07.227.16.303.08.067.182.103.286.101 1.86-.2 3.66-.773 5.294-1.683a.38.38 0 0 0 .169-.236.464.464 0 0 0-.06-.354.38.38 0 0 0-.336-.21ZM68.562 138.837a1.359 1.359 0 0 0 .396-1.162 25.615 25.615 0 0 0-.27-1.607c-.1-.53-.151-.842-.219-1.254-.286-1.852-.774-4.974-.95-6.927a.727.727 0 0 0-.304-.505.915.915 0 0 0-.715-.168.84.84 0 0 0-.656.984c.16 1.684.614 4.629.841 6.287.126.842.261 1.684.404 2.525.042.219.076.446.126.699v.059l-.79.623-.093.075a.844.844 0 0 0-.295.648.767.767 0 0 0 .236.581c.187.169.408.295.648.371l.235 3.105a.78.78 0 0 0 .312.547.842.842 0 0 0 .454.194c.073.008.147.008.22 0a.84.84 0 0 0 .706-.951l-.286-4.124ZM82.784 129.326a8.598 8.598 0 0 1-1.002-.328 7.325 7.325 0 0 1-.892-.412 9.685 9.685 0 0 1-.892-.539c-.143-.101-.286-.202-.42-.311l-.068-.051-.067-.05-.22-.194a.658.658 0 0 0-.908 0 .647.647 0 0 0 0 .901 10.345 10.345 0 0 0 4.115 2.222.646.646 0 0 0 .516-.036.649.649 0 0 0 .326-.402.658.658 0 0 0-.488-.8Z" fill="#151921"/><path d="M82.595 130.791a.67.67 0 0 1-.22 0 10.74 10.74 0 0 1-4.207-2.264.742.742 0 0 1-.244-.539.9.9 0 0 1 .244-.673.848.848 0 0 1 .597-.249.846.846 0 0 1 .598.249l.219.193.067.059.067.051c.13.105.265.203.404.294.27.194.551.371.842.53.27.155.552.29.841.404.32.126.645.233.977.32a.846.846 0 0 1 .615.714.84.84 0 0 1-.026.33.837.837 0 0 1-.379.496.846.846 0 0 1-.395.085Zm-3.855-3.325a.364.364 0 0 0-.27.11.51.51 0 0 0-.126.361.296.296 0 0 0 .101.236 10.183 10.183 0 0 0 4.04 2.18.48.48 0 0 0 .354-.051.345.345 0 0 0 .177-.235.446.446 0 0 0-.287-.539c-.345-.09-.685-.2-1.018-.328a8.024 8.024 0 0 1-.909-.429 9.135 9.135 0 0 1-.918-.556l-.437-.311-.362-.303a.52.52 0 0 0-.345-.135Z" fill="#151921"/><path d="M37.447 120.497a68.978 68.978 0 0 1-15.991-2.23.845.845 0 0 0-1.035.589.843.843 0 0 0 .589 1.035 70.558 70.558 0 0 0 16.403 2.29.843.843 0 0 0 .034-1.684Z" fill="#2677C7"/><path d="M42.877 102.899a.883.883 0 0 0-1.187.479c-1.044 2.576-4.78 13.744-4.823 20.966a.838.838 0 0 0 .396.723.96.96 0 0 0 .463.118.834.834 0 0 0 .446-.118.776.776 0 0 0 .395-.698c.042-6.952 3.72-17.944 4.739-20.477a.736.736 0 0 0-.17-.838.733.733 0 0 0-.26-.155ZM35.889 88.296a.841.841 0 0 0 .193-.379c-.548-.09-1.09-.214-1.624-.37l-.11-.059c-8.138 9.258-12.17 21.883-14.055 30.956a.942.942 0 0 0 .665 1.052l.74.21a1.47 1.47 0 0 1 .152-.757c.144-.268.26-.55.345-.842 2.777-12.759 7.381-22.783 13.694-29.81Z" fill="#151921"/><path d="M37.535 123.62a7.443 7.443 0 0 1-3.838.547 156.286 156.286 0 0 1-4.427-.252c-1.473-.11-2.937-.244-4.385-.472a44.038 44.038 0 0 1-2.113-.395 15.384 15.384 0 0 1-1.683-.379c0-.168.076-.337.118-.505l.345-1.515c.219-.959.438-1.91.665-2.861.227-.951-1.38-1.507-1.624-.446-.244 1.06-.547 2.356-.842 3.526-.168.732-.766 2.028-.328 2.744.437.715 1.986.841 2.752 1.027 1.094.244 2.197.429 3.308.572 2.247.303 4.51.454 6.733.564 2.087.109 4.208.303 6.135-.699.993-.505.143-1.978-.816-1.456ZM84.038 123.94a1.344 1.344 0 0 1 1.094-.253 37.02 37.02 0 0 1-.26-5.117c.041-.538.193-1.069-.245-1.498a.972.972 0 0 0-.656-.252 9.11 9.11 0 0 0 .227-1.945c0-1.422.05-2.853.084-4.284.05-2.794.101-5.58.16-8.374a.842.842 0 0 0-1.683 0l-.152 7.575c0 1.22-.042 2.449-.067 3.669-.025 1.221.126 2.525-.362 3.535a.85.85 0 0 0-.088.64.839.839 0 0 0 .391.513c.173.109.364.186.564.228h.093c-.037.509.008 1.02.134 1.515.152.774.253 2.726.387 4.511.09-.181.22-.34.379-.463Z" fill="#151921"/><path d="M84.53 124.891c.06-1.086-1.624-1.086-1.683 0a220.77 220.77 0 0 0-.286 16.58.84.84 0 1 0 1.683 0 215.273 215.273 0 0 1 .287-16.58ZM42.443 122.021a.844.844 0 0 0-1.187 0 .984.984 0 0 0-.252.597l-.379 3.257a.844.844 0 0 0 1.166.776.86.86 0 0 0 .273-.186.937.937 0 0 0 .244-.59l.379-3.257a.842.842 0 0 0-.244-.597Z" fill="#151921"/><path d="M106.931 43.075a28.68 28.68 0 0 0-8.677-9.258 26.282 26.282 0 0 0-3.762-2.12c0-.076.092-.144.134-.228.13-.229.202-.486.21-.75a1.01 1.01 0 0 1-.058-.462 1.683 1.683 0 0 0-1.195-1.246 154.09 154.09 0 0 0-29.028-4.83l.446-.337h-.539a33.66 33.66 0 0 0-4.94.463l-.346.059a32.705 32.705 0 0 0-3.366-.202 1.128 1.128 0 0 0-1.044.606 8.647 8.647 0 0 1-2.247-.346c0 .144-.1.278-.134.413-.91-.682-2.601-.194-3.754-.387a17.675 17.675 0 0 0-9.494 1.094 34.127 34.127 0 0 0-8.837 4.52 1.684 1.684 0 0 1 .067 1.683c-.059.11-.118.21-.185.311a1.683 1.683 0 0 1-.749 1.532c-.345.244-.69.488-1.027.74l-.471.354-.143.118-.143.118a21.204 21.204 0 0 0-1.684 1.548 19.407 19.407 0 0 0-1.54 1.776l-.151.21-.362.548c-.219.336-.43.69-.623 1.035a1.59 1.59 0 0 1-1.852.724 34.36 34.36 0 0 0-2.592 4.57c-1.986 4.317-2.962 9.258-1.986 13.912.203-.052.414-.066.623-.042a1.549 1.549 0 0 1 1.388 1.523c0 .648 0 1.288.093 1.928a1.684 1.684 0 0 0 1.532-.733 26.932 26.932 0 0 0 4.957 11.287 27.951 27.951 0 0 0 15.284 10.1c3.62 2.432 8.03 3.223 12.364 3.585h.42a37.713 37.713 0 0 0 15.706 1.683 77.427 77.427 0 0 0 8.467-1.229 22.663 22.663 0 0 0 4.797-1.439c2.07.564 4.688-.278 6.523-.985 5.571-2.12 9.88-6.396 12.995-11.387.117-.194.227-.404.345-.606a1.573 1.573 0 0 0 2.112-.673 32.14 32.14 0 0 0 2.163-27.059 1.875 1.875 0 0 0 .303-2.12Z" fill="#FFBF24"/><path d="M96.92 53.023a15.99 15.99 0 0 0-3.822-7.751 22.33 22.33 0 0 0-.597-.665c.698.505 1.683.648 1.094-.194-3.367-5.05-9.073-8.93-15.082-8.955l-.312-.092a.791.791 0 0 0-.63.1c-.903.043-1.8.153-2.686.329a.838.838 0 0 0-.21.093c-4.814-.943-9.847-.842-14.308 1.456a1.187 1.187 0 0 0-.294-.194 21.285 21.285 0 0 0-16.968-.413 29.547 29.547 0 0 0-7.474 4.31c-2.188 1.683-4.469 3.72-5.69 6.43-1.32 2.946-1.135 6.253-.395 9.35a18.979 18.979 0 0 0 4.015 8.14c3.972 4.544 8.416 8.458 13.811 10.04 11.236 3.29 25.443 3.307 36.283-2.18a26.68 26.68 0 0 0 11.43-10.815 14.367 14.367 0 0 0 1.835-8.989Z" fill="#FCFA9C"/><path d="M107.855 45.667a52.429 52.429 0 0 0-.934-1.683 1.71 1.71 0 0 0 0-.505l-.177-.37a1.59 1.59 0 0 1-.126-.354 25.132 25.132 0 0 0-5.261-6.455c-.32-.345-.648-.682-.968-1.019a23.269 23.269 0 0 0-4.098-2.81 1.28 1.28 0 0 1-.539-.54 3.366 3.366 0 0 1-.842-1.093 1.002 1.002 0 0 1-.084-.505c-.151-.101-.286-.22-.437-.329a1.314 1.314 0 0 0-.447-2.095c-6.733-4.04-14.737-3.964-22.345-4.124 0 0-.076-.674-.084-.674a1.759 1.759 0 0 1-.253.093c-.21.059-.42.1-.64.151-1.17.766-1.514 1.465.278 1.507 4.79.1 10.445 1.843 15.091 3.097l.278.135a1.684 1.684 0 0 0 .177 2.786c2.945 1.498 7.078 2.802 12.624 7.945.253.202.497.42.75.63l.15.144a1.684 1.684 0 0 0-.706 2.828 31.689 31.689 0 0 1 3.434 3.947 1.193 1.193 0 0 0-1.004 1.045c-.02.173-.002.347.052.512.43 1.212.842 2.475 1.221 3.77 1.262 4.874 1.548 10.286.076 15.15a1.181 1.181 0 0 0-1.75-.03 1.181 1.181 0 0 0-.296.577 22.765 22.765 0 0 1-2.828 6.439c-2.996 4.376-9.914 11.463-15.25 12.111-.564.067-.32.312 1.683.16.973-.08 1.938-.232 2.887-.455.194-.058.396-.117.59-.193.389-.153.766-.336 1.127-.547.909-.497 1.784-1.069 2.668-1.6.884-.53 1.885-1.01 2.803-1.565a26.249 26.249 0 0 0 2.718-1.902c.195-.158.44-.244.69-.244a21.152 21.152 0 0 0 2.147-2.668.946.946 0 0 1 0-.168c.102-.25.238-.485.404-.699.145-.194.302-.38.471-.555.225-.242.466-.467.724-.674.24-.188.507-.34.791-.454a1 1 0 0 1 .698 0 17.664 17.664 0 0 0 2.879-5.715c1.271-2.163 1.565-4.915 1.742-7.398.337-.108.632-.32.842-.606a36.308 36.308 0 0 0-.194-4.157c-.295-2.618-1.136-5.143-1.557-7.735a1.625 1.625 0 0 1 1.069-1.961h.193c-.101-.295-.202-.59-.311-.884l-.126-.26Z" fill="#FCFA9C"/><path d="M91.515 41.77a16.891 16.891 0 0 0-6.48-3.997 16.688 16.688 0 0 0-7.028-2.643 57.111 57.111 0 0 0-8.046.16c-2.593.19-5.145.757-7.575 1.683-1.532.514-2.769 2.904-1.22 2.39a46.844 46.844 0 0 1 14.072-1.843 18.726 18.726 0 0 1 11.337 3.94 14.797 14.797 0 0 1 5.639 8.862c.643 2.564.85 5.219.614 7.852-.841 3.535-3.13 8.644-5.891 10.807-2.76 2.163-7.087 5.05-8.265 5.521-1.49.58 3.712-.96 5.31-1.397a17.673 17.673 0 0 0 5.05-2.811c1.962-1.263 3.519-3.83 4.655-5.892 1.001-1.826 2.676-3.796 2.853-5.95 1.304-5.799-.859-12.263-5.025-16.681Z" fill="#fff"/><path d="M61.676 37.512c-8.088-3.838-18.449-2.483-25.679 2.962-1.952 1.473-3.5 2.753-4.52 4.966a23.96 23.96 0 0 0-2.17 6.969c-.556 4.545 1.388 9.174 3.93 12.869a19.871 19.871 0 0 0 10.638 8.088c1.22.353 2.28-.539 1.17-1.094-6.733-3.325-12.271-11.876-12.625-16.379-.303-4.258 2.466-14.45 14.897-17.262a20.318 20.318 0 0 1 13.096 1.078c1.482.698 2.727-1.498 1.263-2.197Z" fill="#fff"/><path d="M122.733 31.604a58.107 58.107 0 0 0-1.085-3.552 56.243 56.243 0 0 0-2.189-3.426 41.037 41.037 0 0 0-2.92-3.88 18.522 18.522 0 0 1-2.432-2.945 2.25 2.25 0 0 0-2.441.79 4.583 4.583 0 0 0-.673 2.947c.019 1.324.149 2.644.387 3.947.202 1.28.463 2.525.597 3.838.101 1.026.312 2.289-.463 3.105l-.117.101c.101.182.142.391.117.598a2.254 2.254 0 0 1-1.868 1.96.84.84 0 0 1-.488-.075 15.504 15.504 0 0 1-4.436 2.163c-.665-.623-1.893.185-1.313 1.019a30.716 30.716 0 0 1 2.761 4.721c.025.063.053.125.084.185a1.68 1.68 0 0 0-.298 1.349 1.688 1.688 0 0 0 .812 1.117c.27.123.496.326.648.581a1.587 1.587 0 0 1-.371 1.725.841.841 0 0 0-.37.951c.505 1.297 1.734 1.372 2.904.994a76.856 76.856 0 0 0 4.317-1.515c.934-.354 1.86-.733 2.769-1.137a23.1 23.1 0 0 0 5.26-2.727c2.105-1.498 2.567-3.45 2.222-5.891a51.802 51.802 0 0 0-1.414-6.943ZM21.677 38.783a27.264 27.264 0 0 0-3.956-.631 4.031 4.031 0 0 1-1.919-.69 3.618 3.618 0 0 1-1.372-1.154 5.664 5.664 0 0 1-.749-3.055c-.05-3.215.261-6.422-.076-9.62a1.398 1.398 0 0 1 .623-1.262 1.986 1.986 0 0 0-2.525-1.178 6.733 6.733 0 0 0-2.853 1.902 18.59 18.59 0 0 0-2.399 2.802C3.7 29.76 3.085 33.741 1.848 38.261c-.69 2.592-1.81 6.144 0 8.357 1.64 1.953 4.393 3.106 6.69 4.057a36.949 36.949 0 0 0 4.588 1.59c1.498.413 3.013.472 3.77-1.144 1.372-2.954 2.424-6.11 3.594-9.157l.286.076c2.13.656 2.963-2.6.9-3.257Z" fill="#5EDC10"/><path d="m43.314 3.341-.235.278a1.229 1.229 0 0 0-1.01-.202 12.16 12.16 0 0 0-2.424.774c-1.11.31-2.184.734-3.207 1.263-1.683.842-4.015 1.902-4.898 3.686a7.44 7.44 0 0 0-.564 2.904 114.518 114.518 0 0 0-.16 3.754v3.282a.883.883 0 0 0-.522.707 37.31 37.31 0 0 0 .253 9.78.842.842 0 0 0 1.245.48 47.387 47.387 0 0 1 8.829-4.318.841.841 0 0 0 .606-.842 269.66 269.66 0 0 1-.345-3.105c.05-1.035.093-2.08.143-3.123.219-4.435.598-8.98 2.702-12.978.054-.103.093-.214.117-.328.228-.295.455-.59.716-.842.69-.808-.514-1.978-1.246-1.17Z" fill="#252B36"/><path d="M90.973 6.607c-2.28-2.374-6.16-2.18-9.165-2.214-3.973 0-7.954 0-11.927.202a28.018 28.018 0 0 0-9.258 1.75 9.57 9.57 0 0 0-5.655 1.92c-1.945 1.59-2.862 4.073-3.763 6.346a53.988 53.988 0 0 0-2.524 8.13.791.791 0 0 0 .311.842c-.286 1.363 1.683 1.944 2.323.841a249.021 249.021 0 0 1 23.153.489c1.928.134 3.864.286 5.79.462 1.625.152 3.51.615 5.05-.126 1.54-.74 2.138-2.382 2.812-3.745a42.803 42.803 0 0 0 2.096-5.05 39.172 39.172 0 0 0 1.422-5.353c.387-1.624.589-3.206-.665-4.494Z" fill="#343A46"/><path d="M67.598 49.564a1.568 1.568 0 0 0-.235-.345 2.854 2.854 0 0 0-1.153-.598 5.05 5.05 0 0 0-2.374-.134 4.715 4.715 0 0 0-1.498.547l-.842-.185a1.264 1.264 0 0 0-.715 2.424c2.141.55 4.345.82 6.556.8a1.27 1.27 0 0 0 1.28-1.238 1.297 1.297 0 0 0-1.019-1.271Z" fill="#fff"/><path d="M69.527 1.06a219.4 219.4 0 0 0-22.615 2.408.9.9 0 0 0-1.279.202c-1.59 2.289-1.936 5.05-2.331 7.751C42.83 14.645 41.82 17.767 41.4 21c-.1.712-.162 1.428-.186 2.146a6.11 6.11 0 0 0 .127 2.146c.513 1.322 2.146.421 3.063.118l2.264-.732a4.1 4.1 0 0 0 1.86-.842c.338-.5.536-1.08.573-1.683.151-.842.32-1.683.488-2.474a32.343 32.343 0 0 1 2.937-8.93 8.416 8.416 0 0 1 2.895-3.232 13.467 13.467 0 0 1 4.368-1.414c3.291-.648 6.658-.842 9.94-1.44 1.06-.21 2.096-.84 2.087-2.061-.008-1.22-1.161-1.641-2.289-1.54Z" fill="#89A1AE"/><path d="M53.694 87.345c-6.607-.8-13.189-4.645-18.39-9.123-4.511-3.855-7.482-9.19-9.36-14.754a1.615 1.615 0 0 0-2.802-.598 24.407 24.407 0 0 1 .842-10.739c.294-.934-1.044-2.163-1.953-2.331.842-2.062 1.406-3.628 2.357-5.572 1.927-3.947 3.779-7.962 7.406-10.554 1.76-1.245.648-2.525-1.128-1.245-4.023 2.87-6.026 5.546-8.206 9.93-1.119 2.265-2.272 3.174-3.223 5.514a41.786 41.786 0 0 0-2.171 9.258 1.742 1.742 0 0 0 1.212 2.053c.425.099.872.036 1.254-.177a27.581 27.581 0 0 0 3.551 13.812 1.684 1.684 0 0 0 2.113.656 1.607 1.607 0 0 0 .96-1.346 31.309 31.309 0 0 0 6.817 8.5 25.839 25.839 0 0 0 8.946 4.966 59.091 59.091 0 0 0 11.06 2.096c.9.1 3.02 1.405 3.273.437.228-.783-1.65-.673-2.558-.783Z" fill="#FFBF24"/><path d="M31.468 31.957c-6.388 4.284-9.814 11.345-11.783 18.558-.438 1.566 2.003 2.197 2.44.631 1.827-6.548 4.866-13.13 10.69-17.035 1.304-.9.008-3.063-1.347-2.154Z" fill="#FFBF24"/><path d="M51.62 24.441c-7.12.421-14.754 1.094-20.2 6.262-1.178 1.128.64 2.878 1.819 1.759 4.898-4.663 12.624-6.573 19.012-6.952 1.625-.093 1.002-1.161-.63-1.069Z" fill="#FFBF24"/><path d="M50.23 45.297a1.816 1.816 0 0 0-1.17-1.128 1.43 1.43 0 0 0-1.489.48 5.126 5.126 0 0 0-.942 2.861 3.658 3.658 0 0 0 0 .43 4.822 4.822 0 0 0 .176 2.567 1.53 1.53 0 0 0 1.288 1.102 1.548 1.548 0 0 0 1.288-.715c.275-.414.49-.864.64-1.338a7.17 7.17 0 0 0 .361-1.372 5.782 5.782 0 0 0-.151-2.887ZM80.083 44.64a1.835 1.835 0 0 0-1.17-1.127 1.448 1.448 0 0 0-1.531.471 5.176 5.176 0 0 0-.935 2.862 3.658 3.658 0 0 0 0 .429 4.713 4.713 0 0 0 .177 2.525 1.389 1.389 0 0 0 2.576.387c.274-.41.49-.858.64-1.33.165-.444.286-.904.361-1.372a5.782 5.782 0 0 0-.118-2.844ZM123.624 32.639a39.019 39.019 0 0 0-6.599-12.7c-1.153-1.398-2.988-3.637-5.05-2.467s-1.531 4.082-1.363 6.094c.126 1.49.219 2.97.295 4.46 0 .842.075 1.616.101 2.433.071.744.071 1.494 0 2.239-.228 1.33-2.281 1.944-3.367 2.365a43.282 43.282 0 0 1-6.102 1.8c.194.228.396.447.589.682.198.187.343.422.421.682l.076.101a41.169 41.169 0 0 0 6.893-2.256 7.804 7.804 0 0 0 2.365-1.43 3.454 3.454 0 0 0 .841-2.6c0-2.433-.159-4.874-.345-7.298-.084-1.17-.227-2.34-.303-3.51-.075-1.17.337-3.147 1.902-2.045 1.751 1.22 3.106 3.476 4.209 5.277a39.307 39.307 0 0 1 2.861 5.934c.853 2.12 1.545 4.3 2.071 6.523.513 2.322.917 4.864-1.019 6.623-1.935 1.76-4.427 2.702-6.665 3.645a50.659 50.659 0 0 1-7.718 2.524c-1.052.253-.581 1.869.471 1.616a50.66 50.66 0 0 0 7.718-2.525 33.429 33.429 0 0 0 6.371-3.257 6.283 6.283 0 0 0 2.963-5.378 24.98 24.98 0 0 0-1.616-7.532ZM22.611 38.8a20.844 20.844 0 0 1-4.52-1.044c-1.11-.387-3.181-.934-3.45-2.256a11.037 11.037 0 0 1-.042-2.238v-2.433c0-1.49.067-2.98.143-4.46.11-2.029.63-4.899-1.566-6.052-2.197-1.153-3.854 1.195-4.957 2.634a38.993 38.993 0 0 0-6.17 12.911 25.148 25.148 0 0 0-1.346 7.575 6.27 6.27 0 0 0 3.14 5.277 32.917 32.917 0 0 0 6.472 3.038 50.324 50.324 0 0 0 6.792 2.02 2.13 2.13 0 0 1 0-.513c.067-.387.151-.774.244-1.153a49.48 49.48 0 0 1-6.65-1.986c-2.272-.842-4.914-1.818-6.783-3.409-1.868-1.59-1.683-4.25-1.237-6.59a44.766 44.766 0 0 1 1.843-6.59 40.456 40.456 0 0 1 2.66-6.026c1.018-1.835 2.297-4.133 4.006-5.42 1.532-1.145 2.003.841 1.97 1.986-.034 1.144-.135 2.348-.186 3.518-.1 2.432-.168 4.873-.1 7.305a3.493 3.493 0 0 0 .9 2.576 8.011 8.011 0 0 0 2.415 1.346c2.044.862 4.201 1.43 6.405 1.684 1.12.117 1.077-1.566.017-1.7ZM69.036 50.12a5.05 5.05 0 0 0-3.98-2.752c-1.86-.21-3.578.841-5.05 1.767a.847.847 0 0 0 .841 1.473c1.195-.766 2.525-1.683 3.998-1.574a3.367 3.367 0 0 1 2.777 1.902c.421.976 1.894.152 1.414-.816Z" fill="#151921"/><path d="M85.513 36.956c-1.026-.42-1.902 1.06-.841 1.482 7.179 2.903 12.044 10.007 11.564 17.581a18.062 18.062 0 0 1-4.318 10.555c-2.81 3.257-6.733 5.251-10.848 6.547a61.313 61.313 0 0 1-28.288 1.844c-8.366-1.465-16.63-5.37-20.662-12.962a15.808 15.808 0 0 1-1.161-12.464 16.917 16.917 0 0 1 3.03-5.412 19.19 19.19 0 0 1 5.31-4.477c.985-.54.076-1.987-.909-1.448a20.201 20.201 0 0 0-5.891 5.05 17.614 17.614 0 0 0-3.443 15.764c2.458 8.71 10.639 14.358 19.274 16.69 9.88 2.667 20.847 2.246 30.711-.261 4.495-1.145 8.964-2.887 12.431-5.968a19.845 19.845 0 0 0 6.11-10.562c1.928-9.04-3.265-18.399-12.069-21.959Z" fill="#151921"/><path d="M85.525 36.94c-7.887-3.173-16.555-2.525-24.602-.286a.85.85 0 1 0 .48 1.632c7.575-2.079 15.84-2.853 23.246.135 1.036.412 1.92-1.06.876-1.481ZM55.939 23.574c-8.736-.968-20.637 2.062-27.32 7.785a.841.841 0 0 0 .185 1.297 23.562 23.562 0 0 0-3.947 3.66 39.554 39.554 0 0 0-5.21 7.432 31.731 31.731 0 0 0-3.14 8.417 25.862 25.862 0 0 0-.538 4.553c-.05 1.33-.219 3.097.64 4.208a.842.842 0 0 0 1.447-.075l.253-.522A21.344 21.344 0 0 0 24.52 74.88c.766.766 1.894-.489 1.128-1.254a19.55 19.55 0 0 1-5.243-17.818.842.842 0 0 0-1.574-.572l-1.28 2.727c0-.733.093-1.473.127-2.012.093-1.375.302-2.74.623-4.082a30.096 30.096 0 0 1 3.004-7.65 37.486 37.486 0 0 1 4.806-6.784c1.852-2.096 3.922-4.09 6.657-4.923 1.052-.32.514-1.852-.522-1.6l-.504.102c5.891-4.285 16.555-6.607 23.835-5.808 1.06.126 1.439-1.515.362-1.633Z" fill="#151921"/><path d="M55.5 87.202c-12.373-1.355-26.15-6.405-30.906-19.046-.379-1.01-1.978-.488-1.599.53A28.515 28.515 0 0 0 34.98 82.65c6.06 3.728 13.146 5.428 20.149 6.203 1.044.118 1.422-1.532.37-1.65ZM64.97 24.98c4.992-.126 13.905.042 18.82.943 3.577.648 7.38 1.456 10.318 3.678h-.059c-.572 0-.9.64-.757 1.11.496 1.684 2.634 2.425 3.964 3.367a28.797 28.797 0 0 1 7.911 8.61c.524.877.999 1.781 1.423 2.71.076.177.665 1.22.564 1.355-.101.135-.842-.303-.935-.37-.841-.48-1.422.53-1.094 1.203a25.162 25.162 0 0 1-2.903 26.47c.217.746.313 1.521.286 2.298a26.937 26.937 0 0 0 4.797-27.926c.186-.008.37-.042.547-.1a1.684 1.684 0 0 0 .901-2.097 22.457 22.457 0 0 0-3.434-6.388 30.477 30.477 0 0 0-4.755-5.277 31.106 31.106 0 0 0-2.761-2.146c-.555-.379-1.515-.791-2.188-1.321.27-.087.534-.191.79-.312a.841.841 0 0 0 .102-1.33c-3.148-3.198-7.684-4.3-11.951-5.108-5.185-.977-14.392-1.187-19.67-1.052a.843.843 0 1 0 .085 1.683Z" fill="#151921"/><path d="M82.433 44.64a9.199 9.199 0 0 0-4.823-2.129.842.842 0 0 0-.968.699v.092a.842.842 0 0 0 .446.96 14.225 14.225 0 0 0 4.671 1.86.842.842 0 0 0 .674-1.481ZM44.924 44.64a9.199 9.199 0 0 1 4.822-2.129.842.842 0 0 1 .968.699v.092a.842.842 0 0 1-.446.96 14.105 14.105 0 0 1-4.662 1.86.842.842 0 0 1-.9-.48.842.842 0 0 1 .218-1.002ZM61.267 19.375a.841.841 0 0 0-1.144.32 12.625 12.625 0 0 1-5.572 4.393.841.841 0 0 0-.572 1.043.841.841 0 0 0 1.044.564 14.408 14.408 0 0 0 6.573-5.176.844.844 0 0 0-.328-1.144ZM65.763 19.576a.842.842 0 0 0-1.187 0 16.833 16.833 0 0 1-6.371 5 .842.842 0 0 0 .875 1.44 17.75 17.75 0 0 0 6.733-5.27.842.842 0 0 0-.05-1.17ZM68.441 21.344a.84.84 0 0 0-1.195 0c-.245.251-.504.49-.774.715l-.118.101h-.042l-.093.076-.454.328c-.295.194-.59.379-.9.556-.152.084-.303.168-.463.244l-.228.11-.134.058a.91.91 0 0 0-.48.387.892.892 0 0 0-.076.657.841.841 0 0 0 1.044.564 12.432 12.432 0 0 0 3.98-2.694.842.842 0 0 0-.067-1.102Z" fill="#151921"/><path d="M90.851 5.05c-2.18-.985-4.974-1.052-7.322-1.204a97.378 97.378 0 0 0-15.899.337 67.529 67.529 0 0 0-7.675 1.145 11.631 11.631 0 0 0-5.892 2.844c-1.759 1.768-2.803 4.166-3.77 6.414a87.19 87.19 0 0 0-3.098 9.855h.22l.63.101c.28.03.56.045.842.042 1.145-4.208 2.769-9.965 5.05-13.542a8.417 8.417 0 0 1 4.772-3.678c2.14-.6 4.328-1.016 6.54-1.245 4.697-.585 9.43-.838 14.164-.758a62.2 62.2 0 0 1 7.196.43c1.093.094 2.173.3 3.224.614 1.304.471 1.633 1.422 1.43 2.727a40.703 40.703 0 0 1-1.969 7.028 74.5 74.5 0 0 1-3.585 8.34c-.497.96.942 1.835 1.439.842a63.252 63.252 0 0 0 5.664-15.427c.354-1.962.067-3.94-1.96-4.865Z" fill="#151921"/><path d="M72.023.455a2.828 2.828 0 0 0-1.608-.421h-3.114c-3.928.056-7.872.272-11.834.648a126.41 126.41 0 0 0-5.798.656c-1.583.202-3.3.345-4.587 1.397a7.17 7.17 0 0 0-2.062 3.443 51.712 51.712 0 0 0-1.313 5.411 101.309 101.309 0 0 0-1.684 14.78l.202-.118c.307-.172.625-.324.951-.455.176-.062.364-.08.548-.05.213-4.66.75-9.301 1.607-13.887a43.108 43.108 0 0 1 1.372-5.505 5.253 5.253 0 0 1 1.288-2.213 4.705 4.705 0 0 1 2.525-.96 123.336 123.336 0 0 1 12.7-1.254c2.07-.109 4.15-.185 6.228-.21h1.683a6.734 6.734 0 0 1 1.54 0c.842.227.766 1.145.733 1.885a.842.842 0 0 0 1.683 0c.093-1.085-.05-2.44-1.06-3.147Z" fill="#151921"/><path d="M45.838 2.23c-3.047-.176-6.279.783-9.073 1.92a9.695 9.695 0 0 0-5.63 5.487c-1.154 2.82-1.482 6.06-1.776 9.064a87.495 87.495 0 0 0-.093 12.515c.076 1.07 1.76 1.103 1.683 0a88.756 88.756 0 0 1 0-11.294 40.49 40.49 0 0 1 1.372-8.585 8.29 8.29 0 0 1 4.958-5.614 20.065 20.065 0 0 1 8.542-1.835c1.07.093 1.094-1.59.017-1.658Z" fill="#151921"/><path d="M48.458.572A1.154 1.154 0 0 0 47.432 0c-3.653.177-4.916.842-5.395 1.28a1.01 1.01 0 0 0-.236 1.27c.24.347.595.597 1.001.707a3.998 3.998 0 0 0 1.894.05 9.477 9.477 0 0 0 1.801-.48c.328-.125.657-.26.977-.412.373-.144.702-.385.95-.698a1.06 1.06 0 0 0 .034-1.145ZM64.077 89.517c-11.951.202-24.122-4.352-24.643-4.545a.844.844 0 0 1-.314-1.364.84.84 0 0 1 .911-.21c.126.042 12.81 4.789 24.635 4.419 10.428-.32 20.629-1.187 30.863-8.046 3.686-2.466 6.733-7.457 6.733-7.508a.833.833 0 0 1 .51-.455.844.844 0 0 1 1.08.628.85.85 0 0 1-.142.668c-.127.22-3.224 5.37-7.23 8.047-10.596 7.103-21.496 8.012-31.747 8.332l-.656.034ZM38.44 40.011a.841.841 0 0 1-.454-1.557 30.736 30.736 0 0 1 24.778-2.137.841.841 0 0 1-.228 1.637.843.843 0 0 1-.328-.047 29.507 29.507 0 0 0-23.338 1.987.891.891 0 0 1-.43.117Z" fill="#151921"/><path d="M72.554 64.554c0-.135-.101-.253-.151-.387a5.05 5.05 0 0 0-.06-2.92.841.841 0 0 0-1.556-.186l-.068-.067a1.288 1.288 0 0 0-1.734.454 3.07 3.07 0 0 0-.303.8c-.11.15-.188.322-.227.505a1.851 1.851 0 0 0-.43-.615 4.674 4.674 0 0 0-.066-.48 3.14 3.14 0 0 0-.53-1.17 1.684 1.684 0 0 0-.53-.48 2.087 2.087 0 0 0-.405-.142 1.32 1.32 0 0 0-2.011-.27c-.144.135-.27.287-.413.421a1.355 1.355 0 0 0-.993-.74 2.02 2.02 0 0 0-1.548.513 1.635 1.635 0 0 0-.186-.337 1.742 1.742 0 0 0-2.525-.378c-.774.538-1.06 1.472-1.683 2.112a1.28 1.28 0 0 0-.656-1.001 1.263 1.263 0 1 0-2.189-1.263 8.125 8.125 0 0 0-.69 1.162 6.472 6.472 0 0 0-2.642 2.12 2.062 2.062 0 0 0 .614 3.047 2.887 2.887 0 0 0 3.19-.311c.993-.227 1.986-.631 2.962-.884 2.34-.589 4.537.48 6.733 1.162a22.94 22.94 0 0 0 3.443.715c.903.202 1.84.202 2.743 0 .126.054.256.099.388.135a1.278 1.278 0 0 0 1.523-1.515Z" fill="#B34052"/><path d="M70.924 59.975c-.126-.597-.842-1.06-1.288-1.405a2.214 2.214 0 0 0-.597-.623 2.02 2.02 0 0 0-1.027-.328l-.59-.245a2.29 2.29 0 0 0-.32-.32c-1.682-.176-3.366-.387-5.116-.429a19.8 19.8 0 0 0-2.525.085H59.006l-.606.117-.252.068-.354.27-.277.226a1.44 1.44 0 0 0-.994-.042v.084c.151.919.37 1.825.657 2.71.134.017.27.017.404 0 .841-.084 1.33-.732 1.952-1.178.252-.201.537-.358.842-.463a3.115 3.115 0 0 1 1.044 0c.33.013.66-.03.976-.126a1.683 1.683 0 0 0 2.222.842c.059 0 .564-.177.757-.261-.005.325.099.642.295.9a1.12 1.12 0 0 1 1.27.497c.037.065.068.132.094.202h.286a1.297 1.297 0 0 0 .976 1.102.892.892 0 0 0 1.599.362c.396-.572 1.187-1.33 1.027-2.045Z" fill="#fff"/><path d="m70.39 60.38-.975.84-.421.371v-.48c0-.513 0-1.018-.067-1.523a.841.841 0 0 0-1.465-.556c-.05-.126-.151-.31-.177-.378a.842.842 0 0 0-1.035-.581 1.826 1.826 0 0 0-.791.328c-.05 0-.53.328-.514.48-.109-.16-.294-.58-.353-.657a1.246 1.246 0 0 0-.631-.403c-.716-.186-1.019.269-1.473.673-.168.16-.177.219-.412 0a2.573 2.573 0 0 1-.514-.842.843.843 0 0 0-1.321-.168c-.707.774-1.423 1.548-2.13 2.331 0-.092-.05-.16-.058-.176l-.37-1.558c-.253-1.052-1.878-.606-1.625.447.193.8.328 1.632.58 2.415a1.272 1.272 0 0 0 1.406 1.018c.665-.109 1.111-.841 1.54-1.27l1.111-1.22c.26.352.621.616 1.035.757a1.86 1.86 0 0 0 1.852-.388l.059.085a1.355 1.355 0 0 0 .943.589c.38.053.768-.02 1.102-.21.14-.086.272-.181.396-.287a1.682 1.682 0 0 0 1.094.842h.126l.05 1.22c0 .59.093 1.271.682 1.574a1.515 1.515 0 0 0 1.684-.438c.63-.547 1.245-1.119 1.86-1.683.808-.715-.388-1.877-1.187-1.153Z" fill="#151921"/><path d="M66.02 56.02a21.88 21.88 0 0 0-4.066-.11c-2.38.123-4.71.727-6.85 1.776a13.558 13.558 0 0 0-4.563 3.459c-1.035 1.313-1.683 3.627 0 4.721 1.524 1.002 3.636.564 5.277.144 1.119-.36 2.26-.64 3.418-.842a12.195 12.195 0 0 1 3.711.177c1.117.22 2.221.502 3.308.841a15.05 15.05 0 0 0 3.366.91 3.83 3.83 0 0 0 3.586-2.686c1.548-4.334-3.476-7.86-7.188-8.39Zm5.722 7.338a2.447 2.447 0 0 1-.985 1.734c-.841.58-1.683.244-2.524 0a41.595 41.595 0 0 0-5.05-1.355 13.926 13.926 0 0 0-4.764-.092c-1.683.286-3.29 1.01-5 1.136a3.09 3.09 0 0 1-1.943-.27c-.842-.656.235-2.188.757-2.735a13.677 13.677 0 0 1 3.72-2.609 16.033 16.033 0 0 1 10.428-1.448c.782.14 1.538.4 2.239.775 1.843 1.069 3.358 2.777 3.122 4.848v.016ZM94.788 47.536a53.02 53.02 0 0 0-3.686-10.21 1.01 1.01 0 0 0-1.296-.328c-.277.29-.492.634-.631 1.01a82.253 82.253 0 0 0-3.283 9.435c-.74 2.635-1.363 5.942.951 8.021a5.05 5.05 0 0 0 6.733-.101c2.264-2.037 1.86-5.176 1.212-7.827Zm-1.313 4.932a3.568 3.568 0 0 1-2.954 2.575 3.264 3.264 0 0 1-3.366-1.96c-.64-1.558-.177-3.317.244-4.857a79.912 79.912 0 0 1 2.887-8.56 50.491 50.491 0 0 1 2.777 7.996c.412 1.523.867 3.24.412 4.806Z" fill="#151921"/><path d="M93.48 52.468a3.568 3.568 0 0 1-2.954 2.575 3.265 3.265 0 0 1-3.367-1.961c-.64-1.557-.176-3.316.244-4.856a79.88 79.88 0 0 1 2.887-8.56 50.507 50.507 0 0 1 2.778 7.996c.412 1.523.867 3.24.412 4.806Z" fill="#398FE5"/><path d="M92.858 49.808a1.456 1.456 0 0 0-.168-.463.984.984 0 0 0-1.494-.223 1.036 1.036 0 0 0-.316.484c-.05.165-.084.334-.1.505l-.051.514c0 .176-.067.361-.093.555a2.888 2.888 0 0 0 0 .892.95.95 0 0 0 .674.715 1.027 1.027 0 0 0 .984-.235 1.96 1.96 0 0 0 .488-.934c.083-.294.128-.596.135-.9.022-.305.002-.611-.059-.91Z" fill="#fff"/><path d="M100.494 72.137a44.14 44.14 0 0 0-.37-5.277c-.126-.934-.194-2.794-1.582-2.71-1.06.059-1.684 1.49-2.029 2.348-.084.252-.143.513-.202.774-1.565-3.089-3.753-6.127-6.817-7.432a3.93 3.93 0 0 0-2.676-.42 1.49 1.49 0 0 0-.766 1.919 20.654 20.654 0 0 0 1.186 3.19c-.328-.278-.656-.564-.993-.842-.841-.648-2.449-1.515-3.265-.362-.817 1.153.707 2.609 1.203 3.493.346.618.655 1.256.926 1.91a10.428 10.428 0 0 0-6.295-2.18.84.84 0 0 0-.732 1.263c.603.859 1.332 1.622 2.163 2.264a17.755 17.755 0 0 1 2.078 2.483 18.512 18.512 0 0 1 2.298 4.662.842.842 0 0 0 .497 1.49.843.843 0 0 0 1.405 0 32.079 32.079 0 0 0 8.416-1.372 24.885 24.885 0 0 0 4.402-1.683c1.397-.758 1.17-2.171 1.153-3.518Z" fill="#FFBF24"/><path d="M104.095 91.116a1.538 1.538 0 0 1 .051-.438 132.597 132.597 0 0 0-2.828-14.813.835.835 0 0 0-.596-.588.842.842 0 0 0-.81.218c-.378.362-1.17.37-1.683.454l-1.86.329-3.93.69-7.785 1.363a.842.842 0 0 0-1.482.783c.556 2.929 1.364 5.833 1.684 8.812.13 1.058.164 2.126.1 3.19a8.067 8.067 0 0 0-.21 2.525c.177.917 1.044 1.161 1.835 1.405a38.265 38.265 0 0 0 6.598 1.288c3.788.463 7.752.43 11.203-1.338-.169-1.296-.219-2.584-.287-3.88Z" fill="#398FE5"/><path d="M101.513 77.65c-2.23 1.876-5.126 2.592-7.954 2.979-3.021.412-6.388.917-9.392.177a.842.842 0 1 0-.446 1.624c3.366.842 6.977.286 10.318-.185 3.14-.438 6.195-1.33 8.661-3.409.833-.715-.362-1.893-1.187-1.186Z" fill="#2677C7"/><path d="M95.7 64.84c-1.254-2.172-3.888-5.26-6.202-6.371-1.532-.741-4.478-1.12-5.05 1.094-.194.774.513 2.028 1.161 3.105-1.11-.547-2.18-.841-3.19-.353-1.405.724-1.01 2.424-.353 3.543a5.58 5.58 0 0 0-4.722.58c-.597.413-1.397 1.103-1.161 1.92.236.816 1.523 1.557 2.188 2.079 1.92 1.523 4.73 4.915 5.05 7.516.126 1.077 1.81.959 1.683-.118a14.713 14.713 0 0 0-2.92-6.27 18.279 18.279 0 0 0-2.155-1.962l-1.094-.841c-.084-.067-.505-.463-.842-.74.11-.085.21-.178.32-.245.341-.208.718-.35 1.111-.42a4.284 4.284 0 0 1 2.45.269 6.682 6.682 0 0 1 2.592 2.045c.42.606.841 1.212 1.254 1.826.606.9 1.944 0 1.388-.95a17.228 17.228 0 0 0-1.001-1.499l-1.338-1.995c-.303-.454-2.273-2.769-1.532-3.257.27-.176 1.33.286 1.582.396.57.226 1.106.532 1.59.909.533.418 1 .911 1.39 1.464.244.455.496.9.757 1.347.488.841 1.877.118 1.49-.758a2.153 2.153 0 0 0-.101-.193 9.64 9.64 0 0 0-.791-1.338c-.842-1.372-2.525-3.594-3.056-5.05-.37-1.052.91-1.019 1.608-.842a11.666 11.666 0 0 1 3.493 2.239c2.98 2.668 4.082 4.427 4.721 8.298.177 1.06 1.86.951 1.684-.117-.438-2.786-.648-2.938-2.003-5.311Z" fill="#151921"/><path d="M100.701 64.183a2.453 2.453 0 0 0-1.633-1.338c-.9-.118-1.54.842-1.978 1.456a7.389 7.389 0 0 0-1.246 4.47.843.843 0 1 0 1.684-.119 5.403 5.403 0 0 1 .37-2.306c.143-.361.32-.708.53-1.035.148-.258.326-.498.53-.715.354.428.579.947.648 1.498.149.834.228 1.678.236 2.525a25.928 25.928 0 0 1-.597 6.085c-.253 1.052 1.405.8 1.683-.253.421-1.784.63-3.612.623-5.445a10.292 10.292 0 0 0-.85-4.823Z" fill="#151921"/><path d="M101.265 73.56a34.056 34.056 0 0 1-18.516 4.207c-1.086-.05-1.078 1.633 0 1.684a35.65 35.65 0 0 0 19.357-4.461c.968-.513.11-1.961-.841-1.43Z" fill="#151921"/><path d="M83.686 78.432a.842.842 0 0 0-1.625.447c1.574 6.009 2.399 9.039 2.062 15.242-.059 1.085 1.625 1.085 1.684 0 .345-6.372-.514-9.545-2.121-15.689ZM104.613 89.357c-.447-4.865-1.128-9.704-1.953-14.518-.185-1.07-1.81-.615-1.624.446a145.736 145.736 0 0 1 2.44 22.775c0 3.307-.336 6.893-2.575 9.51-2.239 2.618-5.614 2.996-8.753 1.801a14.862 14.862 0 0 1-7.71-7.011c-.505-.959-1.96-.109-1.447.842 2.92 5.538 10.823 11.253 17.077 7.305 2.954-1.86 4.435-5.243 4.881-8.593.547-4.065.042-8.433-.336-12.557Z" fill="#151921"/><path d="M81.767 30.829a1.386 1.386 0 0 0-.05-.27.951.951 0 0 0-.396-.428l-.311-.16a3.452 3.452 0 0 0-.446-.127h-.085c-.109 0-.328-.05-.48-.059h-.605l-.455.093c-.134.046-.266.1-.395.16l-.076.042c-.21.113-.385.282-.505.488a.446.446 0 0 0-.042.37.547.547 0 0 0 .176.346c.055.054.117.099.186.134l.244.194c.208.132.44.224.681.27.164.032.33.051.497.058h.505c.156-.023.31-.053.463-.093h.076c.134-.05.277-.1.395-.16.11-.064.214-.137.312-.218a1.37 1.37 0 0 0 .202-.261.136.136 0 0 0 0-.06c.027-.085.05-.172.067-.26l.042-.059Z" fill="#398FE5"/><path d="M82.29 30.29a.841.841 0 0 0-.487-.403.842.842 0 0 0-1.052.555c-.05.21-.093.43-.16.64l-.06.134a1.488 1.488 0 0 1-.117.194l-.076.076h-.075a.067.067 0 0 0-.06 0h-.37l-.235-.085h-.05.041l-.118-.075-.075-.06-.05-.041c-.06-.06-.11-.135-.17-.194l-.067-.11-.05-.117c0-.084-.059-.177-.076-.27a.842.842 0 0 0-1.641.388 2.845 2.845 0 0 0 2.525 2.264 2.104 2.104 0 0 0 1.759-.632 3.56 3.56 0 0 0 .74-1.64.934.934 0 0 0-.075-.623Z" fill="#151921"/><path d="M42.038 60.06v-.279a.968.968 0 0 0-.328-.48l-.286-.201a3.207 3.207 0 0 0-.42-.194h-.077c-.117 0-.32-.092-.48-.118h-.092l-.43-.05h-.083a2.795 2.795 0 0 0-.463 0c-.143 0-.337.076-.421.093h-.076c-.223.076-.419.217-.564.403a.437.437 0 0 0-.1.362.564.564 0 0 0 .126.37c0 .06.109.102.16.16l.21.228c.188.16.405.283.64.362.156.057.316.102.48.134H40.295c.157.01.315.01.471 0h.085a3.14 3.14 0 0 0 .404-.1c.12-.05.235-.108.345-.177.088-.068.17-.144.244-.228v-.042c.044-.08.078-.164.1-.252l.093.008Z" fill="#398FE5"/><path d="M42.615 59.605a.843.843 0 0 0-1.549-.084c-.072.21-.156.415-.253.614l-.075.127-.143.176-.093.06h-.454l-.22-.119a.584.584 0 0 1-.109-.092l-.067-.06v-.05c-.05-.067-.093-.151-.143-.218a.488.488 0 0 1-.042-.118 1.006 1.006 0 0 1 0-.118v-.278a.842.842 0 0 0-1.675.143 2.845 2.845 0 0 0 2.188 2.61 2.088 2.088 0 0 0 1.827-.371c.454-.409.792-.932.976-1.515a.884.884 0 0 0-.168-.707Z" fill="#151921"/><path d="M38.55 50.583a1.59 1.59 0 0 0-.37-.606 1.868 1.868 0 0 0-.614-.38 2.963 2.963 0 0 0-2.037 0c-.371.103-.72.275-1.027.506a.843.843 0 0 0 .002 1.192.842.842 0 0 0 .596.247.976.976 0 0 0 .488-.177h-.043.06l.143.06a.842.842 0 0 0 .437 0h.152l.143.05c.107.029.22.029.328 0a.387.387 0 0 0 .219-.06l.067-.041a.759.759 0 0 0 .51.276.84.84 0 0 0 .332-.024.84.84 0 0 0 .614-1.043Z" fill="#398FE5"/><path d="M38.41 49.875a.841.841 0 0 0-1.027.598.348.348 0 0 1 0 .084l-.101.185-.093.093-.075.076-.202.126h-.06l-.235.059h-.202l-.219-.05c-.092 0-.059 0 0 0l-.067-.043-.126-.067-.11-.101-.05-.067c0 .042.05.092 0 0a1.499 1.499 0 0 1-.118-.194v-.11a.843.843 0 1 0-1.625.447 2.635 2.635 0 0 0 5.05 0 .84.84 0 0 0-.74-1.036Z" fill="#151921"/><path d="M99.59 40.44c0-.075-.05-.15-.067-.218a1.246 1.246 0 0 0 0-.354c-.07-.38-.27-.725-.564-.976a2.028 2.028 0 0 0-1.263-.496 2.727 2.727 0 0 0-1.094.21 1.683 1.683 0 0 0-.968.842 1.837 1.837 0 0 0-.084.286.953.953 0 0 0-.16.32.909.909 0 0 0 .093.648.792.792 0 0 0 1.094.294c.174-.103.335-.228.48-.37a.707.707 0 0 0 .177.294.766.766 0 0 0 .353.21.715.715 0 0 0 .42 0l.127-.058a.933.933 0 0 0 .312.337.783.783 0 0 0 1.085-.312.969.969 0 0 0 .06-.656Z" fill="#398FE5"/><path d="M99.728 38.707a.842.842 0 0 0-1.069.53c-.067.227-.135.463-.227.69v.076l-.042.076-.16.244-.126.11-.101.058h-.405l-.109-.042h-.05l-.202-.143-.101-.101-.11-.135-.05-.075c-.031-.05-.06-.1-.084-.152a4.113 4.113 0 0 1-.27-.59.842.842 0 1 0-1.498.767 3.207 3.207 0 0 0 2.626 2.272 2.18 2.18 0 0 0 1.767-.698c.403-.492.691-1.067.842-1.684a.831.831 0 0 0 .086-.382.836.836 0 0 0-.717-.821Z" fill="#151921"/><path d="M26.753 53.158a2.255 2.255 0 0 0-.076-.219.84.84 0 0 0 0-.353 1.683 1.683 0 0 0-.556-.977 2.02 2.02 0 0 0-1.262-.488c-.376-.012-.75.06-1.094.21a1.683 1.683 0 0 0-.968.842 1.12 1.12 0 0 0-.084.286.842.842 0 0 0-.068.968.79.79 0 0 0 1.094.286c.175-.099.334-.223.472-.37.04.113.102.216.185.303.098.098.22.17.353.21a.79.79 0 0 0 .421 0l.126-.05a.927.927 0 0 0 .312.337.775.775 0 0 0 1.086-.32c.095-.209.116-.443.059-.665Z" fill="#398FE5"/><path d="M26.887 51.424a.84.84 0 0 0-1.069.53c-.063.237-.138.47-.227.699V52.804c-.05.084-.11.16-.16.236l-.126.118-.101.05H24.792l-.101-.042h-.05l-.203-.151-.1-.11c0-.042-.077-.084-.11-.134l-.05-.084a1.34 1.34 0 0 1-.085-.152 3.728 3.728 0 0 1-.27-.59.841.841 0 0 0-1.497.767 3.224 3.224 0 0 0 2.625 2.28 2.186 2.186 0 0 0 1.768-.698 4.285 4.285 0 0 0 .842-1.725.84.84 0 0 0-.674-1.145Z" fill="#151921"/></g><defs><clipPath id="a"><path fill="#fff" transform="translate(.71)" d="M0 0h124.52v170.07H0z"/></clipPath></defs></svg>