<svg width="126" height="171" fill="none" xmlns="http://www.w3.org/2000/svg">
  <g clip-path="url(#a)">
    <path d="M103.8 97.85a5.28 5.28 0 0 0-.54-2.66c-.54-.73-1.47-.73-2.27-.79-2.65-.17-5.3.08-7.95.15-2.4.07-4.79 0-7.17-.14-.07-.99-4.1-1.44-4.13-.38-.05 2.31.85 4.39.85 6.73 0 2.08 1.59 2.75 2.84 4.3 2.42 3 6.12 5.65 9.83 5.7 1.95 0 3.55 0 5.1-1.3 1.55-1.31 2.7-2.57 3.04-4.55.42-2.33.55-4.7.4-7.06Z" fill="#398FE5"/>
    <path d="M109.37 162.65a11.56 11.56 0 0 0-6.07-3.26c-2.6-.63-5.28-1-7.93-1.37a156.2 156.2 0 0 0-17.28-1.5c-11.43-.2-22.86.65-34.14 2.52l-2.13.34a1.8 1.8 0 0 0-1.73-.84c-4.74.26-9.46.76-14.15 1.5-3.46.54-8.28 1.18-9.26 5.3a2.14 2.14 0 0 0 .95 2.36c5.49 2.53 11.32 1.77 17.1.97 5.99-.8 12.03-1.05 18.06-.77 12.23.5 24.4 2.45 36.66 2.14 6.66-.16 13.46-.9 19.44-4.04a2.15 2.15 0 0 0 1.07-1.55 2.14 2.14 0 0 0-.59-1.8Z" fill="#151921"/>
    <path d="M94.63 161.43c-1.98-.09-3.9.58-5.9.6a34.14 34.14 0 0 1-5.47-.54l-3.37-.52a7.2 7.2 0 0 0 4.05-3.6c.27-.1.52-.24.74-.42l2.88 2.03a2.11 2.11 0 0 0 2.88-.76 2.09 2.09 0 0 0-.11-2.22l-.23-.05a1.35 1.35 0 0 1-.94-.98l-1.2-.84.42.13.25.08c.1.1.21.17.34.23l.14.06a1.33 1.33 0 0 1 1.69-1.27c.19.05.4.1.6.13l.36.07h.26c.1-.23.16-.47.17-.71l-.25-.22a15.01 15.01 0 0 0-6.66-3.27 1.17 1.17 0 0 1-.34-.15 5.97 5.97 0 0 0-3.32.48 9.69 9.69 0 0 0-2.45-1.14 2.11 2.11 0 0 0-2.38 3.09c1 1.35 2.13 2.61 3.37 3.75-.45 2.53-5.11 1.89-6.91 1.98-.97 0-1.9.37-2.62 1.03-.28.27-.46.64-.73.92.3-.32-.7.77-.67.7a2.35 2.35 0 0 0 .35 2.88c.68.68 1.82.84 2.72 1 3.66.8 7.41 1.26 11.1 1.82 1.92.34 3.86.5 5.8.5 1.84-.06 3.66-.69 5.49-.6 2.65.13 2.64-4.08-.06-4.2ZM55.45 158.5c-.95 0-1.9.09-2.84.26a139.62 139.62 0 0 1-14.95.87l.39-.25a1.57 1.57 0 0 0 .79-1.13 28.27 28.27 0 0 0 3.63-1.9c1.35-.67 2.61-1.49 3.77-2.43a3.3 3.3 0 0 0 1.27-2.27 2.53 2.53 0 0 0-1.5-2.28 6.89 6.89 0 0 0-4.14-.41c-.15 0-.3 0-.46.05l-.34.09c-1.63.34-3.22.72-4.86.97a1.68 1.68 0 0 0 .45 3.3c1.32-.1 2.63-.33 3.91-.66l-.6.3c-.7.4-1.4.84-2.07 1.26a3.26 3.26 0 0 0-1.76 2.34 46.16 46.16 0 0 0-5.05 3.56c-.76.62-1.48 1.28-1.37 2.35a2.72 2.72 0 0 0 2.12 2.2c.99.21 2 .3 3 .24l3.6.08c2.17.04 4.35.08 6.53 0 2.33-.07 4.65-.27 6.96-.6 1.84-.25 4.03-1 5.15-2.78 1.12-1.78.43-3-1.63-3.16Z" fill="#89A1AE"/>
    <path d="M84.2 121.73c-.37-.17-.74-.31-1.13-.43.41-1.12.57-2.3.46-3.49-.16-1.8-.45-3.55-.48-5.36-.06-3.46.1-6.91.48-10.35l.05.08v-.1c-.07-1.85.07-3.7.42-5.53.31-2.12 1-4.17 2.02-6.05.09-1.4.05-2.81-.1-4.2-.22-1.01-.48-2-.8-2.98a8.37 8.37 0 0 1-.21-3.6c.02-.12.06-.24.13-.35a.84.84 0 0 0-.75 1.04c.34 1.68.61 3.44.85 5.18-.85.37-1.69.77-2.53 1.2-.59.08-1.17.15-1.76.28a94 94 0 0 0-7 1.68 43.9 43.9 0 0 0-6.72 2.72c-.92.45-1.84.9-2.8 1.26-.2.09-.41.15-.61.25h-.11l-.84-.5c-.9-.5-1.83-.98-2.77-1.4a.8.8 0 0 0-.3-1.08c-3.55-2.14-7.67-2.78-11.65-3.62l-1.4-.31a39.8 39.8 0 0 1-11.57-5.05c.21-1.26.07-2.58-1.34-3.08-2.18-.8-3.45.7-4.08 2.59a1.31 1.31 0 0 1-.46 2.32v.43c.27.21.45.51.53.84.07.38.18.76.31 1.12.11.23.24.44.38.65.15.17.31.33.48.48.49.33 1.01.62 1.56.84l.61.24c.39.13.72.39.95.73.2.37.26.8.15 1.21a1.4 1.4 0 0 1-.1.26l.36.18-.33.13a1.36 1.36 0 0 0-.96 1.32 28.35 28.35 0 0 0-4.66 7.57c-.84 1.89-1.6 3.8-2.42 5.7-.81 1.9-1.82 3.8-2.6 5.75a25.96 25.96 0 0 0-1.34 7.81 2.39 2.39 0 0 0-1.98 2.72c.04.3.15.59.32.85a.9.9 0 0 0 .51 1.14c2.45.85 5 1.41 7.57 1.68 2.6.49 5.27.49 7.87 0a.8.8 0 0 0 .37-1.33c1.26-.97 1.45-2.6 1.42-4.25-.06-2.49.45-7.13 1.46-9.42a18.4 18.4 0 0 1 2.35-4c.17 2.49.62 4.96 1.34 7.36a1.69 1.69 0 0 0-1.1 1.43 2.34 2.34 0 0 0 .7 2.16c-.37.37-.62.85-.7 1.37-.22 1.18.27 2.26.4 3.4.06.6-.31 1.45-.16 2.18.04.18.1.36.19.53a1.4 1.4 0 0 0 .7 2.19c1.6.66 3.28 1.07 5 1.21 3.53.35 7.08-.08 10.6.3a.69.69 0 0 0 .59-.18c4.07.05 8.13-.26 12.14-.94 4.21-.64 8.55-.7 12.55-2.43a1.3 1.3 0 0 0-.07-2.35Z" fill="#398FE5"/>
    <path d="M78.1 87.63c2.11-.38 4.2-.9 6.25-1.53.07-.05.14-.1.21-.13.8-.35 1.58-.72 2.39-1.01a1.3 1.3 0 0 0-1.55-1.07l-4.82.91c-2.18.32-4.36.53-6.51.92a27.3 27.3 0 0 0-4.32 1.1c-1.25.21-2.48.5-3.7.85-.4.12-.8.27-1.17.45l-.14-.22a1.31 1.31 0 0 0-2.02-.28c-.26.21-.47.48-.62.79l-4.43-2.53a1.25 1.25 0 0 0-1.75.5 1.29 1.29 0 0 0 0 2.44c2.4.73 4.6 1.98 6.45 3.66a1.35 1.35 0 0 0 1.8.04 1.15 1.15 0 0 0 .91-.06 1.91 1.91 0 0 0 2.1-.93 6.08 6.08 0 0 1 2.9-2.08l4.06-.77 3.36-.64c.15-.2.36-.35.6-.4Z" fill="#FFBF24"/>
    <path d="M81 125.62a53.08 53.08 0 0 1-12.25 2.13 1.38 1.38 0 0 0-1.68.3.85.85 0 0 0-.42.91c.42 2.33.73 4.67.98 7.02.07.12.13.24.18.38.03.11.04.23.05.35 0 .12 0 .24-.05.36s0 .04 0 .06a1.7 1.7 0 0 1-.1.22c.03.1.03.22 0 .33 0 .16-.05.33-.14.47l-.07.15a.87.87 0 0 1-.1.13l-.11.14c-.1.09-.2.17-.32.24l-.12.05c.26.44.63.8 1.09 1.03a1.4 1.4 0 0 0-.25 1.9c.11.18.26.34.43.47v.52a.84.84 0 0 0 .63.84c1.47.42 3 .63 4.54.63.07 0 .13-.02.2-.04a2.78 2.78 0 0 0 2.28-.67c.5-.5.78-1.17.79-1.88.85.41 1.78.64 2.73.68a3.1 3.1 0 0 0 2.28-.62c.72-.67.68-1.57.71-2.48l.38-12.4a1.28 1.28 0 0 0-1.66-1.22ZM60.32 134.04c-.1-.85-.24-1.7-.43-2.52-.16-.98-.19-1.96-.09-2.94a.97.97 0 0 0-.94-.98c-2.63.1-5.27.18-7.9 0-1.33-.06-2.65-.2-3.96-.42-1.1-.29-2.23-.41-3.37-.38-.21-.01-.43.03-.62.15a.84.84 0 0 0-.41.89c0 2.8-.06 5.59-.09 8.41v2.02c-.09.58.03 1.18.34 1.68a.66.66 0 0 0 .59.84c1.55.15 3.1.16 4.65.04.75-.04 1.51-.01 2.26.1a2.7 2.7 0 0 0 0 1.08 1.48 1.48 0 0 0 .99.98c0 .46.2.9.53 1.23.48.36 1.08.52 1.68.43a30.4 30.4 0 0 0 5.1-.48c.73-.13.72-.95.3-1.38.28-.64.43-1.34.45-2.04.1-1.27 0-2.55-.3-3.79a3.42 3.42 0 0 0 1.22-2.92Z" fill="#252B36"/>
    <path d="M65.3 94.82c-1.2-.8-2.5-1.48-3.85-2a.95.95 0 0 0-1.22 1.02 37.77 37.77 0 0 0-9.66-3c-4.91-.72-10-.66-14.68-2.56-1.14-.46-2.68.84-1.75 1.63 4.5 3.92 10.76 2.1 15.57 2.74 5.11.69 10.25 2.75 14.82 5.05.84.42 1.23-.46.78-1.22a1 1 0 0 0 0-1.66Z" fill="#2677C7"/>
    <path d="M92.53 89.1c-1.07.78-2.26 1.4-3.51 1.82-3.48.84-7.58-.33-10.95-.54-4.81-.3-10.1.8-13.3 4.66-.28.4-.44.9-.43 1.4a.52.52 0 0 0 0 .27c0 .8.33 1.39.78.84l.14-.14c.2 0 .39-.06.54-.19 1.91-1.59 4.07-2.85 6.4-3.73 2.7-.92 5.13-.52 7.87-.09 2.6.43 5.24.63 7.89.58 2.16-.05 4.42-.6 5.53-2.64a.8.8 0 0 0 .07-.6l.15-.11c.73-.71-.33-2.18-1.18-1.53ZM41.91 102.38c-2.31 5.67-6.38 16.08-6.87 22.2-.1 1.22 2.43.32 2.53-.9.48-5.94 2.04-13.88 4.29-19.36.45-1.18.51-3.1.05-1.94ZM45.57 114.12a1.36 1.36 0 0 1-.4-.26c.1-.2.12-.43.08-.64-.51-3.22-1.96-7.67-2.16-10.94-.06-1.22-.71 0-.64 1.2.17 2.95.48 5.88.91 8.82a.89.89 0 0 0-.45 1.06c.11.43.3.84.54 1.22a4.9 4.9 0 0 0-.7.4 1.03 1.03 0 0 0-.33 1.31c.07.15.19.27.32.37l.13.08a7.5 7.5 0 0 0-.43 2.71c0 1.89-.66 4.03-.66 5.9 0 1.22 1.68 2.1 1.68.84 0-1.6.59-8.42 1.38-9.26a1.06 1.06 0 0 0 .22-.91c.11 0 .21-.04.32-.05a.98.98 0 0 0 .19-1.85Z" fill="#2677C7"/>
    <path d="M94.83 159.57c-1.34-1.22-2.74-2.36-4.59-2.57a33.68 33.68 0 0 0-5.68-.08l-.2.05a12 12 0 0 0-1.29-1.27 55.01 55.01 0 0 0-3.28-3c.72-.49 1.43-1 2.13-1.52l.2-.15.04-.04 1.27-.12a1 1 0 0 0 .94-.69l.93-3.17c.37-1.02.66-2.06.89-3.12a1.39 1.39 0 0 0-1.16-1.64c-1.06-.2-2.12-.32-3.2-.35a41.2 41.2 0 0 0-3.1-.05c-.84 0-1.84 0-2.53.66-.5.69-.82 1.5-.91 2.35-.09.38-.15.77-.21 1.16a8.04 8.04 0 0 0-3.55-1.12h-.2c-.44-.05-.85-.07-1.3-.1-.46-.73-1.83-.6-1.76.45.18 3.06.42 6.12.72 9.17.12 1.26 0 3.06.8 4.11.78 1.05 2.28 1.2 3.4 1.5 2.91.79 5.9 1.31 8.9 1.57.47.11.97.07 1.41-.12 1.15.48 2.53.34 3.78.38l4.38.15a.84.84 0 0 0 .84-.5c.32 0 .64 0 .96-.08.18-.01.35-.07.5-.16h.13a.96.96 0 0 0 1.05-1.18.97.97 0 0 0-.31-.52ZM31.94 158.73c1.37-1.18 2.8-2.28 4.66-2.44a32.86 32.86 0 0 1 5.9.12c.4-.44.83-.85 1.3-1.23a54.95 54.95 0 0 1 3.36-2.91 46.93 46.93 0 0 1-2.28-1.74.1.1 0 0 1 0-.04l-1.28-.15a1 1 0 0 1-.92-.71 435.1 435.1 0 0 0-.84-3.2 24.22 24.22 0 0 1-.84-3.14 1.38 1.38 0 0 1 1.2-1.6c1.06-.19 2.13-.27 3.2-.27a47.3 47.3 0 0 1 3.1 0c.85.05 1.85 0 2.5.72.48.71.77 1.53.83 2.39.08.37.13.76.19 1.15a8.02 8.02 0 0 1 3.54-1.02h.22c.43 0 .84-.05 1.29-.07.48-.71 1.84-.54 1.75.5-.27 3.06-.6 6.1-.96 9.15-.16 1.25-.07 3.05-.91 4.08-.84 1.03-2.31 1.15-3.44 1.41-2.94.71-5.93 1.16-8.94 1.34-.47.1-.97.04-1.4-.17-1.17.46-2.58.28-3.8.29h-4.38a.84.84 0 0 1-.84-.53l-.96-.09c-.18-.02-.35-.09-.5-.19h-.13a.98.98 0 0 1-.62-1.65Z" fill="#89A1AE"/>
    <path d="M83.12 125.52c.07-1.08-1.17-1.13-1.24-.06-.3 5.05-.77 11.02-.6 16.05 0 1.09 1.7 1.09 1.7 0-.18-5.03-.17-10.97.14-15.99ZM45.23 128.33v-.97a.84.84 0 0 0-1.2-.72.7.7 0 0 0-.56.77c0 .3 0 .61.05.92-.12 3.93-.1 7.88.08 11.85a.84.84 0 0 0 1.68 0c.18-3.94.16-7.9-.05-11.85Z" fill="#343A46"/>
    <path d="M79.52 122.32a64.82 64.82 0 0 1-.3-7.62.76.76 0 0 0-.44-.78.66.66 0 0 0-.2-.14c-1.97-.79-4.02-3.71-4.37-6a.85.85 0 0 0-.72-.69l-20.2-.12a.71.71 0 0 0-.64.37.85.85 0 0 0-.27.62c.01 1.12-.32 2.23-.95 3.16a3 3 0 0 1-2.37 1.28.79.79 0 0 0-.78.84c0 .17.04.33.12.47v9.34a.79.79 0 0 0 .77.84.78.78 0 0 0 .57-.25.77.77 0 0 0 .18-.6v-9.09a4.62 4.62 0 0 0 2.6-1.68 7 7 0 0 0 1.33-3.62l18.97.11a10.77 10.77 0 0 0 4.81 6.42c-.06 2 .15 5.32.32 7.24v.3l.25-.14c.18-.1.38-.16.6-.16l.35.06.33.14.04-.3Z" fill="#2677C7"/>
    <path d="M36.14 127.35c.02-.2 0-.4-.06-.57l-.07-.85a.84.84 0 0 0-1.06-.84c-2.28.4-4.63-.12-6.89-.54l-.18-.07c-.85-.1-1.69-.22-2.58-.36h-.21a19.6 19.6 0 0 1-.98-.14c.3.06 0 0-.13 0-1-.06-1.98-.27-2.91-.6-.43 1.27-.18 3.2-.14 4.2.1 2.3.25 4.61.47 6.92a1.28 1.28 0 0 0 2.52-.13c0-.52.08-1.04.14-1.56.4.93.78 1.87 1.14 2.81.14.43.33.84.57 1.23a1.07 1.07 0 0 0 2.05-.52c.05-.62.05-1.24.07-1.85l.05-1.14v-.25l.84 1.32 1.47 2.15c.32.61.82 1.1 1.43 1.42.8.33 2.05-.13 1.89-1.19l-.61-3.67-.05-.34c.4.4.84.84 1.26 1.17a1.3 1.3 0 0 0 1.62.1c.16-.1.29-.25.38-.42.53-1.36.68-2.83.44-4.26a1.3 1.3 0 0 0-.47-2.02Z" fill="#FFBF24"/>
    <path d="M37.32 133.01c-.11-.65-.19-1.22-.23-1.76a40.3 40.3 0 0 1 0-5.71.85.85 0 0 0-.75-1 .73.73 0 0 0-.6.13.76.76 0 0 0-.3.52c-.24 2.53-.19 5.07.16 7.58l.05.28v.19c-.17-.1-.34-.2-.5-.32-.58-.47-1.11-1-1.58-1.6l-.06-.06a.78.78 0 0 0-.93-.17.84.84 0 0 0-.52.84l.54 4.36c0 .24.06.47.08.7l.15 1.13c-.1-.07-.18-.15-.27-.23a13.01 13.01 0 0 1-3.42-6.1.75.75 0 0 0-.48-.57.93.93 0 0 0-1.1.6.84.84 0 0 0-.01.45c.32 1.36.84 2.66 1.54 3.86a10.7 10.7 0 0 0 3.26 3.74c.1.07.22.12.34.16a1.36 1.36 0 0 0 1.62-.43c.32-.59.39-1.28.2-1.92v-.33l-.39-3.15c.94.77 1.68 1.1 2.32.98a1.25 1.25 0 0 0 .84-.76c.16-.45.18-.95.04-1.4Z" fill="#151921"/>
    <path d="M28.25 131.7a.78.78 0 0 0-.84.8 13.35 13.35 0 0 1-.46 3.2v.13c-.1.4-.23.81-.4 1.2l-.05.1c-.1-.12-.17-.23-.24-.35a10.94 10.94 0 0 1-1.1-5.3.84.84 0 0 0-1.69-.07c-.08.97-.51 3.76-1.23 4.2a.27.27 0 0 1-.3 0c-.45-.24-.66-1.5-.73-2.02-.11-.7-.15-1.4-.11-2.12.08-2.6.51-5.17 1.28-7.66a6.18 6.18 0 0 1-1.6-.52 31.54 31.54 0 0 0-1 4.37 20.6 20.6 0 0 0-.22 6.25c.07.43.48 2.62 1.76 3.28a1.78 1.78 0 0 0 1.69-.09c.47-.27.85-.7 1.08-1.2.3 1.02.73 2.29 1.69 2.83.1.06.2.1.32.14a1.3 1.3 0 0 0 1.14-.1c1.68-.98 1.84-5.88 1.84-6.12a.84.84 0 0 0-.83-.94ZM76.12 141.61a.65.65 0 0 0-.78.47 98.43 98.43 0 0 0-.48 3.51c.38.8.72 1.6 1.02 2.44.17-1.88.4-3.75.7-5.6a.66.66 0 0 0-.46-.82Z" fill="#151921"/>
    <path d="m75.93 148.85-.26-.75c-.29-.82-.62-1.62-1-2.41v-.12c.16-1.34.31-2.47.48-3.53a.78.78 0 0 1 .35-.5.91.91 0 0 1 .7-.13.84.84 0 0 1 .61 1.02c-.3 1.86-.53 3.75-.7 5.59v.06l-.18.77Zm-.84-3.29c.23.48.46.99.68 1.55.16-1.58.37-3.17.61-4.75a.45.45 0 0 0-.3-.54.48.48 0 0 0-.46.17.32.32 0 0 0-.06.12 54.96 54.96 0 0 0-.48 3.45h.01Z" fill="#151921"/>
    <path d="m74.86 144.01-3.37-.34c-1-.04-2-.22-2.94-.55a.66.66 0 0 0-.84.24.63.63 0 0 0 .24.84c1.08.4 2.22.64 3.37.69l3.59.38a.64.64 0 0 0 .62-.65.66.66 0 0 0-.67-.6Z" fill="#151921"/>
    <path d="m74.86 145.5-3.74-.4c-1.1-.05-2.2-.28-3.25-.67a.7.7 0 0 1-.4-.45.84.84 0 0 1 .06-.72.84.84 0 0 1 1.14-.33c.78.28 1.6.44 2.44.49l3.78.38a.84.84 0 0 1 .84.84.84.84 0 0 1-.3.66.73.73 0 0 1-.57.2Zm-6.64-2.2a.37.37 0 0 0-.35.2.49.49 0 0 0 0 .38c.02.09.08.16.16.2 1 .37 2.06.6 3.13.65l3.73.39a.33.33 0 0 0 .24-.1.44.44 0 0 0 .16-.34c0-.35-.35-.41-.46-.42l-3.77-.4a8.2 8.2 0 0 1-2.57-.51.54.54 0 0 0-.27-.05Z" fill="#151921"/>
    <path d="M78.06 150.8c-1.13-1.8-2-3.75-2.6-5.79a.64.64 0 0 0-1.21.37 24.42 24.42 0 0 0 2.71 6.08c.43.7 1.54.04 1.1-.66Z" fill="#151921"/>
    <path d="M77.48 151.98a.83.83 0 0 1-.7-.4 24.54 24.54 0 0 1-2.74-6.14.78.78 0 0 1 .18-.8.93.93 0 0 1 .84-.25.8.8 0 0 1 .57.57 23.07 23.07 0 0 0 2.53 5.73.84.84 0 0 1 0 .84.95.95 0 0 1-.78.48l.1-.03Zm-2.62-7.2a.51.51 0 0 0-.36.15.38.38 0 0 0-.08.39 23.98 23.98 0 0 0 2.7 6.03.4.4 0 0 0 .35.2.5.5 0 0 0 .41-.26.35.35 0 0 0 0-.37 23.63 23.63 0 0 1-2.62-5.84.37.37 0 0 0-.27-.28l-.13-.01ZM95 161.08c-8.8.68-17.63-.26-26.09-2.76v.2c.02.15 0 .32-.06.47v.65a73.49 73.49 0 0 0 26.21 2.72c.77-.07.76-1.35-.06-1.28Z" fill="#151921"/>
    <path d="M89.35 162.79c-6.96 0-13.88-1-20.56-2.95l-.15-.05v-.84a.77.77 0 0 0 .05-.38l-.06-.51.3.1a71.74 71.74 0 0 0 26.03 2.74.71.71 0 0 1 .7.32.9.9 0 0 1-.23 1.24.84.84 0 0 1-.42.14c-1.87.11-3.77.19-5.66.19Zm-20.29-3.3A72.67 72.67 0 0 0 95 162.14a.42.42 0 0 0 .36-.25.49.49 0 0 0 0-.47.33.33 0 0 0-.32-.14 72.3 72.3 0 0 1-25.88-2.68c.01.14-.01.28-.06.42l-.04.45Z" fill="#151921"/>
    <path d="M96.67 162.28c-.09-.84-1.37-.8-1.28 0l.3 2.75a78.32 78.32 0 0 1-22.19-1.94c-1.22-.28-2.48-.55-3.66-.95-.61-.21-.4-.84-.44-1.44 0-.73-.08-1.47-.11-2.21-.04-.74-1.32-.8-1.28 0l.12 2.21c-.06.64.01 1.28.2 1.9a1.28 1.28 0 0 0 .85.67c.67.22 1.37.39 2.05.56a80.05 80.05 0 0 0 25.15 2.4.65.65 0 0 0 .63-.65l-.34-3.3Z" fill="#151921"/>
    <path d="M91.42 166.66a79.9 79.9 0 0 1-20.2-2.53l-.45-.12c-.53-.13-1.09-.27-1.6-.44a1.52 1.52 0 0 1-1.03-.79c-.18-.48-.25-1-.22-1.51v-.47l-.11-2.2a.79.79 0 0 1 .77-.85.86.86 0 0 1 .65.22.84.84 0 0 1 .28.62l.11 2.22v.42c0 .51 0 .72.3.84 1 .33 2 .61 3.03.84l.62.14a78.93 78.93 0 0 0 21.9 1.95l-.27-2.53a.73.73 0 0 1 .28-.7.93.93 0 0 1 1.26.2c.09.13.14.28.15.44l.37 3.36a.76.76 0 0 1-.17.56c-.17.19-.4.3-.65.32-1.68-.05-3.35 0-5.02 0Zm-22.8-8.55-.15.03a.37.37 0 0 0-.23.38l.12 2.22v.48c-.03.45.03.9.18 1.33a1.09 1.09 0 0 0 .76.56c.52.18 1.06.31 1.59.45l.45.12a80.52 80.52 0 0 0 25.07 2.4.53.53 0 0 0 .36-.18.34.34 0 0 0 .07-.25l-.37-3.36a.4.4 0 0 0-.26-.36.5.5 0 0 0-.48 0 .32.32 0 0 0-.12.3l.33 2.98h-.22a78.85 78.85 0 0 1-22.24-1.95l-.62-.14c-1.04-.23-2.07-.5-3.08-.84-.62-.21-.6-.78-.58-1.25v-.38l-.11-2.22a.43.43 0 0 0-.46-.32Z" fill="#151921"/>
    <path d="M85 156.27a39.07 39.07 0 0 0-5.64-3.78c0 .18-.06.35-.15.5a2.9 2.9 0 0 1-.46.6 37.6 37.6 0 0 1 5.05 3.36c-.37 1.4-.94 2.76-1.68 4.01-.43.71.69 1.33 1.12.63a16.83 16.83 0 0 0 1.93-4.72.65.65 0 0 0-.17-.6Z" fill="#151921"/>
    <path d="M82.7 162.13a.95.95 0 0 1-.48-.14.77.77 0 0 1-.38-.5.79.79 0 0 1 .1-.62c.73-1.2 1.3-2.48 1.68-3.83a36.72 36.72 0 0 0-4.93-3.25l-.25-.13.25-.25a3 3 0 0 0 .34-.46.78.78 0 0 0 .12-.4v-.35l.3.15c2 1.1 3.9 2.37 5.67 3.8a.85.85 0 0 1 .25.84 17.16 17.16 0 0 1-1.97 4.77.84.84 0 0 1-.7.37Zm-3.63-8.57c1.7.94 3.34 2.01 4.88 3.2l.11.1v.13c-.39 1.43-.97 2.8-1.73 4.07a.38.38 0 0 0 .15.54c.05.03.1.05.16.06a.42.42 0 0 0 .44-.2 16.68 16.68 0 0 0 1.92-4.65.41.41 0 0 0-.1-.4 39.18 39.18 0 0 0-5.34-3.63c-.03.11-.08.22-.14.31-.1.17-.22.32-.35.47ZM96.37 161.48a8.18 8.18 0 0 0-1.92-3.03 6.34 6.34 0 0 0-2.8-1.86.64.64 0 0 0-.76.45.66.66 0 0 0 .45.78c.87.3 1.64.84 2.22 1.55.7.7 1.25 1.54 1.6 2.47a.63.63 0 1 0 1.21-.36Z" fill="#151921"/>
    <path d="M95.76 162.51a.85.85 0 0 1-.84-.6 6.57 6.57 0 0 0-1.54-2.4 4.66 4.66 0 0 0-2.13-1.48.85.85 0 0 1-.52-.4.84.84 0 0 1-.08-.64.9.9 0 0 1 .4-.53c.2-.1.43-.13.64-.08a6.3 6.3 0 0 1 2.89 1.93 8.21 8.21 0 0 1 1.97 3.1.84.84 0 0 1-.58 1.07.72.72 0 0 1-.2.03Zm-4.26-5.75a.38.38 0 0 0-.2.06.43.43 0 0 0-.22.27.44.44 0 0 0 .32.52c.9.31 1.71.87 2.32 1.61a7 7 0 0 1 1.63 2.53.44.44 0 0 0 .53.3.46.46 0 0 0 .3-.54 7.95 7.95 0 0 0-1.88-2.94 5.9 5.9 0 0 0-2.7-1.81h-.1ZM86.8 141.55a7.55 7.55 0 0 0-2.47-.27l-2.8.05-5.52.1a.64.64 0 1 0 0 1.28l5.32-.1 2.6-.05c.63-.03 1.25 0 1.87.08l-2.52 7.97a.6.6 0 0 0 0 .39c0-.09.07-.17.12-.26.11-.2.27-.36.47-.48l.32-.15c.19-.03.39-.03.58 0l2.42-7.75a.66.66 0 0 0-.4-.8Z" fill="#151921"/>
    <path d="m83.34 151.59-.2-.5a.84.84 0 0 1 0-.55l2.42-7.72a11.4 11.4 0 0 0-1.52-.04l-2.67.05-5.31.09a.84.84 0 0 1-.84-.84.84.84 0 0 1 .84-.84l6.4-.12h1.92a7.8 7.8 0 0 1 2.52.3.83.83 0 0 1 .52.39.84.84 0 0 1 .08.64l-2.53 7.93h-.17a1.18 1.18 0 0 0-.5 0l-.29.13c-.15.1-.28.24-.37.4a1 1 0 0 0-.1.22l-.2.46Zm1.23-9.26c.43 0 .86.02 1.28.08h.23l-2.4 7.7a.8.8 0 0 1 .13-.09l.35-.15c.16-.05.34-.08.51-.07l2.37-7.57a.44.44 0 0 0-.32-.51 7.39 7.39 0 0 0-2.4-.27h-1.91l-6.4.11a.4.4 0 0 0-.3.13.4.4 0 0 0-.1.31.39.39 0 0 0 .42.42l7.98-.14.56.05Z" fill="#151921"/>
    <path d="M83.27 150.81a.6.6 0 0 0-.43-.5 9.07 9.07 0 0 0-8.48 1.88 4.16 4.16 0 0 0-1.4 1.9 1.68 1.68 0 0 0 .84 1.98 2.98 2.98 0 0 0 2.29-.07c.77-.3 1.5-.73 2.13-1.26 1.4-1.07 2.78-2.65 4.64-2.8a.68.68 0 0 0 .58-.8.67.67 0 0 0-.17-.33Zm-7.51 3.93c-.34.13-1.38.53-1.56 0-.18-.53.61-1.23.98-1.56a7.63 7.63 0 0 1 5.62-1.9c-.61.3-1.2.68-1.73 1.1-.97.96-2.08 1.75-3.29 2.36h-.02Z" fill="#151921"/>
    <path d="M74.7 156.48c-.34 0-.69-.07-1-.22a1.93 1.93 0 0 1-.91-2.23c.29-.79.8-1.48 1.46-2a9.26 9.26 0 0 1 8.67-1.92.8.8 0 0 1 .58.61.9.9 0 0 1 .13.84.84.84 0 0 1-.74.56c-1.4.1-2.53 1.08-3.62 2.01-.3.26-.6.52-.9.75-.67.55-1.42.98-2.22 1.29a4.5 4.5 0 0 1-1.44.3Zm5.66-6.33a8.9 8.9 0 0 0-5.84 2.2 3.89 3.89 0 0 0-1.32 1.79 1.5 1.5 0 0 0 .68 1.75c.7.25 1.46.22 2.13-.08.75-.3 1.46-.71 2.1-1.22.3-.24.59-.5.84-.75 1.15-.97 2.33-1.98 3.86-2.1.09-.01.17-.04.24-.09a.49.49 0 0 0 .07-.68l-.05-.05v-.07a.38.38 0 0 0-.29-.34 8.43 8.43 0 0 0-2.42-.36Zm-5.64 5.05a1 1 0 0 1-.4-.08.58.58 0 0 1-.3-.33c-.21-.67.51-1.32.95-1.69l.1-.08a7.77 7.77 0 0 1 5.8-1.98l.78.05-.7.36c-.6.3-1.16.68-1.68 1.1l-.73.61a9.18 9.18 0 0 1-2.65 1.79 3.5 3.5 0 0 1-1.17.28v-.03Zm5.33-3.77a7.42 7.42 0 0 0-4.7 1.91l-.1.08c-.33.3-.96.85-.84 1.27l.04.05.05.03c.13.06.44.08 1.2-.2a9.16 9.16 0 0 0 2.53-1.7l.74-.6c.34-.3.7-.57 1.08-.81v-.03Z" fill="#151921"/>
    <path d="M92.73 152.3a13.62 13.62 0 0 0-4.78-2.72c-1.03-.24-2.1-.33-3.16-.27-.84 0-2.05-.1-2.31.89a.7.7 0 0 0 0 .32h-.43a.64.64 0 1 0 0 1.28c3.29-.1 6.05 2.16 9.25 2.72.68.12 1.57.3 2.12-.26.67-.73-.14-1.5-.7-1.96Zm-9.03-1.69h1.25c.47-.02.94-.02 1.4 0 .95.07 1.88.33 2.72.78a20.63 20.63 0 0 1 2.92 1.94l-.52-.08c-2.72-.53-5.1-2.14-7.77-2.6v-.04Z" fill="#151921"/>
    <path d="M92.32 154.84c-.34 0-.68-.04-1-.12h-.08a18 18 0 0 1-3.9-1.32c-1.68-.71-3.43-1.47-5.28-1.4a.84.84 0 0 1-.84-.84.84.84 0 0 1 .84-.88h.21v-.15c.28-1.03 1.4-1.03 2.2-1.04h.32a11.1 11.1 0 0 1 3.22.27c1.8.58 3.45 1.52 4.86 2.76.51.34.87.86 1.02 1.46a1.12 1.12 0 0 1-.33.84 1.68 1.68 0 0 1-1.24.42Zm-10.1-3.26c1.83.11 3.61.6 5.24 1.43 1.22.57 2.5 1 3.82 1.3h.06c.64.1 1.42.24 1.86-.22a.62.62 0 0 0 .22-.48c0-.48-.66-.99-.85-1.17a13.1 13.1 0 0 0-4.7-2.67 10.79 10.79 0 0 0-3.09-.26h-.32c-.9 0-1.62.06-1.8.73a.3.3 0 0 0 0 .21l.07.26h-.7a.4.4 0 0 0-.39.28.4.4 0 0 0-.02.17.4.4 0 0 0 .11.3.39.39 0 0 0 .29.1h.23l-.03.02Zm10.36 2.03-.69-.08-.54-.08a20.3 20.3 0 0 1-3.84-1.3 18.45 18.45 0 0 0-3.9-1.3l-.39-.07.35-.35h.48l.84-.04h1.43c.98.08 1.93.37 2.8.84.88.47 1.72 1 2.52 1.6l.47.36.47.43Zm-7.46-2.82c.84.27 1.68.62 2.52.97 1.11.5 2.26.9 3.44 1.2-.7-.5-1.45-.98-2.23-1.4-.8-.42-1.7-.68-2.62-.75a9.72 9.72 0 0 0-1.07-.02h-.04Z" fill="#151921"/>
    <path d="M88.05 153.4a37.12 37.12 0 0 0-7.71.36l.5.19c.41.17.82.37 1.21.6.1.06.2.14.28.23a37.4 37.4 0 0 1 5.75-.11c.82.05.79-1.23-.03-1.27Z" fill="#151921"/>
    <path d="m82.26 155-.08-.07a1.05 1.05 0 0 0-.23-.2 9.85 9.85 0 0 0-1.2-.6l-.26-.1a1.83 1.83 0 0 1-.23-.08l-.72-.28.76-.12a37.4 37.4 0 0 1 7.77-.36.84.84 0 0 1 .84.95.77.77 0 0 1-.52.71c-.1.04-.21.05-.32.04-1.9-.12-3.8-.09-5.7.1h-.11Zm-1.1-1.14c.34.15.68.32 1 .51.1.06.18.12.25.19a36.65 36.65 0 0 1 5.83-.1.34.34 0 0 0 .2-.2l.03-.15a.45.45 0 0 0-.42-.5c-2.3-.14-4.61-.05-6.9.25ZM91.76 156.22c-1.5-.2-3-.34-4.51-.4-1.52-.07-2.96.04-4.41-.07a.65.65 0 0 0-.5.15.64.64 0 0 0-.16.74.63.63 0 0 0 .66.38c1.4.12 2.83 0 4.2.07 1.38.08 2.91.18 4.35.37a.66.66 0 0 0 .78-.46.65.65 0 0 0-.41-.78Z" fill="#151921"/>
    <path d="M91.57 157.67h-.15c-1.4-.18-2.86-.3-4.33-.36h-1.77c-.82.02-1.65 0-2.48-.06a.84.84 0 0 1-.84-.84.92.92 0 0 1 .3-.66.73.73 0 0 1 .56-.2 28 28 0 0 0 2.52.05h1.9c1.44.07 2.97.2 4.53.42a.7.7 0 0 1 .5.32.9.9 0 0 1 .13.71.84.84 0 0 1-.87.62Zm-5.5-.84h1.04c1.47.06 2.94.18 4.37.37a.47.47 0 0 0 .54-.3.48.48 0 0 0-.07-.37.33.33 0 0 0-.21-.15c-1.55-.2-3.06-.34-4.5-.4h-1.87c-.85 0-1.69 0-2.53-.06-.04 0-.09 0-.13.02a.32.32 0 0 0-.11.08.47.47 0 0 0-.16.34.45.45 0 0 0 .45.42c.84.06 1.69.06 2.45.05h.73Z" fill="#151921"/>
    <path d="M91.9 156.29c-1.53-1.15-3.98-3.07-6.1-4.52-.2.04-.42.04-.62 0a8.02 8.02 0 0 1-2.45-1.1.57.57 0 0 0 .22.84c2.85 1.83 5.61 3.8 8.27 5.9a.64.64 0 0 0 .84-.22.65.65 0 0 0-.16-.9Z" fill="#151921"/>
    <path d="M91.55 157.69a.7.7 0 0 1-.43-.15l-1.4-1.06a76.2 76.2 0 0 0-6.85-4.83.8.8 0 0 1-.3-1.1l.1-.22.2.14c.25.19.51.35.79.49.5.24 1.03.43 1.57.58.17.03.36.03.53 0h.1l.06.05c1.56 1.07 3.32 2.41 4.73 3.48l1.38 1.04a.84.84 0 0 1 .26 1.16.84.84 0 0 1-.58.4l-.16.02Zm-8.67-6.73a.34.34 0 0 0 .2.28 75.28 75.28 0 0 1 6.88 4.87l1.4 1.06a.35.35 0 0 0 .27.06c.12-.03.23-.1.3-.2a.45.45 0 0 0-.16-.61l-1.38-1.05c-1.39-1.05-3.1-2.36-4.63-3.42-.21.04-.43.04-.64 0a8.39 8.39 0 0 1-1.68-.62c-.2-.1-.38-.22-.56-.34v-.03ZM68.35 143.5c0-.84-1.31-.84-1.27 0 .2 4.95.56 9.9 1.07 14.84.08.84 1.36.84 1.28 0-.51-4.94-.87-9.88-1.08-14.84Z" fill="#151921"/>
    <path d="M68.86 159.15a.99.99 0 0 1-.4-.09.84.84 0 0 1-.52-.72c-.5-4.92-.84-9.92-1.07-14.85a.73.73 0 0 1 .35-.69.9.9 0 0 1 .9 0 .85.85 0 0 1 .44.72c.21 4.94.57 9.92 1.08 14.82a.7.7 0 0 1-.29.68.84.84 0 0 1-.49.13Zm-1.18-16.06a.48.48 0 0 0-.25.06.33.33 0 0 0-.14.32c.2 4.93.56 9.92 1.07 14.82a.44.44 0 0 0 .28.38.5.5 0 0 0 .47 0 .3.3 0 0 0 .1-.3c-.5-4.9-.83-9.9-1.07-14.85a.41.41 0 0 0-.22-.36.5.5 0 0 0-.24-.07ZM50.62 141.28a.65.65 0 0 1 .77.48c.15 1.17.28 2.34.38 3.52-.4.79-.76 1.6-1.08 2.42a78.7 78.7 0 0 0-.55-5.62.67.67 0 0 1 .48-.8Z" fill="#151921"/>
    <path d="m50.56 148.62-.08-.9c-.12-1.9-.3-3.78-.55-5.64a.84.84 0 0 1 .64-1 .83.83 0 0 1 .7.14.73.73 0 0 1 .32.51c.14 1.06.27 2.21.39 3.53V145.38c-.4.78-.76 1.58-1.07 2.4l-.35.84Zm.1-7.13a.45.45 0 0 0-.31.53c.2 1.58.37 3.18.48 4.76.24-.56.48-1.06.73-1.54a92.84 92.84 0 0 0-.38-3.46.35.35 0 0 0-.15-.22.44.44 0 0 0-.36-.07Z" fill="#151921"/>
    <path d="m51.84 143.7 3.37-.25c1 0 2-.16 2.96-.46a.64.64 0 0 1 .6 1.12c-1.08.37-2.22.57-3.37.6l-3.59.28a.65.65 0 0 1-.61-.67.66.66 0 0 1 .64-.61Z" fill="#151921"/>
    <path d="M51.76 145.2a.7.7 0 0 1-.5-.22.9.9 0 0 1-.3-.66.84.84 0 0 1 .85-.85l3.79-.3a8.13 8.13 0 0 0 2.45-.41.85.85 0 0 1 1.12.37.91.91 0 0 1 0 .71.73.73 0 0 1-.4.44c-1.06.37-2.17.57-3.28.6l-3.74.3.01.02Zm.1-1.28c-.1 0-.45.06-.47.41 0 .13.06.25.15.35a.3.3 0 0 0 .1.07.3.3 0 0 0 .14.03l3.74-.3a10.5 10.5 0 0 0 3.14-.56.38.38 0 0 0 .18-.2.49.49 0 0 0 0-.37.45.45 0 0 0-.6-.17 8.4 8.4 0 0 1-2.57.44l-3.8.3Z" fill="#151921"/>
    <path d="M48.43 150.4a23.2 23.2 0 0 0 2.74-5.7.64.64 0 1 1 1.22.39 24.57 24.57 0 0 1-2.88 6 .64.64 0 0 1-1.08-.68Z" fill="#151921"/>
    <path d="M49.02 151.6a.85.85 0 0 1-.5-.16.84.84 0 0 1-.26-1.15 22.82 22.82 0 0 0 2.72-5.66.79.79 0 0 1 .6-.55.94.94 0 0 1 .84.28.76.76 0 0 1 .15.79 24.72 24.72 0 0 1-2.9 6.07.79.79 0 0 1-.65.38Zm2.73-7.12h-.1a.4.4 0 0 0-.27.27 23.76 23.76 0 0 1-2.77 5.77.4.4 0 0 0 0 .46c.04.04.08.08.13.1.04.04.1.06.15.07a.4.4 0 0 0 .33-.05.42.42 0 0 0 .12-.13 24.31 24.31 0 0 0 2.86-5.96.38.38 0 0 0-.08-.38.49.49 0 0 0-.37-.15ZM31.23 160.23c8.77.91 17.64.22 26.16-2.06v.18c-.02.16 0 .33.05.48v.65a73.3 73.3 0 0 1-26.23 2.03c-.85-.08-.8-1.38.02-1.28Z" fill="#151921"/>
    <path d="M38.77 162.12c-2.53 0-5.06-.14-7.58-.4a.85.85 0 0 1-.7-.5.92.92 0 0 1 .09-.9.75.75 0 0 1 .71-.3c8.75.92 17.6.22 26.1-2.05l.3-.09-.07.5a.84.84 0 0 0 0 .39V159.68l-.16.04a73.24 73.24 0 0 1-18.7 2.4Zm-7.58-1.69a.34.34 0 0 0-.28.13.52.52 0 0 0 0 .49.4.4 0 0 0 .36.24c8.69.9 17.46.22 25.91-2v-.46a1 1 0 0 1 0-.38 72.25 72.25 0 0 1-25.94 1.98h-.05Z" fill="#151921"/>
    <path d="M29.53 161.4c.1-.85 1.38-.77 1.27.04l-.37 2.74a78.36 78.36 0 0 0 22.22-1.35c1.23-.25 2.53-.48 3.7-.84.61-.2.43-.84.47-1.43l.18-2.2c.06-.85 1.33-.78 1.28.04l-.18 2.22c.03.64-.06 1.28-.26 1.88a1.3 1.3 0 0 1-.91.66c-.67.2-1.37.34-2.06.5a79.62 79.62 0 0 1-25.2 1.76.65.65 0 0 1-.6-.67c.14-1.13.34-2.25.46-3.36Z" fill="#151921"/>
    <path d="M36.8 165.93c-2.39 0-4.77-.1-7.14-.31a.95.95 0 0 1-.64-.35.75.75 0 0 1-.16-.56l.46-3.37a.84.84 0 0 1 .53-.69.93.93 0 0 1 .9.1.72.72 0 0 1 .26.71l-.34 2.53a79.01 79.01 0 0 0 21.95-1.37l.64-.13c1-.2 2.05-.42 3.03-.72.3-.1.32-.31.32-.84v-.42l.17-2.2a.84.84 0 0 1 .47-.7.94.94 0 0 1 .9.06.79.79 0 0 1 .33.72l-.17 2.21v.47c.02.51-.07 1.03-.27 1.5a1.52 1.52 0 0 1-1.03.76c-.54.16-1.1.28-1.64.41l-.43.1a78.13 78.13 0 0 1-8.42 1.47c-3.22.4-6.47.61-9.72.62Zm-6.55-4.9a.62.62 0 0 0-.2 0 .44.44 0 0 0-.28.35l-.46 3.37c0 .09.02.18.08.25a.51.51 0 0 0 .35.19 80.4 80.4 0 0 0 25.11-1.75l.44-.1c.54-.12 1.09-.25 1.62-.4a1.13 1.13 0 0 0 .78-.55c.16-.43.24-.88.21-1.33v-.48l.18-2.22a.36.36 0 0 0-.14-.33.53.53 0 0 0-.5 0 .41.41 0 0 0-.23.35l-.17 2.2v.4c0 .45 0 1.02-.61 1.22-1.01.3-2.04.54-3.07.73l-.64.13a79.23 79.23 0 0 1-22.29 1.35h-.22l.4-2.96a.33.33 0 0 0-.1-.32.46.46 0 0 0-.26-.1Z" fill="#151921"/>
    <path d="M41.35 155.69a39.35 39.35 0 0 1 5.74-3.63 1 1 0 0 0 .13.51c.1.18.22.34.35.5l.1.1c-1.8.93-3.53 2.01-5.16 3.22.34 1.42.88 2.79 1.6 4.06.4.72-.73 1.31-1.13.6a17 17 0 0 1-1.82-4.78.63.63 0 0 1 .2-.58Z" fill="#151921"/>
    <path d="M43.51 161.6a.84.84 0 0 1-.71-.43 17.09 17.09 0 0 1-1.84-4.82.84.84 0 0 1 .26-.84 40.17 40.17 0 0 1 5.77-3.64l.28-.15v.31c0 .16.03.31.1.45.1.17.2.33.34.47l.04.05.24.24-.25.13c-1.77.9-3.45 1.95-5.05 3.13.33 1.35.85 2.65 1.54 3.87a.77.77 0 0 1 0 .79.92.92 0 0 1-.72.44Zm3.37-9.21c-1.9 1-3.72 2.16-5.43 3.47a.44.44 0 0 0-.12.4c.36 1.65.97 3.24 1.8 4.71a.38.38 0 0 0 .35.21.51.51 0 0 0 .42-.22.36.36 0 0 0 0-.38 15.99 15.99 0 0 1-1.61-4.11v-.13l.1-.09a37.59 37.59 0 0 1 4.95-3.11l-.3-.44c-.05-.1-.1-.2-.13-.31h-.03ZM29.84 160.6a8.13 8.13 0 0 1 2-2.98 6.17 6.17 0 0 1 2.84-1.79.65.65 0 0 1 .77.48.64.64 0 0 1-.48.77c-.87.28-1.65.8-2.26 1.49a6.65 6.65 0 0 0-1.68 2.42.65.65 0 0 1-.33.38.66.66 0 0 1-.51.03.63.63 0 0 1-.35-.8Z" fill="#151921"/>
    <path d="M30.44 161.65a.87.87 0 0 1-.55-.21.85.85 0 0 1-.2-.27.84.84 0 0 1-.05-.63 8.42 8.42 0 0 1 2.05-3.07 6.3 6.3 0 0 1 2.94-1.84.78.78 0 0 1 .63.1.83.83 0 0 1 .4.53.84.84 0 0 1-.63 1.02 4.8 4.8 0 0 0-2.17 1.43 6.57 6.57 0 0 0-1.6 2.36.85.85 0 0 1-.82.58Zm4.39-5.63h-.09c-1.06.31-2 .91-2.74 1.74a7.93 7.93 0 0 0-2 3.06c0 .05.01.1.04.15a.42.42 0 0 0 .24.23.45.45 0 0 0 .55-.29c.36-.95.94-1.81 1.68-2.52a5.05 5.05 0 0 1 2.36-1.54.44.44 0 0 0 .33-.51.47.47 0 0 0-.2-.28.4.4 0 0 0-.17-.03ZM39.95 140.93c.8-.2 1.64-.27 2.47-.2l2.8.12 5.5.24a.64.64 0 0 1 .62.67.65.65 0 0 1-.42.58.65.65 0 0 1-.25.03l-5.3-.23-2.6-.12a10.6 10.6 0 0 0-1.87 0l2.28 8.04a.6.6 0 0 1 0 .38 2.25 2.25 0 0 0-.11-.25c-.1-.2-.27-.38-.46-.5l-.32-.16a1.3 1.3 0 0 0-.58-.04l-2.2-7.78a.66.66 0 0 1 .44-.78Z" fill="#151921"/>
    <path d="m43.12 151.05-.17-.52c0-.07-.06-.15-.09-.22-.1-.17-.23-.32-.4-.42l-.28-.14a1.13 1.13 0 0 0-.46 0h-.18l-2.27-7.99a.85.85 0 0 1 .62-1.01c.82-.22 1.68-.3 2.52-.23l1.92.08 6.4.3a.79.79 0 0 1 .68.42.9.9 0 0 1 0 .9.78.78 0 0 1-.72.37l-7.9-.35c-.54-.04-1.07-.04-1.6 0l2.2 7.79c.05.17.03.36-.05.53l-.22.49Zm-1.24-1.75c.15 0 .3.01.45.05l.34.16.16.12-2.2-7.76h.24a10.5 10.5 0 0 1 1.86 0l7.96.35a.31.31 0 0 0 .34-.17.5.5 0 0 0 0-.49.37.37 0 0 0-.34-.2l-6.38-.29-1.92-.08c-.8-.06-1.62 0-2.4.2a.47.47 0 0 0-.35.52l2.18 7.64.06-.05Z" fill="#151921"/>
    <path d="M43.6 151.42c1.85.2 3.2 1.8 4.55 2.93.64.54 1.36.99 2.13 1.31a3 3 0 0 0 2.28.13 1.68 1.68 0 0 0 .84-1.96 4.15 4.15 0 0 0-1.34-1.93 9.05 9.05 0 0 0-8.42-2.11.61.61 0 0 0-.45.5.67.67 0 0 0 .06.99c.1.07.22.12.34.14Zm3.75.55a9.92 9.92 0 0 0-1.69-1.18 7.56 7.56 0 0 1 5.57 2.07c.36.34 1.15 1.03.94 1.59-.21.56-1.22.1-1.56 0a13.36 13.36 0 0 1-3.26-2.48Z" fill="#151921"/>
    <path d="M51.71 156.17a4.2 4.2 0 0 1-1.5-.32 7.83 7.83 0 0 1-2.2-1.34c-.29-.24-.58-.5-.88-.78-1.07-.96-2.17-1.95-3.57-2.1a.83.83 0 0 1-.72-.57.92.92 0 0 1 .15-.85.84.84 0 0 1 .6-.6 9.2 9.2 0 0 1 8.62 2.1 4.37 4.37 0 0 1 1.4 2.03 1.93 1.93 0 0 1-1.9 2.43Zm-5.79-6.48c-.75.02-1.49.13-2.2.34a.4.4 0 0 0-.3.34v.06l-.06.04a.48.48 0 0 0-.1.5.41.41 0 0 0 .37.28c1.53.17 2.69 1.2 3.8 2.21l.85.77c.61.53 1.31.96 2.07 1.27.66.32 1.41.37 2.11.14a1.52 1.52 0 0 0 .73-1.72 3.9 3.9 0 0 0-1.28-1.83 8.9 8.9 0 0 0-5.99-2.4Zm5.77 5.22a3.3 3.3 0 0 1-1.17-.3 9.5 9.5 0 0 1-2.6-1.85 23.6 23.6 0 0 0-.71-.63 9.43 9.43 0 0 0-1.69-1.16l-.69-.37h.79a7.9 7.9 0 0 1 5.72 2.13l.08.09c.43.4 1.15 1.07.91 1.73a.58.58 0 0 1-.3.32.85.85 0 0 1-.34.04Zm-5.27-3.9c.37.24.72.5 1.06.8l.72.63a9 9 0 0 0 2.48 1.78c.37.2.78.3 1.2.25a.18.18 0 0 0 .08-.1c.15-.38-.47-.97-.8-1.28l-.08-.08a7.42 7.42 0 0 0-4.66-2Z" fill="#151921"/>
    <path d="M33 153.45c.53.57 1.43.42 2.12.32 3.18-.47 5.99-2.66 9.25-2.48a.64.64 0 1 0 .05-1.28H44c.03-.1.03-.2 0-.3-.24-1-1.48-.92-2.3-.97-1.05-.09-2.12-.02-3.16.2-1.77.52-3.42 1.4-4.85 2.58-.53.44-1.35 1.2-.68 1.93Zm1.99-.96-.52.07.45-.35c.8-.56 1.65-1.07 2.53-1.5a6.73 6.73 0 0 1 2.72-.72c.47-.03.95-.03 1.42 0l.8.06h.4c-2.68.44-5.1 2-7.8 2.44Z" fill="#151921"/>
    <path d="M34.15 154.07a1.68 1.68 0 0 1-1.3-.48 1.04 1.04 0 0 1-.3-.84c.15-.6.53-1.11 1.05-1.44a13.46 13.46 0 0 1 4.93-2.63 11.5 11.5 0 0 1 3.23-.19h.3c.84 0 1.93.07 2.18 1.1v.16h.21a.85.85 0 0 1 .75.57c.03.11.04.22.04.33a.84.84 0 0 1-.85.8c-1.84.02-3.65.45-5.3 1.25a18.4 18.4 0 0 1-3.95 1.21h-.06c-.3.08-.62.13-.93.16Zm-.98-.76c.43.47 1.22.35 1.85.26h.07c1.32-.25 2.6-.65 3.83-1.19a12.86 12.86 0 0 1 5.66-1.3.37.37 0 0 0 .26-.38.4.4 0 0 0-.09-.32.4.4 0 0 0-.3-.15h-.73l.08-.27a.44.44 0 0 0 0-.2c-.16-.67-.85-.75-1.78-.78h-.32a10.86 10.86 0 0 0-3.1.19c-1.75.5-3.38 1.36-4.78 2.52-.2.16-.84.66-.89 1.14a.64.64 0 0 0 .2.48h.04Zm.63-.48.54-.43a21.28 21.28 0 0 1 3-1.89 7 7 0 0 1 2.8-.73h1.43l.85.06h.48l.05.05-.13.13v.23c-1.35.25-2.66.66-3.92 1.2a20.4 20.4 0 0 1-3.87 1.2c-.19 0-.37.04-.55.06l-.68.12Zm6.87-2.64h-.48c-.92.05-1.82.28-2.65.7-.78.39-1.54.84-2.26 1.33 1.19-.28 2.35-.65 3.48-1.12.84-.32 1.68-.66 2.57-.9h-.66Z" fill="#151921"/>
    <path d="M38.37 152.73c2.58-.07 5.16.12 7.7.57-.15.06-.33.11-.49.18-.43.16-.84.35-1.24.57-.1.06-.2.14-.3.22-1.9-.23-3.8-.32-5.72-.26-.83.03-.77-1.25.05-1.28Z" fill="#151921"/>
    <path d="M44.13 154.49h-.1c-1.9-.24-3.8-.32-5.7-.26a.76.76 0 0 1-.56-.22.76.76 0 0 1-.22-.55.84.84 0 0 1 .84-.93c2.6-.08 5.2.11 7.76.57l.76.14-.73.26-.22.09-.28.1c-.41.15-.82.33-1.21.55-.09.05-.17.12-.24.2l-.1.05Zm-4.6-.7c1.49-.01 2.98.08 4.45.26.08-.07.16-.13.25-.18.34-.19.68-.35 1.03-.5-2.27-.35-4.58-.5-6.88-.43a.47.47 0 0 0-.42.32.46.46 0 0 0-.02.19.34.34 0 0 0 .35.35l1.24-.02ZM34.58 155.46c1.51-.15 3.02-.25 4.53-.28 1.52-.02 2.95.13 4.41.04a.64.64 0 0 1 .62.67.66.66 0 0 1-.67.6c-1.41.09-2.83-.05-4.2-.04a48.77 48.77 0 0 0-4.62.27.63.63 0 0 1-.54-.49.65.65 0 0 1 .27-.67.66.66 0 0 1 .24-.1h-.04Z" fill="#151921"/>
    <path d="M34.77 156.93a.84.84 0 0 1-.69-1.36.72.72 0 0 1 .51-.32c1.57-.16 3.1-.25 4.54-.28h1.9c.84 0 1.69.06 2.53 0 .2 0 .4.08.55.22a.92.92 0 0 1 .28.67.84.84 0 0 1-.84.84c-.84.05-1.68 0-2.53 0-.58 0-1.17-.04-1.76 0-1.46 0-2.92.1-4.34.25l-.15-.02Zm4.68-1.55h-.34c-1.43 0-2.94.12-4.5.28a.28.28 0 0 0-.21.15.46.46 0 0 0-.08.36.43.43 0 0 0 .36.33l.17-.01c1.44-.15 2.9-.24 4.37-.25h1.8c.8.04 1.62.04 2.44 0a.45.45 0 0 0 .47-.4.51.51 0 0 0-.15-.35.25.25 0 0 0-.1-.09.26.26 0 0 0-.14-.02c-.84.05-1.68 0-2.52 0-.53.02-1.06 0-1.57 0Z" fill="#151921"/>
    <path d="M34.46 155.53c1.57-1.11 4.07-2.97 6.21-4.37.21.05.43.05.64 0a7.96 7.96 0 0 0 2.46-1.03.57.57 0 0 1-.24.84c-2.33 1.23-6.27 4.21-8.42 5.7a.64.64 0 0 1-.84-.24.65.65 0 0 1 .2-.9Z" fill="#151921"/>
    <path d="M34.79 156.93h-.19a.94.94 0 0 1-.58-.41.84.84 0 0 1 .3-1.16l1.43-1.01c1.43-1.03 3.21-2.32 4.8-3.37l.07-.05h.08c.18.03.36.03.54 0a8.34 8.34 0 0 0 1.59-.55c.28-.12.54-.28.8-.45l.2-.15.1.22a.79.79 0 0 1-.08.9.79.79 0 0 1-.25.2 76.64 76.64 0 0 0-6.97 4.65l-1.43 1.03a.71.71 0 0 1-.41.15Zm-.22-1.24a.43.43 0 0 0 .13.84.3.3 0 0 0 .26-.04l1.43-1.02a74 74 0 0 1 7.02-4.68c.05-.03.1-.07.14-.12.03-.05.05-.1.06-.17a9.09 9.09 0 0 1-2.3.9c-.2.04-.42.04-.63 0-1.56 1.02-3.3 2.27-4.71 3.3l-1.4 1ZM58.32 143.37c.06-.84 1.34-.84 1.28 0-.33 4.95-.82 9.88-1.46 14.8-.1.84-1.4.8-1.28 0 .64-4.92 1.13-9.85 1.46-14.8Z" fill="#151921"/>
    <path d="M57.42 159a.85.85 0 0 1-.5-.17.73.73 0 0 1-.28-.69c.64-4.9 1.14-9.87 1.48-14.78a.84.84 0 0 1 .46-.71.92.92 0 0 1 .9 0 .77.77 0 0 1 .33.7c-.33 4.94-.84 9.92-1.47 14.82a.84.84 0 0 1-.54.7.96.96 0 0 1-.38.12Zm1.57-16a.52.52 0 0 0-.23.06.38.38 0 0 0-.23.35c-.33 4.94-.84 9.92-1.47 14.82a.3.3 0 0 0 .1.3.49.49 0 0 0 .48 0 .43.43 0 0 0 .28-.37c.64-4.89 1.14-9.86 1.47-14.79a.32.32 0 0 0-.14-.33.47.47 0 0 0-.26-.07v.03ZM83.61 85.6c-6.91 2.26-14.97 1.98-20.2 7.68-.56.6.4 1.46.96.84 3.23-3.51 8.06-4.7 12.56-5.64 3.46-.72 7.05-1.4 10.23-2.94-1.17.2-2.37.21-3.55.06Z" fill="#151921"/>
    <path d="M86.36 85.67a44 44 0 0 1-8.85 2.53l-.65.12c-4.64.96-9.44 2.2-12.68 5.7a.4.4 0 0 1-.6 0 .39.39 0 0 1-.04-.57c3.64-3.96 8.78-5.05 13.75-6.04a55.92 55.92 0 0 0 6.82-1.76c-.32 0-.64-.08-.95-.14-1.95.6-3.97 1.04-5.96 1.45-5.05 1.05-10.23 2.13-13.98 6.18a.84.84 0 0 0 .07 1.18c.16.15.38.24.6.24a.84.84 0 0 0 .6-.28c3.15-3.42 7.88-4.63 12.45-5.58l.65-.12c3.49-.73 7.05-1.47 10.2-3.13-.47.1-.95.18-1.43.22Z" fill="#151921"/>
    <path d="m95.9 80.9-.2.2a5.69 5.69 0 0 1 0 3.28c-.84 2.96-3.36 4.45-6.22 5.13-5.73 1.36-11.7.32-17.47 1.35a17.32 17.32 0 0 0-7.83 3.37c-.64.51.26 1.43.9.92 4.94-3.94 11.7-3.45 17.67-3.6 3.17-.09 6.53-.3 9.5-1.56a8.17 8.17 0 0 0 4.94-6.3c.19-1.26 0-2.55-.53-3.7-.25.3-.5.61-.76.9Z" fill="#151921"/>
    <path d="m96.78 79.8-.28.38c.47 1.08.64 2.28.48 3.45a8 8 0 0 1-4.83 6.15c-2.99 1.27-6.43 1.45-9.42 1.54-.77 0-1.56 0-2.35.04-5.44.07-11.06.14-15.41 3.61a.45.45 0 0 1-.46.07.51.51 0 0 1-.3-.36.31.31 0 0 1 .13-.3 17.05 17.05 0 0 1 7.74-3.26c2.67-.4 5.38-.59 8.08-.55 3.15.07 6.3-.21 9.4-.84 3.43-.84 5.57-2.6 6.37-5.27a5.9 5.9 0 0 0-.05-3.52c-.1.12-.22.23-.34.34.28 1 .28 2.06 0 3.06-.75 2.53-2.8 4.21-6.07 4.98-3.07.61-6.19.88-9.31.8-2.73-.04-5.45.15-8.15.56-2.88.44-5.6 1.6-7.93 3.37a.72.72 0 0 0-.28.69.93.93 0 0 0 .57.69.9.9 0 0 0 .84-.14c4.21-3.37 9.78-3.45 15.15-3.52.84 0 1.6 0 2.37-.04 3.03-.08 6.51-.28 9.57-1.57a8.42 8.42 0 0 0 5.05-6.47c.2-1.33 0-2.68-.57-3.9ZM43.55 113.35a2.85 2.85 0 0 1-.4-.13l.3-.16a.65.65 0 0 0 .32-.55 119 119 0 0 1-.65-10.49c0-.84-1.3-.84-1.27 0 .06 3.37.27 6.75.61 10.14l-.84.48a.64.64 0 0 0-.31.46.65.65 0 0 0 .17.54c.2.2.43.38.68.53a4.85 4.85 0 0 0-.84 3.13c.06 1.9 0 3.8-.18 5.69-.1.84 1.19.84 1.28 0 .17-1.5.24-3 .22-4.5 0-1.34-.32-3.2 1.07-3.97a.65.65 0 0 0 .15-.97.65.65 0 0 0-.3-.2Z" fill="#151921"/>
    <path d="M41.7 123.8a.83.83 0 0 1-.51-.16.73.73 0 0 1-.28-.7c.18-1.86.24-3.75.17-5.62-.06-1.1.2-2.18.79-3.1a3.9 3.9 0 0 1-.53-.45.84.84 0 0 1-.1-1.07.9.9 0 0 1 .28-.27l.7-.4c-.33-3.37-.53-6.73-.59-10.02a.79.79 0 0 1 .84-.84.83.83 0 0 1 .63.23.83.83 0 0 1 .27.61c.06 3.49.28 7 .64 10.47a.84.84 0 0 1-.32.67.84.84 0 0 1 .14 1.52c-1.11.6-1.05 2-1 3.24v.53a33.2 33.2 0 0 1-.21 4.53.84.84 0 0 1-.53.7.88.88 0 0 1-.4.14Zm.76-22.19a.37.37 0 0 0-.4.4c.05 3.36.26 6.73.6 10.1v.13l-.94.55a.43.43 0 0 0-.1.66c.19.2.4.37.64.5l.2.13-.15.19a4.65 4.65 0 0 0-.84 3c.07 1.9 0 3.81-.17 5.71a.31.31 0 0 0 .1.31.49.49 0 0 0 .48 0 .43.43 0 0 0 .27-.37c.18-1.48.25-2.98.22-4.47v-.51c-.06-1.3-.12-2.9 1.21-3.64a.43.43 0 0 0 .2-.45.37.37 0 0 0-.28-.34c-.15-.03-.3-.08-.44-.13l-.4-.16.67-.39a.45.45 0 0 0 .22-.34c-.36-3.47-.58-7-.65-10.5a.43.43 0 0 0-.44-.38Z" fill="#151921"/>
    <path d="M84.34 121.03a1.13 1.13 0 0 1-.19-.58.84.84 0 0 1 0-.29c-4.74 2.18-10.16 2.36-15.26 2.62-5.8.3-11.62.3-17.42 0a52 52 0 0 1-9.47-1.15l-.16 1.27c5.6 1.3 11.48 1.32 17.18 1.36 5.89.1 11.78-.18 17.63-.84 2.74-.3 5.42-1.01 7.96-2.1-.1-.08-.2-.18-.27-.28Z" fill="#151921"/>
    <path d="M60.5 124.5H59c-5.7 0-11.59-.06-17.24-1.38h-.19l.22-1.68.23.05c3.1.67 6.26 1.06 9.43 1.15 5.75.27 11.6.27 17.4 0h.7c4.92-.26 10-.51 14.48-2.57l.31-.14v.34a.72.72 0 0 0 0 .24 1.12 1.12 0 0 0 .36.76l.23.22-.28.13a27.88 27.88 0 0 1-8.03 2.12c-5.35.58-10.74.84-16.12.76Zm-18.47-1.74c5.57 1.26 11.36 1.28 16.96 1.31 5.88.1 11.76-.17 17.6-.84a27.9 27.9 0 0 0 7.64-1.96.51.51 0 0 1-.07-.12c-.13-.2-.2-.44-.22-.68-4.5 1.99-9.51 2.24-14.37 2.48l-.7.04c-5.8.3-11.67.3-17.44 0a53 53 0 0 1-9.26-1.1l-.14.87Z" fill="#151921"/>
    <path d="M85.36 123.56c-.23-.37-.36-.8-.36-1.24a.84.84 0 0 0-1.16-.78.75.75 0 0 0-.42.46.76.76 0 0 0-.04.32c0 .4.07.8.19 1.17-8.7 3.08-18.2 3.87-31 2.9-1.54-.11-3.12-.25-4.85-.42l-.64-.07c-1.7-.08-3.4-.33-5.05-.73a.7.7 0 0 0-.73.12.94.94 0 0 0-.28.84.84.84 0 0 0 .53.64c1.63.4 3.29.66 4.96.75h.13c1.54.16 2.98.3 4.39.42 3.16.27 5.98.43 8.65.48h2.06c4.9.03 9.78-.4 14.6-1.3 2.92-.53 5.8-1.32 8.58-2.36a.91.91 0 0 0 .56-.57.8.8 0 0 0-.12-.63ZM65.32 94.02c-2.67-2.83-5.97-5-9.63-6.32a4.79 4.79 0 0 1-.68-.11c-.2.05-.4.05-.6 0l-.74-.15c-.2.13-.4.23-.62.33l-.28.09c4.32 1.53 8.41 3.47 11.58 6.98.54.61 1.53-.2.97-.82Z" fill="#151921"/>
    <path d="M65.49 93.89a24.97 24.97 0 0 0-9.26-6.2c-.41.04-.82 0-1.22-.1h-.13c3.81 1.47 7.43 3.37 10.29 6.56a.35.35 0 0 1 .09.35.5.5 0 0 1-.37.32.4.4 0 0 1-.4-.14c-3.11-3.46-7.18-5.42-11.42-6.95-.21.08-.44.14-.66.18 4.38 1.54 8.6 3.5 11.78 7.04.14.16.34.26.55.28h.24a.92.92 0 0 0 .68-.6.75.75 0 0 0-.17-.74Z" fill="#151921"/>
    <path d="M65.02 93.82c-2.15-1.48-4.8-2-7.35-2.53l-.84-.17c-2.64-.54-5.34-1-7.96-1.45l-1.39-.24c-2.93-.5-6.05-1.05-9.15-1.76a38.71 38.71 0 0 1-4.36-1.22l-.2-.06c-1.16-.42-2.76-1-3.19-2.18a1.2 1.2 0 0 1 .22-1.22c.13-.2.24-.4.33-.62.14-.42.17-.88.1-1.32a3.54 3.54 0 0 1 .39-2.04 1.68 1.68 0 0 1-.46-.46l-.51-.44-.31-.26c0 .07-.1.13-.14.2-.3.53-.5 1.1-.6 1.69-.04.31-.04.63 0 .94.06.4.02.82-.11 1.21l-.13.2c-.32.43-.5.93-.54 1.46-.02.72.2 1.43.62 2.02.84 1.27 2.52 1.88 3.67 2.33a53.99 53.99 0 0 0 9.47 2.36l.53.1c1.79.33 3.61.64 5.38.94l4.89.84c2.23.42 4.07.8 5.78 1.19 1.79.31 3.5.95 5.05 1.88.13.1.3.15.46.16.1 0 .21-.03.3-.08a.9.9 0 0 0 .51-.76.84.84 0 0 0-.46-.71Z" fill="#151921"/>
    <path d="M60.68 92.84a1.27 1.27 0 0 1-.84-.39c.1 2.24.25 4.47.44 6.74.07.84 1.35.84 1.28 0-.18-2.13-.32-4.27-.43-6.4-.14.04-.3.06-.45.05Z" fill="#151921"/>
    <path d="M60.96 99.99a.92.92 0 0 1-.4-.1.84.84 0 0 1-.5-.71c-.19-2.16-.34-4.42-.45-6.73v-.55l.39.39a1.03 1.03 0 0 0 .71.32c.12 0 .24-.02.36-.06l.26-.1v.29c.11 2.26.26 4.35.43 6.4a.72.72 0 0 1-.3.69.9.9 0 0 1-.5.16Zm-.91-7.1c.1 2.13.25 4.2.42 6.25a.45.45 0 0 0 .26.38.5.5 0 0 0 .48 0 .32.32 0 0 0 .12-.3c-.16-1.99-.3-4-.42-6.17h-.23c-.22 0-.44-.06-.63-.17Z" fill="#151921"/>
    <path d="M61.68 99.2a.69.69 0 0 0-.7-.43.84.84 0 0 0-.12-.18.75.75 0 0 0-.59-.25.62.62 0 0 0-.47.25c-.8 1-1.2 2.27-1.12 3.55-.02.45.13.89.42 1.23a.96.96 0 0 0 1.24.03c.27-.23.5-.52.65-.84.17-.27.31-.55.43-.84a3.23 3.23 0 0 0 .26-2.52ZM68.77 92.27c-.22.2-.5.3-.8.31-.17 0-.34-.04-.5-.12-.14 3.02-.2 6.03-.17 9.04a.64.64 0 1 0 1.28 0c-.04-3.06.04-6.18.2-9.23Z" fill="#151921"/>
    <path d="M67.95 102.34a.84.84 0 0 1-.84-.84c0-2.89 0-5.89.18-9.05v-.32l.3.15c.11.06.24.09.38.09.24 0 .48-.1.66-.25l.38-.33v.5c-.16 3.18-.23 6.28-.2 9.25a.79.79 0 0 1-.84.84l-.02-.04Zm-.27-9.54c-.13 3.01-.2 5.95-.17 8.74a.41.41 0 0 0 .28.4c.05.02.11.03.17.03a.4.4 0 0 0 .3-.12.37.37 0 0 0 .1-.29c0-2.83.05-5.8.18-8.85-.18.07-.36.12-.56.12l-.3-.03Z" fill="#151921"/>
    <path d="M70.1 103.59a6.87 6.87 0 0 0-1.13-1.88.7.7 0 0 0-.56-.22.6.6 0 0 0-.44-.38.8.8 0 0 0-.63.11.6.6 0 0 0-.27.42 5.41 5.41 0 0 0 0 1.98c.12.65.37 1.26.76 1.8a1.56 1.56 0 0 0 1.08.6H69c.31-.01.62-.14.84-.37a1.8 1.8 0 0 0 .26-2.06ZM59.71 127.38a.86.86 0 0 0-.63.23.84.84 0 0 0-.26.61l-.29 8.24a2.2 2.2 0 0 0-.6.27 1.48 1.48 0 0 0-.54 1.96c.12.21.3.39.52.5.08.05.16.07.24.1-.24 1.27-.4 2.57-.47 3.87a.78.78 0 0 0 .79.84.84.84 0 0 0 .84-.84 19.42 19.42 0 0 1 .85-4.75.92.92 0 0 0-.04-.36.84.84 0 0 0-.27-.36c.18-.22.28-.49.3-.77 0-.4 0-.84.04-1.22v-.58l.24-6.9a.84.84 0 0 0-.72-.84ZM43.72 126.86a.84.84 0 0 0-.38-.72.92.92 0 0 0-.9 0 .84.84 0 0 0-.42.7c-.07 3.88-.12 10.06.19 13.92a.9.9 0 0 0 .91.84h.07a.73.73 0 0 0 .72-.84c-.28-3.87-.19-10.04-.19-13.9Z" fill="#151921"/>
    <path d="M48.82 128.6a.65.65 0 0 0-.84-.17 12.7 12.7 0 0 1-4.77 1.52.64.64 0 0 0-.44.22.65.65 0 0 0-.08.7.64.64 0 0 0 .61.36c1.9-.22 3.73-.8 5.38-1.74a.64.64 0 0 0 .14-.89Z" fill="#151921"/>
    <path d="M43.2 131.44a.85.85 0 0 1-.04-1.7 12.5 12.5 0 0 0 4.67-1.5.85.85 0 0 1 1.16.25.9.9 0 0 1-.01.97.75.75 0 0 1-.24.21 14.19 14.19 0 0 1-5.46 1.76h-.09Zm5.1-2.9a.6.6 0 0 0-.27.06c-1.49.84-3.13 1.37-4.84 1.56a.44.44 0 0 0-.4.45c.01.12.07.23.16.3.08.08.18.11.29.1 1.86-.2 3.66-.76 5.29-1.67a.38.38 0 0 0 .17-.24.46.46 0 0 0-.06-.35.38.38 0 0 0-.34-.21ZM68.56 138.84a1.35 1.35 0 0 0 .4-1.16c-.07-.54-.17-1.08-.27-1.61l-.22-1.26c-.29-1.85-.77-4.97-.95-6.92a.73.73 0 0 0-.3-.5.92.92 0 0 0-.72-.18.84.84 0 0 0-.66.99c.16 1.68.62 4.63.85 6.29.12.84.26 1.68.4 2.52.04.22.07.45.13.7v.06l-.8.62-.09.08a.84.84 0 0 0-.3.65.77.77 0 0 0 .24.58c.19.16.41.29.65.37l.24 3.1a.78.78 0 0 0 .3.55c.14.1.3.18.46.2a.9.9 0 0 0 .22 0 .84.84 0 0 0 .7-.96l-.28-4.12ZM82.78 129.33a8.8 8.8 0 0 1-2.78-1.28c-.14-.1-.29-.2-.42-.32l-.07-.05-.07-.05-.22-.19a.65.65 0 0 0-.9 0 .65.65 0 0 0 0 .9c1.18 1.05 2.59 1.8 4.11 2.22a.65.65 0 0 0 .84-.44.65.65 0 0 0-.25-.69.66.66 0 0 0-.24-.1Z" fill="#151921"/>
    <path d="M82.6 130.8a.62.62 0 0 1-.22 0c-1.56-.44-3-1.21-4.21-2.27a.74.74 0 0 1-.25-.54.9.9 0 0 1 .25-.67.84.84 0 0 1 1.2 0l.21.19.07.06.07.05.4.3a8.43 8.43 0 0 0 2.66 1.25.83.83 0 0 1 .51.4.84.84 0 0 1-.3 1.14.83.83 0 0 1-.4.08Zm-3.86-3.33a.36.36 0 0 0-.27.1.51.51 0 0 0-.13.37.3.3 0 0 0 .1.23 10.2 10.2 0 0 0 4.05 2.18c.12.03.24.02.35-.05a.36.36 0 0 0 .18-.23.45.45 0 0 0-.3-.54 9.8 9.8 0 0 1-1.92-.76 9.13 9.13 0 0 1-.92-.55l-.43-.31-.37-.3a.52.52 0 0 0-.34-.14Z" fill="#151921"/>
    <path d="M37.45 120.5a69.03 69.03 0 0 1-16-2.23.84.84 0 0 0-.44 1.62 70.61 70.61 0 0 0 16.4 2.3.84.84 0 0 0 .04-1.7Z" fill="#2677C7"/>
    <path d="M42.88 102.9a.88.88 0 0 0-1.19.48c-1.04 2.57-4.78 13.74-4.82 20.96a.84.84 0 0 0 .4.73c.13.08.3.12.46.12a.84.84 0 0 0 .74-.42c.07-.12.1-.26.1-.4.04-6.95 3.72-17.94 4.74-20.48a.73.73 0 0 0-.43-1ZM35.89 88.3c.1-.11.16-.24.2-.38-.56-.1-1.1-.22-1.63-.37l-.11-.06c-8.14 9.26-12.17 21.88-14.06 30.95a.94.94 0 0 0 .67 1.06l.74.2c-.02-.26.03-.52.15-.75.14-.27.26-.55.34-.84 2.78-12.76 7.39-22.79 13.7-29.81Z" fill="#151921"/>
    <path d="M37.53 123.62c-1.2.52-2.53.7-3.83.55-1.48-.07-2.96-.15-4.43-.25a44.04 44.04 0 0 1-8.18-1.25c0-.17.07-.34.12-.5l.34-1.52.67-2.86c.22-.95-1.38-1.5-1.63-.45-.24 1.06-.54 2.36-.84 3.53-.17.73-.76 2.03-.33 2.74.44.72 1.99.84 2.75 1.03 1.1.24 2.2.43 3.31.57 2.25.3 4.51.46 6.74.57 2.08.1 4.2.3 6.13-.7 1-.5.14-1.98-.82-1.46ZM84.04 123.94a1.34 1.34 0 0 1 1.1-.25c-.21-1.7-.3-3.41-.27-5.12.04-.54.2-1.07-.24-1.5a.98.98 0 0 0-.66-.25 9.1 9.1 0 0 0 .23-1.94c0-1.43.05-2.86.08-4.29l.16-8.37a.84.84 0 1 0-1.68 0l-.15 7.57c0 1.22-.04 2.45-.07 3.67-.03 1.22.13 2.53-.36 3.54a.84.84 0 0 0 .3 1.15c.17.1.36.18.56.23h.1c-.04.5 0 1.02.13 1.51.15.78.25 2.73.39 4.51.09-.18.22-.34.38-.46Z" fill="#151921"/>
    <path d="M84.53 124.9c.06-1.1-1.62-1.1-1.68 0-.3 5.51-.4 11.04-.29 16.57a.84.84 0 0 0 1.68 0c-.11-5.51-.02-11.04.3-16.58ZM42.44 122.02a.84.84 0 0 0-1.18 0 .99.99 0 0 0-.26.6l-.38 3.26a.84.84 0 0 0 .52.77.84.84 0 0 0 .65 0c.1-.04.2-.1.27-.19a.93.93 0 0 0 .25-.58l.38-3.26a.84.84 0 0 0-.25-.6Z" fill="#151921"/>
    <path d="M106.93 43.08a28.68 28.68 0 0 0-8.68-9.26C97.06 33 95.8 32.3 94.5 31.7c0-.08.1-.15.14-.23.13-.23.2-.49.2-.75-.05-.15-.07-.3-.05-.46a1.68 1.68 0 0 0-1.2-1.25 154.09 154.09 0 0 0-29.03-4.83l.45-.34h-.54c-1.65.04-3.3.2-4.94.47l-.34.06a32.7 32.7 0 0 0-3.37-.2 1.13 1.13 0 0 0-1.04.6 8.65 8.65 0 0 1-2.25-.35c0 .15-.1.28-.14.42-.9-.68-2.6-.2-3.75-.39-3.2-.51-6.49-.14-9.5 1.1a34.13 34.13 0 0 0-8.83 4.51 1.68 1.68 0 0 1 .07 1.69l-.19.3a1.68 1.68 0 0 1-.75 1.54l-1.02.74-.48.35-.14.12-.14.12a21.2 21.2 0 0 0-3.22 3.32l-.16.21-.36.55c-.22.34-.43.7-.62 1.04a1.6 1.6 0 0 1-1.85.72 34.36 34.36 0 0 0-2.6 4.57c-1.98 4.32-2.96 9.26-1.98 13.91.2-.05.41-.06.62-.04a1.55 1.55 0 0 1 1.39 1.52c0 .65 0 1.3.1 1.93a1.68 1.68 0 0 0 1.52-.73c.76 4.1 2.46 7.96 4.96 11.29a27.95 27.95 0 0 0 15.29 10.1c3.62 2.43 8.03 3.22 12.36 3.58h.42a37.71 37.71 0 0 0 15.7 1.68c2.85-.25 5.68-.66 8.47-1.22 1.65-.3 3.26-.79 4.8-1.44 2.07.56 4.69-.28 6.52-.99 5.57-2.12 9.88-6.4 13-11.39l.34-.6a1.57 1.57 0 0 0 2.12-.68 32.14 32.14 0 0 0 2.16-27.05 1.87 1.87 0 0 0 .3-2.12Z" fill="#FFBF24"/>
    <path d="M96.92 53.02a16 16 0 0 0-4.42-8.41c.7.5 1.68.64 1.1-.2-3.37-5.05-9.08-8.93-15.09-8.95l-.3-.1a.8.8 0 0 0-.64.1c-.9.05-1.8.16-2.68.33a.84.84 0 0 0-.22.1c-4.8-.95-9.84-.85-14.3 1.45a1.19 1.19 0 0 0-.3-.2 21.29 21.29 0 0 0-16.96-.4 29.54 29.54 0 0 0-7.48 4.3c-2.19 1.69-4.47 3.73-5.69 6.44-1.32 2.94-1.13 6.25-.4 9.35.67 3 2.04 5.79 4.02 8.13 3.97 4.55 8.42 8.46 13.81 10.05 11.24 3.29 25.44 3.3 36.29-2.18A26.68 26.68 0 0 0 95.08 62a14.37 14.37 0 0 0 1.84-8.99Z" fill="#FCFA9C"/>
    <path d="M107.86 45.67c-.3-.56-.61-1.12-.94-1.68.03-.17.03-.34 0-.5l-.18-.38c-.05-.11-.1-.23-.12-.35a25.13 25.13 0 0 0-5.26-6.46l-.97-1.02a23.26 23.26 0 0 0-4.1-2.8c-.23-.13-.42-.32-.54-.55-.35-.3-.64-.67-.84-1.09a1 1 0 0 1-.08-.5c-.16-.1-.29-.22-.44-.33a1.31 1.31 0 0 0-.45-2.1c-6.73-4.04-14.73-3.96-22.34-4.12l-.09-.68-.25.1-.64.15c-1.17.76-1.51 1.46.28 1.5 4.79.1 10.44 1.85 15.09 3.1l.28.14a1.68 1.68 0 0 0 .17 2.78c2.95 1.5 7.08 2.8 12.63 7.95l.75.63.15.14a1.68 1.68 0 0 0-.7 2.83 31.69 31.69 0 0 1 3.43 3.95 1.19 1.19 0 0 0-.96 1.55c.43 1.22.85 2.48 1.23 3.77 1.26 4.88 1.54 10.29.07 15.15a1.18 1.18 0 0 0-2.05.55 22.76 22.76 0 0 1-2.82 6.44c-3 4.38-9.92 11.46-15.25 12.11-.57.07-.32.31 1.68.16.97-.08 1.94-.23 2.89-.45a8.05 8.05 0 0 0 1.72-.74c.9-.5 1.78-1.07 2.66-1.6.89-.53 1.89-1.01 2.8-1.57.95-.58 1.86-1.21 2.72-1.9.2-.16.44-.25.7-.25.78-.83 1.5-1.72 2.14-2.66v-.17c.1-.25.24-.49.4-.7a6.8 6.8 0 0 1 1.2-1.23c.24-.19.5-.34.79-.45a1 1 0 0 1 .7 0 17.66 17.66 0 0 0 2.88-5.72c1.27-2.16 1.56-4.91 1.74-7.4.34-.1.63-.32.84-.6a36.3 36.3 0 0 0-.2-4.16c-.29-2.62-1.13-5.14-1.55-7.74a1.63 1.63 0 0 1 1.07-1.96h.2l-.32-.88-.13-.26Z" fill="#FCFA9C"/>
    <path d="M91.52 41.77a16.9 16.9 0 0 0-6.49-4 16.69 16.69 0 0 0-7.02-2.64 57.11 57.11 0 0 0-8.05.16c-2.6.2-5.14.76-7.57 1.69-1.54.5-2.77 2.9-1.22 2.39a46.84 46.84 0 0 1 14.07-1.85c4.1.04 8.09 1.42 11.33 3.94a14.8 14.8 0 0 1 5.64 8.86c.65 2.57.85 5.22.62 7.86-.84 3.53-3.13 8.64-5.9 10.8-2.75 2.17-7.08 5.05-8.26 5.52-1.49.58 3.71-.96 5.31-1.4 1.83-.65 3.53-1.6 5.05-2.8 1.96-1.27 3.52-3.83 4.66-5.9 1-1.82 2.67-3.8 2.85-5.95 1.3-5.8-.86-12.26-5.02-16.68Z" fill="#fff"/>
    <path d="M61.68 37.51c-8.1-3.84-18.45-2.48-25.68 2.96-1.96 1.48-3.5 2.76-4.52 4.97a23.96 23.96 0 0 0-2.17 6.97c-.56 4.54 1.39 9.17 3.93 12.87 2.5 3.84 6.26 6.7 10.64 8.08 1.22.36 2.28-.53 1.16-1.09-6.73-3.32-12.27-11.88-12.62-16.38-.3-4.26 2.47-14.45 14.9-17.26 4.36-1.1 8.97-.72 13.1 1.08 1.47.7 2.72-1.5 1.26-2.2Z" fill="#fff"/>
    <path d="M122.73 31.6a58.13 58.13 0 0 0-1.08-3.55 56.24 56.24 0 0 0-2.2-3.42 41.05 41.05 0 0 0-2.91-3.88c-.91-.9-1.73-1.89-2.43-2.95a2.25 2.25 0 0 0-2.44.8 4.58 4.58 0 0 0-.68 2.94c.02 1.32.15 2.64.39 3.94.2 1.28.46 2.53.6 3.84.1 1.03.3 2.3-.47 3.1l-.11.1c.1.19.14.4.11.6a2.25 2.25 0 0 1-1.86 1.97.84.84 0 0 1-.5-.08 15.5 15.5 0 0 1-4.43 2.16c-.66-.62-1.9.19-1.31 1.02a30.72 30.72 0 0 1 2.84 4.9 1.68 1.68 0 0 0 .52 2.48c.27.12.5.32.65.58a1.59 1.59 0 0 1-.38 1.72.84.84 0 0 0-.37.95c.51 1.3 1.74 1.37 2.9 1a76.94 76.94 0 0 0 7.1-2.66 23.1 23.1 0 0 0 5.25-2.72c2.11-1.5 2.57-3.45 2.23-5.9a51.8 51.8 0 0 0-1.42-6.94ZM21.68 38.78c-1.3-.3-2.63-.52-3.96-.63a4.03 4.03 0 0 1-1.92-.69 3.62 3.62 0 0 1-1.37-1.15 5.66 5.66 0 0 1-.75-3.06c-.05-3.21.26-6.42-.07-9.62a1.4 1.4 0 0 1 .62-1.26 1.99 1.99 0 0 0-2.53-1.18 6.73 6.73 0 0 0-2.85 1.9c-.89.86-1.7 1.8-2.4 2.8-2.75 3.87-3.37 7.85-4.6 12.37-.7 2.6-1.81 6.14 0 8.36 1.64 1.95 4.4 3.1 6.69 4.05 1.5.64 3.02 1.17 4.59 1.6 1.5.4 3 .47 3.77-1.15 1.37-2.95 2.42-6.1 3.59-9.16l.29.08c2.13.66 2.96-2.6.9-3.26Z" fill="#5EDC10"/>
    <path d="m43.31 3.34-.23.28a1.23 1.23 0 0 0-1.01-.2c-.83.17-1.65.43-2.43.77-1.1.31-2.18.74-3.2 1.27-1.69.84-4.02 1.9-4.9 3.68-.38.92-.57 1.9-.56 2.9-.08 1.26-.13 2.53-.16 3.76v3.28a.88.88 0 0 0-.53.7c-.34 3.27-.26 6.55.26 9.79a.84.84 0 0 0 1.24.48 47.38 47.38 0 0 1 8.83-4.32.84.84 0 0 0 .6-.84l-.34-3.1.14-3.13c.22-4.44.6-8.98 2.7-12.98.06-.1.1-.21.12-.33.23-.29.46-.58.72-.84.69-.8-.51-1.98-1.25-1.17Z" fill="#252B36"/>
    <path d="M90.97 6.6c-2.28-2.37-6.16-2.17-9.16-2.2-3.98 0-7.96 0-11.93.2-3.16.05-6.3.65-9.26 1.75-2.04.02-4.02.69-5.65 1.92-1.95 1.59-2.86 4.07-3.76 6.34a54 54 0 0 0-2.53 8.13.8.8 0 0 0 .31.84c-.28 1.37 1.69 1.95 2.32.85a248.99 248.99 0 0 1 28.95.95c1.62.15 3.5.61 5.05-.13 1.54-.74 2.14-2.38 2.81-3.74a42.8 42.8 0 0 0 2.1-5.05c.6-1.75 1.07-3.54 1.42-5.36.39-1.62.59-3.2-.67-4.5Z" fill="#343A46"/>
    <path d="M67.6 49.57a1.57 1.57 0 0 0-.24-.35 2.85 2.85 0 0 0-1.15-.6 5.05 5.05 0 0 0-3.87.42l-.84-.19a1.26 1.26 0 1 0-.72 2.42c2.14.56 4.35.82 6.56.8a1.27 1.27 0 0 0 1.28-1.23 1.3 1.3 0 0 0-1.02-1.27Z" fill="#fff"/>
    <path d="M69.53 1.06a219.4 219.4 0 0 0-22.62 2.4.9.9 0 0 0-1.28.21c-1.59 2.29-1.93 5.05-2.33 7.75-.47 3.23-1.48 6.35-1.9 9.58-.1.71-.16 1.43-.19 2.15-.08.71-.04 1.44.13 2.14.51 1.32 2.15.42 3.06.12l2.27-.73a4.1 4.1 0 0 0 1.86-.84c.34-.5.53-1.09.57-1.69.15-.84.32-1.68.49-2.47.54-3.1 1.53-6.11 2.94-8.93a8.42 8.42 0 0 1 2.9-3.23c1.36-.72 2.83-1.2 4.36-1.42 3.29-.65 6.66-.84 9.94-1.44 1.06-.2 2.1-.84 2.09-2.06-.01-1.22-1.17-1.64-2.3-1.54Z" fill="#89A1AE"/>
    <path d="M53.7 87.35c-6.61-.8-13.2-4.65-18.4-9.13-4.5-3.85-7.48-9.19-9.36-14.75a1.62 1.62 0 0 0-2.8-.6 24.4 24.4 0 0 1 .84-10.74c.3-.93-1.04-2.16-1.95-2.33.84-2.06 1.4-3.63 2.36-5.57 1.93-3.95 3.78-7.96 7.4-10.56 1.76-1.24.65-2.52-1.12-1.24-4.03 2.87-6.03 5.55-8.21 9.93-1.12 2.26-2.27 3.17-3.22 5.51-1.08 3-1.8 6.1-2.17 9.26a1.74 1.74 0 0 0 1.2 2.05c.43.1.88.04 1.26-.17a27.58 27.58 0 0 0 3.55 13.81 1.68 1.68 0 0 0 2.78.12c.17-.24.27-.52.3-.81a31.31 31.31 0 0 0 6.81 8.5 25.84 25.84 0 0 0 8.95 4.97 59.1 59.1 0 0 0 11.06 2.1c.9.1 3.02 1.4 3.27.43.23-.78-1.65-.67-2.56-.78Z" fill="#FFBF24"/>
    <path d="M31.47 31.96c-6.39 4.28-9.82 11.34-11.78 18.55-.44 1.57 2 2.2 2.44.64 1.82-6.55 4.86-13.13 10.68-17.04 1.3-.9.01-3.06-1.34-2.15Z" fill="#FFBF24"/>
    <path d="M51.62 24.44c-7.12.42-14.75 1.1-20.2 6.26-1.18 1.13.64 2.88 1.82 1.76 4.9-4.66 12.62-6.57 19.01-6.95 1.63-.1 1-1.16-.63-1.07Z" fill="#FFBF24"/>
    <path d="M50.23 45.3a1.82 1.82 0 0 0-1.17-1.13 1.43 1.43 0 0 0-1.49.48 5.13 5.13 0 0 0-.94 3.29c-.18.85-.12 1.74.18 2.57a1.53 1.53 0 0 0 1.28 1.1 1.55 1.55 0 0 0 1.3-.72c.27-.41.48-.86.63-1.34a7.17 7.17 0 0 0 .21-4.25ZM80.08 44.64a1.83 1.83 0 0 0-1.17-1.13 1.45 1.45 0 0 0-1.53.47 5.18 5.18 0 0 0-.93 3.3c-.17.84-.11 1.71.17 2.52a1.39 1.39 0 0 0 2.58.39 7.16 7.16 0 0 0 1-2.7c.2-.95.16-1.93-.12-2.85ZM123.62 32.64a39.02 39.02 0 0 0-6.6-12.7c-1.15-1.4-2.98-3.64-5.05-2.47-2.06 1.17-1.53 4.08-1.36 6.1.13 1.48.22 2.97.3 4.46 0 .84.07 1.61.1 2.43.07.74.07 1.5 0 2.24-.23 1.33-2.28 1.94-3.37 2.36a43.3 43.3 0 0 1-6.1 1.8l.59.68c.2.2.34.43.42.69l.08.1c2.35-.55 4.66-1.3 6.89-2.26a7.8 7.8 0 0 0 2.36-1.43 3.45 3.45 0 0 0 .84-2.6c0-2.43-.16-4.87-.34-7.3-.08-1.17-.23-2.34-.3-3.5-.08-1.18.33-3.15 1.9-2.05 1.75 1.22 3.1 3.47 4.2 5.28a39.31 39.31 0 0 1 2.87 5.93c.85 2.12 1.54 4.3 2.07 6.52.51 2.32.92 4.87-1.02 6.63-1.93 1.75-4.43 2.7-6.66 3.64a50.67 50.67 0 0 1-7.72 2.52c-1.05.26-.58 1.87.47 1.62a50.65 50.65 0 0 0 7.72-2.52 33.42 33.42 0 0 0 6.37-3.26 6.28 6.28 0 0 0 2.96-5.38c-.15-2.58-.7-5.12-1.62-7.53ZM22.61 38.8a20.85 20.85 0 0 1-4.52-1.04c-1.11-.4-3.18-.94-3.45-2.26-.09-.74-.1-1.5-.04-2.24v-2.43c0-1.5.07-2.98.14-4.46.11-2.03.63-4.9-1.56-6.05-2.2-1.16-3.86 1.2-4.96 2.63a39 39 0 0 0-6.17 12.91c-.83 2.44-1.29 5-1.35 7.58a6.27 6.27 0 0 0 3.14 5.27 32.91 32.91 0 0 0 6.47 3.04c2.22.83 4.49 1.5 6.8 2.02a2.13 2.13 0 0 1 0-.51c.06-.39.15-.78.24-1.16a49.46 49.46 0 0 1-6.65-1.98c-2.27-.84-4.91-1.82-6.78-3.41-1.87-1.6-1.69-4.25-1.24-6.59a44.77 44.77 0 0 1 1.84-6.59c.73-2.08 1.61-4.1 2.66-6.03 1.02-1.83 2.3-4.13 4.01-5.42 1.53-1.14 2 .85 1.97 1.99-.03 1.14-.14 2.35-.19 3.52-.1 2.43-.16 4.87-.1 7.3a3.5 3.5 0 0 0 .9 2.58 8.01 8.01 0 0 0 2.42 1.35c2.04.86 4.2 1.42 6.4 1.68 1.12.12 1.08-1.57.02-1.7ZM69.04 50.12a5.05 5.05 0 0 0-3.98-2.75c-1.86-.21-3.58.84-5.05 1.76a.85.85 0 0 0 .2 1.56.85.85 0 0 0 .64-.08c1.2-.77 2.52-1.69 4-1.58a3.37 3.37 0 0 1 2.77 1.9c.42.98 1.9.16 1.42-.81Z" fill="#151921"/>
    <path d="M85.51 36.96c-1.02-.42-1.9 1.06-.84 1.48 7.18 2.9 12.05 10 11.57 17.58-.27 3.9-1.78 7.6-4.32 10.55-2.81 3.26-6.73 5.26-10.85 6.55a61.31 61.31 0 0 1-28.29 1.85C44.42 73.5 36.15 69.6 32.12 62a15.8 15.8 0 0 1 1.87-17.87 19.19 19.19 0 0 1 5.3-4.48c1-.54.08-1.99-.9-1.45a20.2 20.2 0 0 0-5.9 5.05 17.61 17.61 0 0 0-3.43 15.77c2.45 8.7 10.63 14.35 19.27 16.69 9.88 2.66 20.85 2.24 30.71-.26 4.5-1.15 8.96-2.9 12.43-5.97 3.1-2.8 5.24-6.49 6.11-10.56 1.93-9.04-3.26-18.4-12.07-21.96Z" fill="#151921"/>
    <path d="M85.52 36.94c-7.88-3.17-16.55-2.52-24.6-.29a.85.85 0 1 0 .48 1.64c7.58-2.08 15.84-2.86 23.25.13 1.03.41 1.92-1.06.87-1.48ZM55.94 23.57c-8.74-.97-20.64 2.06-27.32 7.79a.84.84 0 0 0 .18 1.3 23.56 23.56 0 0 0-3.94 3.66 39.55 39.55 0 0 0-5.21 7.43 31.73 31.73 0 0 0-3.14 8.41c-.32 1.5-.5 3.03-.54 4.56-.05 1.33-.22 3.1.64 4.2a.84.84 0 0 0 1.45-.07l.25-.52a21.34 21.34 0 0 0 6.21 14.55c.77.76 1.9-.49 1.13-1.26a19.55 19.55 0 0 1-5.25-17.81.84.84 0 0 0-1.57-.57l-1.28 2.72c0-.73.1-1.47.13-2.01.1-1.38.3-2.74.62-4.08a30.1 30.1 0 0 1 3-7.65 37.49 37.49 0 0 1 4.81-6.79c1.85-2.1 3.92-4.09 6.66-4.92 1.05-.32.51-1.85-.52-1.6l-.5.1c5.88-4.28 16.55-6.6 23.83-5.8 1.06.12 1.44-1.52.36-1.64Z" fill="#151921"/>
    <path d="M55.5 87.2c-12.37-1.35-26.15-6.4-30.9-19.04-.38-1.01-1.98-.49-1.6.53a28.51 28.51 0 0 0 11.98 13.96c6.06 3.73 13.15 5.43 20.15 6.2 1.04.12 1.42-1.53.37-1.65ZM64.97 24.98c5-.12 13.9.04 18.82.94 3.58.65 7.38 1.46 10.32 3.68h-.06c-.57 0-.9.64-.76 1.11.5 1.69 2.64 2.43 3.97 3.37a28.8 28.8 0 0 1 9.33 11.32c.08.18.66 1.22.56 1.35-.1.14-.84-.3-.93-.37-.84-.48-1.42.53-1.1 1.2a25.16 25.16 0 0 1-2.9 26.48c.22.74.31 1.52.29 2.3a26.94 26.94 0 0 0 4.8-27.93c.18 0 .36-.04.54-.1a1.68 1.68 0 0 0 .9-2.1c-.79-2.3-1.95-4.46-3.43-6.38a30.48 30.48 0 0 0-7.52-7.43c-.55-.38-1.51-.79-2.19-1.32.27-.09.54-.2.8-.31a.84.84 0 0 0 .1-1.33c-3.15-3.2-7.69-4.3-11.95-5.11-5.19-.98-14.4-1.19-19.67-1.05a.84.84 0 1 0 .08 1.68Z" fill="#151921"/>
    <path d="M82.43 44.64a9.2 9.2 0 0 0-4.82-2.13.84.84 0 0 0-.97.7v.1a.84.84 0 0 0 .45.95c1.43.9 3.01 1.52 4.67 1.86a.84.84 0 0 0 .67-1.48ZM44.92 44.64a9.2 9.2 0 0 1 4.83-2.13.84.84 0 0 1 .96.7v.1a.84.84 0 0 1-.44.95 14.1 14.1 0 0 1-4.66 1.86.84.84 0 0 1-.9-.48.84.84 0 0 1 .21-1ZM61.27 19.37a.84.84 0 0 0-1.15.32 12.62 12.62 0 0 1-5.57 4.4.84.84 0 0 0-.57 1.04.84.84 0 0 0 1.04.56 14.4 14.4 0 0 0 6.58-5.17.84.84 0 0 0-.33-1.15ZM65.76 19.58a.84.84 0 0 0-1.18 0 16.83 16.83 0 0 1-6.38 5 .84.84 0 0 0 .88 1.44 17.75 17.75 0 0 0 6.73-5.27.84.84 0 0 0-.05-1.17ZM68.44 21.34a.84.84 0 0 0-1.2 0c-.24.25-.5.5-.77.72l-.12.1h-.04l-.1.07-.44.33c-.3.2-.6.38-.9.56-.16.08-.3.17-.47.24l-.23.11-.13.06a.9.9 0 0 0-.48.39.9.9 0 0 0-.08.65.84.84 0 0 0 1.05.57 12.43 12.43 0 0 0 3.98-2.7.84.84 0 0 0-.07-1.1Z" fill="#151921"/>
    <path d="M90.85 5.05c-2.18-.98-4.97-1.05-7.32-1.2-5.3-.32-10.62-.21-15.9.33-2.58.24-5.14.62-7.68 1.15-2.2.36-4.24 1.35-5.89 2.84-1.76 1.77-2.8 4.17-3.77 6.42a87.18 87.18 0 0 0-3.1 9.85h.22l.64.1c.27.03.56.05.84.04 1.14-4.2 2.77-9.96 5.05-13.54a8.42 8.42 0 0 1 4.77-3.68c2.14-.6 4.33-1.01 6.54-1.24 4.7-.59 9.43-.84 14.16-.76 2.4 0 4.81.15 7.2.43 1.1.1 2.17.3 3.22.62 1.3.47 1.64 1.42 1.43 2.72a40.7 40.7 0 0 1-1.97 7.03 74.5 74.5 0 0 1-3.58 8.34c-.5.96.94 1.84 1.44.84A63.25 63.25 0 0 0 92.8 9.91c.36-1.96.07-3.93-1.96-4.86Z" fill="#151921"/>
    <path d="M72.02.45a2.83 2.83 0 0 0-1.6-.42H67.3a147.51 147.51 0 0 0-17.63 1.3c-1.58.21-3.3.35-4.59 1.4a7.17 7.17 0 0 0-2.06 3.45 51.71 51.71 0 0 0-1.31 5.4 101.3 101.3 0 0 0-1.69 14.79l.2-.12c.31-.17.63-.32.96-.45.17-.07.36-.08.54-.05.22-4.66.75-9.3 1.61-13.9.34-1.85.8-3.7 1.37-5.5.24-.83.69-1.59 1.3-2.2a4.7 4.7 0 0 1 2.52-.97c4.2-.64 8.44-1.05 12.7-1.25 2.07-.11 4.15-.19 6.22-.21h1.69a6.73 6.73 0 0 1 1.54 0c.84.22.76 1.14.73 1.88a.84.84 0 0 0 1.68 0c.1-1.08-.05-2.44-1.06-3.15Z" fill="#151921"/>
    <path d="M45.84 2.23c-3.05-.17-6.28.78-9.07 1.92a9.7 9.7 0 0 0-5.64 5.49c-1.15 2.82-1.48 6.06-1.77 9.06a87.5 87.5 0 0 0-.1 12.52c.08 1.07 1.77 1.1 1.69 0a88.76 88.76 0 0 1 0-11.3c.15-2.9.6-5.78 1.37-8.58a8.29 8.29 0 0 1 4.96-5.62 20.06 20.06 0 0 1 8.54-1.83c1.07.1 1.1-1.6.02-1.66Z" fill="#151921"/>
    <path d="M48.46.57A1.15 1.15 0 0 0 47.43 0c-3.65.18-4.91.84-5.4 1.28a1.01 1.01 0 0 0-.23 1.27c.24.35.6.6 1 .7a4 4 0 0 0 1.9.06 9.48 9.48 0 0 0 2.77-.9c.38-.14.7-.38.95-.7a1.06 1.06 0 0 0 .04-1.14ZM64.08 89.52c-11.95.2-24.12-4.35-24.65-4.55a.84.84 0 1 1 .6-1.57c.13.04 12.81 4.79 24.64 4.42 10.42-.32 20.62-1.19 30.86-8.05 3.69-2.46 6.73-7.45 6.73-7.5a.83.83 0 0 1 .86-.5.84.84 0 0 1 .59 1.34c-.13.22-3.22 5.37-7.23 8.04-10.6 7.1-21.5 8.01-31.75 8.33l-.65.04ZM38.44 40.01a.84.84 0 0 1-.45-1.56 30.73 30.73 0 0 1 24.77-2.13.84.84 0 1 1-.55 1.59 29.5 29.5 0 0 0-23.34 1.98.9.9 0 0 1-.43.12Z" fill="#151921"/>
    <path d="M72.55 64.56c0-.14-.1-.26-.15-.4.27-.95.25-1.97-.06-2.91a.84.84 0 0 0-1.55-.19l-.07-.06a1.29 1.29 0 0 0-1.73.45c-.14.25-.24.52-.3.8a1.3 1.3 0 0 0-.23.5c-.1-.23-.25-.44-.43-.61a3.14 3.14 0 0 0-.6-1.65c-.14-.2-.32-.36-.53-.48-.13-.06-.27-.1-.4-.14a1.32 1.32 0 0 0-2.02-.27l-.41.42a1.35 1.35 0 0 0-1-.74 2.02 2.02 0 0 0-1.54.51 1.74 1.74 0 0 0-2.71-.72c-.78.55-1.06 1.48-1.68 2.12a1.28 1.28 0 0 0-.66-1 1.26 1.26 0 1 0-2.19-1.27c-.26.37-.5.76-.69 1.17a6.47 6.47 0 0 0-2.64 2.12 2.06 2.06 0 0 0 .61 3.04 2.89 2.89 0 0 0 3.2-.3c.98-.23 1.98-.64 2.95-.9 2.34-.58 4.54.49 6.74 1.17 1.12.33 2.28.57 3.44.72.9.2 1.84.2 2.74 0a3 3 0 0 0 .4.13 1.28 1.28 0 0 0 1.51-1.51Z" fill="#B34052"/>
    <path d="M70.92 59.98c-.12-.6-.84-1.06-1.28-1.4a2.21 2.21 0 0 0-.6-.63c-.3-.2-.66-.32-1.03-.33l-.59-.24a2.3 2.3 0 0 0-.32-.32c-1.68-.18-3.36-.4-5.11-.43-.85-.03-1.69 0-2.53.08H59l-.6.12-.25.07-.36.27-.27.22a1.44 1.44 0 0 0-1-.04v.08c.15.92.37 1.83.66 2.71.13.02.27.02.4 0 .85-.08 1.33-.73 1.96-1.17.25-.2.53-.36.84-.47.34-.06.7-.06 1.04 0 .33.02.66-.03.98-.12a1.68 1.68 0 0 0 2.22.84c.06 0 .56-.18.76-.26 0 .32.1.64.3.9a1.12 1.12 0 0 1 1.36.7h.28a1.3 1.3 0 0 0 .98 1.1.9.9 0 0 0 1.6.36c.4-.57 1.18-1.33 1.02-2.04Z" fill="#fff"/>
    <path d="m70.4 60.38-.99.84-.42.37v-.48c0-.51 0-1.02-.06-1.52a.84.84 0 0 0-1.47-.56c-.05-.12-.15-.3-.17-.37a.84.84 0 0 0-1.04-.59c-.29.05-.56.16-.8.33-.04 0-.52.33-.5.48-.11-.16-.3-.58-.36-.65-.16-.2-.38-.34-.63-.4-.71-.2-1.02.26-1.47.67-.17.16-.18.21-.41 0-.23-.25-.4-.54-.52-.85a.84.84 0 0 0-1.32-.16l-2.13 2.33c0-.1-.05-.16-.06-.18l-.37-1.56c-.25-1.05-1.87-.6-1.62.45.2.8.33 1.63.58 2.41a1.27 1.27 0 0 0 1.4 1.02c.67-.1 1.12-.84 1.54-1.27l1.12-1.22c.25.35.62.62 1.03.76a1.86 1.86 0 0 0 1.85-.39l.06.09a1.35 1.35 0 0 0 .94.59c.38.05.77-.03 1.1-.22.15-.08.28-.18.4-.28a1.68 1.68 0 0 0 1.1.84h.12l.05 1.22c0 .59.1 1.27.68 1.57a1.51 1.51 0 0 0 1.69-.43c.63-.55 1.24-1.12 1.86-1.69.8-.71-.39-1.87-1.19-1.15Z" fill="#151921"/>
    <path d="M66.02 56.02c-1.35-.16-2.71-.2-4.07-.1-2.38.11-4.7.72-6.85 1.77-1.75.81-3.3 2-4.56 3.46-1.03 1.3-1.68 3.62 0 4.72 1.52 1 3.64.56 5.28.14 1.12-.36 2.26-.64 3.42-.84a12.2 12.2 0 0 1 3.7.18c1.12.22 2.23.5 3.31.84 1.09.43 2.22.73 3.37.9a3.83 3.83 0 0 0 3.59-2.68c1.55-4.33-3.48-7.86-7.2-8.39Zm5.72 7.34a2.45 2.45 0 0 1-.98 1.73c-.84.58-1.69.25-2.53 0a41.61 41.61 0 0 0-5.05-1.35c-1.57-.3-3.18-.34-4.76-.1-1.68.3-3.3 1.02-5 1.14-.66.13-1.34.03-1.94-.27-.85-.65.23-2.19.75-2.73a13.68 13.68 0 0 1 3.72-2.61 16.03 16.03 0 0 1 10.43-1.45c.78.14 1.54.4 2.24.77 1.84 1.07 3.36 2.78 3.12 4.85v.02ZM94.79 47.54a53.02 53.02 0 0 0-3.69-10.21 1.01 1.01 0 0 0-1.3-.33c-.27.29-.49.63-.63 1a82.25 82.25 0 0 0-3.28 9.44c-.74 2.64-1.36 5.95.95 8.02a5.05 5.05 0 0 0 6.74-.1c2.26-2.03 1.86-5.17 1.2-7.82Zm-1.31 4.93a3.57 3.57 0 0 1-2.96 2.57 3.27 3.27 0 0 1-3.37-1.96c-.63-1.55-.17-3.31.25-4.85a79.9 79.9 0 0 1 2.89-8.56 50.49 50.49 0 0 1 2.77 8c.42 1.52.87 3.23.42 4.8Z" fill="#151921"/>
    <path d="M93.48 52.47a3.57 3.57 0 0 1-2.95 2.57 3.26 3.26 0 0 1-3.37-1.96c-.64-1.55-.18-3.31.24-4.85.8-2.9 1.77-5.77 2.89-8.56a50.5 50.5 0 0 1 2.78 8c.41 1.52.86 3.23.41 4.8Z" fill="#398FE5"/>
    <path d="M92.86 49.8a1.46 1.46 0 0 0-.17-.45.98.98 0 0 0-1.5-.23c-.14.13-.25.3-.31.49-.05.16-.08.33-.1.5l-.05.52c0 .17-.07.36-.1.55-.04.3-.04.6 0 .9a.95.95 0 0 0 .68.7 1.03 1.03 0 0 0 .98-.23c.25-.26.42-.58.5-.93.07-.3.12-.6.13-.9.02-.3 0-.61-.06-.91Z" fill="#fff"/>
    <path d="M100.5 72.14a44.14 44.14 0 0 0-.38-5.28c-.12-.94-.19-2.8-1.58-2.71-1.06.06-1.68 1.49-2.03 2.35-.08.25-.14.51-.2.77-1.56-3.09-3.75-6.13-6.82-7.43a3.93 3.93 0 0 0-2.67-.42 1.49 1.49 0 0 0-.77 1.92c.3 1.1.7 2.16 1.19 3.19-.33-.28-.66-.57-1-.84-.84-.65-2.44-1.52-3.26-.37-.82 1.16.7 2.61 1.2 3.5.35.62.66 1.25.93 1.9a10.43 10.43 0 0 0-6.3-2.17.84.84 0 0 0-.73 1.26c.6.86 1.33 1.62 2.16 2.26a17.75 17.75 0 0 1 4.38 7.15.84.84 0 0 0 .5 1.49.84.84 0 0 0 1.4 0c2.86-.08 5.69-.54 8.42-1.37 1.52-.42 3-.99 4.4-1.69 1.4-.75 1.17-2.17 1.15-3.51Z" fill="#FFBF24"/>
    <path d="M104.1 91.12c0-.15 0-.3.05-.44a132.6 132.6 0 0 0-2.83-14.81.84.84 0 0 0-.6-.6.84.84 0 0 0-.8.23c-.39.36-1.18.37-1.7.45l-1.85.33-3.93.69-7.79 1.36a.84.84 0 0 0-1.48.78c.56 2.93 1.37 5.84 1.69 8.82.13 1.05.16 2.12.1 3.19-.2.82-.28 1.67-.21 2.52.17.92 1.04 1.16 1.83 1.4 2.16.63 4.37 1.06 6.6 1.3 3.79.46 7.75.42 11.2-1.34-.17-1.3-.22-2.59-.28-3.88Z" fill="#398FE5"/>
    <path d="M101.51 77.65c-2.23 1.87-5.12 2.59-7.95 2.98-3.02.4-6.39.91-9.4.17a.84.84 0 0 0-.44 1.63c3.37.84 6.98.28 10.32-.19 3.14-.43 6.2-1.33 8.66-3.4.83-.72-.36-1.9-1.19-1.2Z" fill="#2677C7"/>
    <path d="M95.7 64.84c-1.25-2.17-3.89-5.26-6.2-6.37-1.53-.74-4.48-1.12-5.05 1.1-.2.77.51 2.02 1.16 3.1-1.11-.55-2.18-.84-3.2-.36-1.4.73-1 2.43-.34 3.55a5.58 5.58 0 0 0-4.73.58c-.6.41-1.4 1.1-1.16 1.92.24.81 1.53 1.55 2.2 2.08 1.91 1.52 4.72 4.91 5.04 7.51.13 1.08 1.81.96 1.68-.12a14.71 14.71 0 0 0-2.92-6.27 18.29 18.29 0 0 0-2.15-1.96l-1.1-.84c-.08-.07-.5-.46-.84-.74.11-.08.21-.18.32-.24.34-.21.72-.35 1.11-.42a4.28 4.28 0 0 1 2.45.27 6.68 6.68 0 0 1 2.6 2.04c.42.6.84 1.21 1.25 1.83.6.9 1.94 0 1.39-.95-.3-.52-.64-1.02-1-1.5l-1.34-2c-.3-.45-2.27-2.77-1.53-3.25.27-.18 1.33.28 1.58.4a6.49 6.49 0 0 1 2.98 2.36c.24.46.5.9.76 1.35.48.84 1.87.12 1.49-.76a9.64 9.64 0 0 0-.9-1.53c-.84-1.37-2.52-3.6-3.05-5.05-.37-1.05.9-1.02 1.6-.84 1.3.53 2.48 1.29 3.5 2.24 2.98 2.67 4.08 4.43 4.72 8.3.18 1.06 1.86.95 1.68-.12-.43-2.79-.64-2.94-2-5.31Z" fill="#151921"/>
    <path d="M100.7 64.18a2.47 2.47 0 0 0-1.63-1.33c-.9-.12-1.54.84-1.98 1.45a7.39 7.39 0 0 0-1.25 4.47.84.84 0 0 0 1.69-.12 5.4 5.4 0 0 1 .9-3.34c.15-.26.32-.5.53-.71.35.42.58.94.65 1.5.14.83.22 1.67.23 2.52.04 2.04-.16 4.09-.6 6.08-.25 1.06 1.41.8 1.69-.25.42-1.78.63-3.61.62-5.44.11-1.66-.18-3.31-.85-4.83Z" fill="#151921"/>
    <path d="M101.27 73.56a34.05 34.05 0 0 1-18.52 4.2c-1.09-.04-1.08 1.64 0 1.7a35.65 35.65 0 0 0 19.36-4.47c.96-.51.1-1.96-.84-1.43Z" fill="#151921"/>
    <path d="M83.69 78.43a.84.84 0 0 0-1.63.45c1.58 6 2.4 9.04 2.06 15.24-.06 1.09 1.63 1.09 1.69 0 .34-6.37-.52-9.54-2.12-15.69ZM104.61 89.36c-.44-4.87-1.13-9.7-1.95-14.52-.19-1.07-1.81-.62-1.62.44 1.4 7.52 2.22 15.13 2.44 22.78 0 3.3-.34 6.9-2.58 9.5-2.24 2.63-5.61 3-8.75 1.8a14.86 14.86 0 0 1-7.71-7c-.5-.96-1.96-.11-1.45.84 2.92 5.54 10.82 11.25 17.08 7.3 2.95-1.86 4.43-5.24 4.88-8.59.55-4.06.04-8.43-.34-12.55Z" fill="#151921"/>
    <path d="m81.77 30.83-.05-.27a.95.95 0 0 0-.4-.43l-.31-.16c-.15-.05-.3-.1-.45-.13h-.08c-.11 0-.33-.05-.48-.05h-.61l-.45.09c-.14.04-.27.1-.4.16l-.07.04c-.21.11-.39.28-.5.49a.44.44 0 0 0-.05.37c.02.13.08.25.18.34.05.06.11.1.18.14l.25.2c.2.12.44.22.68.26.16.03.33.05.5.06h.5c.16-.02.31-.05.46-.1h.08l.4-.15.3-.22c.08-.08.15-.17.2-.26v-.06c.04-.09.06-.17.07-.26l.05-.06Z" fill="#398FE5"/>
    <path d="M82.3 30.29a.84.84 0 0 0-1.14-.34c-.2.1-.34.28-.4.5-.06.2-.1.42-.17.63l-.06.13c-.03.07-.07.14-.12.2l-.07.07h-.08a.07.07 0 0 0-.06 0h-.37l-.23-.08h-.05.04l-.12-.08-.07-.05-.05-.05-.17-.19-.07-.11-.05-.12c0-.08-.06-.17-.08-.27a.84.84 0 0 0-1.64.39 2.84 2.84 0 0 0 2.53 2.26 2.1 2.1 0 0 0 1.76-.63c.38-.47.63-1.04.74-1.64a.93.93 0 0 0-.08-.62Z" fill="#151921"/>
    <path d="M42.04 60.06v-.28a.97.97 0 0 0-.33-.48l-.29-.2a3.2 3.2 0 0 0-.42-.2h-.07c-.12 0-.32-.09-.48-.11h-.1l-.42-.05h-.09a2.8 2.8 0 0 0-.46 0c-.14 0-.34.07-.42.09h-.08c-.22.08-.42.22-.56.4a.44.44 0 0 0-.1.36c0 .14.04.27.12.38 0 .05.11.1.16.15l.21.23c.2.16.4.28.64.36.16.06.32.1.48.14h1.02l.4-.1c.13-.05.24-.11.35-.18.09-.07.17-.14.24-.23v-.04c.05-.08.08-.16.1-.25h.1Z" fill="#398FE5"/>
    <path d="M42.61 59.6a.84.84 0 0 0-1.54-.08c-.08.21-.16.42-.26.61l-.07.13-.15.18-.09.06h-.45l-.22-.12a.58.58 0 0 1-.11-.1l-.07-.05v-.05l-.14-.22a.49.49 0 0 1-.04-.12 1 1 0 0 1 0-.12v-.28a.84.84 0 0 0-1.68.15 2.84 2.84 0 0 0 2.19 2.6 2.09 2.09 0 0 0 1.83-.36c.45-.41.79-.94.97-1.52a.88.88 0 0 0-.17-.7Z" fill="#151921"/>
    <path d="M38.55 50.58c-.08-.22-.2-.43-.37-.6-.18-.17-.39-.3-.61-.38a2.96 2.96 0 0 0-2.04 0c-.37.1-.72.27-1.03.5a.84.84 0 0 0 0 1.2c.16.15.38.24.6.24a.98.98 0 0 0 .49-.17h-.04.05l.15.05c.14.04.3.04.44 0h.15l.14.06c.1.02.22.02.33 0 .08 0 .15-.02.22-.06l.06-.05a.76.76 0 0 0 .51.28c.11.01.23 0 .34-.02a.84.84 0 0 0 .61-1.05Z" fill="#398FE5"/>
    <path d="M38.41 49.87a.84.84 0 0 0-1.03.6v.09l-.1.18-.1.1-.07.07-.2.13h-.06l-.23.05h-.2l-.22-.05c-.1 0-.06 0 0 0l-.07-.04-.13-.07-.1-.1-.06-.06c0 .04.05.09 0 0a1.5 1.5 0 0 1-.12-.2v-.1a.84.84 0 1 0-1.62.44 2.63 2.63 0 0 0 5.05 0 .84.84 0 0 0-.74-1.04Z" fill="#151921"/>
    <path d="M99.59 40.44c0-.08-.05-.15-.07-.22.02-.12.02-.23 0-.35a1.68 1.68 0 0 0-.56-.98c-.35-.3-.8-.48-1.26-.5-.38 0-.75.07-1.1.22-.42.14-.77.44-.97.84l-.08.28c-.07.1-.13.2-.16.32a.9.9 0 0 0 .1.65.79.79 0 0 0 1.09.3c.17-.1.33-.23.48-.37.03.1.1.2.17.29.1.1.22.17.36.21.13.04.28.04.42 0l.12-.06c.08.14.19.25.32.34a.78.78 0 0 0 1.08-.31c.1-.2.12-.44.06-.66Z" fill="#398FE5"/>
    <path d="M99.73 38.7a.84.84 0 0 0-1.07.54c-.07.23-.14.46-.23.69V40l-.04.08-.16.24-.13.11-.1.06h-.4l-.11-.04h-.05l-.2-.14-.1-.1-.11-.14-.05-.07c-.04-.05-.06-.1-.09-.16a4.1 4.1 0 0 1-.27-.58.84.84 0 1 0-1.5.76 3.2 3.2 0 0 0 2.63 2.27 2.18 2.18 0 0 0 1.77-.7c.4-.49.69-1.06.84-1.68a.83.83 0 0 0-.01-.76.84.84 0 0 0-.62-.44Z" fill="#151921"/>
    <path d="M26.75 53.16a2.25 2.25 0 0 0-.07-.22.84.84 0 0 0 0-.35 1.68 1.68 0 0 0-.56-.98c-.35-.3-.8-.47-1.26-.49-.38-.01-.75.06-1.1.21-.42.14-.76.45-.96.84l-.09.3a.84.84 0 0 0-.06.96.8.8 0 0 0 1.09.28 2 2 0 0 0 .47-.37.84.84 0 0 0 .54.51.8.8 0 0 0 .42 0l.13-.04c.07.13.18.25.3.33a.77.77 0 0 0 1.1-.32 1 1 0 0 0 .05-.66Z" fill="#398FE5"/>
    <path d="M26.89 51.42a.84.84 0 0 0-1.07.53c-.06.24-.14.47-.23.7V52.8l-.16.24-.13.12-.1.05H24.8l-.1-.04h-.05l-.2-.16-.1-.1c0-.05-.08-.09-.11-.14l-.05-.08-.09-.16c-.1-.18-.2-.38-.27-.58a.84.84 0 0 0-1.5.76A3.22 3.22 0 0 0 24.96 55a2.19 2.19 0 0 0 1.77-.7 4.28 4.28 0 0 0 .9-2.1.84.84 0 0 0-.73-.77Z" fill="#151921"/>
  </g>
  <defs>
    <clipPath id="a">
      <path fill="#fff" transform="translate(.71)" d="M0 0h124.52v170.07H0z"/>
    </clipPath>
  </defs>
</svg>