<svg width="190"
		 height="193"
		 fill="none"
		 xmlns="http://www.w3.org/2000/svg">
	<path d="M172.043 181.487c-8.346-4.308-17.863-3.828-26.958-3.07-10.313.854-20.607 1.189-30.949.518-20.933-1.353-41.08-7.243-61.753-10.265-10.102-1.478-20.358-2.284-30.565-1.401-4.73.413-9.815.921-14.314 2.504-3.876 1.362-7.387 4.471-6.85 8.903.605 4.998 19.974 11.128 42.826 12.635 13.757.911 27.543 1.496 41.32 1.304 7.386-.105 14.793-.336 22.132-1.199 3.559-.422 7.07-1.084 10.62-1.564a41.907 41.907 0 0 1 10.562-.096c4.039.47 8.021 1.267 12.079 1.593 4.038.326 8.097.326 12.135 0 7.1-.576 14.736-1.832 20.109-6.85.882-.815.7-2.446-.394-3.012Z"
				fill="#171A1F" />
	<path d="M161.596 123.705c-.864-2.571-1.756-5.123-2.648-7.685.211-.278.384-.604.48-.978a6.26 6.26 0 0 0 .009-3.176c-.412-8.154-4.298-15.877-9.67-21.94-3.099-3.502-6.601-6.581-10.534-9.114-4.346-2.801-9.056-3.905-14.198-3.828-5.267.077-10.544.758-15.801 1.123-.393.028-.787.048-1.19.076-.681 4.95-.767 10.016-.662 14.88.413 19.744 4.318 39.727 13.364 57.408 4.596 8.999 10.947 17.268 17.48 24.933.23.279.47.547.71.826 4-2.466 7.847-5.152 11.445-8.193.105.144.211.268.336.383.863.739 1.985.682 2.926.154 6.552-3.646 10.524-10.764 11.79-17.988 1.612-9.095-.94-18.305-3.837-26.881Z"
				fill="#1B202A" />
	<path d="M119.816 179.288a.97.97 0 0 0-.125-.153c3.857-1.574 7.685-3.233 11.426-5.037a185.718 185.718 0 0 1-1.669-2.35c-6.121-8.826-11.954-17.94-15.762-28.033-3.78-10.025-6.188-20.53-7.435-31.16-1.123-9.651-1.19-19.513-.365-29.193.317-3.674.768-7.425 1.516-11.119-3.895-.048-7.79-.124-11.685-.24a701.405 701.405 0 0 1-32.704-1.746 715.422 715.422 0 0 1-34.173-3.482c.71-.854.912-2.14-.076-3.176-1.804-1.88-4.394-.661-5.584 1.238-1.026 1.64-1.775 3.511-2.513 5.296a50.259 50.259 0 0 0-3.138 10.984c-1.275 7.656-.988 15.532.998 23.044.183.71.413 1.41.633 2.111-.642.249-1.15.777-1.448 1.554-1.017 2.686-1.487 5.535-2.024 8.346-.547 2.84-1.075 5.67-1.535 8.529-.921 5.727-1.612 11.522-1.535 17.335.124 9.632 2.436 19.638 8.23 27.505 2.84 3.847 6.371 7.099 10.573 9.402 4.27 2.341 8.99 3.751 13.767 4.586.527.095 1.065.153 1.602.239-.537 1.363 1.333 2.053 3.271 2.207 8.72.681 16.357 1.813 25.078 1.074 4.48.048 8.98-.268 13.45-.959.46-.067.816-.269 1.094-.528 8.596-.297 17.153-1.218 25.528-3.261l.106.076c.297.173.623.259.969.259.172.01.355.01.527-.009.317-.029.653-.067.96-.144.163-.039.316-.087.47-.154.307-.124.614-.249.902-.412.22-.125.402-.288.537-.499.172-.182.288-.403.345-.652.077-.259.096-.509.039-.768a1.541 1.541 0 0 0-.25-.71Z"
				fill="#1B202A" />
	<path d="M137.391 113.735a163.392 163.392 0 0 0-8.049-15.1c-.652-1.085-1.832-1.113-2.657-.586-.269-.374-.71-.92-.959-1.372.191-.134.393-.259.546-.393.375-.317.72-.652 1.046-1.017.662-.758 1.247-1.583 1.66-2.504.882-1.957.911-3.914.009-5.871-.556-1.2-2.168-1.132-3.012-.384-3.54 3.109-7.09 6.178-11.205 8.52-4.068 2.311-8.443 4.038-12.645 6.082-2.532 1.237-5.017 2.83-7.694 3.54-2.897-.624-5.852-.902-8.806-1.075a66.37 66.37 0 0 0-2.217-.748c-2.273-.729-4.614-1.151-6.974-1.497-2.667-.403-5.344-.748-7.944-1.477-2.61-.73-5.123-1.746-7.626-2.773-.624-.259-1.21-.076-1.65.307-.624-.172-1.344-.01-1.871.413-.47-.096-.96-.087-1.382.163-.643.384-.68 1.132-.46 1.765.182.509.403.998.662 1.468a1.593 1.593 0 0 0-.528 1.18c0 1.055.911 1.679 1.765 2.072.547.25 1.142.461 1.746.585-1.113 1.075-1.909 2.523-2.532 3.914-1.65 3.675-2.744 7.79-3.233 11.791-.5 4.116.326 8.116 2.58 11.608 1.036 1.612 2.284 3.089 3.598 4.471 1.276 1.333 2.6 2.753 4.125 3.808 2.043 1.411 4.48 1.276 6.85 1.113 1.65-.115 3.3-.335 4.93-.623a25.707 25.707 0 0 0 1.44 9.123c.432 1.238 1.65 1.708 2.82 1.151 6.361-3.05 14.237-4.192 21.049-5.593 3.722-.767 7.051-2.494 10.62-3.779 3.396-1.228 8.356-3.128 11.522-4.864 1.611-.883 2.667-1.487 3.386-2.312.547.134 1.142-.01 1.641-.576 4.077-4.72 6.245-10.726 6.447-16.942.009-.432-.01-.854-.01-1.286 1.525 1.391 4-.201 3.012-2.302Z"
				fill="#398FE5" />
	<path d="M81.845 147.419c-1.152-2.187-2.101-4.547-2.178-7.042-.038-1.161-1.717-1.218-1.89-.201-1.027-.067-2.072.978-2.725 1.612-.614.604-.134 1.429.509 1.592.01.173.019.345.029.499.096 1.199.355 2.37.71 3.511.172.547.355 1.094.556 1.631.201.547.345 1.286.758 1.698.508.509 1.16.326 1.765.154a15.678 15.678 0 0 0 1.708-.595c.546-.23 1.103-.432 1.285-1.065.192-.652-.23-1.228-.527-1.794ZM122.656 132.95a49.795 49.795 0 0 1-2.331-8.299c-.01-.038-.029-.067-.039-.096-.028-.479-.355-.95-.93-.94-.125 0-.25 0-.374-.01.038-.067.096-.134.124-.211.365-.94-.297-2.235-.527-3.146a52.725 52.725 0 0 1-1.305-7.829c-.115-1.218-2.034-1.228-1.919 0a57.807 57.807 0 0 0 1.094 7.138c.115.537.249 1.065.384 1.592.067.26.47 1.516.47 1.516.038-.105-.528.183-.681.298-.327.24-.49.508-.624.882-.125.355.077.931.441 1.084.384.163.768.288 1.161.384-.125.595-.105 1.257-.019 1.832.326 2.284.806 4.538 1.381 6.774.279 1.093 1.814.796 1.881-.26 0-.047 0-.095.009-.143.471 1.055 2.236.566 1.804-.566ZM72.606 139.763c-6.62-1.4-12.539-5.919-14.18-12.711-.843-3.483-.498-7.761.404-11.167.844-3.185 2.686-7.253 5.219-9.45.335-.288.153 1.046.028.739.374-.566.135-1.525-.748-1.516-.643.01-1.314.048-1.976.144a1.485 1.485 0 0 0-.547-.173c-.969-.124-1.698.595-2.293 1.315a3.803 3.803 0 0 0-1.046 1.42 20.563 20.563 0 0 0-2.763 5.737c-1.477 4.863-1.4 10.313-.047 15.205.278 2.504.825 5.008 2.8 6.687a.52.52 0 0 0 .058.077l.01-.01c.067.058.115.115.182.163a.842.842 0 0 0 .48.173c2.053 2.561 4.806 4.49 8.202 5.104.883.163 3.406.096 3.262-.278.797.163 1.602.297 2.418.393.01 0 .019.009.029.009.086.01.172.029.259.039 1.064.105 1.295-1.679.249-1.9Z"
				fill="#2677C7" />
	<path d="m143.407 137.722-12.99.566c-4.144.182-8.452.057-12.52.93-3.914.845-7.579 2.725-11.435 3.819-3.694 1.045-7.464 1.822-11.196 2.724-4.26 1.027-8.452 2.255-12.433 4.106-.547.25-.758.681-.739 1.123-.172.566-.048 1.228.595 1.631 4.989 3.137 10.361 5.641 15.762 8.077.988.538 1.976 1.065 2.965 1.602.028.02.057.029.086.048a1.508 1.508 0 0 0 .585 2.428c4.106 1.688 8.212 3.377 12.29 5.113l3.223 1.381a66.733 66.733 0 0 0 3.492 1.555c1.218.911 2.418 1.851 3.569 2.878 1.17 1.045 3.166-.298 2.264-1.746-.029-.058-.077-.106-.106-.154.461-.307.825-.739 1.19-1.209a77.481 77.481 0 0 0 3.463-4.959 83.028 83.028 0 0 0 4.125-7.176c.116.364.231.729.375 1.084.403 1.064 2.014 1.535 2.628.345 1.689-3.281 2.303-7.147 3.214-10.697.998-3.885 1.996-7.771 2.984-11.656.22-.854-.432-1.852-1.391-1.813Z"
				fill="#252B36" />
	<path d="M142.39 137.452c-.816-.24-1.487.298-1.775 1.075-.442 1.228-.662 2.484-.816 3.789-.105.854-.048 1.919-.192 2.83-.22 0-.422.01-.652.058-.489.096-.921.307-1.257.719-.594.739-.556 1.89.288 2.418 0 0 .01 0 .01.009-.461.778-.739 1.747-.931 2.744a87.309 87.309 0 0 0-1.103 7.406c-.086.826.729 1.535 1.439 1.535.854 0 1.353-.709 1.439-1.535.182-1.707.422-3.396.719-5.084.096-.528.355-3.636 1.027-3.713 1.094-.115 1.746-1.391 1.247-2.312.393-.528.499-1.218.566-1.938.192-2.082.278-4.135.988-6.111.288-.767-.297-1.679-.997-1.89ZM125.265 172.273c-1.765-1.352-3.501-2.782-5.324-4.058a4.937 4.937 0 0 0-2.092-.844c-.067-.691-.326-1.305-1.074-1.65-.528-.24-1.113-.221-1.65-.019-.422.163-.662.432-.921.71-9.872-4.816-19.283-10.898-28.829-16.328-1.612-.921-5.66 1.112-4.048 2.024 9.843 5.602 22.17 12.308 32.368 17.259.365.182.816.259 1.209.115.077 1.093 1.689 1.755 2.437.854.508-.614 5.708 3.837 6.466 4.413 1.477 1.132 2.916-1.363 1.458-2.476Z"
				fill="#343A46" />
	<path d="M154.871 100.168c.009-1.909-.691-3.703-1.737-5.382-2.801-6.312-7.991-11.464-14.63-13.805-.806-.287-1.525-.201-2.091.087a9.65 9.65 0 0 1-.451-.892c-1.218-2.821-5.737-1.228-4.519 1.62 1.909 4.423 5.747 7.052 9.412 9.92 1.832 1.43 3.492 2.975 4.864 4.855 1.563 2.14 2.782 4.471 3.847 6.888.815 1.852 3.444 2.168 4.413.24.498-.998.767-1.967.853-2.917.058-.201.077-.402.039-.614ZM164.608 135.867c-.729-2.14-3.828-1.228-3.712.748-1.209-.096-2.61.988-2.159 2.542a25.443 25.443 0 0 1 .566 11.829c-.787 4.097-2.696 7.8-4.605 11.465-.815 1.563.835 3.108 2.379 2.647 2.639-.786 4.327-3.041 5.593-5.353a28.969 28.969 0 0 0 2.83-7.598c1.209-5.382.883-11.061-.892-16.28ZM72.884 142.745c-3.914-1.151-7.895-1.995-11.915-2.6.134-.921-.422-1.976-1.372-2.264-6.571-1.957-13.651-1.256-19.753 1.842-2.206 1.123-.259 4.433 1.938 3.31 2.84-1.439 5.92-2.216 9.047-2.369-.768.575-1.42 1.295-1.823 2.206-.633 1.429.134 2.696 1.66 2.888 1.986.249 3.808-.643 5.737-.969 1.813-.307 3.684-.192 5.468.23 3.684.854 7.185 2.322 11.023 1.42 1.88-.441 1.746-3.176-.01-3.694ZM92.158 162.258c-.96-1.967-2.936-3.655-4.644-4.96-1.89-1.458-3.971-2.571-6.178-3.463-4.01-1.622-8.308-2.226-12.625-2.36-3.857-.394-7.78-.039-11.483 1.112-2.35.729-1.343 4.433 1.017 3.704a25.665 25.665 0 0 1 4.595-.96c.096.01.201.019.307.019a78.514 78.514 0 0 1 4.998-.057c5.584.556 10.927 2.964 15.13 6.926 1.726 1.631 3.865 4.202 6.302 4.634 2.744.489 3.55-2.6 2.58-4.595ZM25.463 93.482c.557-4.106 2.284-7.867 4.26-11.465 1.717-3.127 5.037-7.08 3.626-10.869-1.15-3.099-4.95-4.279-7.933-3.31-3.512 1.132-5.325 4.634-6.419 7.896-2.456 7.348-3.089 15.378-2.091 23.043.576 4.394 1.621 8.702 3.262 12.827 1.506 3.799 3.28 8.366 6.85 10.678 1.19.767 2.964-.231 2.887-1.66-.01-.202-.038-.384-.057-.576.499-.403.758-1.045.46-1.851-2.849-7.819-5.986-16.252-4.845-24.713Z"
				fill="#252B36" />
	<path d="M124.804 179.912c-1.611-.288-3.223-.585-4.835-.873-.758-.134-1.516-.278-2.273-.412-.029-.01-.058-.01-.087-.02a8.189 8.189 0 0 0-2.542-1.573c-.614-.24-1.238-.393-1.909-.336-.749.067-1.439.384-2.14.643-.642.23-1.276.47-1.918.7-2.754-.163-5.545.288-8.328.854-4.95 1.017-9.89 1.756-14.946 2.082-5.142.336-10.304.355-15.455.278-5.133-.077-10.294-.105-15.427-.47-4.893-.355-9.776-1.353-14.342-3.108-6.87-4.183-12.932-9.699-17.154-16.607a40.949 40.949 0 0 1-4.02-8.691 58.472 58.472 0 0 1-.844-6.61c-.345-4.586-.297-9.172-.153-13.767.173-.748.355-1.506.576-2.255.93-3.185 2.062-6.322 2.686-9.593.566-2.974 1.141-6.821-.49-9.555-.69-1.161-2.666-1.334-3.31 0-2.187 4.528-2.791 9.468-3.04 14.438a360.114 360.114 0 0 0-.26 6.428c-1.103 4.883-1.285 9.852-.566 14.841v.019c-.038.144-.076.288-.086.441-.777 7.435 1.717 14.947 5.986 20.991 4.404 6.245 10.553 10.956 17.298 14.458 3.933 2.043 7.387 1.995 11.57 3.453 1.199.422 2.724 1.353 2.945.384 3.866.451 7.819.489 11.646.595 8.663.24 17.336.067 25.99-.24 4.815-.173 9.64-.336 14.457-.614 1.803-.106 3.597-.297 5.315-.72.096.01.182.02.278.02 2.667-.163 5.334-.317 8.001-.48 2.59-.154 5.468.019 7.828-1.209 1.401-.71 1.171-3.195-.451-3.492Z"
				fill="#252B36" />
	<path d="M112.391 172.622c.498-.835.45-1.967-.643-2.562a191.284 191.284 0 0 1-13.604-8.173c-1.612-1.324-3.3-2.543-5.017-3.732-2.514-1.746-11.167-4.672-1.938 3.309.47.413 1.036.691 1.544 1.056.077.192.183.374.336.547 2.005 2.273 4.5 3.904 7.061 5.449 3.06 2.6 6.169 5.132 9.795 6.945 1.842.912 3.693-1.218 2.466-2.839ZM54.1 124.232c-.796-3.923-1.017-7.914.125-11.838a15.855 15.855 0 0 1 1.727-3.885c.45-.355.96-.634 1.535-.806 1.65-.499 1.803-2.581.46-3.512a8.121 8.121 0 0 1-1.132-.94c-.288-.422-.633-.786-.988-1.132a9.363 9.363 0 0 1-.883-1.41l-.892-4.202c.633-1.535-.547-2.993-2.206-2.705-2.84.498-4.624-2.917-5.66-4.98-1.516-3.021-2.974-6.072-4.462-9.104-.738-1.506-3.108-1.065-3.51.46-.125.49-.221.989-.298 1.488.057-1.833.269-3.665.681-5.478.537-2.408-3.156-3.435-3.703-1.017-1.516 6.744-1.007 13.843 1.621 20.252.326.796.93 1.41 1.852 1.41.153 0 .316-.028.47-.076 2.197 4.835 6.466 8.71 11.685 10.149 1.4.384 2.513-.949 2.427-2.139.029.019.048.048.077.067.028.019.163.163.297.288l.134.163c-.096.144-.182.278-.287.413-.087.124-.163.249-.25.364-2.868 2.802-3.808 7.464-4.365 11.349-.911 6.419-.537 13.969 5.027 18.305.681.537 1.526.767 2.322.297a1.95 1.95 0 0 0 .604-.585c-2.226-3.233-2.993-7.281-2.408-11.196Z"
				fill="#151921" />
	<path d="M135.492 181.024c-7.377-1.391-14.563-3.723-21.317-7.004-2.216-1.074-4.163 2.236-1.938 3.31 7.061 3.425 14.525 5.929 22.238 7.387 1.017.192 2.072-.278 2.36-1.343.259-.93-.316-2.158-1.343-2.35Z"
				fill="#fff" />
	<path d="M152.185 89.752c-4.816-5.008-11.445-7.531-16.76-11.896-3.061-2.514-5.718-5.69-6.533-9.652-.25-1.208-2.149-.94-1.9.279 1.41 6.85 7.205 11.291 12.836 14.754 2.926 1.804 5.929 3.512 8.615 5.68 2.897 2.34 5.094 5.228 6.533 8.672 1.641 3.905 2.341 8.126 2.888 12.299.163 1.228 2.063.95 1.9-.278-.931-7.061-2.456-14.534-7.579-19.858ZM166.45 135.453c-.259-1.199-2.062-.547-1.803.653 3.779 17.68-7.906 33.481-20.022 44.888-.902.844.566 2.091 1.458 1.247 10.035-9.45 19.206-21.02 20.895-35.151a35.902 35.902 0 0 0-.528-11.637ZM28.111 121.85c-8.903-11.541-12.27-26.89-9.44-41.157a48.728 48.728 0 0 1 3.924-11.723c.537-1.113-1.18-1.967-1.718-.854-6.562 13.566-6.734 29.875-.844 43.709a50.61 50.61 0 0 0 6.485 11.099c.749.969 2.35-.096 1.593-1.074Z"
				fill="#151921" />
	<path d="m136.94 181.954-.374-.288a1.835 1.835 0 0 1-.479-.825c-.02-.163-.048-.326-.068-.489-10.802 3.77-37.386 5.315-48.773 5.986-5.862.346-11.743.403-17.614.288-5.69-.115-11.388-.422-17.019-1.295-10.179-1.583-20.185-5.161-27.85-12.251-3.502-3.242-6.409-7.166-8.193-11.608-2.168-5.372-2.667-11.225-2.667-16.971.01-13.201 1.995-26.421 5.612-39.113.336-1.19-1.544-1.564-1.88-.384a147.441 147.441 0 0 0-5.574 35.813c-.182 5.881-.058 11.848 1.468 17.566 1.333 4.979 3.866 9.517 7.272 13.373 6.811 7.704 16.376 12.251 26.277 14.487 11.473 2.59 23.61 2.628 35.313 2.244 13.374-.441 41.569-1.976 54.703-6.466-.048-.028-.106-.038-.154-.067ZM145.939 129.613c-1.64-2.11-4.48-1.065-6.667-1.669-1.19-.326-1.573 1.554-.384 1.88 1.075.298 2.12.221 3.224.24.777.01 1.832.058 2.34.749.566.757.135 2.158-.019 3.012a71.603 71.603 0 0 1-.671 3.175l-1.526 6.639c-.249 1.075-.489 2.14-.738 3.214-.163.691-.327 2.456-1.296 2.456-.393 0-.825.374-.873.767-.086.634.135 1.132.71 1.459.106.057.269.134.422.192-.038.067-.076.143-.143.239-1.209 1.833-2.485 6.495-2.552 8.683-.039 1.228 1.87 1.093 1.918-.125.039-1.161.96-4.883 1.411-5.958.403-.95 1.218-1.717 1.573-2.657.221-.566.058-1.142-.403-1.526-.019-.019-.057-.028-.077-.048.864-1.055 1.132-2.81 1.401-4.01.719-3.118 1.439-6.235 2.149-9.353.48-2.121 1.698-5.43.201-7.359Z"
				fill="#151921" />
	<path d="M126.676 95.611a14.612 14.612 0 0 1-3.281 2.523c-3.723 1.67-8.558 1.257-12.405 1.746-5.459.701-11.1 3.042-13.891 8.059-.24.441-.279 1.075-.192 1.65-.01.115.019.221.057.317.202.873.672 1.477 1.065.777.039-.067.077-.125.115-.182.202-.039.403-.144.576-.327 1.852-2.11 3.905-4.154 6.361-5.554 2.82-1.602 5.631-1.67 8.797-1.775 3.003-.106 6.015-.413 8.951-1.046 2.312-.499 4.614-1.554 5.506-3.866a11.398 11.398 0 0 1-1.659-2.322Z"
				fill="#2677C7" />
	<path d="M125.054 134.842c-15.129 7.263-31.428 11.513-47.613 15.676a31.134 31.134 0 0 1-1.976-9.689c-.096.038-.192.086-.288.105l-.499.039a1.85 1.85 0 0 1-.92-.307l-.212-.183a32.55 32.55 0 0 0 2.39 11.436c.2.489.632.806 1.18.672 16.634-4.279 33.366-8.635 48.917-16.089 1.103-.547.124-2.197-.979-1.66Z"
				fill="#151921" />
	<path d="M107.028 137.479a110.64 110.64 0 0 1-30.92 8.874c-1.209.163-1.218 2.082 0 1.919a114.357 114.357 0 0 0 31.889-9.143c1.122-.508.153-2.159-.969-1.65ZM137.439 115.847c-1.717-7.425-5.219-14.361-10.217-20.117-.806-.93-2.321.25-1.506 1.19a44.787 44.787 0 0 1 9.833 19.225c.269 1.18 2.169.911 1.89-.298Z"
				fill="#151921" />
	<path d="M110.501 96.793c2.245-.921 4.538-1.861 6.677-3.05a.86.86 0 0 1 .211-.202c.806-.557 1.602-1.142 2.446-1.64-.278-.701-1.045-1.229-1.957-.864l-5.209 2.062c-2.36.806-4.749 1.526-7.08 2.418-1.583.604-3.137 1.305-4.595 2.159-1.353.508-2.706 1.036-3.972 1.698-.422.22-.835.48-1.209.757l-.211-.22c-.71-.73-1.66-.624-2.302.105-.26.288-.432.643-.528 1.017-1.832-.633-3.674-1.266-5.507-1.89-.892-.307-1.592.24-1.842.931-1.093.604-1.017 2.552.537 2.724a19.462 19.462 0 0 1 8.002 2.715c.69.423 1.573.259 2.014-.326a1.36 1.36 0 0 0 1.017-.259c.93.135 1.746-.575 2.159-1.496.575-1.286 1.611-2.207 2.782-2.946 1.468-.575 2.926-1.16 4.394-1.736 1.208-.48 2.408-.96 3.616-1.43a1.07 1.07 0 0 1 .557-.527Z"
				fill="#FFBF24" />
	<path d="M98.077 109.4c.451-.509.46-1.468-.364-1.823a21.996 21.996 0 0 0-4.75-1.41.903.903 0 0 0-.93.374c-.364-.058-.738-.125-1.103-.182-.259-.039-.499-.039-.739.096-.201.115-.393.345-.441.575-.01.029 0 .058 0 .086-3.07-.604-6.178-.959-9.373-.834-5.66.23-11.35 1.4-16.99.268-1.382-.278-2.83 1.507-1.621 2.207 5.88 3.415 12.5.029 18.026-.278 5.861-.326 12.05.882 17.662 2.456 1.026.297 1.276-.768.623-1.535Z"
				fill="#2677C7" />
	<path d="M133.324 44.058c.547-.71.566-1.861-.01-2.543-3.146-3.732-7.099-6.686-11.541-8.701a31.072 31.072 0 0 0-4.643-1.65c.038-.096.077-.182.115-.278.067-.211.096-.422.086-.633a2.394 2.394 0 0 1-.383-.749 1.492 1.492 0 0 1-.077-.499 1.902 1.902 0 0 0-1.276-.671 175.666 175.666 0 0 0-33.54.24l.433-.47c-.202.038-.403.076-.605.124a37.572 37.572 0 0 0-5.449 1.487c-.125.039-.25.087-.374.134-1.295.096-2.59.202-3.847.432-.576.106-.921.46-1.055.883-.873.125-1.746.163-2.6.048-.02.163-.048.326-.067.499-1.152-.595-2.955.278-4.289.288-3.962.028-7.118 1.17-10.447 3.089-3.233 1.87-6.485 4.048-9.047 6.801.432.48.585 1.21.394 1.842-.039.135-.096.26-.144.384.182.652-.058 1.391-.547 1.87a33.99 33.99 0 0 0-1.008 1.027l-.46.49-.144.163c-.057.067-.144.163-.134.163a27.57 27.57 0 0 0-1.602 2.063c-.509.738-.96 1.506-1.392 2.302-.01.02-.01.029-.019.048-.038.086-.086.182-.124.269-.106.23-.211.45-.307.68-.183.423-.346.855-.5 1.286-.287.825-1.112 1.257-1.937 1.17-.806 1.833-1.497 3.704-2.015 5.642-1.39 5.247-1.516 10.956.48 16.02.22-.095.46-.153.69-.172.404-.019.768.077 1.104.288.384.24.671.72.758 1.151.134.72.288 1.44.48 2.15.661-.068 1.275-.452 1.573-1.123 1.67 4.422 4.288 8.48 7.77 11.704 5.258 4.883 12.06 7.79 19.15 8.356 4.528 2.024 9.64 2.053 14.582 1.612.163-.01.316-.029.48-.048 6.005 1.007 12.078.393 17.968-1.152 3.137-.825 6.236-1.86 9.267-3.031 1.775-.69 3.531-1.487 5.114-2.552 2.436.23 5.209-1.228 7.137-2.38 5.833-3.472 9.843-9.113 12.366-15.33.096-.25.183-.499.279-.748.863.24 1.842-.096 2.235-1.17 3.693-10.074 2.504-21.605-2.878-30.805Z"
				fill="#FFBF24" />
	<path d="M138.773 60.837c-.269-1.563-.585-3.108-1.036-4.624-.844-2.878-2.274-5.554-3.262-8.384-.317-.931-.144-1.929.815-2.408.068-.03.135-.058.212-.077a18.716 18.716 0 0 0-.528-.93 2.47 2.47 0 0 0-.134-.212 33.665 33.665 0 0 0-1.372-1.688 2.001 2.001 0 0 0-.115-.566c-.087-.125-.173-.26-.269-.384a2.434 2.434 0 0 1-.211-.374c-2.044-2.523-4.49-4.547-7.176-6.217a54.077 54.077 0 0 0-3.339-2.389c-1.467-.556-3.06-.815-4.384-1.717-.508-.345-.854-.777-1.046-1.362-.009-.029-.009-.048-.019-.077-.105-.048-.201-.105-.297-.153.432-.921.278-1.804-.921-2.264-8.318-3.233-17.317-1.574-25.903-.27-.01 0-.21-.738-.22-.738a2.276 2.276 0 0 1-.26.154c-.23.105-.46.201-.69.297-1.17 1.084-1.42 1.938.604 1.631 5.401-.815 12.088.029 17.547.528.115.029.23.067.336.096-.816.94-.662 2.667.748 3.098 3.597 1.104 8.5 1.766 15.753 6.447.326.173.642.374.968.566l.192.135c-1.122.614-1.535 2.407-.24 3.31 1.603 1.112 3.186 2.369 4.634 3.76-.729.297-1.228 1.123-.767 1.938a82.371 82.371 0 0 1 2.11 4c2.379 5.229 3.751 11.244 3.041 16.971-.825-.546-2.139-.278-2.196 1.008-.02.336-.202 3.511-1.919 7.78-2.514 5.497-8.893 14.813-14.755 16.578-.624.192-.307.412 1.871-.144a23.954 23.954 0 0 0 3.156-1.065c.211-.105.422-.211.633-.336.393-.24.729-.489 1.161-.834.921-.74 1.784-1.545 2.686-2.322.921-.796 1.919-1.506 2.84-2.312a30.396 30.396 0 0 0 2.676-2.667c.192-.22.451-.346.73-.403a23.34 23.34 0 0 0 2.321-4.346c.499.125 1.046-.02 1.42-.585 1.89-2.85 2.907-5.871 3.281-8.96.998-2.677.796-5.824.499-8.654.355-.173.643-.45.825-.834Z"
				fill="#FCFA9C" />
	<path d="M148.817 25.532a69.314 69.314 0 0 0-1.909-3.77 70.233 70.233 0 0 0-3.127-3.425c-1.286-1.324-2.6-2.619-4.039-3.78-1.113-.892-2.389-1.717-3.3-2.84-1.008-.076-1.957.26-2.591 1.363-.594 1.026-.364 2.321-.182 3.444.25 1.487.72 2.935 1.209 4.355.48 1.401 1.017 2.773 1.42 4.193.316 1.132.796 2.504.086 3.569-.144.22-.326.431-.518.633a5.53 5.53 0 0 1-.93 1.928c-1.411 1.832-3.281 3.022-5.248 4.096-.873-.566-2.092.586-1.276 1.401a36.065 36.065 0 0 1 4.02 4.768c.048.067.086.125.124.192-.431.969-.057 2.331 1.065 2.667.336.096.633.278.835.528.288.68.451 1.448-.077 2.005-.278.288-.46.767-.23 1.15.815 1.354 2.216 1.2 3.454.548a106.38 106.38 0 0 0 4.557-2.552 69.871 69.871 0 0 0 2.887-1.813c1.957-1.151 3.79-2.504 5.373-4.097 2.072-2.091 2.216-4.374 1.343-7.08-.825-2.542-1.794-5.056-2.946-7.483ZM36.736 53.342c-1.535-.21-3.031.048-4.566.068-.758.01-1.631-.03-2.293-.413-.653-.192-1.257-.508-1.765-1.026-.845-.864-1.219-2.13-1.44-3.291-.69-3.598-.959-7.253-1.976-10.783-.163-.557.067-1.123.451-1.535-.652-.95-1.602-1.43-3.031-.835-1.2.499-2.073 1.689-2.83 2.696-.854 1.122-1.545 2.35-2.15 3.626-2.34 4.874-2.273 9.47-2.753 14.784-.268 3.041-.834 7.243 1.67 9.373 2.215 1.87 5.535 2.629 8.307 3.252 1.804.403 3.617.72 5.46.892 1.764.163 3.482-.067 4.01-2.024.968-3.588 1.525-7.33 2.254-10.985l.336.03c2.465.325 2.753-3.502.316-3.829Z"
				fill="#5EDC10" />
	<path d="M54.11 9.31c-.077.115-.135.24-.202.364a1.433 1.433 0 0 0-1.18-.028c-.92.364-1.775.815-2.561 1.343-1.19.547-2.303 1.256-3.358 2.053-1.717 1.295-4.144 2.916-4.777 5.094-.327 1.094-.192 2.254-.068 3.377.163 1.42.346 2.83.557 4.25.182 1.237.383 2.465.604 3.693-.269.192-.47.49-.441.893.24 3.741.988 7.377 2.187 10.927.202.594 1.075.671 1.497.297a53.99 53.99 0 0 1 9.075-6.572c.336-.191.643-.623.518-1.036a186.097 186.097 0 0 1-.997-3.415c-.144-1.18-.298-2.36-.451-3.54-.624-5.027-1.084-10.198.499-15.1.038-.135.067-.269.067-.394.192-.374.393-.748.633-1.113.652-1.055-.94-2.139-1.602-1.093Z"
				fill="#252B36" />
	<path d="M108.284 3.667c-3.022-2.216-7.348-1.237-10.735-.69-4.47.729-8.931 1.544-13.345 2.552-3.482.796-6.974 1.851-10.015 3.77-2.274.585-4.375 1.381-5.987 3.252-1.87 2.168-2.417 5.142-2.983 7.857A61.354 61.354 0 0 0 64 30.04c-.019.441.211.73.518.883-.057 1.592 2.264 1.86 2.783.48 8.634-1.718 17.335-3.06 26.094-3.972 2.197-.23 4.394-.432 6.6-.614 1.852-.154 4.059 0 5.651-1.132 1.497-1.065 1.938-3.09 2.427-4.759a48.763 48.763 0 0 0 1.362-6.101c.327-2.082.519-4.183.557-6.284.019-1.87-.058-3.665-1.708-4.874Z"
				fill="#343A46" />
	<path d="M83.092 1.588c-8.433 1.9-16.75 4.355-24.934 7.128-.46-.221-1.122-.125-1.4.47-1.334 2.887-1.19 6.053-1.104 9.162.096 3.712-.422 7.415-.268 11.128.038.825.095 1.64.21 2.456.106.73.173 1.736.557 2.389.835 1.381 2.494.048 3.454-.47.796-.422 1.602-.844 2.398-1.267.643-.335 1.526-.652 1.928-1.295.375-.595.298-1.362.307-2.034.01-.959.03-1.909.068-2.868.124-3.54.393-7.224 1.554-10.601.547-1.583 1.343-3.09 2.619-4.202 1.324-1.142 3.012-1.813 4.624-2.437 3.569-1.372 7.32-2.206 10.879-3.569 1.151-.44 2.187-1.371 1.938-2.715-.24-1.496-1.602-1.554-2.83-1.275Z"
				fill="#89A1AE" />
	<path d="M82.18 101.626c-7.54.393-15.723-2.658-22.449-6.649-5.813-3.444-10.188-8.864-13.383-14.735-.825-1.516-2.532-1.248-3.261-.125a27.704 27.704 0 0 1-1.161-12.222c.144-1.104-1.593-2.226-2.648-2.245.528-2.475.873-4.346 1.554-6.716 1.391-4.806 2.686-9.68 6.255-13.296 1.727-1.746.23-2.946-1.506-1.18-3.962 4.01-5.689 7.406-7.272 12.76-.815 2.762-1.938 4-2.552 6.81-.681 3.176-.767 7.58-.623 10.841.048 1.036.633 1.977 1.755 2.063.49.038.988-.135 1.372-.442a31.565 31.565 0 0 0 6.687 14.823c.604.729 1.746.844 2.504.316.623-.431.854-1.036.815-1.698 2.648 3.224 5.727 6.082 9.316 8.212 3.405 2.015 7.099 3.281 11.013 3.838 4.26.604 8.586.383 12.874.153 1.037-.057 3.675.988 3.761-.144.077-.921-2.014-.422-3.05-.364Z"
				fill="#FFBF24" />
	<path d="M46.396 43.761c-6.331 6.064-8.797 14.66-9.65 23.15-.183 1.851 2.685 2.072 2.868.23.767-7.713 2.897-15.695 8.672-21.211 1.334-1.276-.547-3.454-1.89-2.169Z"
				fill="#FFBF24" />
	<path d="M67.57 31.395c-7.925 1.861-16.357 4.106-21.451 10.975-1.104 1.487 1.276 3.1 2.379 1.622 4.595-6.198 12.894-9.853 19.993-11.522 1.794-.432.882-1.506-.921-1.075Z"
				fill="#FFBF24" />
	<path d="M116.238 93.331c-7.253 4.01-16.338 5.43-21 12.933-.5.796.748 1.554 1.247.757 2.868-4.624 8.02-7.003 12.865-9.008 3.712-1.535 7.588-3.07 10.812-5.478-1.247.451-2.581.73-3.924.796Z"
				fill="#151921" />
	<path d="M119.336 92.822c-2.859 1.977-6.149 3.348-9.382 4.682l-.701.288c-4.988 2.062-10.102 4.47-12.97 9.104-.201.317-.518.24-.672.144-.191-.115-.345-.355-.163-.643 3.233-5.209 8.759-7.502 14.093-9.718 2.456-1.017 4.96-2.072 7.272-3.396-.364.038-.729.048-1.093.057-2.053 1.094-4.222 2.015-6.361 2.897-5.411 2.245-11.004 4.567-14.323 9.911-.326.518-.087 1.045.316 1.304.211.135.47.192.72.144a.94.94 0 0 0 .614-.441c2.801-4.509 7.838-6.879 12.75-8.912l.7-.288c3.742-1.545 7.579-3.147 10.745-5.68-.489.211-1.007.394-1.545.547Z"
				fill="#151921" />
	<path d="M128.997 85.438a4.88 4.88 0 0 1-.173.249c.586 1.084.845 2.408.72 3.684-.345 3.502-2.811 5.698-5.871 7.07-6.121 2.754-13.028 2.86-19.264 5.258-3.07 1.18-5.89 2.906-8.05 5.43-.613.709.586 1.544 1.2.834 4.682-5.468 12.366-6.36 18.976-7.809 3.54-.777 7.253-1.736 10.294-3.77 2.696-1.804 4.336-4.855 4.192-8.126a7.5 7.5 0 0 0-1.4-4.02 9.558 9.558 0 0 1-.624 1.2Z"
				fill="#151921" />
	<path d="M129.745 84.016c-.076.163-.163.326-.24.48a7.286 7.286 0 0 1 1.286 3.77c.134 3.108-1.429 6.14-4.087 7.914-3.079 2.053-6.888 3.013-10.217 3.742-.863.192-1.746.364-2.629.547-6.072 1.237-12.347 2.523-16.472 7.339a.48.48 0 0 1-.49.172c-.2-.038-.373-.172-.43-.335-.04-.125-.01-.24.095-.365 1.948-2.274 4.624-4.077 7.953-5.363 2.878-1.103 5.948-1.736 8.932-2.34 3.463-.71 7.042-1.44 10.351-2.927 3.675-1.65 5.689-4.096 6.006-7.262.144-1.4-.154-2.801-.806-3.933-.096.163-.201.307-.307.46a6.278 6.278 0 0 1 .643 3.425c-.298 2.984-2.226 5.305-5.728 6.879-3.252 1.468-6.811 2.187-10.246 2.887-2.993.614-6.091 1.247-9.008 2.36-3.406 1.305-6.14 3.157-8.145 5.497a.826.826 0 0 0-.182.835c.115.326.422.576.796.643a.98.98 0 0 0 .94-.336c4.02-4.691 10.218-5.958 16.204-7.176.892-.182 1.775-.364 2.638-.547 3.377-.739 7.234-1.707 10.38-3.808 2.792-1.871 4.442-5.066 4.298-8.337a7.812 7.812 0 0 0-1.535-4.221Z"
				fill="#151921" />
	<path d="M97.578 106.674c-3.674-2.792-7.819-4.164-12.136-5.018-.259.029-.527.039-.786.029a1.487 1.487 0 0 1-.681.134c-.288-.009-.576-.009-.864-.009a4.55 4.55 0 0 1-.614.499 4.859 4.859 0 0 1-.297.163c5.18.796 10.178 2.082 14.467 5.343.729.557 1.66-.566.911-1.141Z"
				fill="#151921" />
	<path d="M97.722 106.482c-3.54-2.696-7.55-4.078-11.685-4.941a4.426 4.426 0 0 1-1.382.144c-.047.019-.095.029-.134.038 4.586.835 9.047 2.197 12.913 5.142.134.106.202.231.182.384a.55.55 0 0 1-.345.432.443.443 0 0 1-.47-.067c-4.24-3.214-9.2-4.538-14.275-5.344-.01.01-.02.019-.029.019-.22.144-.46.25-.7.346 5.238.786 10.39 2.062 14.716 5.353.211.153.451.221.681.201a.826.826 0 0 0 .26-.067c.335-.144.585-.46.633-.815.038-.317-.097-.614-.365-.825Z"
				fill="#151921" />
	<path d="M97.194 106.51c-2.724-1.18-5.794-1.208-8.768-1.228l-1.017-.009c-3.07-.039-6.198.019-9.22.086l-1.611.029c-3.387.067-7.004.115-10.62-.019-1.92-.077-3.53-.173-5.142-.432l-.23-.038c-1.401-.221-3.32-.509-4.05-1.746-.335-.557-.2-.921-.009-1.42.087-.221.173-.47.23-.758.106-.537-.038-1.027-.172-1.497-.077-.278-.154-.537-.182-.805a4.036 4.036 0 0 1 .153-1.555 1.599 1.599 0 0 1-.604-.422c-.221-.134-.451-.259-.672-.384a8.441 8.441 0 0 0-.403-.22c-.029.086-.077.163-.115.259a6.25 6.25 0 0 0-.317 2.034c.01.326.096.7.183 1.064.124.509.25 1.046.134 1.382l-.096.249c-.201.547-.403 1.056-.297 1.746a3.823 3.823 0 0 0 1.122 2.13c1.257 1.228 3.195 1.574 4.605 1.823 3.646.652 7.445.624 11.119.604h.614c2.072-.009 4.183-.057 6.226-.096 1.88-.038 3.77-.076 5.66-.095 2.59-.02 4.72.009 6.725.086 2.216.086 4.202.23 6.054 1.036a.878.878 0 0 0 .537.067.77.77 0 0 0 .336-.153c.288-.211.441-.586.393-.95a.913.913 0 0 0-.566-.768ZM150.026 26.52c-2.59-4.807-5.717-9.402-9.891-12.97-1.563-1.344-4.067-3.493-6.14-1.785-2.187 1.803-.93 4.883-.345 7.118.432 1.64.835 3.29 1.209 4.94.201.903.403 1.804.585 2.716.163.806.47 1.698.48 2.513 0 1.535-2.178 2.62-3.329 3.32-1.449.873-4.759 2.58-6.505 3.214.269.21.538.422.797.642.259.173.46.403.604.691.038.029.077.067.115.096l.01.01c2.408-.998 5.564-2.687 7.3-3.886.845-.585 1.794-1.209 2.38-2.063.652-.95.594-1.995.403-3.079-.49-2.725-1.132-5.44-1.804-8.126-.326-1.295-.72-2.58-1.027-3.885-.307-1.286-.239-3.598 1.737-2.677 2.206 1.036 4.163 3.3 5.727 5.114 1.641 1.9 3.08 3.952 4.375 6.101 1.343 2.216 2.609 4.519 3.597 6.917 1.037 2.514 1.986 5.286.154 7.637-1.717 2.216-4.442 3.904-6.773 5.391a58.334 58.334 0 0 1-8.174 4.317c-1.132.49-.288 2.207.844 1.718a56.8 56.8 0 0 0 8.174-4.318c2.264-1.439 4.615-2.993 6.514-4.902 1.833-1.842 2.763-4.01 2.274-6.62-.547-2.858-1.919-5.583-3.291-8.144ZM37.79 53.18c-1.764.095-3.54 0-5.285-.289-1.324-.22-3.751-.431-4.317-1.851-.298-.758-.346-1.708-.49-2.514a135.354 135.354 0 0 1-1.16-7.77c-.279-2.293-.25-5.622-2.946-6.486-2.561-.825-4.086 2.101-5.055 3.924-2.562 4.864-3.77 10.284-4.404 15.705-.336 2.878-.604 5.919-.029 8.787.519 2.6 2.178 4.27 4.557 5.306 2.476 1.074 5.229 1.64 7.867 2.149a57.86 57.86 0 0 0 8.02.94 2.277 2.277 0 0 1-.067-.585c0-.451.02-.893.048-1.343a56.99 56.99 0 0 1-7.857-.931c-2.715-.518-5.871-1.084-8.289-2.504-2.57-1.516-2.715-4.442-2.676-7.157.038-2.59.364-5.2.786-7.761.413-2.475.988-4.921 1.813-7.281.787-2.265 1.766-5.095 3.435-6.87 1.497-1.592 2.408.538 2.6 1.843.192 1.323.307 2.657.48 3.99.364 2.744.767 5.507 1.323 8.222.221 1.075.557 2.072 1.516 2.715.863.585 1.976.806 2.974 1.046 2.475.575 4.98.748 7.512.604 1.237-.077.863-1.957-.355-1.89Z"
				fill="#151921" />
	<path d="M72.242 29.57c-9.997.624-22.804 6.352-29.165 14.084-.374.45-.057 1.209.461 1.41-1.44 1.44-2.638 3.147-3.713 4.883-1.813 2.936-3.32 6.083-4.403 9.364-1.084 3.242-1.756 6.648-1.87 10.063a29.698 29.698 0 0 0 .277 5.22c.211 1.505.365 3.52 1.545 4.614.499.46 1.41.374 1.612-.365l.172-.643c1.2 6.044 4.701 11.551 9.814 15.13 1.017.71 2.034-.912 1.027-1.622-6.092-4.269-9.67-11.56-9.373-18.986.048-1.064-1.583-1.41-1.87-.335l-.903 3.32c-.143-.826-.191-1.67-.259-2.284a27.584 27.584 0 0 1-.096-4.71c.183-3.138.854-6.217 1.88-9.182 1.027-2.993 2.419-5.852 4.078-8.548 1.67-2.714 3.607-5.362 6.524-6.83 1.113-.557.21-2.188-.902-1.689a12.66 12.66 0 0 1-.547.211c5.804-5.967 17.307-10.658 25.634-11.176 1.209-.086 1.314-2.005.077-1.928Z"
				fill="#151921" />
	<path d="M84.157 101.12c-14.16.892-30.613-2.092-38.422-15.35-.624-1.055-2.322-.163-1.689.902 3.655 6.197 9.555 10.687 16.184 13.335 7.531 3.003 15.82 3.53 23.84 3.031 1.219-.076 1.315-1.995.087-1.918ZM82.66 29.389c5.584-1.123 15.628-2.667 21.317-2.62 4.145.039 8.577.193 12.299 2.111-.019 0-.048.01-.067.01-.652.067-.883.892-.633 1.39.892 1.814 3.434 2.207 5.113 3.023a32.928 32.928 0 0 1 5.728 3.54 33.188 33.188 0 0 1 4.844 4.586 31.045 31.045 0 0 1 2.13 2.762c.125.173.988 1.238.892 1.41-.086.154-.978-.181-1.122-.24-.998-.383-1.497.874-.988 1.574 6.485 8.97 6.993 20.8 1.909 30.287a8.34 8.34 0 0 1 .767 2.523c6.111-9.824 6.063-22.42-.067-32.292a2.15 2.15 0 0 0 .585-.22c.921-.538 1.036-1.631.605-2.533-1.161-2.398-3.233-4.643-5.104-6.504a34.941 34.941 0 0 0-6.37-4.999 34.276 34.276 0 0 0-3.521-1.87c-.7-.327-1.852-.595-2.715-1.065.278-.144.556-.307.825-.5.537-.383.298-1.198-.144-1.515-4.163-2.974-9.469-3.329-14.419-3.406-6.015-.086-16.395 1.478-22.295 2.658-1.2.259-.777 2.13.431 1.89ZM77.412 23.814c-.527-.192-1.007.115-1.228.585-1.141 2.437-3.108 4.624-5.4 6.015-.442.269-.682.787-.433 1.286.212.432.845.71 1.286.432a16.446 16.446 0 0 0 6.36-7.1c.221-.46-.134-1.055-.585-1.218ZM82.487 23.125c-.393-.27-1.084-.202-1.333.259a19.092 19.092 0 0 1-6.169 6.859c-.431.288-.403.998-.096 1.353.374.431.921.383 1.353.096a20.255 20.255 0 0 0 6.495-7.224c.25-.47.21-1.037-.25-1.343Z"
				fill="#151921" />
	<path d="M85.846 24.63a.978.978 0 0 0-1.334.258c-.23.326-.47.653-.73.96-.037.048-.076.086-.114.134-.01.01-.02.02-.029.038-.02.02-.038.039-.038.048-.03.039-.068.067-.096.106a19.76 19.76 0 0 1-.442.45 11.897 11.897 0 0 1-1.381 1.162 3.39 3.39 0 0 1-.23.163c-.048.028-.096.067-.135.096h-.01l-.009.01c-.01.009-.02.009-.01.009-.21.134-.374.278-.46.527-.077.221-.077.528.048.749.22.412.835.729 1.285.431 1.545-1.016 2.888-2.283 3.944-3.808.278-.413.172-1.065-.26-1.334Z"
				fill="#151921" />
	<path d="M107.805 1.95c-2.638-.68-5.785-.21-8.452.077-5.987.653-11.982 1.871-17.787 3.483-2.84.786-5.67 1.67-8.394 2.782-2.35.95-4.595 2.245-6.082 4.355-1.631 2.322-2.341 5.22-2.984 7.944-.767 3.214-1.237 8.28-1.544 11.666.076-.01.163-.02.249-.01.24.01.49 0 .73-.01.325-.028.642-.067.968-.115.46-4.95 1.16-11.733 3.003-16.194.94-2.273 2.456-3.933 4.643-5.055 2.235-1.152 4.7-1.929 7.09-2.677 5.142-1.612 10.447-2.744 15.762-3.617 2.705-.441 5.43-.796 8.164-.92 1.218-.058 2.533-.154 3.742.057 1.554.268 2.11 1.266 2.139 2.782.048 2.744-.393 5.583-.844 8.28-.499 2.983-1.478 7.175-2.389 10.063-.374 1.17 1.42 1.88 1.784.7 1.737-5.516 3.214-12.635 3.348-18.439.048-2.35-.661-4.509-3.146-5.151Z"
				fill="#151921" />
	<path d="M85.788.464c-.605-.288-1.238-.25-1.89-.153-1.17.163-2.341.403-3.502.623a170.685 170.685 0 0 0-13.153 3.032c-2.139.585-4.269 1.209-6.389 1.87-1.746.547-3.636 1.037-4.873 2.476-1.027 1.18-1.43 2.744-1.64 4.269-.289 2.091-.366 4.221-.423 6.332-.115 4.758.307 12.126 1.026 16.923.068-.058.135-.125.202-.183.307-.259.643-.48.978-.7.192-.105.394-.153.605-.153-.643-4.605-1.027-11.474-.911-15.906.057-2.14.124-4.327.46-6.447.154-.96.403-1.967 1.017-2.744.662-.844 1.66-1.238 2.648-1.573 4.576-1.574 9.306-2.792 14.016-3.886a172.102 172.102 0 0 1 6.955-1.458c.624-.115 1.238-.23 1.861-.336.518-.096 1.21-.345 1.737-.297.998.096 1.084 1.132 1.2 1.976.162 1.228 2.062.93 1.899-.297-.154-1.276-.547-2.773-1.823-3.368Z"
				fill="#151921" />
	<path d="M56.729 7.573c-3.454.394-6.889 2.101-9.815 3.924-2.753 1.717-4.556 4.068-5.257 7.262-.738 3.387-.48 7.09-.22 10.524.307 4.02 1.352 10.16 2.33 14.074.298 1.19 2.198.902 1.9-.297-.873-3.454-1.88-9.133-2.216-12.683-.316-3.262-.527-6.648-.134-9.91.384-3.156 1.784-5.545 4.48-7.272 2.706-1.736 6.015-3.358 9.23-3.722 1.227-.144.93-2.034-.298-1.9Z"
				fill="#151921" />
	<path d="M59.348 5.202c-.326-.374-.806-.546-1.267-.441-4.067.911-5.353 1.938-5.813 2.485a1.158 1.158 0 0 0-.01 1.477c.297.365.816.528 1.257.595.72.115 1.458-.086 2.14-.317a10.33 10.33 0 0 0 1.928-.892c.345-.201.69-.422 1.016-.652.365-.26.749-.537.931-.96.192-.431.134-.93-.182-1.295ZM135.722 76.483c-.211-.134-.47-.211-.719-.144-.231.058-.499.183-.614.403-.413.768-.825 1.545-1.238 2.312-.125.23-.201.451-.144.72.048.23.202.489.403.614.211.134.47.21.72.144.23-.058.499-.183.614-.403.412-.768.825-1.545 1.237-2.312.125-.23.202-.451.144-.72-.048-.23-.201-.49-.403-.614Z"
				fill="#151921" />
	<path d="M81.682 103.122c-8.615 0-15.551-1.304-15.974-1.381a.953.953 0 0 1-.757-1.123.965.965 0 0 1 1.122-.757c.154.028 15.33 2.878 28.531.153 11.647-2.398 22.939-5.363 33.089-15.062 3.664-3.501 6.063-9.69 6.082-9.747a.965.965 0 0 1 1.237-.556.966.966 0 0 1 .557 1.237c-.106.269-2.581 6.658-6.553 10.448-10.514 10.044-22.573 13.19-34.028 15.56-4.46.921-9.085 1.228-13.306 1.228Z"
				fill="#151921" />
	<path d="M127.366 58.37c-1.084-3.223-3.329-5.9-5.804-7.962-.259-.22-.527-.422-.796-.623.883.431 2.024-.595 1.218-1.44-4.796-5.026-11.963-7.252-18.717-6.11-.124-.01-.249-.03-.374-.039a.906.906 0 0 0-.691.23c-.997.221-1.985.518-2.954.902-.087.039-.144.086-.211.134-5.593-.115-11.225.979-15.743 4.433a1.408 1.408 0 0 0-.365-.173c-6.572-1.794-13.364-.643-19.14 2.85-2.781 1.688-5.324 3.827-7.55 6.302-2.12 2.35-4.297 5.056-5.132 8.337-.911 3.569-.048 7.243 1.391 10.582 1.41 3.271 3.425 6.188 6.102 8.356 5.343 4.326 11.09 7.857 17.47 8.576 13.268 1.497 29.222-1.256 40.321-9.536 4.692-3.501 8.721-8.461 10.726-14.38 1.113-3.32 1.41-6.984.249-10.438Z"
				fill="#FCFA9C" />
	<path d="M119.106 46.791c-2.389-1.784-5.181-2.676-8.059-3.223-2.695-1.094-5.535-1.785-8.404-1.593-2.935.192-6.13 1.123-8.998 1.746-2.965.643-5.488 1.9-8.164 3.349-1.622.873-2.543 3.808-.912 2.925 4.154-2.244 10.812-4.134 15.436-4.816 2.101-.306 7.301-.988 13.489 2.217 3.904 2.024 6.245 4.787 8.058 8.845 1.161 2.6 1.996 5.68 2.226 8.701-.259 4.135-1.823 10.313-4.49 13.287-2.696 3.003-6.974 7.061-8.202 7.81-1.554.95 3.981-1.794 5.689-2.6 1.679-.797 3.924-2.83 5.123-4.145 1.947-1.803 3.194-4.988 4.067-7.54.768-2.245 2.274-4.788 2.044-7.243.326-6.735-3.358-13.575-8.903-17.72Z"
				fill="#fff" />
	<path d="M84.761 47.83c-9.824-2.725-21.192.815-28.253 8.346-1.909 2.034-3.396 3.77-4.106 6.456-.71 2.687-1.228 5.46-1.084 8.25.269 5.22 3.358 10.036 6.936 13.691 3.646 3.722 8.289 6.418 13.527 7.003 1.44.163 2.466-1.045 1.103-1.448C64.72 87.7 56.777 79.19 55.54 74.193c-1.18-4.72-.057-16.712 13.354-22.305 4.682-1.957 10.007-2.706 14.918-1.343 1.766.498 2.735-2.217.95-2.715Z"
				fill="#fff" />
	<path d="M111.431 42.554c-1.237-.269-1.928 1.564-.681 1.832 8.634 1.862 15.474 8.884 16.424 17.48.48 4.336-.508 8.903-2.792 12.702-2.523 4.202-6.533 7.214-10.907 9.469-9.517 4.902-20.674 7.598-31.4 7.598-9.69-.01-19.734-2.773-25.74-10.515-3.06-3.943-4.49-8.826-3.741-13.767.355-2.35 1.17-4.604 2.35-6.667 1.286-2.245 3.032-4.423 5.085-6.063.998-.796-.307-2.255-1.305-1.449-2.331 1.871-4.25 4.317-5.631 6.84-3.09 5.632-3.636 12.434-.787 18.382C56.767 87.7 67.051 92.44 77.211 93.37c11.608 1.065 23.85-1.544 34.431-6.293 4.826-2.159 9.507-4.998 12.798-9.133 2.964-3.722 4.643-8.414 4.816-13.076.413-10.534-7.253-20.032-17.825-22.315Z"
				fill="#151921" />
	<path d="M111.431 42.535c-9.469-2.024-19.081.423-27.687 4.48-1.16.547-.307 2.293.864 1.737 8.058-3.8 17.22-6.293 26.132-4.394 1.238.269 1.948-1.554.691-1.823Z"
				fill="#151921" />
	<path d="M58.983 55.197a.937.937 0 0 1-.72-.326.966.966 0 0 1 .087-1.353c.46-.403 11.435-9.872 27.409-7.243a.958.958 0 0 1 .787 1.103.944.944 0 0 1-1.104.787c-15.062-2.475-25.72 6.696-25.826 6.792a.95.95 0 0 1-.633.24ZM77.652 63.828c-.317-.566-.816-1.008-1.477-1.104a1.64 1.64 0 0 0-1.622.758c-.594.96-.72 2.264-.652 3.368.01.163.038.326.067.489-.02.978.077 2.015.566 2.868.345.605.863 1.133 1.621 1.065.614-.048 1.065-.48 1.353-.997.269-.49.413-1.065.537-1.603a7.554 7.554 0 0 0 .202-1.602c.028-1.065-.067-2.292-.595-3.242ZM111.316 58.794c-.316-.566-.815-1.007-1.477-1.103a1.64 1.64 0 0 0-1.621.758c-.595.96-.72 2.264-.653 3.367.01.164.039.327.067.49-.019.978.077 2.014.566 2.868.346.605.864 1.132 1.622 1.065.614-.048 1.065-.48 1.352-.998.269-.489.413-1.064.538-1.602a7.625 7.625 0 0 0 .201-1.602c.029-1.065-.067-2.293-.595-3.242Z"
				fill="#151921" />
	<path d="M98.326 64.982a1.396 1.396 0 0 0-.345-.326c-.403-.268-.95-.355-1.43-.403-.911-.086-1.832.077-2.676.413a5.304 5.304 0 0 0-1.535.96c-.317 0-.633 0-.94-.01-.749-.03-1.526.527-1.545 1.323-.029.758.518 1.516 1.324 1.545a28.99 28.99 0 0 0 7.502-.652c.73-.163 1.324-.912 1.142-1.689-.173-.671-.787-1.209-1.497-1.16Z"
				fill="#fff" />
	<path d="M100.063 65.252c-1.2-1.535-3.166-2.312-5.085-2.12-2.13.211-3.799 1.746-5.247 3.166-.365.365-.442.95-.087 1.353.326.374.979.45 1.353.086 1.151-1.132 2.417-2.437 4.087-2.696 1.352-.21 2.715.413 3.54 1.468.758.979 2.206-.288 1.439-1.257ZM112.515 51.176a10.468 10.468 0 0 0-5.929 1.008c-.45.22-.719.796-.479 1.266.019.029.048.058.067.086.163.442.556.653 1.036.643a16.296 16.296 0 0 0 5.603-1.17c.374-.154.633-.624.556-1.027-.096-.422-.422-.748-.854-.806ZM78.573 62.111a10.42 10.42 0 0 0-6.005-.25c-.49.126-.873.625-.74 1.143.01.038.03.067.049.096.067.46.403.748.873.844 1.89.355 3.837.345 5.727.028.394-.067.748-.48.758-.882.01-.451-.24-.835-.662-.979Z"
				fill="#151921" />
	<path d="M140.375 181.514c-1.583-2.005-4.634-2.293-6.946-2.859-2.926-.71-5.852-1.429-8.778-2.139-.614-.154-1.141-.019-1.535.278a90.782 90.782 0 0 1-3.031-1.199c-1.823-.768-3.991-1.497-5.344-3.003-1.65-1.842-4.806 2.504-3.156 4.346 1.468 1.631 3.991.854 5.957 1.717a87.842 87.842 0 0 0 6.831 2.667 81.365 81.365 0 0 0 14.131 3.416c1.957.268 3.099-1.67 1.871-3.224Z"
				fill="#89A1AE" />
	<path d="M133.343 178.654c-3.617-1.996-7.723-3.31-11.08-5.718-.682-.489-1.296-1.189-2.044-1.564-.585-.287-1.372-.297-2.053-.441-.739-.163-1.506-.326-2.053-.892-.307-.317-.403-.585-.547-.998-.038-.115-.086-.192-.086-.211-.038.01-.077.019-.134.029-.394.067-.768.211-1.161.278-.49.086-.96.096-1.411.019-.115 1.142-.172 2.36.327 3.272.681 1.237 2.369 1.746 3.578 2.283a58.485 58.485 0 0 0 9.757 3.31c.527.134 1.093.307 1.611.096 1.219.738 2.831.834 4.193 1.084 1.055.201 2.11.403 3.175.595-.7-.384-1.391-.758-2.072-1.142Z"
				fill="#89A1AE" />
	<path d="M111.681 168.8c-.01-.009-.019-.019-.039-.029a86.85 86.85 0 0 0-.22 2.773c-.087 1.372 1.918 1.775 2.158.355.154-.911.288-1.832.422-2.753-.815.134-1.573.057-2.321-.346Z"
				fill="#89A1AE" />
	<path d="M133.669 178.838a82.338 82.338 0 0 1-21.605-6.725c0 .077-.009.144-.009.221a1 1 0 0 1-.154.528c-.038.239-.086.489-.125.729a83.616 83.616 0 0 0 25.337 7.214c-1.132-.691-2.293-1.324-3.444-1.967Z"
				fill="#151921" />
	<path d="M136.595 180.497a83.02 83.02 0 0 1-24.55-7.041l.086-.509c.077-.153.125-.297.144-.46a82.31 82.31 0 0 0 21.989 6.686c-.307-.172-.624-.345-.931-.518-.115-.067-.23-.115-.345-.182a81.74 81.74 0 0 1-20.828-6.581l-.326-.154-.019.585a.821.821 0 0 1-.115.413l-.183.988.163.077a83.252 83.252 0 0 0 25.922 7.291c-.336-.201-.671-.403-1.007-.595Z"
				fill="#151921" />
	<path d="m141.123 183.57-.028.738a89.513 89.513 0 0 1-16.501-3.175 90.479 90.479 0 0 1-8.164-2.83c-1.324-.538-2.706-1.046-3.972-1.708-.653-.336-.307-1.026-.24-1.688.086-.835.163-1.679.249-2.514.096-.931-1.352-1.132-1.448-.192-.087.835-.163 1.679-.25 2.514-.067.681-.287 1.496-.086 2.168.134.47.47.7.883.911.719.365 1.467.672 2.206.988a89.67 89.67 0 0 0 9.085 3.349 91.9 91.9 0 0 0 18.823 3.703c.364.028.806-.211.825-.624l.029-.729c-.48-.288-.95-.595-1.411-.911Z"
				fill="#151921" />
	<path d="m142.303 184.347-.039.863a.316.316 0 0 1-.134.25.638.638 0 0 1-.432.144 91.305 91.305 0 0 1-18.774-3.694 89.747 89.747 0 0 1-9.057-3.338l-.489-.211a30.14 30.14 0 0 1-1.707-.768c-.403-.201-.662-.393-.768-.767-.134-.461-.058-1.008.029-1.535.029-.183.057-.365.077-.547l.249-2.514c.038-.412.422-.393.499-.393h.029c.239.038.47.211.441.537l-.25 2.514a3.188 3.188 0 0 1-.067.431c-.096.519-.22 1.152.442 1.497 1.065.556 2.206 1.007 3.319 1.449l.672.268a89.53 89.53 0 0 0 8.192 2.84c5.287 1.554 10.841 2.619 16.54 3.185l.249.029.039-.844c-.154-.106-.307-.211-.471-.327l-.028.643c-5.574-.566-11.023-1.621-16.204-3.137a90.143 90.143 0 0 1-8.145-2.82l-.671-.269c-1.094-.432-2.226-.883-3.272-1.429-.316-.164-.297-.413-.192-.979.029-.153.058-.317.077-.47l.25-2.514c.057-.623-.403-1.016-.902-1.064-.461-.048-.96.22-1.027.815l-.249 2.514c-.019.163-.039.345-.067.518-.087.556-.173 1.18-.01 1.746.173.594.614.853 1.007 1.055.566.288 1.161.537 1.737.787l.489.211a93.914 93.914 0 0 0 9.104 3.357 91.283 91.283 0 0 0 18.881 3.713c.278.029.575-.077.786-.259a.816.816 0 0 0 .298-.595l.028-.604c-.172-.106-.326-.202-.479-.288Z"
				fill="#151921" />
	<path d="M128.728 176.42a20.055 20.055 0 0 1-1.266 1.708c-.211.259-.518.202-.71.048-.058-.048-.346-.317-.077-.633a18.18 18.18 0 0 0 1.142-1.535c-.144-.067-.298-.134-.442-.211-.335.499-.681.978-1.065 1.439-.383.46-.23 1.007.135 1.314.144.125.326.202.518.23a.94.94 0 0 0 .873-.335c.48-.576.93-1.19 1.333-1.813-.153-.077-.297-.144-.441-.212ZM111.681 168.806c-.096-.048-.173-.116-.259-.173a129.55 129.55 0 0 0-.202 3.348c-.048.931 1.391 1.18 1.439.24.048-1.017.115-2.024.182-3.041a3.158 3.158 0 0 1-1.16-.374Z"
				fill="#151921" />
	<path d="M112.602 169.131c-.067 1.026-.135 2.053-.183 3.079-.009.154-.067.259-.172.317-.144.077-.365.048-.537-.058a.53.53 0 0 1-.25-.479c.048-1.065.125-2.14.192-3.204-.173-.096-.317-.202-.46-.307-.077 1.16-.154 2.331-.212 3.482-.019.374.154.7.471.902.134.086.287.144.431.163a.98.98 0 0 0 .576-.086c.268-.135.422-.394.432-.72.048-1.007.115-2.024.182-3.032-.154 0-.307-.019-.47-.057ZM119.585 149.949c.25.029.471.116.682.26.297.249.594.498.844.796.048.057.077.115.125.172l.46-7.569c.077-1.228-1.832-1.391-1.909-.163-.134 2.159-.259 4.317-.393 6.476.057.009.124.009.191.028Z"
				fill="#151921" />
	<path d="m132.796 137.834-37.377 2.369 1.363-3.703 35.784-2.273.23 3.607Z"
				fill="#343A46" />
	<path d="m127.615 138.008 10.659-40.888 50.097-3.329-9.881 41.291-50.875 2.926Z"
				fill="#343A46" />
	<path d="m137.785 100.305 49.522-3.78s2.235-4.22 1.477-3.127c-.758 1.093-50.913 4.115-50.913 4.115l-.086 2.792ZM164.167 105.687c-4.019 4.202-8.049 8.404-12.068 12.606-.71.748.489 1.803 1.199 1.055 4.019-4.202 8.049-8.404 12.069-12.606.719-.739-.48-1.804-1.2-1.055ZM160.56 115.53a141.78 141.78 0 0 0-10.351 11.273c-.653.796.547 1.851 1.199 1.055a143.843 143.843 0 0 1 10.351-11.272c.739-.71-.46-1.766-1.199-1.056ZM169.53 113.677c-.365-.298-.806-.231-1.133.067a22.812 22.812 0 0 0-2.954 3.348c-.125.173-.211.355-.202.576.01.191.115.422.269.546.307.25.873.288 1.132-.067a22.76 22.76 0 0 1 2.955-3.348c.316-.288.249-.873-.067-1.122Z"
				fill="#3D4352" />
	<path d="M185.935 95.229a1098.633 1098.633 0 0 1-10.409 39.573c-.422 1.487 1.938 1.967 2.351.489a1127.47 1127.47 0 0 0 10.409-39.573c.374-1.506-1.986-1.986-2.351-.49Z"
				fill="#3D4352" />
	<path d="m178.97 134.774-84.27 5.343c-1.026.067-.93 1.66.106 1.602l84.269-5.343c1.027-.067.931-1.67-.105-1.602Z"
				fill="#151921" />
	<path d="M127.894 139.338a.798.798 0 0 1-.825-.989l10.16-41.156a.797.797 0 0 1 .729-.604l50.587-3.214a.805.805 0 0 1 .854.748.805.805 0 0 1-.749.854l-50.001 3.175-10.016 40.591a.822.822 0 0 1-.739.595Z"
				fill="#151921" />
	<path d="M178.48 136.136a.798.798 0 0 1-.825-.988l10.16-41.156a.797.797 0 0 1 .969-.586.797.797 0 0 1 .585.97l-10.159 41.156a.797.797 0 0 1-.73.604ZM95.132 141.422a.803.803 0 0 1-.297-.039.79.79 0 0 1-.509-1.007l1.459-4.423a.807.807 0 0 1 .71-.547l32.234-2.043a.805.805 0 0 1 .854.748.805.805 0 0 1-.749.854l-31.697 2.015-1.285 3.904a.833.833 0 0 1-.72.538ZM93.53 159.727c.096.028.182.057.269.105.057.029.115.058.163.096.086.038.182.077.268.125 2.293-2.888 3.156-6.62 3.473-10.256.048-.518-.45-.969-.95-.969-.546-.009-.93.432-.969.95-.297 3.348-1.093 6.879-3.367 9.45.374.153.748.316 1.113.499Z"
				fill="#151921" />
	<path d="M162.171 160.187c-.997-.748-2.436-.71-3.511-.134-1.17.633-1.765 1.832-2.36 2.964a115.41 115.41 0 0 1-4.192 7.234c-.844 1.353-1.717 2.686-2.59 4.02-.202-1.036-1.056-1.9-2.312-1.881-.778.01-1.583.24-2.351.374-.374.068-.739.135-1.113.192a8.79 8.79 0 0 1 .403-1.573c.288-.825.729-1.621 1.247-2.341.806-.24 1.641-.393 2.475-.451 1.603-.115 2.149-1.583 1.689-2.667.345-.124.7-.24 1.065-.316 2.437-.557 1.381-4.135-1.017-3.703-3.655.662-7.166 1.947-10.409 3.751-1.161.652-1.142 2.005-.47 2.839-.47.71-.288 1.823.288 2.399.335.336.719.499 1.112.527-.422 1.574-.613 3.454.298 4.577.921 1.132 2.149 1.103 3.434.844-.355.47-.71.95-1.026 1.448-.864 1.324-1.9 3.118-1.9 4.749 0 2.216 2.418 2.802 4.164 2.283 1.64-.489 2.82-1.87 3.78-3.204a136.652 136.652 0 0 0 3.118-4.547 268.31 268.31 0 0 0 10.879-14.765c.623-.921.086-2.033-.701-2.619Z"
				fill="#89A1AE" />
	<path d="M79.897 150.039c-.24.355-.643.672-1.065.768-.326.076-.643.163-.96.268 10.055 5.833 22.613 13.009 34.624 19.437.01-.653.384-1.305.95-1.67-11.599-6.187-23.696-13.085-33.549-18.803Z"
				fill="#151921" />
	<path d="M125.073 174.089a35.036 35.036 0 0 1-5.89-3.828v-.106c-.019-.508-.566-.911-1.055-.853-.423.048-.845.134-1.267.23 0-.096-.009-.202-.038-.298a1.654 1.654 0 0 0-.969-1.112c-.403-.164-.864-.183-1.286-.106-.47.096-1.036.528-1.506.489-1.228-.105-1.544 1.794-.307 1.89.451.039.844-.009 1.267-.153.259-.087.681-.192.892-.346-.087.259-.039.893-.029 1.027.048.643.739.988 1.305.787a9.24 9.24 0 0 1 1.352-.355c.039.048.068.096.115.144.26.249.567.46.854.681.595.46 1.219.911 1.842 1.333a38.922 38.922 0 0 0 3.953 2.341c1.084.556 1.861-1.199.767-1.765ZM124.835 153.471c-.059.059-.05.059-.02.039.01-.01.02-.029.039-.039h-.019Z"
				fill="#151921" />
	<path d="M134.159 158.52c-1.152-.901-2.428-1.63-3.694-2.36-1.209-.7-2.322-1.362-3.377-2.312a.771.771 0 0 0-.364-.182 1.754 1.754 0 0 0-.471-1.506 1.903 1.903 0 0 0-1.822-.556c-2.917-2.543-3.636-3.138-6.677-5.517-.969-.758-2.197.72-1.219 1.478 2.811 2.197 3.291 2.59 5.987 4.921-.096.355-.029.777.297.988.633.432 1.18.346 1.851.058.058-.029.116-.048.164-.067l.038-.039c-.01.01-.019.029-.029.039.019-.01-.009.019-.038.038-.326.345-.461.835-.154 1.266.211.298.681.47 1.056.365.048.067.086.144.153.201 2.139 1.919 4.883 2.936 7.071 4.663.402.316 1.016.278 1.352-.134a.969.969 0 0 0-.124-1.344Z"
				fill="#151921" />
	<path d="M156.713 159.104c-1.976.566-3.933 1.247-5.238 2.916-1.324 1.698-2.456 3.569-3.473 5.468-.038.077-.067.154-.096.231-.662.057-1.41.345-1.986.479-1.64.394-3.271.864-4.873 1.391a62.359 62.359 0 0 0-.211-2.983v-.019c-.01-.096-.01-.183-.019-.279 0-.028-.01-.048-.02-.076.221-.432.432-.873.653-1.305.22-.432.23-.94-.115-1.324-.845-.93-1.679-1.861-2.523-2.801-.806-.892-1.574-1.957-2.495-2.734-.748-.624-1.612-.538-2.283.144-.844.853-1.554 1.918-2.245 2.887a37.327 37.327 0 0 0-1.909 2.984c-.499.854-1.113 1.784-.854 2.82.23.921 1.084 1.66 1.737 2.293.316.317.652.605.988.902-1.209.566-2.216 1.525-3.089 2.6-.048.048-.096.096-.135.153l-.144.202c-.307.383-.594.786-.873 1.189-.988.01-1.679 1.42-.623 1.977a284.814 284.814 0 0 0 9.334 4.787c1.295.633 2.955 1.842 4.461 1.688 1.401-.144 2.533-1.506 3.502-2.408a58.535 58.535 0 0 0 6.85-7.694c.326-.441.71-.892.719-1.448 1.151-.835 1.871-2.284 2.638-3.435.921-1.381 1.842-2.772 2.763-4.154.269-.412.221-.815.01-1.122.173-.327.345-.643.508-.969.087-.173.135-.384.135-.595a.559.559 0 0 0 .077-.125c.431-.758-.202-1.919-1.171-1.64Z"
				fill="#89A1AE" />
	<path d="M129.544 170.119c-.268.499-.556.988-.854 1.477a14.514 14.514 0 0 1-2.11 2.562c-1.094-.346-2.015 1.285-.912 1.966 4.433 2.725 8.874 5.449 13.537 7.771 1.228.614 2.379-1.074 1.17-1.842a200.506 200.506 0 0 0-11.426-6.782 54.465 54.465 0 0 0 1.545-2.428 16.16 16.16 0 0 0 .883-1.535c.633-1.256-1.152-2.446-1.833-1.189ZM134.561 157.946a4855.12 4855.12 0 0 1-5.353 8.02c-.777 1.171 1.065 2.341 1.842 1.171a5583.97 5583.97 0 0 1 5.353-8.021c.787-1.16-1.055-2.34-1.842-1.17Z"
				fill="#89A1AE" />
	<path d="M133.89 157.698c-.327.575-.135 1.112.335 1.506a43.213 43.213 0 0 1 4.999 4.998c.374.432 1.132.48 1.544.077.432-.432.47-1.075.077-1.545a46.63 46.63 0 0 0-5.449-5.382c-.432-.355-1.238-.115-1.506.346ZM156.934 159.287c-1.679.364-3.32.873-4.922 1.487-.249.096-.47.412-.546.652-.077.249-.058.585.076.825.144.249.365.47.653.547.297.077.537.029.825-.077.096-.038.192-.077.288-.105.038-.02.086-.029.124-.048.163-.058.336-.116.499-.173.384-.134.768-.25 1.161-.365.767-.23 1.544-.422 2.322-.594.556-.125.978-.739.825-1.305-.154-.595-.71-.979-1.305-.844Z"
				fill="#89A1AE" />
	<path d="M151.436 161.379a245.39 245.39 0 0 1-2.36 4.844.871.871 0 0 0-.383.231c-.336.335-.432.796-.269 1.208a1.09 1.09 0 0 0 .461 1.152c.729.489 1.275 1.016 1.851 1.746.365.441 1.142.479 1.545.076.441-.441.451-1.065.076-1.544-.47-.566-.94-1.142-1.419-1.708a218.098 218.098 0 0 0 2.34-4.816c.24-.518.221-1.189-.335-1.506-.461-.288-1.248-.24-1.507.317ZM128.383 166.197c-.307.537-.163 1.151.336 1.506 1.113.806 2.216 1.621 3.329 2.427.46.336 1.228.154 1.506-.336.307-.537.163-1.151-.336-1.506-1.113-.806-2.216-1.621-3.329-2.427-.46-.345-1.228-.153-1.506.336Z"
				fill="#89A1AE" />
	<path d="m137.804 168.947-.691-.259a.905.905 0 0 0-.527-.029c-2.284-.642-4.308-1.928-5.833-3.779-.374-.451-1.123-.461-1.545-.077-.451.412-.451 1.084-.076 1.544 2.014 2.437 4.911 4.145 8.039 4.682.585.096 1.18-.106 1.362-.729.183-.576-.172-1.142-.729-1.353Z"
				fill="#89A1AE" />
	<path d="M139.243 164.255a3.567 3.567 0 0 0-1.151 1.18c-.211.355-.374.748-.576 1.113-.105.201-.22.384-.355.566-.048.077-.105.144-.163.221-.009.019-.019.028-.028.038a4.713 4.713 0 0 1-.519.508 2.995 2.995 0 0 1-.278.221c-.029.019-.048.029-.057.038a.67.67 0 0 1-.077.048c-.48.307-.787.931-.47 1.478.268.47.959.796 1.477.47.864-.547 1.602-1.247 2.14-2.12.22-.355.383-.749.585-1.123.096-.172.192-.355.307-.508.019-.019.029-.048.048-.067a.397.397 0 0 1 .029-.029c.048-.039.326-.25.096-.096.479-.307.786-.921.47-1.478-.279-.46-.969-.786-1.478-.46Z"
				fill="#89A1AE" />
	<path d="M128.096 166.522c-.259.25-.317.777-.019 1.027a98.447 98.447 0 0 0 3.127 2.571c.998.096 1.986.269 2.974.47-.01-.01-.01-.019-.019-.019a96.948 96.948 0 0 1-5.027-4.029c-.298-.259-.729-.307-1.036-.02Z"
				fill="#151921" />
	<path d="m135.013 171.021-.883-.192a26.335 26.335 0 0 0-2.945-.47l-.067-.009-.058-.048a109.275 109.275 0 0 1-3.137-2.571.876.876 0 0 1-.288-.633c-.01-.288.106-.567.297-.758.365-.355.941-.346 1.353.009a97.548 97.548 0 0 0 5.008 4.02l.048.048.672.604Zm-3.713-1.132c.604.067 1.237.154 1.909.278a102.143 102.143 0 0 1-4.231-3.444c-.192-.163-.489-.239-.71-.028a.557.557 0 0 0-.153.393.38.38 0 0 0 .115.278c.911.787 1.89 1.583 3.07 2.523Z"
				fill="#151921" />
	<path d="m129.65 169.212-2.332 3.022c-.69.892-1.362 1.88-2.292 2.533-.327.23-.49.623-.288.988.172.316.671.508.988.288 1.084-.758 1.861-1.794 2.657-2.83.835-1.084 1.679-2.169 2.514-3.262.24-.317.057-.816-.25-.998-.364-.221-.748-.058-.997.259Z"
				fill="#151921" />
	<path d="M131.137 170.038a.31.31 0 0 1-.048.067l-2.619 3.387c-.758.978-1.545 1.995-2.61 2.743a.833.833 0 0 1-.681.115 1.068 1.068 0 0 1-.662-.479c-.249-.451-.096-.979.355-1.305.768-.537 1.362-1.324 1.938-2.082l2.638-3.425c.346-.451.873-.575 1.315-.316.23.134.412.403.46.681a.787.787 0 0 1-.086.614Zm-6.169 5.132a.437.437 0 0 0-.019.471.581.581 0 0 0 .345.249.384.384 0 0 0 .298-.038c1.007-.71 1.736-1.65 2.503-2.648l2.62-3.396a.336.336 0 0 0 .048-.279.553.553 0 0 0-.24-.364c-.346-.202-.614.096-.691.192l-2.638 3.415c-.595.787-1.219 1.602-2.044 2.187-.057.058-.134.125-.182.211Z"
				fill="#151921" />
	<path d="M138.169 170.137a26.615 26.615 0 0 1-7.167-.949c-.901-.25-1.295 1.16-.383 1.41a27.862 27.862 0 0 0 7.54.998c.94-.01.95-1.468.01-1.459Z"
				fill="#151921" />
	<path d="M138.956 171.397a.91.91 0 0 1-.797.432 28.2 28.2 0 0 1-7.598-1.008c-.336-.096-.575-.326-.662-.652a1.042 1.042 0 0 1 .278-.998.91.91 0 0 1 .902-.22 26.51 26.51 0 0 0 7.099.94.91.91 0 0 1 .806.441c.183.317.183.72 0 1.036-.019.019-.019.029-.028.029Zm-8.52-1.784a.645.645 0 0 0-.076.441.423.423 0 0 0 .326.307 27.332 27.332 0 0 0 7.473.988c.231 0 .326-.115.403-.221a.573.573 0 0 0 0-.556c-.077-.134-.211-.201-.384-.201a26.584 26.584 0 0 1-7.223-.96c-.212-.057-.355.019-.432.096a.692.692 0 0 0-.087.106ZM158.277 159.854a82.355 82.355 0 0 1-18.295 23.668c.067.028.134.067.201.096.183.076.317.201.432.345.211.134.413.269.624.403a83.62 83.62 0 0 0 18.295-23.754c.422-.844-.825-1.592-1.257-.758Z"
				fill="#151921" />
	<path d="M156.55 166.36a83.771 83.771 0 0 1-15.158 18.18l-.134.125-.835-.547a.89.89 0 0 0-.336-.269l-.527-.249.268-.24a81.693 81.693 0 0 0 18.238-23.6.855.855 0 0 1 .729-.499c.355-.019.71.173.911.489a.946.946 0 0 1 .038.969 85.836 85.836 0 0 1-3.194 5.641Zm-15.34 17.7a83.148 83.148 0 0 0 18.112-23.561.458.458 0 0 0-.019-.49c-.105-.163-.307-.278-.48-.268-.143.009-.239.086-.326.23a82.362 82.362 0 0 1-18.084 23.495c.135.076.259.182.365.316l.432.278Z"
				fill="#151921" />
	<path d="M160.445 158.956c-.844-.403-1.593.853-.749 1.256.95.451 1.9.902 2.84 1.353-2.686 4.922-5.804 9.613-9.363 13.949a89.308 89.308 0 0 1-5.795 6.418c-1.007 1.017-2.014 2.082-3.118 2.993-.566.47-1.064-.115-1.65-.441l-2.216-1.209c-.825-.451-1.573.806-.748 1.257l2.216 1.209c.604.326 1.266.854 1.967.93.489.058.825-.163 1.189-.46.614-.518 1.19-1.094 1.775-1.65a90.663 90.663 0 0 0 6.629-7.061 90.863 90.863 0 0 0 10.755-15.887c.172-.326.115-.825-.25-.998-1.161-.556-2.321-1.113-3.482-1.659Z"
				fill="#151921" />
	<path d="M161.548 166.657a92.163 92.163 0 0 1-7.953 10.984 90.799 90.799 0 0 1-6.639 7.08l-.384.374c-.45.432-.911.883-1.4 1.296-.346.287-.758.585-1.372.518-.576-.068-1.123-.394-1.602-.691-.154-.096-.307-.182-.451-.269l-2.216-1.209c-.528-.287-.576-.853-.355-1.256.24-.442.777-.72 1.333-.413l2.216 1.209c.144.077.279.163.403.259.48.326.71.432.979.211.911-.748 1.765-1.621 2.59-2.456l.509-.518a89.185 89.185 0 0 0 5.775-6.399 89.38 89.38 0 0 0 9.21-13.69l-2.619-1.237c-.307-.144-.48-.394-.509-.691-.029-.346.154-.7.461-.912a.957.957 0 0 1 .997-.076l3.483 1.65a.86.86 0 0 1 .432.499c.086.268.057.585-.068.825a91.129 91.129 0 0 1-2.82 4.912Zm-21.931 17.009c-.01.01-.01.019-.019.029-.038.067-.202.412.163.614l2.216 1.209c.154.086.307.182.47.278.461.278.931.566 1.41.623.384.048.662-.115 1.008-.403.47-.393.93-.844 1.372-1.266l.383-.374a88.34 88.34 0 0 0 6.61-7.042 91.788 91.788 0 0 0 10.736-15.839.613.613 0 0 0 .038-.451c-.038-.105-.096-.182-.182-.22l-3.483-1.65a.501.501 0 0 0-.518.038c-.163.115-.269.307-.259.48.01.124.086.23.23.297l3.07 1.458-.124.221c-2.744 5.027-5.9 9.728-9.383 13.987a89.93 89.93 0 0 1-5.814 6.428l-.508.518c-.835.844-1.698 1.727-2.629 2.494-.575.48-1.113.116-1.554-.182-.115-.077-.24-.163-.374-.23l-2.216-1.209c-.269-.163-.518-.019-.643.192Z"
				fill="#151921" />
	<path d="M147.628 166.678a45.203 45.203 0 0 0-7.042 3.204c.01.01.019.01.029.019.173.115.307.259.393.451.106.201.192.422.259.643.02.048.02.105.039.163a42.005 42.005 0 0 1 6.293-2.907 17.958 17.958 0 0 1 2.869 4.058c.431.835 1.707.125 1.275-.71a19.197 19.197 0 0 0-3.415-4.71c-.163-.183-.46-.298-.7-.211Z"
				fill="#151921" />
	<path d="M151.935 172.404a1.118 1.118 0 0 1-.412.383c-.413.211-.979.154-1.257-.393a17.644 17.644 0 0 0-2.725-3.885 42.24 42.24 0 0 0-6.111 2.839l-.278.154-.086-.384c0-.029-.01-.048-.02-.077a4.022 4.022 0 0 0-.239-.604.876.876 0 0 0-.317-.355l-.326-.221.316-.211a45.171 45.171 0 0 1 7.08-3.223c.355-.125.749.048.96.259a19.373 19.373 0 0 1 3.453 4.768c.164.364.116.691-.038.95Zm-10.476-1.622a43.495 43.495 0 0 1 6.063-2.782l.144-.057.105.115a17.872 17.872 0 0 1 2.907 4.115c.192.374.547.221.614.183.221-.116.394-.375.24-.672a18.892 18.892 0 0 0-3.377-4.653c-.105-.115-.307-.192-.451-.144a44.037 44.037 0 0 0-6.696 3.022c.086.096.163.202.221.317.076.172.163.355.23.556ZM159.495 158.76c-1.343-.335-2.744-.211-4.087.048-1.266.25-2.513.71-3.482 1.593a.736.736 0 0 0-.02 1.026.736.736 0 0 0 1.027.019c.758-.69 1.765-1.026 2.83-1.227 1.094-.212 2.264-.327 3.348-.058a.737.737 0 0 0 .892-.509.73.73 0 0 0-.508-.892Z"
				fill="#151921" />
	<path d="M160.128 159.962a.984.984 0 0 1-1.074.432c-.873-.221-1.909-.202-3.243.057-1.257.24-2.091.605-2.715 1.171a.976.976 0 0 1-1.362-.029.972.972 0 0 1-.269-.71.928.928 0 0 1 .298-.662c.892-.815 2.072-1.353 3.597-1.65 1.679-.326 3.013-.345 4.193-.048a.919.919 0 0 1 .575.441.98.98 0 0 1 .106.749.722.722 0 0 1-.106.249Zm-8.116.71a.465.465 0 0 0-.067.23.467.467 0 0 0 .134.365c.183.192.49.192.701.009.69-.623 1.602-1.026 2.945-1.285 1.41-.278 2.504-.298 3.453-.058a.498.498 0 0 0 .605-.345.436.436 0 0 0-.058-.374.45.45 0 0 0-.278-.221c-1.113-.278-2.379-.259-3.981.058-1.439.278-2.543.786-3.368 1.535-.048.019-.067.048-.086.086ZM134.427 156.134c-.729.614-1.257 1.411-1.746 2.226-.547.912-1.084 1.833-1.621 2.744-1.065 1.804-2.14 3.607-3.205 5.411-.479.806.777 1.554 1.257.748l3.08-5.209 1.515-2.552c.365-.624.729-1.238 1.19-1.765 2.082 2.398 4.154 4.796 6.236 7.195a.681.681 0 0 0 .393.22 1.593 1.593 0 0 1-.364-1.016l.057-.394c.058-.22.173-.403.317-.575l-6.073-6.994c-.278-.326-.748-.278-1.036-.039Z"
				fill="#151921" />
	<path d="m142.102 165.479-.614-.106a.864.864 0 0 1-.528-.297l-6.053-6.975c-.355.451-.643.94-.95 1.459l-1.554 2.619-3.08 5.209c-.316.537-.902.566-1.314.316-.413-.249-.672-.777-.355-1.304l3.713-6.274c.374-.634.748-1.257 1.122-1.89.566-.921 1.075-1.679 1.794-2.284.365-.307.998-.383 1.362.048l6.207 7.147-.134.154a1.369 1.369 0 0 0-.268.489l-.048.365c0 .192.057.403.163.604.048.077.096.154.153.23l.384.49Zm-8.231-6.725c.249-.413.527-.816.844-1.19l.182-.211 6.034 6.946c-.009-.067-.009-.125-.009-.192l.057-.422c.058-.202.135-.365.25-.538l-5.939-6.849c-.172-.202-.498-.154-.69.009-.672.566-1.161 1.267-1.698 2.168-.374.624-.749 1.257-1.123 1.89l-3.712 6.275c-.192.316.028.556.182.652.192.115.46.153.652-.154l4.634-7.828c.115-.182.22-.374.336-.556Z"
				fill="#151921" />
	<path d="M141.325 165.054a.672.672 0 0 0-.758.124c-2.6 2.312-3.828 5.939-3.243 9.354.144.863.384 1.832.998 2.485.614.652 1.622.901 2.408.412.758-.46 1.123-1.429 1.295-2.254.192-.94.183-1.9.077-2.85-.221-1.995-.921-4.278.058-6.178.326-.633-.317-1.218-.835-1.093Zm-.691 9.651c-.076.403-.316 1.65-.94 1.506-.671-.154-.835-1.334-.93-1.89-.26-1.362-.144-2.792.259-4.125.278-.902.7-1.727 1.237-2.485-.067.777-.029 1.564.067 2.35.192 1.526.605 3.118.307 4.644Z"
				fill="#151921" />
	<path d="M141.671 176.785c-.211.336-.47.633-.816.844-.834.509-1.976.317-2.705-.46-.662-.71-.911-1.717-1.065-2.61-.604-3.549.662-7.214 3.319-9.574a.919.919 0 0 1 .941-.192c.335-.048.7.106.93.393.24.307.278.701.096 1.046-.729 1.42-.47 3.099-.221 4.72.068.451.135.892.183 1.324.124 1.132.096 2.063-.087 2.926-.086.499-.268 1.084-.575 1.583Zm-2.754-9.277a10.04 10.04 0 0 0-1.352 6.975c.144.825.364 1.746.94 2.36.499.527 1.381.825 2.11.374.71-.432 1.037-1.382 1.18-2.101.173-.816.192-1.689.077-2.773-.048-.422-.115-.863-.182-1.304-.259-1.699-.537-3.445.269-5.008a.483.483 0 0 0-.048-.538c-.135-.163-.346-.259-.518-.211l-.077.02-.077-.029a.452.452 0 0 0-.508.077 9.482 9.482 0 0 0-1.814 2.158Zm1.535 8.519c-.086.135-.182.25-.307.336a.614.614 0 0 1-.498.086c-.778-.182-.969-1.285-1.094-1.938l-.029-.134c-.259-1.353-.163-2.82.269-4.24.268-.883.7-1.746 1.276-2.552l.508-.729-.077.882c-.057.672-.038 1.42.068 2.303.038.355.095.71.153 1.074.182 1.19.374 2.427.144 3.636-.077.432-.192.921-.413 1.276Zm-.46-7.444a8.365 8.365 0 0 0-.739 1.688c-.412 1.343-.499 2.725-.259 4.01l.029.144c.096.509.259 1.449.729 1.554.048.01.086 0 .134-.029.135-.086.336-.383.509-1.295.22-1.132.029-2.321-.144-3.473a22.777 22.777 0 0 1-.154-1.084 14.6 14.6 0 0 1-.105-1.515Z"
				fill="#151921" />
	<path d="M148.395 156.797c-1.909.652-4.02 1.612-5.497 3.012-.883.835-1.554 1.862-2.159 2.907-.46.806-1.323 1.929-.518 2.782a.71.71 0 0 0 .307.192c-.086.135-.182.269-.259.413-.47.815.787 1.564 1.257.748 1.881-3.252 5.728-4.576 8.155-7.32.518-.585 1.228-1.352 1.017-2.206-.279-1.104-1.516-.797-2.303-.528Zm-7.003 7.771c.077-.135.144-.269.221-.403.143-.269.297-.537.45-.806.269-.46.547-.921.864-1.353a7.753 7.753 0 0 1 2.379-2.158 24.228 24.228 0 0 1 3.012-1.468c.202-.086.413-.154.624-.221a9.175 9.175 0 0 1-.393.461c-2.121 2.293-5.104 3.636-7.157 5.948Z"
				fill="#151921" />
	<path d="M150.631 158.717c-.211.345-.48.643-.72.911l-.048.058c-1.046 1.17-2.35 2.101-3.617 2.993-1.698 1.199-3.482 2.446-4.518 4.288-.01.01-.01.02-.019.029-.307.499-.873.537-1.276.307-.422-.24-.691-.777-.374-1.314.038-.067.076-.134.124-.202-.048-.038-.096-.076-.134-.115-.825-.882-.173-1.966.307-2.763.067-.105.125-.211.182-.307.509-.892 1.219-2.034 2.197-2.955 1.266-1.189 3.137-2.225 5.584-3.06.585-.201 1.429-.432 2.024-.105.297.163.489.422.585.796.134.518-.029 1.007-.297 1.439Zm-9.191 7.799c1.122-1.813 2.849-3.041 4.528-4.23 1.238-.883 2.523-1.785 3.531-2.926l.048-.058c.489-.547 1.084-1.228.911-1.928-.058-.24-.173-.403-.345-.489-.48-.26-1.353.038-1.641.143-2.379.816-4.192 1.814-5.411 2.955-.93.883-1.621 1.986-2.11 2.85-.058.095-.125.201-.183.316-.537.892-.901 1.621-.364 2.187a.475.475 0 0 0 .201.125l.298.096-.23.346a8.014 8.014 0 0 0-.202.326c-.182.326.038.566.202.662.182.105.46.134.633-.144 0-.01.009-.01.009-.019.039-.068.087-.144.125-.212Zm8.174-8.826-.49.614c-.134.163-.259.327-.403.48-1.055 1.142-2.331 2.063-3.559 2.945-1.256.902-2.552 1.842-3.588 2.993l-.307.346-.124-.537.259-.49c.144-.268.297-.537.451-.806.326-.566.604-.997.873-1.381a8.036 8.036 0 0 1 2.455-2.226c.912-.537 1.938-1.026 3.042-1.477a8.47 8.47 0 0 1 .633-.23l.758-.231Zm-7.205 5.545c.787-.681 1.64-1.295 2.465-1.899 1.113-.806 2.265-1.631 3.234-2.619a21.91 21.91 0 0 0-2.687 1.333 7.443 7.443 0 0 0-2.312 2.092c-.22.307-.441.652-.7 1.093Z"
				fill="#151921" />
	<path d="M146.669 161.984a42.24 42.24 0 0 0-4.27 7.713c.164-.115.317-.249.48-.365a11.73 11.73 0 0 1 1.314-.825 1.48 1.48 0 0 1 .394-.134 40.859 40.859 0 0 1 3.329-5.631c.547-.777-.71-1.526-1.247-.758Z"
				fill="#151921" />
	<path d="m144.759 168.576-.115.028c-.134.029-.24.068-.336.116-.393.201-.786.45-1.285.805-.086.068-.173.125-.259.192-.077.058-.144.115-.221.173l-.71.528.346-.816c1.199-2.801 2.638-5.411 4.288-7.751.374-.528 1.007-.509 1.42-.221.432.307.518.806.23 1.247a40.254 40.254 0 0 0-3.31 5.603l-.048.096Zm-1.775.383c.413-.278.758-.498 1.104-.671.105-.048.211-.096.336-.125a42.114 42.114 0 0 1 3.3-5.564c.22-.317-.029-.518-.106-.576-.182-.124-.527-.201-.748.106a41.792 41.792 0 0 0-3.886 6.83ZM151.628 160.086a61.61 61.61 0 0 0-3.089 4.135c-.94 1.381-1.717 2.887-2.715 4.24-.24.317-.057.806.25.998.364.22.767.057.997-.25.96-1.295 1.708-2.743 2.61-4.077a54.238 54.238 0 0 1 2.955-3.991c.249-.307.316-.719.019-1.026-.24-.269-.777-.336-1.027-.029Z"
				fill="#151921" />
	<path d="M152.923 161.14c-.029.048-.067.095-.096.143a54.299 54.299 0 0 0-2.945 3.972c-.374.557-.729 1.142-1.074 1.708-.48.796-.979 1.612-1.535 2.379-.336.451-.873.585-1.315.317a1.071 1.071 0 0 1-.46-.682.887.887 0 0 1 .134-.671c.557-.758 1.065-1.593 1.554-2.398a42.61 42.61 0 0 1 1.151-1.833 60.016 60.016 0 0 1 3.109-4.154c.144-.182.364-.278.623-.288.288-.009.586.106.768.298.307.336.336.806.086 1.209Zm-4.087 4.854c.211-.336.422-.672.643-.998a54.84 54.84 0 0 1 2.974-4.01c.163-.201.25-.48.029-.719a.52.52 0 0 0-.403-.144c-.067 0-.192.019-.269.115a58.999 58.999 0 0 0-3.079 4.125 45.26 45.26 0 0 0-1.142 1.813c-.489.806-.998 1.65-1.583 2.437-.076.096-.067.211-.057.288a.568.568 0 0 0 .24.364c.259.154.527.019.681-.192.547-.738 1.036-1.554 1.515-2.34.154-.25.307-.499.451-.739Z"
				fill="#151921" />
	<path d="M151.772 159.986c-2.024.796-5.353 2.033-8.039 3.204a1.77 1.77 0 0 1-.393.604 9.356 9.356 0 0 1-1.545 1.199 5.813 5.813 0 0 1-.979.499c.173.298.528.49.921.269 2.629-1.449 7.896-3.377 10.697-4.48.365-.144.48-.653.317-.979-.192-.384-.605-.46-.979-.316Z"
				fill="#151921" />
	<path d="M152.924 161.165a.835.835 0 0 1-.394.336c-.547.211-1.18.461-1.871.729-2.82 1.084-6.686 2.581-8.787 3.742-.537.297-1.027.019-1.247-.365l-.144-.24.259-.105c.326-.125.642-.288.93-.48.605-.384 1.104-.767 1.506-1.161.144-.144.269-.326.336-.518l.039-.096.096-.038c1.976-.863 4.317-1.765 6.207-2.494.681-.259 1.304-.499 1.842-.71.518-.202 1.045-.029 1.285.431.125.24.134.538.038.816-.038.048-.067.105-.095.153Zm-11.685 4.404c.096.048.23.067.393-.019 2.13-1.18 6.015-2.677 8.855-3.771.691-.268 1.324-.508 1.871-.729.124-.048.172-.163.201-.23a.576.576 0 0 0-.01-.422c-.144-.288-.46-.288-.681-.202-.537.212-1.161.451-1.842.72-1.851.71-4.144 1.602-6.092 2.446a1.943 1.943 0 0 1-.412.595c-.432.422-.95.825-1.583 1.228-.23.144-.461.269-.7.384ZM125.284 175.172c-.815-.461-1.602.767-.777 1.228a275.71 275.71 0 0 0 15.033 7.838c.835.403 1.631-.825.778-1.228a269.553 269.553 0 0 1-15.034-7.838Z"
				fill="#151921" />
	<path d="M140.769 184.048a.982.982 0 0 1-.327.336.995.995 0 0 1-1.017.077 272.351 272.351 0 0 1-15.042-7.838c-.298-.163-.47-.441-.47-.748 0-.355.201-.701.518-.893a.928.928 0 0 1 .969 0 275.218 275.218 0 0 0 15.023 7.829c.298.144.47.384.499.681a.997.997 0 0 1-.153.556Zm-16.29-8.461a.496.496 0 0 0-.087.278c0 .144.077.259.221.336a268.493 268.493 0 0 0 15.023 7.828c.24.115.442.029.538-.038.163-.115.278-.307.259-.47-.01-.125-.087-.221-.221-.288a279.716 279.716 0 0 1-15.043-7.838.462.462 0 0 0-.489 0 .429.429 0 0 0-.201.192ZM124.498 133.88a208.403 208.403 0 0 1-2.399-9.354c-.096-.412-.48-.633-.873-.652.067-.144.106-.307.115-.47.039-.499-.259-.969-.451-1.42a38.37 38.37 0 0 1-2.695-9.651c-.173-1.209-2.092-1.161-1.919.058.278 1.918.662 3.827 1.199 5.689.269.921.566 1.842.902 2.743.163.451.345.902.528 1.343.047.116.23.432.354.71a1.134 1.134 0 0 0-.527.442c-.269.422-.307.969-.144 1.439.317.863 1.074 1.113 1.871 1.093.681 2.878 1.41 5.737 2.206 8.587.336 1.199 2.168.633 1.833-.557ZM56.805 134.82c-6.35-.335-13.239-.537-18.774 3.089-1.027.672-.067 2.341.969 1.66 5.247-3.444 11.8-3.147 17.805-2.83 1.228.067 1.228-1.852 0-1.919ZM92.945 161.887c-8.395-10.985-23.16-15.311-36.12-10.303-1.142.441-.643 2.292.508 1.851 12.088-4.672 26.056-.911 33.952 9.421.739.969 2.408.019 1.66-.969Z"
				fill="#151921" />
	<path d="M58.244 136.578a8.464 8.464 0 0 0-3.741 1.171c-.432.259-.624.873-.345 1.314.278.432.853.623 1.314.345a7.56 7.56 0 0 1 .662-.355c.048-.028.105-.048.153-.076.116-.029.23-.087.336-.125a7.07 7.07 0 0 1 1.334-.326c.096-.01.191-.02.297-.029.259-.019.49-.096.681-.278a.992.992 0 0 0 .278-.681c-.028-.48-.431-.998-.969-.96Z"
				fill="#151921" />
	<path d="M93.721 86.258c-.844-1.046-1.995-1.151-3.271-.978-1.602.23-3.224.537-4.797.92-2.571.624-5.027 1.584-7.118 3.157a552.084 552.084 0 0 0-1.996-6.802c-.767-2.533-1.43-5.161-2.638-7.521-.336-.662-1.285-.46-1.602.086-.892 1.535-.758 3.281-.739 4.998.029 2.12 0 4.231-.115 6.351-.192 3.703-.671 7.378-1.497 10.985a.985.985 0 0 0-.143.633c-.068.288-.125.576-.202.863-.259 1.008 1.075 1.439 1.621.768 2.14 1.842 4.644 3.118 7.368 3.972 1.68.527 3.406.892 5.133 1.208 1.448.269 3.3.902 4.681.116 2.476-1.411 3.435-5.162 3.157-7.79-.115-1.046-.317-2.869-1.574-3.176a1.363 1.363 0 0 0-.48-.029c.058-.201.116-.403.164-.604.172-.7.49-1.516.297-2.235-.105-.394-.288-.634-.518-.778a26.844 26.844 0 0 1 4.01-2.849c.394-.25.557-.92.26-1.295Z"
				fill="#FFBF24" />
	<path d="M87.706 112.599c.509-2.35 1.228-4.652 1.573-7.041.068-.499.432-.873.874-1.084-.02-.058-.03-.115-.058-.173-1.219-.173-2.427-.432-3.655-.604a17.006 17.006 0 0 1-3.272-.365c-1.17-.125-2.35-.259-3.51-.489-3.55-.701-6.947-2.082-10.026-3.972a22.94 22.94 0 0 0-1.123-.201 1.48 1.48 0 0 0-.508.019c-.739-.317-1.689-.087-1.823.93a513.58 513.58 0 0 0-2.763 26.843c-.067.902 1.065 1.535 1.833 1.247 3.233-1.208 6.638-1.487 10.054-1.707 1.707-.115 3.424-.221 5.123-.442 1.362-.172 3.338-.211 4.403-1.208 1.103-1.027 1.113-2.84 1.362-4.222.288-1.64.576-3.271.912-4.902.192-.873.393-1.756.604-2.629Z"
				fill="#398FE5" />
	<path d="M88.032 108.199a57.531 57.531 0 0 1-21.72-6.658c-1.055-.566-1.976 1.036-.93 1.602a59.905 59.905 0 0 0 22.65 6.898c1.19.134 1.17-1.727 0-1.842Z"
				fill="#2677C7" />
	<path d="M90.008 104.006c-8.23-.537-16.184-3.185-23.13-7.627-1.007-.643-1.928.97-.93 1.602 6.898 4.413 14.774 7.042 22.919 7.761a314.823 314.823 0 0 0-4.337 20.838c-.201 1.17 1.583 1.659 1.794.489a321.301 321.301 0 0 1 4.586-21.893c.144-.623-.297-1.132-.902-1.17Z"
				fill="#151921" />
	<path d="M65.324 97.166c-1.861 10.044-2.446 13.479-2.859 23.686-.048 1.19 1.804 1.18 1.852-.009.412-10.045.969-13.307 2.801-23.188.22-1.18-1.573-1.67-1.794-.49ZM93.51 85.108a25.338 25.338 0 0 0-8.874.528c-1.9.45-3.875 1.084-5.382 2.331-.844-2.763-1.698-5.516-2.542-8.28-.393-1.266-.767-2.541-1.448-3.693-.557-.93-1.516-2.245-2.754-2.13-1.151.106-1.535 1.19-1.63 2.197-.154 1.516-.164 3.051-.193 4.577-.057 3.338-1.17 14.073-2.312 17.249-.403 1.122 1.286 1.89 1.689.758.854-2.39 2.264-12.203 2.37-14.727.057-1.237.067-2.475.086-3.722.019-.786.038-1.573.077-2.35.019-.394-.087-1.583.144-1.87.038-.049.047-.078.057-.097.02.029.058.087.182.154.22.124.46.546.585.748.317.49.547 1.036.749 1.583.432 1.16.767 2.36 1.132 3.55.835 2.724 1.679 5.439 2.513 8.164.202.652 1.19.786 1.583.249 1.21-1.65 3.224-2.312 5.133-2.801a23.514 23.514 0 0 1 6.898-.71c.489.019.988.067 1.477.124-.978.509-1.976.989-2.964 1.487-2.168 1.085-4.327 2.169-6.495 3.253-1.055.527-.394 2.264.68 1.727 2.975-1.487 5.959-2.984 8.933-4.471.91-.45 2.427-.96 2.523-2.187.096-1.315-1.238-1.535-2.217-1.64Z"
				fill="#151921" />
	<path d="M89.654 89.809c-.413-.288-1.036-.068-1.267.335-.268.47-.067.979.336 1.267-.067-.048-.058-.039.029.028a.82.82 0 0 1 .124.135c-.086-.106.096.163.116.192.019.038.028.048.038.057 0 .01 0 .029.02.067.038.115.066.23.086.355 0 .02 0 .03.01.067.009.077.009.154.009.23 0 .116 0 .231-.02.346a7.118 7.118 0 0 1-.172.73c-.297 1.016-.777 1.947-1.42 2.83-.297.402-.067 1.035.336 1.266.47.268.978.067 1.266-.336 1.468-2.015 3.07-5.747.509-7.57Z"
				fill="#151921" />
	<path d="M92.397 95.91c-.393-1.065-.969-2.197-2.264-2.226-1.199-.029-1.19 1.832.01 1.852.096 0 .278.402.326.508.173.384.307.796.422 1.209.26.892.374 1.832.096 2.743-.47 1.555-1.918 2.658-3.127 3.636-.394.317-.326.989.01 1.315.393.383.92.307 1.314-.01 1.727-1.391 3.472-2.993 3.77-5.305.163-1.266-.106-2.542-.557-3.722Z"
				fill="#151921" />
	<path d="M99.631 76.178a.954.954 0 0 0-.595-.365c-.172-.019-.345.02-.508.087a.798.798 0 0 0-.374-.154c-.24-.029-.509.02-.7.173-.183.144-.346.364-.365.595-.029.364-.039.729-.01 1.084.01.144.029.288.058.431.028.202.067.413.134.595.038.106.106.22.173.307.105.154.268.279.431.355.432.202.95.058 1.257-.297.173-.211.23-.451.298-.7l.115-.432c.086-.326.172-.662.259-.988.057-.211-.039-.518-.173-.691ZM89.337 74.448c-.23-.182-.499-.22-.777-.163-.134-.173-.365-.326-.585-.355-.24-.029-.509.019-.7.172-.173.144-.356.365-.365.595-.029.777.019 1.554.201 2.312.039.163.077.317.183.451a.92.92 0 0 0 .48.326c.373.106.728-.019.987-.307a3.713 3.713 0 0 0 .921-2.168c.02-.326-.067-.643-.345-.863Z"
				fill="#fff" />
	<path d="M102.212 74.842a32.463 32.463 0 0 1-18.334-3.713c-1.055-.566-1.793 1.142-.748 1.698a34.128 34.128 0 0 0 19.293 3.857c1.189-.106.978-1.948-.211-1.842Z"
				fill="#151921" />
	<path d="M84.013 69.94c-.413-.298-.979-.25-1.305.153a8.79 8.79 0 0 0-1.9 4.48c-.057.48.26 1.007.778 1.055.489.058.997-.259 1.055-.777.038-.355.105-.7.192-1.045.01-.039.019-.087.038-.125.02-.067.048-.144.067-.211.058-.183.125-.355.202-.528.134-.326.297-.633.47-.93.019-.03.029-.058.048-.077.048-.077.105-.154.153-.23.106-.154.22-.307.346-.451.307-.384.259-1.017-.144-1.315ZM90.891 73.988c-.47-.182-1.007 0-1.218.47-.154.345-.326.681-.518 1.017-.01.029-.029.048-.038.077-.01.01-.01.019-.03.048-.047.067-.086.144-.133.21a9.896 9.896 0 0 1-1.036 1.324c-.03.039-.068.068-.096.106a21.33 21.33 0 0 1-.144-1.132 27.2 27.2 0 0 1-.087-1.247c-.01-.22-.01-.45-.01-.672v-.518c.02-.48-.23-.997-.776-1.065-.451-.047-1.046.26-1.056.778-.028 1.074-.01 2.148.115 3.223.115 1.026.163 2.667 1.487 2.83.681.086 1.219-.336 1.67-.777.316-.317.614-.652.892-1.007a12.101 12.101 0 0 0 1.468-2.437c.182-.451-.02-1.046-.49-1.228ZM100.715 75.083c-.499-.106-.997.172-1.122.671a14.196 14.196 0 0 1-.365 1.161c-.01.01-.01.02-.019.048-.029.077-.067.154-.096.23-.077.183-.163.355-.25.538a9.338 9.338 0 0 1-.546.95c-.029.038-.058.076-.077.115-.124-.365-.23-.73-.336-1.094-.105-.403-.21-.806-.287-1.219-.048-.22-.087-.44-.125-.662-.02-.096-.029-.191-.048-.287-.01-.048-.01-.077-.01-.087 0-.019-.01-.038-.01-.057-.22.086-.45.153-.719.192-.412.048-.787.01-1.122-.096.144 1.017.345 2.014.623 3.002.288.998.605 2.6 1.948 2.543.681-.029 1.142-.528 1.516-1.046.259-.364.498-.748.71-1.142.45-.834.796-1.726 1.036-2.647.096-.46-.211-1.017-.701-1.113ZM84.55 126.063c-.528 4.001-2.274 8.443-5.305 11.253-3.195 2.965-7.858 3.646-12.03 2.946-4.02-.672-8.194-2.495-10.295-6.169-2.177-3.799-2.1-8.519-1.746-12.74.442-5.382 1.766-10.668 3.8-15.666.47-1.142-1.392-1.641-1.852-.509a54.658 54.658 0 0 0-3.828 15.733c-.422 4.701-.451 9.93 1.976 14.151 2.293 3.981 6.677 6.159 11.062 6.984 4.537.854 9.545.326 13.296-2.552 4.078-3.137 6.198-8.5 6.85-13.431.154-1.218-1.765-1.209-1.928 0ZM97.194 119.75a28.487 28.487 0 0 1-3.08-13.066c.01-1.238-1.908-1.238-1.918 0a30.615 30.615 0 0 0 3.348 14.035c.557 1.104 2.207.135 1.65-.969Z"
				fill="#151921" />
	<path d="M98.595 122.005a11.877 11.877 0 0 0-1.266-2.091c-.154-.211-.317-.365-.576-.442-.23-.067-.537-.038-.739.096-.268.173-.47.518-.48.854-.018.067-.047.134-.047.211.01 1.391.115 2.917.95 4.087.307.432.69.777 1.237.854.672.086 1.228-.365 1.42-.988.269-.892-.125-1.785-.499-2.581ZM105.32 118.061a12.54 12.54 0 0 0-2.101-1.256c-.24-.106-.451-.183-.71-.125-.23.048-.489.221-.604.432a1.124 1.124 0 0 0-.029.978c.019.067.029.144.067.211.662 1.219 1.468 2.523 2.754 3.166.47.24.978.365 1.487.173.633-.24.921-.902.796-1.545-.182-.911-.95-1.516-1.66-2.034Z"
				fill="#151921" />
	<path d="M103.641 116.94c-2.101-3.195-3.358-6.879-3.578-10.707-.067-1.228-1.986-1.237-1.919 0 .24 4.154 1.545 8.193 3.837 11.676.682 1.026 2.341.067 1.66-.969Z"
				fill="#151921" />
</svg>
