<svg width="220" height="138" fill="none" xmlns="http://www.w3.org/2000/svg"><path d="M146.24 45.56a1.49 1.49 0 0 0-.65-.81 2.6 2.6 0 0 0-.18-1.77c-.3-.54-.75-.76-1.26-.8.14-.38.25-.77.34-1.16.17-.76.19-1.56-.52-2.06-.61-.44-1.34-.31-2.03-.15-2.2.51-4.16 1.77-5.63 3.45a40.4 40.4 0 0 0-.5-2.8c-.37-1.65-.72-3.53-1.83-4.88-1.16-1.4-3.05-.92-3.22.93-.16 1.74.31 3.59.73 5.26.45 1.83 1 3.62 1.54 5.43l.74 2.56c.25.84.39 1.91.84 2.68.44.75 1.17.79 1.92.68l3-.42 2.7-.37c.87-.12 2.03-.1 2.82-.48.92-.47.89-1.55 1-2.44.08-.83.45-2.03.19-2.85ZM216.48 127.2c-1.62-1.8-4.37-2.84-6.64-3.52-2.46-.73-5-1.14-7.49-1.78-.61-.16-1.24-.34-1.84-.53-.27-.08-.64-.3-.9-.31l-.06-.03v-.28a4.42 4.42 0 0 0-1.62-3.37c-2.33-1.93-5.83-2.36-8.74-2.64-.12-.02-.25 0-.36.02-2.28-1.26-4.42-2.78-6.54-4.27a71.14 71.14 0 0 0-5.07-3.31c-1.48-.85-3.76-2.22-5.25-.7l-8.75-1.37c-1.62-.25-6.34-1.43-7.86.11a14.1 14.1 0 0 0-6.5-.8c-1.47.16-3.56.27-4.71 1.3-.28.25-.5.57-.64.91-1.38-.05-2.75-.32-4.13-.56a29.35 29.35 0 0 0-5.93-.52c-3.54.09-7 .9-10.25 2.3-3.31-.56-6.66-.81-10.01-.66-.59.02-1.04.32-1.3.72l-8.04-.94c-2.32-.28-4.62-.61-6.86-.2-.01-.04-.02-.08-.05-.1-1.52-2.43-4.93-2.52-7.5-2.6-2.81-.08-6.33.03-8.85 1.43-1.2.66-1.98 1.78-2.99 2.68-1 .88-2.21 1.6-3.49 2.01-2.77.91-4.97-.33-7.14-1.88-.28-.41-.72-.7-1.2-.7-.28-.05-.56-.01-.82.08a16.4 16.4 0 0 0-9.79 4.97c-1.2 1.29-2.64 3-2.68 4.86a2.9 2.9 0 0 0 .51 1.73 97.77 97.77 0 0 1-9.25 3 .77.77 0 0 1-.73.45c-.87.02-1.69.3-2.5.58-.7.24-1.37.47-2.04.74-.62.26-1.28.55-1.95.76-1.32.63-2.65 1.26-3.89 2.05-.45.46-.82.9-1.06 1.35-.83 1.46 2.37 4.04 6.27 4.63 6.35.99 8.9-1.8 15.12-3.34-.17.86-.15 1.95.38 2.6 3.78 4.62 22.96 7.4 31.45 3.34a24.1 24.1 0 0 0 18.35-1.42c.13.18.3.34.51.45a14.03 14.03 0 0 0 11.1.65 23.47 23.47 0 0 0 19.57-.43c6.28 1.95 15.79 1.81 20.97-.32.53-.22 1.16-.6 1.75-.49.64.13 1.27.55 1.86.8 1.34.58 2.73 1.04 4.17 1.32 3.01.58 6.07.5 9.06-.22.03 0 .05-.02.08-.03 4.84 2.65 10.69 2.6 16.03 1.8a39.79 39.79 0 0 0 8.24-2.17 50.9 50.9 0 0 0 5.59-2.51c4.96 1.4 8.05.7 10.82-.22 1.17-.4 3.65-2.27 4.56-3.15 1.04-1.02.02-1.15-.97-2.26Z" fill="#FFBF24"/><path d="M60.34 111.44a3.07 3.07 0 0 0-2.6-.57 6 6 0 0 0-2.36 1.29c-.68.53-1.32 1.11-1.9 1.75-.6.65-1.47 1.49-1.4 2.45.02.13.07.25.12.36a.1.1 0 0 1-.02.04c-.2.4-.1.88.3 1.12.36.21.91.1 1.12-.3a7.34 7.34 0 0 1 2.62-2.63 28.65 28.65 0 0 1 3.96-2.22c.44-.2.56-.98.16-1.29ZM78.44 115.09c-1.04-.57-2.58-.5-3.73-.45A15.3 15.3 0 0 0 67.1 117c-1.13.74-2.22 1.67-2.69 2.97a3.46 3.46 0 0 0 .74 3.65c.18.17.37.23.55.23.64.18 1.34-.74.8-1.41-.71-.9.6-2.33 1.2-2.87a8.62 8.62 0 0 1 3.44-1.76c1.34-.37 2.73-.5 4.11-.37 1.06.1 2.44.76 3.45.17 1.07-.65.7-2.02-.26-2.53ZM130.24 115.14c-.77-1.15-2.19-1.32-3.46-1.44-1.44-.12-2.9.02-4.28.37a.72.72 0 0 0-.52.42 8.9 8.9 0 0 0-1.83.86c-.89.57-.07 1.98.83 1.42a7.14 7.14 0 0 1 4.13-1.13c1.58.06 3.05 1.05 4.64.7.5-.1.76-.78.49-1.2ZM156 106.75a8.65 8.65 0 0 0-5.14-1.86c-.98-.07-1.97-.05-2.95 0-.93.04-1.8.2-2.52.81-.8.7.37 1.84 1.16 1.16.08-.07.17-.1.26-.14a.76.76 0 0 0-.02.43c.13.46.57.63 1.01.57 2.46-.37 4.97.02 7.4.4.37.06.73-.04.93-.38.18-.3.15-.76-.13-.99ZM192.44 122.44c-1.58-.85-3.77-.78-5.5-.63-3.19.25-8.47 1.43-7.86 5.67.05.37.44.59.8.59.05.05.08.12.14.17.75.73 1.91-.42 1.15-1.16 0 0 .11-.15.22-.25.2-.18.45-.32.67-.47.46-.3.93-.6 1.41-.88a9.83 9.83 0 0 1 3.14-1.25c2.33-.42 4.05.81 5.72 2.26.43.37.95.27 1.29-.17 1-1.33.14-3.17-1.18-3.88ZM100.21 106c-1.93 0-3.86.28-5.72.8-.61.17-.7.8-.45 1.21-.32.13-.62.26-.92.41-.39.2-.5.76-.3 1.13.24.4.74.5 1.13.29.57-.3 1.17-.5 1.8-.64.67-.15 1.34-.13 2.01-.15 1.33-.03 2.94-.52 3.24-2.02.1-.52-.22-1.04-.79-1.04ZM93.08 104.21c-.9-.43-1.98-.44-2.97-.53-1-.09-2-.15-3-.15-2.23 0-4.46.35-6.42 1.45-.34.2-.45.63-.35.98-.26.08-.51.15-.77.25-.97.38-.55 1.97.44 1.58a16.5 16.5 0 0 1 9.39-.8c.96.2 1.93.68 2.91.73.86.04 1.77-.43 2-1.3.27-.94-.42-1.82-1.23-2.2Z" fill="#FCFA9C"/><path d="M138.49 106.02a26 26 0 0 0-6.28-.15.84.84 0 0 0-.68.43 22.14 22.14 0 0 0-9.48 1.8c-.96.41-.13 1.82.83 1.41A19.72 19.72 0 0 1 134 108.2c1.15.2 2.33.59 3.47.13a.91.91 0 0 0 .57-.73h.01c1.04.15 1.48-1.43.44-1.57ZM87.48 109.06a8.65 8.65 0 0 0-5.98 1.5c-.36.25-.53.7-.3 1.11.22.36.76.55 1.13.3a7.07 7.07 0 0 1 5.15-1.26c.45.06.82-.42.82-.82 0-.5-.37-.77-.82-.83Z" fill="#fff"/><path d="M186.27 108.51a11.82 11.82 0 0 0-10.16-1.59 3.57 3.57 0 0 0-3.21 1.6c-.06.1-.1.2-.14.3-1 1.01-1.57 2.28-1.94 3.66-.22.81-.3 1.57.06 2.37.33.74.85 1.43 1.38 2.04a18.49 18.49 0 0 0 3.68 3.18c2.57 1.72 5.74 2.88 8.84 2.08 1.26-.33 3.8-1.23 3.28-2.98a1.8 1.8 0 0 0-.9-1.06l.67-.31c.4-.22.78-.5 1.09-.81.32-.25.61-.53.87-.89 1.93-2.7-1.39-6.11-3.52-7.59Z" fill="#FFBF24"/><path d="M188.01 109c-2.1-1.94-5-2.82-7.83-2.63a.69.69 0 0 0-.43.19c-2.83-.17-5.65.7-7.5 3.03-.66.82.66 1.8 1.31.98 2.14-2.69 5.92-2.88 8.95-1.81 1.62.57 3.31 1.3 4.56 2.47 2.18 2.05 1.92 3.25 1.33 5.86-.17.76.98.07 1.4-.64 1.55-2.63.3-5.52-1.79-7.45Z" fill="#FCFA9C"/><path d="M181.06 110.86a49.07 49.07 0 0 0-.6-4.89c-.07-.42-.5-.77-.94-.67-.42.09-.76.48-.69.93.28 1.62.48 3.25.6 4.89.04.42.53.77.94.69.47-.1.72-.49.69-.95ZM183.78 112.84l-.27-2.3c-.04-.42-.51-.77-.93-.68a.84.84 0 0 0-.7.94c.1.76.18 1.53.27 2.29.05.43.52.77.94.69.45-.1.74-.48.69-.94ZM185.95 111l-.11-1.17a.65.65 0 0 0-.12-.3.64.64 0 0 0-.2-.23.57.57 0 0 0-.3-.13.74.74 0 0 0-.32-.03.83.83 0 0 0-.54.32l-.1.2a.79.79 0 0 0-.05.42l.11 1.18c.02.1.05.2.12.3.04.09.11.16.2.23.09.07.18.11.3.13.1.03.2.04.32.02.2-.04.42-.13.54-.32l.1-.18a.79.79 0 0 0 .05-.44Z" fill="#fff"/><path d="M183.56 119.72a14 14 0 0 1-4.56-.8c-5.2-1.83-8.42-6.22-7.15-9.8 1.26-3.6 6.52-5.02 11.73-3.2 2.46.87 4.57 2.33 5.92 4.1 1.43 1.9 1.87 3.91 1.23 5.72-.63 1.79-2.25 3.1-4.54 3.68-.83.2-1.7.3-2.63.3Zm-4.58-12.98c-2.72 0-4.92 1.05-5.58 2.91-.96 2.73 1.8 6.2 6.15 7.72 2.16.76 4.38.92 6.25.45 1.74-.44 2.95-1.37 3.39-2.63.44-1.27.09-2.75-1-4.18a10.96 10.96 0 0 0-5.15-3.55c-1.39-.49-2.78-.72-4.06-.72Z" fill="#151921"/><path d="M190.41 116.28c-.37.05-.7-.11-.93-.37-.04-.04-.05-.08-.08-.12-.26.48-.61.91-1.05 1.25l-.61 1.48c-.28.65-.49 1.55-.95 2.09-.43.5-1.2.64-1.85.76-2.56.46-4.8.1-7.2-.81-2.34-.9-4.52-2.43-5.78-4.64a7.37 7.37 0 0 1-.63-1.4c-.27-.8-.17-1.3.22-2.04a30.08 30.08 0 0 1 2.26-3.63c.61-.86-.7-1.84-1.32-.98a28 28 0 0 0-2.63 4.31c-.67 1.41-.23 2.81.45 4.13a12.47 12.47 0 0 0 6.48 5.63c2.83 1.16 5.7 1.65 8.74.98.67-.14 1.4-.33 1.98-.7.61-.4.86-.97 1.13-1.6a393 393 0 0 0 1.81-4.34h-.04Z" fill="#151921"/><path d="M174.56 114.85a.84.84 0 0 0-1.15.16c-.5.66-.99 1.33-1.45 2.02a.86.86 0 0 0-.16.61c.04.2.16.42.32.53.35.24.9.23 1.15-.16.46-.69.95-1.36 1.46-2.01.26-.34.2-.9-.17-1.15ZM177.73 117.61a.85.85 0 0 0-.32-.53.84.84 0 0 0-.61-.16c-.2.04-.42.14-.54.32-.4.64-.78 1.28-1.17 1.93a.9.9 0 0 0-.16.61c.04.2.16.42.32.53.18.13.4.2.62.16.2-.04.42-.14.53-.32.4-.64.8-1.28 1.18-1.93a.9.9 0 0 0 .15-.61ZM183.49 118.9a.84.84 0 0 0-1.07.45l-.97 2.1c-.19.38.05.92.45 1.06a.84.84 0 0 0 1.06-.45l.98-2.1c.18-.38-.05-.92-.45-1.06ZM176.88 111.02l.02-.04-.03.03h.01Z" fill="#151921"/><path d="M165.28 114.68a11.83 11.83 0 0 0-8.67 5.55 3.54 3.54 0 0 0-1.32 3.32l.09.32a7.79 7.79 0 0 0 1 4.02c.38.76.82 1.37 1.62 1.73.74.33 1.6.5 2.39.6 1.6.22 3.27.16 4.87-.06 3.06-.42 6.2-1.64 7.99-4.3.72-1.09 2.01-3.44.48-4.4a1.8 1.8 0 0 0-1.4-.2 4.61 4.61 0 0 0 .56-2c.08-.4.11-.82.06-1.24-.36-3.3-5.1-3.64-7.67-3.34Z" fill="#FFBF24"/><path d="M166.9 113.9a10.54 10.54 0 0 0-7.62 3.22.69.69 0 0 0-.2.43c-2.22 1.75-3.76 4.27-3.59 7.24.06 1.06 1.7.92 1.64-.14-.19-3.42 2.5-6.07 5.49-7.28a12.83 12.83 0 0 1 5.05-1.17c3 .08 3.6 1.16 4.9 3.49.38.68.78-.59.62-1.4-.59-3.01-3.45-4.35-6.3-4.4Z" fill="#FCFA9C"/><path d="M162.94 119.89a50.13 50.13 0 0 0-3.7-3.25c-.34-.28-.89-.25-1.16.11-.26.35-.24.87.12 1.16a51.8 51.8 0 0 1 3.7 3.25c.31.3.9.22 1.16-.12.29-.38.21-.83-.12-1.15ZM166.29 119.57l-1.73-1.54a.83.83 0 0 0-1.16.11.83.83 0 0 0 .12 1.16l1.72 1.54c.32.28.9.22 1.16-.12a.83.83 0 0 0-.11-1.15ZM166.7 116.75c-.3-.26-.58-.53-.87-.8a.61.61 0 0 0-.28-.14c-.1-.04-.2-.06-.31-.04a.64.64 0 0 0-.3.1c-.12.04-.2.1-.27.2a.85.85 0 0 0-.2.58c.03.07.04.14.05.2a.8.8 0 0 0 .25.37l.88.8c.08.06.17.11.28.14.1.04.2.06.3.04.12 0 .22-.03.31-.1.1-.04.19-.1.26-.2a.85.85 0 0 0 .2-.59l-.06-.2a.79.79 0 0 0-.24-.36Z" fill="#fff"/><path d="M161.65 128.32c-.7 0-1.38-.07-2.03-.2-2.33-.45-4-1.68-4.72-3.44-1.45-3.52 1.53-8.08 6.64-10.17 2.42-.99 4.96-1.29 7.16-.86 2.32.46 4 1.7 4.72 3.45.73 1.76.4 3.8-.93 5.76a12.6 12.6 0 0 1-5.71 4.4c-1.7.7-3.47 1.06-5.13 1.06Zm.5-12.28c-4.27 1.74-6.84 5.34-5.74 8.02.5 1.24 1.75 2.11 3.52 2.46 1.89.38 4.1.1 6.22-.77s3.89-2.22 4.97-3.8c1-1.5 1.28-2.99.78-4.23-.51-1.23-1.76-2.1-3.53-2.45-1.88-.37-4.09-.1-6.22.77Z" fill="#151921"/><path d="M173.54 117.74c-.24.28-.59.38-.95.34a.64.64 0 0 1-.13-.04 4 4 0 0 1 .04 1.63l.53 1.51c.23.66.67 1.48.69 2.19.01.66-.47 1.27-.88 1.79a12.74 12.74 0 0 1-5.92 4.17c-2.35.88-5 1.18-7.4.36a8.09 8.09 0 0 1-1.42-.63c-.72-.41-1-.86-1.2-1.67-.35-1.39-.58-2.8-.72-4.21-.11-1.05-1.75-.92-1.64.14.18 1.66.43 3.36.91 4.97.45 1.49 1.7 2.25 3.1 2.78 2.76 1.06 5.82.88 8.59-.09 2.9-1 5.35-2.55 7.18-5.06.4-.56.82-1.18 1-1.85.2-.7 0-1.28-.21-1.94-.5-1.48-1.03-2.96-1.54-4.45l-.03.06Z" fill="#151921"/><path d="M160.75 127.18a.83.83 0 0 0-.75.89c.06.82.14 1.64.26 2.46.03.22.12.42.3.56.15.13.39.22.59.2.41-.06.8-.44.74-.9-.11-.8-.2-1.63-.25-2.45-.03-.44-.45-.82-.89-.76ZM164.96 127.14a.87.87 0 0 0-.6-.19.8.8 0 0 0-.56.3c-.13.16-.22.38-.2.59l.41 2.22c.04.22.12.41.3.56.15.12.4.21.59.19a.8.8 0 0 0 .56-.3c.13-.16.23-.38.2-.59-.14-.73-.28-1.47-.4-2.21a.87.87 0 0 0-.3-.57ZM170.11 124.28a.84.84 0 0 0-.5 1.05l.67 2.21c.12.41.65.66 1.05.5.42-.17.63-.6.5-1.05l-.67-2.2c-.12-.42-.65-.66-1.05-.5ZM159.92 122.78l-.01-.05v.04h.01Z" fill="#151921"/><path d="M147.88 52.02a4.24 4.24 0 0 0-3.25-1.26c-4.32.01-8.17 2.35-12.42 2.68-.16 0-.3.05-.44.1.16 2.63.52 5.25.84 7.86.04.37-.16.7-.45.93-.01.23-.06.46-.16.67-1.51.4-3.01.8-4.52 1.22-1.93.54-3.85 1.2-5.56 2.26a7.96 7.96 0 0 0-.36-3.65c-.28-.75-.74-2.07-1.79-1.8-.54.13-.76.62-.81 1.15-.9-.02-1.66.68-2.27 1.5-3.29 4.44-7.97 7.89-12.27 11.3-4.45 3.52-9.13 6.8-14.32 9.12a47.29 47.29 0 0 1-17.3 4.03c-.35-.68-1.36-.83-1.96-.48-.5.3-.7.77-.69 1.27-.37.74-.12 1.82.77 2.09 1.65 3.74 3.42 7.44 5.95 10.68.62.8 1.36 1.98 2.33 2.35 1.31.5 2.18-.47 2.94-1.37.7-.81 1.45-1.58 2.24-2.28-.01-.04-.03-.08-.03-.13v-.13l.03-.26.01-.07.01-.03.1-.23.03-.06c.05-.07.11-.15.18-.21l.19-.15s.01-.02.03-.02l.26-.11c.15-.04.3-.04.45 0l.2.08.07.06.44-.34c1.74 1.7 3.48 3.43 5.26 5.1 1.05.96 2.15 1.8 3.31 2.56 2.23-.95 4.77-.98 7.12-.52 1.7.34 3.5.85 5.02 1.77 2.83.02 5.67-.09 8.5-.24 2.37-.13 5.07.01 7.24-1.05-.12.35-.1.71.01 1.03 1.33-.58 2.75-.92 4.2-1.09.64-.78 1.17-1.65 1.62-2.56 1.05-2.12 1.96-4.32 2.88-6.5a202.4 202.4 0 0 0 2.68-6.67c.8-2.08 1.61-4.16 1.83-6.38.11.03.21.02.32-.01.19-.05.4-.2.49-.38.1-.19.15-.42.08-.63l-.08-.2a.85.85 0 0 0-.3-.3 4.86 4.86 0 0 0-1.53-.66 1 1 0 0 0-.49.04c-.65-.1-1.31-.24-1.95-.4-.1-.26-.31-.5-.66-.68-2.13-1.1-4.3-2.16-6.42-3.29a84 84 0 0 0 9.33-2.64c3.27-1.15 6.95-2.35 9.4-4.93 1.28-1.35 2-3 2.53-4.76.27-.9.52-1.83.73-2.76.27-3.55.5-7.08.41-10.62Z" fill="#398FE5"/><path d="M99.6 105.84c-3.2-2.73-8.76-6.87-11.94-9.62-.45-.38-1.1-.43-1.54 0-.26.26-.37.68-.28 1.05-.14.4-.09.87.24 1.13 3.18 2.55 6.39 5.08 9.61 7.57.46.36 1.09.45 1.54 0 .4-.39 2.82.25 2.37-.13ZM148.08 54.19c-.24-.14-.12-3.24-.41-3.16-.47.13-.91.05-1.39.16-.07 1.1-.64 6.56-.56 6.55-.19 1.87-1.1 9.25-2.2 10.1-1.08.85-2.54 1.34-3.8 1.88-5.52 2.4-12.2 4.9-18.15 5.92-1.38.24 2.5 2.54 3.88 2.3 6.47-1.1 9.86-2.92 15.84-5.62 1.34-.6 3.3-2.3 4.28-3.44.93-1.09 1.33-2.55 1.71-3.9l.15-.54c.14-1.03.28-2.06.37-3.09.11-1.32.19-2.64.27-3.95.02-1.09.02-2.15.01-3.21Z" fill="#2677C7"/><path d="M146.68 53.74c-3.22.04-11 .36-13.97 1.6-.37.15-.62.48-.51.9.09.33.52.65.9.5 2.85-1.19 10.48-1.51 13.58-1.56.92-.01.92-1.45 0-1.44Z" fill="#2677C7"/><path d="M166.18 88.39a5.24 5.24 0 0 0-.4-1.13.57.57 0 0 0-.2-.22v-.11c-.06-.3-.3-.46-.57-.5-.37-2.28-2.57-4.75-3.72-6.35-.67-.92-1.32-1.84-2-2.75a7.47 7.47 0 0 0-1.78-1.9c-1.8-1.2-3.78-.14-5.58.51l-6.4 2.33c-2 .73-4.06 1.39-6 2.27-1.86.85-2.75 2.18-3.45 4.04l-2.38 6.36-4.57 12.2-1.38 2.04c-.22.33-.09.83.23 1.06.55-.04 1.11-.08 1.67-.08l.67-.01.03-.06.15-.4c1.25.57 2.57.48 3.93.34a29.1 29.1 0 0 1 5 .01l2.38.2c.34-.49.94-.79 1.49-.94.3-.1.62-.14.94-.17l.15-.09a7.97 7.97 0 0 1 3.31-.75c1.86-.06 3.8.3 5.55.91.2-.12.42-.25.61-.4 1.26-1 1.68-2.8 2.26-4.23.52-1.3 1.53-2.89.38-4.13-.29-.32-.9-.52-1.12-.89-.24-.4.15-1.59.23-2.07.25-1.49.57-3.53 1.58-4.76l.02.02 4.8 2.44c.25.13.56.15.83.07.09.13.23.22.38.26l.05.2c.16.71 1.19.64 1.38.04.03-.01.07-.01.1-.03l.22-.14c.17-.1.29-.27.34-.46l.42-.34c.34-.28.62-.62.78-1.03.2-.47.13-1.1-.33-1.36Zm-14.5 3.25a.99.99 0 0 1-.25.4.91.91 0 0 1-.4.25.97.97 0 0 1-.48.1 3.43 3.43 0 0 1-1.58-.43c-.18-.1-.33-.27-.44-.45a1.23 1.23 0 0 1 .44-1.7c.2-.12.4-.2.6-.28.11-.05.21-.09.32-.12.22-.06.44-.06.66 0l.3.12c.19.11.33.27.44.45l.12.26.03.02c.15.16.26.34.32.55l.04.33c0 .2-.03.35-.12.5Z" fill="#252B36"/><path d="M164.6 85.43c-.88-1.42-1.75-2.82-2.67-4.2-1.19-1.78-2.39-3.67-4.07-4.98-.4-.37-.85-.65-1.37-.84-.15-.07-.28-.16-.44-.22a.6.6 0 0 0-.51 0c-.25-.02-.5-.03-.78 0-1.42.13-2.84.65-4.18 1.14-1.38.5-2.74 1.07-4.07 1.7a93.42 93.42 0 0 0-8.28 4.55c-.8.48-3.07 3.99-2.26 3.5 4.69-2.8 12.9-7.3 18.23-8.91 1.03-.31 1.74-.54 2.45-.05l.25.19c.25.21.48.47.7.8.81 1.16 1.53 2.4 2.28 3.59 1.64 2.6 3.59 6.2 5.22 8.8.32.52.86-.55 1.02-1.17.37-1.43-.83-2.77-1.53-3.9Z" fill="#343A46"/><path d="M66.81 86.86a62 62 0 0 1-10.83-2.38c-1-.32-2.43-.56-3.16-1.37-.44-.5-1.02-.41-1.4-.08-2.5.23-3.7 2.72-4.3 5.06-.08.29-.02.64.16.91-.16.68.54 1.5 1.37 1.35l5.88-1c.37-.07.9-.3 1.19-.09.25.2.46.86.6 1.15.38.7.73 1.8 1.43 2.24.74.45 1.47.01 2.18-.28.9-.36 1.8-.72 2.69-1.1 1.65-.66 3.3-1.34 4.74-2.4.9-.66.55-1.88-.55-2.01Z" fill="#FFBF24"/><path d="M132.78 85.3a96.68 96.68 0 0 1-7.48-2.68c-.36-.15-.78-.1-1 .26-.17.32-.1.83.27 1 2 .88 5.73 2.15 7.83 2.81.88.28 1.27-1.11.38-1.4Z" fill="#2677C7"/><path d="m133.76 80.71-.61.16c.21-.4.12-.93-.4-1.05a31.66 31.66 0 0 1-10.43-4.45.13.13 0 0 1-.04.03.64.64 0 0 0-.57-.3c-.66 0-.84.74-.56 1.16l-.04.03.24.15.07.05c3.02 2 6.36 3.52 9.9 4.45a3 3 0 0 0-.31 1.05c-.05.49.5.8.92.7l1.15-.3c-.32.81.88 1.51 1.27.68.25-.55.38-1.05.34-1.66-.04-.46-.46-.83-.93-.7Z" fill="#151921"/><path d="M121.56 108.07c.4-.24.82-.45 1.25-.64a178.62 178.62 0 0 0 12.1-25.26c.33-.87-1.04-1.32-1.38-.45a175.22 175.22 0 0 1-12.2 25.4c-.23.38-.05.75.23.95ZM94.8 106.65a2.5 2.5 0 0 1 1.65-.18.7.7 0 0 0-.31-.47 188.6 188.6 0 0 1-10.27-7.78c-.3-.24-.72-.3-1.02 0-.26.25-.3.78 0 1.02 2.84 2.28 6.7 5.3 9.83 7.5l.13-.1Z" fill="#151921"/><path d="M124.49 82.57a5.45 5.45 0 0 1-6.9 0c-.37-.32-1.1-.25-1.2.32-.47 2.43-2.17 4.56-3.5 6.59a178.97 178.97 0 0 1-4.54 6.53c-.55.75.7 1.47 1.25.73 1.62-2.23 3.2-4.49 4.7-6.79 1.18-1.78 2.56-3.62 3.23-5.67a6.93 6.93 0 0 0 8-.68c.69-.6-.34-1.62-1.04-1.03Z" fill="#2677C7"/><path d="M111.04 100.61c-.24-1.51-.8-2.99-1.52-4.34-.45-.82-1.7-.09-1.25.73.63 1.18 1.09 2.44 1.34 3.75.2 1.12.2 2.33-.49 3.28-.23.32-.06.8.26 1 .37.2.77.05 1-.27.86-1.2.89-2.74.66-4.15Z" fill="#2677C7"/><path d="M147.87 50.86c-5.32-.76-10.55.32-15.69 1.6.06.49.12.96.22 1.44 4.92-1.24 10-2.38 15.09-1.65.91.13 1.3-1.26.38-1.39Z" fill="#151921"/><path d="M147.12 51.9c-.16 3.32-.4 6.63-.73 9.93-.17 1.68-.32 3.37-.58 5.04-.27 1.64-1.06 2.5-2.43 3.36-5.1 3.18-12.14 5.87-18.04 7.2.21.08.41.19.6.35.17.18.29.4.36.63.1.07.17.15.26.23a75.06 75.06 0 0 0 9.72-3.16 43.6 43.6 0 0 0 8.56-4.47 5.25 5.25 0 0 0 2.28-3.28c.34-1.63.45-3.34.63-5 .38-3.6.65-7.2.82-10.82.04-.94-1.41-.93-1.45 0ZM58.46 92.53a11.94 11.94 0 0 1-2.64-3.59c-.13-.3-.52-.4-.82-.33-1.6.37-3.22.64-4.85.78-.7.05-1.44.14-2.13.09-.17-.02-.5-.04-.59-.2-.1-.21.13-.52.25-.66.8-1 2.26-1.69 3.44-2.1 1.34-.48 3.75-.83 5.17-.75.94.05-.09-1.26-1.02-1.3a12 12 0 0 0-7.62 2.26c-.68.5-1.36 1.08-1.61 1.9-.24.78.07 1.6.78 2 .7.4 1.59.3 2.36.26a35.2 35.2 0 0 0 5.63-.77 13.12 13.12 0 0 0 2.6 3.43c.7.63 1.73-.38 1.05-1.02Z" fill="#151921"/><path d="M52.88 82.24a.74.74 0 0 0-.9-.51c-2.58.61-4.85 3.21-5 5.83-.02.38.35.74.72.72.41-.02.7-.32.73-.72a6.17 6.17 0 0 1 .05-.5c0-.06.02-.12.04-.19.05-.26.14-.51.23-.77.05-.14.2-.42.3-.62a4.36 4.36 0 0 1 1.85-1.7c.06-.04.12-.06.18-.08l.06-.04c-.04.02-.04.02 0 0 .25-.1.95-.5 1.21-.56.4-.06.63-.5.53-.86Z" fill="#151921"/><path d="m154.22 92.72-.2.24c-.06-.1-.11-.22-.18-.32-.3-.49-.92-.45-1.24 0l-.12.14c-.07-.23-.26-.45-.5-.49a37.57 37.57 0 0 0-8.51-.5c-.93.06-.94 1.5 0 1.44 2.53-.14 5.07-.02 7.57.37 0 .7.12 1.46.97 1.5.46.03.82-.28 1.12-.67l.03.07c.16.47.85.77 1.21.32l.88-1.09c.57-.7-.44-1.73-1.03-1.01Z" fill="#343A46"/><path d="M81.13 101c-.43-.7-1.22-.93-1.94-1.22l-3.75-1.56c-1.06-1.73-2.1-3.45-3.17-5.17-.54-.9-1.06-1.81-1.64-2.69-.54-.83-1.23-1.52-2.29-1.55-.94-.02-1.85.5-2.69.85a68.34 68.34 0 0 0-8.17 4.17c-.67.4-.92 1.3-.52 1.98a73.07 73.07 0 0 0 10.81 14.1c.97.98 2.07 1.98 3.56 1.9 1.52-.1 2.8-1.26 3.9-2.18a28.37 28.37 0 0 0 5.68-6.36c.46-.7.68-1.51.22-2.27Z" fill="#398FE5"/><path d="M70.2 89.93a37.85 37.85 0 0 0-12.5 7.1c-.8.7.37 1.85 1.16 1.16a35.74 35.74 0 0 1 11.77-6.7c1-.33.58-1.9-.43-1.56Z" fill="#2677C7"/><path d="M68.27 87.67a38.22 38.22 0 0 0-12.43 6.56c-.73.58.3 1.6 1.03 1.03a36.46 36.46 0 0 1 11.78-6.2c.89-.28.51-1.67-.38-1.4Z" fill="#151921"/><path d="M85.76 96.32c-3.08 4.51-6.28 9.21-10.8 12.43a8.31 8.31 0 0 1-3.77 1.69c-1.59.16-2.71-.68-3.78-1.74a54.21 54.21 0 0 1-5.53-6.42 58.22 58.22 0 0 1-4.97-8.04c-.43-.83-1.64-.03-1.22.8a57.3 57.3 0 0 0 10.85 14.84c1.03 1 2.19 1.84 3.66 2 1.4.15 2.76-.31 3.99-.95 2.6-1.35 4.83-3.57 6.76-5.76a82.36 82.36 0 0 0 6.09-8.19c.53-.76-.76-1.41-1.28-.66ZM133.56 62.04c-.28-2.95-.43-5.9-.46-8.87 0-.92-1.45-1-1.44-.07.03 2.89.18 5.76.44 8.64a35.37 35.37 0 0 1-9.82 2.84c-.92.12-.61 1.54.3 1.4 3.68-.5 7.25-1.57 10.61-3.15.31-.14.4-.47.37-.8Z" fill="#151921"/><path d="M108.92 74.07a50.8 50.8 0 0 0 4.22-4 .71.71 0 0 1 .1-.2c.46-.62.9-1.26 1.42-1.85-.39-.45-1.1-.65-1.7-.14l-3.36 2.88c-1.56 1.2-3.16 2.36-4.68 3.63a25.18 25.18 0 0 0-2.9 2.8c-.88.72-1.75 1.47-2.53 2.28-.26.28-.5.57-.72.88l-.2-.1c-.73-.36-1.41-.04-1.7.67-.12.29-.17.6-.14.9H92.1c-.74 0-1.13.59-1.14 1.17-.65.73-.1 2.17 1.1 1.9 2.21-.5 4.49-.52 6.7-.02.62.14 1.24-.22 1.42-.77.3-.05.54-.22.69-.45.73-.14 1.15-.88 1.23-1.68.1-1.1.63-2.07 1.32-2.92l2.84-2.43 2.34-2c.06-.22.16-.4.31-.55Z" fill="#FFBF24"/><path d="M112.42 28.82a1.68 1.68 0 0 0-.66-1.9 25.95 25.95 0 0 0-10.9-3.53c-1.3-.12-2.6-.12-3.9-.03l.02-.24c0-.18-.04-.35-.1-.5l-.2-.16a1.59 1.59 0 0 1-.4-.6 1.5 1.5 0 0 0-1.2-.22c-8.6 2.12-17 5.08-25.05 8.8l.2-.46-.42.25a29.93 29.93 0 0 0-3.7 2.51l-.25.2c-.94.4-1.88.82-2.77 1.3-.4.24-.56.59-.56.94-.62.31-1.27.57-1.93.7l.08.4c-1.02-.16-2.15.96-3.14 1.3a15.93 15.93 0 0 0-7.02 5c-1.94 2.23-3.82 4.7-5.03 7.4.46.25.76.76.78 1.27l-.01.32c.3.45.32 1.05.07 1.54l-.5 1.03-.2.49-.07.15-.07.16a19.75 19.75 0 0 0-1.1 4.03l-.01.04a23.04 23.04 0 0 1-.08.82c-.02.36-.04.73-.04 1.09 0 .7-.5 1.22-1.15 1.36a30.34 30.34 0 0 0-.05 4.74c.3 4.27 1.69 8.57 4.49 11.84.14-.13.3-.24.47-.3.3-.13.6-.15.9-.07.35.08.7.36.87.66.29.5.59 1 .91 1.48.48-.21.85-.66.9-1.24a24.46 24.46 0 0 0 8.83 6.75 25.34 25.34 0 0 0 16.5 1.31c3.9.35 7.74-.95 11.33-2.54l.35-.16c4.75-.8 9.15-2.82 13.16-5.48 2.15-1.42 4.19-3 6.16-4.65a20.69 20.69 0 0 0 3.17-3.21c1.89-.46 3.58-2.26 4.73-3.62 3.47-4.09 5.02-9.34 5.3-14.62l.02-.63c.7-.05 1.36-.55 1.37-1.45a29.01 29.01 0 0 0-10.1-22.27Z" fill="#FFBF24"/><path d="M108.18 39.12a14.4 14.4 0 0 0-6.4-4.45l-.77-.27c.77.1 1.36-.96.54-1.39a16.82 16.82 0 0 0-15.6.26l-.28.06a.72.72 0 0 0-.45.35c-.7.43-1.36.9-1.98 1.44-.06.05-.1.1-.13.15-4.22 1.35-8.15 3.62-10.65 7.36-.1-.02-.21-.04-.32-.03a19.3 19.3 0 0 0-13.6 7.05c-1.65 1.97-3 4.22-4.03 6.65-.98 2.3-1.91 4.88-1.7 7.54.25 2.9 1.84 5.42 3.78 7.54a17.04 17.04 0 0 0 6.72 4.67c5.11 1.85 10.33 3.01 15.29 1.9 10.32-2.29 21.55-8.45 27.74-17.48a23.95 23.95 0 0 0 4.32-13.5c0-2.76-.73-5.57-2.48-7.85Z" fill="#FCFA9C"/><path d="M122.3 47.38c.05-2.25-.91-4.55-1.86-6.59.2-.22.35-.5.38-.83-.6-1.1-1.24-2.17-1.97-3.2-1.37-1.93-3.13-3.56-4.6-5.42-.48-.61-.61-1.4-.01-2 .04-.05.09-.08.14-.11-.2-.2-.42-.38-.63-.57l-.16-.12c-.48-.32-.96-.62-1.46-.9a1.56 1.56 0 0 0-.23-.4l-.3-.22c-.1-.07-.18-.15-.25-.22a22.57 22.57 0 0 0-6.97-2.8 41.71 41.71 0 0 0-4.21-1.2l-.4.08c-.57.08-1.14.14-1.71.15a2.02 2.02 0 0 1-1.65-.92l-.3-.05c.08-.8-.26-1.41-1.28-1.45-7.06-.27-13.38 3.27-19.47 6.46l-.35-.5-.16.19c-.14.14-.3.27-.44.39-.6 1.11-.56 1.82.88 1.06 3.83-2 9.06-3.08 13.28-4.11l.28-.02c-.37.92.18 2.16 1.35 2.12 2.98-.1 6.82-.87 13.46.76l.87.17.18.05c-.68.75-.53 2.2.68 2.53 1.48.42 3 .95 4.43 1.62-.47.41-.63 1.16-.07 1.65.87.77 1.75 1.59 2.6 2.44 3.14 3.3 5.72 7.43 6.67 11.89-.77-.2-1.68.33-1.4 1.32.08.25.77 2.67.58 6.3-.46 4.75-2.84 13.35-6.77 16.18-.42.3-.12.39 1.36-.59.74-.48 1.43-1.02 2.09-1.6l.38-.41c.23-.28.42-.55.66-.93.5-.78.94-1.61 1.41-2.42.49-.84 1.06-1.62 1.53-2.46.5-.87.94-1.76 1.31-2.68.1-.22.26-.38.45-.5.33-1.25.55-2.54.61-3.84a1 1 0 0 0 .92-.8c.69-2.58.66-5.1.14-7.5Z" fill="#FCFA9C"/><path d="M99 32.6a15.24 15.24 0 0 0-6.88-.34c-2.3-.12-4.6.09-6.7.97-2.16.9-4.31 2.42-6.3 3.62-2.05 1.25-3.61 2.84-5.25 4.6-.99 1.08-.91 3.5.08 2.42 2.54-2.74 7.03-5.87 10.32-7.57 1.5-.77 5.22-2.6 10.68-1.8 3.45.5 5.91 1.96 8.32 4.53a21.26 21.26 0 0 1 3.9 5.93c.88 3.15 1.3 8.17.06 11.08-1.25 2.93-3.4 7.06-4.13 7.94-.92 1.1 2.52-2.37 3.6-3.4 1.04-1.03 2.2-3.13 2.76-4.42 1-1.85 1.1-4.55 1.1-6.67 0-1.88.47-4.16-.34-5.94-1.48-5.13-6-9.29-11.22-10.96Z" fill="#fff"/><path d="M73.55 42.2c-8.07.5-15.66 6.07-19.01 13.5-.9 2.02-1.57 3.7-1.4 5.89.16 2.18.48 4.39 1.3 6.43 1.56 3.83 5.1 6.64 8.73 8.45 3.7 1.84 7.86 2.66 11.93 1.75 1.12-.26 1.57-1.42.45-1.37-6.74.29-14.88-4.03-17.1-7.43-2.1-3.23-4.37-12.47 4.24-20.09 3-2.66 6.8-4.6 10.82-4.84 1.47-.1 1.5-2.37.04-2.28Z" fill="#fff"/><path d="M123.38 15.85a46.6 46.6 0 0 0-4.14-4.84 65.13 65.13 0 0 0-2.4-2.32 58.29 58.29 0 0 0-3.23-1.76 37.88 37.88 0 0 0-4-1.78c-1.05-.39-2.23-.67-3.2-1.27-.78.2-1.4.7-1.58 1.68-.18.92.33 1.82.75 2.62.57 1.05 1.3 2 2.03 2.95.72.91 1.48 1.8 2.14 2.76.36.52.8 1.1.97 1.71a2 2 0 0 1 .31.43c.1.16.17.34.23.52l.01.06c.04.19.1.44.08.65-.02.15-.04.46-.11.65-.1.29-.21.57-.4.8-.17.3-.4.53-.7.7-.02.01-.04.03-.07.03a13.39 13.39 0 0 1-2.63 3.77c-.8-.2-1.42.98-.6 1.38a27.92 27.92 0 0 1 4.4 2.63c-.08.84.55 1.76 1.48 1.72.28 0 .55.04.76.18.4.44.72.97.46 1.52-.13.28-.15.69.13.91.96.8 1.97.32 2.72-.48.95-.99 1.86-2.03 2.75-3.07.59-.68 1.15-1.38 1.7-2.1a20.75 20.75 0 0 0 2.96-4.43c1.02-2.08.53-3.83-.82-5.62ZM43.24 63.54c1.92-.39 1.15-3.32-.76-2.94-.92.18-1.76.56-2.61.91l-.04.06c-.14.21-.32.38-.55.5a3.48 3.48 0 0 1-2.42.35 3.74 3.74 0 0 1-1.65-.88c-.05-.04-.08-.1-.13-.13a6.12 6.12 0 0 1-1.34-1.7c-1.44-2.51-2.6-5.17-4.26-7.55a1.27 1.27 0 0 1-.06-1.27c-.73-.54-1.57-.66-2.48.15-.77.68-1.11 1.8-1.43 2.74a16.28 16.28 0 0 0-.67 3.26c-.5 4.24.74 7.66 1.76 11.75.58 2.34 1.24 5.63 3.67 6.57 2.14.83 4.83.54 7.05.3a35 35 0 0 0 4.32-.74c1.37-.33 2.59-.94 2.48-2.55-.2-2.92-.74-5.87-1.14-8.78l.26-.05Z" fill="#5EDC10"/><path d="m44.13 23.25-.06.33c-.3-.03-.6.04-.9.28-.58.5-1.1 1.06-1.57 1.66-.75.71-1.4 1.53-1.99 2.4-.95 1.4-2.34 3.24-2.26 5.03.04.9.43 1.74.82 2.54a104.32 104.32 0 0 0 2.91 5.64.76.76 0 0 0-.1.78 33.33 33.33 0 0 0 4.46 7.6c.3.4.98.22 1.2-.16a42.85 42.85 0 0 1 5.1-7.25c.2-.23.32-.63.12-.9-.54-.75-1.09-1.52-1.63-2.3-.4-.84-.83-1.69-1.25-2.53-1.76-3.6-3.44-7.34-3.52-11.4 0-.12-.02-.22-.05-.32.05-.33.1-.66.18-.99.23-.96-1.24-1.36-1.46-.4Z" fill="#252B36"/><path d="M83.25 5.1c-2.85-.87-5.83.97-8.22 2.25a164.3 164.3 0 0 0-9.33 5.34c-2.41 1.49-4.75 3.18-6.53 5.39-1.55 1.02-2.92 2.15-3.64 3.97-.84 2.1-.49 4.46-.2 6.64.31 2.54.85 5.04 1.56 7.5.1.33.35.49.62.53.37 1.2 2.17.81 2.2-.35a224.46 224.46 0 0 1 23.3-11.83c1.35-.6 3.04-1.05 3.95-2.3.84-1.18.65-2.81.59-4.18a39.29 39.29 0 0 0-.55-4.9 35.04 35.04 0 0 0-1.2-4.84c-.49-1.42-1.01-2.74-2.55-3.21Z" fill="#343A46"/><path d="M83.48 49.14a1.3 1.3 0 0 0-.33-.17c-.37-.11-.8-.05-1.18.02-.71.15-1.37.49-1.93.93-.38.3-.69.67-.94 1.08-.24.07-.48.15-.72.2-.58.15-1.04.75-.88 1.36.16.58.74 1.02 1.36.86a22.5 22.5 0 0 0 5.53-2.21c.52-.3.8-1 .48-1.54-.28-.46-.86-.72-1.39-.53Z" fill="#fff"/><path d="M63.84 10.02A197.35 197.35 0 0 0 47 21.75c-.4-.04-.87.2-.92.72-.26 2.5.67 4.83 1.53 7.12 1.04 2.75 1.6 5.65 2.67 8.38.24.6.5 1.2.8 1.77.27.52.57 1.26 1.03 1.64.99.82 1.88-.6 2.47-1.24l1.47-1.56c.4-.42.98-.88 1.12-1.47.13-.54-.13-1.1-.3-1.6l-.68-2.15c-.82-2.68-1.57-5.5-1.57-8.31 0-1.32.2-2.66.88-3.81.7-1.2 1.79-2.13 2.84-3.02 2.31-1.94 4.9-3.52 7.23-5.46.75-.62 1.3-1.59.75-2.53-.6-1.03-1.63-.73-2.48-.21Z" fill="#89A1AE"/><path d="M88.96 84.96c-5.55 2.24-12.46 2.06-18.53.82-5.24-1.09-9.92-4-13.83-7.57-1-.93-2.21-.28-2.48.74a21.81 21.81 0 0 1-4.02-8.82c-.18-.86-1.76-1.25-2.56-1-.24-1.98-.47-3.46-.57-5.4-.2-3.95-.48-7.92 1.26-11.54.84-1.75-.58-2.26-1.44-.5-1.93 4.02-2.35 7-2.16 11.4.1 2.27-.42 3.5-.15 5.74a37.1 37.1 0 0 0 2.34 8.27c.3.76.98 1.3 1.84 1.08.38-.1.71-.35.92-.68 2.06 3.8 5.1 7.06 8.82 9.35.64.4 1.52.18 1.96-.4.36-.49.38-1 .17-1.48a28.36 28.36 0 0 0 9.1 3.74c3.06.63 6.16.62 9.23.03 3.35-.65 6.53-1.93 9.68-3.2.77-.3 3-.2 2.79-1.07-.17-.72-1.6.18-2.37.5Z" fill="#FFBF24"/><path d="M47.23 50.96c-3.17 6.16-2.8 13.22-1.25 19.77.34 1.43 2.54.86 2.2-.56-1.4-5.95-1.86-12.46 1.03-18.07.67-1.3-1.3-2.44-1.98-1.14Z" fill="#FFBF24"/><path d="M59.9 36.28c-5.45 3.43-11.19 7.27-13.23 13.71-.45 1.4 1.76 2 2.2.6 1.84-5.8 7.11-10.67 12-13.75 1.24-.78.28-1.35-.96-.56Z" fill="#FFBF24"/><path d="M112.33 70.01c-4.4 4.87-10.83 8.26-12.39 15.06-.16.72.96.97 1.13.25.96-4.2 4.2-7.3 7.3-10.03 2.4-2.1 4.89-4.25 6.69-6.87-.81.64-1.74 1.2-2.73 1.6Z" fill="#151921"/><path d="M114.53 68.83c-1.64 2.21-3.75 4.09-5.82 5.92l-.45.39c-3.2 2.82-6.4 5.94-7.37 10.14-.06.28-.33.3-.47.27-.17-.04-.35-.18-.28-.43 1.08-4.72 4.62-7.85 8.05-10.88a49.4 49.4 0 0 0 4.57-4.42c-.26.13-.53.23-.8.33a56.94 56.94 0 0 1-4.02 3.8c-3.47 3.07-7.06 6.24-8.17 11.08-.1.47.2.8.57.9.2.03.4.02.59-.08a.73.73 0 0 0 .34-.48c.94-4.1 4.1-7.15 7.25-9.94l.45-.39c2.41-2.12 4.87-4.3 6.59-7l-1.03.8Z" fill="#151921"/><path d="m119.86 60.83-.07.24a5.1 5.1 0 0 1 1.48 2.56c.65 2.7-.63 4.98-2.56 6.8-3.87 3.62-9.02 5.48-13.08 8.88-2 1.67-3.66 3.69-4.63 6.12-.27.69.84 1 1.1.32 2.1-5.29 7.63-7.93 12.2-10.7 2.45-1.5 4.99-3.17 6.75-5.48a7.34 7.34 0 0 0 1.04-7.15A5.83 5.83 0 0 0 120 59.8c-.03.34-.08.7-.16 1.04Z" fill="#151921"/><path d="m120.04 59.58-.05.43a5.79 5.79 0 0 1 1.93 2.48 7.2 7.2 0 0 1-1.01 6.96c-1.78 2.32-4.38 4.02-6.69 5.42l-1.83 1.09c-4.23 2.49-8.6 5.06-10.45 9.72a.42.42 0 0 1-.32.26c-.15.02-.33-.03-.4-.14-.07-.08-.08-.18-.03-.3.87-2.2 2.41-4.23 4.57-6.05 1.88-1.56 4.01-2.82 6.09-4.04 2.41-1.42 4.9-2.88 7-4.85 2.32-2.18 3.2-4.52 2.62-6.97a5.2 5.2 0 0 0-1.61-2.72l-.12.41a4.97 4.97 0 0 1 1.36 2.4c.55 2.31-.3 4.53-2.51 6.61-2.06 1.93-4.53 3.4-6.93 4.8-2.09 1.23-4.25 2.5-6.13 4.08a15.74 15.74 0 0 0-4.69 6.2c-.1.24-.06.48.09.67a.84.84 0 0 0 1.04.18.74.74 0 0 0 .34-.4c1.8-4.54 6.1-7.08 10.28-9.53l1.83-1.1c2.33-1.41 4.97-3.13 6.79-5.5a7.57 7.57 0 0 0 1.07-7.33 6.15 6.15 0 0 0-2.24-2.78Z" fill="#151921"/><path d="M101.8 84.78c-3.48-1.14-6.93-1.1-10.38-.63-.2.09-.39.16-.59.22-.14.12-.3.22-.47.27-.22.06-.44.14-.65.21-.1.18-.2.36-.34.53l-.18.2c4.08-.73 8.16-1.05 12.21.28.7.23 1.1-.85.4-1.08Z" fill="#151921"/><path d="M101.85 84.6c-3.35-1.1-6.7-1.1-10.02-.7-.3.22-.64.37-1 .47l-.1.06c3.65-.55 7.35-.68 11 .52.13.04.2.12.23.24a.44.44 0 0 1-.15.4.36.36 0 0 1-.37.07c-4-1.31-8.06-1.02-12.07-.32 0 0 0 .02-.02.03-.13.16-.27.3-.43.44 4.13-.76 8.31-1.13 12.4.21.2.07.4.05.58-.02a.84.84 0 0 0 .17-.12c.23-.2.33-.5.27-.77a.7.7 0 0 0-.49-.51Z" fill="#151921"/><path d="M102.1 85.19a.73.73 0 0 0-.63-.43c-2.35-.18-4.66.59-6.88 1.33l-.77.26c-2.31.76-4.63 1.61-6.88 2.43l-1.2.43c-2.52.92-5.21 1.9-7.96 2.72-1.46.44-2.69.78-3.96 1l-.18.03c-.38.07-.8.14-1.23.18l.93 1.41.43-.06c2.9-.45 5.73-1.45 8.48-2.41l.46-.16c1.55-.54 3.12-1.12 4.64-1.67 1.4-.52 2.8-1.04 4.21-1.53 1.93-.68 3.54-1.2 5.06-1.66 1.69-.5 3.2-.9 4.8-.79a.69.69 0 0 0 .64-.28.82.82 0 0 0 .04-.8ZM67.89 53.32c-.4-.33-.9-.5-1.41-.39-.5.12-.88.53-.98 1.03a4.62 4.62 0 0 0 .7 3c.28.73.64 1.46 1.25 1.94.44.34.97.58 1.5.31.45-.22.65-.66.71-1.12a6.51 6.51 0 0 0-.4-2.57 5.18 5.18 0 0 0-1.37-2.2ZM91.21 39.82c-.4-.32-.9-.5-1.41-.38-.5.11-.88.52-.98 1.03a4.62 4.62 0 0 0 .7 3c.28.73.64 1.46 1.26 1.94.43.33.96.57 1.5.3.44-.21.64-.65.7-1.11a6.52 6.52 0 0 0-.4-2.57 5.2 5.2 0 0 0-1.37-2.2ZM120.4 11.44c-3.17-2.93-6.7-5.55-10.75-7.15-1.51-.6-3.95-1.57-5.05.24-1.18 1.91.56 3.9 1.57 5.4a112.88 112.88 0 0 1 3.32 5.26c.33.56.79 1.15 1 1.76.4 1.14-.95 2.52-1.63 3.33a40.3 40.3 0 0 1-4.04 4.08l.76.27c.24.06.45.19.63.36l.1.04h.01a37.07 37.07 0 0 0 4.47-4.78c.47-.65 1.02-1.35 1.25-2.15.24-.87-.07-1.64-.5-2.4a90.85 90.85 0 0 0-3.45-5.6c-.58-.9-1.2-1.75-1.77-2.64-.56-.89-1.1-2.63.6-2.44 1.92.2 3.97 1.39 5.62 2.34a35.2 35.2 0 0 1 4.84 3.43 40.52 40.52 0 0 1 4.48 4.24c1.43 1.61 2.85 3.43 2.08 5.67-.71 2.1-2.32 4.05-3.68 5.76a45.24 45.24 0 0 1-5.01 5.32c-.72.66.35 1.73 1.07 1.07 1.81-1.65 3.5-3.42 5.01-5.32a29.65 29.65 0 0 0 3.62-5.34c.9-1.84 1.03-3.7 0-5.53-1.13-1.99-2.86-3.67-4.55-5.22ZM43.22 60.2c-1.3.54-2.65.91-4.03 1.15-1.05.17-2.93.65-3.71-.28-.42-.49-.7-1.19-1.01-1.75L33.4 57.4c-.63-1.2-1.24-2.38-1.82-3.58-.8-1.64-1.63-4.14-3.88-4.09-2.13.04-2.52 2.62-2.77 4.23-.67 4.3-.17 8.65.75 12.87.5 2.23 1.08 4.58 2.25 6.57 1.06 1.81 2.73 2.63 4.78 2.8 2.12.16 4.33-.12 6.44-.42 2.12-.3 4.2-.77 6.25-1.37a1.64 1.64 0 0 1-.2-.42c-.11-.33-.22-.67-.3-1.01a44.75 44.75 0 0 1-6.13 1.32c-2.16.31-4.67.7-6.85.27-2.32-.48-3.18-2.62-3.85-4.66a41.66 41.66 0 0 1-1.42-6 35.61 35.61 0 0 1-.52-5.9c0-1.9 0-4.27.8-6.02.7-1.57 1.94-.22 2.43.71.48.95.9 1.91 1.38 2.86.98 1.96 2 3.92 3.12 5.8.44.74.95 1.4 1.83 1.64.8.2 1.69.1 2.5.01 2-.2 3.91-.72 5.77-1.48.9-.38.14-1.7-.75-1.33ZM84.86 48.95a4.59 4.59 0 0 0-4.34-.44c-1.56.65-2.48 2.19-3.25 3.6-.2.36-.11.82.25 1.04.34.2.85.12 1.04-.24.61-1.12 1.28-2.4 2.48-2.98a3.05 3.05 0 0 1 3.02.3c.8.57 1.6-.73.8-1.28Z" fill="#151921"/><path d="M92.16 31.4c-1 .13-1.05 1.67-.04 1.55 6.95-.84 13.89 2.65 16.81 8.83a16.24 16.24 0 0 1 1.2 10.2c-.81 3.8-3.04 7.07-5.73 9.89A55.36 55.36 0 0 1 82.84 75.6c-7.26 2.5-15.5 3-21.99-1.23a14.2 14.2 0 0 1-6.31-14.9 17.17 17.17 0 0 1 2.24-5.84c.54-.85-.82-1.6-1.36-.75-1.26 2-2.07 4.32-2.45 6.56-.87 5 .48 10.22 4.15 13.93 5.74 5.8 14.67 6.7 22.52 4.78 8.97-2.19 17.46-7.29 24.17-13.55 3.05-2.86 5.83-6.17 7.22-10.1 1.27-3.55 1.31-7.48.24-11-2.42-8-10.6-13.13-19.11-12.1Z" fill="#151921"/><path d="M92.16 31.4c-7.62.92-14.19 5.21-19.58 10.45-.73.7.36 1.79 1.09 1.09 5.06-4.92 11.27-9.13 18.44-10 1-.12 1.06-1.67.05-1.55ZM62.94 33.72c-7.33 3.03-15.44 10.6-18.21 18.02-.16.43.27.91.71.93a21.01 21.01 0 0 0-1.51 4.6c-.6 2.66-.92 5.4-.9 8.13.03 2.7.41 5.4 1.2 8 .4 1.31.93 2.59 1.55 3.82.55 1.07 1.18 2.54 2.35 3.04.5.22 1.16-.08 1.12-.68l-.04-.53a19.3 19.3 0 0 0 11.26 8.78c.95.27 1.3-1.2.36-1.47A17.63 17.63 0 0 1 48.9 74.59c-.24-.8-1.54-.65-1.49.23l.18 2.71c-.32-.57-.57-1.2-.78-1.64-.53-1.12-.95-2.29-1.28-3.49-.68-2.39-.97-4.86-.97-7.33 0-2.5.3-5 .85-7.44.55-2.45 1.32-4.93 3.12-6.78.7-.7-.4-1.68-1.12-1.03l-.35.3c2.8-5.95 10.2-12.4 16.32-14.94.87-.38.45-1.84-.45-1.46Z" fill="#151921"/><path d="M90.3 84.08c-10.37 4.3-23.46 6.31-32.73-1.58-.74-.63-1.78.47-1.03 1.11 4.34 3.7 9.91 5.53 15.56 5.8 6.42.3 12.76-1.43 18.63-3.87.9-.38.48-1.84-.42-1.46ZM70.69 30.9c3.9-2.27 11.01-6.01 15.29-7.44 3.11-1.04 6.47-2.07 9.76-1.6l-.05.03c-.47.22-.43.9-.12 1.2 1.14 1.13 3.15.77 4.6.95a26.25 26.25 0 0 1 12.33 4.87c.14.1 1.06.67 1.03.83-.02.14-.78.11-.9.1-.85-.03-.9 1.04-.34 1.43a22.62 22.62 0 0 1 9.24 22.13c.5.5.91 1.06 1.22 1.69a24.2 24.2 0 0 0-8.37-24.1c.14-.1.27-.19.38-.32.55-.64.36-1.49-.2-2.05-1.49-1.49-3.62-2.63-5.5-3.53a27.8 27.8 0 0 0-9.19-2.6c-.6-.05-1.54.04-2.3-.09.17-.18.33-.37.49-.58.3-.43-.08-.98-.5-1.09-3.88-1.15-7.94-.05-11.67 1.17-4.53 1.48-11.9 5.32-16 7.72-.84.49-.05 1.77.8 1.28ZM68.85 51.53l-5.63 2.95c-.36.19-.6.55-.45.98.13.34.61.64.98.45l5.62-2.95c.37-.2.61-.55.46-.98-.13-.34-.62-.64-.98-.45Z" fill="#151921"/><path d="M93.05 35.02a8.28 8.28 0 0 0-4.6 1.25c-.34.21-.5.68-.28 1.03l.06.06c.16.34.48.47.86.43a13 13 0 0 0 4.33-1.36.76.76 0 0 0 .36-.84.79.79 0 0 0-.73-.57ZM65.32 28.1c-.45 0-.72.33-.77.74a11.34 11.34 0 0 1-2.5 5.88c-.25.31-.3.76.02 1.08.27.27.8.3 1.07-.01a12.9 12.9 0 0 0 2.93-6.94c.04-.4-.37-.76-.75-.76ZM68.94 26.26c-.36-.1-.87.13-.94.54a15.03 15.03 0 0 1-2.85 6.7c-.24.33-.04.85.28 1.03.4.23.8.05 1.04-.27a15.94 15.94 0 0 0 3-7.07c.07-.4-.1-.81-.53-.93ZM71.85 26.53a.78.78 0 0 0-.94.53c-.08.3-.18.6-.3.9l-.04.13-.02.03-.02.04a.4.4 0 0 0-.04.11c-.06.16-.14.3-.21.46a8.23 8.23 0 0 1-.73 1.22l-.13.18-.09.1v.03c-.13.16-.21.3-.22.52 0 .18.08.41.22.54.27.24.82.32 1.08-.01.9-1.16 1.58-2.45 1.97-3.86.1-.37-.14-.83-.53-.92Z" fill="#151921"/><path d="M82.45 3.94c-2.15.18-4.4 1.34-6.32 2.24a87.44 87.44 0 0 0-17.99 11.41c-1.51 1.32-2.87 2.86-3.43 4.82-.63 2.15-.4 4.5-.2 6.7.26 2.6 1.22 6.5 1.86 9.1l.18-.06a7.19 7.19 0 0 0 1.23-.54c-.93-3.81-2.15-9.06-1.93-12.86a7.5 7.5 0 0 1 2.18-4.97 35.68 35.68 0 0 1 4.62-3.82A91.12 91.12 0 0 1 73.52 9.2a57.58 57.58 0 0 1 5.88-2.8c.9-.34 1.86-.75 2.82-.9 1.23-.2 1.9.4 2.32 1.52a35.48 35.48 0 0 1 1.5 6.4c.4 2.36.74 5.74.81 8.13.02.97 1.54 1.04 1.52.06-.12-4.56-.85-10.26-2.25-14.62-.56-1.78-1.65-3.2-3.67-3.05Z" fill="#151921"/><path d="M65.57 8.5c-.52-.06-1 .13-1.45.37-.84.42-1.64.9-2.46 1.36a136.03 136.03 0 0 0-13.37 8.69c-1.16.85-2.45 1.71-3 3.1a6.43 6.43 0 0 0-.14 3.61c.32 1.63.81 3.26 1.32 4.84a90.25 90.25 0 0 0 5.14 12.37c.03-.07.08-.13.1-.2.17-.26.36-.52.56-.76.11-.12.25-.21.41-.27a90.59 90.59 0 0 1-4.79-11.64 38.04 38.04 0 0 1-1.31-4.94c-.13-.75-.2-1.57.06-2.31.27-.8.92-1.35 1.57-1.85 3.02-2.35 6.25-4.48 9.5-6.5 1.59-1 3.2-1.95 4.83-2.88l1.3-.74c.37-.2.83-.57 1.23-.66.77-.2 1.1.57 1.4 1.17.45.86 1.79.16 1.34-.72-.46-.91-1.13-1.92-2.24-2.04Z" fill="#151921"/><path d="M45.64 21.28c-2.49 1.18-4.62 3.34-6.34 5.46a8.7 8.7 0 0 0-2.06 6.77c.32 2.72 1.47 5.42 2.55 7.92a77.56 77.56 0 0 0 5.38 9.9c.54.82 1.88.11 1.34-.7a80.38 80.38 0 0 1-4.92-8.9 36.94 36.94 0 0 1-2.67-7.38 7.47 7.47 0 0 1 1.48-6.58c1.58-1.99 3.64-4.06 5.96-5.16.88-.41.17-1.75-.72-1.33Z" fill="#151921"/><path d="M46.99 18.84c-.35-.2-.75-.2-1.06-.01-2.82 1.73-3.5 2.83-3.71 3.35-.16.4 0 .88.37 1.1.3.2.74.18 1.1.13.57-.1 1.07-.44 1.52-.79a8.17 8.17 0 0 0 1.8-1.9c.2-.3.42-.6.45-.96a.96.96 0 0 0-.47-.92ZM122.57 52.42a.78.78 0 0 0-.57.07c-.16.1-.32.26-.36.46l-.32 2.05c-.04.2-.04.38.07.57.1.16.28.31.46.35.19.04.4.03.58-.07.15-.1.31-.26.35-.46l.33-2.05a.82.82 0 0 0-.08-.57.77.77 0 0 0-.46-.35Z" fill="#151921"/><path d="M76.54 89.34a.8.8 0 0 1-.11-1.6c.12 0 12.22-1.78 21.4-7.2 8.09-4.79 15.78-9.9 20.87-19.75 1.83-3.53 2.03-8.77 2.03-8.82.02-.45.4-.79.83-.78.45.02.8.38.78.83 0 .23-.21 5.64-2.21 9.5-5.3 10.22-13.52 15.67-21.5 20.39-9.45 5.6-21.48 7.35-21.98 7.43h-.1Z" fill="#151921"/><path d="M55.9 54.44a.78.78 0 0 1-.41-.1.8.8 0 0 1-.3-1.12 27.8 27.8 0 0 1 18.7-12.49.82.82 0 1 1 .26 1.62C62.27 44.36 56.66 53.93 56.6 54.03a.83.83 0 0 1-.7.41Z" fill="#717A8C"/><path d="m90.08 56.88-.02-.11v-.07l-.02-.02-.04-.14a.78.78 0 0 0-.2-.3l-.2-.15a.92.92 0 0 0-.48-.14l-.26.04c-.16.05-.3.13-.42.24-.14.12-.28.22-.4.34a.7.7 0 0 0-.2.31.71.71 0 0 0-.09.37l.03.2a18.75 18.75 0 0 1-1.34 2.98l-.19-.21c-.3-.4-.53-.85-.71-1.31-.28-.71-1.34-1.03-1.77-.23-.25.47-.43.96-.62 1.45-.13.35-.28.82-.6 1.06-.88.64-1.93-.6-2.43-1.17-.44-.51-1.15-.3-1.48.18l-.72-.68c-.88-.87-2.25.49-1.36 1.36 1.4 1.35 2.9 2.62 4.5 3.73a6.65 6.65 0 0 0 3.98 1.44c1.93.16 3.96-1.1 4.4-2.73.47-1.79.47-3.75.33-5.59l.14-.13c.09-.09.14-.2.18-.33.01-.13.02-.26-.01-.39Z" fill="#B34052"/><path d="m80.97 63.99.07.07c1.48 1.4 2.17 1.77 3.99 1.98 1.52.18 3.1-.87 3.92-2.43-2.58-1.4-5.4-.83-7.98.38Z" fill="#FFADD2"/><path d="M82.55 59.66a.84.84 0 0 0-.56-.56.8.8 0 0 0-.96.53.6.6 0 0 0-.25.23c-.07.15-.13.34-.06.5a3.29 3.29 0 0 0 .63 1c.27.3.82.24 1-.12.08-.14.14-.27.18-.42a2.6 2.6 0 0 0 .1-.73c-.03-.15-.03-.3-.08-.43ZM87.54 58.29a.9.9 0 0 0-.4-.62.79.79 0 0 0-.43-.12c-.15 0-.3.04-.43.12a.73.73 0 0 0-.24.25.64.64 0 0 0-.2.13.72.72 0 0 0-.19.45c0 .35.08.69.23 1l.08.16c.1.16.22.27.39.35.21.09.45.07.66-.04.12-.07.2-.16.28-.27.11-.13.2-.3.23-.47.04-.15.05-.31.05-.47.01-.16 0-.32-.03-.47Z" fill="#fff"/><path d="M76.58 57.34a.82.82 0 0 0-.55-.18c-.18.02-.41.1-.52.27a7.46 7.46 0 0 0-1.2 3.12c-.04.4.19.82.62.88.38.06.83-.18.88-.6a6.33 6.33 0 0 1 .93-2.53l-.06.1a.8.8 0 0 0 .17-.54.8.8 0 0 0-.27-.52Z" fill="#151921"/><path d="M89.61 54.65c-3.96 2.25-9.04 5-13.72 3.59-.94-.29-1.21 1.21-.28 1.49 5.07 1.53 10-1.1 14.3-3.55.83-.48.54-2.01-.3-1.53Z" fill="#151921"/><path d="M89.25 55.1c-.08 2.05 0 4.17-.36 6.2-.3 1.7-1.22 3.5-3.07 3.87-1.89.39-3.67-.65-5.1-1.75-1.65-1.27-3.13-2.75-4.6-4.21-.7-.7-1.67.47-.98 1.16 2.84 2.84 6.88 7.51 11.45 6.18 4.68-1.37 4.05-7.81 4.19-11.55.03-.99-1.5-.86-1.53.1Z" fill="#151921"/><path d="M83.32 58.31a.77.77 0 0 0-.89.6l-.42 1.74-.15.6-.12-.09c-.2-.16-.38-.33-.56-.51l-.14-.14-.04-.04-.24-.3c-.18-.21-.33-.44-.49-.67-.21-.34-.74-.43-1.06-.19a.78.78 0 0 0-.19 1.06A8.98 8.98 0 0 0 81 62.53c.32.25.64.45 1.05.47.48.03.9-.27 1.09-.72.14-.32.2-.7.28-1.03l.5-2.04a.78.78 0 0 0-.6-.9ZM87.7 56.24c-.39.05-.75.4-.7.81.03.26.04.53.04.79v.1-.05l-.02.2a5.71 5.71 0 0 1-.23 1.1l-.06.2-.13.28-.02-.05-.07-.15a6.69 6.69 0 0 1-.49-1.3c-.1-.39-.6-.61-.97-.46a.77.77 0 0 0-.46.96c.15.54.35 1.05.6 1.54.15.3.29.56.53.8.25.25.62.38.97.36.67-.04 1.13-.63 1.37-1.2a6.53 6.53 0 0 0 .48-3.23c-.06-.4-.42-.75-.84-.7ZM97.43 86.68c-.01-.93-1.46-.93-1.45 0l.07 10.71c0 .94 1.45.94 1.44 0l-.06-10.7Z" fill="#151921"/><path d="M97.67 97.6a.68.68 0 0 0-.26-.35l-.03-.1c-.2-.32-.65-.47-1-.26a4.5 4.5 0 0 0-2.05 2.91c-.06.34-.15.75-.04 1.09.2.61.88.83 1.42.5.29-.18.56-.44.81-.67.27-.24.5-.51.7-.8.46-.66.68-1.53.45-2.31ZM106.3 92.68c-.22-1.85-.2-3.74-.22-5.6l-.1-6.02c-.02-.93-1.47-.93-1.45 0l.1 6.3c.04 1.89.05 3.77.26 5.64a2.98 2.98 0 0 0-1.11 2.54c.05.67.73.9 1.23.51a5.15 5.15 0 0 0 1.75-2.54c.14-.42-.12-.73-.46-.83ZM127.81 106.25a317.45 317.45 0 0 0 10.32-23.91c.33-.87-1.07-1.25-1.4-.39a311.21 311.21 0 0 1-10.61 24.52c.55-.1 1.12-.17 1.7-.22Z" fill="#151921"/><path d="M137.42 82.12c-.1-.14-.25-.3-.43-.33a13.72 13.72 0 0 1-1.91-.42l-.15-.06-.32-.16c-.33-.19-.8-.1-1 .26a.74.74 0 0 0 .27 1c.84.47 1.78.63 2.72.78.2.03.38.03.56-.08.15-.09.3-.26.33-.43a.74.74 0 0 0-.07-.56ZM155.14 91.44c-.43.08-.84-.06-1.16-.34-.23-.2-.62-.29-.88-.1l-.08.06c-.1-.16-.23-.32-.4-.45a.73.73 0 0 0-1.21.54c-.02.32-3.3-.13-3.67-.18l-4.05-.41c-.39-.04-.71.38-.7.73 0 .44.35.67.74.7l5.4.56c.82.08 2.01.27 2.83-.07.15.4.68.63 1.05.36l.47-.34c.63.36 1.33.46 2.08.32.92-.18.5-1.56-.42-1.38ZM138.75 99.02c-.15-.36-.48-.61-.9-.5-.34.1-.65.52-.5.89a14.6 14.6 0 0 1 1.05 6.32c-.03.4.35.72.72.72.41 0 .7-.33.72-.72.14-2.29-.24-4.6-1.09-6.7Z" fill="#151921"/><path d="M167.49 88.77c-1.45-2.8-4.99-8.52-6.91-11.03-.83-1.08-1.66-2.3-2.73-3.17-.97-.8-2.18-.99-3.41-.8-1.47.23-2.86.86-4.22 1.43-1.4.59-2.79 1.22-4.15 1.89-2.93 1.44-5.78 3.04-8.63 4.63-.8.46-.08 1.7.74 1.25 2.5-1.4 5-2.81 7.56-4.1a49.02 49.02 0 0 1 7.9-3.44c1.38-.4 2.64-.46 3.69.63.94.98 1.77 2.1 2.57 3.19 1.68 2.28 5.03 7.73 6.32 10.25.44.83 1.68.1 1.27-.73ZM153.18 91.55a54.39 54.39 0 0 1-2.33-4.09c-.17-.33-.67-.46-.99-.26a.75.75 0 0 0-.26.99c.71 1.4 1.49 2.76 2.32 4.09.2.32.66.47 1 .26.32-.21.47-.65.26-1Z" fill="#151921"/><path d="M150.74 88.13a.75.75 0 0 0-.5-.22.8.8 0 0 0-.52.22c-1.03.81-2 1.74-2.85 2.75-.24.28-.3.74 0 1.02.27.25.77.31 1.03 0 .85-1 1.81-1.93 2.85-2.75.14-.1.21-.35.21-.5a.8.8 0 0 0-.22-.53Z" fill="#151921"/><path d="m178.04 102.78-.12-.24a14.5 14.5 0 0 0-4.08-4.53l-.2-.14a79 79 0 0 1-1.14 4.13l.04-.07-.05.15-.05.16c.18.19-.01.29-.04.12-.03.25 0 .51.1.75h-.34c-.34.98-.7 1.95-1.14 2.89h1.15c.88 0 1.78-.02 2.66-.12.65-.08 1.67-.58 2.29-.4 1.66.47 2.29-1.96.92-2.7Z" fill="#89A1AE"/><path d="M176.95 100.3c-1.05-.83-2.13-1.63-3.45-1.9a65.32 65.32 0 0 1-1.17 4.14l2.04-.05c.37 0 .6-.2.7-.48l.82-.1c.15-.02.3-.08.43-.17h.12c.65-.06 1.1-.96.51-1.43Z" fill="#89A1AE"/><path d="M176.94 100.52a26.9 26.9 0 0 0-3.05-2.4.74.74 0 0 0-.29-.09c-.13.53-.27 1.07-.42 1.6l.13.07.08.06.33.24a26.02 26.02 0 0 1 2.1 1.73c.33.3.89.29 1.18-.05a.85.85 0 0 0-.06-1.16Z" fill="#89A1AE"/><path d="M177.17 101.6a63.7 63.7 0 0 1-4.68.44c-.11.37-.23.75-.37 1.13 1.71-.1 3.42-.24 5.13-.47.7-.1.62-1.2-.08-1.1Z" fill="#151921"/><path d="M177.77 101.65a.64.64 0 0 0-.63-.24c-1.52.2-3.06.35-4.59.44l-.11.37c1.58-.1 3.17-.24 4.75-.45.13-.02.22.01.29.1.08.1.1.27.04.4-.03.1-.12.2-.3.23-1.67.22-3.35.37-5.03.46l-.12.38.33-.02a65.4 65.4 0 0 0 4.88-.46.7.7 0 0 0 .59-.45.8.8 0 0 0-.1-.76Z" fill="#151921"/><path d="M178.66 102.54c-.11-.68-1.21-.61-1.1.09l.4 2.33a70.2 70.2 0 0 1-6.68.42c-.16.37-.32.73-.5 1.1 2.63-.02 5.25-.18 7.86-.5.27-.03.56-.28.5-.59l-.48-2.85Z" fill="#151921"/><path d="M178.84 102.51a.75.75 0 0 0-.47-.58.8.8 0 0 0-.77.1.6.6 0 0 0-.2.62l.36 2.15c-2.14.23-4.27.36-6.4.4-.04.13-.09.24-.15.36 2.25-.03 4.51-.16 6.78-.41l.19-.03-.43-2.52c-.02-.12 0-.21.08-.27.1-.08.27-.1.41-.05.1.03.22.12.25.3l.48 2.86c.02.08 0 .14-.05.2a.46.46 0 0 1-.3.18c-2.56.31-5.15.47-7.74.48-.05.13-.11.24-.17.35a68.16 68.16 0 0 0 7.96-.48c.2-.02.42-.15.54-.31.1-.15.16-.32.13-.48l-.5-2.87Z" fill="#151921"/><path d="M178.37 101.87a7.07 7.07 0 0 0-1.8-2.5 5.4 5.4 0 0 0-2.5-1.47c-.17-.04-.34.03-.47.16-.06.18-.1.36-.14.54.05.18.2.33.4.37.76.18 1.4.65 2 1.22.6.59 1.17 1.27 1.48 2.04.1.28.42.44.7.34a.55.55 0 0 0 .33-.7Z" fill="#151921"/><path d="M178.54 101.8a7.14 7.14 0 0 0-1.85-2.56 5.48 5.48 0 0 0-2.58-1.51.75.75 0 0 0-.46.06l-.27 1.08c.1.14.26.24.44.28.61.14 1.2.5 1.9 1.17a5.7 5.7 0 0 1 1.45 1.98.73.73 0 0 0 .93.43c.18-.06.34-.2.42-.38a.65.65 0 0 0 .02-.54Zm-.35.4a.39.39 0 0 1-.22.2c-.19.08-.4-.04-.47-.22a5.86 5.86 0 0 0-1.53-2.1 4.4 4.4 0 0 0-2.07-1.27c-.2-.05-.34-.24-.3-.43a.37.37 0 0 1 .34-.3l.08.01c.82.19 1.61.65 2.4 1.42.9.86 1.46 1.63 1.77 2.43.05.08.04.18 0 .27Z" fill="#151921"/><path d="m173.2 90 .13.07-.12-.07Z" fill="#89A1AE"/><path d="M175.46 84.83c-.1 0-.18.02-.27.04-2.01.39-3.91 1.3-5.58 2.49-.84.6-1.64 1.25-2.39 1.94-.73.7-1.4 1.46-2.2 2.07-.89.65-1.97.96-2.76 1.74-.9.88-1.34 2.6-.17 3.47 1.16.87 2.52.08 3.52-.62a38.5 38.5 0 0 0 2.7-2.06c.93-.79 1.79-1.64 2.66-2.5.42-.38.83-.77 1.33-1.06.18-.1.35-.2.55-.26.1-.03.25-.05.36-.1a1.15 1.15 0 0 0 0 0h.01c.25-.13.28.09.12.06.23.12.48.16.74.13a74.28 74.28 0 0 1-1.8 5.13c-1.28 3.38-2.58 6.78-4.74 9.72-.46.63-.09 1.61.54 1.97.73.43 1.51.1 1.97-.53 2.17-2.96 3.5-6.39 4.8-9.8.67-1.75 1.34-3.5 1.9-5.3.26-.84.52-1.69.69-2.56.12-.64-.03-1.76.32-2.29.96-1.4-1.17-2.75-2.3-1.68Z" fill="#89A1AE"/><path d="M172.77 85.11c-1.3.85-2.56 1.77-3.13 3.26a28.33 28.33 0 0 0-1.3 4.7v.2c-.48.19-.95.55-1.33.78a45.7 45.7 0 0 0-3.21 2.1c-.26-.71-.53-1.42-.81-2.11v-.02l-.09-.2-.02-.05.18-1.08c.06-.36-.04-.73-.38-.93l-2.45-1.45c-.78-.47-1.56-1.06-2.4-1.4-.68-.3-1.28-.03-1.62.6-.42.8-.7 1.73-.98 2.59-.28.84-.51 1.7-.71 2.57-.17.73-.41 1.53 0 2.22.38.61 1.16.95 1.77 1.27.3.15.6.28.92.42a6.89 6.89 0 0 0-1.72 2.7c-.01.05-.04.1-.05.17-.13.35-.26.7-.36 1.05-.71.23-.9 1.4-.01 1.57 2.6.5 5.19.96 7.8 1.37 1.07.17 2.54.67 3.59.23.98-.4 1.5-1.64 1.99-2.5a44.5 44.5 0 0 0 3.23-7.06c.14-.39.31-.8.2-1.2.65-.85.84-2.06 1.14-3.06l1.08-3.6a.72.72 0 0 0-.25-.81l.16-.81c.02-.15 0-.3-.04-.46l.03-.1c.12-.68-.6-1.38-1.23-.96Z" fill="#89A1AE"/><path d="M155.61 99.06c-.08.42-.19.84-.29 1.26-.22.8-.54 1.57-.95 2.3-.86 0-1.17 1.37-.21 1.62 3.8.97 7.62 1.95 11.5 2.59 1.02.17 1.47-1.3.43-1.6-3.23-.89-6.48-1.66-9.76-2.34a32.24 32.24 0 0 0 .86-3.4c.19-1.02-1.37-1.48-1.58-.43ZM156.52 89.19l-2.08 6.96c-.3 1.01 1.3 1.45 1.6.43l2.08-6.96c.3-1.01-1.3-1.45-1.6-.43Z" fill="#89A1AE"/><path d="M155.99 89.16c-.1.48.15.82.57 1.01a33 33 0 0 1 4.72 2.5c.37.22.93.09 1.14-.3.21-.4.1-.88-.29-1.13a35.45 35.45 0 0 0-5.13-2.66c-.4-.17-.92.18-1.01.58ZM172.97 85.19c-1.13.63-2.2 1.36-3.22 2.16-.16.12-.25.4-.25.59 0 .2.1.43.24.57.16.15.37.25.6.25.22-.01.39-.1.57-.24l.18-.14.08-.07.32-.23a24.97 24.97 0 0 1 2.3-1.47c.38-.21.54-.75.31-1.12a.87.87 0 0 0-1.13-.3Z" fill="#89A1AE"/><path d="M169.46 87.91c-.19 1.34-.4 2.67-.62 4a.82.82 0 0 0-.23.25.82.82 0 0 0 .07.93.8.8 0 0 0 .6.72c.63.19 1.15.44 1.72.84.36.24.93.1 1.13-.29a.85.85 0 0 0-.28-1.13l-1.4-.91c.21-1.33.43-2.66.6-3.99.06-.43-.1-.9-.57-1.02-.4-.06-.95.15-1.02.6ZM153.9 96.5c-.1.45.14.85.58 1l2.94 1.02c.4.13.92-.17 1.02-.58.1-.46-.14-.86-.58-1.01l-2.94-1.01c-.42-.15-.93.16-1.02.57Z" fill="#89A1AE"/><path d="m161.32 96.39-.56-.04a.7.7 0 0 0-.39.1 8.79 8.79 0 0 1-5.05-1.42c-.37-.25-.9-.08-1.13.28-.24.4-.08.89.29 1.13 2 1.31 4.46 1.9 6.84 1.6.44-.07.82-.35.82-.83 0-.46-.38-.8-.82-.82Z" fill="#89A1AE"/><path d="M161.3 92.7c-.27.32-.47.68-.56 1.1-.08.3-.11.62-.17.92a5.5 5.5 0 0 1-.12.5l-.07.18-.01.04-.04.07a4.1 4.1 0 0 1-.23.41l-.15.22-.03.04-.05.06c-.28.33-.36.84 0 1.16.3.28.87.36 1.16.01a5.1 5.1 0 0 0 1.08-2c.08-.3.11-.62.17-.93.02-.15.06-.3.1-.44l.03-.05c0-.01 0-.02.02-.03.02-.04.18-.25.05-.09.28-.32.36-.84 0-1.16-.3-.29-.88-.37-1.18-.02Z" fill="#89A1AE"/><path d="M153.77 96.8c-.13.23-.06.63.21.74.94.41 1.89.79 2.83 1.16a22.93 22.93 0 0 1 2.23-.33 68.92 68.92 0 0 1-4.52-1.79c-.27-.12-.6-.06-.75.22Z" fill="#151921"/><path d="m159.76 98.5-.68.06c-.83.07-1.57.18-2.24.3l-.05.02-.05-.02c-1.09-.42-1.98-.79-2.83-1.16a.64.64 0 0 1-.34-.39.77.77 0 0 1 .05-.6c.18-.34.6-.46.97-.3 1.49.65 3 1.25 4.51 1.79l.05.02.6.28Zm-2.93 0c.45-.08.92-.16 1.43-.22a73.1 73.1 0 0 1-3.82-1.54c-.18-.07-.4-.07-.51.14a.39.39 0 0 0-.02.32c.02.05.06.14.15.18.82.36 1.7.72 2.77 1.13Z" fill="#151921"/><path d="m155.49 98.38-1.01 2.7c-.3.8-.56 1.65-1.1 2.32-.18.24-.2.56.02.78.2.19.6.22.78-.02.62-.78.95-1.7 1.3-2.62.35-.97.71-1.94 1.08-2.9.11-.28-.14-.6-.4-.66-.33-.08-.57.13-.67.4Z" fill="#151921"/><path d="m156.74 98.65-.01.05-1.14 3.02c-.33.88-.66 1.78-1.27 2.56a.63.63 0 0 1-.46.24.77.77 0 0 1-.58-.2c-.28-.27-.29-.69-.03-1.01.43-.56.69-1.26.93-1.93l1.14-3.04c.15-.4.5-.61.88-.52.2.05.39.2.49.4.07.12.1.28.05.43Zm-3.3 5.06a.33.33 0 0 0 .08.34c.08.07.2.1.3.1.06 0 .16-.03.21-.1.57-.73.89-1.57 1.22-2.46l1.13-3.02a.3.3 0 0 0-.02-.21.46.46 0 0 0-.26-.21c-.28-.08-.42.2-.45.3l-1.14 3.04c-.25.7-.52 1.42-.99 2.02a.6.6 0 0 0-.09.2Z" fill="#151921"/><path d="M161.84 97.16a20 20 0 0 1-5.38.9c-.7.03-.67 1.13.04 1.1 1.92-.05 3.82-.37 5.66-.95.67-.21.36-1.27-.32-1.05Z" fill="#151921"/><path d="M162.69 97.9a.7.7 0 0 1-.48.48c-1.84.59-3.77.9-5.7.96-.27.01-.5-.1-.63-.32a.77.77 0 0 1-.02-.77.68.68 0 0 1 .6-.37c1.8-.05 3.6-.36 5.33-.9.24-.08.49-.02.68.14.2.2.28.48.23.75l-.01.02Zm-6.55.6a.4.4 0 0 0 .05.33c.04.08.13.16.3.15 1.91-.06 3.8-.37 5.62-.94a.32.32 0 0 0 .24-.25.43.43 0 0 0-.12-.4c-.1-.08-.2-.1-.33-.05-1.77.55-3.59.86-5.43.91-.17.01-.25.1-.28.17a.15.15 0 0 0-.05.08ZM174.06 85.3a61.84 61.84 0 0 1-7.94 21.1c.06 0 .1 0 .17.02a.8.8 0 0 1 .38.15l.54.15c3.9-6.5 6.59-13.7 7.92-21.16.13-.7-.94-.96-1.07-.26Z" fill="#151921"/><path d="M174.27 90.36a62.8 62.8 0 0 1-6.9 16.44l-.07.12-.74-.22a.74.74 0 0 0-.3-.12l-.43-.06.14-.23a61.51 61.51 0 0 0 7.91-21.03.62.62 0 0 1 .42-.52.8.8 0 0 1 .76.15c.21.17.3.43.25.69a60.68 60.68 0 0 1-1.04 4.78Zm-7.14 16.14a62.26 62.26 0 0 0 7.83-20.98.35.35 0 0 0-.13-.35.42.42 0 0 0-.4-.08c-.1.03-.16.11-.19.23a61.97 61.97 0 0 1-7.81 20.93c.11.02.22.07.32.14l.38.1Z" fill="#151921"/><path d="M175.43 84.17c-.7-.1-.97.97-.26 1.06l2.35.35a67.18 67.18 0 0 1-6.4 18.02c-.5.95-1 1.94-1.59 2.84-.3.46-.8.16-1.29.05l-1.87-.38c-.7-.14-.96.93-.26 1.07l1.88.38c.5.1 1.1.32 1.62.22.36-.06.56-.3.76-.6.33-.5.61-1.04.9-1.57a68.95 68.95 0 0 0 7.44-20.37c.06-.28-.09-.62-.4-.67-.96-.12-1.92-.26-2.88-.4Z" fill="#151921"/><path d="M177.94 89.47a69.2 69.2 0 0 1-6.51 16.23l-.2.36c-.23.4-.46.83-.72 1.23-.18.28-.42.6-.87.67-.44.09-.9-.04-1.3-.13a9.1 9.1 0 0 0-.4-.1l-1.87-.37c-.44-.1-.6-.48-.53-.83.07-.37.4-.69.87-.59l1.87.38c.12.02.24.06.35.1.42.12.61.15.76-.07.49-.74.91-1.55 1.32-2.34l.26-.48a67.07 67.07 0 0 0 6.36-17.78l-2.17-.32a.62.62 0 0 1-.51-.38.77.77 0 0 1 .13-.77.74.74 0 0 1 .7-.27l2.88.41c.17.03.32.13.42.27.13.17.18.4.14.6-.3 1.4-.62 2.8-.98 4.18Zm-12.05 17.1v.03c-.01.05-.06.34.25.4l1.87.38c.13.02.26.05.4.1.4.1.8.2 1.15.13.29-.05.45-.23.63-.51.26-.4.49-.81.72-1.22l.2-.36a68.4 68.4 0 0 0 7.42-20.31c.03-.1 0-.24-.07-.33-.05-.06-.11-.1-.18-.11l-2.89-.42a.38.38 0 0 0-.36.14.46.46 0 0 0-.08.4c.03.1.12.15.24.16l2.54.37-.04.2a67.7 67.7 0 0 1-6.42 18.06l-.25.48c-.42.8-.85 1.63-1.35 2.38-.31.47-.78.33-1.16.21l-.32-.08-1.87-.38c-.23-.05-.38.1-.43.28Z" fill="#151921"/><path d="M167.9 92.57a34.32 34.32 0 0 0-4.35 3.87c.15.05.28.13.39.24.12.12.23.26.33.4l.05.1c1.21-1.26 2.5-2.43 3.9-3.48 1.09.62 2.09 1.38 2.97 2.29.5.5 1.25-.3.76-.8a14.32 14.32 0 0 0-3.51-2.63c-.15-.09-.39-.1-.54.01Z" fill="#151921"/><path d="M172.28 95.74a.8.8 0 0 1-.21.37c-.26.24-.68.33-1 0a13.56 13.56 0 0 0-2.83-2.2c-1.32 1.01-2.59 2.15-3.78 3.4l-.16.17-.15-.25-.02-.05c-.1-.15-.2-.27-.32-.38a.68.68 0 0 0-.3-.18l-.3-.09.19-.22a33.85 33.85 0 0 1 4.39-3.89c.23-.17.55-.13.75-.02 1.31.7 2.5 1.6 3.55 2.66.2.21.25.46.2.68Zm-7.92 1.15a32.51 32.51 0 0 1 3.75-3.34l.1-.07.1.06c1.13.64 2.14 1.41 3.02 2.3.22.24.44.04.48 0 .13-.13.2-.35.03-.53a14.19 14.19 0 0 0-3.48-2.6c-.1-.06-.26-.07-.36 0a33.65 33.65 0 0 0-4.16 3.66c.08.05.16.1.23.18.1.1.2.22.29.34ZM174.7 84.24a7.21 7.21 0 0 0-2.94.94 5.37 5.37 0 0 0-2.16 1.91c-.15.26-.05.6.2.75.28.15.6.04.76-.21a4.34 4.34 0 0 1 1.77-1.52c.75-.4 1.56-.74 2.4-.79.3-.01.55-.26.54-.56a.57.57 0 0 0-.58-.52Z" fill="#151921"/><path d="M175.43 84.96a.75.75 0 0 1-.69.55c-.68.04-1.42.28-2.32.76-.85.46-1.38.9-1.7 1.45a.73.73 0 0 1-1.35-.18.72.72 0 0 1 .07-.54 5.48 5.48 0 0 1 2.22-1.98 7.16 7.16 0 0 1 3.02-.96c.19-.01.37.05.52.18a.7.7 0 0 1 .23.52c.02.07.01.14 0 .2Zm-5.71 2.31a.32.32 0 0 0 0 .18c.02.1.09.2.17.23.17.1.4.04.5-.14.36-.61.93-1.1 1.84-1.58.95-.51 1.74-.77 2.48-.8.2-.02.37-.19.36-.38a.38.38 0 0 0-.38-.36c-.86.04-1.77.34-2.86.92a5.13 5.13 0 0 0-2.09 1.85l-.02.08ZM156.02 87.91c-.39.6-.59 1.3-.76 2-.2.77-.38 1.55-.56 2.33l-1.11 4.6c-.16.7.9.95 1.07.26l1.06-4.44.53-2.17c.12-.53.25-1.05.47-1.54l6.1 3.8c.12.07.23.07.33.07a1.13 1.13 0 0 1-.5-.65l-.04-.3c-.01-.17.03-.32.1-.48l-5.94-3.68c-.27-.17-.6-.04-.75.2Z" fill="#151921"/><path d="m163.64 92.93-.47.06a.63.63 0 0 1-.45-.1l-5.92-3.68c-.16.4-.25.82-.36 1.26l-.53 2.23-1.07 4.43c-.1.46-.53.6-.88.53-.35-.09-.66-.41-.55-.86l1.28-5.34c.13-.53.25-1.08.39-1.6.2-.8.4-1.45.78-2.05.2-.3.64-.5 1-.27l6.07 3.77-.06.14a.94.94 0 0 0-.08.4l.05.28a.98.98 0 0 0 .42.53l.38.27Zm-7.44-3c.1-.36.2-.7.35-1.04l.08-.2 5.9 3.67-.06-.14-.05-.32c-.01-.16.01-.29.06-.44l-5.82-3.61c-.17-.11-.4 0-.5.15a6.13 6.13 0 0 0-.74 1.93l-.38 1.6-1.29 5.35c-.06.27.15.4.28.42.17.04.37.01.45-.25l1.6-6.67c.05-.14.08-.3.12-.45Z" fill="#151921"/><path d="M162.99 92.8a.52.52 0 0 0-.52.26 7.75 7.75 0 0 0-.26 7.45c.3.6.68 1.23 1.28 1.57.58.33 1.37.28 1.83-.23.44-.5.49-1.28.43-1.91a6.76 6.76 0 0 0-.57-2.07c-.6-1.39-1.62-2.88-1.34-4.46.09-.54-.51-.8-.85-.6Zm1.64 7.1c.04.3.15 1.26-.33 1.3-.52.03-.9-.78-1.1-1.15a6.57 6.57 0 0 1-.39-5.09c.13.58.33 1.13.58 1.68.47 1.04 1.12 2.1 1.25 3.26Z" fill="#151921"/><path d="M165.85 101.17c-.07.28-.2.56-.4.8-.5.55-1.36.66-2.05.26a3.69 3.69 0 0 1-1.35-1.64 7.9 7.9 0 0 1 .26-7.62.7.7 0 0 1 .64-.34c.23-.1.53-.08.76.08.23.16.35.44.3.74-.21 1.18.35 2.33.9 3.44.14.3.3.61.42.91.35.79.53 1.47.6 2.12.03.36.03.82-.08 1.25Zm-4.06-6.06a7.59 7.59 0 0 0 .58 5.32c.29.56.65 1.17 1.2 1.5.48.26 1.18.28 1.6-.2.42-.47.44-1.23.4-1.78a6.48 6.48 0 0 0-.57-2.02l-.42-.9c-.57-1.16-1.16-2.36-.93-3.66a.38.38 0 0 0-.16-.37c-.13-.1-.3-.11-.42-.04l-.04.03-.06-.01c-.1 0-.25 0-.35.17a7.24 7.24 0 0 0-.83 1.96Zm3.01 5.78a.7.7 0 0 1-.15.3c-.09.1-.2.17-.34.18-.6.04-.99-.7-1.22-1.15l-.05-.1a6.67 6.67 0 0 1-.4-5.22l.21-.64.14.65c.11.5.29 1.03.57 1.64.1.25.23.5.34.74.4.82.82 1.66.92 2.58.03.34.05.72-.02 1.02Zm-1.99-5.25a6.3 6.3 0 0 0 .55 4.32l.05.1c.18.34.51.98.87.95.04 0 .07-.01.1-.05.07-.09.15-.35.08-1.04a7.6 7.6 0 0 0-.88-2.47l-.36-.74c-.16-.38-.3-.73-.4-1.07Z" fill="#151921"/><path d="M166.16 89.41a31.92 31.92 0 0 0-1.36 6.5l.26-.37c.24-.32.49-.62.77-.89l.25-.19c.25-1.62.64-3.22 1.15-4.8.22-.67-.85-.92-1.07-.25Z" fill="#151921"/><path d="m166.25 94.58-.08.04a.92.92 0 0 0-.21.15 7.28 7.28 0 0 0-.89 1.07l-.12.17-.4.53.08-.66c.24-2.28.7-4.48 1.37-6.54.15-.46.61-.58.98-.47.37.12.55.47.44.84a30 30 0 0 0-1.14 4.77l-.03.1Zm-1.2.66c.23-.3.44-.52.65-.73.07-.06.13-.11.22-.16.25-1.6.64-3.2 1.14-4.74.09-.28-.14-.37-.2-.4-.16-.05-.43-.02-.53.25a32.06 32.06 0 0 0-1.28 5.78ZM169.32 86.94A48.8 48.8 0 0 0 168 90.6c-.37 1.2-.6 2.46-1.02 3.65-.1.28.14.6.4.66.32.08.57-.12.67-.4.4-1.14.63-2.35.98-3.51.36-1.2.78-2.38 1.25-3.53.11-.28.06-.59-.22-.75-.23-.13-.64-.05-.74.22Z" fill="#151921"/><path d="m170.5 87.41-.05.13a40.85 40.85 0 0 0-1.24 3.5c-.15.5-.27 1-.4 1.47-.17.68-.34 1.38-.58 2.05-.14.4-.5.61-.88.52a.78.78 0 0 1-.48-.38.63.63 0 0 1-.05-.52c.24-.67.42-1.38.6-2.07.12-.51.25-1.05.42-1.57.37-1.19.8-2.42 1.31-3.68a.6.6 0 0 1 .39-.34c.2-.07.44-.06.62.04.29.18.42.5.33.85Zm-1.88 4.4a43.08 43.08 0 0 1 1.49-4.4c.07-.19.07-.4-.15-.53a.4.4 0 0 0-.31-.02c-.06.02-.14.06-.17.14-.5 1.25-.94 2.48-1.3 3.66-.16.5-.3 1.03-.42 1.55-.18.69-.36 1.42-.6 2.1-.04.1 0 .17.02.23.06.1.16.18.26.2.22.06.38-.1.45-.29.23-.65.4-1.35.57-2.02l.16-.62Z" fill="#151921"/><path d="M169.4 86.84c-1.28 1.02-3.42 2.65-5.09 4.09-.01.18-.06.36-.14.52a7.17 7.17 0 0 1-1.44 1.78c.2.18.5.23.73-.01 1.57-1.63 4.95-4.19 6.72-5.6.23-.2.2-.58 0-.78-.22-.22-.54-.19-.78 0Z" fill="#151921"/><path d="M170.5 87.44a.62.62 0 0 1-.22.32l-1.19.95a64.66 64.66 0 0 0-5.5 4.64c-.33.33-.74.24-.98.02l-.16-.14.17-.14a6.53 6.53 0 0 0 1.39-1.73c.07-.13.12-.29.12-.44l.01-.08.06-.05c1.23-1.06 2.73-2.22 3.93-3.16l1.16-.93c.33-.26.75-.25 1.02.02a.76.76 0 0 1 .18.72Zm-7.46 5.75c.08.02.18 0 .28-.1a65.21 65.21 0 0 1 5.55-4.68l1.2-.93c.07-.06.08-.16.1-.2a.4.4 0 0 0-.11-.31c-.18-.17-.4-.1-.54 0l-1.17.93c-1.18.93-2.64 2.08-3.85 3.12-.03.18-.09.36-.17.51a6.95 6.95 0 0 1-1.29 1.66ZM153.66 103.65c-.69-.15-.98.9-.28 1.06 4.17.9 8.37 1.66 12.6 2.3.68.1.99-.95.28-1.06a209.4 209.4 0 0 1-12.6-2.3Z" fill="#151921"/><path d="M166.81 106.6a.85.85 0 0 1-.16.3.74.74 0 0 1-.7.29c-4.22-.64-8.46-1.41-12.61-2.3a.68.68 0 0 1-.51-.44.8.8 0 0 1 .17-.75c.18-.2.43-.28.7-.22 4.15.89 8.39 1.67 12.58 2.3.24.04.43.17.5.38.06.13.07.28.03.44Zm-13.64-2.48a.48.48 0 0 0 0 .22c.03.1.12.16.24.2 4.15.89 8.38 1.66 12.58 2.3a.4.4 0 0 0 .38-.15.4.4 0 0 0 .08-.4c-.03-.09-.1-.14-.22-.16-4.2-.63-8.44-1.4-12.6-2.3a.36.36 0 0 0-.36.1.44.44 0 0 0-.1.2ZM162.85 85.75c-.35-.45-.8-.95-1.34-1.16-.61-.24-1.3-.03-1.53.64-.2.6-.04 1.41.04 2.02.09.65.25 1.3.44 1.92a29.68 29.68 0 0 0 1.82 4.24c.16.32.47.41.74.35.33.09.72-.03.85-.45.8-2.56.67-5.39-1.02-7.56Zm-.86 3.41a12.25 12.25 0 0 1-.62-2.9 5.5 5.5 0 0 1 1.31 2.3c.25.9.29 1.8.17 2.7-.32-.69-.61-1.37-.86-2.1ZM75.25 96.2a96.22 96.22 0 0 0-5.04-7.87c-.23-.32-.63-.47-1-.26-.3.18-.48.67-.25.99A96.24 96.24 0 0 1 74 96.93c.47.8 1.72.08 1.25-.73ZM121.43 107.84c.42-.37.92-.61 1.45-.74a23.86 23.86 0 0 0-14.88.74c-.87.34-.42 1.71.46 1.37a22.5 22.5 0 0 1 12.77-1.04c.04-.12.1-.25.2-.33Z" fill="#151921"/><path d="M145 108.84c-2.3-3.18-6.46-3.81-10.14-3.95a33.4 33.4 0 0 0-13.65 2.38c-.85.34-.48 1.74.39 1.39a32.36 32.36 0 0 1 12.27-2.35c3.34.02 7.73.31 9.88 3.26.55.74 1.8.02 1.26-.73Z" fill="#151921"/><path d="M156.6 105.67a15.06 15.06 0 0 0-16.63.82c.17.04.34.1.52.16l.46.15.1-.02c.21.01.35.05.54.14l.15.09a13.63 13.63 0 0 1 14.14-.09c.79.49 1.52-.77.72-1.25Z" fill="#151921"/><path d="M191.99 40.18c-.3-.43-.8-.7-1.38-.75-2.36-.25-4.84.32-6.83 1.59a8.92 8.92 0 0 0-3.39 3.65c-1.49 1.16-2.96 2.5-3.4 4.42a6.84 6.84 0 0 0 1.29 5.53 9.27 9.27 0 0 0 5.37 3.45c.18.35.5.63 1 .7 1.72.3 3.47.28 5.16-.08h.17c.35 0 .66-.1.9-.29a10.43 10.43 0 0 0 7.3-8.07A9 9 0 0 0 192 40.19Z" fill="#FFBF24"/><path d="M197.37 45.2c-1.07-3.1-3.57-5.65-6.88-6.21a7.96 7.96 0 0 0-5.35.9.72.72 0 0 0-.38.78c-.14.05-.28.11-.43.19-.58.2-1.12.45-1.63.74-.92.52-.09 1.93.83 1.42l.45-.23c.13 0 .27-.03.42-.1.2-.12.4-.23.6-.32a9.86 9.86 0 0 1 6.06-.21 7.32 7.32 0 0 1 3.34 2.68c.93 1.75.57 4.14-.02 5.95a9.98 9.98 0 0 1-3.34 4.76c-.61.47-.06 1.36.58 1.4.97.04 1.81-.62 2.52-1.22a9.1 9.1 0 0 0 1.8-2.1l.25-.43c2.1-1.96 2.07-5.45 1.18-8Z" fill="#FCFA9C"/><path d="M192.4 40.77c-.33-.3-.85-.32-1.17 0a37.55 37.55 0 0 0-2.93 3.43c-.12.16-.13.46-.08.64s.2.39.38.49c.19.1.42.14.63.08.21-.08.35-.2.5-.38l.16-.22c0-.02.1-.12.03-.04l.03-.04.33-.41a36.7 36.7 0 0 1 2.12-2.4c.29-.3.32-.84 0-1.15ZM192.7 43.93c-.28-.29-.88-.36-1.15 0-1.43 1.8-2.81 3.66-4.13 5.56-.25.36-.06.9.3 1.12.41.24.87.07 1.13-.3a108.3 108.3 0 0 1 3.85-5.22c.28-.35.34-.82 0-1.16ZM194.24 46.83a.83.83 0 0 0-.38-.49.85.85 0 0 0-.63-.08l-.2.08a.85.85 0 0 0-.3.3l-.76 1.15a.66.66 0 0 0-.1.3c-.02.11-.01.23.02.33.05.19.2.4.38.5.19.1.42.14.63.07l.2-.08a.84.84 0 0 0 .3-.3l.76-1.15c.06-.09.09-.2.1-.3a.63.63 0 0 0-.02-.33Z" fill="#fff"/><path d="M189.1 58.01a9.93 9.93 0 0 1-9.7-8.56c-.38-2.63.25-5.26 1.8-7.4a9.53 9.53 0 0 1 13.62-1.99 10.05 10.05 0 0 1 3.83 6.56c.39 2.63-.24 5.26-1.77 7.39a9.57 9.57 0 0 1-7.77 4Zm-.13-18.32a7.87 7.87 0 0 0-6.45 3.32 8.43 8.43 0 0 0-1.49 6.19 8.23 8.23 0 0 0 9.22 7.08 7.9 7.9 0 0 0 5.29-3.24 8.39 8.39 0 0 0 1.48-6.2 8.48 8.48 0 0 0-3.2-5.5 8 8 0 0 0-4.85-1.65Z" fill="#151921"/><path d="M191.74 52.37c-.2-.44-.67-.57-1.09-.42-1.1.37-2.35.6-3.46.21a4.36 4.36 0 0 1-2.53-2.36 5.3 5.3 0 0 1 .03-3.6c.44-.99 1.44-1.83 2.42-2.3.95-.45.3-1.96-.66-1.5a6.81 6.81 0 0 0-3.29 3.19 6.88 6.88 0 0 0 0 4.86 5.98 5.98 0 0 0 3.41 3.23c1.56.55 3.21.28 4.75-.24.42-.13.59-.7.42-1.07ZM194.6 50.06a.8.8 0 0 0-.6-.16c-.2.04-.43.14-.54.32-.08.14-.19.27-.3.4-.13.12-.27.23-.41.33l-.16.08a.83.83 0 0 0-.43.45.8.8 0 0 0 .45 1.06c.2.07.44.08.64 0 .32-.15.61-.34.87-.56.25-.23.49-.49.66-.78a.6.6 0 0 0 .13-.29.7.7 0 0 0 .03-.32.93.93 0 0 0-.33-.53Z" fill="#151921"/><path d="M196.25 54c-.43.27-.92.46-1.43.56a.74.74 0 0 0-.07.08c-.31.32-.67.6-1.02.86-.17.14-.36.23-.55.34-.75.84-1.6 1.55-3.15 2.37-2.84 1.51-7.24-.03-9.48-2.06a8.58 8.58 0 0 1-2.46-4.01c-.45-1.56-.75-3.5.12-4.96a16.93 16.93 0 0 1 4.12-4.54 5.06 5.06 0 0 1 2.22-3.13c.16-.1.32-.17.5-.23a.78.78 0 0 0-.69.04 21.66 21.66 0 0 0-6.61 5.68c-.93 1.2-1.64 2.36-1.7 3.91-.07 1.44.18 2.93.66 4.29a10.25 10.25 0 0 0 5.4 5.9c2.59 1.2 5.94 1.96 8.6.6 3.16-1.6 3.7-2.85 5.9-5.53.14-.19.2-.39.18-.58-.17.14-.34.28-.54.4Z" fill="#151921"/><path d="M180.35 49.2a.85.85 0 0 0-.58-.25.9.9 0 0 0-.58.24L177.07 51a.8.8 0 0 0-.24.58c0 .2.1.44.24.58.16.14.36.25.58.24a.9.9 0 0 0 .59-.24l2.11-1.8a.8.8 0 0 0 .24-.59c0-.2-.09-.44-.24-.58ZM182.04 53.33a.84.84 0 0 0-.49-.37.81.81 0 0 0-.63.08c-.8.52-1.56 1.13-2.23 1.82-.3.3-.33.86 0 1.15.32.3.83.33 1.15 0a12.2 12.2 0 0 1 1.9-1.55.84.84 0 0 0 .39-.5.81.81 0 0 0-.09-.63ZM186.39 56.23a.83.83 0 0 0-.38-.49.85.85 0 0 0-.63-.08l-.2.08a.85.85 0 0 0-.3.3l-1.47 1.92c-.13.16-.13.45-.08.63.04.19.2.4.37.5.2.09.42.14.64.07l.2-.08a.85.85 0 0 0 .29-.3c.5-.63.98-1.27 1.48-1.92.12-.15.14-.45.08-.63Z" fill="#151921"/><path d="M214.01 68.21a1.6 1.6 0 0 0-1.19-.65 9.37 9.37 0 0 0-5.92 1.37 7.82 7.82 0 0 0-2.94 3.17c-1.3 1-2.58 2.17-2.95 3.83a5.95 5.95 0 0 0 1.1 4.8 8.09 8.09 0 0 0 4.67 3c.16.3.44.55.87.62 1.5.25 3.01.24 4.48-.08h.14c.32 0 .58-.1.8-.25a9.05 9.05 0 0 0 6.33-7 7.8 7.8 0 0 0-5.39-8.8Z" fill="#FFBF24"/><path d="M218.69 72.56c-.93-2.68-3.1-4.9-5.97-5.38a6.86 6.86 0 0 0-4.65.79.63.63 0 0 0-.33.68l-.38.16c-.49.18-.97.4-1.41.65-.8.45-.08 1.67.72 1.22l.4-.2c.11 0 .24-.02.36-.1.16-.1.33-.19.5-.27a8.58 8.58 0 0 1 5.27-.19 6.3 6.3 0 0 1 2.9 2.33c.8 1.52.5 3.6-.02 5.17a8.65 8.65 0 0 1-2.9 4.12c-.52.41-.04 1.19.5 1.21.85.04 1.58-.53 2.2-1.05a7.8 7.8 0 0 0 1.76-2.2c1.85-1.7 1.81-4.72 1.05-6.94Z" fill="#FCFA9C"/><path d="M214.81 69.9c-.25-.24-.77-.3-1 0a97.35 97.35 0 0 0-3.58 4.83c-.22.32-.06.79.25.97.36.2.76.07.98-.25a86.49 86.49 0 0 1 3.35-4.54c.24-.3.3-.7 0-1Z" fill="#fff"/><path d="M210.83 75.9a.8.8 0 0 1-.4-.1.86.86 0 0 1-.39-.55c-.05-.2 0-.41.1-.58a95.6 95.6 0 0 1 3.58-4.83c.11-.15.3-.23.5-.24.24-.03.5.07.66.23.35.36.25.83 0 1.14a91.37 91.37 0 0 0-3.34 4.53.85.85 0 0 1-.71.4Zm3.44-6.1h-.04a.48.48 0 0 0-.35.16 94.98 94.98 0 0 0-3.58 4.82.53.53 0 0 0-.06.4c.04.18.14.34.28.43.32.18.67.02.84-.23 1.1-1.58 2.23-3.1 3.36-4.54.18-.23.29-.59 0-.87a.66.66 0 0 0-.45-.17ZM215.44 73.58a.74.74 0 0 0-.32-.42.72.72 0 0 0-.56-.08l-.17.08a.74.74 0 0 0-.25.25l-.67 1a.52.52 0 0 0-.08.27.5.5 0 0 0 .02.29.72.72 0 0 0 .88.5l.17-.08c.1-.06.19-.14.25-.25l.67-1a.52.52 0 0 0 .08-.27c.02-.1.02-.2-.02-.29Z" fill="#fff"/><path d="M214.1 75.59a1 1 0 0 1-.41-.1.83.83 0 0 1-.38-.5.67.67 0 0 1-.02-.33c0-.1.04-.2.1-.3l.67-1a.8.8 0 0 1 .28-.3l.18-.07c.2-.07.43-.04.64.07.18.09.33.29.38.48.03.1.04.22.02.34 0 .1-.04.2-.1.3l-.67 1a.8.8 0 0 1-.28.29l-.18.08a.53.53 0 0 1-.23.04Zm.65-2.43c-.05 0-.1 0-.15.02l-.17.07a.56.56 0 0 0-.2.21l-.67 1a.4.4 0 0 0-.06.22.49.49 0 0 0 0 .25c.05.14.16.3.28.36.1.05.28.13.47.07l.17-.07a.57.57 0 0 0 .2-.2l.67-1.02a.4.4 0 0 0 .06-.2.48.48 0 0 0 0-.25.62.62 0 0 0-.28-.36.65.65 0 0 0-.32-.1Z" fill="#fff"/><path d="M211.5 83.8a8.4 8.4 0 0 1-5.13-1.77 8.85 8.85 0 0 1-3.38-5.76 8.81 8.81 0 0 1 1.56-6.49 8.38 8.38 0 0 1 11.98-1.76 8.85 8.85 0 0 1 3.37 5.77 8.66 8.66 0 0 1-8.4 10Zm-.11-15.9a6.75 6.75 0 0 0-5.5 2.84 7.2 7.2 0 0 0-1.28 5.3 7.22 7.22 0 0 0 2.75 4.7 6.77 6.77 0 0 0 5.13 1.35 7.02 7.02 0 0 0 5.79-8.06 7.19 7.19 0 0 0-2.75-4.7 6.68 6.68 0 0 0-4.14-1.44Z" fill="#151921"/><path d="M213.8 78.8c-.17-.39-.58-.5-.94-.37-.95.32-2.05.52-3.02.19-.88-.31-1.9-1.15-2.19-2.06a4.62 4.62 0 0 1 .03-3.12 4.44 4.44 0 0 1 2.1-2c.83-.39.25-1.69-.58-1.3a5.88 5.88 0 0 0-2.85 2.77 5.99 5.99 0 0 0 0 4.23 5.19 5.19 0 0 0 2.96 2.8c1.35.47 2.8.24 4.11-.2.38-.14.52-.62.37-.95Z" fill="#151921"/><path d="M210.92 80.29c-.58 0-1.13-.1-1.63-.27a5.3 5.3 0 0 1-3.04-2.87 6.1 6.1 0 0 1 .01-4.3 6 6 0 0 1 2.91-2.81c.48-.22.87.03 1.03.37.19.38.11.88-.36 1.11a4.33 4.33 0 0 0-2.06 1.94c-.35.81-.36 2-.02 3.05.3.9 1.32 1.7 2.12 1.99.8.27 1.75.2 2.94-.2.46-.14.9.03 1.07.43.1.2.08.45 0 .67a.67.67 0 0 1-.42.4c-.93.33-1.78.49-2.55.49Zm-1.4-10.12a.54.54 0 0 0-.27.06 5.78 5.78 0 0 0-2.8 2.71 5.84 5.84 0 0 0 0 4.15 5.04 5.04 0 0 0 2.9 2.73c1.14.4 2.46.34 4.05-.2a.53.53 0 0 0 .3-.29.63.63 0 0 0 0-.51c-.15-.35-.52-.4-.81-.32a4.75 4.75 0 0 1-3.08.2c-.85-.31-1.94-1.15-2.26-2.13a4.7 4.7 0 0 1 .03-3.2 4.58 4.58 0 0 1 2.16-2.04c.37-.18.4-.56.27-.83a.56.56 0 0 0-.5-.33ZM216.29 76.78a.68.68 0 0 0-.53-.13c-.17.04-.37.13-.47.28-.07.12-.16.23-.25.34l-.36.3-.14.07a.79.79 0 0 0-.38.38.71.71 0 0 0 .01.55c.08.16.21.31.39.37.18.06.37.07.55-.01.27-.12.53-.29.74-.48.23-.2.43-.42.58-.67.06-.08.1-.16.11-.25a.52.52 0 0 0 .03-.28.71.71 0 0 0-.28-.47Z" fill="#151921"/><path d="M214.83 79.1a.83.83 0 0 1-.76-.48.82.82 0 0 1 .42-1.09c.03-.02.07-.03.1-.06l.03-.01a1.6 1.6 0 0 0 .58-.6c.15-.23.42-.3.54-.33a.81.81 0 0 1 .93.69c.02.1.01.22-.03.33a.58.58 0 0 1-.13.27c-.14.23-.34.47-.59.7-.21.19-.48.36-.78.5-.1.05-.2.07-.31.07Zm1.03-2.36-.09.01c-.18.03-.34.12-.4.23-.08.13-.17.25-.27.35-.13.13-.26.23-.39.31l-.03.02-.12.07a.66.66 0 0 0-.32.32.61.61 0 0 0 0 .47c.05.1.15.26.33.32.13.04.3.07.48 0 .27-.13.52-.3.72-.48.24-.2.43-.42.56-.64a.5.5 0 0 0 .1-.21.42.42 0 0 0 .01-.25.65.65 0 0 0-.23-.4.6.6 0 0 0-.35-.12Z" fill="#151921"/><path d="M217.72 80.2c-.37.24-.8.4-1.24.49l-.06.07c-.27.27-.57.5-.89.74-.14.12-.3.2-.47.29a8.95 8.95 0 0 1-2.74 2.05c-2.46 1.31-6.28-.03-8.23-1.79a7.51 7.51 0 0 1-2.12-3.48c-.4-1.35-.66-3.04.1-4.3.9-1.51 2.16-2.84 3.58-3.95 0-.1.02-.2.05-.3.1-.31.24-.63.42-.92.05-.1.12-.18.18-.27.15-.2.3-.4.45-.57l.24-.22c.18-.16.38-.31.59-.43.13-.09.28-.15.42-.2a.66.66 0 0 0-.59.03 18.92 18.92 0 0 0-5.74 4.92c-.8 1.04-1.42 2.05-1.48 3.4a9.89 9.89 0 0 0 .58 3.71 8.91 8.91 0 0 0 4.68 5.13c2.24 1.04 5.16 1.7 7.46.52 2.75-1.4 3.22-2.48 5.12-4.8a.72.72 0 0 0 .16-.5c-.16.14-.3.27-.47.38Z" fill="#151921"/><path d="M210.11 85.87c-1.84 0-3.6-.65-4.71-1.16a9.04 9.04 0 0 1-4.74-5.18 10.1 10.1 0 0 1-.59-3.76c.06-1.33.64-2.34 1.5-3.46 1.56-2 3.5-3.67 5.77-4.94a.77.77 0 0 1 .68-.05l.24.1-.24.1c-.13.05-.28.11-.41.2a5 5 0 0 0-.8.64c-.14.14-.27.31-.4.47l-.05.08-.18.27c-.16.26-.3.57-.4.89-.03.08-.04.16-.05.28v.04l-.03.02a14.44 14.44 0 0 0-3.56 3.91c-.6 1-.62 2.38-.09 4.23a7.38 7.38 0 0 0 2.1 3.43c2.05 1.85 5.8 3 8.11 1.77a8.67 8.67 0 0 0 2.7-2.04l.07-.04c.16-.08.3-.16.43-.26.32-.24.62-.47.88-.74l.02-.02.04-.04.02-.03h.03c.45-.1.86-.26 1.21-.48.13-.08.25-.19.37-.29l.25-.2v.21c.01.2-.05.41-.18.58-.35.42-.65.8-.92 1.16-1.23 1.57-1.97 2.52-4.23 3.67-.9.47-1.88.64-2.84.64Zm-2.53-18.38c-.05.02-.1.03-.14.06a18.7 18.7 0 0 0-5.7 4.9c-.84 1.08-1.4 2.06-1.46 3.34a9.72 9.72 0 0 0 .57 3.67 8.83 8.83 0 0 0 4.63 5.07c1.65.76 4.79 1.84 7.38.53 2.22-1.13 2.94-2.06 4.16-3.62l.92-1.16a.58.58 0 0 0 .1-.2 3.51 3.51 0 0 1-1.53.7v.02l-.03.04c-.27.28-.57.5-.9.75-.14.1-.3.2-.45.28h-.01a9.22 9.22 0 0 1-2.76 2.07c-2.4 1.27-6.25.1-8.35-1.8a7.5 7.5 0 0 1-2.16-3.54c-.55-1.9-.51-3.34.1-4.39.85-1.4 2.05-2.73 3.58-3.93a4.44 4.44 0 0 1 .67-1.5l.06-.08a4.74 4.74 0 0 1 .65-.73c.18-.14.38-.3.6-.44a.3.3 0 0 0 .07-.04Z" fill="#151921"/><path d="M203.91 76.03a.73.73 0 0 0-.5-.2.8.8 0 0 0-.5.2l-1.84 1.57a.72.72 0 0 0-.2.5c0 .17.07.39.2.5.14.13.31.22.5.2a.8.8 0 0 0 .5-.2l1.84-1.57c.13-.11.2-.34.2-.5a.67.67 0 0 0-.2-.5Z" fill="#151921"/><path d="M201.55 78.92a.82.82 0 0 1-.79-.82.8.8 0 0 1 .25-.58l1.84-1.57a.89.89 0 0 1 .56-.23c.2 0 .4.07.58.24a.8.8 0 0 1 0 1.16l-1.84 1.57a.89.89 0 0 1-.57.23h-.03Zm1.89-3h-.03c-.16.01-.3.07-.44.19l-1.84 1.57a.6.6 0 0 0-.17.42c0 .16.07.34.17.43.07.06.23.18.41.18h.02c.16 0 .3-.07.44-.18l1.84-1.57c.12-.1.17-.3.17-.43a.63.63 0 0 0-.17-.42.62.62 0 0 0-.4-.19ZM205.38 79.63a.71.71 0 0 0-.97-.26c-.7.45-1.36.98-1.94 1.57-.26.27-.29.75 0 1.01.28.26.73.29 1 0 .33-.33.68-.63 1.04-.92.2-.14.4-.3.62-.43.16-.1.28-.25.33-.43a.72.72 0 0 0-.08-.54Z" fill="#151921"/><path d="M202.99 82.26a.85.85 0 0 1-.59-.23.77.77 0 0 1-.24-.54c0-.23.09-.45.24-.61.58-.6 1.23-1.12 1.96-1.59.17-.1.4-.14.63-.08.19.04.36.17.5.37.1.16.13.41.07.63a.85.85 0 0 1-.37.48l-.61.43c-.38.3-.72.6-1.02.91a.84.84 0 0 1-.57.23Zm1.77-2.88a.57.57 0 0 0-.3.07c-.7.46-1.35.99-1.92 1.57a.62.62 0 0 0 0 .85c.26.24.64.24.87 0 .3-.31.65-.62 1.04-.93l.62-.44c.1-.06.24-.18.29-.37a.65.65 0 0 0-.06-.46.62.62 0 0 0-.36-.28l-.18-.01ZM209.16 82.14a.74.74 0 0 0-.33-.43.72.72 0 0 0-.55-.07l-.17.07a.75.75 0 0 0-.26.26l-1.28 1.67c-.1.14-.11.4-.07.55a.72.72 0 0 0 .88.5l.17-.08c.1-.06.19-.14.26-.25l1.28-1.67c.1-.14.11-.4.07-.55Z" fill="#151921"/><path d="M207.2 84.8a.99.99 0 0 1-.42-.1.83.83 0 0 1-.38-.49c-.05-.19-.04-.47.1-.64l1.27-1.67c.07-.1.17-.2.3-.28l.17-.08c.2-.06.43-.03.64.08.18.09.32.28.38.49.05.19.04.47-.09.64l-1.28 1.67a.78.78 0 0 1-.29.27l-.18.09a.69.69 0 0 1-.22.03Zm1.26-3.08-.15.03-.17.06a.57.57 0 0 0-.2.22l-1.3 1.67c-.06.1-.08.32-.05.46.04.15.16.3.28.36.1.05.28.13.47.07l.16-.07a.56.56 0 0 0 .2-.21l1.3-1.68c.08-.1.09-.33.06-.46a.62.62 0 0 0-.28-.36.62.62 0 0 0-.32-.09ZM134.45 34.47c-.54-.84-1.35-2.15-2.51-2-1.17.15-1.85 1.5-2.06 2.53-.26 1.3-.08 2.61.08 3.9a57.37 57.37 0 0 0 3.32 13.52c.37.97 1.96.55 1.59-.44a56.5 56.5 0 0 1-3.4-14.3c-.1-.96-.22-2.08.22-2.97.36-.73.59-.45 1 .1.3.4.56.83.79 1.27 1 1.93 1.38 4.15 1.76 6.27.2 1.03 1.77.6 1.59-.44-.46-2.56-.96-5.22-2.38-7.44Z" fill="#151921"/><path d="M144.13 37.58c-.65-.44-1.6-.5-2.26-.05l-.08.02a15.87 15.87 0 0 0-4.47 2.68 3.88 3.88 0 0 0-1.44 2.16c-.15.88.28 1.76 1.02 2.26 1.5 1.03 3.41.25 4.8-.63a10.3 10.3 0 0 0 2.04-1.67 4.7 4.7 0 0 0 1.32-2.32c.15-.89-.15-1.93-.93-2.45Zm-.8 2.56c-.2.53-.64.98-1.03 1.36-.43.42-.9.8-1.41 1.12-.82.51-2.18 1.28-3.05.7-.32-.22-.44-.52-.25-.9.24-.52.77-.9 1.2-1.25 1.04-.82 3.66-3.05 4.51-2.15.26.28.18.75.03 1.12Z" fill="#151921"/><path d="M145.53 41.26c-.43-.5-1.1-.77-1.75-.6-.42.1-.73.5-.64.95.08.42-.13.5.3.4.05 0 .72.24.73.23 0 0 .03.02.08.02-.07-.02-.06-.01.03.05-.09-.08.1.12.09.11-.06-.08.04.14.01.03.1.4-.12.76-.34 1.08a6.5 6.5 0 0 1-1.86 1.75c-.7.43-1.66.93-2.5.87-.3-.03-.58-.15-.7-.37-.08-.15-.03-.75.16-.87.37-.25.33-.35.06-.66-.31-.37-.79-.35-1.16-.1-.96.66-.91 2.13-.13 2.9.91.9 2.21.85 3.35.46a8.58 8.58 0 0 0 2.8-1.58c.8-.7 1.67-1.63 1.92-2.7.15-.71.04-1.43-.45-1.97Z" fill="#151921"/><path d="M147.03 44.3a1.7 1.7 0 0 0-1.41-.89c-.45 0-.85.29-.9.75l.03.16h.04c.54 0 .8.4.82.8v.07c.02.28-.16.55-.34.82-.4.56-.84 1-1.44 1.4-.46.3-1.95.88-2.14.88a.77.77 0 0 1-.44-.14h-.02a.26.26 0 0 1-.11-.1.92.92 0 0 1-.2-.9.75.75 0 0 0-.35-.3.83.83 0 0 0-1.06.5c-.33.97.25 1.97 1.17 2.34.92.38 2 .07 2.88-.29.74-.3 1.46-.76 2.06-1.3a5.2 5.2 0 0 0 1.52-2.14 2.1 2.1 0 0 0-.11-1.66Z" fill="#151921"/><path d="M145.35 46.83a.83.83 0 0 0-.82.82l-.06 3.31c0 .43.37.84.82.82a.83.83 0 0 0 .82-.82l.06-3.3c0-.44-.37-.85-.82-.83Z" fill="#151921"/><path d="M13.95 71.1a1.6 1.6 0 0 0-1.19-.65 9.37 9.37 0 0 0-5.93 1.37A7.82 7.82 0 0 0 3.9 75c-1.3 1-2.58 2.17-2.95 3.83a5.95 5.95 0 0 0 1.11 4.8 8.08 8.08 0 0 0 4.67 3c.15.31.43.55.87.62 1.5.25 3.01.24 4.47-.08h.15c.31 0 .58-.1.79-.25a9.05 9.05 0 0 0 6.33-7 7.8 7.8 0 0 0-5.38-8.8Z" fill="#FFBF24"/><path d="M18.62 75.45c-.92-2.68-3.1-4.9-5.97-5.38a6.86 6.86 0 0 0-4.64.79.63.63 0 0 0-.33.68l-.38.16c-.5.18-.97.4-1.41.65-.8.45-.09 1.68.72 1.23.12-.08.26-.14.4-.21.1 0 .23-.02.36-.1.16-.1.33-.19.5-.27a8.58 8.58 0 0 1 5.27-.19 6.3 6.3 0 0 1 2.9 2.33c.8 1.52.49 3.6-.02 5.17a8.65 8.65 0 0 1-2.9 4.12c-.52.41-.05 1.19.5 1.21.85.05 1.58-.53 2.19-1.05a7.81 7.81 0 0 0 1.57-1.84l.2-.36c1.85-1.7 1.82-4.72 1.04-6.94Z" fill="#FCFA9C"/><path d="M14.75 72.8c-.25-.25-.77-.3-1.01 0a97.58 97.58 0 0 0-3.57 4.82c-.23.32-.06.79.25.97.35.2.76.07.98-.25a86.2 86.2 0 0 1 3.35-4.54c.24-.3.3-.7 0-1Z" fill="#fff"/><path d="M10.77 78.8a.8.8 0 0 1-.4-.12.87.87 0 0 1-.4-.54c-.04-.2 0-.41.1-.58 1.11-1.6 2.32-3.22 3.59-4.83.11-.15.3-.23.5-.24.23-.03.5.07.65.23.36.36.26.83.01 1.14a91.42 91.42 0 0 0-3.35 4.53.85.85 0 0 1-.7.4Zm3.44-6.1h-.04a.48.48 0 0 0-.35.15 95.59 95.59 0 0 0-3.57 4.82.53.53 0 0 0-.07.4c.04.18.15.34.29.43.32.18.66.02.84-.23 1.09-1.58 2.22-3.1 3.36-4.54.18-.23.28-.59 0-.87a.68.68 0 0 0-.46-.17ZM15.39 76.47a.72.72 0 0 0-.88-.5l-.17.08a.75.75 0 0 0-.26.25l-.66 1a.52.52 0 0 0-.08.27c-.03.1-.02.19.01.29a.72.72 0 0 0 .88.5l.17-.08c.1-.06.2-.14.26-.25l.66-1a.52.52 0 0 0 .08-.27c.02-.1.01-.19-.01-.29Z" fill="#fff"/><path d="M14.04 78.48a1 1 0 0 1-.42-.1.82.82 0 0 1-.37-.5.66.66 0 0 1-.02-.33c0-.1.04-.2.1-.3l.66-1a.8.8 0 0 1 .29-.3l.18-.07c.2-.07.43-.04.64.07.17.09.32.29.38.48.03.1.04.22.02.34 0 .1-.05.2-.1.3l-.67 1a.8.8 0 0 1-.29.29l-.18.08a.49.49 0 0 1-.22.04Zm.65-2.42c-.05 0-.1 0-.15.02l-.16.07a.57.57 0 0 0-.2.2l-.67 1.02a.4.4 0 0 0-.07.2.49.49 0 0 0 .01.25c.04.15.16.3.28.37.1.05.28.13.47.07l.16-.07a.57.57 0 0 0 .2-.21l.67-1a.4.4 0 0 0 .07-.22.49.49 0 0 0-.01-.25.62.62 0 0 0-.28-.36.57.57 0 0 0-.32-.1Z" fill="#fff"/><path d="M11.44 86.68a8.4 8.4 0 0 1-5.13-1.76 8.85 8.85 0 0 1-3.38-5.76 8.81 8.81 0 0 1 1.56-6.49 8.41 8.41 0 0 1 5.61-3.43 8.69 8.69 0 0 1 9.74 7.44 8.66 8.66 0 0 1-8.4 10Zm-.12-15.9a6.75 6.75 0 0 0-5.5 2.84 7.2 7.2 0 0 0-1.26 5.3 7.22 7.22 0 0 0 2.75 4.71 6.77 6.77 0 0 0 5.12 1.35 7.02 7.02 0 0 0 5.8-8.06 7.1 7.1 0 0 0-6.9-6.14Z" fill="#151921"/><path d="M13.74 81.68c-.17-.38-.58-.48-.94-.36-.94.32-2.04.52-3.01.19-.88-.31-1.9-1.15-2.2-2.06a4.62 4.62 0 0 1 .03-3.12 4.44 4.44 0 0 1 2.1-2c.83-.39.26-1.69-.57-1.3A5.88 5.88 0 0 0 6.3 75.8a5.99 5.99 0 0 0-.01 4.23 5.19 5.19 0 0 0 2.96 2.8c1.36.47 2.8.24 4.12-.2.37-.14.52-.62.37-.95Z" fill="#151921"/><path d="M10.86 83.18c-.59 0-1.13-.1-1.64-.27a5.3 5.3 0 0 1-3.03-2.87 6.1 6.1 0 0 1 0-4.3 6.02 6.02 0 0 1 2.9-2.81c.48-.22.88.03 1.04.37.18.38.1.88-.37 1.11a4.34 4.34 0 0 0-2.05 1.94c-.35.81-.36 2-.02 3.05.3.91 1.32 1.7 2.12 1.99.8.27 1.75.2 2.94-.2.45-.14.9.02 1.07.43.09.2.09.45 0 .68a.67.67 0 0 1-.42.39 7.5 7.5 0 0 1-2.54.49Zm-1.4-10.12a.54.54 0 0 0-.27.06 5.78 5.78 0 0 0-2.8 2.71 5.84 5.84 0 0 0-.01 4.15 5.08 5.08 0 0 0 2.9 2.74c1.15.4 2.47.33 4.06-.2a.53.53 0 0 0 .3-.29.66.66 0 0 0 0-.52c-.16-.34-.53-.4-.81-.3a4.75 4.75 0 0 1-3.08.18c-.86-.3-1.94-1.15-2.26-2.12a4.71 4.71 0 0 1 .03-3.2 4.58 4.58 0 0 1 2.15-2.04c.38-.18.4-.56.27-.84a.55.55 0 0 0-.49-.33ZM16.23 79.68a.68.68 0 0 0-.53-.14c-.17.04-.37.13-.47.28-.07.13-.16.23-.25.34l-.36.3-.14.07a.7.7 0 0 0-.36.93.7.7 0 0 0 .38.37c.18.06.38.07.55-.01a3 3 0 0 0 1.32-1.15c.06-.08.1-.16.12-.25a.53.53 0 0 0 .02-.28.76.76 0 0 0-.28-.46Z" fill="#151921"/><path d="M14.76 81.98c-.1 0-.2-.01-.3-.05a.83.83 0 0 1-.45-.43.82.82 0 0 1 .42-1.08l.08-.04.04-.03c.1-.07.23-.16.35-.27.08-.1.17-.2.23-.32.14-.23.42-.3.54-.33.19-.03.4.02.6.15a.79.79 0 0 1 .3.86.58.58 0 0 1-.13.28 3.15 3.15 0 0 1-1.37 1.19.6.6 0 0 1-.3.07Zm1.05-2.35-.1.01c-.17.03-.33.13-.4.23-.08.13-.17.25-.27.35-.13.13-.25.23-.38.31l-.05.03-.1.05a.66.66 0 0 0-.32.33.61.61 0 0 0 0 .46c.06.1.16.26.34.32.12.04.3.08.47 0a3.06 3.06 0 0 0 1.28-1.11.5.5 0 0 0 .1-.22.52.52 0 0 0 .03-.25.65.65 0 0 0-.24-.4c-.08-.03-.22-.1-.36-.1Z" fill="#151921"/><path d="M17.66 83.09c-.37.24-.8.4-1.25.5l-.05.06c-.27.27-.58.5-.89.74-.15.12-.31.2-.48.29a8.95 8.95 0 0 1-2.73 2.05c-2.46 1.31-6.28-.03-8.23-1.79a7.52 7.52 0 0 1-2.13-3.48c-.39-1.35-.65-3.04.1-4.3.9-1.51 2.17-2.84 3.58-3.95l.06-.3a4.36 4.36 0 0 1 .6-1.2c.15-.18.29-.39.45-.56a4.3 4.3 0 0 1 .82-.66c.13-.08.28-.14.43-.2a.66.66 0 0 0-.6.04 18.92 18.92 0 0 0-5.73 4.92C.8 76.3.19 77.3.12 78.65a9.88 9.88 0 0 0 .59 3.71 8.92 8.92 0 0 0 4.68 5.13c2.24 1.04 5.15 1.7 7.46.52 2.74-1.4 3.22-2.48 5.12-4.8a.72.72 0 0 0 .16-.5c-.15.14-.31.27-.47.38Z" fill="#151921"/><path d="M10.05 88.77c-1.84 0-3.6-.65-4.71-1.16A9.07 9.07 0 0 1 .6 82.43a10.14 10.14 0 0 1-.6-3.76c.06-1.33.65-2.34 1.51-3.45a19 19 0 0 1 5.76-4.95.77.77 0 0 1 .69-.05l.23.1-.24.1c-.13.04-.28.1-.41.2a4.65 4.65 0 0 0-.8.63c-.14.15-.26.31-.38.47l-.07.09-.18.27c-.16.26-.3.57-.4.89a1.3 1.3 0 0 0-.05.28v.05l-.04.02a14.45 14.45 0 0 0-3.55 3.9c-.6 1-.63 2.39-.1 4.23a7.38 7.38 0 0 0 2.11 3.43c2.05 1.85 5.79 3 8.11 1.78a8.69 8.69 0 0 0 2.7-2.04l.07-.04c.16-.08.3-.16.43-.26.31-.24.6-.47.88-.74l.03-.03.06-.06h.03c.44-.1.85-.26 1.2-.48.14-.08.25-.18.38-.28l.24-.2.01.2c.01.2-.06.4-.19.57-.34.43-.65.81-.92 1.17-1.22 1.57-1.96 2.52-4.23 3.67-.9.45-1.88.63-2.83.63ZM7.52 70.38c-.04.02-.09.03-.13.06a18.7 18.7 0 0 0-5.7 4.9C.83 76.42.27 77.4.21 78.67a9.73 9.73 0 0 0 .58 3.67 8.83 8.83 0 0 0 4.63 5.07c1.64.76 4.78 1.84 7.37.53 2.23-1.13 2.95-2.06 4.17-3.61l.91-1.17a.46.46 0 0 0 .11-.2 3.49 3.49 0 0 1-1.53.71 8.71 8.71 0 0 1-.94.8c-.13.1-.3.2-.44.27l-.02.01a9.22 9.22 0 0 1-2.75 2.06c-2.4 1.27-6.25.1-8.35-1.8a7.5 7.5 0 0 1-2.16-3.53c-.55-1.9-.52-3.34.1-4.4a14.64 14.64 0 0 1 3.58-3.93c0-.1.02-.2.05-.28a4.48 4.48 0 0 1 .62-1.23l.07-.08c.12-.16.25-.33.4-.49l.24-.23a4.43 4.43 0 0 1 .66-.46Z" fill="#151921"/><path d="M3.86 78.92a.72.72 0 0 0-.5-.2.8.8 0 0 0-.5.2L1.02 80.5a.72.72 0 0 0-.2.5c0 .18.07.39.2.5.14.13.3.22.5.2a.8.8 0 0 0 .5-.2l1.84-1.57c.13-.11.2-.33.2-.5a.7.7 0 0 0-.2-.5Z" fill="#151921"/><path d="M1.5 81.81A.81.81 0 0 1 .7 81a.8.8 0 0 1 .25-.58l1.84-1.57a.89.89 0 0 1 .57-.23.83.83 0 0 1 .82.82.8.8 0 0 1-.25.58L2.1 81.58a.89.89 0 0 1-.56.23h-.04Zm1.87-3h-.01c-.17.01-.3.07-.45.19l-1.84 1.57c-.11.1-.17.3-.17.42 0 .16.08.34.17.43.08.06.23.18.42.18h.02c.16 0 .3-.07.44-.18l1.84-1.57c.12-.1.18-.3.18-.43a.63.63 0 0 0-.18-.42.69.69 0 0 0-.42-.18ZM5.33 82.52a.71.71 0 0 0-.98-.26c-.7.45-1.35.98-1.94 1.57-.26.27-.28.75 0 1.01s.73.29 1.01 0c.32-.33.68-.63 1.04-.92.2-.14.4-.3.61-.43.16-.1.28-.24.33-.43a.75.75 0 0 0-.07-.54Z" fill="#151921"/><path d="M2.93 85.15a.85.85 0 0 1-.58-.23.77.77 0 0 1-.24-.54c0-.23.08-.45.24-.61.57-.6 1.23-1.12 1.95-1.59.17-.1.39-.14.63-.09.2.04.37.17.5.37.1.16.14.42.08.63a.85.85 0 0 1-.37.48l-.62.44c-.38.3-.71.6-1.01.9a.84.84 0 0 1-.58.24Zm1.77-2.88a.5.5 0 0 0-.3.08c-.7.46-1.35.98-1.91 1.57a.62.62 0 0 0-.18.45c0 .16.07.3.18.4.25.24.63.24.86 0a10.69 10.69 0 0 1 1.67-1.37c.1-.07.23-.18.28-.37a.65.65 0 0 0-.05-.46.62.62 0 0 0-.36-.28l-.19-.02ZM9.1 85.03a.72.72 0 0 0-.88-.5l-.17.07a.75.75 0 0 0-.26.26l-1.28 1.67c-.1.14-.11.4-.07.55a.72.72 0 0 0 .88.5l.17-.08c.1-.06.19-.14.25-.25l1.28-1.67c.11-.14.12-.4.08-.55Z" fill="#151921"/><path d="M7.14 87.7a1 1 0 0 1-.42-.1.82.82 0 0 1-.38-.5c-.05-.19-.04-.47.09-.64L7.7 84.8a.72.72 0 0 1 .29-.28l.18-.07a.8.8 0 0 1 .63.07c.17.1.32.3.38.5.05.18.04.47-.1.63l-1.27 1.67a.78.78 0 0 1-.3.28l-.17.08a.9.9 0 0 1-.21.03ZM8.4 84.6l-.15.03-.16.06a.57.57 0 0 0-.2.22l-1.3 1.67c-.08.1-.09.32-.05.46.04.15.15.3.27.36.1.05.28.13.47.07l.17-.07a.57.57 0 0 0 .2-.21l1.3-1.68c.07-.1.08-.32.05-.46a.62.62 0 0 0-.6-.45ZM9.8 37v26.75c0 1.06 1.65 1.06 1.65 0V37c0-1.06-1.65-1.06-1.65 0ZM13.12 29.86v11.53c0 1.05 1.64 1.05 1.64 0V29.86c0-1.06-1.64-1.06-1.64 0ZM186.77 3.56v30.43c0 1.06 1.64 1.06 1.64 0V3.56c0-1.06-1.64-1.06-1.64 0ZM182.83.8v7.14c0 1.06 1.65 1.06 1.65 0V.79c0-1.05-1.65-1.05-1.65 0ZM209.42 39.49v24.46c0 1.06 1.65 1.06 1.65 0V39.5c0-1.06-1.65-1.06-1.65 0ZM213.43 32.34v17.45c0 1.06 1.64 1.06 1.64 0V32.34c0-1.06-1.64-1.06-1.64 0Z" fill="#151921"/><path d="M112.94 108.1a11.83 11.83 0 0 0-10.27-.81 3.57 3.57 0 0 0-3.07 1.84c-.05.1-.08.2-.11.3a7.95 7.95 0 0 0-1.65 3.8c-.16.83-.17 1.58.24 2.36.39.7.97 1.36 1.54 1.92a18.51 18.51 0 0 0 3.92 2.88c2.7 1.52 5.93 2.44 8.97 1.4 1.23-.41 3.69-1.51 3.05-3.2-.18-.49-.53-.8-.98-1 .22-.11.44-.23.64-.37.39-.24.73-.54 1.02-.89.3-.27.58-.58.8-.95 1.7-2.83-1.87-5.97-4.1-7.28Z" fill="#FFBF24"/><path d="M114.7 108.46a10.52 10.52 0 0 0-8-2.03.67.67 0 0 0-.43.22c-2.82.04-5.57 1.13-7.24 3.6-.6.87.8 1.74 1.39.88 1.93-2.85 5.68-3.33 8.78-2.49 1.65.45 3.4 1.05 4.73 2.13 2.34 1.87 2.17 3.09 1.78 5.73-.12.77.98 0 1.34-.74 1.36-2.76-.11-5.54-2.34-7.3Z" fill="#FCFA9C"/><path d="M107.92 110.84a50.92 50.92 0 0 0-.97-4.82c-.1-.42-.56-.73-.98-.62-.42.12-.72.54-.62.98.4 1.6.73 3.2.97 4.83.07.42.58.72.99.61.46-.13.68-.53.61-.98ZM110.78 112.6l-.44-2.27c-.08-.42-.57-.73-.98-.61a.84.84 0 0 0-.62.98l.44 2.27c.08.42.57.73.98.61.45-.12.7-.53.62-.98ZM112.8 110.6l-.2-1.15a.62.62 0 0 0-.14-.29.72.72 0 0 0-.22-.22.56.56 0 0 0-.3-.1.76.76 0 0 0-.33 0c-.2.05-.4.16-.5.35l-.1.2a.86.86 0 0 0 0 .42l.2 1.16c.02.1.06.2.14.29a.7.7 0 0 0 .22.22c.09.06.19.1.3.1.1.03.22.03.33 0 .2-.05.4-.17.5-.36l.1-.19a.86.86 0 0 0 0-.43Z" fill="#fff"/><path d="M110.14 119.52c-1.2 0-2.43-.17-3.66-.5a12.67 12.67 0 0 1-6.21-3.64c-1.57-1.77-2.16-3.75-1.67-5.59.99-3.67 6.13-5.5 11.46-4.07 2.53.67 4.73 1.97 6.21 3.64 1.57 1.77 2.16 3.75 1.67 5.6-.5 1.84-2 3.26-4.24 4-1.1.37-2.3.56-3.56.56Zm-3.77-12.66c-3.1 0-5.62 1.26-6.18 3.36-.35 1.29.11 2.74 1.3 4.08a11.05 11.05 0 0 0 5.41 3.15c2.22.59 4.45.58 6.27-.03 1.7-.57 2.83-1.6 3.18-2.89.34-1.3-.12-2.74-1.3-4.09a11.05 11.05 0 0 0-5.42-3.14c-1.12-.3-2.22-.44-3.26-.44Z" fill="#151921"/><path d="M117.66 115.53c-.36.07-.7-.06-.96-.3l-.08-.12a4 4 0 0 1-.95 1.33l-.5 1.52c-.23.67-.37 1.59-.78 2.16-.4.54-1.15.72-1.8.9-2.52.65-4.77.47-7.24-.27-2.4-.72-4.7-2.07-6.12-4.18a8.01 8.01 0 0 1-.73-1.35c-.33-.77-.27-1.3.06-2.06a29.58 29.58 0 0 1 1.98-3.78c.55-.9-.84-1.78-1.39-.88a28 28 0 0 0-2.3 4.5c-.55 1.46-.01 2.82.77 4.09a12.48 12.48 0 0 0 6.9 5.12c2.91.94 5.8 1.2 8.78.31.66-.2 1.37-.44 1.93-.86.58-.43.78-1.01 1-1.68l1.48-4.46-.05.01Z" fill="#151921"/><path d="M101.75 115.3a.83.83 0 0 0-1.14.26c-.46.7-.88 1.4-1.29 2.12-.1.2-.15.41-.1.63.04.2.18.4.36.5.37.22.91.15 1.13-.25.4-.72.84-1.42 1.3-2.12.22-.35.11-.91-.26-1.13ZM105.11 117.82a.8.8 0 0 0-.36-.5.86.86 0 0 0-.63-.1c-.2.05-.41.17-.5.36l-1.03 2c-.1.2-.16.4-.1.63.04.2.18.4.36.5.19.1.42.17.63.1.2-.05.41-.16.5-.35l1.03-2c.1-.21.16-.42.1-.64ZM110.95 118.67a.84.84 0 0 0-1.03.53l-.82 2.16c-.15.4.12.92.53 1.03.45.12.87-.1 1.04-.53l.82-2.16c.15-.4-.13-.92-.54-1.03ZM103.76 111.3l.02-.04-.02.04Z" fill="#151921"/><path d="M206 118.81a8.7 8.7 0 0 0-7.5-.98c-.93 0-1.85.4-2.33 1.24l-.1.22c-.72.76-1.1 1.7-1.35 2.72-.15.6-.2 1.16.09 1.74.25.53.65 1.04 1.05 1.47.8.88 1.76 1.63 2.76 2.27 1.93 1.22 4.28 2.02 6.54 1.38.92-.26 2.77-.98 2.37-2.25a1.3 1.3 0 0 0-.68-.77l.48-.24c.29-.16.56-.38.78-.62.23-.2.44-.4.62-.67 1.36-2.02-1.14-4.46-2.72-5.5Z" fill="#FFBF24"/><path d="M207.29 119.14a7.72 7.72 0 0 0-5.81-1.8.55.55 0 0 0-.32.16c-2.08-.08-4.14.6-5.47 2.35-.47.63.52 1.32.99.7 1.53-2.02 4.3-2.23 6.54-1.5 1.2.4 2.46.91 3.4 1.75 1.64 1.46 1.47 2.35 1.08 4.28-.11.56.72.04 1.02-.5 1.1-1.96.15-4.06-1.43-5.44Z" fill="#FCFA9C"/><path d="M204 127.32c-1.06 0-2.15-.17-3.22-.52-4.04-1.31-6.5-4.54-5.58-7.36.92-2.83 4.8-4 8.84-2.7a9.55 9.55 0 0 1 4.54 2.98c1.13 1.42 1.5 2.97 1.04 4.38-.46 1.4-1.67 2.44-3.42 2.93-.7.2-1.44.3-2.2.3Zm-3.17-9.46c-2 0-3.64.77-4.07 2.08-.61 1.88 1.46 4.31 4.52 5.3 1.56.5 3.15.58 4.47.22 1.2-.33 2.02-.99 2.3-1.86.28-.86.01-1.87-.76-2.85a7.88 7.88 0 0 0-3.75-2.44 8.67 8.67 0 0 0-2.7-.45Z" fill="#151921"/><path d="M209.21 124.72a.82.82 0 0 1-.7-.26c-.03-.02-.05-.05-.06-.08a2.9 2.9 0 0 1-.77.94l-.43 1.1c-.2.47-.34 1.15-.67 1.55-.3.37-.88.49-1.36.59-1.9.38-3.58.15-5.4-.48a8.26 8.26 0 0 1-4.4-3.3 5.8 5.8 0 0 1-.5-1.03c-.21-.58-.15-.96.13-1.5.46-.95 1.01-1.84 1.61-2.7.45-.65-.56-1.35-1-.71a19.68 19.68 0 0 0-1.88 3.22c-.47 1.04-.12 2.07.42 3.03a9.34 9.34 0 0 0 4.94 4.03c2.14.81 4.29 1.12 6.55.57.5-.12 1.04-.26 1.47-.55.45-.3.61-.71.81-1.2.44-1.07.85-2.14 1.27-3.22h-.03Z" fill="#151921"/><path d="M203.4 130.12c-1.38 0-2.8-.29-4.31-.85a9.5 9.5 0 0 1-5.04-4.11c-.48-.85-.95-2-.42-3.18.44-.97 1.04-2 1.9-3.24a.7.7 0 0 1 .66-.32c.28.02.56.21.68.47a.7.7 0 0 1-.08.74c-.65.95-1.18 1.83-1.6 2.69-.28.55-.31.88-.12 1.38.11.32.28.66.48 1a8.13 8.13 0 0 0 4.32 3.23c1.93.68 3.57.82 5.3.48.49-.1 1.01-.2 1.28-.53.22-.27.35-.67.49-1.07l.15-.45.44-1.1c0-.02.02-.04.05-.06.3-.25.54-.54.72-.88a.17.17 0 0 1 .14-.1c.05-.01.11.03.15.07l.02.03c.17.2.38.27.57.25h.03c.07-.02.12 0 .16.05.04.05.05.1.02.16l-.29.75-.97 2.48c-.2.48-.38.95-.87 1.27-.46.3-1 .45-1.52.58-.78.17-1.56.26-2.34.26Zm-7.28-11.38h-.04c-.12 0-.2.07-.29.18a20.18 20.18 0 0 0-1.87 3.2c-.48 1.05-.03 2.09.41 2.88a9.15 9.15 0 0 0 4.86 3.95c2.3.87 4.41 1.06 6.45.56.5-.12 1-.26 1.42-.53.41-.26.57-.66.75-1.12l.97-2.48.2-.5a1 1 0 0 1-.52-.24c-.17.29-.4.54-.65.76l-.42 1.06-.15.44c-.13.4-.28.85-.54 1.17-.35.41-.95.54-1.45.64-1.81.37-3.5.22-5.5-.48a8.46 8.46 0 0 1-4.48-3.38c-.22-.35-.39-.7-.52-1.05-.24-.66-.13-1.1.13-1.64.43-.87.96-1.76 1.63-2.72.2-.28.01-.51-.13-.61a.44.44 0 0 0-.26-.09Z" fill="#151921"/><path d="M197.5 123.68a.62.62 0 0 0-.85.14c-.36.49-.7.99-1.03 1.5a.6.6 0 0 0 .15.85c.26.17.66.14.84-.14.32-.52.67-1.02 1.04-1.5.18-.26.12-.67-.15-.85Z" fill="#151921"/><path d="M196.14 126.44a.9.9 0 0 1-.46-.13.75.75 0 0 1-.31-.5.82.82 0 0 1 .12-.57c.33-.52.68-1.03 1.04-1.51.25-.34.7-.41 1.06-.18.16.1.27.27.31.48.04.21 0 .42-.13.59-.35.47-.7.98-1.03 1.5a.69.69 0 0 1-.6.32Zm1-2.7a.43.43 0 0 0-.35.18c-.35.47-.7.98-1.02 1.5a.5.5 0 0 0-.09.34c.02.1.1.22.18.27.1.07.25.1.38.06a.35.35 0 0 0 .22-.15c.33-.52.68-1.03 1.04-1.52a.43.43 0 0 0 .07-.33.42.42 0 0 0-.18-.27.42.42 0 0 0-.24-.09ZM199.88 125.65a.63.63 0 0 0-.25-.38.6.6 0 0 0-.45-.11c-.15.03-.3.1-.4.25l-.82 1.43a.7.7 0 0 0-.1.46.61.61 0 0 0 .7.5c.15-.05.3-.12.38-.26l.84-1.43c.09-.15.13-.29.1-.46Z" fill="#151921"/><path d="M198.46 127.96a.83.83 0 0 1-.44-.14.75.75 0 0 1-.31-.5.81.81 0 0 1 .12-.56l.83-1.43a.74.74 0 0 1 .5-.32c.17-.04.38 0 .57.13.16.1.28.29.32.49a.82.82 0 0 1-.13.56l-.83 1.43a.74.74 0 0 1-.49.32c-.05.02-.1.02-.14.02Zm.83-2.64h-.06c-.14.04-.24.1-.28.17l-.83 1.43a.52.52 0 0 0-.09.34c.02.11.1.22.18.28.11.07.23.1.32.08.14-.03.24-.09.28-.16l.83-1.43c.09-.14.1-.24.09-.35a.42.42 0 0 0-.18-.27.48.48 0 0 0-.26-.1ZM204.14 126.5a.62.62 0 0 0-.78.35l-.69 1.56c-.12.29.06.68.36.78.32.1.64-.04.78-.35l.68-1.56c.13-.3-.05-.69-.35-.78Z" fill="#151921"/><path d="M203.24 129.38a.74.74 0 0 1-.7-.45.74.74 0 0 1-.01-.6l.68-1.55c.17-.4.58-.57.97-.44.2.06.35.21.44.4.09.2.09.42.02.6l-.68 1.55a.76.76 0 0 1-.72.49Zm.69-2.75c-.18 0-.34.1-.42.28l-.68 1.56a.42.42 0 0 0 .02.32c.05.12.14.2.23.23.25.09.48-.02.58-.26l.68-1.55a.4.4 0 0 0-.02-.32.4.4 0 0 0-.23-.23.36.36 0 0 0-.16-.03ZM206.75 123.3c-.12-.28-.52-.47-.8-.3-1.18.73-2.7.6-3.97.2a6.07 6.07 0 0 1-1.8-.88 4.28 4.28 0 0 1-1.03-1.07c-.03-.05-.06-.13-.1-.18-.03-.02-.04-.04-.04-.05 0 .01-.02.01 0-.01 0-.04.02-.05.02-.03.37-.54-.33-1.3-.86-.8-.78.75-.11 1.73.49 2.37a6.58 6.58 0 0 0 2.32 1.56c1.68.69 3.9.97 5.5-.02.27-.17.42-.48.28-.8Z" fill="#151921"/><path d="M203.98 124.9a8.4 8.4 0 0 1-3.08-.64 6.64 6.64 0 0 1-2.38-1.6c-1.25-1.34-.95-2.16-.48-2.61a.67.67 0 0 1 .94-.03c.25.21.4.62.21.99.03.03.04.06.06.1l.03.05a4.08 4.08 0 0 0 1 1.03c.5.36 1.08.64 1.75.86.87.27 2.54.61 3.84-.18.15-.1.34-.12.54-.06.22.06.41.23.5.42.16.36.02.77-.36 1-.82.5-1.73.67-2.57.67Zm-5.46-4.73a.39.39 0 0 0-.26.12c-.53.5-.37 1.22.49 2.14.6.65 1.37 1.16 2.26 1.53 1.55.63 3.77.96 5.36 0 .18-.11.34-.33.23-.6a.48.48 0 0 0-.3-.23c-.05-.02-.17-.04-.27.02-1.04.64-2.5.71-4.11.22a6.2 6.2 0 0 1-1.84-.91 4.33 4.33 0 0 1-1.08-1.1l-.05-.09c-.01-.02-.03-.07-.05-.07v-.02a.2.2 0 0 1-.07-.07.18.18 0 0 1 0-.12c0-.06.02-.1.07-.14.1-.2 0-.44-.14-.56a.3.3 0 0 0-.24-.12Z" fill="#151921"/><path d="M144.38 106.69a8.7 8.7 0 0 0-7.3 1.98 2.6 2.6 0 0 0-1.67 2.04l-.01.24c-.37.98-.37 2-.2 3.04.1.62.27 1.15.76 1.57.44.4 1 .7 1.54.95 1.08.5 2.26.83 3.44 1.03 2.24.39 4.72.22 6.56-1.25.74-.6 2.17-1.96 1.31-2.98a1.3 1.3 0 0 0-.93-.44 3.36 3.36 0 0 0 .84-1.28c.14-.26.25-.55.31-.86.47-2.4-2.78-3.7-4.65-4.04Z" fill="#FFBF24"/><path d="M145.69 106.5c-2-.67-4.21-.4-6.05.58a.51.51 0 0 0-.24.25c-1.95.73-3.58 2.17-4.12 4.29-.2.75.98 1.01 1.17.27.63-2.44 3.1-3.71 5.47-3.9a9.57 9.57 0 0 1 3.8.3c2.08.72 2.27 1.6 2.66 3.53.11.57.68-.24.74-.84.26-2.25-1.44-3.82-3.43-4.48Z" fill="#FCFA9C"/><path d="M141.7 116.1c-3.8 0-6.82-1.95-7.05-4.68-.12-1.47.6-2.9 2.02-4.02a9.63 9.63 0 0 1 5.1-1.87c4.22-.34 7.75 1.69 8 4.64.12 1.48-.6 2.9-2.03 4.02a9.62 9.62 0 0 1-5.1 1.87c-.3.03-.62.04-.93.04Zm.97-8.96c-.25 0-.5 0-.76.03a7.9 7.9 0 0 0-4.21 1.52c-.98.77-1.48 1.7-1.4 2.6.16 1.97 3 3.41 6.21 3.14a7.9 7.9 0 0 0 4.22-1.52c.97-.77 1.47-1.7 1.4-2.6-.16-1.8-2.58-3.17-5.46-3.17Z" fill="#151921"/><path d="M149.62 110.91a.82.82 0 0 1-.75.03l-.1-.05c-.03.4-.14.8-.34 1.15l.03 1.18c0 .52.14 1.19-.02 1.69-.14.47-.62.8-1.03 1.07a9.75 9.75 0 0 1-5.16 1.64 8.29 8.29 0 0 1-5.35-1.36c-.3-.22-.6-.48-.85-.75-.42-.45-.51-.83-.47-1.45.07-1.04.23-2.08.44-3.12.17-.76-1.03-1.02-1.19-.26-.25 1.2-.46 2.46-.49 3.7-.02 1.14.7 1.95 1.55 2.63a9.37 9.37 0 0 0 6.13 1.82c2.28-.07 4.38-.62 6.26-1.99.4-.3.85-.66 1.14-1.08.3-.44.3-.9.29-1.42l-.08-3.46v.03Z" fill="#151921"/><path d="M141.64 119c-2.24 0-4.3-.65-5.84-1.86-.77-.6-1.65-1.46-1.62-2.76.03-1.07.19-2.25.5-3.73.06-.22.18-.4.36-.5.16-.09.35-.11.55-.07.38.08.71.41.6.9a21.16 21.16 0 0 0-.44 3.1c-.04.6.07.92.43 1.31.24.25.52.5.83.73a8.2 8.2 0 0 0 5.24 1.33 9.56 9.56 0 0 0 5.07-1.6c.4-.28.85-.58.97-1 .1-.32.07-.74.04-1.15a11.1 11.1 0 0 1-.04-.48l-.02-1.18.01-.08c.19-.34.3-.7.32-1.09.01-.06.05-.1.1-.13a.17.17 0 0 1 .16 0v.15h.02l.04-.1c.15.06.37.1.59-.03l.03-.02a.15.15 0 0 1 .17 0c.04.03.08.08.08.14l.01.66.06 2.8c.01.53.02 1.03-.31 1.5-.3.45-.75.81-1.18 1.13a11.04 11.04 0 0 1-6.35 2.02l-.38.01Zm-6.22-8.6a.4.4 0 0 0-.4.32 19.75 19.75 0 0 0-.5 3.66c-.02 1.16.78 1.95 1.5 2.5a9.2 9.2 0 0 0 6.02 1.8c2.46-.09 4.47-.73 6.16-1.96.41-.3.83-.64 1.1-1.04.27-.4.27-.83.26-1.32-.02-.93-.03-1.87-.06-2.8v-.41a.95.95 0 0 1-.57-.02 3.1 3.1 0 0 1-.32.95l.03 1.14.02.46c.04.42.07.9-.05 1.28-.15.52-.67.87-1.08 1.14a9.8 9.8 0 0 1-5.26 1.67 8.5 8.5 0 0 1-5.45-1.39c-.34-.24-.63-.5-.88-.77-.47-.51-.55-.96-.5-1.56.05-.98.2-2 .44-3.14.03-.13.01-.24-.06-.33a.52.52 0 0 0-.29-.18h-.11Z" fill="#151921"/><path d="M138.42 114.45a.62.62 0 0 0-.72.45c-.15.59-.27 1.19-.37 1.78-.03.17 0 .32.08.46.08.13.23.24.37.27.3.05.67-.13.72-.45.1-.6.23-1.2.37-1.79a.6.6 0 0 0-.45-.72Z" fill="#151921"/><path d="m137.9 117.58-.14-.01a.79.79 0 0 1-.49-.34c-.1-.16-.14-.36-.1-.57.1-.6.22-1.2.37-1.8.1-.4.48-.65.9-.58.2.04.37.16.48.33.12.18.16.4.11.6-.15.57-.27 1.17-.37 1.77a.69.69 0 0 1-.29.45c-.13.1-.3.15-.47.15Zm.4-2.97a.45.45 0 0 0-.44.34c-.15.58-.28 1.18-.37 1.77-.03.14 0 .26.05.35.06.09.18.17.27.19.13.02.27-.01.37-.08a.35.35 0 0 0 .16-.24c.1-.6.22-1.2.37-1.8.02-.1 0-.23-.07-.34a.4.4 0 0 0-.26-.18c-.01-.02-.05-.02-.08-.02ZM141.38 115.36a.63.63 0 0 0-.37-.26c-.16-.03-.33-.02-.46.08-.12.09-.24.22-.26.37l-.22 1.64c-.02.17 0 .32.09.46.08.12.22.24.36.26.16.03.33.02.46-.08.13-.09.24-.22.27-.37l.21-1.64c.03-.17.02-.32-.08-.46Z" fill="#151921"/><path d="m140.66 118.08-.16-.01a.79.79 0 0 1-.49-.34.84.84 0 0 1-.1-.57l.21-1.65a.73.73 0 0 1 .33-.48.71.71 0 0 1 .58-.1.8.8 0 0 1 .49.33c.14.21.12.43.1.57l-.2 1.64c-.04.24-.23.41-.34.48a.66.66 0 0 1-.42.13Zm.2-2.84a.4.4 0 0 0-.22.07.46.46 0 0 0-.2.26l-.21 1.64c-.02.15 0 .26.06.35.05.1.17.17.26.19.13.02.25 0 .34-.06.1-.08.18-.17.2-.26l.2-1.65c.02-.15 0-.26-.05-.35a.46.46 0 0 0-.26-.19h-.11ZM145.63 114.5a.62.62 0 0 0-.58.62c0 .57-.02 1.13-.03 1.7 0 .3.32.6.63.58a.61.61 0 0 0 .58-.63l.03-1.69c0-.32-.31-.6-.63-.58Z" fill="#151921"/><path d="M145.6 117.56a.74.74 0 0 1-.5-.21.71.71 0 0 1-.24-.54l.02-1.7c.01-.42.32-.75.74-.78.2-.02.4.05.55.2.16.15.25.34.24.54l-.03 1.7c0 .42-.31.75-.73.78l-.04.01Zm.05-2.9a.46.46 0 0 0-.44.47l-.02 1.7c0 .1.05.2.14.29.09.08.21.13.31.12.26-.02.43-.2.43-.46l.03-1.7c0-.1-.05-.2-.14-.3a.41.41 0 0 0-.31-.12ZM146.8 110.54c-.22-.2-.66-.23-.85.04-.81 1.12-2.26 1.59-3.6 1.7-.67.07-1.33.04-1.99-.11a4.43 4.43 0 0 1-1.37-.59l-.17-.12c-.04-.02-.05-.02-.06-.04 0 .02-.02.02 0 0-.03-.04 0-.06 0-.03.13-.64-.81-1.1-1.1-.42-.44 1 .56 1.64 1.36 2 .86.39 1.8.56 2.75.55 1.8-.01 3.97-.6 5.07-2.13.2-.27.22-.62-.03-.85Z" fill="#151921"/><path d="M141.72 113.68c-1 0-1.93-.19-2.76-.57-1.67-.74-1.71-1.62-1.45-2.21.16-.36.5-.51.85-.4.32.1.61.43.57.84l.1.06a4.98 4.98 0 0 0 3.3.72c.92-.08 2.59-.4 3.47-1.64.11-.15.28-.24.48-.26.23-.03.47.05.62.2.3.27.33.7.06 1.06-1.46 2.02-4.35 2.2-5.2 2.2h-.04Zm-3.59-2.88c-.1 0-.23.04-.31.23-.3.67.13 1.27 1.28 1.78.8.36 1.7.55 2.68.53 1.68 0 3.84-.56 4.94-2.07.12-.17.19-.44-.02-.64a.45.45 0 0 0-.36-.1.37.37 0 0 0-.25.12c-.71 1-2.03 1.62-3.71 1.78-.73.06-1.42.02-2.05-.13a5.07 5.07 0 0 1-1.5-.66.53.53 0 0 1-.07-.06h-.02a.16.16 0 0 1-.08-.05.16.16 0 0 1-.05-.1.23.23 0 0 1 0-.17c.03-.23-.16-.4-.34-.46-.04.01-.09 0-.14 0ZM186.4 113.58c-.29.83-1.59.98-2.32 1.04a8.9 8.9 0 0 1-3.85-.43c-1-.35-1.91-.95-2.62-1.75a3.44 3.44 0 0 1-.85-1.49c-.08-.36-.02-.92.4-1.08.98-.37.56-1.95-.44-1.58-1.7.64-1.94 2.54-1.19 4.02a7.31 7.31 0 0 0 3.57 3.19c1.7.74 3.57.93 5.4.71 1.45-.18 2.97-.7 3.48-2.2.35-1-1.24-1.43-1.58-.43ZM169 116.85c-1.02-.23-1.47 1.34-.43 1.58.72.16.75 1.02.5 1.59a4.56 4.56 0 0 1-1.78 1.96c-1.74 1.12-3.84 1.3-5.86 1.26-1.06-.02-1.06 1.62 0 1.64 2.66.06 5.4-.35 7.52-2.1a5 5 0 0 0 1.9-3.17c.13-1.2-.61-2.48-1.85-2.76ZM113.72 113c-1.75 1.71-4.35 1.74-6.57 1.06a6.05 6.05 0 0 1-2.84-1.54c-.57-.64-.81-1.72-.16-2.39.75-.75-.42-1.9-1.16-1.15-1 1.02-1.07 2.55-.46 3.8.65 1.36 2.1 2.12 3.45 2.62 2.96 1.1 6.53 1.1 8.91-1.24.74-.75-.41-1.91-1.17-1.17Z" fill="#151921"/><path d="M47.76 118.17a11.79 11.79 0 0 0-7.5 7.04c-.8.98-1.18 2.3-.7 3.51l.14.3c.19 1.4.84 2.62 1.71 3.76.52.68 1.07 1.2 1.92 1.41.78.19 1.65.2 2.45.16a18.2 18.2 0 0 0 4.77-.95c2.94-.96 5.8-2.74 7.07-5.68.52-1.19 1.36-3.74-.33-4.4a1.76 1.76 0 0 0-1.4.05 4.66 4.66 0 0 0 .19-2.07c0-.4-.05-.8-.17-1.23-.94-3.18-5.68-2.66-8.15-1.9Z" fill="#FFBF24"/><path d="M49.21 117.11c-2.83.47-5.3 2.2-6.9 4.55a.72.72 0 0 0-.12.46c-1.86 2.12-2.9 4.87-2.2 7.76.26 1.03 1.83.6 1.59-.43-.82-3.33 1.35-6.43 4.06-8.16 1.45-.91 3.06-1.8 4.76-2.06 2.95-.46 3.75.48 5.45 2.55.5.6.66-.72.35-1.48-1.12-2.86-4.18-3.66-6.99-3.19Z" fill="#FCFA9C"/><path d="M46.42 123.73a51.52 51.52 0 0 0-4.23-2.53c-.38-.2-.92-.09-1.11.31-.2.4-.1.9.32 1.12 1.45.77 2.86 1.61 4.23 2.53.36.24.92.06 1.11-.32.2-.43.06-.86-.32-1.11ZM49.65 122.8l-1.98-1.2c-.37-.22-.93-.06-1.12.33-.2.4-.07.87.32 1.1l1.98 1.2c.37.22.93.07 1.12-.31a.83.83 0 0 0-.32-1.12ZM49.53 119.96l-1-.62a.58.58 0 0 0-.3-.1.58.58 0 0 0-.31.02c-.11.03-.2.08-.3.15a.64.64 0 0 0-.21.25.84.84 0 0 0-.08.61l.09.2c.07.13.18.23.3.3l1.01.62c.09.06.2.1.3.1.11.02.2 0 .32-.02.1-.03.2-.08.27-.15a.64.64 0 0 0 .23-.25c.09-.18.14-.4.07-.61l-.08-.2a.72.72 0 0 0-.3-.3Z" fill="#fff"/><path d="M44.79 132.41c-2.33 0-4.34-.84-5.41-2.51-2.07-3.2.04-8.21 4.68-11.2 4.64-2.97 10.09-2.8 12.15.4 2.06 3.2-.04 8.21-4.68 11.2a12.8 12.8 0 0 1-6.74 2.11Zm.15-12.33c-3.87 2.5-5.75 6.5-4.18 8.94 1.56 2.43 6 2.39 9.88-.1 3.88-2.5 5.76-6.5 4.2-8.94-1.58-2.44-6.01-2.39-9.9.1Z" fill="#151921"/><path d="M56.46 119.69c-.2.32-.52.48-.87.5h-.14c.22.5.33 1.04.33 1.6l.8 1.4c.35.61.93 1.33 1.08 2.03.13.65-.23 1.33-.54 1.92a12.82 12.82 0 0 1-5.06 5.17c-2.16 1.3-4.7 2.08-7.22 1.7a7.82 7.82 0 0 1-1.5-.35c-.8-.28-1.14-.68-1.5-1.44-.6-1.29-1.07-2.63-1.47-4-.3-1.01-1.88-.58-1.59.44.48 1.6 1.04 3.22 1.8 4.72.7 1.38 2.09 1.9 3.55 2.18 2.92.55 5.9-.2 8.44-1.65 2.66-1.51 4.8-3.48 6.15-6.28.3-.62.59-1.3.65-2 .07-.72-.23-1.26-.57-1.86l-2.33-4.1-.01.02Z" fill="#151921"/><path d="M45.6 131.3a.84.84 0 0 0-.58 1c.2.8.43 1.6.7 2.37.08.2.2.4.4.5.17.1.43.14.61.08.4-.13.73-.58.58-1.01-.26-.79-.5-1.57-.7-2.38-.11-.41-.6-.7-1.02-.57ZM49.72 130.49a.83.83 0 0 0-1.12.32c-.1.18-.15.42-.08.61l.8 2.1c.08.22.19.4.4.5.17.1.42.14.61.08.2-.06.4-.2.5-.4.1-.17.15-.41.08-.6l-.8-2.11a.86.86 0 0 0-.4-.5ZM54.27 126.75c-.4.25-.5.71-.3 1.12l1.06 2.05c.2.39.76.53 1.12.3.4-.25.51-.71.3-1.12l-1.05-2.06c-.2-.37-.77-.52-1.13-.3ZM43.98 127.1l-.03-.03v.03h.02ZM51.9 119.4c-.44-.09-.89.12-1.01.57-.1.4.14.92.57 1 .3.06.44.22.55.55.14.36.14.76.08 1.16a4.4 4.4 0 0 1-1.24 2.36c-1.49 1.54-3.7 2.01-5.77 2.2-.44.03-.82.34-.82.8 0 .42.38.87.82.83 2.69-.23 5.56-.93 7.33-3.13.8-1 1.33-2.2 1.35-3.49.03-1.18-.56-2.61-1.86-2.86ZM65.01 107.08c-5.56-.43-12.62 4.6-14.79 9.75-.4.98 1.1 1.65 1.5.67 1.87-4.45 8.64-9.36 13.48-8.99 1.05.08.87-1.35-.19-1.43ZM41.03 123.26c-.12-.46-.57-.66-1-.57-2.99.54-8.93 4.22-10.64 6.7-.25.37-.07.91.3 1.12.4.24.87.08 1.12-.3 1.48-2.14 7.1-5.48 9.66-5.94.43-.08.68-.6.56-1.01Z" fill="#151921"/><path d="M95.47 114.73a3.33 3.33 0 0 0-2.7-.84c-.96.12-1.99.45-2.8 1.01a3.35 3.35 0 0 0-1.47 2.55c-.03.33-.02.66.03.99a3.43 3.43 0 0 0 1.53 2.87c.36.25.9.06 1.12-.3.24-.4.07-.87-.3-1.12l-.05-.04-.04-.03a3.34 3.34 0 0 1-.63-1.58c0-.22.04-.4.13-.61.12-.29.31-.54.58-.78a2.64 2.64 0 0 1 1.86-.62c.72.04 1.45.42 1.96 1 .24.27.7.3 1 .13.99-.6.44-2-.22-2.63Z" fill="#FCFA9C"/><path d="M103.75 123.92c-1.85 1.63-4.88 1.27-7.1.83-2.47-.5-5.1-1.43-7.03-3.09-1.71-1.46-2.78-3.62-1.46-5.71 1.4-2.23 4.22-2.73 6.66-2.79 1.05-.02 1.06-1.66 0-1.63-2.4.05-4.87.49-6.75 2.08a5.67 5.67 0 0 0-2 5.65c.53 2.08 2.27 3.69 4.05 4.76a19.47 19.47 0 0 0 7.34 2.52c2.56.35 5.4.35 7.45-1.46.8-.7-.37-1.85-1.16-1.16Z" fill="#151921"/><path d="M86.92 116.53c-.4-.1-.93.13-1.01.57-.37 2.02-.61 4.06-.72 6.1-.02.44.4.82.82.82.46 0 .8-.38.82-.82.1-1.9.32-3.79.66-5.66.07-.44-.12-.89-.57-1.01Z" fill="#151921"/><path d="M96.43 127.71c-1.84-.24-3.7-.54-5.46-1.14-.83-.29-1.62-.66-2.36-1.12a7.8 7.8 0 0 1-1.06-.8c-.28-.24-.7-.58-.73-.98-.04-.44-.35-.82-.82-.82-.41 0-.87.38-.83.82.12 1.2.97 1.99 1.88 2.69.88.66 1.85 1.17 2.87 1.57 2.08.81 4.3 1.13 6.5 1.43.45.06.83-.42.83-.82 0-.5-.37-.76-.82-.83Z" fill="#151921"/><path d="M90.18 122.64a.84.84 0 0 0-1.01.58l-.69 2.42c-.11.41.14.91.58 1 .43.1.89-.12 1-.56l.7-2.43c.1-.4-.15-.9-.58-1Z" fill="#151921"/><path d="M135.81 122.42c-.38-1.12-1.85-1.52-2.86-1.8a12.04 12.04 0 0 0-7.81.5.88.88 0 0 0-.55.78c-1.87.72-3.6 1.8-5.03 3.11-.78.71.38 1.87 1.16 1.16a13.75 13.75 0 0 1 6.73-3.36 9.56 9.56 0 0 1 3.8-.08c.62.14 1.11.4 1.59.83.42.38.8.74 1.39.82 1.15.17 1.94-.9 1.58-1.96Z" fill="#FCFA9C"/><path d="M136.63 121.66c-1.4-3-5.09-2.92-7.87-2.53-3.67.5-7.23 1.8-10.2 4.03-.83.63-.02 2.05.83 1.42a20.38 20.38 0 0 1 8.82-3.72c1.62-.29 3.55-.59 5.14-.02 1.45.52 2.51 2.01 1.62 3.46-.76 1.24-2.28 1.95-3.54 2.57a24.26 24.26 0 0 1-5.1 1.87c-1.64.4-3.32.61-5.01.59-1.56-.03-3.58-.31-4.1-2.07-.29-1-1.87-.58-1.58.44.93 3.18 4.66 3.42 7.43 3.2a25.16 25.16 0 0 0 9.83-2.94c2.26-1.2 5.09-3.4 3.73-6.3Z" fill="#151921"/><path d="M118.05 131.5c-.05-.24-.1-.49-.13-.74v-.02l-.02-.17a10.99 10.99 0 0 1-.04-1.85c.02-.43-.4-.83-.82-.82a.84.84 0 0 0-.82.82 12.1 12.1 0 0 0 .25 3.22c.1.42.6.7 1.01.57a.84.84 0 0 0 .57-1ZM137.32 126.17c-.35-.22-.93-.11-1.12.3-.77 1.65-2.3 2.68-3.9 3.44-1.9.9-4.01 1.58-6.15 1.54-1.06-.03-1.06 1.61 0 1.64 2.43.04 4.8-.73 6.97-1.77 1.84-.87 3.62-2.14 4.49-4.03.2-.4.12-.88-.29-1.12Z" fill="#151921"/><path d="M137.81 126.66c-.16-1.19-.32-2.38-.5-3.57-.02-.2-.22-.4-.37-.5a.82.82 0 0 0-.64-.08c-.2.07-.4.2-.49.38-.1.2-.11.4-.08.63l.5 3.57c.02.19.22.4.38.5.17.1.43.14.63.08.2-.07.4-.2.5-.38.1-.2.1-.4.07-.63ZM134.83 127.85V127.8l-.01.03a.49.49 0 0 0 0-.24c0-.11-.04-.22-.1-.3a.58.58 0 0 0-.2-.24.62.62 0 0 0-.29-.15l-.22-.03a.79.79 0 0 0-.4.12l-.17.13c-.1.1-.18.22-.22.36l-.01.07-.04.29v.08a3.1 3.1 0 0 0 .08.43c.04.12.09.23.16.33.04.1.12.17.2.23a.6.6 0 0 0 .29.15c.1.03.22.04.33.01.1 0 .2-.04.3-.1.06-.03.12-.08.16-.13.1-.1.18-.22.22-.36l.03-.22a.73.73 0 0 0-.1-.4ZM131.5 113.75a12.9 12.9 0 0 0-11.66.01c-.95.48-.1 1.9.83 1.42 3.1-1.59 6.9-1.6 10-.02.94.48 1.77-.93.83-1.41ZM156.3 124.93c-3.7.24-7.49-1.23-9.98-4.02-.3-.34-.75-.47-1.14-.2-.34.23-.5.81-.2 1.14a14.17 14.17 0 0 0 11.33 4.73v-1.65ZM194.75 126.01a16.54 16.54 0 0 1-11.22 3.6c-1.63-.1-3.75-.37-4.84-1.73-1.52-1.9 1.33-3.84 2.92-4.46.98-.38.55-1.97-.44-1.59-1.98.78-4.94 2.75-4.6 5.23.33 2.32 2.73 3.54 4.81 3.94 5.12.98 10.51-.58 14.53-3.83.82-.67-.35-1.82-1.16-1.16Z" fill="#151921"/><path d="M187.09 132.38c-2.2.57-4.52.6-6.72.03-.38-.1-.98-.17-1.28-.43-.3-.25-.3-.8-.35-1.15l-.55-3.7c-.06-.44-.62-.69-1-.58-.47.13-.65.57-.58 1 .2 1.37.35 2.74.6 4.1.1.54.31 1.1.72 1.48.44.43 1.08.6 1.66.77 2.59.73 5.35.73 7.94.05 1.02-.26.58-1.84-.44-1.57Z" fill="#151921"/><path d="M184.84 131.96a.9.9 0 0 0-.2-.34v-.02a.54.54 0 0 0-.07-.32.6.6 0 0 0-.17-.26.6.6 0 0 0-.26-.17.7.7 0 0 0-.32-.07c-.07 0-.15.01-.22.03a.76.76 0 0 0-.36.21l-.14.16a.81.81 0 0 0-.11.41v.09c0 .1.02.2.03.28l.04.17c.04.11.1.23.16.33.05.08.11.16.17.22l.06.07a.6.6 0 0 0 .26.17c.1.05.2.08.32.08s.22-.02.32-.08a.6.6 0 0 0 .27-.17l.13-.16a.81.81 0 0 0 .11-.41c0-.07 0-.14-.02-.22ZM198.58 116.9c-1.98-2.04-4.82-2.8-7.51-3.44-1.03-.25-1.46 1.33-.44 1.58 2.41.57 5.01 1.19 6.8 3.03.73.75 1.88-.4 1.15-1.16ZM219.2 129.02c-2.01-2.36-6.9-5.49-9.96-6.05-.43-.08-.88.13-1 .58-.11.4.13.92.57 1 2.81.51 7.38 3.46 9.23 5.64.29.33.86.3 1.16 0 .33-.34.28-.83 0-1.17ZM79.81 112.68c-1-.26-1.62 1.26-.59 1.52a3.4 3.4 0 0 1 2.52 3.4c-.01 1.63-1 3.11-2.22 4.15a14.5 14.5 0 0 1-5.06 2.5c-1.8.57-3.77 1-5.66.94-1.68-.04-3.54-.59-4.38-2.18-.88-1.68.25-3.47 1.53-4.57a20.47 20.47 0 0 1 10.41-4.7c1.05-.12.8-1.74-.26-1.6-3.82.44-7.48 2.26-10.54 4.53-2.57 1.9-4.38 5.4-1.86 8.14 2.47 2.7 6.63 2.2 9.81 1.4 3.37-.83 7.19-2.33 8.98-5.5 1.6-2.85.88-7.11-2.68-8.03Z" fill="#151921"/><path d="M79.94 125.24a17.02 17.02 0 0 1-14.15 2.33c-.23-.07-1-.2-1.17-.39-.23-.27-.17-1.12-.22-1.49l-.39-3.13c-.13-1.03-1.77-1.05-1.64 0l.45 3.63c.12.9.08 1.93.99 2.42 1.63.86 3.85 1.12 5.67 1.2 3.98.2 8-.9 11.3-3.14.86-.61.04-2.03-.84-1.43Z" fill="#151921"/><path d="M70.82 126.48a.54.54 0 0 0-.07-.32.61.61 0 0 0-.18-.26.85.85 0 0 0-.58-.24.85.85 0 0 0-.58.24c-.14.14-.27.36-.24.58l.13 1.27c0 .11.02.22.07.32a.85.85 0 0 0 .76.5c.21-.01.44-.09.58-.24.14-.15.27-.37.24-.58l-.13-1.27ZM103.01 105.5c-3.52-.3-7.1.12-10.45 1.21-1 .33-.58 1.9.43 1.58a25.33 25.33 0 0 1 10.02-1.15c1.05.08 1.05-1.56 0-1.64ZM90.87 102.55c-3.27-.12-6.56.27-9.72 1.16-.02.05-.05.1-.09.14l-.4.48c-.06.08-.12.17-.2.25 0 .03 0 .03-.02.03l-.04.06c-.28.36-.55.72-.84 1.07l-.03.03c.14.04.3.06.46 0a30.52 30.52 0 0 1 11.93-1.53c.26.02.45-.07.58-.21-.56-.49-1.08-.99-1.63-1.48Z" fill="#151921"/><path d="M85.17 129.02c-.26-.4-.71-.5-1.13-.3a27.31 27.31 0 0 0-4.66 2.83c-.35.25-.56.72-.3 1.12.22.33.76.57 1.13.3a26.5 26.5 0 0 1 4.66-2.83c.4-.2.53-.78.3-1.12ZM112.52 127.94a.84.84 0 0 0-.5-.37l-.21-.04a.8.8 0 0 0-.41.12c-.68.3-1.32.66-1.93 1.07a.87.87 0 0 0-.38.5.8.8 0 0 0 .08.62c.12.17.28.33.5.38.2.05.44.04.63-.08.6-.42 1.25-.77 1.93-1.07a.84.84 0 0 0 .37-.5.89.89 0 0 0-.08-.63ZM75.87 131.4a.85.85 0 0 0-.5-.37l-.21-.03a.8.8 0 0 0-.41.11c-.68.3-1.32.66-1.93 1.07a.87.87 0 0 0-.38.5.8.8 0 0 0 .08.63c.12.17.28.32.5.37.2.05.44.04.63-.08.6-.42 1.25-.77 1.92-1.07a.84.84 0 0 0 .38-.5.8.8 0 0 0-.08-.62ZM195.02 117.18a6.23 6.23 0 0 0-3.03-.77c-.43 0-.84.37-.82.81.02.45.36.82.82.82.21 0 .43.02.63.04a5.78 5.78 0 0 1 1.57.52c.38.2.91.1 1.13-.3.2-.38.1-.9-.3-1.12Z" fill="#fff"/><path d="M160.64 115.01a8 8 0 0 0-5.46-1.98c-.42 0-.83.36-.82.81.02.44.36.84.82.82l.64.01.32.02.06.01.12.02c.4.06.8.17 1.2.31l.27.1c.02 0 .02 0 .03.02.05.01.09.04.14.06a6.16 6.16 0 0 1 1.1.64l.14.1c-.06-.05-.05-.04.02.01l.25.2c.32.29.85.35 1.16 0 .3-.3.37-.84.01-1.15ZM155.17 127.6c-3.35.83-6.9.14-9.72-1.81-.87-.6-1.69.82-.83 1.42a13.77 13.77 0 0 0 10.99 1.98c1.02-.26.58-1.84-.44-1.58Z" fill="#151921"/><path d="M152.03 125.14a.85.85 0 0 0-.58-.23.84.84 0 0 0-.59.23.86.86 0 0 0-.24.58v1.39c0 .21.1.43.24.58.14.14.38.25.59.24.21-.01.43-.09.58-.24a.86.86 0 0 0 .24-.58v-1.39c0-.2-.1-.42-.24-.58Z" fill="#151921"/></svg>